<svg enable-background="new 0 0 275 232" viewBox="0 0 275 232" xmlns="http://www.w3.org/2000/svg"><path d="m32.7 181.6 66.1-38.2-29.9-17.2h.4l29.9 17.3-66.1 38.1z" fill="#3e8885"/><path d="m32.7 180.3-29.9-17.3 66.1-38.1 29.9 17.2z" fill="#0a3847"/><path d="m2.8 163v1.3l29.9 17.3v-1.3z" fill="#0a3847"/><path d="m98.8 142.1v1.3l-66.1 38.2v-1.3z" fill="#0a3847"/><path d="m69.4 101.9c-.7-.4-1.5-.4-2.3-.4-3 .2-5.6.7-8.4 1.7-2.4.9-4.9 1.8-7.3 2.7-1.8.6-3.1 1.1-3.1 1.1 0 .1.7 7 .7 7 1.8-.3 3.9-.6 5.4-1.2 1.2-.5 2.4-.8 3.6-1.4.7-.3 1.5-.8 2.2-.9-.2.9-1.4 1.8-2.1 2.4-2.6 2.4-4.5 5.3-6.3 8.3-.3.4-.5.8-.8 1.2.1.8.6 1.7 1.9 2.4.4-.4.7-.7 1.1-1.1.7-.6 1.4-1.2 1.9-1.7 3.4-3.4 6.9-6.7 10.4-10 1.7-1.6 3.2-2.8 4.1-5.1.6-1.5.9-3.9-1-5z" fill="#f36d00"/><path d="m70.7 103.4c-.2-.6-.6-1.1-1.3-1.5s-1.5-.4-2.3-.4c-3 .2-5.6.7-8.4 1.7-2.4.9-4.9 1.8-7.3 2.7-1.8.6-3.1 1.1-3.1 1.1s.1.6.3 1.4c.5-.4 1.1-.6 1.8-1 1.4-.7 2.6-.7 4.1-1.1 4-1.2 6.2-2.1 10.3-3.2 1.2-.3 4-.7 5.1-.2 0 .2.8.5.8.5z" fill="#db6610"/><path d="m50.8 122.5c-.1.1-.1.2-.2.3s-.1.2-.2.3-.3.1-.5.1c-.6 0-1.1 0-1.7 0-.1 0-.2 0-.3 0-.6.3-.8 3.5-1 4.2-.2 1-.4 2-.6 2.9-.2 1.2-.3 3.1 0 4.3.7-.3 1.5-.7 1.9-1.3.2-.3.4-.5.6-.8 1-1.7 1.7-3.7 2.3-5.5.3-.7.8-1.4 1.4-2-1.1-.8-1.6-1.7-1.7-2.5z" fill="#f2c7ad"/><path d="m46.5 130.3c-.2 1.2-.3 3.1 0 4.3.7-.3 1.5-.7 1.9-1.3.2-.3.4-.5.6-.8 1-1.7 1.7-3.7 2.3-5.5.3-.7.8-1.4 1.4-2-.7-.4-1.1-.8-1.4-1.2l-2 .5h-1.8c-.3 1.1-.4 2.7-.5 3.1-.2 1-.4 1.9-.5 2.9z" fill="#dcb79e"/><path d="m49.5 111.5-.6-.2-.7-3.3-6.2 1.3c-1.8 3.8-1.8 8.9-1.6 13.1.2 2.7.5 5 .9 7.6.1.8.4 2.1.4 2.9s-.4 1.5-.5 2.3c-.2 1.7-.3 3.6-.3 5.3.1 1.9.5 3.5.8 5.4.3 1.5.8 3 .9 4.6v.2c.5.3 1.7.8 3 .1 0-.1 0-.2 0-.3-.1-.8.1-1.4.2-2.2.6-3.5.3-7.1.5-10.6.1-1.6.2-3.1.3-4.7.2-2.8 1-5.5 1.6-8.2.7-2.7 1-5.5 1.3-8.4.2-2.4.4-3.5 0-4.9z" fill="#f36d00"/><path d="m43.6 109-1.6.4c-1.8 3.8-1.8 8.9-1.6 13.1.2 2.7.5 5 .9 7.6.1.8.4 2.1.4 2.9s-.4 1.5-.5 2.3c-.2 1.7-.3 3.6-.3 5.3.1 1.9.5 3.5.8 5.4.3 1.5.8 3 .9 4.6v.2c.2.2.6.3 1.1.4-.5-3-1.3-6.1-1.6-9.1-.3-2.8.4-5.6.8-8.4.3-2.9-.1-5.7-.4-8.6-.3-3.1-.4-6.1-.3-9.2 0-2.6.8-4.7 1.4-6.9z" fill="#db6610"/><path d="m58.5 76.1c-1.1.3-2.3.2-3.1-.9-.3-.3-.4-.6-.4-1.1 0-.2.1-.7.1-.9.1-.3.4-.7.6-1 .3-.4.6-.8 1-1.2.6-.6 1.2-1 1.9-1.4 2.6-1.6 5.6-2.2 8.3-3.8.2-.1.3-.2.5-.3l2.7-1.2 5.8-2.4 4.9-1.8 2.7-.5c.4-.1 1.8-.7 2.2-.9.5-.2 1-.4 1.5-.6.6-.2 2.6-.7 3.6-.2.3.2 1.2.6 1.2.7 0 1.1-1.3 1.3-2 1.7s-1.8.9-1.8 1 .7 0 .9 0c.3 0 .5-.1.9 0 .2.1.3.3.3.3-.1.3-1 .4-1.5.5s-1.1.1-1.7.2c-.8.2-1.6.1-2.5.1-1-.1-1.6.2-2.5.6-1.3.6-2.5 1.3-3.7 2-2.1 1.2-4.2 2.2-6.5 2.9-1.2.3-2.2 1.5-3.2 2.3-1.6 1.3-3.6 2-5.3 3.2-1.6 1.1-3.1 2.2-4.9 2.7z" fill="#eebfa2"/><path d="m68.5 70.3c1-.8 2-1.9 3.2-2.3 2.3-.7 4.4-1.7 6.5-2.9 1.2-.7 2.4-1.4 3.7-2 .9-.4 1.5-.7 2.5-.6.8.1 1.6.1 2.5-.1.5-.1 1.1-.1 1.7-.2s1.5-.2 1.5-.5c0-.1-.1-.3-.3-.3-.3-.1-.5-.1-.9 0-.3 0-.9.1-.9 0s1.1-.6 1.8-1c.6-.3 1.7-.6 1.9-1.3l-.5-.8-20.4 7.7-15.6 8.9v.1c0 .1.1.1.1.2.8 1.1 2 1.2 3.1.9 1.8-.4 3.3-1.6 4.8-2.6 1.8-1.2 3.8-1.9 5.3-3.2z" fill="#bd9c87"/><path d="m42.5 82.7c.9-.7 1.5-1.8 1.1-3.1-.1-.4-.3-.7-.6-1-.2-.1-.6-.3-.8-.4-.3-.2-.8 0-1.1 0-.5 0-1 0-1.5.1-.8.1-1.5.4-2.3.7-2.8 1.2-5.1 3.2-7.9 4.4-.2.1-.4.2-.6.2l-2.6 1.5-5.4 3.3-4.4 2.9-2 1.9c-.3.3-1.6 1-2 1.2-.5.3-.9.5-1.4.8s-2.1 1.7-2.3 2.8c-.1.4-.2 1.3-.1 1.4.7.8 1.7 0 2.5-.4.7-.3 1.9-1.2 1.9-1.1.1.1-.4.5-.6.7-.2.3-.3.4-.4.8-.1.2.1.4.1.4.3.1.9-.6 1.3-1s.8-.8 1.2-1.2c.6-.6 1.1-1.2 1.5-2 .5-.9 1.1-1.1 2-1.6 1.2-.7 2.5-1.2 3.8-1.8 2.2-1 4.2-2.1 6.1-3.6 1-.8 2.5-.9 3.7-1.2 2-.5 3.7-1.7 5.6-2.4 2-.6 3.8-1.2 5.2-2.3z" fill="#e7bda4"/><path d="m11.2 99c.7-.3 1.9-1.2 1.9-1.1.1.1-.4.5-.6.7-.2.3-.3.4-.4.8-.1.2.1.4.1.4.3.1.9-.6 1.3-1l1.2-1.2c.6-.6 1.1-1.2 1.5-2 .5-.9 1.1-1.1 2-1.6 1.2-.7 2.5-1.2 3.8-1.8 2.2-1 4.2-2.1 6.1-3.6 1-.8 2.5-.9 3.7-1.2 2-.5 3.7-1.7 5.6-2.4 1.7-.6 3.5-1.2 4.9-2.3.8-.7 1.4-1.6 1.2-2.8l-15.6 6.3-19.2 12.8v.3c.8.9 1.8 0 2.5-.3z" fill="#bd9c87"/><path d="m50.1 158.2-1.6-2.1-1.9-2.5c-.6-.8-.9-1.9-1-2.9-1.3.7-2.4.2-3-.1v.4c-.1 1.2-1 1.9-1.2 3.1-.2.9.3 1.9.9 2.6s1 1.3 1.5 2 1.2 1.4 2 1.8c.8.5 1.8.7 2.7.7.8 0 1.6-.2 2.2-.7.5-1-.2-1.6-.6-2.3z" fill="#f2c7ad"/><path d="m46 72.7c.2-.1.4-.2.6-.3-.3 0-.4.1-.6.3z" fill="#d7dee6"/><path d="m54.5 73.8c.1 0 .1-.1.2-.1z" fill="#d7dee6"/><path d="m49.2 71.6c-.3 0-.7.1-1 .1-.3.1-.7.2-1 .3.3-.2.7-.3 1-.3.4-.1.7-.1 1-.1z" fill="#d7dee6"/><path d="m54 71.6c.2 0 .3 0 .5.1-.2-.1-.4-.1-.5-.1z" fill="#d7dee6"/><path d="m49.5 71.5h.7c-.2 0-.5 0-.7 0z" fill="#d7dee6"/><path d="m51.6 71.4h.9c-.3.1-.6 0-.9 0z" fill="#d7dee6"/><path d="m53 71.5h.5c-.2 0-.4 0-.5 0z" fill="#d7dee6"/><path d="m40.7 77.2c-.1.1-.1.1-.2.2.1-.1.2-.1.2-.2z" fill="#d7dee6"/><path d="m50.6 71.5h.7c-.2-.1-.5-.1-.7 0z" fill="#d7dee6"/><path d="m40.7 84.6c0 .1.1.2.1.3 0-.1 0-.2-.1-.3z" fill="#d7dee6"/><path d="m41.1 85.4c.2.4.3.8.5 1.2-.2-.4-.4-.8-.5-1.2z" fill="#d7dee6"/><g fill="#eff3f5"><path d="m61.8 72.2c0-.3-.1-.6-.2-.9v-.1.1c0 .3.1.6.2.9z"/><path d="m61.7 73.8c-.1.3-.2.6-.3 1 .1-.4.3-.7.3-1z"/><path d="m56.9 78.7-1.6-3.9z"/><path d="m50.2 71.5h.4c-.2 0-.3 0-.4 0z"/><path d="m40.4 77.5.1-.1s0 0-.1.1z"/><path d="m49.2 71.6h.3c-.1-.1-.2-.1-.3 0z"/><path d="m46.5 72.3c.2-.1.4-.2.5-.3-.1.1-.3.2-.5.3z"/><path d="m40.4 77.5c-.2.2-.4.3-.5.5.2-.2.4-.4.5-.5z"/><path d="m55 71.7c-.2 0-.3 0-.5-.1.1.1.3.1.5.1z"/><path d="m51.3 71.4h.3c-.1 0-.2 0-.3 0z"/><path d="m44.4 73.7c-.4.3-.8.7-1.2 1.1-.8.8-1.7 1.6-2.5 2.4.8-.8 1.7-1.6 2.5-2.4.4-.5.8-.8 1.2-1.1z"/><path d="m46 72.7c-.2.1-.5.3-.7.4-.3.2-.6.4-.8.6.3-.2.5-.4.8-.6.2-.1.4-.3.7-.4z"/><path d="m53.5 71.5h.5c-.2.1-.4 0-.5 0z"/><path d="m52.5 71.5h.4c-.1 0-.2 0-.4 0z"/><path d="m42.8 106c.1-2.1.4-3.8.9-5.8.3-1.2.6-2.4.9-3.5.5-2.1 1.3-4.3.7-6.4-.3-1.1-.9-2.1-1.2-3.3-.3-1.1-2.2-2.1-3-2.5-.2-.1-.4-.2-.4-.2 0 .1 0 .1.1.2 0 .1.1.2.1.3.1.2.1.4.2.5.2.4.3.8.5 1.2s.3.8.5 1.2c.6 1.4 1.1 2.8 1.4 4.2.1.4.2.8.2 1.2.1.6.1 1.3.1 1.9 0 .7-.2 1.4-.4 2.1v.2c-.1.2-.1.3-.2.5-.1.3-.2.6-.3.9 0 .1-.1.2-.1.3-.1.3-.2.6-.2.9-.4 1.9-.8 3.2-.9 5.1v.1.1.2c-.1.8-.2 2.5-.2 3.6v.1.1.1.2s.5.1 1.2.3c-.3.1.1-3.5.1-3.8z"/><path d="m61.2 70.7c-.2-.2-.3-.4-.5-.5-.1-.1-.2-.2-.3-.3-.1 0-.2-.1-.3-.1-.3-.1-.7-.3-1.1-.3-.1 0-.1 0-.2 0-.2 0-.6 0-.7.1l-1.6 1-1.7 1.1c-.2 0-.3 0-.5-.1-.2 0-.3 0-.5-.1-.2 0-.3 0-.5 0s-.4 0-.5 0-.3 0-.4 0c-.3 0-.6 0-.9 0-.1 0-.2 0-.3 0-.2 0-.5 0-.7 0-.1 0-.2 0-.4 0s-.5 0-.7 0c-.1 0-.2 0-.3 0-.3 0-.7.1-1 .1-.3.1-.7.2-1 .3h-.1c-.2.1-.4.2-.5.3-.2.1-.4.2-.6.3s-.5.3-.7.4c-.3.2-.6.4-.8.6-.4.3-.8.7-1.2 1.1-.8.8-1.7 1.6-2.5 2.4-.1.1-.1.1-.2.2l-.1.1c-.2.2-.4.3-.5.5-.6.1-1.1.3-1.7.4-.3.1-.8.3-1.1.4-.1.1-1 .5-1.1.6 0 0-.1.1-.2.1.2 0 .6-.1.8-.1h.1c.8.4 1.3 1.3 1.6 2.1.1.4.1.9.1 1.3 0 .2-.2 1.8-.3 1.8.1 0 .4-1.8.4-2 .1-.5.1-.7-.1-1.2l1-.5 4.2-2.4 3.9-2.9 3-.4 3.6-1.3s.1-.1.4-.2l.2-.1c1.7-.7 6.6-2.8 6.7-2.7 0 .2-.1.1-.2 0z"/></g><path d="m61.8 73.2c0-.3 0-.6-.1-.9 0-.3-.1-.6-.2-.9v-.1c0-.1 0-.2-.1-.2 0-.1-5 2-6.7 2.7-.1 0-.2.1-.2.1l-.2.1h-.1l-3.6 1.3-3 .4-3.9 2.9-4.2 2.4-1 .5c.1.5.1.7.1 1.2 0 .2-.3 2-.4 2s1.5 0 2.7-.2c0-.1 0-.1-.1-.2 0 0 .1.1.4.2.8.4 2.8 1.4 3 2.5.3 1.1.9 2.1 1.2 3.3.6 2.1-.2 4.3-.7 6.4-.3 1.2-.6 2.4-.9 3.5-.5 2-.8 3.7-.9 5.8 0 .3-.4 3.9-.1 4-.7-.2-1.2-.3-1.2-.3s3.7 1 6.1.9c2.5-.1 4-.9 4-.9 1.2-.7 2.2-1 2.8-2.3l.9-1.9c.1-2.2 0-5.2-.3-8.4-.3-2.4.7-6.1 1-8.5.1-.9.8-2.5 1-4.1.4-2.6.2-5.3.3-5.4.1-.8.2-1 .2-1.2.2-.2.4-.4.6-.6.4-.3.9-.6 1.4-.8.1 0 .1-.1.2-.1.1-.1.2-.2.4-.3.2-.2.5-.4.7-.6s.5-.4.7-.6c.1-.3.2-.6.3-1-.1-.3-.1-.5-.1-.7z" fill="#d7dee6"/><path d="m54.2 73.9.3-.1c-.2.1-.3.1-.3.1z" fill="#eff3f5"/><path d="m53 72.2-6-1.6-1.6-.6v.1.4c1 1.1 3.6 3.6 7.6 3.8.2-.5.1-1.5 0-2.1z" fill="#bd9c87"/><path d="m53 60.8c-1.2-1.5-2.7-3.1-4.6-3.5-1.7-.3-3.6-.1-5 .9-1.6 1-2.4 3.2-2.3 5.1.2 2 1.2 3.8 2.6 5.2s2.9 2.7 4.8 3.4c1.5.5 2.8 1 4.5.7 2.2-.5 2-3.4 1.9-5.1-.1-.9-.2-1.9-.3-2.8-.4-1.5-.7-2.7-1.6-3.9z" fill="#e7bda4"/><path d="m45.4 70.6v1.5 1.6c0 .1.4.7.5.8.3.3.5.4.8.6.5.4.9.6 1.5.9.9.6 2.3.6 3.2 0 .6-.3 1.1-.8 1.5-1.4.1-.1.1-.2.1-.3-3.9-.1-6.6-2.6-7.6-3.7z" fill="#e7bda4"/><path d="m44.2 66.2c-.2 0 0 0 0 0z" fill="#662622"/><path d="m43.7 151c-.5-.1-.8-.3-1.1-.4v.4c-.1 1.2-1 1.9-1.2 3.1-.1.6.1 1.3.4 1.8.2-1.1.7-1.9.7-1.9z" fill="#f2c7ad"/><path d="m57.9 113c-2.6 2.4-4.5 5.3-6.3 8.3-.3.4-.5.8-.8 1.2.1.4.2.8.5 1.2.7-1.5 1.5-2.9 2.5-4.3 2.1-3.3 4.9-6.1 7.6-9.1.1-.1.2-.3.3-.4l-1.7.6c-.2 1.1-1.4 1.9-2.1 2.5z" fill="#db6610"/><path d="m50.1 158.2-1.6-2.1-1.9-2.5c-.6-.8-.9-1.9-1-2.9-.7.4-1.4.4-1.9.3l-1.2 2.9s-.5.8-.7 1.9c.1.3.3.5.5.7 0 0 0 0 .1.1.5.7 1 1.3 1.5 1.9.5.7 1.2 1.4 2 1.8.1 0 .2.1.2.1.7.4 1.7.5 2.4.5.8 0 1.6-.2 2.2-.7.5-.7-.2-1.3-.6-2z" fill="#dcb79e"/><path d="m52 58.5c-.5-.5-1.1-1-1.8-1.3-1.3-.6-2.8-1-4.3-.9-.8.1-1.9.3-2.6.7-.5.3-.7.4-1.2.8-.2.2-.4.4-.6.6-.3.3-.5.9-.6 1.3-.2.5-.3 1-.4 1.4-.1.8-.1 1.5 0 2.1 0 .8.2 1.5.2 1.9.2 1.2.6 2.2 1 3.3.1.3.8 2.8 1.1 2.8.1 0 4 2.7 4 2.7-.1-.1-.2-.5-.2-.7-.1-.2-.1-.5-.2-.7-.3-1.1-.7-2.2-.9-3.3-.2-1.2-.1-3.4.2-4.5 0-.2.1-.3.1-.5.4-1.2 1.4-2.3 2.5-2.9.6-.3 1.2-.5 1.8-.7.6-.1 1.2-.1 1.8-.1h1.1c-.3-.5-.4-1.3-1-2z" fill="#7b5b43"/><path d="m52 58.5c-.5-.5-1.1-1-1.8-1.3-.2-.1-.3-.1-.5-.2-2 2.3-3.8 5.3-4.9 9-.1.6-.1 1.2-.2 1.7 0 2 .4 4.1 1.4 5.9.4.3.6.4.6.4-.1-.1-.2-.5-.2-.7-.1-.2-.1-.5-.2-.7-.3-1.1-.7-2.2-.9-3.3-.2-1.2-.1-3.4.2-4.5 0-.2.1-.3.1-.5.4-1.2 1.4-2.3 2.5-2.9.6-.3 1.2-.5 1.8-.7.6-.1 1.2-.1 1.8-.1h1.1c-.1-.6-.2-1.4-.8-2.1z" fill="#6c513c"/><path d="m115.8 133.6 66.1-38.1-29.9-17.3h.4l29.9 17.3-66.1 38.1z" fill="#3e8885"/><path d="m115.8 132.3-29.9-17.2 66.1-38.2 29.9 17.3z" fill="#0a3847"/><path d="m85.9 115.1v1.3l29.9 17.2v-1.3z" fill="#0a3847"/><path d="m181.9 94.2v1.3l-66.1 38.1v-1.3z" fill="#0a3847"/><path d="m152.5 53.9c-.7-.4-1.5-.4-2.3-.4-3 .2-5.6.7-8.4 1.7-2.4.9-4.9 1.8-7.3 2.7-1.8.6-3.1 1.1-3.1 1.1 0 .1.7 7 .7 7 1.8-.3 3.9-.6 5.4-1.2 1.2-.5 2.4-.8 3.6-1.4.7-.3 1.5-.8 2.2-.9-.2.9-1.4 1.8-2.1 2.4-2.6 2.4-4.5 5.3-6.3 8.3-.3.4-.5.8-.8 1.2.1.8.6 1.7 1.9 2.4.4-.4.7-.7 1.1-1.1.7-.6 1.4-1.2 1.9-1.7 3.4-3.4 6.9-6.7 10.4-10 1.7-1.6 3.2-2.8 4.1-5.1.6-1.5.9-3.9-1-5z" fill="#f36d00"/><path d="m153.8 55.4c-.2-.6-.6-1.1-1.3-1.5s-1.5-.4-2.3-.4c-3 .2-5.6.7-8.4 1.7-2.4.9-4.9 1.8-7.3 2.7-1.8.6-3.1 1.1-3.1 1.1s.1.6.3 1.4c.5-.4 1.1-.6 1.8-1 1.4-.7 2.6-.7 4.1-1.1 4-1.2 6.2-2.1 10.3-3.2 1.2-.3 4-.7 5.1-.2 0 .2.8.5.8.5z" fill="#db6610"/><path d="m133.9 74.5c-.1.1-.1.2-.2.3s-.1.2-.2.3-.3.1-.5.1c-.6 0-1.1 0-1.7 0-.1 0-.2 0-.3 0-.6.3-.8 3.5-1 4.2-.2 1-.4 2-.6 2.9-.2 1.2-.3 3.1 0 4.3.7-.3 1.5-.7 1.9-1.3.2-.3.4-.5.6-.8 1-1.7 1.7-3.7 2.3-5.5.3-.7.8-1.4 1.4-2-1.1-.8-1.6-1.7-1.7-2.5z" fill="#f2c7ad"/><path d="m129.6 82.3c-.2 1.2-.3 3.1 0 4.3.7-.3 1.5-.7 1.9-1.3.2-.3.4-.5.6-.8 1-1.7 1.7-3.7 2.3-5.5.3-.7.8-1.4 1.4-2-.7-.4-1.1-.8-1.4-1.2l-2 .5h-1.8c-.3 1.1-.4 2.7-.5 3.1-.2 1-.4 2-.5 2.9z" fill="#dcb79e"/><path d="m132.6 63.5-.6-.2-.7-3.3-6.2 1.3c-1.8 3.8-1.8 8.9-1.6 13.1.2 2.7.5 5 .9 7.6.1.8.4 2.1.4 2.9s-.4 1.5-.5 2.3c-.2 1.7-.3 3.6-.3 5.3.1 1.9.5 3.5.8 5.4.3 1.5.8 3 .9 4.6v.2c.5.3 1.7.8 3 .1 0-.1 0-.2 0-.3-.1-.8.1-1.4.2-2.2.6-3.5.3-7.1.5-10.6.1-1.6.2-3.1.3-4.7.2-2.8 1-5.5 1.6-8.2.7-2.7 1-5.5 1.3-8.4.2-2.4.4-3.5 0-4.9z" fill="#f36d00"/><path d="m126.7 61-1.6.4c-1.8 3.8-1.8 8.9-1.6 13.1.2 2.7.5 5 .9 7.6.1.8.4 2.1.4 2.9s-.4 1.5-.5 2.3c-.2 1.7-.3 3.6-.3 5.3.1 1.9.5 3.5.8 5.4.3 1.5.8 3 .9 4.6v.2c.2.2.6.3 1.1.4-.5-3-1.3-6.1-1.6-9.1-.3-2.8.4-5.6.8-8.4.3-2.9-.1-5.7-.4-8.6-.3-3.1-.4-6.1-.3-9.2 0-2.6.8-4.7 1.4-6.9z" fill="#db6610"/><path d="m141.6 28.1c-1.1.3-2.3.2-3.1-.9-.3-.3-.4-.6-.4-1.1 0-.2.1-.7.1-.9.1-.3.4-.7.6-1 .3-.4.6-.8 1-1.2.6-.6 1.2-1 1.9-1.4 2.6-1.6 5.6-2.2 8.3-3.8.2-.1.3-.2.5-.3l2.7-1.2 5.8-2.4 4.9-1.8 2.7-.5c.4-.1 1.8-.7 2.2-.9.5-.2 1-.4 1.5-.6.6-.2 2.6-.7 3.6-.2.3.2 1.2.6 1.2.7 0 1.1-1.3 1.3-2 1.7s-1.8.9-1.8 1 .7 0 .9 0c.3 0 .5-.1.9 0 .2.1.3.3.3.3-.1.3-1 .4-1.5.5s-1.1.1-1.7.2c-.8.2-1.6.1-2.5.1-1-.1-1.6.2-2.5.6-1.3.6-2.5 1.3-3.7 2-2.1 1.2-4.2 2.2-6.5 2.9-1.2.3-2.2 1.5-3.2 2.3-1.6 1.3-3.6 2-5.3 3.2-1.6 1.1-3.1 2.3-4.9 2.7z" fill="#e7bda4"/><path d="m151.6 22.3c1-.8 2-1.9 3.2-2.3 2.3-.7 4.4-1.7 6.5-2.9 1.2-.7 2.4-1.4 3.7-2 .9-.4 1.5-.7 2.5-.6.8.1 1.6.1 2.5-.1.5-.1 1.1-.1 1.7-.2s1.5-.2 1.5-.5c0-.1-.1-.3-.3-.3-.3-.1-.5-.1-.9 0-.3 0-.9.1-.9 0s1.1-.6 1.8-1c.6-.3 1.7-.6 1.9-1.3l-.5-.8-20.4 7.7-15.6 8.9v.1c0 .1.1.1.1.2.8 1.1 2 1.2 3.1.9 1.8-.4 3.3-1.6 4.8-2.6 1.8-1.2 3.8-1.9 5.3-3.2z" fill="#bd9c87"/><path d="m125.6 34.7c.9-.7 1.5-1.8 1.1-3.1-.1-.4-.3-.7-.6-1-.2-.1-.6-.3-.8-.4-.3-.2-.8 0-1.1 0-.5 0-1 0-1.5.1-.8.1-1.5.4-2.3.7-2.8 1.2-5.1 3.2-7.9 4.4-.2.1-.4.2-.6.2l-2.6 1.5-5.4 3.3-4.4 2.9-2 1.9c-.3.3-1.6 1-2 1.2-.5.3-.9.5-1.4.8s-2.1 1.7-2.3 2.8c-.1.4-.2 1.3-.1 1.4.7.8 1.7 0 2.5-.4.7-.3 1.9-1.2 1.9-1.1.1.1-.4.5-.6.7-.2.3-.3.4-.4.8-.1.2.1.4.1.4.3.1.9-.6 1.3-1s.8-.8 1.2-1.2c.6-.6 1.1-1.2 1.5-2 .5-.9 1.1-1.1 2-1.6 1.2-.7 2.5-1.2 3.8-1.8 2.2-1 4.2-2.1 6.1-3.6 1-.8 2.5-.9 3.7-1.2 2-.5 3.7-1.7 5.6-2.4 2-.6 3.8-1.1 5.2-2.3z" fill="#e7bda4"/><path d="m94.3 51c.7-.3 1.9-1.2 1.9-1.1.1.1-.4.5-.6.7-.2.3-.3.4-.4.8-.1.2.1.4.1.4.3.1.9-.6 1.3-1s.8-.8 1.2-1.2c.6-.6 1.1-1.2 1.5-2 .5-.9 1.1-1.1 2-1.6 1.2-.7 2.5-1.2 3.8-1.8 2.2-1 4.2-2.1 6.1-3.6 1-.8 2.5-.9 3.7-1.2 2-.5 3.7-1.7 5.6-2.4 1.7-.6 3.5-1.2 4.9-2.3.8-.7 1.4-1.6 1.2-2.8l-15.6 6.3-19.2 12.8v.3c.8.9 1.8.1 2.5-.3z" fill="#bd9c87"/><path d="m125.9 58c.1-2.1.4-3.8.9-5.8.3-1.2.6-2.4.9-3.5.5-2.1 1.3-4.3.7-6.4-.3-1.1-.9-2.1-1.2-3.3-.3-1.1-2.2-2.1-3-2.5-.2-.1-.4-.2-.4-.2 0 .1 0 .1.1.2 0 .1.1.2.1.3.1.2.1.4.2.5.2.4.3.8.5 1.2s.3.8.5 1.2c.6 1.4 1.1 2.8 1.4 4.2.1.4.2.8.2 1.2.1.6.1 1.3.1 1.9 0 .7-.2 1.4-.4 2.1v.2c-.1.2-.1.3-.2.5-.1.3-.2.6-.3.9 0 .1-.1.2-.1.3-.1.3-.2.6-.2.9-.4 1.9-.8 3.2-.9 5.1v.1.1.2c-.1.8-.2 2.5-.2 3.6v.1.1.1.2s.5.1 1.2.3c-.3.2 0-3.5.1-3.8z" fill="#eff3f5"/><path d="m144.3 22.7c-.2-.2-.3-.4-.5-.5-.1-.1-.2-.2-.3-.3-.1 0-.2-.1-.3-.1-.3-.1-.7-.3-1.1-.3-.1 0-.1 0-.2 0-.2 0-.6 0-.7.1l-1.6 1-1.7 1.1c-.2 0-.3 0-.5-.1-.2 0-.3 0-.5-.1-.2 0-.3 0-.5 0s-.4 0-.5 0-.3 0-.4 0c-.3 0-.6 0-.9 0-.1 0-.2 0-.3 0-.2 0-.5 0-.7 0-.1 0-.2 0-.4 0s-.5 0-.7 0c-.1 0-.2 0-.3 0-.3 0-.7.1-1 .1-.3.1-.7.2-1 .3h-.1c-.2.1-.4.2-.5.3-.2.1-.4.2-.6.3s-.5.3-.7.4c-.3.2-.6.4-.8.6-.4.3-.8.7-1.2 1.1-.8.8-1.7 1.6-2.5 2.4-.1.1-.1.1-.2.2l-.1.1c-.2.2-.4.3-.5.5-.6.1-1.1.3-1.7.4-.3.1-.8.3-1.1.4-.1.1-1 .5-1.1.6 0 0-.1.1-.2.1.2 0 .6-.1.8-.1h.1c.8.4 1.3 1.3 1.6 2.1.1.4.1.9.1 1.3 0 .2-.2 1.8-.3 1.8.1 0 .4-1.8.4-2 .1-.5.1-.7-.1-1.2l1-.5 4.2-2.4 3.9-2.9 3-.4 3.6-1.3s.1-.1.4-.2l.2-.1c1.7-.7 6.6-2.8 6.7-2.7 0 .2-.1.1-.2 0z" fill="#eff3f5"/><path d="m144.9 25.2c0-.3 0-.6-.1-.9 0-.3-.1-.6-.2-.9v-.1c0-.1 0-.2-.1-.2 0-.1-5 2-6.7 2.7-.1 0-.2.1-.2.1l-.2.1h-.1l-3.6 1.3-3 .4-3.9 2.9-4.2 2.4-1 .5c.1.5.1.7.1 1.2 0 .2-.3 2-.4 2s1.5 0 2.7-.2c0-.1 0-.1-.1-.2 0 0 .1.1.4.2.8.4 2.8 1.4 3 2.5.3 1.1.9 2.1 1.2 3.3.6 2.1-.2 4.3-.7 6.4-.3 1.2-.6 2.4-.9 3.5-.5 2-.8 3.7-.9 5.8 0 .3-.4 3.9-.1 4-.7-.2-1.2-.3-1.2-.3s3.7 1 6.1.9c2.5-.1 4-.9 4-.9 1.2-.7 2.2-1 2.8-2.3l.9-1.9c.1-2.2 0-5.2-.3-8.4-.3-2.4.7-6.1 1-8.5.1-.9.8-2.5 1-4.1.4-2.6.2-5.3.3-5.4.1-.8.2-1 .2-1.2.2-.2.4-.4.6-.6.4-.3.9-.6 1.4-.8.1 0 .1-.1.2-.1.1-.1.2-.2.4-.3.2-.2.5-.4.7-.6s.5-.4.7-.6c.1-.3.2-.6.3-1-.1-.3-.1-.5-.1-.7z" fill="#d7dee6"/><path d="m133.2 110.2-1.6-2.1-1.9-2.5c-.6-.8-.9-1.9-1-2.9-1.3.7-2.4.2-3-.1v.4c-.1 1.2-1 1.9-1.2 3.1-.2.9.3 1.9.9 2.6s1 1.3 1.5 2 1.2 1.4 2 1.8c.8.5 1.8.7 2.7.7.8 0 1.6-.2 2.2-.7.5-1-.2-1.6-.6-2.3z" fill="#f2c7ad"/><path d="m136.1 24.2-6-1.6-1.6-.6v.1.4c1 1.1 3.6 3.6 7.6 3.8.2-.5.1-1.5 0-2.1z" fill="#bd9c87"/><path d="m138 19.5c-.1-.9-.2-1.9-.3-2.8-.3-1.5-.6-2.6-1.5-3.8-1.1-1.5-2.6-3.1-4.6-3.4-1.7-.3-3.6-.1-5 .9-1.6 1-2.4 3.2-2.3 5.1.2 2 1.2 3.8 2.6 5.2s2.9 2.7 4.8 3.4c1.5.5 2.8 1 4.5.7 2-.7 1.9-3.6 1.8-5.3z" fill="#e7bda4"/><path d="m128.5 22.6v1.5 1.6c0 .1.4.7.5.8.3.3.5.4.8.6.5.4.9.6 1.5.9.9.6 2.3.6 3.2 0 .6-.3 1.1-.8 1.5-1.4.1-.1.1-.2.1-.3-3.9-.1-6.6-2.6-7.6-3.7z" fill="#e7bda4"/><path d="m127.3 18.2c-.2 0 0 0 0 0z" fill="#662622"/><path d="m127.3 18.2c-.2 0 0 0 0 0z" fill="#f9d69c"/><path d="m126.8 103c-.5-.1-.8-.3-1.1-.4v.4c-.1 1.2-1 1.9-1.2 3.1-.1.6.1 1.3.4 1.8.2-1.1.7-1.9.7-1.9z" fill="#f2c7ad"/><path d="m141 65c-2.6 2.4-4.5 5.3-6.3 8.3-.3.4-.5.8-.8 1.2.1.4.2.8.5 1.2.7-1.5 1.5-2.9 2.5-4.3 2.1-3.3 4.9-6.1 7.6-9.1.1-.1.2-.3.3-.4l-1.7.6c-.2 1.1-1.4 1.9-2.1 2.5z" fill="#db6610"/><path d="m133.2 110.2-1.6-2.1-1.9-2.5c-.6-.8-.9-1.9-1-2.9-.7.4-1.4.4-1.9.3l-1.2 2.9s-.5.8-.7 1.9c.1.3.3.5.5.7 0 0 0 0 .1.1.5.7 1 1.3 1.5 1.9.5.7 1.2 1.4 2 1.8.1 0 .2.1.2.1.7.4 1.7.5 2.4.5.8 0 1.6-.2 2.2-.7.5-.7-.2-1.3-.6-2z" fill="#dcb79e"/><path d="m125.9 9.9-.8-1.3c-.6-1-1.7-1.6-2.8-1.6-.9 0-1.7.4-2.2 1.1l-.5.7c-1.1 2.3-1.5 3.5-.3 7.4.3.8.8 2.3 1.5 3 .2-.4.2-1.8.2-2.1 0-1.5-.1-2.3 0-3.6 0-1 .3-2 1-2.8s1.8-1 2.8-.6l.4.1z" fill="#8d5c2a"/><path d="m135.2 10.6c-.5-.5-1.1-1-1.8-1.3-1.3-.6-2.8-1-4.3-.9-.8.1-1.9.3-2.6.7-.5.3-.7.4-1.2.8-.2.2-.4.4-.6.6-.3.3-.4.9-.5 1.3-.2.5-.3.9-.4 1.4-.2 1-.2 2 0 2.9.3 1.4 1 2.6 1.8 3.7.4.5.7.9 1.3 1.3.2.1 1.5.7 1.5.7l-1.1-1.5-.1-.1c-.2-.1-.3-.2-.4-.4l-.6-.9c-.1-.2-.1-.4-.1-.5.1-.4.7-.6 1-.3l.2.1s.4-.1.7-.2c.1 0 .1 0 .2-.1l.1-.1c.3-.3.4-.5.5-.9.1-.2.1-.4.2-.5.4-1.2 1.4-2.3 2.5-2.9.6-.3 1.2-.5 1.8-.7.6-.1 1.2-.1 1.8-.1h1.1c-.3-.7-.4-1.5-1-2.1z" fill="#8d5c2a"/><path d="m128.4 21.9s-.6-.9-.9-1.3c0 .2-.1.5-.1.8.3.2 1 .5 1 .5z" fill="#71461d"/><path d="m133.3 9.3c-.2-.1-.3-.1-.5-.2-2 2.3-3.8 5.3-4.9 9 .1 0 .1 0 .2-.1l.1-.1c.3-.3.4-.5.5-.9.1-.2.1-.4.2-.5.4-1.2 1.4-2.3 2.5-2.9.6-.3 1.2-.5 1.8-.7.6-.1 1.2-.1 1.8-.1h1.1c-.2-.8-.4-1.6-1-2.3-.5-.4-1.1-.9-1.8-1.2z" fill="#71461d"/><path d="m177.1 169 66.1-38.1-29.9-17.3h.4l29.9 17.3-66.1 38.1z" fill="#3e8885"/><path d="m177.1 167.7-29.9-17.2 66.1-38.2 29.9 17.3z" fill="#0a3847"/><path d="m147.2 150.5v1.3l29.9 17.2v-1.3z" fill="#0a3847"/><path d="m243.2 129.6v1.3l-66.1 38.1v-1.3z" fill="#0a3847"/><path d="m216.6 137.3c-6.1-3.5-15.9-3.5-22 0-5.1 2.9-5.9 7.3-2.5 10.7l-1 .2s4.2 2 4.3 2.1c2.4 1.2 5.2 1.9 8.2 2.1l17.5-10.1c-.5-1.8-2-3.5-4.5-5z" fill="#0a3847"/><path d="m213.8 89.4c-.7-.4-1.5-.4-2.3-.4-3 .2-5.6.7-8.4 1.7-2.4.9-4.9 1.8-7.3 2.7-1.8.6-3.1 1.1-3.1 1.1 0 .1.7 7 .7 7 1.8-.3 3.9-.6 5.4-1.2 1.2-.5 2.4-.8 3.6-1.4.7-.3 1.5-.8 2.2-.9-.2.9-1.4 1.8-2.1 2.4-2.6 2.4-4.5 5.3-6.3 8.3-.3.4-.5.8-.8 1.2.1.8.6 1.7 1.9 2.4.4-.4.7-.7 1.1-1.1.7-.6 1.4-1.2 1.9-1.7 3.4-3.4 6.9-6.7 10.4-10 1.7-1.6 3.2-2.8 4.1-5.1.6-1.6.9-4-1-5z" fill="#f36d00"/><path d="m215.1 90.8c-.2-.6-.6-1.1-1.3-1.5s-1.5-.4-2.3-.4c-3 .2-5.6.7-8.4 1.7-2.4.9-4.9 1.8-7.3 2.7-1.8.6-3.1 1.1-3.1 1.1s.1.6.3 1.4c.5-.4 1.1-.6 1.8-1 1.4-.7 2.6-.7 4.1-1.1 4-1.2 6.2-2.1 10.3-3.2 1.2-.3 4-.7 5.1-.2 0 .2.8.5.8.5z" fill="#db6610"/><path d="m195.2 109.9c-.1.1-.1.2-.2.3s-.1.2-.2.3-.3.1-.5.1c-.6 0-1.1 0-1.7 0-.1 0-.2 0-.3 0-.6.3-.8 3.5-1 4.2-.2 1-.4 2-.6 2.9-.2 1.2-.3 3.1 0 4.3.7-.3 1.5-.7 1.9-1.3.2-.3.4-.5.6-.8 1-1.7 1.7-3.7 2.3-5.5.3-.7.8-1.4 1.4-2-1.1-.8-1.6-1.7-1.7-2.5z" fill="#f2c7ad"/><path d="m190.9 117.7c-.2 1.2-.3 3.1 0 4.3.7-.3 1.5-.7 1.9-1.3.2-.3.4-.5.6-.8 1-1.7 1.7-3.7 2.3-5.5.3-.7.8-1.4 1.4-2-.7-.4-1.1-.8-1.4-1.2l-2 .5h-1.8c-.3 1.1-.4 2.7-.5 3.1-.2 1-.4 2-.5 2.9z" fill="#dcb79e"/><path d="m193.9 98.9-.6-.2-.7-3.3-6.2 1.3c-1.8 3.8-1.8 8.9-1.6 13.1.2 2.7.5 5 .9 7.6.1.8.4 2.1.4 2.9s-.4 1.5-.5 2.3c-.2 1.7-.3 3.6-.3 5.3.1 1.9.5 3.5.8 5.4.3 1.5.8 3 .9 4.6v.2c.5.3 1.7.8 3 .1 0-.1 0-.2 0-.3-.1-.8.1-1.4.2-2.2.6-3.5.3-7.1.5-10.6.1-1.6.2-3.1.3-4.7.2-2.8 1-5.5 1.6-8.2.7-2.7 1-5.5 1.3-8.4.2-2.4.4-3.5 0-4.9z" fill="#f36d00"/><path d="m188 96.4-1.6.4c-1.8 3.8-1.8 8.9-1.6 13.1.2 2.7.5 5 .9 7.6.1.8.4 2.1.4 2.9s-.4 1.5-.5 2.3c-.2 1.7-.3 3.6-.3 5.3.1 1.9.5 3.5.8 5.4.3 1.5.8 3 .9 4.6v.2c.2.2.6.3 1.1.4-.5-3-1.3-6.1-1.6-9.1-.3-2.8.4-5.6.8-8.4.3-2.9-.1-5.7-.4-8.6-.3-3.1-.4-6.1-.3-9.2 0-2.6.8-4.7 1.4-6.9z" fill="#db6610"/><path d="m202.9 63.5c-1.1.3-2.3.2-3.1-.9-.3-.3-.4-.6-.4-1.1 0-.2.1-.7.1-.9.1-.3.4-.7.6-1 .3-.4.6-.8 1-1.2.6-.6 1.2-1 1.9-1.4 2.6-1.6 5.6-2.2 8.3-3.8.2-.1.3-.2.5-.3l2.7-1.2 5.8-2.4 4.9-1.8 2.7-.5c.4-.1 1.8-.7 2.2-.9.5-.2 1-.4 1.5-.6.6-.2 2.6-.7 3.6-.2.3.2 1.2.6 1.2.7 0 1.1-1.3 1.3-2 1.7s-1.8.9-1.8 1 .7 0 .9 0c.3 0 .5-.1.9 0 .2.1.3.3.3.3-.1.3-1 .4-1.5.5s-1.1.1-1.7.2c-.8.2-1.6.1-2.5.1-1-.1-1.6.2-2.5.6-1.3.6-2.5 1.3-3.7 2-2.1 1.2-4.2 2.2-6.5 2.9-1.2.3-2.2 1.5-3.2 2.3-1.6 1.3-3.6 2-5.3 3.2-1.6 1.1-3.1 2.3-4.9 2.7z" fill="#e7bda4"/><path d="m212.9 57.7c1-.8 2-1.9 3.2-2.3 2.3-.7 4.4-1.7 6.5-2.9 1.2-.7 2.4-1.4 3.7-2 .9-.4 1.5-.7 2.5-.6.8.1 1.6.1 2.5-.1.5-.1 1.1-.1 1.7-.2s1.5-.2 1.5-.5c0-.1-.1-.3-.3-.3-.3-.1-.5-.1-.9 0-.3 0-.9.1-.9 0s1.1-.6 1.8-1c.6-.3 1.7-.6 1.9-1.3l-.5-.8-20.4 7.7-15.6 8.9v.1c0 .1.1.1.1.2.8 1.1 2 1.2 3.1.9 1.8-.4 3.3-1.6 4.8-2.6 1.8-1.2 3.8-1.9 5.3-3.2z" fill="#bd9c87"/><path d="m186.9 70.1c.9-.7 1.5-1.8 1.1-3.1-.1-.4-.3-.7-.6-1-.2-.1-.6-.3-.8-.4-.3-.2-.8 0-1.1 0-.5 0-1 0-1.5.1-.8.1-1.5.4-2.3.7-2.8 1.2-5.1 3.2-7.9 4.4-.2.1-.4.2-.6.2l-2.6 1.5-5.4 3.3-4.4 2.9-2 1.9c-.3.3-1.6 1-2 1.2-.5.3-.9.5-1.4.8s-2.1 1.7-2.3 2.8c-.1.4-.2 1.3-.1 1.4.7.8 1.7 0 2.5-.4.7-.3 1.9-1.2 1.9-1.1s-.4.5-.6.7c-.2.3-.3.4-.4.8-.1.2.1.4.1.4.3.1.9-.6 1.3-1s.8-.8 1.2-1.2c.6-.6 1.1-1.2 1.5-2 .5-.9 1.1-1.1 2-1.6 1.2-.7 2.5-1.2 3.8-1.8 2.2-1 4.2-2.1 6.1-3.6 1-.8 2.5-.9 3.7-1.2 2-.5 3.7-1.7 5.6-2.4 2-.6 3.8-1.1 5.2-2.3z" fill="#e7bda4"/><path d="m155.6 86.4c.7-.3 1.9-1.2 1.9-1.1.1.1-.4.5-.6.7-.2.3-.3.4-.4.8-.1.2.1.4.1.4.3.1.9-.6 1.3-1s.8-.8 1.2-1.2c.6-.6 1.1-1.2 1.5-2 .5-.9 1.1-1.1 2-1.6 1.2-.7 2.5-1.2 3.8-1.8 2.2-1 4.2-2.1 6.1-3.6 1-.8 2.5-.9 3.7-1.2 2-.5 3.7-1.7 5.6-2.4 1.7-.6 3.5-1.2 4.9-2.3.8-.7 1.4-1.6 1.2-2.8l-15.6 6.3-19.4 12.9v.3c1 .8 2 0 2.7-.4z" fill="#bd9c87"/><path d="m187.2 93.4c.1-2.1.4-3.8.9-5.8.3-1.2.6-2.4.9-3.5.5-2.1 1.3-4.3.7-6.4-.3-1.1-.9-2.1-1.2-3.3-.3-1.1-2.2-2.1-3-2.5-.2-.1-.4-.2-.4-.2 0 .1 0 .1.1.2 0 .1.1.2.1.3.1.2.1.4.2.5.2.4.3.8.5 1.2s.3.8.5 1.2c.6 1.4 1.1 2.8 1.4 4.2.1.4.2.8.2 1.2.1.6.1 1.3.1 1.9 0 .7-.2 1.4-.4 2.1v.2c-.1.2-.1.3-.2.5-.1.3-.2.6-.3.9 0 .1-.1.2-.1.3-.1.3-.2.6-.2.9-.4 1.9-.8 3.2-.9 5.1v.1.1.2c-.1.8-.2 2.5-.2 3.6v.1.1.1.2s.5.1 1.2.3c-.3.2 0-3.5.1-3.8z" fill="#eff3f5"/><path d="m205.6 58.1c-.2-.2-.3-.4-.5-.5-.1-.1-.2-.2-.3-.3-.1 0-.2-.1-.3-.1-.3-.1-.7-.3-1.1-.3-.1 0-.1 0-.2 0-.2 0-.6 0-.7.1l-1.6 1-1.7 1.1c-.2 0-.3 0-.5-.1-.2 0-.3 0-.5-.1-.2 0-.3 0-.5 0s-.4 0-.5 0-.3 0-.4 0c-.3 0-.6 0-.9 0-.1 0-.2 0-.3 0-.2 0-.5 0-.7 0-.1 0-.2 0-.4 0s-.5 0-.7 0c-.1 0-.2 0-.3 0-.3 0-.7.1-1 .1-.3.1-.7.2-1 .3h-.1c-.2.1-.4.2-.5.3-.2.1-.4.2-.6.3s-.5.3-.7.4c-.3.2-.6.4-.8.6-.4.3-.8.7-1.2 1.1-.8.8-1.7 1.6-2.5 2.4-.1.1-.1.1-.2.2l-.1.1c-.2.2-.4.3-.5.5-.6.1-1.1.3-1.7.4-.3.1-.8.3-1.1.4-.1.1-1 .5-1.1.6 0 0-.1.1-.2.1.2 0 .6-.1.8-.1h.1c.8.4 1.3 1.3 1.6 2.1.1.4.1.9.1 1.3 0 .2-.2 1.8-.3 1.8.1 0 .4-1.8.4-2 .1-.5.1-.7-.1-1.2l1-.5 4.2-2.4 3.9-2.9 3-.4 3.6-1.3s.1-.1.4-.2l.2-.1c1.7-.7 6.6-2.8 6.7-2.7 0 .2-.1.1-.2 0z" fill="#eff3f5"/><path d="m206.2 60.6c0-.3 0-.6-.1-.9 0-.3-.1-.6-.2-.9v-.1c0-.1 0-.2-.1-.2 0-.1-5 2-6.7 2.7-.1 0-.2.1-.2.1l-.2.1h-.1l-3.6 1.3-3 .4-4 2.9-4.2 2.4-1 .5c.1.5.1.7.1 1.2 0 .2-.3 2-.4 2s1.5 0 2.7-.2c0-.1 0-.1-.1-.2 0 0 .1.1.4.2.8.4 2.8 1.4 3 2.5.3 1.1.9 2.1 1.2 3.3.6 2.1-.2 4.3-.7 6.4-.3 1.2-.6 2.4-.9 3.5-.5 2-.8 3.7-.9 5.8 0 .3-.4 3.9-.1 4-.7-.2-1.2-.3-1.2-.3s3.7 1 6.1.9c2.5-.1 4-.9 4-.9 1.2-.7 2.2-1 2.8-2.3l.9-1.9c.1-2.2 0-5.2-.3-8.4-.3-2.4.7-6.1 1-8.5.1-.9.8-2.5 1-4.1.4-2.6.2-5.3.3-5.4.1-.8.2-1 .2-1.2.2-.2.4-.4.6-.6.4-.3.9-.6 1.4-.8.1 0 .1-.1.2-.1.1-.1.2-.2.4-.3.2-.2.5-.4.7-.6s.5-.4.7-.6c.1-.3.2-.6.3-1 0-.3 0-.5 0-.7z" fill="#d7dee6"/><path d="m194.5 145.6-1.6-2.1-1.9-2.5c-.6-.8-.9-1.9-1-2.9-1.3.7-2.4.2-3-.1v.4c-.1 1.2-1 1.9-1.2 3.1-.2.9.3 1.9.9 2.6s1 1.3 1.5 2 1.2 1.4 2 1.8c.8.5 1.8.7 2.7.7.8 0 1.6-.2 2.2-.7.5-1-.2-1.6-.6-2.3z" fill="#f2c7ad"/><path d="m197.4 59.6-6-1.6-1.6-.6v.1.4c1 1.1 3.6 3.6 7.6 3.8.2-.5.1-1.5 0-2.1z" fill="#bd9c87"/><path d="m197.4 48.3c0-.1 0-.1 0 0-1.2-1.5-2.7-3.1-4.6-3.5-1.7-.3-3.6-.1-5 .9-1.6 1-2.4 3.2-2.3 5.1.2 2 1.2 3.8 2.6 5.2s2.9 2.7 4.8 3.4c1.5.5 2.8 1 4.5.7 2.2-.5 2-3.4 1.9-5.1-.1-.9-.2-1.9-.3-2.8-.4-1.6-.7-2.8-1.6-3.9z" fill="#e7bda4"/><path d="m189.8 58v1.5 1.6c0 .1.4.7.5.8.3.3.5.4.8.6.5.4.9.6 1.5.9.9.6 2.3.6 3.2 0 .6-.3 1.1-.8 1.5-1.4.1-.1.1-.2.1-.3-3.9-.1-6.6-2.6-7.6-3.7z" fill="#e7bda4"/><path d="m188.6 53.6c-.2 0 0 0 0 0z" fill="#662622"/><path d="m196.4 46c-.5-.5-1.1-1-1.8-1.3-1.3-.6-2.8-1-4.3-.9-.3 0-.7.1-1.1.2 0-.4-.1-.8-.2-1-.1-.4-.3-.8-.7-1-.3-.1-.6-.2-.8-.2-.5 0-1-.1-1.4.1-1.2.6-1.8 1.8-1.7 3 .1.7.5 1 .6 1 .3.2.5.3.8.3-.2.3-.2.7-.3 1-.2.5-.3.9-.4 1.4-.2 1-.2 2 0 2.9.3 1.4 1 2.6 1.8 3.7.4.5.7.9 1.3 1.3.2.1 1.5.7 1.5.7l-1.1-1.5-.1-.1c-.2-.1-.3-.2-.4-.4l-.6-.9c-.1-.2-.1-.4-.1-.5.1-.4.7-.6 1-.3l.2.1c.2 0 .4-.1.7-.2.1 0 .1 0 .2-.1l.1-.1c.3-.3.4-.5.5-.9.1-.2.1-.4.2-.5.4-1.2 1.4-2.3 2.5-2.9.6-.3 1.2-.5 1.8-.7.6-.1 1.2-.1 1.8-.1h1.1c-.4-.7-.5-1.5-1.1-2.1z" fill="#f9d69c"/><path d="m188.6 53.6c-.2 0 0 0 0 0z" fill="#f9d69c"/><path d="m189.6 57.3s-.6-.9-.9-1.3c0 .2-.1.5-.1.8.3.1 1 .4 1 .5z" fill="#ddbe8a"/><path d="m194.6 44.7c-.2-.1-.3-.1-.5-.2-2 2.3-3.8 5.3-4.9 9 .1 0 .1 0 .2-.1l.1-.1c.3-.3.4-.5.5-.9.1-.2.1-.4.2-.5.4-1.2 1.4-2.3 2.5-2.9.6-.3 1.2-.5 1.8-.7.6-.1 1.2-.1 1.8-.1h1.1c-.2-.8-.4-1.6-1-2.3-.5-.5-1.2-.9-1.8-1.2z" fill="#ddbe8a"/><path d="m188.1 138.4c-.5-.1-.8-.3-1.1-.4v.4c-.1 1.2-1 1.9-1.2 3.1-.1.6.1 1.3.4 1.8.2-1.1.7-1.9.7-1.9z" fill="#f2c7ad"/><path d="m202.3 100.4c-2.6 2.4-4.5 5.3-6.3 8.3-.3.4-.5.8-.8 1.2.1.4.2.8.5 1.2.7-1.5 1.5-2.9 2.5-4.3 2.1-3.3 4.9-6.1 7.6-9.1.1-.1.2-.3.3-.4l-1.7.6c-.2 1.1-1.4 1.9-2.1 2.5z" fill="#db6610"/><path d="m194.5 145.6-1.6-2.1-1.9-2.5c-.6-.8-.9-1.9-1-2.9-.7.4-1.4.4-1.9.3l-1.2 2.9s-.5.8-.7 1.9c.1.3.3.5.5.7 0 0 0 0 .1.1.5.7 1 1.3 1.5 1.9.5.7 1.2 1.4 2 1.8.1 0 .2.1.2.1.7.4 1.7.5 2.4.5.8 0 1.6-.2 2.2-.7.5-.7-.2-1.3-.6-2z" fill="#dcb79e"/><path d="m191.6 229 66.1-38.2-29.9-17.2h.4l29.9 17.3-66.1 38.1z" fill="#3e8885"/><path d="m191.6 227.7-29.9-17.3 66.1-38.1 29.9 17.2z" fill="#0a3847"/><path d="m161.7 210.4v1.3l29.9 17.3v-1.3z" fill="#0a3847"/><path d="m257.7 189.5v1.3l-66.1 38.2v-1.3z" fill="#0a3847"/><path d="m228.3 149.3c-.7-.4-1.5-.4-2.3-.4-3 .2-5.6.7-8.4 1.7-2.4.9-4.9 1.8-7.3 2.7-1.8.6-3.1 1.1-3.1 1.1 0 .1.7 7 .7 7 1.8-.3 3.9-.6 5.4-1.2 1.2-.5 2.4-.8 3.6-1.4.7-.3 1.5-.8 2.2-.9-.2.9-1.4 1.8-2.1 2.4-2.6 2.4-4.5 5.3-6.3 8.3-.3.4-.5.8-.8 1.2.1.8.6 1.7 1.9 2.4l1.1-1.1c.7-.6 1.4-1.2 1.9-1.7 3.4-3.4 6.9-6.7 10.4-10 1.7-1.6 3.2-2.8 4.1-5.1.6-1.5.9-3.9-1-5z" fill="#f36d00"/><path d="m229.6 150.8c-.2-.6-.6-1.1-1.3-1.5s-1.5-.4-2.3-.4c-3 .2-5.6.7-8.4 1.7-2.4.9-4.9 1.8-7.3 2.7-1.8.6-3.1 1.1-3.1 1.1s.1.6.3 1.4c.5-.4 1.1-.6 1.8-1 1.4-.7 2.6-.7 4.1-1.1 4-1.2 6.2-2.1 10.3-3.2 1.2-.3 4-.7 5.1-.2 0 .2.8.5.8.5z" fill="#db6610"/><path d="m209.7 169.9c-.1.1-.1.2-.2.3s-.1.2-.2.3-.3.1-.5.1c-.6 0-1.1 0-1.7 0-.1 0-.2 0-.3 0-.6.3-.8 3.5-1 4.2-.2 1-.4 2-.6 2.9-.2 1.2-.3 3.1 0 4.3.7-.3 1.5-.7 1.9-1.3.2-.3.4-.5.6-.8 1-1.7 1.7-3.7 2.3-5.5.3-.7.8-1.4 1.4-2-1.1-.8-1.6-1.7-1.7-2.5z" fill="#f2c7ad"/><path d="m205.4 177.7c-.2 1.2-.3 3.1 0 4.3.7-.3 1.5-.7 1.9-1.3.2-.3.4-.5.6-.8 1-1.7 1.7-3.7 2.3-5.5.3-.7.8-1.4 1.4-2-.7-.4-1.1-.8-1.4-1.2l-2 .5h-1.8c-.3 1.1-.4 2.7-.5 3.1-.2 1-.3 1.9-.5 2.9z" fill="#dcb79e"/><path d="m208.4 158.9-.6-.2-.7-3.3-6.2 1.3c-1.8 3.8-1.8 8.9-1.6 13.1.2 2.7.5 5 .9 7.6.1.8.4 2.1.4 2.9s-.4 1.5-.5 2.3c-.2 1.7-.3 3.6-.3 5.3.1 1.9.5 3.5.8 5.4.3 1.5.8 3 .9 4.6v.2c.5.3 1.7.8 3 .1 0-.1 0-.2 0-.3-.1-.8.1-1.4.2-2.2.6-3.5.3-7.1.5-10.6.1-1.6.2-3.1.3-4.7.2-2.8 1-5.5 1.6-8.2.7-2.7 1-5.5 1.3-8.4.3-2.4.4-3.5 0-4.9z" fill="#f36d00"/><path d="m202.6 156.4-1.6.4c-1.8 3.8-1.8 8.9-1.6 13.1.2 2.7.5 5 .9 7.6.1.8.4 2.1.4 2.9s-.4 1.5-.5 2.3c-.2 1.7-.3 3.6-.3 5.3.1 1.9.5 3.5.8 5.4.3 1.5.8 3 .9 4.6v.2c.2.2.6.3 1.1.4-.5-3-1.3-6.1-1.6-9.1-.3-2.8.4-5.6.8-8.4.3-2.9-.1-5.7-.4-8.6-.3-3.1-.4-6.1-.3-9.2 0-2.6.7-4.7 1.4-6.9z" fill="#db6610"/><path d="m217.4 123.5c-1.1.3-2.3.2-3.1-.9-.3-.3-.4-.6-.4-1.1 0-.2.1-.7.1-.9.1-.3.4-.7.6-1 .3-.4.6-.8 1-1.2.6-.6 1.2-1 1.9-1.4 2.6-1.6 5.6-2.2 8.3-3.8.2-.1.3-.2.5-.3l2.7-1.2 5.8-2.4 4.9-1.8 2.7-.5c.4-.1 1.8-.7 2.2-.9.5-.2 1-.4 1.5-.6.6-.2 2.6-.7 3.6-.2.3.2 1.2.6 1.2.7 0 1.1-1.3 1.3-2 1.7s-1.8.9-1.8 1 .7 0 .9 0c.3 0 .5-.1.9 0 .2.1.3.3.3.3-.1.3-1 .4-1.5.5s-1.1.1-1.7.2c-.8.2-1.6.1-2.5.1-1-.1-1.6.2-2.5.6-1.3.6-2.5 1.3-3.7 2-2.1 1.2-4.2 2.2-6.5 2.9-1.2.3-2.2 1.5-3.2 2.3-1.6 1.3-3.6 2-5.3 3.2-1.6 1.1-3.1 2.3-4.9 2.7z" fill="#e7bda4"/><path d="m227.5 117.7c1-.8 2-1.9 3.2-2.3 2.3-.7 4.4-1.7 6.5-2.9 1.2-.7 2.4-1.4 3.7-2 .9-.4 1.5-.7 2.5-.6.8.1 1.6.1 2.5-.1.5-.1 1.1-.1 1.7-.2s1.5-.2 1.5-.5c0-.1-.1-.3-.3-.3-.3-.1-.5-.1-.9 0-.3 0-.9.1-.9 0s1.1-.6 1.8-1c.6-.3 1.7-.6 1.9-1.3l-.5-.8-20.4 7.7-15.6 8.9v.1c0 .1.1.1.1.2.8 1.1 2 1.2 3.1.9 1.8-.4 3.3-1.6 4.8-2.6 1.7-1.2 3.7-1.9 5.3-3.2z" fill="#bd9c87"/><path d="m201.4 130.1c.9-.7 1.5-1.8 1.1-3.1-.1-.4-.3-.7-.6-1-.2-.1-.6-.3-.8-.4-.3-.2-.8 0-1.1 0-.5 0-1 0-1.5.1-.8.1-1.5.4-2.3.7-2.8 1.2-5.1 3.2-7.9 4.4-.2.1-.4.2-.6.2l-2.6 1.5-5.4 3.3-4.4 2.9-2 1.9c-.3.3-1.6 1-2 1.2-.5.3-.9.5-1.4.8s-2.1 1.7-2.3 2.8c-.1.4-.2 1.3-.1 1.4.7.8 1.7 0 2.5-.4.7-.3 1.9-1.2 1.9-1.1.1.1-.4.5-.6.7-.2.3-.3.4-.4.8-.1.2.1.4.1.4.3.1.9-.6 1.3-1l1.2-1.2c.6-.6 1.1-1.2 1.5-2 .5-.9 1.1-1.1 2-1.6 1.2-.7 2.5-1.2 3.8-1.8 2.2-1 4.2-2.1 6.1-3.6 1-.8 2.5-.9 3.7-1.2 2-.5 3.7-1.7 5.6-2.4 2-.6 3.8-1.2 5.2-2.3z" fill="#e7bda4"/><path d="m170.2 146.4c.7-.3 1.9-1.2 1.9-1.1.1.1-.4.5-.6.7-.2.3-.3.4-.4.8-.1.2.1.4.1.4.3.1.9-.6 1.3-1s.8-.8 1.2-1.2c.6-.6 1.1-1.2 1.5-2 .5-.9 1.1-1.1 2-1.6 1.2-.7 2.5-1.2 3.8-1.8 2.2-1 4.2-2.1 6.1-3.6 1-.8 2.5-.9 3.7-1.2 2-.5 3.7-1.7 5.6-2.4 1.7-.6 3.5-1.2 4.9-2.3.8-.7 1.4-1.6 1.2-2.8l-15.6 6.3-19.4 12.9v.3c.9.8 1.9-.1 2.7-.4z" fill="#bd9c87"/><path d="m209 205.6-1.6-2.1-1.9-2.5c-.6-.8-.9-1.9-1-2.9-1.3.7-2.4.2-3-.1v.4c-.1 1.2-1 1.9-1.2 3.1-.2.9.3 1.9.9 2.6s1 1.3 1.5 2 1.2 1.4 2 1.8c.8.5 1.8.7 2.7.7.8 0 1.6-.2 2.2-.7.5-1-.2-1.6-.6-2.3z" fill="#f2c7ad"/><path d="m216.7 123.5c0 .2-.1.4-.1.7-.3 1.3-.2 1-.4 2.3 0 .1.1 2.8-.3 5.4-.2 1.6-.9 3.3-1 4.1-.3 2.4-1.3 6.1-1 8.5.4 3.1.4 6.2.3 8.4l-.9 1.9c-.6 1.2-1.6 1.6-2.8 2.3 0 0-1.5.8-4 .9s-6.1-.9-6.1-.9c-.1-1 .2-4.1.3-4.6.1-1.9.5-3.2.9-5.1.3-1.7 1.1-3.2 1.2-4.9.2-3.4-1.4-6.6-2.7-9.6-.6-1.5-1.1-3.5-2-4.9-.1-.2-.2-.4-.2-.6-.1-1.1 1.2-2.1 1.9-2.8.8-.8 1.7-1.6 2.5-2.5.7-.7 1.2-1.1 2.1-1.7.9-.5 1.9-1.3 2.9-1.4 2.9-.4 6-.2 8.8.4.2 0 .4.1.6.3.4.3.4 1.1.4 1.6-.2.8-.3 1.5-.4 2.2z" fill="#d7dee6"/><path d="m216.5 119.8c-.2-.2-.4-.2-.6-.3-2.8-.6-5.9-.8-8.8-.4-1 .2-2.1.9-2.9 1.4s-1.4 1-2.1 1.7c-.8.8-1.7 1.6-2.5 2.5-.7.7-2 1.6-1.9 2.8 0 .2.1.4.2.6.3.4.5.8.7 1.3 1.3-.8 2.6-1.6 2.6-1.6l1.2-1.8 3.9-2.9 3-.4 3.7-1.3z" fill="#eff3f5"/><path d="m211.9 119.6-6-1.6-1.6-.6v.1.4c1 1.1 3.6 3.6 7.6 3.8.2-.5.1-1.5 0-2.1z" fill="#bd9c87"/><path d="m211.9 108.2c-1.2-1.5-2.7-3.1-4.6-3.5-1.7-.3-3.6-.1-5 .9-1.6 1-2.4 3.2-2.3 5.1.2 2 1.2 3.8 2.6 5.2s2.9 2.7 4.8 3.4c1.5.5 2.8 1 4.5.7 2.2-.5 2-3.4 1.9-5.1-.1-.9-.2-1.9-.3-2.8-.3-1.5-.7-2.7-1.6-3.9z" fill="#e7bda4"/><path d="m195.6 127c.8.4 1.3 1.3 1.6 2.1.1.4.1.9.1 1.3 0 .2-.2 1.8-.3 1.8 0 0 1.7-.1 2.6-.3.9-.3 1.4-.5 1.5-.7.8-.7 1.3-1.1 1.8-2.1.2-.3.2-.8.2-1.1s0-.6-.1-.9c-.2-.4-.4-.9-.8-1.2-.7-.7-2.2-.6-3.4-.4-.7.1-1.2.3-1.8.4-.3.1-.8.3-1.1.4-.1.1-1 .5-1.1.6 0 0-.1.1-.2.1.4 0 .7-.1 1 0z" fill="#eff3f5"/><path d="m218 116.9c.4 0 .7.2 1.1.3.1 0 .2 0 .3.1s.2.2.3.3c.2.2.3.4.5.5.1.1.2.2.2.3.1.1.1.2.1.3.1.6.3 1.2.2 1.9 0 .6-.2 1.1-.4 1.6-.5.4-.9.8-1.4 1.2-.6.5-1.4.8-2 1.3-.5.3-.7.8-1.2 1.6l-1.6-3.9-1.1-2.6 2.4-1.6s1.6-.9 1.6-1c.2-.1.5-.1.7-.1.2-.2.3-.2.3-.2z" fill="#eff3f5"/><path d="m201.6 105.3-.8-1.3c-.6-1-1.7-1.6-2.8-1.6-.9 0-1.7.4-2.2 1.1l-.5.7c-2.7 3.8-.8 13.7.4 17.6.3.8.8 1.7.8 2.6-.1-.3.1-1 .2-1.3.4-3 .2-11.2 0-14.2-.1-1 .3-2 1-2.8s1.8-1 2.8-.6l.4.1z" fill="#513b2b"/><path d="m204.3 118v1.5 1.6c0 .1.4.7.5.8.3.3.5.4.8.6.5.4.9.6 1.5.9.9.6 2.3.6 3.2 0 .6-.3 1.1-.8 1.5-1.4.1-.1.1-.2.1-.3-3.9-.1-6.6-2.6-7.6-3.7z" fill="#e7bda4"/><path d="m197.4 130.2c0 .2-.3 2-.4 2 0 0 2.3-.1 3.4-.3 1.2-.3 1.8-.6 2-.8 1.1-.8 1.2.6 2-.5.2-.3-.4-2.1-.4-2.5 0-.2-.9-2.1-1-2.4l-5.7 3.3c.1.5.1.7.1 1.2z" fill="#d7dee6"/><path d="m199.6 131.8c.1.4.3.7.4 1.1 1.3 3.1 2.9 6.2 2.7 9.6-.1 1.7-.9 3.2-1.2 4.9-.4 1.9-.8 3.2-.9 5.1 0 .5-.3 3.6-.3 4.6 0 0 .5.1 1.2.3-.3-.1.1-3.7.1-4 .1-2.1.4-3.8.9-5.8.3-1.2.6-2.4.9-3.5.5-2.1 1.3-4.3.7-6.4-.3-1.1-.9-2.1-1.2-3.3-.3-1.3-3.3-2.6-3.3-2.6z" fill="#eff3f5"/><path d="m220.4 118.4c-.1-.1-7.3 3-7.3 3l1.1.9 1.6 3.9c.5-.8.7-1.2 1.2-1.6.6-.5 1.4-.7 2-1.3.5-.4.9-.8 1.4-1.2.2-.5.4-1 .4-1.6s-.1-1.3-.2-1.9c-.1 0-.2-.1-.2-.2z" fill="#d7dee6"/><path d="m210.9 105.9c-.5-.5-1.1-1-1.8-1.3-1.3-.6-2.8-1-4.3-.9-.8.1-1.9.3-2.6.7-.5.3-.7.4-1.2.8-.2.2-.4.4-.6.6-.3.3-.4.9-.5 1.3-.2.5-.3.9-.4 1.4-.2 1-.2 2 0 2.9.3 1.4 1 2.6 1.8 3.7.4.5.7.9 1.3 1.3.2.1 1.5.7 1.5.7l-1.1-1.5-.1-.1c-.2-.1-.3-.2-.4-.4l-.6-.9c-.1-.2-.1-.4-.1-.5.1-.4.7-.6 1-.3l.2.1s.4-.1.7-.2c.1 0 .1 0 .2-.1l.1-.1c.3-.3.4-.5.5-.9.1-.2.1-.4.2-.5.4-1.2 1.4-2.3 2.5-2.9.6-.3 1.2-.5 1.8-.7.6-.1 1.2-.1 1.8-.1h1.1c-.2-.6-.4-1.4-1-2.1z" fill="#513b2b"/><path d="m203.1 113.6c-.2 0 0 0 0 0z" fill="#662622"/><path d="m204.1 117.3s-.6-.9-.9-1.3c0 .2-.1.5-.1.8.4.1 1 .4 1 .5z" fill="#483527"/><path d="m209.1 104.7c-.2-.1-.3-.1-.5-.2-2 2.3-3.8 5.3-4.9 9 .1 0 .1 0 .2-.1l.1-.1c.3-.3.4-.5.5-.9.1-.2.1-.4.2-.5.4-1.2 1.4-2.3 2.5-2.9.6-.3 1.2-.5 1.8-.7.6-.1 1.2-.1 1.8-.1h1.1c-.2-.8-.4-1.6-1-2.3-.5-.5-1.2-.9-1.8-1.2z" fill="#483527"/><path d="m202.6 198.4c-.5-.1-.8-.3-1.1-.4v.4c-.1 1.2-1 1.9-1.2 3.1-.1.6.1 1.3.4 1.8.2-1.1.7-1.9.7-1.9z" fill="#f2c7ad"/><path d="m216.8 160.4c-2.6 2.4-4.5 5.3-6.3 8.3-.3.4-.5.8-.8 1.2.1.4.2.8.5 1.2.7-1.5 1.5-2.9 2.5-4.3 2.1-3.3 4.9-6.1 7.6-9.1.1-.1.2-.3.3-.4l-1.7.6c-.2 1.1-1.4 1.9-2.1 2.5z" fill="#db6610"/><path d="m209 205.6-1.6-2.1-1.9-2.5c-.6-.8-.9-1.9-1-2.9-.7.4-1.4.4-1.9.3l-1.2 2.9s-.5.8-.7 1.9c.1.3.3.5.5.7 0 0 0 0 .1.1.5.7 1 1.3 1.5 1.9.5.7 1.2 1.4 2 1.8.1 0 .2.1.2.1.7.4 1.7.5 2.4.5.8 0 1.6-.2 2.2-.7.5-.7-.2-1.3-.6-2z" fill="#dcb79e"/><path d="m93.9 216.9 66.1-38.2-29.9-17.2h.4l29.9 17.3-66.1 38.1z" fill="#3e8885"/><path d="m93.9 215.6-29.9-17.3 66.1-38.1 29.9 17.2z" fill="#0a3847"/><path d="m64 198.3v1.3l29.9 17.3v-1.3z" fill="#0a3847"/><path d="m160 177.4v1.3l-66.1 38.2v-1.3z" fill="#0a3847"/><path d="m133.4 185.2c-6.1-3.5-15.9-3.5-22 0-5.1 2.9-5.9 7.3-2.5 10.7l-1 .2s4.2 2 4.3 2.1c2.4 1.2 5.2 1.9 8.2 2.1l17.5-10.1c-.5-1.8-2-3.6-4.5-5z" fill="#0a3847"/><path d="m130.6 137.2c-.7-.4-1.5-.4-2.3-.4-3 .2-5.6.7-8.4 1.7-2.4.9-4.9 1.8-7.3 2.7-1.8.6-3.1 1.1-3.1 1.1 0 .1.7 7 .7 7 1.8-.3 3.9-.6 5.4-1.2 1.2-.5 2.4-.8 3.6-1.4.7-.3 1.5-.8 2.2-.9-.2.9-1.4 1.8-2.1 2.4-2.6 2.4-4.5 5.3-6.3 8.3-.3.4-.5.8-.8 1.2.1.8.6 1.7 1.9 2.4.4-.4.7-.7 1.1-1.1.7-.6 1.4-1.2 1.9-1.7 3.4-3.4 6.9-6.7 10.4-10 1.7-1.6 3.2-2.8 4.1-5.1.6-1.5.9-3.9-1-5z" fill="#f36d00"/><path d="m131.8 138.7c-.2-.6-.6-1.1-1.3-1.5s-1.5-.4-2.3-.4c-3 .2-5.6.7-8.4 1.7-2.4.9-4.9 1.8-7.3 2.7-1.8.6-3.1 1.1-3.1 1.1s.1.6.3 1.4c.5-.4 1.1-.6 1.8-1 1.4-.7 2.6-.7 4.1-1.1 4-1.2 6.2-2.1 10.3-3.2 1.2-.3 4-.7 5.1-.2.1.2.8.5.8.5z" fill="#db6610"/><path d="m112 157.8c-.1.1-.1.2-.2.3s-.1.2-.2.3-.3.1-.5.1c-.6 0-1.1 0-1.7 0-.1 0-.2 0-.3 0-.6.3-.8 3.5-1 4.2-.2 1-.4 2-.6 2.9-.2 1.2-.3 3.1 0 4.3.7-.3 1.5-.7 1.9-1.3.2-.3.4-.5.6-.8 1-1.7 1.7-3.7 2.3-5.5.3-.7.8-1.4 1.4-2-1.1-.8-1.6-1.7-1.7-2.5z" fill="#f2c7ad"/><path d="m107.6 165.6c-.2 1.2-.3 3.1 0 4.3.7-.3 1.5-.7 1.9-1.3.2-.3.4-.5.6-.8 1-1.7 1.7-3.7 2.3-5.5.3-.7.8-1.4 1.4-2-.7-.4-1.1-.8-1.4-1.2l-2 .5h-1.8c-.3 1.1-.4 2.7-.5 3.1-.1 1-.3 1.9-.5 2.9z" fill="#dcb79e"/><path d="m110.6 146.8-.6-.2-.7-3.3-6.2 1.3c-1.8 3.8-1.8 8.9-1.6 13.1.2 2.7.5 5 .9 7.6.1.8.4 2.1.4 2.9s-.4 1.5-.5 2.3c-.2 1.7-.3 3.6-.3 5.3.1 1.9.5 3.5.8 5.4.3 1.5.8 3 .9 4.6v.2c.5.3 1.7.8 3 .1 0-.1 0-.2 0-.3-.1-.8.1-1.4.2-2.2.6-3.5.3-7.1.5-10.6.1-1.6.2-3.1.3-4.7.2-2.8 1-5.5 1.6-8.2.7-2.7 1-5.5 1.3-8.4.3-2.4.5-3.5 0-4.9z" fill="#f36d00"/><path d="m104.8 144.3-1.6.4c-1.8 3.8-1.8 8.9-1.6 13.1.2 2.7.5 5 .9 7.6.1.8.4 2.1.4 2.9s-.4 1.5-.5 2.3c-.2 1.7-.3 3.6-.3 5.3.1 1.9.5 3.5.8 5.4.3 1.5.8 3 .9 4.6v.2c.2.2.6.3 1.1.4-.5-3-1.3-6.1-1.6-9.1-.3-2.8.4-5.6.8-8.4.3-2.9-.1-5.7-.4-8.6-.3-3.1-.4-6.1-.3-9.2 0-2.6.8-4.7 1.4-6.9z" fill="#db6610"/><path d="m119.7 111.4c-1.1.3-2.3.2-3.1-.9-.3-.3-.4-.6-.4-1.1 0-.2.1-.7.1-.9.1-.3.4-.7.6-1 .3-.4.6-.8 1-1.2.6-.6 1.2-1 1.9-1.4 2.6-1.6 5.6-2.2 8.3-3.8.2-.1.3-.2.5-.3l2.7-1.2 5.8-2.4 4.9-1.8 2.7-.5c.4-.1 1.8-.7 2.2-.9.5-.2 1-.4 1.5-.6.6-.2 2.6-.7 3.6-.2.3.2 1.2.6 1.2.7 0 1.1-1.3 1.3-2 1.7s-1.8.9-1.8 1 .7 0 .9 0c.3 0 .5-.1.9 0 .2.1.3.3.3.3-.1.3-1 .4-1.5.5s-1.1.1-1.7.2c-.8.2-1.6.1-2.5.1-1-.1-1.6.2-2.5.6-1.3.6-2.5 1.3-3.7 2-2.1 1.2-4.2 2.2-6.5 2.9-1.2.3-2.2 1.5-3.2 2.3-1.6 1.3-3.6 2-5.3 3.2-1.6 1.1-3.2 2.3-4.9 2.7z" fill="#e7bda4"/><path d="m129.7 105.6c1-.8 2-1.9 3.2-2.3 2.3-.7 4.4-1.7 6.5-2.9 1.2-.7 2.4-1.4 3.7-2 .9-.4 1.5-.7 2.5-.6.8.1 1.6.1 2.5-.1.5-.1 1.1-.1 1.7-.2s1.5-.2 1.5-.5c0-.1-.1-.3-.3-.3-.3-.1-.5-.1-.9 0-.3 0-.9.1-.9 0s1.1-.6 1.8-1c.6-.3 1.7-.6 1.9-1.3l-.5-.8-20.4 7.7-15.6 8.9v.1c0 .1.1.1.1.2.8 1.1 2 1.2 3.1.9 1.8-.4 3.3-1.6 4.8-2.6 1.7-1.2 3.7-1.9 5.3-3.2z" fill="#bd9c87"/><path d="m103.7 118c.9-.7 1.5-1.8 1.1-3.1-.1-.4-.3-.7-.6-1-.2-.1-.6-.3-.8-.4-.3-.2-.8 0-1.1 0-.5 0-1 0-1.5.1-.8.1-1.5.4-2.3.7-2.8 1.2-5.1 3.2-7.9 4.4-.2.1-.4.2-.6.2l-2.6 1.5-5.4 3.3-4.4 2.9-2 1.9c-.3.3-1.6 1-2 1.2-.5.3-.9.5-1.4.8s-2.1 1.7-2.3 2.8c-.1.4-.2 1.3-.1 1.4.7.8 1.7 0 2.5-.4.7-.3 1.9-1.2 1.9-1.1.1.1-.4.5-.6.7-.2.3-.3.4-.4.8-.1.2.1.4.1.4.3.1.9-.6 1.3-1s.8-.8 1.2-1.2c.6-.6 1.1-1.2 1.5-2 .5-.9 1.1-1.1 2-1.6 1.2-.7 2.5-1.2 3.8-1.8 2.2-1 4.2-2.1 6.1-3.6 1-.8 2.5-.9 3.7-1.2 2-.5 3.7-1.7 5.6-2.4 1.9-.6 3.8-1.2 5.2-2.3z" fill="#e7bda4"/><path d="m72.4 134.3c.7-.3 1.9-1.2 1.9-1.1.1.1-.4.5-.6.7-.2.3-.3.4-.4.8-.1.2.1.4.1.4.3.1.9-.6 1.3-1s.8-.8 1.2-1.2c.6-.6 1.1-1.2 1.5-2 .5-.9 1.1-1.1 2-1.6 1.2-.7 2.5-1.2 3.8-1.8 2.2-1 4.2-2.1 6.1-3.6 1-.8 2.5-.9 3.7-1.2 2-.5 3.7-1.7 5.6-2.4 1.7-.6 3.5-1.2 4.9-2.3.8-.7 1.4-1.6 1.2-2.8l-15.6 6.3-19.4 12.9v.3c.9.8 2-.1 2.7-.4z" fill="#bd9c87"/><path d="m111.3 193.5-1.6-2.1-1.9-2.5c-.6-.8-.9-1.9-1-2.9-1.3.7-2.4.2-3-.1v.4c-.1 1.2-1 1.9-1.2 3.1-.2.9.3 1.9.9 2.6s1 1.3 1.5 2 1.2 1.4 2 1.8c.8.5 1.8.7 2.7.7.8 0 1.6-.2 2.2-.7.5-1-.2-1.6-.6-2.3z" fill="#f2c7ad"/><path d="m103.9 141.3c.1-2.1.4-3.8.9-5.8.3-1.2.6-2.4.9-3.5.5-2.1 1.3-4.3.7-6.4-.3-1.1-.9-2.1-1.2-3.3-.3-1.1-2.2-2.1-3-2.5-.2-.1-.4-.2-.4-.2 0 .1 0 .1.1.2 0 .1.1.2.1.3.1.2.1.4.2.5.2.4.3.8.5 1.2s.3.8.5 1.2c.6 1.4 1.1 2.8 1.4 4.2.1.4.2.8.2 1.2.1.6.1 1.3.1 1.9 0 .7-.2 1.4-.4 2.1v.2c-.1.2-.1.3-.2.5-.1.3-.2.6-.3.9 0 .1-.1.2-.1.3-.1.3-.2.6-.2.9-.4 1.9-.8 3.2-.9 5.1v.1.1.2c-.1.8-.2 2.5-.2 3.6v.1.1.1.2s.5.1 1.2.3c-.3.1.1-3.5.1-3.8z" fill="#eff3f5"/><path d="m122.4 106c-.2-.2-.3-.4-.5-.5-.1-.1-.2-.2-.3-.3-.1 0-.2-.1-.3-.1-.3-.1-.7-.3-1.1-.3-.1 0-.1 0-.2 0-.2 0-.6 0-.7.1l-1.6 1-1.7 1.1c-.2 0-.3 0-.5-.1-.2 0-.3 0-.5-.1-.2 0-.3 0-.5 0s-.4 0-.5 0-.3 0-.4 0c-.3 0-.6 0-.9 0-.1 0-.2 0-.3 0-.2 0-.5 0-.7 0-.1 0-.2 0-.4 0s-.5 0-.7 0c-.1 0-.2 0-.3 0-.3 0-.7.1-1 .1-.3.1-.7.2-1 .3h-.1c-.2.1-.4.2-.5.3-.2.1-.4.2-.6.3s-.5.3-.7.4c-.3.2-.6.4-.8.6-.4.3-.8.7-1.2 1.1-.8.8-1.7 1.6-2.5 2.4-.1.1-.1.1-.2.2l-.1.1c-.2.2-.4.3-.5.5-.6.1-1.1.3-1.7.4-.3.1-.8.3-1.1.4-.1.1-1 .5-1.1.6 0 0-.1.1-.2.1.2 0 .6-.1.8-.1h.1c.8.4 1.3 1.3 1.6 2.1.1.4.1.9.1 1.3 0 .2-.2 1.8-.3 1.8.1 0 .4-1.8.4-2 .1-.5.1-.7-.1-1.2l1-.5 4.2-2.4 3.9-2.9 3-.4 3.6-1.3s.1-.1.4-.2l.2-.1c1.7-.7 6.6-2.8 6.7-2.7 0 .2-.1.1-.2 0z" fill="#eff3f5"/><path d="m123 108.5c0-.3 0-.6-.1-.9 0-.3-.1-.6-.2-.9v-.1c0-.1 0-.2-.1-.2 0-.1-5 2-6.7 2.7-.1 0-.2.1-.2.1l-.2.1h-.1l-3.6 1.3-3 .4-3.9 2.9-4.2 2.4-1 .5c.1.5.1.7.1 1.2 0 .2-.3 2-.4 2s1.5 0 2.7-.2c0-.1 0-.1-.1-.2 0 0 .1.1.4.2.8.4 2.8 1.4 3 2.5.3 1.1.9 2.1 1.2 3.3.6 2.1-.2 4.3-.7 6.4-.3 1.2-.6 2.4-.9 3.5-.5 2-.8 3.7-.9 5.8 0 .3-.4 3.9-.1 4-.7-.2-1.2-.3-1.2-.3s3.7 1 6.1.9c2.5-.1 4-.9 4-.9 1.2-.7 2.2-1 2.8-2.3l.9-1.9c.1-2.2 0-5.2-.3-8.4-.3-2.4.7-6.1 1-8.5.1-.9.8-2.5 1-4.1.4-2.6.2-5.3.3-5.4.1-.8.2-1 .2-1.2l.6-.6c.4-.3.9-.6 1.4-.8.1 0 .1-.1.2-.1.1-.1.2-.2.4-.3.2-.2.5-.4.7-.6s.5-.4.7-.6c.1-.3.2-.6.3-1-.2-.3-.1-.5-.1-.7z" fill="#d7dee6"/><path d="m111.3 92.5c0-.4-.1-.9-.2-1.3-.1-.8-.6-1.3-1.3-1.6s-1.5-.3-2.2.1c-.4.2-.8.6-1 1-.3.6-.5 1.3-.4 1.9s.3 1.2.7 1.7c.2.3.6.4 1 .6.5.2 1.1 0 1.4-.1.9-.1.6.1 1.5.1h.1s0 0 0-.1c.1-.6.3-1.2.4-1.8 0-.2 0-.4 0-.5z" fill="#513b2b"/><path d="m114.2 107.5-6-1.6-1.6-.6v.1.4c1 1.1 3.6 3.6 7.6 3.8.1-.5 0-1.5 0-2.1z" fill="#bd9c87"/><path d="m114.2 96.1c-1.2-1.5-2.7-3.1-4.6-3.5-1.7-.3-3.6-.1-5 .9-1.6 1-2.4 3.2-2.3 5.1.2 2 1.2 3.8 2.6 5.2s2.9 2.7 4.8 3.4c1.5.5 2.8 1 4.5.7 2.2-.5 2-3.4 1.9-5.1-.1-.9-.2-1.9-.3-2.8-.4-1.5-.7-2.7-1.6-3.9z" fill="#e7bda4"/><path d="m106.6 105.9v1.5 1.6c0 .1.4.7.5.8.3.3.5.4.8.6.5.4.9.6 1.5.9.9.6 2.3.6 3.2 0 .6-.3 1.1-.8 1.5-1.4.1-.1.1-.2.1-.3-4-.1-6.6-2.6-7.6-3.7z" fill="#e7bda4"/><path d="m113.1 93.8c-.5-.5-1.1-1-1.8-1.3-1.3-.6-2.8-1-4.3-.9-.8.1-1.9.3-2.6.7-.5.3-.7.4-1.2.8-.2.2-.4.4-.6.6-.3.3-.4.9-.5 1.3-.2.5-.3.9-.4 1.4-.2 1-.2 2 0 2.9.3 1.4 1 2.6 1.8 3.7.4.5.7.9 1.3 1.3.2.1 1.5.7 1.5.7l-1.1-1.5-.1-.1c-.2-.1-.3-.2-.4-.4l-.6-.9c-.1-.2-.1-.4-.1-.5.1-.4.7-.6 1-.3l.2.1s.4-.1.7-.2c.1 0 .1 0 .2-.1l.1-.1c.3-.3.4-.5.5-.9.1-.2.1-.4.2-.5.4-1.2 1.4-2.3 2.5-2.9.6-.3 1.2-.5 1.8-.7.6-.1 1.2-.1 1.8-.1h1.1c-.2-.6-.4-1.4-1-2.1z" fill="#513b2b"/><path d="m105.3 101.5c-.1 0 0 0 0 0z" fill="#662622"/><path d="m106.3 105.2s-.6-.9-.9-1.3c0 .2-.1.5-.1.8.4.1 1 .4 1 .5z" fill="#483527"/><path d="m111.3 92.6c-.2-.1-.3-.1-.5-.2-2 2.3-3.8 5.3-4.9 9 .1 0 .1 0 .2-.1l.1-.1c.3-.3.4-.5.5-.9.1-.2.1-.4.2-.5.4-1.2 1.4-2.3 2.5-2.9.6-.3 1.2-.5 1.8-.7.6-.1 1.2-.1 1.8-.1h1.1c-.2-.8-.4-1.6-1-2.3-.5-.5-1.1-.9-1.8-1.2z" fill="#483527"/><path d="m104.9 186.3c-.5-.1-.8-.3-1.1-.4v.4c-.1 1.2-1 1.9-1.2 3.1-.1.6.1 1.3.4 1.8.2-1.1.7-1.9.7-1.9z" fill="#f2c7ad"/><path d="m119.1 148.3c-2.6 2.4-4.5 5.3-6.3 8.3-.3.4-.5.8-.8 1.2.1.4.2.8.5 1.2.7-1.5 1.5-2.9 2.5-4.3 2.1-3.3 4.9-6.1 7.6-9.1.1-.1.2-.3.3-.4l-1.7.6c-.2 1.1-1.4 1.9-2.1 2.5z" fill="#db6610"/><path d="m111.3 193.5-1.6-2.1-1.9-2.5c-.6-.8-.9-1.9-1-2.9-.7.4-1.4.4-1.9.3l-1.2 2.9s-.5.8-.7 1.9c.1.3.3.5.5.7 0 0 0 0 .1.1.5.7 1 1.3 1.5 1.9.5.7 1.2 1.4 2 1.8.1 0 .2.1.2.1.7.4 1.7.5 2.4.5.8 0 1.6-.2 2.2-.7.5-.7-.2-1.3-.6-2z" fill="#dcb79e"/><path d="m103.4 95.8c-.2-.4-.4-.8-.6-1.2-.4-.7-1-1.1-1.8-1.1-.7 0-1.5.3-2 .8-.3.4-.5.8-.6 1.3-.1.7 0 1.4.3 2 .3.5.7 1 1.2 1.4.3.2.8.2 1.1.2.5 0 1-.4 1.3-.5.8-.4.7-.1 1.5-.4h.1v-.1c-.1-.6-.1-1.2-.3-1.9 0-.2-.1-.4-.2-.5z" fill="#513b2b"/></svg>