<svg xmlns="http://www.w3.org/2000/svg" width="317.751" height="107.176" viewBox="0 0 317.751 107.176">
  <path id="Path_7260" data-name="Path 7260" d="M682.276,319.17c0,.821-1.435.914-1.435,0A.719.719,0,1,1,682.276,319.17Zm-63.609-12.478c0,2.71,4.2,2.82,4.2,0S618.667,303.976,618.667,306.692ZM459.972,286.04c0-.968-1.324-1.1-1.324,0A.662.662,0,1,0,459.972,286.04Zm47.6,22.75a.72.72,0,1,0,0-1.436C506.75,307.354,506.657,308.791,507.57,308.791Zm-13.031-52.457c0,2.459,1.934.319.883-.994C494.87,254.9,494.539,255.34,494.539,256.334Zm-25.411,43.592a.99.99,0,0,0,.134.751c.156.313-.186.622-.433.19-.536-.94-.158-1.117-.222-1.423a3.771,3.771,0,0,0-1.373-.376c1.383,2.288.843,2.2.114,2.3a1.065,1.065,0,0,1-.776.052c-.917.022-1.345.455-1.718-2.188-.64.124-2.064-.617-2.541.9-.056.176-1.171.878-1.385.592s.392-.626.624-.909c.644-.782,1.244-1.445,2.51-1.184a.365.365,0,0,0,.5-.283,1.991,1.991,0,0,1-.516-1.492c-.129-.15-.225-.354-.069-.477a1.7,1.7,0,0,0-.092-.314c-.256-.208-.8-.524-.842-.566a1.7,1.7,0,0,0-.636.155c-1.077.6-.368-.292.855-1.208.061-.948-1.192-.595-1.221-1.179s1-.657,1.555.013c.22.266,1.492-.817,1.7-.68.137.088.085.354.01.645a3.746,3.746,0,0,1,1.118-.29.545.545,0,0,1,1,.235c.3.164.5.209.547.1a1.772,1.772,0,0,0-.321-.873c-1.115.366-1.872-.677-.913-1.654-.137-.285-.257-.561-.354-.822-.119.1-.429-.27-.654-.686.008.476-.524.958-.7,1.4-.123.305-.381-.15-.481-.605a.959.959,0,0,1-.277.465,1.9,1.9,0,0,1-.617.229.7.7,0,0,1-.253.05.607.607,0,0,1-.5-.235,2.878,2.878,0,0,1-.332-2.508,8.573,8.573,0,0,0,.414-2.9c-.339.045-.357-.178-.368-.484-.593-.194-1.135.984-1.422,1.5-.189.344-.535.109-.415-.16.4-.9-.19-.875-.791-.917-.817-.057-1.135-.255.038-.577a2.8,2.8,0,0,1,.581-.056c-.14-1.213,1.052-1.422.637-.021,1.148-.071-.041-1.72-.873-2.2a3.665,3.665,0,0,1-.591.182c.009.181.1.4.116.574.1.988-.6.124-.937-.573a.669.669,0,0,1-.481-.719c.014-1.442,3.871-2.076,3.787-1.208a1.211,1.211,0,0,1-.27.592c.626-.189,1.212-.4,1.413-.069.387.636-1.783,1.063-1.835,1.5-.049.419.977.667,1.4.593a3.609,3.609,0,0,1,2.084.162c.116-.384.445.124.383.343a.977.977,0,0,1-.145,1.111c-.165.252-.282.446-.376.618-.181.595-.357,1.192-.54,1.787a.291.291,0,0,1-.132.191c-.093.216-.275.366-.719.339-.308-.018-.35,1.308-.043,1.823a.623.623,0,0,1,.383.165c.151-.1.266-.365.41-.5.293-.265.411-.154.425.093.234-.27.631-.5.856-.387-.125-.356-.156-.569.521-.958.186-1.01.884-.9,1.8-.6a1.619,1.619,0,0,0-.685-.553c-.67-.326-1.842-1.162-1.539-1.945a.438.438,0,0,1,.132-.167.5.5,0,0,1,.015-.328c.721-1.827-.459-1.731-1.664-1.762-1.636-.04-2.29-.406.025-1.156a7.51,7.51,0,0,1,1.5-.187c-.4-.581.939-1.417,1.416-1.934a8.3,8.3,0,0,0-1.187-1.5c-.107.391-.508.039-.614-.551-.657-.521-1.29-.8-1.639-.5-.424.353.05,1.105.132,1.65.407,2.689-2.544-1.421-2.3-2.246.348-1.192,2.76-1.9,3.218-1.572,1.655,1.193,5.1-1.678,5.923-.445.668.994-1.979,1.868-3.073,2.629a2.334,2.334,0,0,0,.411.052,5,5,0,0,1,1.187-.032c.48.1.321.328.006.433-.641.212-1.219.428-.778,1.043a3.633,3.633,0,0,0,1.787.057c-.229-.88-.433-1.835.03-2.014.415-.162.912,1.351,1.4,1.1.9-.454-.358-1.413-.146-1.835.021-.041,1.745-.131,2.4-.168.266-.1.535-.18.8-.268a.425.425,0,0,0,.186-.314c0-.306-.745-.274-.712-.578a.854.854,0,0,1,1.055-.531c.464.2.41.681.314,1.16.039-.01.076-.026.115-.036.708-.187.619,1.52.246,1.01a2.243,2.243,0,0,0-.452-.481c-.089.592-.06,2.329.627,2.438.15-.07.283-.149.42-.228a.2.2,0,0,1,.164-.089,3.787,3.787,0,0,0,1.453-1.557c-.895.517-1.484.762-1.166-.451-.547-.23-.588-.86-.365-1.478-.109-.014-.224-.025-.341-.036-.814-.08-1.126-.286.056-.575a1.256,1.256,0,0,1,.168-.026,1.671,1.671,0,0,1,.3-1.614s.013,0-.657-.557a3.243,3.243,0,0,0,.1.671c.091,1.166-.87-.264-1.046-.943a1.375,1.375,0,0,0-1.069.71.411.411,0,1,1-.626-.507c.612-.606.534-1-.273-1.286-.33-.118-.3-.578.182-.437,1.449.431.579,1.021,1.752.966-1.729-1.488-1.387-1.514,1.04-1.514a6.111,6.111,0,0,1,2.025.2c-1.514-1.52-.99-.743.257-2.158-.895-.756-1.948-.892-1.8-1.533.116-.5,1.089-.273,1.946-.153.052-.411.309-1.211.591-1.164.347.059.171.665.178,1.036a1.251,1.251,0,0,1,.755.091c2.316-.372,2.566.3,1.892.677a.3.3,0,0,1,.083.053c.283-.151.278.154.247.463.25,1.086-.835.573-.587-.4-1.44.549-2.706,1.107-.874,2.732.268.238.318.449.25.588.167-.028.257-.009.3.034.074-.284.421-.627.553-.584.332.109-.019,1.113-.442.9a.219.219,0,0,1-.112-.133c-.19.35-1.347.578-1.646.57a.271.271,0,0,1,.012.153,3.187,3.187,0,0,0,.974.609c.172-.2.352-.4.565-.612a.562.562,0,0,1,.542-.016.584.584,0,0,0,.772.163c.159-.79,1.029-1.2,1.121-.437a2.663,2.663,0,0,1,.375-.431,2.726,2.726,0,0,1-1.054-.478c-.061-.244.628-.78.837-.976.1-.1.962.478,1.385.992a1.866,1.866,0,0,1,.511.08,3.867,3.867,0,0,0,.524-.606c.95-1.43,2.387.375,1.929.9-.167.191-.507-.071-.76-.067a.729.729,0,0,0-.7.354,3.114,3.114,0,0,1,.591.729c.26.034.776-.109.937-.066.081-.362.207-.733.326-1.105a2.467,2.467,0,0,1,.27-1.074,2.349,2.349,0,0,0-.127-1.286c-.233-.552-.839-1.511-.305-1.823a.645.645,0,0,1,.668.062c.052-.19.952-.427,1.138-.487a2.652,2.652,0,0,1-1.277-.778c-.487-.464-.4-.979-.1-1.105,1.655-.687,3.307-1.387,5-1.955.119-.456.48-.473.557-.215,1.358-.314,1.328,2.994.544,2.021-2.481-3.078-2.623.65-3.835,1.762.308-.092.614-.187.927-.261.712-.167.575,1.537.216,1.016-1.323-1.911-1.377.987-2.366.851.35.574.275.869.6,1.462.86-.681,1.181-.4,1.168.133,2.634-2.189,3.283-.173,1.336,2.639.356.194.361.59-.557.737-.094.114-.191.224-.29.332.39.3.572.482.977.74.29-1,.428-2.057,1.369-2.471a.957.957,0,0,1,1.23.265c.172-.427.275-.653.3-.7-.15-.136-.119-.336.25-.561.053-.11.107-.2.16-.3-.3.04-.321-.725-.208-1.011-.5-1.787,1.254-2.049.935-.059.9-.977,1.66-.6,1.97.255.132-.047.264-.075.425-.119-.252-.182-.485-.577-.363-.747.255-.354,1,.357.771.736a.613.613,0,0,1,.362.107c.678.763,2.67-.265,2.939.427s-1.939.738-2.066,1.161c-.167.557,1.1.8,1.681.849-.136-.264.039-.634.681-1.064-.062-.416.224-.357.635-.368.849-.431,1.619-.9,1.464-.018.169,0,.339.005.508.01.64-.992,1.417-.372.9.46.006.505-.243,1.064-.5.388.2.33.124.718-.528.86-.167.278-.33.389-.419.049a1.718,1.718,0,0,1-.9-.143,1.02,1.02,0,0,1-.41.213.958.958,0,0,1,.578.74c.506-.04.6.375.433.742a2.473,2.473,0,0,1,1.078.155c.061-.983,1.007-.745.421.159q1.854.093,3.416.132a3.761,3.761,0,0,0-.964-.935c-.689-.271-.847-2.731-.132-3.2.065-.041.125-.091.189-.136-1.318.464-1.93-.332-.719-1.307a.39.39,0,0,1-.129-.124,5.5,5.5,0,0,1-.4-.906c-.288-.8-1.12-.981-.941-1.352.146-.305.887.172,1.332.247a5.046,5.046,0,0,1,1.175.175c.455.185.26.38-.069.428-.768.112-1.458.242-.737,1.24.026.038.02.06.034.092a4.232,4.232,0,0,1,.442-.26c-.056-.622.848-.861.672-.283,1.037-.3,1.146.357.608,1.118a.835.835,0,0,1,.584.061,1.192,1.192,0,0,1,1.727-.571.967.967,0,0,0,0-.173c-.054-.295-.246-.83.049-.923.363-.116.663.581.683.891.036.608.129,1.021.769.6,1.027-.674,1.254.143.936.672a4.66,4.66,0,0,1-1.685,1.524,1.638,1.638,0,0,1-1.855.731c-.127.362-.953.389-1.341.645-.794.522-.424,1.072-.147.963.856-.334.738.295.844.769,1.492.056,2.737.04,3.775-.012.114-.768-.727-1.111-1.058-1.117-.309-.006-.776.274-.93,0-.2-.35.372-.937.637-.988,1.082-.206.945-1.661,1.846-1.839.8-.159.891,1.036.078,1.745-.653.569-.257,1.489.769,2.093,4.907-.518.663-2.868,6.5.257,1.149-.628,3.267-.622.745.379,2.219,1,4.252,1.064,4.9-.075,1.726-2.588-3.337,1.917-1.656-.883,1.435-2.21,4.307-1.988,6.405.551a4.747,4.747,0,0,0,4.307,1.548c1.436-.332,2.872-.111,3.314.662a1.477,1.477,0,0,0,1.877.552,5.721,5.721,0,0,1,2.517-.2c.038-.652.939-.524.943.067,4.228.362,4.231.9,9.288,1.112,1.911-1.727,1.51-.807,1.813.049.693.009,1.4.01,2.124,0a8.371,8.371,0,0,1,.235-2.657c.03-.133.34-.339.45-.3.87.294.83-1.008,1.4-.895s.4,1.133-.388,1.506c-.312.149.432,1.646.248,1.817-.281.262-1.257-.718-1.554-.409-.281.291.057.641.4.927.747-.016,1.5-.043,2.255-.078.305-.266.824-.409.754-.039,1.158-.065,2.305-.151,3.412-.26a.69.69,0,0,1-.045-.675c.11-.349-1.721-.8-2-.328-.133.226.246.464.37.7.486.91-1.213.05-1.317-.33-.5-1.8,1.246-1.813,2.8-1.056.816.4,2.8,1.641,3.288.848.317-.517-.7-1.328-1.131-1.731-.181-.168-.115-.328.01-.388-.6-1.014.547-.394.861.269.252-.062.348-.427.465-.791.254-.778.521-1.04.551.176.01.42-.375,1.5-.222,1.658.436.459,2.8-.634,2.542-1.244-.11-.253-.538-.134-.811-.172-1.346-.187,1.045-1.016,1.406-.784a1.623,1.623,0,0,1,.295,1.766.665.665,0,0,0-.094.121c.524.218,1.213.636,1.521.4.286-.224-.057-1.016-.075-1.447-.035-.809.4-.877.5.618.169,2.609,1.537-.769,1.19,1.174a.974.974,0,0,1-.1.243c1.315-.109,2.585-.208,3.826-.3-.071-.182-.266-.337-.632-.468-.328-.116-.3-.578.181-.437,1,.3.9.67,1.124.853,3.34-.253,3.42-.257,4.983-.381-.178-.528.82-.345,1.334-.52.926-.313.7.19.354.381,1.024-.087,2.008-.176,2.935-.27a2.638,2.638,0,0,1-1.016-.463c-.061-.246.627-.782.834-.979.12-.115,1.351.736,1.58,1.288a30.257,30.257,0,0,0,6.648-1.32c-.4-.653.843-1.179.939-.423,2.1-1.133.156-1.487,10.686-3.711.137-.55,1.1-.859,1.421-.31.355-.08.707-.162,1.05-.246a.4.4,0,0,1,.118-.639c.721-.468.725-.866-.006-1.314-.3-.182-.173-.627.266-.39,1.645.882-.229,1.289,2.74,1.392a6.978,6.978,0,0,0,1.872-1.036c-.484-.777-.941-.877.109-1.367-.159-.292.292-.367.635-.328a1.218,1.218,0,0,0,.561-1.493c-.047-.178.526-1.367.858-1.236s0,.738-.047,1.1a2.83,2.83,0,0,1-.747,1.9c1.236-.869.482.48,1.378,1.211.038-.632.564-.321.564.344a5.532,5.532,0,0,0,1.424.371c-.336-.4-.747-.579-.61-.849.153-.3.883.19,1.327.275a5,5,0,0,1,1.17.2c.451.194.251.385-.078.427l-.184.025a4.244,4.244,0,0,0,2.524-.73c-1.336-.158-.946-1.373.593-.807a4.642,4.642,0,0,1,1.253-.306,2.15,2.15,0,0,1,.109-1.25,1.625,1.625,0,0,1,1.786.136c.333.756,1.829.667,2.416,1,.847.04,1.427.093,2.38.167.533-.65,1.3-.593.924.072.84.062,1.6.112,2.305.158a6.558,6.558,0,0,1-.079-.78c-.026-.75-.6-1.171-.539-1.465a.108.108,0,0,1-.08-.069c-.534-1.306.173-1.6.637-1.191.3.262.013.842-.269,1.116.274.1.662.52.962.676a5.056,5.056,0,0,1,1.065.525c.375.315.129.442-.2.387-.733-.123-1.393-.2-1.113.825,1.2.075,2.217.131,3.107.184-.022-.736.337-1.025.679.041.376.025.724.05,1.056.078-.023-.063-.049-.115-.071-.191-.093-.323.074-.525.237-.5,2.445.337,3.541.193,3.113,1.227.83.242,1.341.516,1.85.64a.458.458,0,0,1,.849.3,1.763,1.763,0,0,1,.209.12,1.67,1.67,0,0,0,.2-.778c.1-.812.316-1.12.574.07a11.543,11.543,0,0,1,.012,1.3c.268.127.515.23.743.315.793-.313,1.876-1.243,1.6-1.65-.154-.229-.552-.03-.828-.015-1.358.068.834-1.2,1.232-1.034a1.62,1.62,0,0,1,.622,1.678,1.641,1.641,0,0,0-.092,1.429,4.6,4.6,0,0,1,3.108,1.392c.234-.343.4-.358.345.262.746.564,1.159.844,1.267.791-.293-.124-.271-.246-.087-.345-.175-.012-.272-.265-.29-.56a.43.43,0,0,1-.036-.144c-.261-.093-.37-.526-.4-.763-.4-.8-.425-1.04.01-.732.177-.914,1.126-.715.864.608a.329.329,0,0,1,.133.246,6.152,6.152,0,0,0,.8.639.255.255,0,0,1,.052-.294c.252-.226.754.5,1.136.737.162.1.341.18.52.27.182-.507,1.81-.3,1.161.274a7.341,7.341,0,0,0,5.276-2.4,10.74,10.74,0,0,1,7.178-2.208c2.429.111,4.417-.331,4.417-.994,0-.773.663-.993,1.325-.552a1.181,1.181,0,0,0,1.767-.662c.331-.994,6.515-1.546,16.675-1.546,3.394-.039,6.352-.131,8.789-.269a.978.978,0,0,1,1.44-1.208c.136-.216-.039-.546-.2-.891-.338-.746-.315-1.12.526-.24.29.3.728,1.359.95,1.376.631.045,1.648-2.356,1.042-2.631-.251-.114-.487.262-.715.419-1.122.767.088-1.456.512-1.526.613-.1,1.456.83,1.407,1.108-.177,1,1.863,1.93,1.487,2.57s-1.782-1.064-2.19-.9c-.393.155-.124,1.175.141,1.511,1.89-.207,2.93-.508,2.93-.865,0-.566.534-.595,1.3-.182.543-.438,1.411-.052,2,.334.49-.441.689-.08.425.313a4.569,4.569,0,0,1,.621.612c.3-.137.422.485.522.8.341.129.687.242,1.031.339-.027-.352.123-.839.418-.654a6.99,6.99,0,0,1,.361-1.355.618.618,0,0,1-.372.124.669.669,0,1,1,0-1.324.612.612,0,0,1,.631.577,1.83,1.83,0,0,1,.63-.857c1.155-.458,3.2,1.01,3.218,1.574a2.209,2.209,0,0,0,.923,1.527c.264-.653,1.537.037.815.609.2.133.4.264.6.392a5.139,5.139,0,0,1,1-.336c.886-.2,3.214-.459,3.1-1.383-.074-.6-1.37-.606-1.963-.65-.391-.03-.321-.442-.027-.445.982-.006.717-.537.507-1.1-.287-.767-.239-1.138.541-.2.27.322.637,1.4.859,1.435.626.088,1.8-2.241,1.214-2.556-.244-.131-.5.23-.741.37-1.171.692.184-1.445.61-1.488.619-.061,1.4.926,1.332,1.2-.244.99,1.73,2.049,1.312,2.663s-1.707-1.179-2.127-1.045c-.4.129-.2,1.165.041,1.518.9,1.317,1.183,3.045-.507,2.782a7.9,7.9,0,0,0-.936-.1.419.419,0,0,1,.23.39c-.07.434-1.073-.013-1.018-.341a.593.593,0,0,0-.212-.006c-.552.041-1.129.548-1.469-.336-.065-.169-.522-.061-.955.159.569.41,1.184.98.751,1.532.632.3,1.272.61,1.912.94-.509-.458-1.165-.441-1.113-.8.023-.159.23-.188.485-.184a1.278,1.278,0,0,1-.282-.155c-.434-.321.627-.73.764-.065a.22.22,0,0,1-.092.238,3.435,3.435,0,0,0,1.177-.141c.774-1.819,2.385.058,1.8,1.43.255.075.4.185.216.494a.868.868,0,0,1,.862-.065c.07-1.4.659-1.884.946-1.758-.085-.182-.124-.357.012-.453.312-.22.809.354.919.644.125.325.249.577.423.628a3.347,3.347,0,0,1,.453-.242c.67-.763,1.076-.568,1.148-.023a6.371,6.371,0,0,0,.931.252,3.258,3.258,0,0,1-.084-1.369c-.159.085-.324-.141-.2-.411a5.443,5.443,0,0,1,.522-.839c.5-.69.174-1.479.582-1.542.334-.053.361.827.551,1.237a5.064,5.064,0,0,1,.522,1.068c.1.478-.167.428-.392.185-.528-.569-1.027-1.065-1.44.1-.018.05-.044.061-.066.093a.439.439,0,0,1,.137-.118c.616-.285,1.151,1.394,1.74,2.076.27.313.593.587.9.891.371-.3.636,0,.419.477.734.957.659,1.577-.692.786-.242.255-.265.482.258.7.941.385.725.893.273,1.078.856.392.019,1.092-.531.694a2.15,2.15,0,0,0-.356-.213.721.721,0,0,1,.079.05c.586.573-.349,1.323-1.4,1.054a.982.982,0,0,0-.318-.03c.4.316.755.618,1.085.912a1.642,1.642,0,0,1,1.161.967c.619-.389.083-1.965.609-1.981.88-.025,1.694,2.017.154,2.741a1.222,1.222,0,0,0-.242.16c.222.407.25.732.061.957a2.394,2.394,0,0,0,.411-.092c-.48-.623-.147-1.281.9-.321.4-.146.727-.234.778-.062.058.2-.332.206-.513.324.282.294.04.371-.367.356-.4.335-.9.374-2.038.521a1.271,1.271,0,0,1-.339.338c.155.09.352.191.575.3a11.178,11.178,0,0,1,2.345-1.072c.256-.278.574-.528.741-.438a2.259,2.259,0,0,0,.747-.989c-.284-.012-.725-.279-.7-.539.043-.409.685-.122.875.2a1.683,1.683,0,0,1,.5-.621,2.657,2.657,0,0,1-.666-.891,8.154,8.154,0,0,1-.076-2.513c0-.286.387-.156.361.049-.078.608,1.5,1.824,1.669,3.628.039.409-.2.441-.531.286a2.8,2.8,0,0,1-.45,1.651c.449.171.941.68.534.851a6.082,6.082,0,0,1,.99,1.37c1.089.6.7,2.122-2.729,2.3a5.878,5.878,0,0,1-.812.948.092.092,0,0,1,0,.065c.928-.4,1.782-.715,2.534-.036.8-.216,2.1,3.314.019,1.5a2.173,2.173,0,0,1-.163.167c1.087.513,1.312,1.393-.212,1.563.372.278.38.909.041.983-.579.128-.852-.579-.68-.934-.556.038-1.072.189-1.3.207.036.462.067.927.085,1.4.786-.754,1.426-.431,1.827.353l.344.085c.326-1.572,3.109-1.539,1.84.508.129.04.261.071.389.115.692.239-.335,1.607-.361.975a1.625,1.625,0,0,0-.2-.834c-.668.949-1.361,1.189-1.606.34.017.339.014.264.044.685.478-.508,1.448.319,1.492.882.388,0,.237.005.42.088.129-.23.38-.252.383.352a1.654,1.654,0,0,1,.184.471c.2.115.52.021.857-.061.8-.193,1.158-.1.138.561a5.625,5.625,0,0,1-.936.367,1.374,1.374,0,0,1-.318.905,3.735,3.735,0,0,0,.754.617c-.2-1.138,1.468-.376.7.34.3.1.557.116.666-.038.159-.226-.168-.528-.278-.78-.546-1.245,1.413.356,1.4.785-.013.622-1.086,1.277-1.35,1.178a.774.774,0,0,0-.331-.037,1.2,1.2,0,0,1-.251.056c-.842.256-1.767,1.36-2.22.967a.277.277,0,0,1-.1-.21.686.686,0,0,1-.209-.039c-.084,1.052-.588,1.392-1.037,1.38.094.531-.4,1.125-.547.52-.688-.2-.341-1.161-1.017-1.294.229.41-.044,1.293-.444,1.3-.454.005-.6-.679-.406-1.125-.156.058-.193.128-.646-.084-.151.624-.315,1.224-.508,1.774.115.2.213.429.318.619.972,1.765,1.884-.94,2.4-.507a.919.919,0,0,1,.219.857c.506-.305,1.028-.6,1.541-.9-.8-1.778.221-2.309.977-.489.238.052.321.438.151.637.021.431-.213.724-.557.561a9.077,9.077,0,0,0-.68,1.42c.014.1,0,.176-.088.212-.18.436-.38.9-.613,1.389.109.447-.1.613-.257.535a.591.591,0,0,1-.158.244c-1.279,2.269-3.33,4.208-3.093.932-2-1.275-1.985.774-2.435,2.219,4.481-.68,2.339,1.18-.436.861a1.056,1.056,0,0,1-1.133.274,11.858,11.858,0,0,1-1.2,3.428c.225.15.061.193-.169.283-.155.229-.221.295-.466.178a6.78,6.78,0,0,1-.886.282c-.283.063-.728-.714-.269-.988a.745.745,0,0,1,.3-.074c-.908-1.071-1.116-.968.128-2.419-.913.168-.694-.334-.089-1.037a11.342,11.342,0,0,0-1.227-.256c-.286.18-.294.07-.328-.034-.508-.032-.719.071-.533.321.35.349.243.9-.111,1.484.291.715.578,1.431.8,2.167.212.7-1.5.672-1,.281,1.258-.993.269-1.24-.445-1.623a5.962,5.962,0,0,1-2.657,1.667c-.124.646-.353,1.37-.507,1.987-.069.274-.388.043-.393-.114-.012-.368.222-1.02.233-1.482a1.437,1.437,0,0,1-1.24-.173,1.293,1.293,0,0,0,.065.538c.021-.027.043-.054.063-.079.008-.166.071-.26.219-.176.418-.217.468.389.427.856.085.194.128.4-.081.477-.008.032-.014.065-.023.1,1.014,1.281,1.219.591,2.255.275-.336-.044-.594-.163-.582-.356.044-.756,2.347-1.1,2.036-.069-.087.288-.617.433-1.113.441.1.124.013.427-.263.869-.8,1.253-1.942.822-3.247.047.057.763-.773.359-.539-.327l-.243-.153a2.32,2.32,0,0,1,.243.971c2.095-.23,1.382-.215-.071,1.147-.178.864-.657,1.524-1.535,1.1-.915.419-1.275.292-.812-.631a12.69,12.69,0,0,1-1.191-1.444,1.518,1.518,0,0,1-2.323-.716c-.106-.3-.547-.836-.9-.712-.584.336.539,2.458.076,2.547-.225.044-.153-.463-.308-.612-.482-.459-.547-.815-.579-1.7a1.89,1.89,0,0,1-.464.028c1.051.824.026.733-1.386.848,3.219,1.779,1.377,2.4-.685.661-.031.014-.053.035-.085.047.068.348-.387.432-1.015.4a1.823,1.823,0,0,1,.326.466c1.013-.527,1,.86.706,1.963.2-.211,2.013-.588,2.188-.116.153.412-1.871,1.527-2.056,1.429-.2-.107-.172-.825-.172-1.169-1.012,3.447-3.594,3.075-2.427.228a3.789,3.789,0,0,1-.2-.644,3.733,3.733,0,0,1-1.7-.709c.252.808-1.248,2.125-1.555.853a3.608,3.608,0,0,1-.773-.277c-.324.968-2.566-.884-1.522-1.094-.606-.781.025-1.349,1.959-1.076a.75.75,0,0,1,.008-.129c-.743-1.1-.44-1.4-.1-1.969-.054-.018-.112-.03-.165-.052a9.249,9.249,0,0,0-1.175.784c.839,1.562.264,1.206-.7.518-.114.081-.234.168-.337.238-.209,1.167-1.517,1.992-1.1.569-1.133.187.963-1.183.131-2.047-1.444,3.073-2.192,1.51-1.583-.381-.06,0-.128,0-.184-.009-.241.172-.454.31-.451-.076-.039-.009-.069-.021-.1-.031.036.562-.358.866-.516.358-.2.331-.394.656-.57.966-.279.49-.769-.128-.7-.432a9.319,9.319,0,0,1,.794-1.673c-.052-.088-.1-.178-.15-.27a4.955,4.955,0,0,1-.562.64c.189.241.057.42-.224.175-.326.184-.56.039-.715-.293-.59-.181-.868-.659-1.873-1.873,0,0-.428-.043-.446-.05q-.79-.093-1.505-.2a4.2,4.2,0,0,1,.158,1.284c-.009.856-1.268-.146-1.61.084-.641.432,1.274.959,1.479,1.9.03.137-.26.264-.578.4.542-.057.526.628.477,1.179,3.306.353,2.419,1.6-.143.94a13.2,13.2,0,0,1-.679,2.264c.1.062.19.128.278.2.376.295.217,2.535-.94,1.469-.482-.443-.727-1.029-1.2-1.479a3.414,3.414,0,0,1-.3-.322,2.043,2.043,0,0,1-.736,1.939c-1.712,1.713-3.107-.071-2.444-1.509-.144-.442.027-.82.562-.71.68-.559,1.826-.811,2.4-.137,0-.124.1-.189.269-.2-1.052-.125-1.332-2.144.044-1.131a9.49,9.49,0,0,1,.743-1.109c-.887.07-2.953.7-3.166-.008-.128-.427,1.42-.8,1.21-1.308a.629.629,0,0,0-.181-.261c-1.528,1.111-1.977.4-2.4-.666-.1.644-1.219.159-.951-.975a1.23,1.23,0,0,1-.575-.392,3.958,3.958,0,0,1-1.311-.456.411.411,0,0,1-.7.433,1.777,1.777,0,0,0-.345-.321.857.857,0,0,1,.016.484,1.665,1.665,0,0,1,.08.167c.2.57-2.523,1.4-2.455,2.245.04.489.49.716,1.1.826-.273-.4.675-.145.967.1,1.1.022,2.361-.114,3.09-.009,2.223.319,2.873,1.729-.047,1.973-.1.008-.2,0-.3.007.1.848-1.478.834-.7.018a11.119,11.119,0,0,1-2.233-.2c-.3.546-.7,1.122-1,1.628-.145.242-.383-.072-.343-.224.112-.416.666-1.107.7-1.562q-.524-.136-1.054-.327c-.944.132-1.177-.177-.787-.31-.079-.035-.155-.054-.235-.092-.851-.4-6.307,2.423-7.019.805a.457.457,0,0,1,.074-.414c-1.91-.336-.039-2.2.506-.551.321-.273.7-.555,1.012-.839-.643-.349-1.285-.7-1.923-1.052-1.568.97-1.266.861-1.788-4.325a.532.532,0,0,1-.164-.892c-.191-.506-.588-1.092-1.091-1.069-.612.028-.482,1.515-1.092,1.477s-1.13-.811-1.206-1.5c-.446-.049-.793-.163-.835-.441-.068-.44,1.515-.6,1.378-1.13a.639.639,0,0,0-.12-.247c-.249-.048-.508-.089-.778-.123-.337.089-.672.222-.865.138.027.785-.233,1.55-.61,1.28a3.4,3.4,0,0,1-1.341-1.523,21.152,21.152,0,0,0-2.285.2,3.048,3.048,0,0,0,1.449,3.731.831.831,0,0,1-.1,1.54c.354.239.053,1.422-.125,1.4s-.366-1.084-.14-1.372a.95.95,0,0,1-.591-.269c-1.263-1.168-2.038-.979-2.543.659-.207.668-1.13.644-.89-.324.65-2.617,1.722-1.557,1.793-2.952-.124-.03-.124-.058-.16-.115-.368.489-.826.992-1.187,1.442-.176.22-.37-.125-.308-.269.2-.478,1.107-1.268.9-1.7-.128-.268-.709-.213-1.151-.224-.477.747-1,.759-.463-.063a.789.789,0,0,1-.265-.119c-.579.751.247,1.435-1.13,1.679.5,1.956-1.937,1.157-2.414-.889a4.008,4.008,0,0,1-1.263-1.934c-.237-.875-.312-1.473-1.032-1.9-.179.022-.389,0-.344-.171a12.821,12.821,0,0,0-3.509-.625c-.291.137-.666.268-.67-.054-1.3-.1-2.938-.174-4.989-.251-.38.334-.42.213-.378-.014-2.149-.076-4.749-.149-7.886-.231-.5.685-.847.555-.785-.021-22.134-.573-27.641-2.542-59.151-3.464-.455,1.169-1.043,1.579-.636-.019-4.393-.124-9.153-.217-14.3-.27a.072.072,0,0,1-.083,0q-3.892-.039-8.1-.045c.207.136.334.31.244.52-.29.68-1.774.065-1.733-.512-.429,0-.874.022-1.315.038.6.312.295,1.2.4,1.771.083.45-.846-.2-1.012-.65a1.126,1.126,0,0,1,.412-1.114c-10.49.416-24.007,4.2-36.34,6.127-.33,1.532-2.926,2.282-2.863.415-2.348.312-4.634.531-6.836.634.4.7.308,1.418-1.063,1.678-1.288.243-2.52-.063-3.81.167-2.371.421-2.31-.388-1.261-1.349a6.911,6.911,0,0,0-1.455.392,1.266,1.266,0,0,1-.407.371c-.006.041-.038.081-.016.124.441.663-.221.884-1.325.442a4.073,4.073,0,0,0-.556-.178c-.291.332-.612.2-.694-.1-2.417.085-1.337,4.855-4.382,2.043-1.436-1.325-1.436-1.877.441-2.539.509-.215.89-.383,1.152-.517-.265-.158-.3-.1-.235-.521a4.009,4.009,0,0,0-1.709.047c-.008.03-.014.058-.021.088.425.1.469.429-.181.8-.278,1.05-.485.771-.972.412a5.581,5.581,0,0,1-2,.231l-.066.054c.867.332.1,1.924-1.488,1.224-.485.31-.866.394-1.063.2-.357.177-.67.25-.847.061-.2-.213.251-.727.471-1.159-.335-.376-.774-.2-1.224.01-.169.2-.345.366-.467.14-.489.026-.843-.313-.843-.956,0-.7-.5-1.038-1.254-.987-.048.06-.049.146-.334.056-1.068.212-1.408.577-2.515.043a3.509,3.509,0,0,1-.711.217,1.388,1.388,0,0,0,1.1.807.412.412,0,1,1-.238.771c-.578-.25-.908-.193-1.032.189a3.161,3.161,0,0,0,3.924,1.961.823.823,0,1,1,.275,1.586c-.838.053-1.356.246-1.576.6a5.705,5.705,0,0,1,.008,1.067,4.182,4.182,0,0,0,.287.628c.248.447-.039.91-.419.8-.045.509-.477.455-.44-.393a4.181,4.181,0,0,1-.6-1.346c-.3.142-.653.437-.914.553-.74.334-.963-.047.389-.692a3.766,3.766,0,0,0,.475-.268,3.99,3.99,0,0,1,.1-.721c-.362-.216-.895-.322-.089-.513-.612-1.166-4.572-2.886-5.315-4.02-1.753.734-4.826-.438-4.038-1.912-.212-.151-.427-.309-.637-.456-.281.181-.53.751-.765,1.018-.535.608-.9.353.07-.791a3.449,3.449,0,0,0,.332-.458,3.022,3.022,0,0,0-.415-.207C467.589,303.842,470.158,301.54,469.128,299.926Zm42.231-30.541a2.011,2.011,0,0,1-.348-1.09C509.968,268.168,509.781,269.425,511.358,269.385Zm-1.892-.076c-.6-.079-.72.756-.043.908C510.195,270.389,510.073,269.387,509.467,269.308ZM734.575,267a1.662,1.662,0,0,1-.343.2l.154.088A1.271,1.271,0,0,1,734.575,267Zm2.794,2.089q.464.3.909.6c-.169-.709.4-.838.717-1.237-.231-.145-.478-.385-.716-.538-.387.324-.793.459-1.133.2a.2.2,0,0,0,.08.133C737.775,268.614,737.621,268.852,737.369,269.09Zm1.912-1.319a2.775,2.775,0,0,1,.341-1.138C739.142,266.535,738.812,267.126,739.281,267.771Zm8.148,25.291a.7.7,0,0,1-.374-.446c-.418.647.1,1.625.621,2.2A6.151,6.151,0,0,1,747.43,293.062Zm-1.621,7.061a1.684,1.684,0,0,1,.543-.791c-1.566-.212-1.807.44-.7.921C745.715,300.194,745.6,300.279,745.808,300.123ZM698.2,308.214c-.335-.052-.646-.1-.925-.127a.343.343,0,0,1-.062.11.611.611,0,0,1-.019.407C697.59,308.608,698.011,308.564,698.2,308.214ZM501.514,271.231a1.49,1.49,0,0,1,.155.45l.456.032C502.075,271.351,501.868,271.129,501.514,271.231Zm-22.869,33.451a5.53,5.53,0,0,0,1.12-1.03c-.012-.021-.023-.041-.032-.062C479.378,303.583,479.03,303.875,478.645,304.682Zm261.625-.83a.733.733,0,0,0,.346.066l.264-.184a.828.828,0,0,0,.047-.078,1.608,1.608,0,0,0-.3-.323A.6.6,0,0,0,740.269,303.852ZM485.528,271.778c-.065.018-.147.023-.206.047a.35.35,0,0,1,0,.091c.079.01.155.017.234.025A.856.856,0,0,1,485.528,271.778Zm202.15,36.071c.087-.345.345-.587.618-.238a2.11,2.11,0,0,1,.429-.522C687.449,306.83,687.265,307.445,687.678,307.849Zm2.541,1.445c.369-.216.6-.049.471-1.766a5.811,5.811,0,0,0-1.323-.306c.048.323-.344.8-.711,1.1.023.066.04.127.06.193.384.207.805.434,1.192.693A2.27,2.27,0,0,1,690.219,309.295Zm6.9,1.294a7.835,7.835,0,0,0,.591-.824C696.758,309.941,697.038,310.2,697.122,310.589Zm-1.665-2.115a1.935,1.935,0,0,0,.679.116,3.376,3.376,0,0,1-.627-.191A.583.583,0,0,0,695.456,308.474Zm51.876-18.013a4.409,4.409,0,0,1-1.04.216c-.012.142-.022.283-.036.425a1.233,1.233,0,0,1,.306.332,5.668,5.668,0,0,0,.719-.513A4.552,4.552,0,0,0,747.333,290.461ZM472.679,278.116a1.084,1.084,0,0,0-.029-.155,1.749,1.749,0,0,1-.119.146Zm-3.159,3.412c-.286.2-.209.649.239.754.007-.181.019-.362.041-.539A.988.988,0,0,0,469.521,281.528Zm11.387,24.107a1.622,1.622,0,0,0,.027.7C481.04,306.2,481.091,306.056,480.907,305.635Zm185.508-.142s.142-.181.246-.318a3.023,3.023,0,0,0-.556.328A2.058,2.058,0,0,1,666.415,305.492Zm1.456.081c-.348-.728-.644-.628-1.015-.045A3.358,3.358,0,0,0,667.871,305.574Zm14.83,7.681c.592-.732-.145-1.947-1.786-1C681.512,312.584,682.107,312.919,682.7,313.255Zm4.236-3.119c-.656-.805-2.039-1.147-2.272-2.171-.05-.221.365-.44.25-.636-.725-1.244-4.421.04-3.347,1.186.531.569-.124,2.75,1.937,1.575.142-.08.481.173.853.5.6-1.585,2.616-.926,1.956,1.381a.728.728,0,0,1,.025.124c.692.336,1.094.231,1.228-.107-1.148.52-1.623-.462-.119-1.02A3.537,3.537,0,0,0,686.936,310.136Zm4.973-.531c0-.2.762-.353,1.244-.052a2.226,2.226,0,0,1,.087-.579,6,6,0,0,0-1.868-1.192A1.489,1.489,0,0,0,691.909,309.605Zm6.736.778a3.155,3.155,0,0,1-.537,1.052c.18.151.429.469.615.662,1.117,1.162,1.437.332.908-.512C699.359,311.15,698.709,310.894,698.645,310.383Zm.074-.41a2.233,2.233,0,0,1-.053.314C698.808,310.091,698.876,310.157,698.719,309.974Zm1.46-1.434-.879-.146a3.3,3.3,0,0,1-.112.833c-.23.848,1.514.462,1.092-.182A.627.627,0,0,1,700.178,308.54Zm5.088,1.493a6.512,6.512,0,0,1-.035-.843c-.062-.01-.138-.017-.206-.026C704.6,309.358,704.917,309.727,705.266,310.033Zm12.282,3.91c-.409-.071-.936-.112-.709-.459-1.876-.46-1.193-.225.131.787.169-.331,1.019.256,1.676,1.046.048-.058.1-.114.145-.167A5.345,5.345,0,0,1,717.547,313.943Zm8.383-1.594-.7-.706C725.187,312.1,725.523,312.268,725.931,312.349Zm19.546-11.242q.031-.116.062-.229a10.7,10.7,0,0,1-1.687-1.043c-.025.058-.052.118-.076.175a1.838,1.838,0,0,1,.1,1.232c.54.176.218.657-.806.56-.076.208-.149.4-.219.6C743.357,302.062,744.963,300.86,745.477,301.107Zm.315-6.763a.878.878,0,0,0,.241-1.409C745.962,293.414,745.884,293.887,745.793,294.343Zm5.492-1.515c-.1-.515-1.276-.247-1.789-.016a6.139,6.139,0,0,1,.187,1.175.828.828,0,0,1,.4.221C750.474,293.709,751.342,293.123,751.285,292.828Zm-2.555-3.978c.07.895.281,2.585,1.1,2.21-.687-.727-.749-1.328-.472-1.682A1.643,1.643,0,0,1,748.73,288.85Zm-2.3-1.312c0,.252-.013.507-.018.762a1.1,1.1,0,0,0,.252-.456c.369-1.524,1-.577.683.268-.14.372-.2.662-.027.8.063-.166.216-.3.548-.387.354-.089-.22-1.886-.769-1.875C746.762,286.65,746.79,287.6,746.429,287.537Zm-.19-3.8c.039-.039.079-.078.122-.118-.017,0-.132.021-.132.021C746.231,283.67,746.236,283.7,746.239,283.735Zm1.457-7.608a1.419,1.419,0,0,0-.238.676,1.363,1.363,0,0,1,.506.375,2.142,2.142,0,0,1-.054-.892A.977.977,0,0,1,747.7,276.127Zm-7.253-6.137c-.211.194-.535,0-.6-.393-.786-.19-.612.12-1.24.308.145.1.282.2.423.292.193-.34.971-.209,1.158-.023a1.055,1.055,0,0,0,.4.243A.894.894,0,0,0,740.443,269.99Zm1.5-2.15a.907.907,0,0,0-.758.075C741.429,267.875,741.69,267.866,741.946,267.84Zm-5.853-.921c.321.283.512.667.365.9-.107.172-.645.017-.918.106.013.014.026.034.04.052q.493.295.971.592c.176-.544.61-2.746.227-3.393A11.165,11.165,0,0,1,736.093,266.919Zm-3.568-.875c.008-.1.021-.213.037-.33A.367.367,0,0,0,732.525,266.044ZM722.5,262.013c-.3.316-.506.441-.653.455a10.422,10.422,0,0,0,1.261.189,2.736,2.736,0,0,1,1.213-.533c-.043-.656-.224-1.148-.6-1.23C723.177,260.776,722.874,261.613,722.5,262.013Zm-12.152-.812.4-.034a1,1,0,0,0-.575-.259A2.955,2.955,0,0,1,710.343,261.2Zm-58.123,6.257a5.18,5.18,0,0,0,.63.1C652.67,267.213,652.484,267.086,652.22,267.457Zm-6.395-2.921a1.424,1.424,0,0,1,.189.464c.149.03.3.06.441.093C646.312,264.583,646.089,264.469,645.825,264.536Zm-.606.328.233.036a.553.553,0,0,1,.026-.2C645.392,264.75,645.307,264.805,645.219,264.865Zm-16.031-.847c.216-.02.455-.032.694-.045C629.634,263.552,629.314,263.5,629.188,264.018Zm-10.987.958c.08-.1.462-.512.653-.7a1.379,1.379,0,0,1-.207,0C618.25,264.465,618.01,264.535,618.2,264.976Zm-4.462,2.141c.313-.084.608-.175.9-.264A1.358,1.358,0,0,0,613.739,267.117Zm-40.387,6.969a3.241,3.241,0,0,0-.061.858c.511-.047,1.009-.089,1.51-.134C574.324,274.6,573.822,274.33,573.351,274.086Zm-2.164,1.063c.375-.038.746-.072,1.117-.109C572.062,273.847,571.536,274.222,571.187,275.149Zm-39.212-2.692c-1.435-1.325-1.545-1.1-.772.773C532.211,276.5,534.277,275.047,531.975,272.457Zm-26.412-3.718c.155.061.321.093.469.15a.615.615,0,0,1,.036-.314A.6.6,0,0,0,505.563,268.738Zm-5.427-.212a1.9,1.9,0,0,1-.683.076c-.028.6.049,1.342-.363.794a2.913,2.913,0,0,0-.123.412c.028.1.016.176-.034.212a1.65,1.65,0,0,0,.056.684,3.027,3.027,0,0,1,1.211.045.854.854,0,0,1,.824-.034C501.271,270.318,500.694,269.055,500.137,268.526Zm-11.949,2.392a5.032,5.032,0,0,1-.579.292.869.869,0,0,1-.028.269c.481.112.812.3.412.593.176,0,.334-.017.5-.028A1.8,1.8,0,0,1,488.188,270.918Zm-5.988.394c.128.036.259.07.393.1.065-.075.134-.145.2-.221C482.591,271.24,482.288,271.2,482.2,271.313Zm-2.8-1.6c.058-.3.681-.266,1.129-.334-.556-.187-1.365-1.643-1.739-2.1a2.453,2.453,0,0,1-.491.406c-.827.518.827,1.214.4,1.53A1.837,1.837,0,0,1,479.4,269.713Zm-5.814,7.092c-.145.124-.477.1-.714.162.674.491.347.958.729,1.315.07.018.138.039.2.061.194-.026.4-.246.569-.371C474.431,277.329,474.02,276.433,473.586,276.8Zm-5.763,1.248a1.9,1.9,0,0,0-.7-.73C467.144,277.656,467.426,277.886,467.823,278.053Zm-.01,4.343c.3-.03,1.473,1.317,1.594,1.558a1.238,1.238,0,0,1,.493-.436,1.274,1.274,0,0,1-.079-.252c-.412-.177-.763-1.033-.848-1.828A2.022,2.022,0,0,0,467.813,282.4Zm.53,5.035c1.474.281.375-.459.4-1.405-.058-.135.116-.54.482-.674.4-.359.331-.41.749-.154a1.256,1.256,0,0,0,.149-.026c-.574-.275-.341-.487.067-.517.023-.215.041-.425.054-.631-.411.343-1.04.712-.9.153-.428.034-1.673-.787-1.736-1.466-.35.577-.646,1.213-.874,1.689.865.016,1.837.433,1.307,1.152C467.736,285.965,468.013,286.831,468.343,287.43ZM466.3,297.719a1.1,1.1,0,0,0,.158-.03c-.728-.57-.6-.981-.242-1.029a1.293,1.293,0,0,0,.459-.159.694.694,0,0,0-1.165.516A2.6,2.6,0,0,1,466.3,297.719ZM691.884,259.1c2.454,0,.308-2.188-.883-.994C690.449,258.654,690.89,259.1,691.884,259.1Zm42.933,77.736a2.721,2.721,0,0,0-1.686.4c-1.025.521,1.994,1.617,2.2.269a1.316,1.316,0,0,0,2.055-1.1A1.337,1.337,0,1,0,734.817,336.831ZM606.3,266.715a.719.719,0,1,0-1.435,0C604.863,267.535,606.3,267.628,606.3,266.715Zm43.511-2.1c.913,0,.82-1.435,0-1.435C648.953,263.181,648.885,264.616,649.809,264.616ZM525.57,268.7c-.856,0-.923,1.436,0,1.436S526.39,268.7,525.57,268.7ZM688.46,259.1a.669.669,0,1,0,0,1.324A.669.669,0,0,0,688.46,259.1Zm31.1,74.889c-.293.268-.3.948.1,1.938,1.38,3.393,3.659.768,1.782-1.1a1.235,1.235,0,0,0,.807-1.183A1.373,1.373,0,1,0,719.563,333.984Zm-5.752-11c.659.305.471-.853-.328-1.1a3.141,3.141,0,0,0-2.86-.64.529.529,0,0,0-.855.291,2.4,2.4,0,0,0-1.332,1.976c-3.248-1.873-2.4,2.808.624,1.814C711.087,328.012,713.709,325.293,713.811,322.988Zm-1.275-3.818c0,.821,1.435.914,1.435,0A.719.719,0,1,0,712.536,319.17ZM465.5,312.135c.184-1.169-1.912-2.336-2.208-1.474C462.987,311.555,465.277,313.556,465.5,312.135Zm4.647.247c1.147-4.3,6.438.116,5.483-3.6-.206-.8.131-2.287-.692-2.388-1.1-.134.509,3.14-1.43,2.83-2.552-.407-3.694.972-4.909,2.594-.438.586-1.628,1.3-1.165,1.871C467.888,314.244,470.055,312.738,470.149,312.382Zm52.229-41.524c.352.912,1.509-1.245.822-1.972a.912.912,0,0,0,.61-.581c.141-.548-1.412-.154-1.57.3a.222.222,0,0,0,.059.251C522.039,269.146,521.967,269.795,522.378,270.859Zm-24.107-17.947c-.847-.151-1.147,1.848-.257,1.8C498.482,254.683,499.039,253.049,498.271,252.912Zm-32.454,1.948c-.639-.524-1.078,1.308-.239,1.528C466.295,256.576,466.765,255.635,465.818,254.86ZM515.3,315.511c.494-.812-1.67-1.078-1.983-.464C512.983,315.69,514.181,317.341,515.3,315.511Zm-34.539-1.439c.809-.962-3.387-2.172-3.743-1.5a.9.9,0,0,0,.07.9c-.453.425-.176,1.043.831.769A2.26,2.26,0,0,0,480.756,314.072Zm10.2-2.909c2.051-1.795-3.369-3.027-2.688-.667a1.171,1.171,0,0,0,.562.639c.213.3.365.268.49.213A1.82,1.82,0,0,0,490.955,311.163Zm29.286-2.984c.725.588,2.892-1.2,2.016-1.871C521.534,305.753,519.649,307.7,520.241,308.179Zm7.088-3.237c-.094.924,1.985,1.528,2.1.374C529.527,304.361,527.432,303.929,527.328,304.942Zm-33.042,16.79c-1.2-2.909-2.422-7.517-4.855-5.579-3.086,2.459,3.429-.812.238,3.332-1.827,2.374-1.083,2.85-.067,1.588.54-.671,1.073-2.314,1.8-2.273a.77.77,0,0,1,.45.224.455.455,0,0,0,.385.469c.484.772.857,1.981,1.285,2.522C493.712,322.26,494.5,322.252,494.287,321.731Zm20.1-67.363c.251.026.392-.446.368-.644-.071-.61.583-2.25-.489-2.251-.808,0-.376,1.18-.335,1.548C513.984,253.482,513.914,254.321,514.388,254.369ZM466.7,306.3c.1-.687-.425-1.111-1.405.224C464.754,307.258,466.538,307.38,466.7,306.3Zm4.066-41.716c-.213-.337-1.113-.365-1.789-.19a.52.52,0,0,0,.164-.568c-.6-1.236-1.558,1-.88.975-.014.022-.041.04-.049.063C467.826,265.986,471.4,265.591,470.762,264.585ZM454.2,302.273a2.152,2.152,0,0,0-2.252,2.111C452.076,305.269,455.417,302.555,454.2,302.273ZM502.076,312.3a22.908,22.908,0,0,0,1.82-2.653c.654-1.019-2.993.348-3.426,1.386C500.059,312.015,501.7,312.735,502.076,312.3Zm12.263,11.829c1.034.191,1.121-1.753.247-1.992C513.369,321.8,512.994,323.874,514.34,324.125Zm-59.226-29.307c-.953,0-.549,2.026.238,2.071C456.188,296.936,455.973,294.818,455.113,294.818Zm21.094-46.071c-.325,1.195.831,2.2,2.7.089C479.468,248.2,476.531,247.558,476.208,248.747Zm-10.96,74.379c-.324,1.195.83,2.2,2.7.089C468.511,322.577,465.569,321.94,465.247,323.126Zm-14.24-53.009a.772.772,0,0,0-.583-.922,1.446,1.446,0,0,0-1.677,1.05c-.018.3.515.571.693.529C449.983,270.644,450.843,270.662,451.007,270.118Zm31.218,56.977c-.325,1.2.837,2.2,2.7.089C485.486,326.546,482.547,325.906,482.225,327.094Zm16.568.455c-.869,0-.317,2.851.12,2.895C499.307,330.485,499.885,327.552,498.792,327.55Zm169.457-3.977c1.271-2.881,3.759-6.947.676-7.364-3.911-.531,2.956,1.915-2.243,2.475-2.979.321-2.808,1.187-1.193,1.049.857-.074,2.414-.824,2.883-.273.626.732-.714,2.727-.858,3.755C667.471,323.523,668.022,324.088,668.25,323.573Zm23.363-1.31q.528.264,1.056.529c1.474.747-1.427-4.891-2.744-2.8a11.113,11.113,0,0,0-2.257-.672c-.065-.143-.2-.134-.319-.049-1.72-.238-2.693.229-.553,1.795,1.058.773,1.687,1.876,2.754,2.638C691.146,324.849,691.654,323.534,691.613,322.263Zm-18.028-8.4c2.712.242-.142-4.527-1.377-2.4C671.743,312.254,672.665,313.777,673.584,313.859Zm6.868,8.82a23.1,23.1,0,0,0,3.177-.519c1.188-.231-2.321-1.924-3.371-1.518C679.263,321.027,679.873,322.709,680.452,322.679Zm-4.374-13.96c-.344-.874,1.522-.115,2.493.887.5.512-.186,2.464-1.142,1.312.493.877-.8,1.214-1.367.711C675.164,310.84,675.147,308.615,676.078,308.719Zm.57.879a2.346,2.346,0,0,0,.521.943C676.987,310.231,676.84,309.905,676.648,309.6Zm-20.612,8.964c-1.089.593-1.011,2.126,1.8,2.012C658.686,320.541,657.117,317.974,656.036,318.562Zm17.938-63.488c-.618.525,1.049,1.853,1.655,1.545C676.884,255.984,674.971,254.229,673.975,255.075Zm22.918,1.7c-.063-.822-1.691.125-1.27.884C695.983,258.306,696.989,258,696.893,256.775Zm-14.9,81.744c-.6-1.112-2.361.052-1.611,1.2C680.959,340.6,682.424,339.315,681.993,338.519Zm16.736-5.4c-.1-.908-2.807-.924-2.745-.164C696.06,333.89,698.848,334.221,698.729,333.123Zm14.4,2.647c-2.96,1.127,2.869,2.909,2.9.551.009-.79-1.045-.924-2.022-.772C714.1,333.562,712,334.8,713.126,335.77Zm-14.448-6.062c1.491-.278-.416-2.912-1.811-2.053C695.711,328.364,696.182,330.172,698.677,329.708Zm5.728,7.913c.756-.59-.38-2.4-1.183-1.778C702.489,336.414,703.491,338.333,704.4,337.62Zm-55.435-32.057c.852-.032-.72-2.6-1.8-2.012S646.151,305.673,648.969,305.563Zm54.047,20.444c-2.37-.613-4.737-1.237-7.119-1.806-.415-.1-1.343.619-.765.767,2.569.654,5.143,1.294,7.728,1.889C703.24,326.943,703.877,326.23,703.016,326.007Zm18.512-.031c.544.637,1.925-.983,1.332-1.6C722.2,323.684,721.015,325.376,721.528,325.976Zm-34.109,8.39c2.122,1.862,1.257-3.579-.238-1.143C685.372,331.086,685.081,336,687.42,334.366Zm-20.259-3.515c-.6-.63-2.279,1.74-2.01,2.087C665.395,333.25,667.913,331.64,667.161,330.85Zm84.022-49.185c-.6.459-.415.895-.206.737,1.06-.8,2.115-1.6,3.156-2.422.152-.122.074-.593-.283-.327-.374.279-.745.564-1.118.844C752.652,279.114,750.143,281.369,751.183,281.665Zm9.911,10.043c.914-.667-1.983-2.035-2.8-1.541C757.207,290.828,759.8,292.656,761.094,291.708ZM750.18,329.027c.345,1,1.66.911.944-.627C750.821,327.75,750.013,328.54,750.18,329.027Zm-5.014-12.691c-.846.422.3,2.135,1.069,2.342.93.251,3.063-.5,2.236-.892C747.428,317.3,746.336,315.753,745.166,316.336Zm-8.494,5.6c1.511-.124-.118-2.939-1.594-2.226C733.858,320.3,734.142,322.141,736.671,321.933ZM724.838,325.5c.944-.109-.174-1.979-.852-1.85C723.278,323.782,722.71,325.742,724.838,325.5Zm23.685-18.455c.305.309,2.524-2.2,2.036-3.221C749.715,302.063,747.577,306.084,748.523,307.041Zm-4.829,6.3c1.144.407,2.009-1.1.517-.486a1.06,1.06,0,0,0,.248-1.05c-.583-1.328-2.561.359-2.171,1.336C742.532,313.745,743.164,313.679,743.694,313.336ZM742.3,249.2c.019-.825-1.7-.047-1.354.751C741.24,250.628,742.272,250.421,742.3,249.2Zm14.351,58.859c1.091.3,3.424,1.027,2.948,0-.017-.036-.041-.063-.06-.1.347-.583-.12-.953-.441-.5C757.849,306.582,755.43,307.717,756.653,308.056Zm-.349-19.669c-3.174-1.93-3.619-.736-2.565.537C754.393,289.715,757.154,288.9,756.3,288.387Zm-36.63-43.208c-.668.459.852,1.951,1.489,1.705C722.476,246.378,720.751,244.439,719.674,245.179Zm25.551,19.964c-.34-1.448-1.663-.971-1.078.712-.259.322-.044.513.368.52C745.225,266.767,745.6,265.03,745.225,265.143Zm8.281-11.5c-1.14.478-1.227,2.008,1.589,2.184C755.941,255.878,754.644,253.164,753.506,253.641Zm6.277,66.9c.477.689,2.016-.782,1.488-1.461C760.687,318.33,759.335,319.893,759.783,320.542Zm-5.719-12.509c-3.195-1.033-3.734.23-1.749,1.661C755.385,311.909,755.292,308.429,754.065,308.033Zm10.358-4.378c-.548.913,2.372.344,2.051-.839C766.289,302.142,765.395,302.038,764.422,303.655Zm-46.967,26.38c.484.934,2.071-.193,1.723-1.029a.885.885,0,0,0-.187-.266c.059-.235-.14-.3-.353-.225A1.068,1.068,0,0,0,717.456,330.035Zm46.32-56.426c-.4-.762-2.163.23-1.577.9C762.506,274.864,764.139,274.3,763.776,273.609Zm-10.522,23.743a1.482,1.482,0,0,0-.538.132c-.957.487.581.5,1.588.537a2.952,2.952,0,0,0,.662-.03c6.431,2.1.626-1.947-1.58-1.505C752.337,296.7,752.544,297.012,753.254,297.352Zm-15.589-38.278c.209-.588-1.208-2.047-1.792-1.844C734.756,257.617,737.263,260.2,737.665,259.074Zm3.9,71.313c.812-.509-.134-2.428-1-1.888C739.783,328.992,740.585,331,741.567,330.386Zm-90.774-67.645c-.888-.1-.232,1.817.414,1.945C651.635,264.77,651.511,262.821,650.794,262.742Zm-6.36-2.322c.048-.473-.981-.374-1.042.016C643.326,260.849,644.391,260.848,644.434,260.42Zm-3.664-.824a1.076,1.076,0,0,0-.939-1.224C639.385,258.39,640.569,260.187,640.77,259.6Zm15.908-.8c.038.277-.014.7.248.812a.387.387,0,0,0,.487-.244C657.676,258.576,656.585,258.122,656.678,258.792Zm7.1,8.939c.291-.292-.6-.6-.75-.2C662.9,267.882,663.349,268.164,663.782,267.731Zm-1.718,1.458c.345-.3-.222-1.2-.561-.915C661.25,268.49,661.731,269.477,662.064,269.19Zm2.259-7.367c-.476.4-.292,1.14,1.08.812C665.815,262.535,664.8,261.428,664.323,261.823Zm-6.03,41.8c.369.376.963-.4.674-.745C658.563,302.4,657.814,303.138,658.293,303.627Zm-10.421-40.29c.553-.434-.556-1.108-.962-.6C646.658,263.057,647.6,263.547,647.872,263.336Zm10.443-1.995c-.111-.4-.817.226-.537.559C658.017,262.182,658.48,261.931,658.315,261.342Zm-1.894,4.783c-.67.489,1.846,1.289,1.006.384.224-.293.626-.7.246-.922-.35-.207-.4.323-.579.668C656.838,266.112,656.547,266.032,656.421,266.124Zm-32.111-1.52c.215-.4-.644-1.04-.855-.649C623.3,264.247,624.1,264.993,624.309,264.6Zm17.3-.4c.187.066.817-1.29.287-1.421C641.482,262.676,641.4,264.123,641.614,264.2Zm-7.652-2.63c-.393-.175-.777.762-.34.843C633.854,262.456,634.319,261.729,633.962,261.57Zm-15.991-2.922c-.248-.33-.68.507-.3.715C618,259.539,618.339,259.138,617.972,258.648Zm47.414,6.722c-.062.273-.261.654-.053.848a.386.386,0,0,0,.543-.057C666.39,265.527,665.536,264.707,665.386,265.37Zm-15.625-6.313c-.424-.14.053,1.959.449,1.478A1.077,1.077,0,0,0,649.761,259.057Zm3.589,3.536c.211-.427-.787-.7-.981-.352C652.162,262.606,653.16,262.977,653.35,262.593Zm-10.064.824c.484.341,1.471-.34,1.151-.663S642.7,263,643.286,263.417Zm-41.12-2.03c-.181.079.288,1.5.764,1.231C603.308,262.4,602.367,261.3,602.166,261.387Zm8.089-2.647c-.153-.6-.905-.751-1.2.624C608.969,259.781,610.407,259.336,610.254,258.74Zm10.959,2.4c.208.555,1.408.547,1.324.1C622.45,260.771,620.962,260.464,621.213,261.137Zm-5.116,2.644c-.019-.729-1.819-.7-2,.266C613.982,264.664,616.106,264.159,616.1,263.781Zm-7.591-.071c-.7-.01-1.041.662-.089.732-.306.666-1.177-.446-1.829-.712-1.474-.6,2.479,3.387,3.221,1.546.681-1.686-.984.738-.963-.89a.327.327,0,0,0,.043-.528C609.119,262.19,608.485,262.355,608.506,263.71Zm10.115-7.42c-.152-.6-.9-.754-1.2.626C617.336,257.332,618.772,256.887,618.621,256.29Zm3.508,7.681c.125.323.459.378.557-.443C622.74,263.077,621.932,263.462,622.128,263.971Zm-25.123,3.962c-.5.172-.057,1.04.383.928C598,268.707,597.653,267.71,597.005,267.933Zm31.553-5.282a1.076,1.076,0,0,0,.46-1.473C628.747,260.824,627.959,262.827,628.558,262.651Zm21.287.216c.208.107.862-.456.566-.71C650.084,261.878,649.448,262.664,649.845,262.867Zm-24.169-5.256a.385.385,0,0,0-.019-.544.77.77,0,0,0-.767-.128c-1.487-.974-1.769,1.411-.123.509a.209.209,0,0,0,.066.05C625.1,257.58,625.467,257.805,625.676,257.611Zm13.986,3.823c-.235.235.323,1.18.632.868S639.975,261.12,639.662,261.435Zm-4.228-6.053c.261.261.7-.025.49-.6C635.78,254.395,635.127,255.073,635.434,255.381Zm1.424,6.1c-.337-.131-.521,1.011-.266,1.156C636.945,262.839,637.281,261.647,636.857,261.484Zm-1.263-1.257c-.012-.312-.939-.728-1.173-.526C633.973,260.087,635.615,260.823,635.594,260.227Zm6.357-5.451c-.442.433-.2,1.16,1.14.721C643.5,255.367,642.391,254.346,641.951,254.776Zm-142.932,56.9c.658-.379-.679-1.3-1.195-.668C497.4,311.529,497.921,312.3,499.02,311.671Zm4.015,2.781c.26-.4-.578-1.069-.852-.641C501.932,314.2,502.722,314.941,503.034,314.452Zm-4.745-.8c.19.427,1.561.12,1.323-.378C499.414,312.862,498.134,313.3,498.289,313.651Zm-13.945,3.786c-.387-.2-.786,1.2-.6,1.319C483.91,318.862,484.83,317.685,484.344,317.436Zm9.562-8.816c-1.6-.326-4.03.31-1.923.946.627.19,1.107.605,1.736.787C495.232,310.793,494.376,308.716,493.906,308.62Zm-7.9-2.02c.05-.252-.34-.39-.533-.56s-.441-.663-.658-.5C484.15,306.061,485.792,307.677,486.007,306.6Zm8.418,9.2c.4-.251-.5-.859-.778-.656S493.515,316.366,494.425,315.8Zm-24.038-7.926c-.415.459-.128,1.169,1.183.65C471.967,308.369,470.8,307.42,470.387,307.876Zm36.548,3.643c-.275-.23-.473.3-.294.485C507.011,312.385,507.587,312.063,506.935,311.52Zm-23.427-4.068c-.087.453.6,1.019,1.047.905C485.876,308.021,483.737,306.245,483.509,307.452Zm19.146.71c.473-.084,1.279-.88.821-.88-.575,0-1.4-.464-1.8.048C501.378,307.7,502.263,308.231,502.654,308.162Zm-6.092,1.86c1.321-.118,2.641-.242,3.959-.39.194-.022.376-.464-.067-.427-1.22.1-2.44.2-3.658.328C496.584,309.556,496.266,310.05,496.562,310.023Zm-36.94-4.64c-.189.59.366,1.118,1.346.106C461.265,305.182,459.809,304.8,459.622,305.382Zm.649-10.832c.286,0,1.153.092,1.28-.127.1-.182-.941-2.242-1.358-2.1C459.687,292.488,460.074,294.549,460.271,294.55ZM460,299.9c.118-.581-.9-1.21-1.069-.787C458.753,299.553,459.852,300.6,460,299.9Zm24.125,7.087c.512.119.6-.851.168-.989C483.688,305.8,483.454,306.83,484.122,306.986Zm-29.435-12.113c1.572-.239,1.433-3.262.647-3.809-1.38-2.179-4.764-2.2-3.2,1.714a3.249,3.249,0,0,0,1.911,2.042,1.026,1.026,0,0,0-.64.9C453.439,296.1,454.662,295.248,454.687,294.872Zm7.438-4.236c-.411-.039-.635.851-.076,1.151C462.726,292.151,462.945,290.712,462.125,290.637Zm5.888,17.111c-.189.59.368,1.117,1.346.1C469.654,307.547,468.2,307.16,468.013,307.747ZM453.7,278.585a.386.386,0,0,0-.27-.475c-.787-.216-1.195.9-.527.767C453.179,278.824,453.607,278.853,453.7,278.585ZM461.18,290.1a.518.518,0,1,0,.288-.993C461.036,289.01,460.5,289.928,461.18,290.1Zm6.936-21.516c.295-.305-1.158-.693-1.346-.106S467.135,269.6,468.116,268.583Zm-9.028,15.436c.062-.433-1.88-.2-1.919.517C457.12,285.43,459,284.67,459.088,284.019Zm6.069-3.408c.429.2.753-.811.416-.909C465.382,279.645,464.742,280.413,465.157,280.611Zm11.122,27.736c-.434-.021-.222,1.417-.005,1.448C476.469,309.825,476.824,308.373,476.279,308.347Zm-10.271-16.98c.01-.3-.692-.856-.89-.654C464.773,291.066,465.986,291.979,466.008,291.367Zm-.8-3.817c.572-.319.547-.654.259-.72C464.8,286.678,464.733,287.814,465.2,287.55Zm-4.48,9.46c.065-.34-.187-.564-.707.081C459.732,297.445,460.621,297.547,460.725,297.011Zm.718-25.714c-.306-.275-.568.63-.153.758C461.643,272.165,461.9,271.706,461.442,271.3Zm21.982-13.785c-.205.584.334,1.129,1.343.143C485.071,257.359,483.629,256.93,483.425,257.512Zm-8.483,15.1c.251-.525.275-1.236-.115-1.332-.315-.078-1.155.949-1.011,1.532-.239.115-.423.273-.44.481C473.274,274.533,476.389,272.764,474.942,272.613Zm27.362-12.35c-.4-.031-.23.574-.224.759.009.231-.056.648.179.689.124.022.212-.209.207-.308C502.453,261.1,502.838,260.3,502.3,260.263Zm-24.284-.083c-.3-.285-.586.613-.175.754C478.2,261.053,478.465,260.6,478.02,260.18Zm6.373,4.21a.681.681,0,0,0-.688.287c-.062.137.138.359.229.372.262.035.628.173.815,0C485.757,265.568,485.144,263.83,484.393,264.39Zm-14.315,2.857a.387.387,0,0,0-.257-.481c-.789-.242-1.217.861-.548.751C469.548,267.473,469.976,267.513,470.078,267.248ZM483,265.792c-.123.393.727.451,1.129,1.2.79,1.473,1.255,1.027.858.618-.559-.574-.469-.87-.136-1.069a.654.654,0,0,0,.627.837.712.712,0,0,0,.335-1.365c-.019-.063-.087-.125-.271-.171a5,5,0,0,0-1.188,0C483.907,265.832,483.105,265.467,483,265.792Zm30.349-1c1.4,2.093,1.841-2.437,3.066.041.281.568.663-1.1-.066-1.038C514.223,263.973,512.846,264.032,513.353,264.79Zm-8.277,2.921c.388.277.882-.667.569-.822C505.465,266.8,504.7,267.444,505.076,267.71ZM493.31,263.88c.279-.005.7.1.837-.15a.387.387,0,0,0-.185-.513C493.224,262.866,492.63,263.89,493.31,263.88Zm9.724-5.986c-.256-.325-.67.522-.283.721C503.08,258.784,503.412,258.376,503.034,257.893Zm15.741,13.1c.209-.389-.714-.5-.859-.206C517.705,271.217,518.618,271.284,518.776,270.992Zm-12.7-5.823c.4.081.353-1.156-.1-1.182C505.615,263.966,505.79,265.11,506.078,265.169Zm20.969-3.656c-.422-.1-.472,1.354-.256,1.426C526.979,263,527.579,261.631,527.047,261.512Zm-7.962-1.038c-.4-.167-.762.777-.322.849C518.994,261.361,519.444,260.624,519.085,260.474Zm-10.455,2.607c-.151.3.67,1.025.868.632C509.7,263.3,508.833,262.686,508.63,263.081Zm-.45,8.664c.424.321.791.339.255-.473a4.672,4.672,0,0,1-.416-.661C507.353,269.08,506.28,270.312,508.18,271.744Zm.588-15.7c-.287.547.167,1.165,1.308.336C510.42,256.13,509.056,255.495,508.769,256.042Zm11.318,13.532c.506.1,1.311-1.094.82-1.023C519.068,268.816,519.276,269.418,520.087,269.574Zm-16.975-6.537c-.309.506,1.48.7,1.277.141C504.283,262.884,503.272,262.773,503.112,263.037Zm13.6,4.558c.242.1.533-.805.29-.977C516.558,266.308,516.357,267.453,516.708,267.594Zm203.526,81.485c.039.836,2.124.407,2.038-.449C722.175,347.684,720.2,348.291,720.234,349.079Zm-8.123-8.342c-.623-.968-.731-2.855-2.031-2.983-.941-.092-.877,1.97-.338,2.552C710.4,341.013,712.606,341.507,712.111,340.737Zm-12.371-5.481c-1.346-.147-2.084,1.567.169,2.733C701.256,338.686,701.369,335.436,699.74,335.257Zm8.985,15.885c.088-.711-1.015-.471-1.133.031C707.35,352.207,708.514,352.826,708.724,351.142ZM681.331,334.7c.208-1.246-1.9-1.408-2.007-.044C679.238,335.7,681.183,335.59,681.331,334.7Zm48.242,6.818c.26-2.044-3.495-2.652-2.5-1.563C727.839,340.788,729.431,342.638,729.573,341.514Zm-37.508-13.254c-.241,1.033.923,1.654,1.133-.031C693.287,327.518,692.183,327.758,692.065,328.261Zm7.505,19.491c.959,0,1.175-2.129.158-2.128C698.8,345.623,698.411,347.753,699.571,347.752Zm-3.783-8.85c-.512.782,1.486,2.755,2.065,1.815C698.332,339.941,696.205,338.264,695.787,338.9Zm51.024-27.388c-.044.337.252.667.862.583-.769.539-1.444,1.4-1.32,1.787.472,1.449,3.94-.518,3.086-1.916-.232-.379-.64-.406-1.086-.243a.4.4,0,0,0,.178-.3C748.614,310.338,746.027,310.7,746.811,311.513ZM699.169,324.3c.389.153,4.159-2.517,3.764-3.3-.48-.953-4.445.418-4.389.807C698.622,322.37,698.7,324.113,699.169,324.3Zm50.848,2.716c-.453.1-1.294.114-1.294.59,0,.252.484.344.679.3.6-.133,2.3.35,2.19-.715C751.51,326.387,750.379,326.937,750.017,327.016Zm-32.843-4.353c-.756-.067-1.546,1.859-.712,1.876C717.191,324.554,718.142,322.748,717.174,322.662Zm14.722-3.588a.77.77,0,0,0,.136.306c-.062.18,1.262,1.206,1.408.886.61.176,1.127.137.917-.284C732.691,316.661,731.679,317.438,731.9,319.074Zm-60.429.874c0,.4,2.976.674,2.868-.412C674.249,318.671,671.468,319.51,671.468,319.948Zm46.391,11.711c.1.425,3.31-.527,3.435-1.647C721.513,328.075,717.565,330.347,717.859,331.66Zm17.24-9.111c-.8-.012-.613,1.134.031,1.963-2.122-.359-1.785,1.117.008,1.381a1.554,1.554,0,0,0-1.068,2.334c1.747,2.622,4.9.59,2.541-1.987a1.52,1.52,0,0,0-.742-.361c.318-.079.528-.251.493-.582a1.237,1.237,0,0,0,.291.044C737.78,325.26,736.052,322.563,735.1,322.549Zm-7.516,2.749c-2.009-.76.048,1.524,1.346,3.067C731.855,331.843,729.815,326.14,727.583,325.3Zm-15.6,5.754c.954-.478-.41-4.445-.8-4.391-.566.078-2.309.153-2.5.622C708.534,327.671,711.2,331.445,711.984,331.051Zm3.828-9.475c.231.363,1.019-.362.763-.707-.167-.224-.472-.049-.653.2a.721.721,0,0,0-.5-.737C713.935,319.992,715.286,322.467,715.812,321.576Zm11.68.909c.334.459,1.02,1.467,1.155.917C728.89,322.4,727.06,321.888,727.493,322.485Zm-11.75-3.724c.69,1.133,1.387,2.26,2.1,3.376a.253.253,0,0,0,.363.018.594.594,0,0,0,.359.392c-1.152-.337.428,1.621.781.809.12-.278-.353-.665-.734-.8a.663.663,0,0,0,.877-.63c0-.944-1.246-1.081-1.314-.076-.627-1.036-1.249-2.075-1.9-3.1C716.171,318.574,715.587,318.508,715.743,318.762Zm24.361-7.677c.012.235.826.522.9.138C741.082,310.8,740.084,310.639,740.1,311.084Zm-25.465,15.443c.477.054.7-.992.2-1.049C714.375,325.427,714.063,326.462,714.638,326.527Zm5.472-3.129c.286.388,1.356.756,1.152.347-.255-.516-.2-1.458-.842-1.6C719.959,322.051,719.875,323.079,720.11,323.4Zm21.269-3.894c.407-.079.608-.581-.014-.811-.282-.1-.565-.2-.847-.309.67-.774-.71-1.226-.728-.266-.473-.176-5.282-2.067-5.757-1.9-.432-.455-.769-.163-.564.452a.14.14,0,0,0,.052.122c.256.588,1.054.992,1,.388q2.849,1.039,5.716,2.03C740,319.541,741.152,319.583,741.379,319.5Zm-7.835-9.128c-.044.256.9.354,1.016.08C734.772,309.962,733.608,310,733.543,310.376Zm-.577,13.115c.137-.321-.18-.64-1.064-.31C731.4,323.368,732.724,324.055,732.967,323.491Zm-29.285-12.4c0-.11-.088-.175-.224-.208.816-.8-2.6-.416-.743.027C701.213,311.23,703.676,311.612,703.682,311.093Zm50.548-17.312c-.436.464,1.059,1,1.555.366C756.136,293.7,754.557,293.433,754.23,293.781Zm1.691,19.376c-.233-.271-.516.217-.37.429C755.853,314.023,756.473,313.8,755.921,313.157Zm-4.126-9.935c.189.107.918-1.4.547-1.826C751.7,300.665,751.211,302.888,751.8,303.222Zm-2.158-3.292c-.308.743.065,3.028.7,2.166a5.422,5.422,0,0,0,.846-2.656c.262.173,1.151-.18,1.17-.48.027-.414-.781-.212-1.118.083a1.36,1.36,0,0,1,.252-.773c.155-.136-.049-.489-.238-.274A8.164,8.164,0,0,0,749.638,299.93Zm-7.424,14.589c-.322.162-.332,1.182.659.777C743.313,315.117,742.523,314.367,742.214,314.52Zm15.052-12.3c-.668-.783-2.157.4-1.418.4C756.414,302.616,757.633,302.649,757.266,302.219Zm2.605-3.447c-.18-.3-.625-.23-.875.68C758.855,299.964,760.185,299.3,759.871,298.772Zm-28.023,17.657c.146.133,1.25-.874.812-1.2C732.311,314.971,731.686,316.282,731.848,316.429Zm19.739-1.029c.322-.356-.392-1.152-.734-.776C750.54,314.968,751.2,315.829,751.587,315.4Zm3.054-30.331c-.3-.312-1.011.4-.639.646C754.2,285.845,754.909,285.354,754.641,285.069Zm-2.97,21.739c.423.635,1.827-.78,1.228-1.338C752.377,304.984,751.461,306.492,751.672,306.809Zm-1.761,3.418c.2.012.449-.394.005-.431-1.219-.1-2.44-.207-3.66-.286-.213-.013-.609.42-.313.443C747.265,310.058,748.588,310.155,749.911,310.227Zm5.147-6.942c.092-.625-.544-.754-.624-.33C750.726,302.923,756.387,305.428,755.058,303.285ZM741.5,308.741c.587.291.99.781,1.581,1.067,1.417.683.919-1.507.473-1.679C742.037,307.54,739.532,307.764,741.5,308.741Zm19.183-18.295c.148.134,1.25-.874.812-1.2C761.153,288.989,760.518,290.293,760.687,290.447ZM750.479,306.06c-.46-.561-1.186.519-.866.936C750.021,307.527,750.834,306.493,750.479,306.06Zm-3.716-.9c.235.16.906.719,1.133.608.188-.092.471-2.384.047-2.5C747.43,303.121,746.6,305.048,746.764,305.159Zm-7.345-43.177c-.91.375-1.78.851-2.657,1.307a.25.25,0,0,0-.062.345c.036.343.34.487.677.5a.614.614,0,0,0,.321.035c.25.948,1.919-.9,1.456-1.7a1.844,1.844,0,0,1,.641.481C740.233,263.408,740.1,261.7,739.419,261.982Zm14.941,22.59c.387.261,1.389-.721.923-1.019C754.9,283.307,754.044,284.358,754.36,284.572Zm6.218-6.374c-.356-.05-.243.5.006.566C761.1,278.892,761.418,278.315,760.577,278.2Zm-6.642,4.307c.358-.668-1.266-.75-1.368.063C752.484,283.24,753.336,283.621,753.935,282.5Zm4.877.243c.008-.48-1.055-.6-1.063-.1C757.743,283.117,758.8,283.328,758.812,282.747Zm-5.984-11.321c-1.3,1.059-.918,1.629.222,1.186C754.815,271.925,753.329,271.019,752.829,271.426ZM751.8,276.48c-.716-.116-.546,1.173-.03,1.275C752.427,277.884,752.352,276.57,751.8,276.48Zm-2.685-18.459c.2,0,.358-1.483-.186-1.438C748.5,256.621,748.885,258.017,749.114,258.021Zm2.092,30.271c-.136.335.531,1.105,1.007.146C752.424,288.013,751.335,287.973,751.206,288.293Zm2.6-22.4c.234.478.79-.9.206-1.089C753.681,264.694,753.393,265.042,753.807,265.889ZM740.973,258.9c.231-.034.438-.873.051-.908C740.594,257.954,740.532,258.964,740.973,258.9Zm12.57,11.445c.424-.375,1.362-1.157.8-1.237C753.324,268.963,752.99,270.835,753.542,270.345Zm-7.061-5.552c-.018.637,1.453.046,1.408-.755C747.859,263.474,746.5,264.318,746.482,264.794Zm1.318,3.778c-.4,1,.763-.012,1.544-.649C751.105,266.486,748.237,267.464,747.8,268.572Zm11.626,2.833c-.474.041-.186,1.034.208,1.023C760.052,272.414,759.853,271.368,759.425,271.4ZM670.943,317.48c.164.5,1.037.07.932-.37C671.727,316.5,670.728,316.83,670.943,317.48Zm3.731-2.634c-.361.012-.8.934.273.981C675.421,315.85,675.018,314.836,674.674,314.847ZM665.7,311.49c-.208-.383-1.325.546-1.24.749C664.538,312.421,665.962,311.969,665.7,311.49Zm7.646-3.239c-.531.057-.454.949-.171,1.008a11.578,11.578,0,0,0,1.6.16C675.383,309.462,673.906,308.192,673.347,308.251Zm9.469,11.321c.441-.187.127-1.21-.343-1.011C682.046,318.742,682.283,319.8,682.817,319.572Zm1.774-12.547c-.407-.345-1.966,1.058-1.866,1.226.147.246.522,1.033.774,1.028C683.709,309.274,684.926,307.31,684.591,307.026Zm-3.936,9.641c.07-.451-1.236-.809-1.3-.434C679.268,316.692,680.571,317.213,680.655,316.667Zm14.768,8.695c-.229-.59-1.174-.12-.873.5C694.782,326.329,695.588,325.783,695.423,325.362Zm-3.182-14.032a.968.968,0,0,0,.535,1.277C694.107,312.894,692.986,310.352,692.241,311.33Zm6.051,12.341c.472-.044-.066-.992-.406-.935C697.53,322.8,697.225,323.77,698.292,323.671Zm4.489-4.22c.193.075.387.146.579.221a.779.779,0,0,0,.242.965c-.447.5-.984,1.255-.319,1.134.549.528,1.7.383,1.112-.5a2.119,2.119,0,0,0,.846-.888c.42.158.836.325,1.258.478.184.067.543-.248.131-.411-.459-.182-.919-.357-1.378-.539a1.381,1.381,0,0,0,.243-.681c.265.145.731.079.815-.215.164-.574-.741-.773-.954-.23-.48-.736-1.36-.237-1.8.464-.116-.044-.232-.092-.348-.136C703.008,319.043,702.5,319.342,702.781,319.451Zm3.341,5.9c-.4.238-.021,1.253.477.955C707.011,326.055,706.559,325.087,706.122,325.346Zm3.257-7.028c-.976.394-2.106,1.9-1.886,2.4.33.747,1.415.428,2.2-.228.386-.08.79-.244.438-.445.714-.89.415-1.624-.1-1.788,1.121-.477.905-1.6,0-1.131-.869-1.381-3.7-1.214-.773.711C709.141,318.034,709.119,318.2,709.379,318.318Zm-5.318,5.4c.008-.456-1.336-.632-1.351-.252C702.689,323.935,704.052,324.272,704.061,323.72Zm2.577-10.09c-.306-.2-1.025.484-1.417.986-.3.151-.586.352-.252.416-.03.138.664,1.017.9.979C706.073,315.978,707.009,313.867,706.638,313.63Zm1.615,3.413c-.277-.671-1.285.151-1.1.644C707.386,318.314,708.466,317.56,708.253,317.043Zm16.718,11.084c-.658.524.891.73.9.109,0-.208-.193-.283-.412-.275C725.574,327.21,724.713,327.619,724.97,328.128Zm11.52-16.415c-.631.081.184,1.442.968,1.271C738.01,312.863,736.963,311.652,736.49,311.713Zm-16.681,7.211c.272.261.548.516.82.776-.842.326-.043,1.193.732.693.314.3.625.6.941.891-.323.04-.6.144-.652.277-.268.715,1.7,1.024,1.8.211.032-.269-.2-.414-.508-.473-.46-.446-.924-.888-1.385-1.333a.4.4,0,0,0-.316-.3c-.305-.293-.605-.591-.914-.88C720.176,318.634,719.6,318.716,719.809,318.923Zm16.132-8.429c-1.062-1.526-1.506-1.068-1.283-.274C734.8,310.716,736.224,310.9,735.941,310.495ZM731.023,325.9c.079.411,1.08.049.976-.367C731.885,325.072,730.95,325.513,731.023,325.9Zm-17-5.826c-.352-.08-1.007.7.015,1.019C714.5,321.235,714.364,320.153,714.028,320.075Zm10.668-.78c-.423.728,1.616.14,1.731-.365.1-.423-.268-.467-.69-.339C725.408,317.984,723.989,318.9,724.7,319.3Zm-4.8,1.224c-.677.022-.921.923.278,1.339C720.891,322.109,720.715,320.491,719.9,320.52Zm5.76,1.985a.408.408,0,0,0,.595.063c.164-.017.246-.08.169-.191.484-.78-1.026-2.173-1.2-1.354C724.727,321.023,724.692,322.252,725.657,322.5Zm-4.954,4.211c.474-.069.431-1.138-.074-1.065C720.169,325.716,720.128,326.8,720.7,326.716Zm16.967-7.565c.053-.345-.336-.575-1.108-.032C736.127,319.425,737.577,319.756,737.669,319.151Zm-7.865.279c.923,1.577,1.562.137,1.171-.35a2.937,2.937,0,0,0-1.158-2.137c.9-.737.062-1.44-.944-.213-.125-1.034-.879-1.263-1.121-.789a4.5,4.5,0,0,0-1.722-.061c-.784.186-2.416,1.828-1.347,1.833a6.427,6.427,0,0,0,3.049-1.089c.112.462.455,1.011.891.831.067.081.467-.049.849-.274a12.7,12.7,0,0,0,.868,1.4C729.552,318.113,729.3,318.568,729.8,319.43Zm-4.2-4.4c-.128-.182-.526-.116-.944.03-.171.052-1.221.516-1.171.683.079.274.242,1.131.487,1.19C724.183,316.982,725.858,315.392,725.608,315.031ZM732.9,313.6c-.358-.379-.605-.066-.595.491.01.5,1.288,1.03,1.171.608C736.018,316.961,733.743,313.751,732.9,313.6Zm-6.671,6.538c-.078.758,1.906.56,1.8-.252C727.936,319.179,726.269,319.761,726.231,320.139Zm.82-62.777c-.608.114-.811.853.547,1.235C728,258.712,727.657,257.249,727.05,257.362Zm-8.315.988c.164-.265-.375-1.126-.681-1.089C717.467,257.332,718.421,258.857,718.736,258.35Zm-17.015-.48c-.207-.429-1.032.193-.88.557C701,258.814,701.907,258.257,701.721,257.87Zm9.683-8.2c-.375.154.212,1.043.549.99C712.647,250.547,712.009,249.417,711.4,249.665Zm-13.238,9.414a1.076,1.076,0,0,0-1.439-.556C696.355,258.772,698.3,259.687,698.165,259.079Zm23.136-4.843c.071.363.6.371.741-.225C722.137,253.61,721.217,253.809,721.3,254.236Zm-12.942,2.3c-.809.381.75,1.67,1.367,1.443C710.135,257.823,709.012,256.224,708.359,256.532Zm32.473,3.954c-.189-.309-1.032.482-.917.753C740.074,261.613,741.067,260.875,740.832,260.486Zm2.221,2.746c.452-.061.468-1.129.028-1.072C742.752,262.2,742.617,263.291,743.053,263.232Zm-3.062-5.645c-.591.032.26,1.617.608,1.133C740.78,258.466,740.3,257.57,739.991,257.587Zm3.947,13.786c.057.253.965-.018.968-.315C744.914,270.521,743.855,271,743.939,271.373Zm5.023-13.087c-.615.072-.866.8.463,1.268C749.824,259.7,749.573,258.214,748.962,258.286Zm-14.619-7.7c.7-.062.137-1.232-.482-1.025C733.476,249.695,734,250.621,734.342,250.591Zm9.089,4.193c.046.367.571.41.754-.175C744.308,254.215,743.376,254.353,743.432,254.784Zm7.72,14.513c-.088-.422-1.072-.186-.882.217C750.37,269.726,751.232,269.68,751.152,269.3Zm-13.9-7.443c-.008.476,1.049.348,1,0C738.224,261.657,737.261,261.395,737.253,261.854Zm-6.887-5.638a.331.331,0,0,0-.235.354c-.569.247-.269,1.3.52.784a1.273,1.273,0,0,0,.984.393C732.051,257.623,731.036,255.953,730.365,256.215Zm-6.712.895c-.179-.442-1.043.123-.917.5C722.872,258,723.814,257.508,723.654,257.11Zm-5.028.321c-.387.222,1.5,1.266,1.4.649A1.076,1.076,0,0,0,718.626,257.43Zm27.564,13.062c.194-.125.262-.387-.035-.716,1.876-.034,0-1.676-1.312-3.01-.115-.118-.37-.06-.494.253-.931,2.34,3.051.136,1.7,2.55a.175.175,0,0,0-.017.078c-1.475-1.228-3.152-.363-.906.7C744.368,271.413,746.113,271.038,746.19,270.493Zm7,20.152c.072.429,1.851-.378,1.67-1.076C754.638,288.7,753.081,290,753.191,290.644Zm-3.924,17.447c-.189.379,1.314.308,1.315-.309S749.894,306.828,749.267,308.091Zm11.375-14.423c-.246.133-.663.237-.671.521a.384.384,0,0,0,.4.368C761.189,294.526,761.239,293.343,760.642,293.668Zm-6.395-14.588a1.079,1.079,0,0,0,.813-1.312.089.089,0,0,0-.1-.054c.552-.2.814-1.432.48-1.3.78-1.257-.7-1.673-4.7-3.925-.465-1.09-1.148-.853-.974-.207a.986.986,0,0,0-.322.689c-.3,3.022,1.912,1.894,3.448,1.692-.229.468.016,1.513.3,1.588.586.156.769-1.054.415-1.575.518.118.794.592.595,1.792-.222.149-.781.334-.711.575.035.12.28.1.367.05a1.263,1.263,0,0,1,.256-.084c-.516.472-.062.97.79.723C754.525,277.882,753.723,279.1,754.247,279.08Zm.146,2.748c-.411.087-.031,1.081.384.97C755.236,282.675,754.778,281.748,754.393,281.828ZM650.092,304.9c.414-.116.114-1.082-.275-.866C649.611,304.151,649.715,305.009,650.092,304.9Zm-14.562-1.748c.349-.019.5-.446-.194-1.091C634.946,301.7,634.918,303.188,635.529,303.156Zm7.672,5.874c.391-.187-.469-1.355-.683-1.277C642.332,307.82,642.71,309.266,643.2,309.03Zm12.376-2.285c.3-.306-1.158-.69-1.346-.1S654.6,307.759,655.578,306.745Zm8.392,2.361c.295-.305-1.158-.69-1.346-.1S662.992,310.118,663.97,309.106ZM556.537,267.74c-.385-.275-1.671.538-1.021.847C556.05,268.843,556.908,268,556.537,267.74Zm-4.123,7.883c.345.525,1.523-1.315,1.254-1.58C553.148,273.531,551.872,274.8,552.414,275.623Zm2.082-6.33c-.331.137.083,1.391.239,1.487,1.9,1.164-.974,3.069.944,3.141.414.015,1.078.389,1.242.009.222-.509-1.577-.2-1.152-1.089.56-1.165.061-1.908-.543-2.723C555.007,269.824,554.834,269.152,554.5,269.293Zm3.327,4.757c.341.383.893-.511,1.281-.838.315-.266.336-1.174-.387-.286C558.414,273.3,557.5,273.693,557.822,274.05Zm3.34-10.852c-.442-.066.383,1.921.69,1.38A1.076,1.076,0,0,0,561.162,263.2Zm16.465,3.585c-.016.279-.146.688.09.844a.386.386,0,0,0,.525-.147C578.647,266.761,577.662,266.107,577.627,266.783Zm-27.343.116c-.526-.326-1.174.084-.428,1.281C550.083,268.542,550.807,267.223,550.284,266.9Zm7.857,3.091c.314.146.592-.045.092-.706C557.959,268.923,557.646,269.762,558.141,269.991Zm4.68.618c-.04-.533-2.135-.654-2.182-.464-.071.277-.368,1.1-.186,1.274C560.6,271.563,562.856,271.047,562.822,270.609Zm8.284-1.054c-.856-.264-.57,1.74.039,1.987C571.549,271.706,571.795,269.766,571.106,269.555Zm-6.837-3.66c-.142.394.9.593,1.027.181C565.431,265.62,564.4,265.524,564.269,265.9Zm-11.008,37.614c.176-.312-.38-.411-.53-.2C552.423,303.739,552.843,304.248,553.261,303.509Zm22.974-3.261c-.075.185,1.249.878,1.405.356C577.764,300.19,576.323,300.037,576.235,300.248Zm-15.017-1.691c-.008,1.893,1.381.843,1.184.229C561.893,297.187,561.224,297.334,561.217,298.557Zm1.673-26.019c-.516.57.827,1.129,1.1.353C564.125,272.5,563.317,272.069,562.89,272.538Zm4.3,29.19c-.53.041.55,1.065.937.59C568.352,302.048,568.134,301.654,567.193,301.729Zm-7.191,3.2c.136-.455-.893-.552-1.028-.18C558.833,305.143,559.879,305.341,560,304.929Zm4-3.884c.509-.895-1.111-1.892-.857-1.2C563.339,300.379,563.722,301.537,564,301.045Zm-13.849-1.8c-.429-.176-1.015.734-.478.954C550.119,300.38,550.624,299.438,550.154,299.244Zm15.479-26.62c.2-.4-.564-1.14-.893-.52A.518.518,0,1,0,565.633,272.624Zm22.687-4.775c-.181-.437-1.7-.433-1.316.175C587.319,268.524,588.493,268.27,588.32,267.849Zm.16,2.76c.189.291.526.277.454-.548C588.894,269.608,588.183,270.151,588.48,270.609Zm-11.648,27.94c-.119.555-.411,1.739.088,1.471C577.828,299.533,576.987,297.828,576.832,298.549Zm3.8-26.219c.014.628,1.99-.3,1.9-.67C582.368,270.949,580.612,271.346,580.633,272.33Zm5.176,26.51c-.361-.525-1.2.824-.687,1.442C585.483,300.719,586.08,299.232,585.809,298.84Zm-14.342,2.34c.358-.313-.463-.942-.773-.7C570.363,300.74,571.143,301.465,571.466,301.18Zm23.185-34.716c-.339-.291-.7,1.831-.149,1.536A1.077,1.077,0,0,0,594.651,266.464Zm1.969,4.636c.358-.314-.463-.943-.773-.7C595.517,270.66,596.3,271.384,596.62,271.1Zm-10.857-3.023c-.352-.059-.67,1.222-.587,1.386.989,2-2.458,2.082-.873,3.162.343.233.706.9,1.047.668.459-.313-1.227-1.012-.4-1.535,1.093-.689,1.067-1.584.988-2.595C585.915,268.8,586.126,268.14,585.764,268.078Zm-2.292-4.267c-.271-.556-1.037-.553-1.042.857C582.427,265.094,583.743,264.363,583.471,263.811ZM579.738,303.3c.331-.111.357-.561-.48-1C578.787,302.051,579.158,303.492,579.738,303.3Zm14.5-2.211c.369-.224-.178-1.073-.5-.762C593.573,300.489,593.9,301.286,594.236,301.085Zm-18.451-33.162c-.273-.557-1.04-.549-1.043.857C574.741,269.2,576.056,268.475,575.785,267.922ZM588.7,306.9c.325-.284-.815-1.18-1-1.049C587.54,305.971,588.291,307.262,588.7,306.9ZM459.46,291.823c-.491.2-.407.855.34.453C460.116,292.107,459.7,291.725,459.46,291.823Zm22.211-28.041c-.08-.2-.427-.3-.753-.3.432-.883-1.687-1.826-1.919-.93-.112.431.706,1.037,1.327,1.144C480.013,264.362,481.918,264.389,481.672,263.783Zm6.183.166a1.078,1.078,0,0,0,.153-1.536C487.668,262.121,487.3,264.242,487.854,263.948ZM461.4,278.594c-.088-.35-1.082-.578-.9.477C460.583,279.539,461.485,278.928,461.4,278.594Zm15.432-18.861c-.272-.556-1.037-.555-1.045.856C475.786,261.014,477.1,260.286,476.833,259.733ZM472.181,274.7c.216.141.49-.169.719-.286.244-.123.78-.16.7-.424-.132-.467-1.117-.353-1.453,0A.534.534,0,0,0,472.181,274.7Zm.144-2.636c-.388-.249-1.169.177-1.231.633C470.913,274.047,473.359,272.728,472.325,272.064Zm-10.572-4c-.162.114.587,1.408,1,1.05C463.079,268.825,461.932,267.932,461.753,268.06Zm-2.3,18.952c-.269-.379-1.25.078-.914.551C458.815,287.952,459.745,287.426,459.451,287.011Zm10.574-16.693c.353-1.942-1.023,1.434-1.186-1.175-.093-1.495-.53-1.43-.5-.619.017.429.357,1.223.071,1.445-.38.3-1.346-.418-1.857-.512-.154-.028-.449.234-.2.359C467.773,270.516,469.748,271.849,470.025,270.318Zm5.262-3.091c.05-.7-.438-1.858-1.073-1.753-.548.09-.181,1.373.283,1.964a.935.935,0,0,0-.521.809C473.993,269.134,477.207,267.272,475.287,267.227Zm-17.26,8.289c-.453.268.155,1.028.562.831C459.158,276.072,458.616,275.167,458.027,275.516Zm42.359-15.924c-.366.5-.009,1.177,1.242.527C502,259.924,500.75,259.094,500.385,259.592ZM494.994,266c-.061-.306-1.043-.566-1.241-.33C493.372,266.124,495.111,266.584,494.994,266Zm22.189,3.086c.178.09.975-1.174.465-1.372C517.246,267.558,516.98,268.983,517.183,269.086Z" transform="translate(766.498 352.188) rotate(180)" fill="#fff"/>
</svg>
