<svg height="18" viewBox="0 0 11 18" width="11" xmlns="http://www.w3.org/2000/svg"><g fill="#8701fc" fill-rule="evenodd" transform="matrix(0 -1 1 0 .352941 17.343894)"><path d="m7.15485104 3.79671505h8.98441556c.8269926 0 1.4974026.67040998 1.4974026 1.4974026 0 .82699261-.67041 1.49740259-1.4974026 1.49740259h-8.98441556c-.82699262 0-1.4974026-.67040998-1.4974026-1.49740259 0-.82699262.67040998-1.4974026 1.4974026-1.4974026z" transform="matrix(-.70710678 .70710678 -.70710678 -.70710678 23.62628 .80191)"/><path d="m.80190986 3.79671505h8.98441557c.82699267 0 1.49740257.67040998 1.49740257 1.4974026 0 .82699261-.6704099 1.49740259-1.49740257 1.49740259h-8.98441557c-.82699262 0-1.4974026-.67040998-1.4974026-1.49740259 0-.82699262.67040998-1.4974026 1.4974026-1.4974026z" transform="matrix(-.70710678 -.70710678 .70710678 -.70710678 5.294118 12.781131)"/></g></svg>