<svg enable-background="new 0 0 122 215" viewBox="0 0 122 215" xmlns="http://www.w3.org/2000/svg"><path clip-rule="evenodd" d="m15.8 13.5-.2-.4s20.9-5.1 21.2-5.1c.3-.1 3.6.9 3.6.9l-21.6 5.6z" fill="#344758" fill-rule="evenodd"/><path clip-rule="evenodd" d="m18.6 17.4 21.8-6.1v-2.4l-22.2 5.8z" fill="#131824" fill-rule="evenodd"/><path clip-rule="evenodd" d="m29.7 28.6 8.5 2.8c.1 0 2.5 1 2.5 1.1l-11.7 66.9c0 .2-4.3.9-4.3.8l-4.9-4.1c-.1-.1-.2-.2-.2-.4l9.9-66.8c0-.2.1-.3.2-.3z" fill="#0a3847" fill-rule="evenodd"/><path clip-rule="evenodd" d="m36.3 37.4 49 21-7.6 57.2-49.1-21z" fill="#f36d00" fill-rule="evenodd"/><path clip-rule="evenodd" d="m81.9 70.2-3 22c-2.3-3.4-3.5-8.2-2.9-12.9.7-4.7 3-8 5.9-9.1z" fill="#e84909" fill-rule="evenodd"/><path clip-rule="evenodd" d="m41.6 49.2 32.3 13.8c1.2.5 2 2.5 1.8 4.4l-3.7 27.5c-.3 1.9-1.5 3-2.7 2.5l-32.3-13.9c-1.2-.5-2-2.5-1.8-4.4l3.7-27.4c.2-1.9 1.4-3 2.7-2.5z" fill="#0a3847" fill-rule="evenodd"/><path clip-rule="evenodd" d="m75.1 64.3c.5.9.7 2 .5 3.2l-3.6 27.4c-.3 1.9-1.5 3-2.7 2.5l-32.3-13.9c-.7-.3-1.2-1-1.5-1.9z" fill="#0a3847" fill-rule="evenodd"/><path clip-rule="evenodd" d="m42.7 51.2 29.6 12.7c1.1.5 1.9 2.3 1.6 4l-3.4 25.2c-.2 1.7-1.3 2.7-2.5 2.3l-29.6-12.7c-1.1-.5-1.9-2.3-1.6-4l3.4-25.2c.3-1.8 1.4-2.8 2.5-2.3z" fill-rule="evenodd"/><path clip-rule="evenodd" d="m43.8 53 27.1 11.6c1 .4 1.7 2.1 1.5 3.7l-3.1 23c-.2 1.6-1.2 2.5-2.3 2.1l-27.1-11.6c-1-.4-1.7-2.1-1.5-3.7l3.1-23c.2-1.6 1.3-2.6 2.3-2.1z" fill="#241512" fill-rule="evenodd"/><path clip-rule="evenodd" d="m62.2 60.9 7.5 3.2-25.1 19.6-4.6-2c-1-.4-1.7-2.1-1.5-3.7l.1-.4z" fill="#332423" fill-rule="evenodd"/><path clip-rule="evenodd" d="m86.7 59-.5 4.3-3.3-1.4.5-4.3z" fill="#0f121c" fill-rule="evenodd"/><path d="m43.4 61.2-1.1 12.4 2.9 1.4 2-5.2.8 6.5 2.7.7 2.2-12-2.6-1.2-1.1 6.7-.4-5.5-1.8-.7-1.7 4.8.8-7z" fill="#f36d00"/><path d="m54 65.7-1.6 12.4 2.9 1 1.6-12.4z" fill="#f36d00"/><path d="m65.4 70.4-2.6-1.1-.6 4-1.5-4.9-2.5-.7-1.5 11.9 2.5 1.1 1-7 1.4 4.1-.5 3.8 2.6 1.1z" fill="#f36d00"/><path d="m65.6 80.4-.4 3.3 2.6 1 .5-3.3z" fill="#f36d00"/><path clip-rule="evenodd" d="m43.5 74.1 1.7.8 1.1-2.8zm3.9-2.8.6 4.9 2.6.7 1.7-9.2-3 2.1-.1.5v-.5zm15.5-1.9-.2.1v-.2zm-1.5 1.2-3.9 3.1.8-6 2.5.7zm-5.6 4.3-3.3 2.6 1.4-10.7 1.1-.8 1.9.7z" fill="#f36d00" fill-rule="evenodd"/><path d="m66.1 75.4-.3 3.6v.3l.2.1 2.2.8.2.1v-.2l.7-3.4.6-4.2v-.3l-.2-.1-2.7-1-.2-.1v.3zm-22.6-13.8-1 11.8 2.5 1.2 2-5 .3-.7.1.8.8 6.3 2.3.7 2.1-11.5-2.1-1-1.1 6.4-.3 1.6-.1-1.7-.4-5.4-1.5-.6-1.6 4.6-.6 1.7.2-1.9.8-6.7zm-1.4 11.9 1-12.4v-.3l.2.1 2.7.9.2.1v.3l-.6 5.1 1.1-3.1.1-.2h.2l1.8.7.1.1v.2l.3 3.9.8-5.1v-.3l.2.1 2.5 1.2.2.1-.1.3-2.2 12v.2h-.2l-2.6-.7h-.1v-.2l-.7-5.7-1.8 4.5-.1.2-.1-.1-2.9-1.4-.2-.1zm12.1-7.5-1.5 11.9 2.4.8 1.5-11.8zm-2 12.1 1.6-12.5v-.3l.2.1 2.9 1.1.2.1v.3l-1.6 12.4v.3l-.2-.1-2.8-.9-.2-.1zm13-7.5-2.3-.9-.5 3.7-.1.9-.3-.8-1.5-4.8-2.2-.6-1.5 11.4 2.1 1 1-6.7.1-.8.3.8 1.4 4.1v.1.1l-.4 3.5 2.2.9zm-2.4-1.6 2.7 1.1.2.1v.3l-1.7 12.2v.3l-.2-.1-2.6-1-.2-.1v-.3l.4-3.7-1.1-3.3-.9 6.2v.3l-.2-.1-2.5-1.1-.2-.1v-.3l1.5-11.9v-.3l.2.1 2.5.7h.1v.2l1.3 4.1.4-3.1v-.3zm3 11.7-.3 2.8 2.2.9.4-2.7zm-.7 2.9.4-3.3v-.3l.2.1 2.7 1 .2.1v.3l-.5 3.3v.3l-.2-.1-2.6-1-.2-.1z" fill="#fff"/><path d="m73.4 52.1v-.1zm.2-1.7v-.1z" fill="#f60"/><path clip-rule="evenodd" d="m18.8 17.1 21.6-5.8 52.7 21.4-24.2 5.8z" fill="#344758" fill-rule="evenodd"/><path clip-rule="evenodd" d="m29.2 94.3 48.8 20.2c1.3.5 2.4 2.8 2.3 5l-3.8 86.3c-.1 2.2-2.3 4.9-3.6 4.3l-46.8-24.2c-1.3-.7-2.4-2.8-2.3-5l2.8-83.6c.1-2.2 1.3-3.5 2.6-3z" fill="#0f121a" fill-rule="evenodd"/><path clip-rule="evenodd" d="m8.9 101.8 67.9 12.6c1.3.3 2.2 2.7 2.2 4.8l-2.7 79.8c-.1 2.1-1.2 3.4-2.4 2.9l-46.6-19.3c-1.3-.5-1.7-2.7-2.2-4.8l-17.2-74.4c-.5-2.1-.3-1.9 1-1.6z" fill="#0a3847" fill-rule="evenodd"/><path clip-rule="evenodd" d="m30.6 35.2 49.7 20.6.9 2-11.3-.3-40.6-16.4z" fill="#0a3847" fill-rule="evenodd"/><path clip-rule="evenodd" d="m28.1 31 2.2 1.2c.1.1.2.2.2.4l-9.5 67.8c0 .2-.1.4-.2.3l-1.4-3.1c-.1-.1-.2-.2-.2-.4l.9-4.8 7.8-61.1c.1-.2.1-.3.2-.3z" fill="#1c2432" fill-rule="evenodd"/><path d="m26.3 133.5 17 8.4c1.2.6 2.3 1.7 3.3 3.1.9 1.4 1.7 3 2 4.5l2.3 12.8c.3 1.5.1 2.7-.5 3.3s-1.5.7-2.7.2l-17-8.4c-1.2-.6-2.3-1.7-3.3-3.1-.9-1.4-1.7-3-2-4.5l-2.3-12.8c-.3-1.5-.1-2.7.5-3.3.6-.7 1.6-.8 2.7-.2zm17.2 9.9-17-8.4c-.8-.4-1.5-.3-1.9.1-.4.5-.6 1.3-.4 2.4l2.3 12.8c.2 1.1.7 2.3 1.4 3.3s1.5 1.8 2.4 2.2l17 8.4c.8.4 1.5.3 1.9-.1.4-.5.6-1.3.4-2.4l-2.3-12.8c-.2-1.1-.7-2.3-1.4-3.3s-1.5-1.8-2.4-2.2z" fill="#0f121c"/><path clip-rule="evenodd" d="m27.3 141c.7.4 1.5 1.4 1.7 2.4l.7 3.9c.2 1-.3 1.5-1 1.1-.7-.4-1.5-1.4-1.7-2.4l-.7-3.9c-.2-1 .3-1.5 1-1.1z" fill="#f36d00" fill-rule="evenodd"/><path clip-rule="evenodd" d="m28.1 143.5.5 2.8c.1.6-.6.3-.7-.4l-.5-2.8c-.1-.6.6-.3.7.4z" fill="#0f121c" fill-rule="evenodd"/><path clip-rule="evenodd" d="m18.7 18.5 49.8 20.6-.5 13.8-49.8-20.6z" fill="#205e9b" fill-rule="evenodd"/><path clip-rule="evenodd" d="m16.6 17.7.1-1.5 52.2 21.6v1.5z" fill="#1c2432" fill-rule="evenodd"/><g fill="#1574f5"><path d="m18.6 19.9.4-.5-.1 1.1.8.7h-.8v1.1l-.3-.8z"/><path d="m20.9 22h-.8l.5-.7-.4-1.1.8.7.5-.7-.1 1.1.8.7h-.8v1.1z"/><path d="m23.4 23.1h-.8l.5-.7-.4-1.1.7.6.5-.6v1.1l.8.6-.8.1-.1 1.1z"/><path d="m25.9 24.1h-.8l.5-.7-.5-1.1.8.7.5-.7v1.1l.7.7h-.8v1.1z"/><path d="m28.3 25.2h-.8l.6-.7-.5-1.1.8.7.5-.7v1.1l.7.7h-.8v1.1z"/><path d="m30.8 26.2h-.8l.5-.7-.4-1.1.8.7.5-.7-.1 1.1.8.7h-.8v1.1z"/><path d="m33.3 27.3h-.8l.5-.7-.4-1.1.7.7.5-.7v1.1l.8.7h-.8l-.1 1.1z"/><path d="m35.8 28.3-.8.1.5-.7-.5-1.2.8.7.5-.7v1.1l.7.7h-.8v1.2z"/><path d="m38.2 29.4h-.8l.6-.7-.5-1.1.8.7.5-.7v1.1l.7.7h-.8v1.1z"/><path d="m40.7 30.5h-.8l.5-.7-.4-1.1.8.6.5-.7-.1 1.2.8.6h-.8v1.2z"/><path d="m43.2 31.5h-.8l.5-.7-.4-1.1.7.7.5-.7v1.1l.8.7h-.8l-.1 1.1z"/><path d="m45.7 32.6h-.8l.5-.7-.5-1.1.8.6.5-.7v1.2l.7.6-.8.1v1.1z"/><path d="m48.1 33.6h-.8l.6-.7-.5-1.1.8.7.5-.7v1.1l.7.7h-.8v1.1z"/><path d="m50.6 34.7h-.8l.5-.7-.4-1.1.8.6.5-.6-.1 1.1.8.6-.8.1v1.1z"/><path d="m53.1 35.7h-.8l.5-.7-.4-1.1.7.7.5-.7v1.1l.8.7h-.8l-.1 1.1z"/><path d="m55.6 36.8h-.8l.5-.7-.5-1.1.8.7.5-.7v1.1l.7.7h-.8v1.1z"/><path d="m58 37.8h-.8l.6-.7-.5-1.1.8.7.5-.7v1.1l.7.7h-.8v1.1z"/><path d="m60.5 38.9h-.8l.5-.7-.4-1.1.8.7.5-.7-.1 1.1.8.7h-.8v1.1z"/><path d="m63 39.9-.8.1.5-.7-.4-1.2.7.7.5-.7v1.1l.8.7h-.8l-.1 1.2z"/><path d="m65.5 41h-.8l.5-.7-.5-1.1.8.7.5-.7v1.1l.7.7h-.8v1.1z"/><path d="m67.9 42.1h-.8l.6-.7-.5-1.1.8.6.4-.6-.1 2.7z"/><path d="m19.6 23.8h-.8l.5-.7-.4-1.1.7.7.5-.7v1.1l.8.7h-.8l-.1 1.1z"/><path d="m22.1 24.9h-.8l.5-.7-.5-1.1.8.6.5-.6v1.1l.7.6-.8.1v1.1z"/><path d="m24.5 25.9h-.8l.6-.7-.5-1.1.8.7.5-.7-.1 1.1.8.7h-.8v1.1z"/><path d="m27 27h-.8l.5-.7-.4-1.1.7.7.6-.7-.1 1.1.8.7h-.8l-.1 1.1z"/><path d="m29.5 28h-.8l.5-.7-.4-1.1.7.7.5-.7v1.1l.8.7h-.8l-.1 1.1z"/><path d="m32 29.1h-.8l.5-.7-.5-1.1.8.7.5-.7v1.1l.7.7h-.8v1.1z"/><path d="m34.4 30.1-.8.1.6-.7-.5-1.2.8.7.5-.7-.1 1.1.8.7h-.8v1.2z"/><path d="m36.9 31.2h-.8l.5-.7-.4-1.1.7.7.6-.7-.1 1.1.8.7h-.8l-.1 1.1z"/><path d="m39.4 32.3h-.8l.5-.7-.4-1.1.7.6.5-.7v1.2l.8.6h-.8l-.1 1.2z"/><path d="m41.9 33.3h-.8l.5-.7-.5-1.1.8.7.5-.7v1.1l.7.7h-.8v1.1z"/><path d="m44.3 34.4h-.8l.6-.7-.5-1.1.8.6.5-.7-.1 1.2.8.6-.8.1v1.1z"/><path d="m46.8 35.4h-.8l.5-.7-.4-1.1.7.7.6-.7-.1 1.1.8.7h-.8l-.1 1.1z"/><path d="m49.3 36.5h-.8l.5-.7-.4-1.1.7.6.5-.6v1.1l.8.6-.8.1-.1 1.1z"/><path d="m51.8 37.5h-.8l.5-.7-.5-1.1.8.7.5-.7v1.1l.7.7h-.8v1.1z"/><path d="m54.2 38.6h-.8l.6-.7-.5-1.1.8.7.5-.7-.1 1.1.8.7h-.8v1.1z"/><path d="m56.7 39.6h-.8l.5-.7-.4-1.1.7.7.6-.7-.1 1.1.8.7h-.8l-.1 1.1z"/><path d="m59.2 40.7h-.8l.5-.7-.4-1.1.7.7.5-.7v1.1l.8.7h-.8l-.1 1.1z"/><path d="m61.7 41.7-.8.1.5-.7-.5-1.2.8.7.5-.7v1.1l.7.7h-.8v1.2z"/><path d="m64.1 42.8h-.8l.6-.7-.5-1.1.8.7.5-.7-.1 1.1.8.7h-.8v1.1z"/><path d="m66.6 43.9h-.8l.5-.7-.4-1.1.7.6.6-.7-.1 1.2.8.6h-.8l-.1 1.2z"/><path d="m19.8 19.4h-.8l.3-.4.9.5v1z"/><path d="m22.2 20.2h-.7l.3-.4.9.4v1.1z"/><path d="m24.7 21.3h-.8l.4-.5 1 .5h-.1v1.1z"/><path d="m27.2 22.3h-.8l.3-.4 1.1.4h-.1l-.1 1.1z"/><path d="m29.7 23.4h-.8l.3-.5 1.2.5h-.2l-.1 1.1z"/><path d="m32.1 24.4h-.7l.3-.5 1.2.5h-.3v1.1z"/><path d="m34.6 25.5h-.8l.4-.5 1.3.5h-.4v1.1z"/><path d="m37.1 26.5-.8.1.4-.6 1.3.5h-.4l-.1 1.1z"/><path d="m39.6 27.6h-.8l.4-.6 1.4.6h-.5l-.1 1.1z"/><path d="m42 28.6-.7.1.4-.6 1.4.5h-.6v1.2z"/><path d="m44.5 29.7h-.8l.5-.6 1.4.6h-.6v1.1z"/><path d="m47 30.8h-.8l.5-.7 1.5.6h-.7l-.1 1.2z"/><path d="m49.5 31.8h-.8l.5-.7 1.5.7h-.7l-.1 1.1z"/><path d="m51.9 32.9h-.7l.5-.7 1.5.6-.8.1v1.1z"/><path d="m54.4 33.9h-.8l.5-.7 1.5.6.1.1h-.8v1.1z"/><path d="m56.9 35h-.8l.5-.7v-.1l1.4.6.2.2h-.8l-.1 1.1z"/><path d="m59.4 36h-.8l.5-.7-.1-.1 1.4.6.2.2h-.7l-.1 1.1z"/><path d="m61.8 37.1h-.7l.5-.7-.1-.2 1.3.6.3.3h-.8v1.1z"/><path d="m64.3 38.1-.8.1.5-.7v-.2l1.2.5.4.3h-.8v1.1z"/><path d="m66.8 39.2h-.8l.5-.7-.1-.2 1.2.5.5.4h-.8l-.1 1.1z"/><path d="m19.3 28.5h-.8l.5-.7-.4-1.1.8.6.5-.7-.1 1.2.8.6-.8.1v1.1z"/><path d="m21.8 29.5h-.8l.5-.7-.4-1.1.7.7.6-.7-.1 1.1.8.7h-.8l-.1 1.1z"/><path d="m24.3 30.6h-.8l.5-.7-.4-1.1.7.6.5-.7v1.2l.7.6-.7.1-.1 1.1z"/><path d="m26.7 31.6h-.7l.5-.7-.5-1.1.8.7.5-.7v1.1l.7.7h-.8v1.1z"/><path d="m29.2 32.7h-.8l.5-.7-.4-1.1.8.7.5-.7-.1 1.1.8.7h-.8v1.1z"/><path d="m31.7 33.7h-.8l.5-.7-.4-1.1.7.7.6-.7-.1 1.1.8.7h-.8l-.1 1.1z"/><path d="m34.2 34.8h-.8l.5-.7-.4-1.1.7.7.5-.7v1.1l.7.7h-.7l-.1 1.1z"/><path d="m36.6 35.8-.7.1.5-.7-.5-1.2.8.7.5-.7v1.1l.7.7h-.8v1.2z"/><path d="m39.1 36.9h-.8l.5-.7-.4-1.1.8.7.5-.7-.1 1.1.8.7h-.8v1.1z"/><path d="m41.6 37.9-.8.1.5-.7-.4-1.1.7.6.6-.7-.1 1.2.8.6h-.8l-.1 1.2z"/><path d="m44.1 39h-.8l.5-.7-.4-1.1.7.7.5-.7v1.1l.7.7h-.7l-.1 1.1z"/><path d="m46.5 40.1h-.7l.5-.7-.5-1.1.8.6.5-.7v1.2l.7.6-.8.1v1.1z"/><path d="m49 41.1h-.8l.5-.7-.4-1.1.8.7.5-.7-.1 1.1.8.7h-.8v1.1z"/><path d="m51.5 42.2h-.8l.5-.7-.4-1.1.7.6.6-.7-.1 1.2.8.6-.8.1-.1 1.1z"/><path d="m54 43.2h-.8l.5-.7-.4-1.1.7.7.5-.7v1.1l.7.7h-.7l-.1 1.1z"/><path d="m56.4 44.3h-.7l.5-.7-.5-1.1.8.7.5-.7v1.1l.7.7h-.8v1.1z"/><path d="m58.9 45.3h-.8l.5-.7-.4-1.1.8.7.5-.7-.1 1.1.8.7h-.8v1.1z"/><path d="m61.4 46.4h-.8l.5-.7-.4-1.1.7.7.6-.7-.1 1.1.8.7h-.8l-.1 1.1z"/><path d="m63.9 47.4-.8.1.5-.7-.4-1.2.7.7.5-.7v1.1l.7.7h-.7l-.1 1.2z"/><path d="m66.3 48.5h-.7l.5-.7-.5-1.1.8.7.5-.7v1.1l.7.7h-.8v1.1z"/><path d="m18.3 29 .2-.3v1.1l.8.7h-.8l-.1 1.1-.2-.4z"/><path d="m20.5 31.3h-.8l.5-.7-.5-1.1.8.7.5-.7v1.1l.7.7h-.8v1.1z"/><path d="m22.9 32.4h-.8l.6-.7-.5-1.1.8.6.5-.7v1.2l.7.6-.8.1v1.1z"/><path d="m25.4 33.4h-.8l.5-.7-.4-1.1.8.7.5-.7-.1 1.1.8.7h-.8v1.1z"/><path d="m27.9 34.5h-.8l.5-.7-.4-1.1.7.7.5-.7v1.1l.8.7h-.8l-.1 1.1z"/><path d="m30.4 35.5h-.8l.5-.7-.5-1.1.8.7.5-.7v1.1l.7.7h-.8v1.1z"/><path d="m32.8 36.6h-.8l.6-.7-.5-1.1.8.7.5-.7v1.1l.7.7h-.8v1.1z"/><path d="m35.3 37.6-.8.1.5-.7-.4-1.2.8.7.5-.7-.1 1.1.8.7h-.8v1.2z"/><path d="m37.8 38.7h-.8l.5-.7-.4-1.1.7.7.5-.7v1.1l.8.7h-.8l-.1 1.1z"/><path d="m40.3 39.8h-.8l.5-.7-.5-1.1.8.6.5-.7v1.2l.7.6h-.8v1.2z"/><path d="m42.7 40.8h-.8l.6-.7-.5-1.1.8.7.5-.7v1.1l.7.7h-.8v1.1z"/><path d="m45.2 41.9h-.8l.5-.7-.4-1.1.8.6.5-.7-.1 1.2.8.6-.8.1v1.1z"/><path d="m47.7 42.9h-.8l.5-.7-.4-1.1.7.7.5-.7v1.1l.8.7h-.8l-.1 1.1z"/><path d="m50.2 44h-.8l.5-.7-.5-1.1.8.6.5-.6v1.1l.7.6-.8.1v1.1z"/><path d="m52.6 45h-.8l.6-.7-.5-1.1.8.7.5-.7v1.1l.7.7h-.8v1.1z"/><path d="m55.1 46.1h-.8l.5-.7-.4-1.1.8.7.5-.7-.1 1.1.8.7h-.8v1.1z"/><path d="m57.6 47.1h-.8l.5-.7-.4-1.1.7.7.5-.7v1.1l.8.7h-.8l-.1 1.1z"/><path d="m60.1 48.2h-.8l.5-.7-.5-1.1.8.7.5-.7v1.1l.7.7h-.8v1.1z"/><path d="m62.5 49.2-.8.1.6-.7-.5-1.2.8.7.5-.7v1.1l.7.7h-.8v1.2z"/><path d="m65 50.3h-.8l.5-.7-.4-1.1.8.7.5-.7-.1 1.1.8.7h-.8v1.1z"/><path d="m67.5 51.4h-.8l.5-.7-.4-1.1.7.6.5-.7v1.2h.1l-.1.6-.1 1.2z"/><path d="m18.5 24.4.2-.4v1.2l.7.6-.7.1-.1 1.1-.2-.6z"/><path d="m20.7 26.7h-.8l.5-.7-.5-1.1.8.6.5-.7v1.2l.7.6h-.8v1.2z"/><path d="m23.1 27.7h-.8l.6-.7-.5-1.1.8.7.5-.7-.1 1.1.8.7h-.8v1.1z"/><path d="m25.6 28.8h-.8l.5-.7-.4-1.1.7.6.6-.7-.1 1.2.8.6-.8.1-.1 1.1z"/><path d="m28.1 29.8h-.8l.5-.7-.4-1.1.7.7.5-.7v1.1l.8.7h-.8l-.1 1.1z"/><path d="m30.6 30.9h-.8l.5-.7-.5-1.1.8.7.5-.7v1.1l.7.6-.8.1v1.1z"/><path d="m33 31.9h-.8l.6-.7-.5-1.1.8.7.5-.7-.1 1.1.8.7h-.8v1.1z"/><path d="m35.5 33h-.8l.5-.7-.4-1.1.7.7.6-.7-.1 1.1.8.7h-.8l-.1 1.1z"/><path d="m38 34h-.8l.5-.6-.4-1.2.7.7.5-.7v1.1l.8.7h-.8l-.1 1.1z"/><path d="m40.5 35.1h-.8l.5-.7-.5-1.1.8.7.5-.7v1.1l.7.7h-.8v1.1z"/><path d="m42.9 36.1-.8.1.6-.7-.5-1.2.8.7.5-.7-.1 1.1.8.7h-.8v1.2z"/><path d="m45.4 37.2h-.8l.5-.7-.4-1.1.7.7.6-.7-.1 1.1.8.7h-.8l-.1 1.1z"/><path d="m47.9 38.3h-.8l.5-.7-.4-1.1.7.6.5-.7v1.2l.8.6h-.8l-.1 1.2z"/><path d="m50.4 39.3h-.8l.5-.7-.5-1.1.8.7.5-.7v1.1l.7.7h-.8v1.1z"/><path d="m52.8 40.4h-.8l.6-.7-.5-1.1.8.6.5-.7-.1 1.2.8.6-.8.1v1.1z"/><path d="m55.3 41.4h-.8l.5-.7-.4-1.1.7.7.6-.7-.1 1.1.8.7h-.8l-.1 1.1z"/><path d="m57.8 42.5h-.8l.5-.7-.4-1.1.7.7.5-.7v1.1l.8.6-.8.1-.1 1.1z"/><path d="m60.3 43.5h-.8l.5-.7-.5-1.1.8.7.5-.7v1.1l.7.7h-.8v1.1z"/><path d="m62.7 44.6h-.8l.6-.7-.5-1.1.8.7.5-.7-.1 1.1.8.7h-.8v1.1z"/><path d="m65.2 45.6-.8.1.5-.7-.4-1.2.7.7.6-.7-.1 1.1.8.7h-.8l-.1 1.1z"/><path d="m67.7 46.7h-.8l.5-.7-.4-1.1.7.7.5-.7v1.1.7l-.1 1.1z"/></g><path clip-rule="evenodd" d="m16 31.4.1-1.4 52.2 21.6v1.5z" fill="#1c2432" fill-rule="evenodd"/><path clip-rule="evenodd" d="m15.7 13.2 3 1.2c.1 0 .2.2.2.4l-.6 17.6-3.4-1.4.6-17.6c0-.2.1-.3.2-.2z" fill="#243140" fill-rule="evenodd"/><path clip-rule="evenodd" d="m68.6 35.5 3 1.2c.1 0 .2.2.2.4l-.6 16.9-3.4-1.4.6-16.9c0-.1.1-.2.2-.2z" fill="#243140" fill-rule="evenodd"/><path clip-rule="evenodd" d="m16.1 15 2 .9-.5 15-2-.9z" fill="#344758" fill-rule="evenodd"/><path clip-rule="evenodd" d="m69.1 36.8 2 .9-.5 15-2-.9z" fill="#344758" fill-rule="evenodd"/><path clip-rule="evenodd" d="m29.2 89.9c-.3 2.6-.3 3-2.4 4.5-4.7 3.2-14 7.8-18.9 10.3l45.8 21.3 24.8-14z" fill="#f36d00" fill-rule="evenodd"/><path clip-rule="evenodd" d="m29.2 89.9c-.2 1.7-.3 2.5-.9 3.2l46.1 21.1 4-2.3z" fill="#f36d00" fill-rule="evenodd"/><path clip-rule="evenodd" d="m21.5 93.6-15.2 11-2-1 15.8-11.2 1.9.7z" fill="#344758" fill-rule="evenodd"/><path clip-rule="evenodd" d="m24.2 91.3s-17.1 12.5-17.1 12.8c0 .4 1.2.5 1.2.5l13.1-7 4.1-2.3s3.1-1.5 3.1-3.3.2-2.1.2-2.1-4.7.4-4.6 1.4z" fill="#0a3847" fill-rule="evenodd"/><path clip-rule="evenodd" d="m81.5 43.3 3 1.2c.1 0 .2.2.2.4l-13 82.3c0 .2-.1.2-.2.3l-3.1 1.1c-.1 0-.2-.2-.2-.4l13.1-84.6c.1-.3.1-.4.2-.3z" fill="#1c2432" fill-rule="evenodd"/><path clip-rule="evenodd" d="m114.8 187.5-42.8 23.8-18.1-84.4 18.7-13.8 8.9-56.2-10.3-2.8.6-16.9 21.6-5.7 21.5 13.4z" fill="#0a3847" fill-rule="evenodd"/><path clip-rule="evenodd" d="m8.3 104.7-.7-1.1-1.3 1-1.3 1.4 21.4 81.7 2-.8z" fill="#0a3847" fill-rule="evenodd"/><path clip-rule="evenodd" d="m5.4 104.1-1.1-.5 19.7 82.1c.1.6 2.3 2 2.3 2l-20-83.1z" fill="#1c2432" fill-rule="evenodd"/><path clip-rule="evenodd" d="m69.2 35.8-.6-.2s20.8-5 21.1-5.1 3.7 1.1 3.7 1.1l-21.6 5.7-.1-.3z" fill="#3a5669" fill-rule="evenodd"/><path clip-rule="evenodd" d="m8.7 106.9 44.4 21 1-2.2-45.8-21z" fill="#f36d00" fill-rule="evenodd"/><path clip-rule="evenodd" d="m71.8 113.6-17.9 13.3-2-1 18.8-13.6 1.9.8z" fill="#344758" fill-rule="evenodd"/><path clip-rule="evenodd" d="m53 126.4-1.1-.5 17.4 83.6c.1.6 2.7 1.8 2.7 1.8l-18.1-84.4z" fill="#1c2432" fill-rule="evenodd"/><path clip-rule="evenodd" d="m49.8 105.1c2.7 1.1 4.2 3.2 3.4 4.8s-3.6 2-6.3.9-4.2-3.2-3.4-4.8 3.6-2 6.3-.9z" fill="#f36d00" fill-rule="evenodd"/><path clip-rule="evenodd" d="m52.8 114.1c2.7 1.1 4.2 3.2 3.4 4.8s-3.6 2-6.3.9-4.2-3.2-3.4-4.8 3.7-2 6.3-.9z" fill="#f36d00" fill-rule="evenodd"/><path clip-rule="evenodd" d="m49.7 105.2c2.5 1 4 3.1 3.2 4.6s-3.5 1.9-6 .8c-2.5-1-4-3.1-3.2-4.6s3.5-1.8 6-.8z" fill="#0f121a" fill-rule="evenodd"/><path clip-rule="evenodd" d="m52.8 114.2c2.5 1 4 3.1 3.2 4.6s-3.5 1.9-6 .8c-2.5-1-4-3.1-3.2-4.6s3.5-1.9 6-.8z" fill="#0f121a" fill-rule="evenodd"/><path clip-rule="evenodd" d="m40.8 109.2c2.7 1.1 4.2 3.2 3.4 4.8s-3.6 2-6.3.9-4.2-3.2-3.4-4.8 3.7-2 6.3-.9z" fill="#f36d00" fill-rule="evenodd"/><path clip-rule="evenodd" d="m40.8 109.3c2.5 1 4 3.1 3.2 4.6s-3.5 1.9-6 .8c-2.5-1-4-3.1-3.2-4.6.7-1.5 3.4-1.9 6-.8z" fill="#0f121a" fill-rule="evenodd"/><path clip-rule="evenodd" d="m40.7 109.2c2.3.9 3.6 2.8 2.9 4.2s-3.1 1.7-5.5.8c-2.3-.9-3.6-2.8-2.9-4.2.8-1.5 3.2-1.8 5.5-.8z" fill="#131824" fill-rule="evenodd"/><path clip-rule="evenodd" d="m49.8 105c2.3.9 3.6 2.8 2.9 4.2s-3.1 1.7-5.5.8c-2.3-.9-3.6-2.8-2.9-4.2.8-1.4 3.2-1.7 5.5-.8z" fill="#1574f5" fill-rule="evenodd"/><path clip-rule="evenodd" d="m52.8 114.1c2.3.9 3.6 2.8 2.9 4.2s-3.1 1.7-5.5.8c-2.3-.9-3.6-2.8-2.9-4.2s3.1-1.7 5.5-.8z" fill="#131824" fill-rule="evenodd"/><path clip-rule="evenodd" d="m40.8 109.1c2.3.9 3.6 2.8 2.9 4.2s-3.1 1.7-5.5.8c-2.3-.9-3.6-2.8-2.9-4.2.8-1.4 3.2-1.8 5.5-.8z" fill="#1574f5" fill-rule="evenodd"/><path clip-rule="evenodd" d="m52.8 114c2.3.9 3.6 2.8 2.9 4.2s-3.1 1.7-5.5.8c-2.3-.9-3.6-2.8-2.9-4.2s3.2-1.7 5.5-.8z" fill="#1574f5" fill-rule="evenodd"/><path clip-rule="evenodd" d="m40.8 109.2c1.9.8 3 2.3 2.4 3.4s-2.6 1.4-4.5.6-3-2.3-2.4-3.4 2.6-1.4 4.5-.6z" fill="#1574f5" fill-rule="evenodd"/><path clip-rule="evenodd" d="m49.8 105c1.9.8 3 2.3 2.4 3.4s-2.6 1.4-4.5.6-3-2.3-2.4-3.4 2.6-1.4 4.5-.6z" fill="#1574f5" fill-rule="evenodd"/><path clip-rule="evenodd" d="m52.8 113.9c1.9.8 3 2.3 2.4 3.4s-2.6 1.4-4.5.6-3-2.3-2.4-3.4 2.6-1.3 4.5-.6z" fill="#1574f5" fill-rule="evenodd"/><path clip-rule="evenodd" d="m39.9 109.3c.7.3 1.1.9.9 1.3s-1 .5-1.7.2-1.1-.9-.9-1.3 1-.5 1.7-.2z" fill="#2f9dc3" fill-rule="evenodd"/><path clip-rule="evenodd" d="m48.7 105.2c.7.3 1.1.9.9 1.3s-1 .5-1.7.2-1.1-.9-.9-1.3 1-.5 1.7-.2z" fill="#2f9dc3" fill-rule="evenodd"/><path clip-rule="evenodd" d="m51.8 114.2c.7.3 1.1.9.9 1.3s-1 .5-1.7.2-1.1-.9-.9-1.3 1-.5 1.7-.2z" fill="#2f9dc3" fill-rule="evenodd"/><path clip-rule="evenodd" d="m28.5 98.2c3 .4 5.5 1.8 6.7 3.3l.9.1-.2 1.6v.5c-.3 2.5-4.1 3.9-8.4 3.3-4.4-.6-7.7-3.2-7.4-5.6 0-.2.1-.4.1-.5l.2-1.6.9.1c1.5-1.1 4.2-1.6 7.2-1.2z" fill="#0f121a" fill-rule="evenodd"/><path clip-rule="evenodd" d="m28.7 96.7c4.4.6 7.7 3.2 7.4 5.6-.3 2.5-4.1 3.9-8.4 3.3-4.4-.6-7.7-3.2-7.4-5.6.3-2.5 4-3.9 8.4-3.3z" fill="#1c2432" fill-rule="evenodd"/><path clip-rule="evenodd" d="m28.5 98.1c2.9.4 5.2 2.1 5 3.8s-2.8 2.7-5.7 2.2c-2.9-.4-5.2-2.1-5-3.8.2-1.6 2.8-2.6 5.7-2.2z" fill="#1574f5" fill-rule="evenodd"/><path clip-rule="evenodd" d="m29.4 101.2.7-18-2-.1-.7 18-.1.1c0 .3.4.5 1 .5s1-.2 1.1-.4c0 0 0 0 0-.1z" fill="#a3bdc3" fill-rule="evenodd"/><path clip-rule="evenodd" d="m27.6 101.6c.1.1.3.1.5.1l.3-7.9h-.5z" fill="#d1dbd7" fill-rule="evenodd"/><path clip-rule="evenodd" d="m29.2 101.2.4-10.9h-.5l-.4 11.4c.3-.1.6-.2.6-.4-.1 0-.1 0-.1-.1z" fill="#525e61" fill-rule="evenodd"/><path clip-rule="evenodd" d="m29.7 94.7.1-3.7c-.3-.1-.7-.2-1.1-.2-.3 0-.6 0-.9.1l-.1 3.8c.3.1.6.1.9.1.4 0 .8 0 1.1-.1z" fill="#525e61" fill-rule="evenodd"/><path clip-rule="evenodd" d="m29 80.1c4 .2 7 3.5 6.9 7.4-.2 4-3.5 7-7.4 6.9-4-.2-7-3.5-6.9-7.4.1-4 3.5-7.1 7.4-6.9z" fill="#1574f5" fill-rule="evenodd"/><path clip-rule="evenodd" d="m28.9 80.7c2.2.1 4 1.3 5.1 3-1-.6-2.1-.9-3.3-1-3.9-.2-7.3 2.9-7.5 6.8-.4-.9-.7-1.9-.6-2.9 0-3.4 2.9-6 6.3-5.9z" fill="#1574f5" fill-rule="evenodd"/><path clip-rule="evenodd" d="m32.5 81.9c1.7 1.2 2.7 3.2 2.7 5.4-.1 3.5-3.1 6.3-6.6 6.2-2-.1-3.7-1-4.8-2.4 1 .7 2.2 1.2 3.5 1.2 3.5.1 6.5-2.6 6.6-6.2 0-1.6-.5-3.1-1.4-4.2z" fill="#1574f5" fill-rule="evenodd"/><path clip-rule="evenodd" d="m30.3 28.3 12.6 2.1 12.6 8.4.3 3.2-13.2-2-12.4-8.3z" fill="#fff" fill-rule="evenodd"/><path clip-rule="evenodd" d="m23.5 27.2 7.4 1.2-.5 1.2-.2 2.1zm8.7 1.4 10.7 1.7 10.4 6.9-.2 4.4-10.5-1.6-9.8-6.5.2.1-.1-3.1zm23.2 10.1 6.7 4.4-6.7-1.1v-.6l-1.2-.5v-.6l.8.4v-1.1l-.8-.3v-.6l1.1.4zm-23.4-5.8-.8-.6v-.4l.8.2zm-.8-2.1.1-.7.3-.7.3 1v.6zm5.6 4.4 1-.2-.6-1.6.4-.1v-2.6l-.8-.5-1.7-.6-.1 4.8 1.1.4v-1.5h.2zm-.8-4.1v1.1l.6.2v-1zm4.7 4.3.1-2.2 1 .4v-1.3l-2.1-.6-.1 4.5 2.2 1.1v-1.4zm5.7.6-.7-2.2-1-.4-.8 1.7-.2 2.7 1 .4.1-.8.8.2v1l1 .4zm-1.7.4.7.2v-.6l-.3-1-.3.7zm5.8-.5-2-.7-.1 4.7 2 .9.7-.8.2-2.7zm-1 3.1.7.2.1-2-.7-.3z" fill="#0a3847" fill-rule="evenodd"/></svg>