<svg xmlns="http://www.w3.org/2000/svg" width="146.771" height="103.947" viewBox="0 0 146.771 103.947"><path d="M157.552,18.339A162.009,162.009,0,0,0,120.828,3.994C109.722,1.254,97.448-.061,83.287,0A177.286,177.286,0,0,0,44.951,4.347C35.26,6.536,25.1,9.1,15.569,12.985a25.441,25.441,0,0,0,6.6-6.723,1.147,1.147,0,0,0-.144-1.431,1.328,1.328,0,0,0-1.576-.291A47.256,47.256,0,0,0,13.636,9.4c-1.478,1.19-3.006,2.42-4.559,3.466-.723.486-1.446.985-2.17,1.486-1.358.938-2.763,1.907-4.171,2.793a5.27,5.27,0,0,0-1.969,1.2,1.815,1.815,0,0,0-.691,2.023A2.393,2.393,0,0,0,2.11,22.131a8.618,8.618,0,0,0,2.736-.43,10.789,10.789,0,0,1,1.944-.4,51.076,51.076,0,0,1,6.147-.043l.713.036c3.1.154,6.966.345,9.557,2.029a2.015,2.015,0,0,0,1.1.343,1.99,1.99,0,0,0,1.593-.857,2.3,2.3,0,0,0-.225-3.152c-1.954-1.678-4.706-2.384-7.3-2.721,2.051-.667,4.1-1.351,6.1-2.02A216.628,216.628,0,0,1,46.172,8.5a176.029,176.029,0,0,1,37.281-4.37c14.759-.045,26.379,1.093,36.588,3.589,11.881,2.906,23.321,7.653,34.383,12.243l1.962.814a1.352,1.352,0,0,0,1.166-2.438" transform="matrix(-0.848, -0.53, 0.53, -0.848, 134.229, 103.947)" fill="#8701fc"/></svg>