<svg xmlns="http://www.w3.org/2000/svg" width="1271" height="649" viewBox="0 0 1271 649"><path d="M635.506,649C367.874,649,127.878,572.691,38.3,459.1,12.807,426.792-.068,392.384,0,356.842.364,202.387,262.171,74.359,596.04,65.373h.25c6.165,0,11.218,6.216,11.354,14.039.136,7.938-4.848,14.5-11.115,14.67-310.73,8.354-573.5,128.732-573.82,262.846-.068,27.632,10.593,55.193,31.666,81.907,85.6,108.535,319.144,181.456,581.132,181.456,332.166,0,612.787-120.621,612.787-263.406,0-33.044-24.138-76.84-66.238-120.133C974.1,22.855,604.873-2.438,349.833,64.526,343.691,66.076,337.7,61.153,336.4,53.4c-1.272-7.766,2.679-15.374,8.822-16.981,426.335-112.008,735.635,59.227,851.159,178.054C1244.5,263.968,1271,314.554,1271,356.885,1271,520.685,991.856,649,635.506,649" transform="translate(1271 649) rotate(180)" fill="#1c2636"/></svg>