<svg xmlns="http://www.w3.org/2000/svg" width="1288.486" height="1534" viewBox="0 0 1288.486 1534"><path d="M41.22,493.766C13.785,459.015-.073,422.009,0,383.784.392,217.668,282.179,79.973,641.529,70.309h.269c6.636,0,12.074,6.685,12.22,15.1.147,8.537-5.218,15.593-11.964,15.778C307.61,110.171,24.783,239.636,24.441,383.876c-.073,29.719,11.4,59.36,34.082,88.091,92.129,116.729,343.5,195.156,625.483,195.156,357.517,0,659.553-129.728,659.553-283.293,0-35.539-25.98-82.641-71.293-129.2C1048.44,24.58,651.036-2.622,376.532,69.4c-6.611,1.667-13.064-3.628-14.457-11.965-1.369-8.352,2.884-16.534,9.5-18.264,458.872-120.465,791.777,63.7,916.118,191.5C1339.478,283.9,1368,338.3,1368,383.83,1368,560,1067.552,698,684.007,698,395.95,698,137.638,615.93,41.22,493.766Z" transform="translate(604.486 0) rotate(60)" fill="#757575" opacity="0.1"/></svg>