<svg xmlns="http://www.w3.org/2000/svg" width="30" height="28.693" viewBox="0 0 30 28.693"><path d="M15,0A14.856,14.856,0,0,0,0,14.711,14.738,14.738,0,0,0,10.256,28.668c.75.138,1.025-.317,1.025-.707,0-.349-.012-1.275-.019-2.5-4.172.887-5.052-1.974-5.052-1.974a3.924,3.924,0,0,0-1.669-2.152c-1.359-.912.1-.893.1-.893a3.137,3.137,0,0,1,2.3,1.516,3.234,3.234,0,0,0,4.369,1.224,3.112,3.112,0,0,1,.95-1.967C8.931,20.845,5.43,19.58,5.43,13.943A5.614,5.614,0,0,1,6.974,10,5.137,5.137,0,0,1,7.105,6.1s1.256-.394,4.125,1.508a14.41,14.41,0,0,1,7.5,0c2.85-1.9,4.106-1.508,4.106-1.508A5.279,5.279,0,0,1,22.986,10a5.637,5.637,0,0,1,1.538,3.947c0,5.651-3.506,6.895-6.844,7.257a3.487,3.487,0,0,1,1.012,2.722c0,1.969-.019,3.55-.019,4.028,0,.385.263.846,1.031.7A14.694,14.694,0,0,0,30,14.711,14.858,14.858,0,0,0,15,0Z" fill="#8701fc"/></svg>