<svg xmlns="http://www.w3.org/2000/svg" width="30" height="29" viewBox="0 0 30 29"><path d="M15,0A14.894,14.894,0,0,0,0,14.789,14.808,14.808,0,0,0,10.256,28.821c.75.139,1.025-.319,1.025-.711,0-.351-.012-1.282-.019-2.515-4.172.892-5.052-1.984-5.052-1.984a3.938,3.938,0,0,0-1.669-2.163c-1.359-.917.1-.9.1-.9a3.139,3.139,0,0,1,2.3,1.524,3.224,3.224,0,0,0,4.369,1.23,3.135,3.135,0,0,1,.95-1.978c-3.331-.37-6.832-1.642-6.832-7.308A5.66,5.66,0,0,1,6.974,10.05a5.19,5.19,0,0,1,.131-3.914s1.256-.4,4.125,1.516a14.336,14.336,0,0,1,7.5,0c2.85-1.913,4.106-1.516,4.106-1.516a5.334,5.334,0,0,1,.15,3.914,5.683,5.683,0,0,1,1.538,3.968c0,5.681-3.506,6.932-6.844,7.3a3.515,3.515,0,0,1,1.012,2.737c0,1.979-.019,3.569-.019,4.05,0,.388.263.85,1.031.7A14.763,14.763,0,0,0,30,14.789,14.9,14.9,0,0,0,15,0Z" fill="#8701FC"/></svg>