<svg height="30" viewBox="0 0 30 30" width="30" xmlns="http://www.w3.org/2000/svg"><path d="m15 0c-8.28300475 0-15 6.71699525-15 15 0 8.2830047 6.71699525 15 15 15 8.2830047 0 15-6.7169953 15-15 0-8.28300475-6.7169953-15-15-15zm-4.3588257 22.6757812h-3.65318295v-10.9906768h3.65318295zm-1.82647703-12.491455h-.02380372c-1.22589111 0-2.01873779-.84388737-2.01873779-1.89857487 0-1.07849121.81710819-1.89903258 2.06680295-1.89903258 1.24969489 0 2.01873789.82054137 2.04254159 1.89903258 0 1.0546875-.7928467 1.89857487-2.06680303 1.89857487zm14.99908443 12.491455h-3.6527252v-5.8797454c0-1.4776612-.5289459-2.4854279-1.8507385-2.4854279-1.00914 0-1.6101837.6797791-1.8743134 1.3359833-.0965881.2348328-.1201629.5630493-.1201629.8914947v6.1376953h-3.6529541s.0478363-9.9595641 0-10.9906768h3.6529541v1.5561676c.4854584-.7489014 1.3540649-1.8141174 3.2922363-1.8141174 2.4034881 0 4.2057037 1.570816 4.2057037 4.9465941z" fill="#8701fc"/></svg>