<svg xmlns="http://www.w3.org/2000/svg" xmlns:xlink="http://www.w3.org/1999/xlink" width="157.002" height="53.181" viewBox="0 0 157.002 53.181"><defs><clipPath id="a"><path d="M0,0H12.4V13.2H0Z" fill="none"/></clipPath></defs><path d="M5.247,53.181a5.272,5.272,0,0,1-1.472-.211,5.242,5.242,0,0,1-3.562-6.5L9.945,13.159a5.242,5.242,0,0,1,5.011-3.772h.021A5.243,5.243,0,0,1,20,13.118l2.128,7.07,4.8-16.418A5.243,5.243,0,0,1,31.941,0h.019a5.242,5.242,0,0,1,5.021,3.734L44.17,27.655a5.245,5.245,0,0,1-5.022,6.753,5.277,5.277,0,0,1-3.1-1.016,5.2,5.2,0,0,1-1.92-2.719l-2.1-6.99-4.8,16.4a5.243,5.243,0,0,1-5.011,3.77H22.2a5.243,5.243,0,0,1-5.02-3.732l-2.125-7.059L10.277,49.407a5.2,5.2,0,0,1-1.915,2.745,5.28,5.28,0,0,1-3.115,1.028" fill="#00e39c"/><path d="M16.726,0a1.528,1.528,0,0,0-1.381.847L9.221,13.436,2.925.823A1.519,1.519,0,0,0,1.555,0a1.533,1.533,0,0,0-1.1.434A1.5,1.5,0,0,0,0,1.555V16.7a1.509,1.509,0,0,0,.45,1.105,1.509,1.509,0,0,0,1.1.45,1.509,1.509,0,0,0,1.1-.45A1.508,1.508,0,0,0,3.11,16.7V7.448l4.6,9.225a1.508,1.508,0,0,0,1.427.915,1.55,1.55,0,0,0,1.335-.759l4.7-9.563V16.7a1.554,1.554,0,0,0,2.644,1.11,1.489,1.489,0,0,0,.466-1.11V1.555A1.5,1.5,0,0,0,17.827.434,1.533,1.533,0,0,0,16.726,0" transform="translate(53.687 16.23)" fill="#273245"/><path d="M6.12,13.2a5.8,5.8,0,0,1-3.14-.877A6.2,6.2,0,0,1,.8,9.964,7.007,7.007,0,0,1,0,6.612,6.633,6.633,0,0,1,.869,3.239,6.449,6.449,0,0,1,3.227.87,6.533,6.533,0,0,1,6.567,0a6.414,6.414,0,0,1,5.676,3.239,6.633,6.633,0,0,1,.869,3.373V11.6A1.548,1.548,0,0,1,10.486,12.7a1.472,1.472,0,0,1-.435-.963,6.112,6.112,0,0,1-.792.592A5.8,5.8,0,0,1,6.12,13.2ZM6.567,2.8a3.467,3.467,0,0,0-1.822.492A3.58,3.58,0,0,0,3.453,4.642a4.023,4.023,0,0,0-.478,1.97A3.972,3.972,0,0,0,3.453,8.56,3.569,3.569,0,0,0,4.745,9.913a3.463,3.463,0,0,0,1.822.491A3.446,3.446,0,0,0,8.4,9.914a3.526,3.526,0,0,0,1.27-1.352,4.042,4.042,0,0,0,.468-1.95A4.1,4.1,0,0,0,9.669,4.64,3.539,3.539,0,0,0,8.4,3.288,3.454,3.454,0,0,0,6.567,2.8Z" transform="translate(75.93 21.376)" fill="#273245"/><path d="M8.607.5A4,4,0,0,0,6.388,0,5.359,5.359,0,0,0,3.735.677a5.466,5.466,0,0,0-.761.514A1.317,1.317,0,0,0,2.626.528,1.517,1.517,0,0,0,1.51.134,1.5,1.5,0,0,0,.406.54,1.5,1.5,0,0,0,0,1.645v10a1.488,1.488,0,0,0,.41,1.121,1.523,1.523,0,0,0,1.1.39,1.491,1.491,0,0,0,1.121-.411,1.527,1.527,0,0,0,.389-1.1V5.113a1.93,1.93,0,0,1,.548-1.425,3.115,3.115,0,0,1,1.6-.809,5.888,5.888,0,0,1,2.4.044,1.738,1.738,0,0,0,.7.026,1.271,1.271,0,0,0,.625-.3,1.227,1.227,0,0,0,.378-.677A1.285,1.285,0,0,0,8.607.5" transform="translate(92.779 21.332)" fill="#273245"/><path d="M4.307,15.238H3.748c-.124,0-.29-.039-.468-.343a2.311,2.311,0,0,1-.26-1.168V1.51A1.464,1.464,0,0,0,1.51,0,1.464,1.464,0,0,0,0,1.51V13.728a5.484,5.484,0,0,0,.461,2.3,3.959,3.959,0,0,0,1.316,1.623,3.349,3.349,0,0,0,1.971.609h.045a2.185,2.185,0,0,0,1.328-.39,1.353,1.353,0,0,0,.585-1.121,1.549,1.549,0,0,0-.379-1.067,1.329,1.329,0,0,0-1.019-.443" transform="translate(104.325 16.23)" fill="#273245"/><path d="M6.567,13.2a6.741,6.741,0,0,1-3.395-.847A6.166,6.166,0,0,1,.845,10.017,6.8,6.8,0,0,1,0,6.612,6.848,6.848,0,0,1,.845,3.186,6.175,6.175,0,0,1,3.172.846,6.746,6.746,0,0,1,6.567,0,6.694,6.694,0,0,1,9.939.846a6.172,6.172,0,0,1,2.328,2.34,6.844,6.844,0,0,1,.846,3.426,6.872,6.872,0,0,1-.833,3.4,6.092,6.092,0,0,1-2.318,2.342A6.741,6.741,0,0,1,6.567,13.2Zm0-10.406a3.547,3.547,0,0,0-1.857.482A3.44,3.44,0,0,0,3.443,4.617a4.143,4.143,0,0,0-.468,2A4.08,4.08,0,0,0,3.442,8.6,3.471,3.471,0,0,0,4.711,9.924a3.552,3.552,0,0,0,1.857.481,3.558,3.558,0,0,0,1.858-.481A3.391,3.391,0,0,0,9.679,8.6a4.16,4.16,0,0,0,.457-1.985,4.236,4.236,0,0,0-.458-2A3.378,3.378,0,0,0,8.424,3.279,3.547,3.547,0,0,0,6.567,2.8Z" transform="translate(111.306 21.376)" fill="#273245"/><path d="M15.044,0a1.563,1.563,0,0,0-1.537,1.3l-2.04,6.4L9.786,1.152a1.5,1.5,0,0,0-.5-.826A1.48,1.48,0,0,0,8.308,0a1.464,1.464,0,0,0-1,.332,1.661,1.661,0,0,0-.5.8l-1.925,6.5L2.864,1.3a2.042,2.042,0,0,0-.58-.975A1.446,1.446,0,0,0,1.327,0a1.174,1.174,0,0,0-1.2.672A2.147,2.147,0,0,0,.105,2.082L3.42,12.025a1.462,1.462,0,0,0,.557.714,1.563,1.563,0,0,0,1.794,0A1.345,1.345,0,0,0,6.313,12L8.23,5.24,10.058,12a1.323,1.323,0,0,0,.559.742,1.56,1.56,0,0,0,.892.281,1.5,1.5,0,0,0,.9-.288,1.349,1.349,0,0,0,.521-.718l3.309-9.928a1.79,1.79,0,0,0,0-1.44A1.234,1.234,0,0,0,15.044,0" transform="translate(126.226 21.466)" fill="#273245"/><g transform="translate(144.606 21.376)"><path d="M0,0H12.4V13.2H0Z" fill="none"/><g clip-path="url(#a)"><path d="M6.769,13.2A7.152,7.152,0,0,1,3.28,12.36,6.213,6.213,0,0,1,.87,10.021,6.66,6.66,0,0,1,0,6.612,7,7,0,0,1,.821,3.19,6.06,6.06,0,0,1,3.1.848,6.532,6.532,0,0,1,6.433,0a6.01,6.01,0,0,1,3.2.831A5.445,5.445,0,0,1,11.7,3.118a7.461,7.461,0,0,1,.7,3.293,1.34,1.34,0,0,1-.41.987,1.405,1.405,0,0,1-1.011.39H2.957a3.541,3.541,0,0,0,.347.821A3.713,3.713,0,0,0,4.7,9.986a4.124,4.124,0,0,0,2.066.509A3.884,3.884,0,0,0,8.06,10.26a4.062,4.062,0,0,0,1.07-.537,1.666,1.666,0,0,1,.95-.336H10.1a1.4,1.4,0,0,1,.93.328,1.45,1.45,0,0,1,.54,1.015,1.17,1.17,0,0,1-.511,1.027,6.582,6.582,0,0,1-2,1.045A7.176,7.176,0,0,1,6.769,13.2ZM6.433,2.708a3.706,3.706,0,0,0-1.976.5A3.189,3.189,0,0,0,3.228,4.578a4.128,4.128,0,0,0-.242.635H9.474A3.984,3.984,0,0,0,9.191,4.4,3,3,0,0,0,8.12,3.158,3.019,3.019,0,0,0,6.433,2.708Z" fill="#273245"/></g></g></svg>