<svg enable-background="new 0 0 440 467" viewBox="0 0 440 467" xmlns="http://www.w3.org/2000/svg" xmlns:xlink="http://www.w3.org/1999/xlink"><clipPath id="a"><path d="m245.8 164.2 7.7 4.2c-7.8-4.2-16.6-5.9-26-4.6l-7.7-4.2c9.4-1.3 18.2.4 26 4.6z"/></clipPath><clipPath id="b"><path d="m188.3 330-7.7-4.2c-16.6-9-28.2-29.8-29.7-57.6-2.4-45.6 23.6-93 58-105.9 3.7-1.4 7.3-2.3 10.8-2.8l7.7 4.2c-3.5.5-7.2 1.4-10.8 2.8-34.4 12.9-60.4 60.2-58 105.9 1.4 27.9 13.1 48.6 29.7 57.6z"/></clipPath><g enable-background="new"><path d="m4.8 372.9.1 16.4 126.7 73.6-.1-16.4z" fill="#201c3d"/><path d="m131.5 446.5.1 16.4 301.8-174.2-.1-16.4z" fill="#201c3d"/><path d="m433.3 272.3-65.6 37.9-63.6 36.7-29.5 17-62 35.8-81 46.8-126.8-73.6 301.7-174.2z" fill="#0a3847"/></g><path d="m56.5 159.6.6 220.7 2.1 1.2 3.3-1.9 8.3-14.9v7.7l2.1 1.2 2.8-1.6-.6-201.7 228.4-131.8.6 199.3 2.1 1.2 2.8-1.6v-12.6l8.3 5.4 2.1 1.2 3.3-1.9-.7-220.7-2.1-1.2zm5 2.8 3.9-2.3-3.9 6.5zm246.9-126.8 6.3-3.6-6.3 11.4zm.9 151.1 8.2-14.9.1 20.3zm-.1-33.7 8.2-14.9.1 20.3zm-.1-33.6 8.2-14.9.1 20.3zm-.1-33.6 8.2-14.9.1 20.3zm-.1-33.7 8.2-14.9.1 20.3zm2.2-33.8 6-3.5v6.4zm6.6 207.3-8.3-5.4 8.2-14.9zm-8.8-14.1-.1-20.3 8.3 5.4zm-.1-33.6-.1-20.3 8.3 5.4zm-.1-33.7-.1-20.3 8.3 5.4zm-.1-33.6-.1-20.3 8.3 5.4zm-.1-33.6-.1-20.3 8.3 5.4zm7.7-51.6-17.6 10.2 8.8-14.6zm-25.5 14.2-8.8-4.4 17.6-10.2zm-3.7 2.7-17.6 10.2 8.8-14.6zm-25.6 14.2-8.8-4.4 17.6-10.2zm-3.7 2.7-17.6 10.2 8.8-14.6zm-25.5 14.2-8.8-4.4 17.6-10.2zm-3.8 2.7-17.6 10.2 8.8-14.6zm-25.5 14.2-8.8-4.4 17.6-10.2zm-3.7 2.7-17.6 10.2 8.8-14.6zm-25.6 14.2-8.8-4.4 17.6-10.2zm-3.7 2.7-17.6 10.2 8.8-14.6zm-25.5 14.2-8.8-4.4 17.6-10.2zm-3.8 2.7-17.6 10.2 8.8-14.6zm-25.5 14.1-8.8-4.4 17.6-10.2zm-3.7 2.8-17.6 10.2 8.8-14.6zm-25.5 14.1-8.8-4.4 17.6-10.2zm-3.8 2.8-17.6 10.2 8.8-14.6zm-19.6 185.4 8.2-14.9v7.7 12.6zm-.1-33.6 8.2-14.9v7.7 12.6zm-.1-33.7 8.2-14.9v7.7 12.6zm-.1-33.6 8.2-14.9v7.7 12.6zm-.1-33.6 8.2-14.9v7.7 12.6zm-.1-33.6 8.3-4.8v10.1zm8.3 178-8.3 14.9v-20.3zm-8.3-18.7-.1-20.3 8.3 5.4zm-.1-33.6-.1-20.3 8.3 5.4zm-.1-33.6-.1-20.3 8.3 5.3zm-.1-33.7-.1-20.3 8.3 5.4zm-.1-33.6-.1-20.3 8.3 5.4z" fill="#d6eeeb"/><path d="m322.6 229.5-3.3 1.9-10.4-6.7v12.7l-2.8 1.6-.6-201.7-230.3 133 .6 201.7-2.8 1.6v-12.7l-10.3 18.7-3.3 1.9-.6-220.7 263.2-152zm-260.8 45.4 10.3-18.7-10.4-6.7zm257.6-174.2-10.3 18.7 10.4 6.7zm-235 61-11.1-5.5-11 18.3zm146.3-84.5-11.1-5.5-11 18.3zm-169 164.1 10.3-18.7-10.4-6.7zm95.8-134.3-22.1 12.8 11.1 5.5zm151.4 109.5 10.3-18.7-10.4-6.7zm10.4-149.4-10.3 18.7 10.4 6.7zm-10.5 115.7 10.3-18.7-10.4-6.7zm-19.6-139.3-11.1-5.5-11 18.3zm-29.3 16.8-11.1-5.5-11 18.3zm43.9-37.8-22.1 12.8 11.1 5.5zm-117 67.6-22.1 12.8 11.1 5.5zm-73.2 54.7-11.1-5.5-11 18.3zm-40.7 195.2v-12.7l-10.4 18.7 10.4 6.7zm-10.5-27.6 10.4 6.7v-12.7-12.7zm80.5-184.5-11.1-5.5-11 18.3zm131.6-88.5-22.1 12.8 11.1 5.5zm44.7-5.9-10.3 18.7 10.4 6.7zm-257.6 174.2 10.3-18.7-10.4-6.7zm257.9-73.4-10.3 18.7 10.4 6.7zm-10.8 14.9 10.3-18.7-10.4-6.7zm-.1-33.6 10.3-18.7-10.4-6.7zm-246.5 260.2 10.3-18.7-10.4-6.7zm257.5-207.8-10.3 18.7 10.4 6.7zm-257.7 140.5 10.3-18.7-10.4-6.7zm257.9-81.5-.1-25.4-10.3 18.7zm-257.8 115.2 10.3-18.7-10.4-6.7zm183.3-285.9-22.1 12.8 11.1 5.5zm73.2-29.7-11.1-5.6-11 18.3zm-102.5 46.6-22.1 12.8 11.1 5.5zm-14.6 20.9-11.1-5.5-11 18.3zm-73.2 29.8-22.1 12.8 11.1 5.5zm44-12.9-11.1-5.5-11 18.3zm-73.2 29.8-22.1 12.8 11.1 5.5zm209.5-58.8 10.3-18.7-10.4-6.7zm-246.3 163.1 10.4 6.7v-12.7-12.7zm.1 33.6 10.4 6.7v-12.7-12.7zm-.2-67.2 10.4 6.7v-12.7-12.7zm-.1-33.6 10.4 6.7v-12.7zm246.4-129.5 10.3-18.7-10.3 6zm10.8-34.8-8.2 4.8 8.3 4.1zm-257.7 157.7 8.2-13.6-8.2 4.8z" fill="#60c1d2"/><path d="m70.3 167.6.6 220.7 2.1 1.2 3.3-1.9 8.3-14.9v7.7l2.1 1.2 2.8-1.6-.5-201.8 228.2-131.8.6 199.3 2.1 1.2 2.8-1.6v-12.6l8.3 5.4 2.1 1.2 3.3-1.9-.6-220.7-2.1-1.2zm4.9 2.8 3.9-2.3-3.9 6.5zm246.9-126.8 6.3-3.6-6.3 11.4zm1 151 8.2-14.9.1 20.3zm-.1-33.6 8.2-14.9.1 20.3zm-.1-33.6 8.2-14.9.1 20.3zm-.1-33.7 8.2-14.9.1 20.3zm-.1-33.6 8.2-14.9.1 20.3zm2.2-33.8 6-3.5v6.4zm6.6 207.3-8.3-5.4 8.2-14.9zm-8.9-14.2-.1-20.3 8.3 5.4zm-.1-33.6-.1-20.3 8.3 5.4zm0-33.6-.1-20.3 8.3 5.4zm-.1-33.6-.1-20.3 8.3 5.4zm-.1-33.7-.1-20.3 8.3 5.4zm7.7-51.5-17.6 10.2 8.8-14.6zm-25.5 14.1-8.8-4.4 17.5-10.1zm-3.8 2.8-17.6 10.2 8.8-14.6zm-25.5 14.1-8.8-4.4 17.6-10.2zm-3.7 2.8-17.6 10.2 8.8-14.6zm-25.6 14.1-8.8-4.4 17.6-10.2zm-3.7 2.8-17.6 10.2 8.8-14.6zm-25.5 14.1-8.8-4.4 17.6-10.2zm-3.8 2.8-17.6 10.2 8.8-14.6zm-25.5 14.1-8.8-4.4 17.6-10.2zm-3.7 2.8-17.6 10.1 8.8-14.6zm-25.5 14.1-8.8-4.4 17.6-10.2zm-3.8 2.8-17.6 10.2 8.8-14.6zm-25.5 14.1-8.8-4.4 17.6-10.2zm-3.7 2.8-17.6 10.2 8.8-14.6zm-25.6 14.1-8.8-4.4 17.6-10.2zm-3.7 2.8-17.6 10.2 8.8-14.6zm-19.6 185.3 8.2-14.9v7.7 12.6zm-.1-33.6 8.2-14.9v7.7 12.6zm-.1-33.6 8.2-14.9v7.7 12.6zm-.1-33.6 8.2-14.9v7.7 12.6zm-.1-33.7 8.2-14.9v7.7 12.6zm-.1-33.6 8.3-4.8v10.1zm8.3 178.1-8.2 14.9-.1-20.3zm-8.4-18.7-.1-20.3 8.3 5.4zm-.1-33.7-.1-20.3 8.3 5.4zm-.1-33.6-.1-20.3 8.3 5.4zm0-33.6-.1-20.3 8.3 5.4zm-.1-33.6-.1-20.3 8.3 5.4z" fill="#d6eeeb"/><path d="m336.4 237.4-3.3 1.9-10.4-6.7v12.7l-2.8 1.6-.6-201.7-230.3 133 .6 201.8-2.8 1.6v-12.7l-10.3 18.7-3.3 1.9-.6-220.7 263.2-152.1zm-260.8 45.5 10.3-18.7-10.4-6.7zm257.6-174.2-10.3 18.7 10.4 6.7zm-235 61-11.1-5.5-11 18.3zm146.3-84.5-11.1-5.5-11 18.3zm-169 164.1 10.3-18.7-10.4-6.7zm95.8-134.4-22.1 12.8 11.1 5.5zm151.4 109.5 10.3-18.7-10.4-6.7zm10.4-149.4-10.3 18.7 10.4 6.7zm-10.5 115.8 10.3-18.7-10.4-6.7zm-19.6-139.4-11.1-5.5-11 18.3zm-29.3 16.9-11.1-5.5-11 18.3zm43.9-37.8-22.1 12.8 11.1 5.5zm-117.1 67.6-22.1 12.8 11.1 5.5zm-73.1 54.7-11.1-5.5-11 18.3zm-40.8 195.2v-12.7l-10.3 18.7 10.4 6.7zm-10.4-27.7 10.4 6.7v-12.7-12.7zm80.5-184.4-11.1-5.5-11 18.3zm131.6-88.5-22.1 12.8 11.1 5.5zm44.7-6-10.3 18.7 10.4 6.7zm-257.6 174.2 10.3-18.6-10.4-6.7zm257.9-73.3-10.3 18.7 10.4 6.7zm-10.8 14.9 10.3-18.7-10.4-6.7zm-.1-33.6 10.3-18.7-10.4-6.7zm-246.6 260.2 10.3-18.7-10.4-6.7zm257.6-207.9-10.3 18.7 10.4 6.7zm-257.7 140.6 10.3-18.7-10.4-6.7zm257.9-81.5-.1-25.4-10.3 18.7zm-257.8 115.1 10.3-18.7-10.4-6.7zm183.3-285.8-22.2 12.7 11.1 5.5zm73.1-29.8-11-5.5-11 18.3zm-102.4 46.7-22.1 12.8 11.1 5.5zm-14.6 20.9-11.1-5.5-11 18.3zm-73.2 29.7-22.1 12.8 11.1 5.5zm43.9-12.8-11.1-5.5-11 18.3zm-73.2 29.7-22.1 12.8 11.1 5.5zm209.6-58.8 10.3-18.7-10.4-6.7zm-246.3 163.2 10.4 6.7v-12.7-12.7zm.1 33.6 10.4 6.7v-12.7-12.7zm-.2-67.3 10.4 6.7v-12.7-12.7zm-.1-33.6 10.4 6.7v-12.7zm246.4-129.5 10.3-18.7-10.3 6zm10.8-34.7-8.2 4.8 8.3 4.1zm-257.7 157.7 8.2-13.6-8.2 4.8z" fill="#0a3847"/><g fill="#d6eeeb"><path d="m317.6 8.9 15.9 9.1 2.3-1.3-15.9-9.2z"/><path d="m288.6 25.6 15.9 9.2 2.3-1.3-15.9-9.2z"/><path d="m259.6 42.4 15.9 9.1 2.3-1.3-15.9-9.2z"/><path d="m230.6 59.1 15.9 9.2 2.3-1.3-15.9-9.2z"/><path d="m201.6 75.8 15.9 9.2 2.3-1.3-15.9-9.2z"/><path d="m172.6 92.6 15.9 9.2 2.2-1.4-15.8-9.1z"/><path d="m143.6 109.3 15.8 9.2 2.3-1.3-15.8-9.2z"/><path d="m114.6 126.1 15.8 9.1 2.3-1.3-15.9-9.2z"/><path d="m85.5 142.8 15.9 9.2 2.3-1.3-15.9-9.2z"/><path d="m56.5 159.6 15.9 9.1 2.3-1.3-15.9-9.2z"/><path d="m56.5 159.6 15.9 9.1v2.7l-15.9-9.2z"/><path d="m56.6 190.7 15.9 9.2v2.6l-15.9-9.1z"/><path d="m56.7 221.9 15.9 9.2v2.6l-15.9-9.2z"/><path d="m56.8 253 15.9 9.2v2.7l-15.9-9.2z"/><path d="m56.9 284.2 15.8 9.2v2.6l-15.8-9.2z"/><path d="m57 315.4 15.8 9.1v2.7l-15.8-9.2z"/><path d="m57 346.5 15.9 9.2v2.6l-15.9-9.1z"/><path d="m308.3 51.6 11 6.4v2.6l-13.3-7.7z"/><path d="m303.5 80 15.9 9.1v2.7l-15.9-9.2z"/><path d="m303.6 111.1 15.9 9.2v2.6l-15.9-9.1z"/><path d="m303.7 142.3 15.9 9.2v2.6l-15.9-9.2z"/><path d="m303.8 173.4 15.9 9.2v2.7l-15.9-9.2z"/><path d="m303.9 204.6 15.9 9.2v2.6l-15.9-9.2z"/></g><path d="m314.1 81.3-2-4.5c-.2-.6-.1-1.2.3-1.6l12-11.9c.4-.4.9-.4 1.4-.2l7.2 4.1c.3.2.5.4.6.7l2.5 6.3c.2.4.1.8-.2 1.1l-12.1 12.1c-.4.4-1 .5-1.5.2l-3.3-2z" fill="#3c3c3b"/><path d="m318.3 81c-2-2-4.1-3.1-4.8-2.4l-1.2 1.1.6.6c.3 1 1.2 2.3 2.4 3.6 1.2 1.2 2.5 2.1 3.5 2.5l.6.6 1.2-1.1c.7-.7-.3-2.9-2.3-4.9z" fill="#1d1d1b"/><path d="m317.1 82.1c2 2 3 4.2 2.3 4.9s-2.9-.4-4.8-2.4c-2-2-3-4.2-2.3-4.9s2.8.4 4.8 2.4z" fill="#1d1d1b"/><path d="m317.4 81.9c-2.3-2.3-4.8-3.6-5.6-2.8l-1.4 1.3.7.7c.3 1.1 1.3 2.7 2.8 4.2 1.4 1.5 2.9 2.5 4.1 2.9l.7.7 1.4-1.3c.8-.8-.4-3.3-2.7-5.7z" fill="#575756"/><path d="m316 83.2c2.3 2.3 3.5 4.9 2.7 5.7s-3.3-.4-5.6-2.8c-2.3-2.3-3.5-4.9-2.7-5.7.8-.7 3.3.5 5.6 2.8z" fill="#1d1d1b"/><path d="m304.7 81.3s6.5-4.1 12.1 2.3c5.2 6 1 11.6 1 11.6z" fill="#3c3c3b"/><path d="m313.1 86.2c4 4.1 6.1 8.6 4.7 10s-5.9-.8-9.9-4.9-6.1-8.6-4.7-10 5.9.8 9.9 4.9z" fill="#575756"/><path d="m303.2 81.3-1.5 1.4 14.6 14.9 1.5-1.4z" fill="#575756"/><path d="m311.6 87.6c4 4.1 6.1 8.6 4.7 10s-5.9-.8-9.9-4.9-6.1-8.6-4.7-10c1.5-1.4 5.9.8 9.9 4.9z" fill="#1d1d1b"/><path d="m321.9 81.5 1.5 4c.2.4.7.5 1 .2l10.5-10.6c.2-.2.3-.6.2-.9l-1.7-4.4c-.1-.3-.5-.4-.7-.2l-10.6 10.6c-.3.5-.4.9-.2 1.3z" fill="#040400"/><path d="m310.8 88.4c3.3 3.3 5.1 6.8 4.2 7.7-1 .9-4.4-1-7.6-4.3-3.3-3.3-5.1-6.8-4.2-7.7s4.3 1 7.6 4.3z" fill="#fff"/><path d="m247.9 86.2c-1.9-.7-2.8-2.9-2-4.7.7-1.9 2.9-2.8 4.7-2 1.9.7 2.8 2.9 2 4.7s-2.9 2.7-4.7 2z" fill="#1d1d1b"/><path d="m248 105.5c4.9 1.8 10.2.3 11.8-3.3.2-.4.3-.8.4-1.2l.2-1.1h-.1c0-3-2.5-6-6.3-7.4-4.9-1.8-10.2-.3-11.8 3.3v.1h-.1l-.2 1.1c-.8 3.3 1.7 6.9 6.1 8.5z" fill="#575756"/><path d="m248.2 104.4c-4.9-1.8-7.5-6.1-5.8-9.7s7-5 11.8-3.3c4.9 1.8 7.5 6.1 5.8 9.7-1.6 3.7-6.9 5.1-11.8 3.3z" fill="#1d1d1b"/><path d="m248.5 103.7c-4.3-1.6-6.5-5.8-4.9-9.2s6.4-4.9 10.7-3.2c4.3 1.6 6.5 5.8 4.9 9.2s-6.4 4.9-10.7 3.2z" fill="#3c3c3b"/><path d="m250.4 97.7c2.8 1 5.8.2 6.7-1.9.1-.2.2-.9.3-1.1l.1-.6c-.1-1.7-1.5-3.4-3.7-4.3-2.8-1-5.8-.2-6.7 1.9-.1 0-.2.7-.2.7v.2c-.4 2 1 4.2 3.5 5.1z" fill="#575756"/><path d="m250.6 96.7c-2.8-1-4.3-3.5-3.3-5.5.9-2 4-2.9 6.7-1.9 2.8 1 4.3 3.5 3.3 5.5-.9 2.1-3.9 2.9-6.7 1.9z" fill="#1d1d1b"/><path d="m252.6 97-6.8-5.1c-.3-.2-.4-.6-.4-1l2.5-10.6c0-.2.1-.4.3-.5l5.9-4.7c.4-.3 1-.3 1.4 0l6.6 5c.4.3.6.9.5 1.4l-2.5 10.4c0 .2-.1.3-.3.4l-5.8 4.7c-.4.3-1 .3-1.4 0z" fill="#3c3c3b"/><path d="m254.6 86.2-5.8-4.5c-.2-.1-.4 0-.5.2l-2.3 9.1c-.1.2 0 .5.2.6l5.8 4.4c.2.2.5 0 .6-.2l2.2-9c.1-.2 0-.5-.2-.6z" fill="#040400"/><path d="m254.7 75.9-4.8 3.8c-.2.2-.2.5 0 .7l5.5 4.3c.2.2.6.2.8 0l5-3.9c.2-.1.2-.4 0-.5l-5.8-4.4c-.2-.2-.5-.2-.7 0z" fill="#040400"/><path d="m136 150.5c-2 .4-3.9-.8-4.3-2.8s.8-3.9 2.8-4.3 3.9.8 4.3 2.8c.4 1.9-.8 3.9-2.8 4.3z" fill="#1d1d1b"/><path d="m147 166.5c5-1.2 8.6-5.4 8-9.3-.1-.4-.2-.8-.3-1.2l-.4-1h-.1c-1.7-2.5-5.4-3.6-9.4-2.6-5 1.2-8.6 5.4-8 9.3v.1h-.1l.4 1c1.2 3.2 5.4 4.8 9.9 3.7z" fill="#575756"/><path d="m146.5 165.4c-5 1.2-9.6-.9-10.3-4.8-.6-3.9 2.9-8.1 8-9.3 5-1.2 9.6.9 10.3 4.8s-2.9 8.1-8 9.3z" fill="#1d1d1b"/><path d="m146.4 164.7c-4.5 1-8.6-1.1-9.2-4.9s2.5-7.6 7-8.7 8.6 1.1 9.2 4.9-2.5 7.6-7 8.7z" fill="#3c3c3b"/><path d="m144.6 158.7c2.9-.7 4.9-3.1 4.6-5.3 0-.2-.3-.8-.4-1l-.2-.6c-1-1.4-3.1-2-5.4-1.5-2.9.7-4.9 3.1-4.6 5.3-.1.1.2.7.2.7l.1.2c.7 1.7 3.1 2.8 5.7 2.2z" fill="#575756"/><path d="m144.2 157.7c-2.9.7-5.5-.5-5.9-2.7s1.7-4.6 4.6-5.3 5.5.5 5.9 2.7c.3 2.2-1.7 4.6-4.6 5.3z" fill="#1d1d1b"/><path d="m146 156.8-8.5-.4c-.4 0-.7-.3-.8-.6l-3.9-10.1c-.1-.2-.1-.4 0-.6l2.2-7.1c.2-.5.6-.8 1.2-.8l8.3.5c.5 0 1 .4 1.2.9l3.7 10.1c.1.2.1.4 0 .5l-2.3 6.9c-.1.4-.6.7-1.1.7z" fill="#3c3c3b"/><path d="m141.6 146.7-7.4-.5c-.2 0-.4.2-.3.4l3.3 8.9c.1.2.3.4.5.4l7.2.4c.3 0 .4-.2.3-.5l-3.2-8.7c.1-.2-.1-.3-.4-.4z" fill="#040400"/><path d="m135.9 138.2-1.9 5.9c-.1.3.1.5.4.6l7 .5c.3 0 .6-.2.7-.5l2-6c.1-.2-.1-.4-.3-.4l-7.3-.5c-.3 0-.5.1-.6.4z" fill="#040400"/><path d="m340 168.7c2 3.9 1.8 11.6 1.5 19.7.1 4.9-1.8 9.4-4.6 15.7l-1.9 9.2c-1.1-2.9-1.7-5.9-1.5-8.9.9-6.4 1.5-10.8 2.2-16.6l-1.6-11.3c-1.9-4.9 2-11.6 5.9-7.8z" fill="#ffae80"/><path d="m344.1 158.7c-4.3.6-5.1 5.8-6.7 8.8-6.3-4.8-1.8-14.2 6.7-8.8z"/><path d="m349.3 257c-.9 2.1-2.2 3.9-3.8 5.2-2.1 1.7-4 2.7-5.7 2.5-1.6-.6-1.5-1.9-.9-3.8.9-1.9 2.9-3.6 5.2-5.2 0 0 2.5-2.1 2.5-2.2z" fill="#1574f5"/><path d="m337.7 235.5c1.7 5 4.9 11.6 8.4 18.5 0 0-4.4 3.8-2.6 5.2 2.7 2 6.1-4.4 6.1-4.4l-5.1-17.7z" fill="#eda96b"/><path d="m352.7 260.3.1.3c.8 0 1.7 2.6 1.4 4.5-1.1 2.9 0 5.2-.4 8.5-.3 2-1 3.5-2.6 4.5-2.7 1.6-4.6 1.9-5-.4-.3-1.6 0-3 .7-5.4l1.3-6.3z" fill="#1574f5"/><path d="m348.9 272.8c3.6.5 4.2-4 4.3-8 0-1.2 0-2.3-.1-3.3-3.2-8.1 2.5-15.4-1.4-22.5l.5-2.9 1.3-7.7-9.4-1.1-1.7 8.6-.6 5.1c1 6.8 5.6 14.5 6.5 21.8.3 3.3-1.6 9.8.6 10z" fill="#ffae80"/><path d="m347.9 240.3c4.3 3.4.5 17.9 5.3 24.5 0-1.2 0-2.3-.1-3.3-3.2-8.1 2.5-15.4-1.4-22.5l.5-2.9c-1.9 1.9-4.3 4.2-4.3 4.2z" fill="#ffae80"/><path d="m334.9 214.2c-.3 10 2.6 11.4 2.4 18.4 0 .5 0 1.1.2 1.7.5 2.3 2.2 4.9 4.3 5.8.2.1.4.2.6.2 2.1.2 4.1.3 5.8-.1 1.9-.4 3.5-1.5 4.3-3.5 0-7.4 5.6-12.7 6.2-22.5.3-4.2-.7-8.2-3.4-11.1l-3.3-.1-16.3-.3z" fill="#1574f5"/><path d="m353.7 224.3c-3.4 5.2-3.6 12.4-5.8 16h.2c1.9-.4 3.5-1.5 4.3-3.5 0-7.4 5.6-12.7 6.2-22.5.3-4.2-.7-8.2-3.4-11.1l-3.3-.1-9.1 4.9c5 1.2 9.4 3.1 11.1 8.1l-.7 3.2z" fill="#3663a5" opacity=".5"/><path d="m346.1 162.5c6-.5 8.5 3.6 9 7.4.7 5-.4 7-2.1 9.7-1.2 1.9-4.7 4.9-4.7 4.9-2.1-9.7 2.7-15.5.9-18.4-.9-1.5-3-2.3-3-2.3z"/><path d="m336.6 192c.5 3.8.3 7.5-1.1 11 .4 2.4 1.7 4.2 4.9 4.8 6.9 1.3 12.7-.2 15.4-3.8-2.5-2.6-2.5-6.5-.9-10.1 1.2-2 2-4.2 2.5-6.5.6-2.9.7-6 .5-9.2-3.3-3.4-6.8-6.2-10.6-7l-8.7-3.3c-2.6.4-4.6 5-4 8.5-.3 5.4-3 7.6-3.1 11 .2 2.6 2 4.3 5.1 4.6z" fill="#1574f5"/><path d="m335.6 203c.4 2.4 1.7 4.2 4.9 4.8 6.9 1.3 12.7-.2 15.4-3.8-2.5-2.6-2.5-6.5-.9-10.1 1.2-2 2-4.2 2.5-6.5l-4-.1c-2.5 5.3-3.5 10.5-8.7 9.6-3.6-.7-4.7-3.7-3.9-7.3-1 1.3-3 2.6-4.3 2.5.6 3.7.3 7.4-1 10.9z" fill="#3663a5" opacity=".5"/><path d="m351.4 172.7c-1.1-2-1.6-3.8-1.8-6.1l-6.9.6.1 4.9c-2.6 7 7.9 5.2 8.6.6z" fill="#ffae80"/><path d="m349.7 167.8c3.8-6.5 1.9-12.1-3.4-13.3-5.7-1.3-9.6 2.8-9.6 7.8-.2 5.3 1.2 9.1 3.2 9.4 3.3.5 5.7-.9 6.7-3.2z" fill="#ffae80"/><path d="m350.6 168.7.2 2.8c-1.1-3.1-2.6-3.2-2.8-4l-.2-1.7-1.5.6c-3.1.2-3.6-5.3-9.4-4.6-.5-5.2 3.4-8 8.1-8 5.8.5 7.6 3.8 7.4 8-.3 2.6-.6 4.9-1.8 6.9z"/><path d="m346.2 168.2c-.3-.8-.4-.7-.2-1.1.4-1 1-1.8 1.6-1.6.4.1.9.2 1.1.6.2.5 0 1-.2 1.5-.1.3-.3.7-.5.9-.2.3-.6.5-1 .4s-.7-.4-.8-.7z" fill="#ffae80"/><path d="m337.4 234.3c.5 2.3 2.2 4.9 4.3 5.8-.3-.7-.4-1.5-.5-2-.6-4.9 1.4-9.2.5-12.1-.3 1.8-.7 3.4-1.4 5s-1.7 2.3-2.9 3.3z" fill="#3663a5" opacity=".5"/><path d="m336 210.1c.2.2.5.4 1 .3 1.1-.5 2.1-.8 2.9 0 0 .4-.1.8-.4 1.3l-.1.1c-.7 1-2 2.1-3.4 3.2-.2.2-.2.4-.1.6s.4.4.7.3c-.2.4.2.7.7.5l.7-.4c-.1.5.5.6.8.3l1.5-.8c.9-.4 1.8-.9 2.6-1.6.1-.1.2-.2.3-.3 1-1.2 1.9-2.6 2.4-4 .2-1.3-.8-1.9-2.5-1.9l-2 .2c-1.8.1-3.1.9-5.3 1.5 0 .1.1.4.2.7z" fill="#ffae80"/><path d="m336 215.5c.1.2.4.4.7.3-.2.4.2.7.7.5l.7-.4c-.1.5.5.6.8.3l1.5-.8c.9-.4 1.8-.9 2.6-1.6-.9 0-1.7-.6-2.3-1.4-1.4 1.5-3.6 3.2-4.7 3.1z" fill="#ffae80"/><path d="m336 210.1c.2.2.5.4 1 .3 1.1-.5 2.1-.8 2.9 0 0 .4-.1.8-.4 1.3l1.1-1.6c-1.6-1.2-3.6 0-4.6 0z" fill="#ffae80"/><path d="m336 210.1c.2.2.5.4 1 .3 1.1-.5 2.1-.8 2.9 0 0 .4-.1.8-.4 1.3l-.1.1c-.7 1-2 2.1-3.4 3.2-.2.2-.2.4-.1.6s.4.4.7.3c-.2.4.2.7.7.5l.7-.4c-.1.5.5.6.8.3l1.5-.8c.9-.4 1.8-.9 2.6-1.6.1-.1.2-.2.3-.3 1-1.2 1.9-2.6 2.4-4 .2-1.3-.8-1.9-2.5-1.9l-2 .2c-1.8.1-3.1.9-5.3 1.5 0 .1.1.4.2.7z" fill="#fcaf75"/><path d="m336 215.5c.1.2.4.4.7.3-.2.4.2.7.7.5l.7-.4c-.1.5.5.6.8.3l1.5-.8c.9-.4 1.8-.9 2.6-1.6-.9 0-1.7-.6-2.3-1.4-1.4 1.5-3.6 3.2-4.7 3.1z" fill="#ffae80"/><path d="m336 210.1c.2.2.5.4 1 .3 1.1-.5 2.1-.8 2.9 0 0 .4-.1.8-.4 1.3l1.1-1.6c-1.6-1.2-3.6 0-4.6 0z" fill="#ffae80"/><path d="m358.1 178.2c2.8 4 1.9 18 .9 21.3-5.2 5.6-8 7.8-13.7 11.1.2-1.4.7-2.6-1.7-2.9l9.9-11.8c-1-3.2-.9-6.7-1.2-11.4.6-9.5 5.3-7.1 5.8-6.3z" fill="#ffae80"/><path d="m84.5 220.7c0 2.4-1.9 4.3-4.2 4.4-2.4 0-4.3-1.9-4.4-4.2 0-2.4 1.9-4.3 4.2-4.4 2.4-.1 4.4 1.8 4.4 4.2z" fill="#1d1d1b"/><path d="m105.7 211.7c-.3-6.2-4.3-11.3-9-11.5-.5 0-1 0-1.4.1l-1.3.2v.1c-3.3 1.4-5.5 5.4-5.3 10.3.3 6.2 4.3 11.3 9 11.5h.1v.1l1.3-.2c4-.6 6.8-5.1 6.6-10.6z" fill="#575756"/><path d="m104.3 212c.3 6.2-3.3 11-8 10.8s-8.7-5.3-9-11.5 3.3-11 8-10.8c4.8.2 8.8 5.3 9 11.5z" fill="#1d1d1b"/><path d="m103.4 211.9c.2 5.5-3.3 9.7-7.8 9.6-4.5-.2-8.2-4.7-8.4-10.2s3.3-9.7 7.8-9.6c4.5.2 8.3 4.8 8.4 10.2z" fill="#3c3c3b"/><path d="m96 212.6c-.2-3.5-2.4-6.4-5.1-6.5-.3 0-1 .1-1.3.2l-.7.1c-1.8.9-3.1 3.2-3 6 .2 3.5 2.4 6.4 5.1 6.5.1.1.8-.1.8-.1l.3-.1c2.2-.4 4-3 3.9-6.1z" fill="#575756"/><path d="m94.8 212.9c.2 3.5-1.9 6.3-4.6 6.2s-5-3-5.1-6.5c-.2-3.5 1.9-6.3 4.6-6.2 2.6 0 4.9 3 5.1 6.5z" fill="#1d1d1b"/><path d="m94.2 210.6-2.4 9.7c-.1.4-.5.8-.9.8l-12.7 2.1c-.2 0-.5 0-.6-.1l-7.8-4.3c-.5-.3-.8-.9-.7-1.5l2.5-9.5c.2-.6.7-1.1 1.3-1.2l12.6-2c.2 0 .4 0 .6.1l7.5 4.3c.5.4.7 1 .6 1.6z" fill="#3c3c3b"/><path d="m81.4 213.3-2.3 8.4c-.1.3.1.5.4.5l11.1-1.8c.3 0 .5-.3.6-.5l2.1-8.3c.1-.3-.2-.6-.5-.5l-10.8 1.6c-.2.1-.5.3-.6.6z" fill="#040400"/><path d="m70.2 217.9 6.4 3.6c.3.2.6 0 .7-.3l2.2-8c.1-.3-.1-.7-.4-.9l-6.5-3.7c-.2-.1-.5 0-.5.2l-2.2 8.3c-.1.3 0 .6.3.8z" fill="#040400"/><g enable-background="new"><g clip-path="url(#a)" enable-background="new"><path d="m227.4 163.8-7.7-4.2c5.8-.8 11.4-.5 16.6.9l7.7 4.2c-5.2-1.4-10.8-1.7-16.6-.9" fill="#a04800"/><path d="m244.1 164.7-7.7-4.2c2.7.7 5.3 1.7 7.8 2.9l7.7 4.2c-2.5-1.2-5.1-2.2-7.8-2.9" fill="#9c4600"/><path d="m251.9 167.6-7.7-4.2c.5.3 1 .5 1.5.8l7.7 4.2c-.4-.3-1-.5-1.5-.8" fill="#974400"/></g><g clip-path="url(#b)" enable-background="new"><path d="m188.3 330-7.7-4.2c-16.6-9-28.2-29.8-29.7-57.6-.9-16.4 2-33.1 7.6-48.3l7.7 4.2c-5.6 15.2-8.4 31.9-7.6 48.3 1.4 27.9 13.1 48.6 29.7 57.6" fill="#7e3900"/><path d="m166.2 224.1-7.7-4.2c2-5.6 4.5-11 7.2-16l7.7 4.2c-2.8 5.1-5.2 10.5-7.2 16" fill="#833b00"/><path d="m173.4 208.1-7.7-4.2c2.2-4 4.5-7.9 7.1-11.5l7.7 4.2c-2.6 3.6-5 7.5-7.1 11.5" fill="#883d00"/><path d="m180.5 196.6-7.7-4.2c2.2-3.2 4.6-6.2 7.1-9l7.7 4.2c-2.5 2.8-4.9 5.8-7.1 9" fill="#8d3f00"/><path d="m187.5 187.6-7.7-4.2c2.3-2.6 4.7-5.1 7.3-7.3l7.7 4.2c-2.5 2.2-4.9 4.6-7.3 7.3" fill="#924100"/><path d="m194.8 180.2-7.7-4.2c2.5-2.3 5.1-4.3 7.8-6.2l7.7 4.2c-2.7 1.9-5.3 3.9-7.8 6.2" fill="#974400"/><path d="m202.6 174-7.7-4.2c3.1-2.1 6.2-4 9.5-5.5l7.7 4.2c-3.2 1.5-6.4 3.4-9.5 5.5" fill="#9c4600"/><path d="m212.1 168.5-7.7-4.2c1.5-.7 3-1.3 4.5-1.9 3.7-1.4 7.3-2.3 10.8-2.8l7.7 4.2c-3.5.5-7.2 1.4-10.8 2.8-1.5.6-3 1.2-4.5 1.9" fill="#a04800"/></g><path d="m227.4 163.8c29.6-4.2 53.6 21.4 55.7 62.1 2.4 45.6-23.6 93-58 105.9-3.7 1.4-7.3 2.3-10.8 2.8-29.6 4.2-53.6-21.4-55.7-62.1-2.4-45.6 23.6-93 58-105.9 3.7-1.4 7.3-2.3 10.8-2.8z" fill="#d45f00"/></g><path d="m118.7 381v6.2c-.9 1.6-1.4 3.5-1.1 5.6 1.3 1.7 3.7 2 6.4 2.2 3 2.2 6.1 4.1 8.9 4 3.1.5 7.9-2.1 6.2-4.7-1.2-1.9-4.3-2.6-8.1-4.1-3.9-1.5-3.3-2.9-3.3-2.9l-1.7-6.3z" fill="#0b1017"/><path d="m110.2 339.7c.5 6.1 3.3 13.7 7.4 21.2-3.2 5.8 0 16.8-.6 26.6.5 4.1 8.3 4.6 10.6-.2-.9-9.8-.9-20 0-30.7.2-10.2-1.1-19.8-4.9-28.7v-8.7l-17.4 13.8z" fill="#c0c7a9"/><path d="m90.3 395.2-.3 4-.3 3.7c.1 2.4.7 5.1 1.7 8 1.2 2.5 2.9 3.8 5.2 3.9l4.4-.7c1.3-.9 1.4-2.2.3-4.1l-3.2-6.4-.9-3.4-.2-5.6z" fill="#0b1017"/><path d="m112.4 340.2c-.9 11.1-3 21.2-8.3 28.4-3.3 10.9-4.2 21.2-5 30.6-.5 2.7-8.8 3.8-9.5.1-.4-3.1-.6-6.2-.6-9.3-.1-9.9 1.6-19.6 6.5-26.8-.4-7.9.2-15.8 1.8-23.8.1-4.3.7-8.2 1.9-11.6.4-1 .8-2 1.2-2.9 1.6.3 3.2.5 4.6.6h.2c6.9.3 12.7-2 17.5-6.4.6 9.4-.6 17.6-10.3 21.1z" fill="#dce1cb"/><path d="m143.6 255.2-.2 6.8 2.7 1.2 2-1.2c-.1-2.9-1.2-6-4.5-6.8z" fill="#3c4387"/><path d="m142.7 257.6 1.5-4c-1-1.6-1.7-3.2-2.1-5-.4-1.5-.6-2.2-1.2-3.3-.6-1.3.2-2.2 1.1-1 .7 1.2 1.1 1.9 1.7 2.9.2.3.7.4 1.3.5.6-.8 1.1-1.5 1.2-2.1l.2-3.1v-2.4c0-1 1-1.2 1.3 0l.3 2.5-.2 3.1 1-1.7.5-2.9c.1-1 1.1-1.1 1.2.2l-.3 3.4-.8 2.4 1.2-2 .7-1.7c.5-1.1 1.3-.5 1 .7l-.7 2.6c.5-.9 1.2-.2.6 1.2l-1.3 3.3-.9 2.2-1.6 2-2.7 7z" fill="#ffae80"/><path d="m142.7 257.6 3 5.5 1.9-6c-1.7-.1-2.9-1.4-3.5-3.1z" fill="#fff"/><path d="m148 262c-2.1 7.5-4.8 11.5-9.9 16.1-5.6 5.9-11.4 11.5-18.4 13.7l-1.3.9-2.2 1.5-2.6-12.7c1.4-1.5 3.7-2.6 6.5-3.6l12.9-6.1 10.5-16.5c.3 2.6.9 6.5 3.1 6.9.5.1.9 0 1.4-.2z" fill="#1574f5"/><path d="m148 262c-2.1 7.5-4.8 11.5-9.9 16.1-5.6 5.9-11.4 11.5-18.4 13.7l-1.3.9-.2-3.6c6.1-1.1 12.3-5.6 17.6-11.4 5.4-2.8 8.5-8.6 10.9-15.5.4.1.8 0 1.3-.2z" fill="#3663a5" opacity=".5"/><path d="m66.6 292.1c-1.3-3.9.1-5.7 2.3-7l3.1 4.2-1.5 3.1z" fill="#3663a5"/><path d="m69.9 291.5-3.7-3.7-3.5-2.7-3.6-2.8-1.1-1.9-.2-.9-.9-1.7c-.7-1-.1-1.6.5-1.2l-.3-.7c-.5-1.2.3-1.4 1-.5l2.1 2.8 3.1 2 .5-.7-.7-3.6c-.3-1.2.7-1.7 1.2-.5l1.3 3.6 2.4 5.3 3.5 2.5z" fill="#ffae80"/><path d="m68.1 284.3c.5 1.5-.2 2.6-1.8 3.5l4.1 4.3 1.9-4.7z" fill="#fff"/><path d="m91 291.1v12l7.5 26.7c9.6 2.7 20 6.2 24.5-3 .5-6.4-.1-20.9-1.4-28.3l-2.5-9.6-4.3-8.2-12 4.5z" fill="#1574f5"/><path d="m95.7 302.5c-1.2.5-2.7.7-4.7.6-4.5-.8-8.7-2.1-12.2-4.2l-12.2-6.8c2.3.3 3.8-4.5 2.6-7l11.9 5.6 9.9.5c2.7-.6 4.6.5 5.9 2.7 1.9 4.7 1.4 7.5-1.2 8.6z" fill="#1574f5"/><path d="m98 287.5c5.6 3.4 10.8 8.2 15.7 14.5.8-6.8-.4-14.2-2.9-20.6-4.6 1.1-8.6 3.6-12.8 6.1z" fill="#fff"/><path d="m99.3 287.9 1.7-8.4 7.9-.8 2.2 8.3c.8 4.5-9.4 5.4-11.8.9z" fill="#ffae80"/><path d="m102.9 283.9c.6 4.9 6.9 14.2 11 12.2 3.3-4.7 2.9-9.5.3-14.4z" fill="#ffae80" opacity=".5"/><path d="m102.6 283.7.6.9 1.6 2.4c.3.5.9.9 1.5 1l4.5 1c1.3 0 2.2-.4 2.9-1.2.2-.2.3-.5.4-.9.2-3 .8-6.5.1-8.1v-.6c-.1-1.2-.4-2.3-.9-3.4l-2-3.3c-1.7-2.4-4.6-3.5-8-3.1-2.8 1-4.1 2.7-5 5.6-.2 2.5.2 4.9 1.5 6.5z" fill="#ffae80"/><path d="m100 281.9 2.9.4-.5-2.8c-.5-4.6 5.4-2.3 7.7-4 1.9-1.4 1-4.4 3.3-.2-.3-2-1.4-4-3.1-5.7-2-1.9-4.8-2.1-7.6-1.4-3.9.9-5 3.9-5.1 7.1-.1 2.9.9 4.7 2.4 6.6z" fill="#0b1017"/><path d="m101 279.9c-.3-.2-.6-.4-.9-.3-.6 0-1 .6-1 1.2s.2 1.1.5 1.6.5.9.9 1.3.9.6 1.4.7c.2 0 .4 0 .5-.2.1-.1.1-.2.1-.3.2-.8-.2-1.6-.5-2.3-.2-.7-.4-1.3-1-1.7z" fill="#ffae80"/><path d="m66.6 292.1 12.2 6.8c3.5 2.1 7.6 3.4 12.2 4.2l7.5 26.7c1.8.5 3.4 1 3.4 1-4.4-7.5-6.9-22.4-6.2-28.3.1-.5.2-.9.3-1.4-1.7.2-3.3.2-4.9 0-3.2-.5-6.3-1.8-9.3-3.2z" fill="#3663a5" opacity=".5"/><path d="m195.2 220.8 3.5-1.9 4.6 15.5h.1l4.6-20.6 3.5-1.9v34.1l-3.6 2v-20.8h-.1l-3.6 16.7-1.8 1-3.5-12.7h-.1v20.8l-3.6 2z" fill="#fff"/><path d="m218.8 207.7 3-1.7 5.6 31.1-3.6 2-1.1-6.8-4.9 2.7-1.1 7.9-3.6 2zm1.5 9-1.8 13.4 3.6-2z" fill="#fff"/><path d="m229.2 201.9 3.6-2v34.1l-3.6 2z" fill="#fff"/><path d="m236.2 198 3.5-1.9 5.4 17.6h.1v-20.7l3.6-2v34.2l-3.4 1.9-5.5-17.5h-.1v20.5l-3.6 2z" fill="#fff"/><path d="m202 267.2-3.6 2v-1.1c0-1.1-.2-2-.6-2.6s-1-.6-2-.1c-.5.3-.9.6-1.2 1.1-.3.4-.6.9-.7 1.4-.2.5-.3 1-.4 1.6s-.1 1.1-.1 1.7c0 .7 0 1.2.1 1.7 0 .4.1.8.3 1.1.1.3.3.4.6.5s.6.2 1.1.2h2.8c.8 0 1.4.1 1.9.4s.9.7 1.1 1.3c.3.6.5 1.4.5 2.3.1.9.1 2 .1 3.3 0 1.4-.1 2.8-.3 4.2-.2 1.3-.6 2.6-1 3.7-.5 1.1-1.1 2.2-1.9 3.2s-1.8 1.8-2.9 2.4c-.9.5-1.7.7-2.4.7-.8 0-1.4-.2-1.9-.6s-1-1-1.3-1.9c-.3-.8-.5-1.8-.5-3v-1.8l3.6-2v1.5c0 .9.2 1.6.6 2.1s1 .5 2 0c.6-.3 1.1-.7 1.4-1.2.3-.4.6-.9.8-1.4s.3-1.1.3-1.8.1-1.4.1-2.2c0-.9 0-1.6-.1-2.2 0-.5-.1-1-.3-1.2-.2-.3-.4-.4-.6-.5-.3-.1-.6-.1-1.1-.1h-2.6c-1.6 0-2.6-.6-3.1-1.7s-.8-2.8-.8-4.9c0-1.3.1-2.6.4-3.9s.6-2.5 1.1-3.6 1.1-2.1 1.9-3.1c.8-.9 1.7-1.7 2.7-2.3.9-.5 1.7-.7 2.5-.7.7 0 1.4.3 1.9.7s.9 1 1.2 1.8.4 1.6.4 2.6z" fill="#fff"/><path d="m207 259.1-4.2 2.3v-4.6l11.9-6.6v4.6l-4.2 2.3v29.6l-3.6 2v-29.6z" fill="#fff"/><path d="m218.4 248.2 3-1.7 5.6 31.1-3.6 2-1.1-6.8-4.9 2.7-1.1 7.9-3.6 2zm1.5 9-1.8 13.4 3.6-2z" fill="#fff"/><path d="m228.6 250.6c0-1.4.2-2.7.5-3.9.4-1.3.8-2.4 1.4-3.4s1.2-1.9 1.9-2.6c.7-.8 1.4-1.3 2.2-1.7.7-.4 1.5-.6 2.2-.7.7 0 1.4.1 1.9.5.6.4 1 1 1.4 1.8.4.9.5 2 .5 3.4v1.7l-3.6 2v-1.7c0-1.2-.2-1.9-.7-2.2s-1.1-.3-1.7.1c-.7.4-1.2 1-1.7 1.8s-.7 1.8-.7 3v18c0 1.2.2 1.9.7 2.2s1.1.3 1.7-.1c.7-.4 1.2-1 1.7-1.8s.7-1.8.7-3v-6.4l-2.9 1.6v-4.3l6.5-3.6v10.8c0 1.4-.2 2.7-.5 4-.4 1.2-.8 2.4-1.4 3.4s-1.2 1.9-1.9 2.6c-.7.8-1.4 1.3-2.2 1.7-.7.4-1.5.6-2.2.7-.7 0-1.4-.1-1.9-.5-.6-.4-1-1-1.4-1.8s-.5-2-.5-3.4z" fill="#fff"/><path d="m243.8 234.1 10.7-6v4.6l-7.1 4v10l6.2-3.5v4.6l-6.2 3.5v10l7.1-4v4.9l-10.7 6z" fill="#fff"/></svg>