<svg enable-background="new 0 0 149 207" viewBox="0 0 149 207" xmlns="http://www.w3.org/2000/svg"><path d="m48.8 148.5-14.8 8.6c-.4.2-1 .2-1.6-.2l14.8-8.6c.7.4 1.2.4 1.6.2z" fill="#c35c0e"/><path d="m4.9 106.5 14.8-8.6c-.4.2-.7.7-.7 1.5l-14.8 8.6c0-.8.3-1.3.7-1.5z" fill="#c35c0e"/><path d="m48.8 148.5-14.8 8.6c.4-.2.7-.7.7-1.5l14.8-8.6c0 .7-.2 1.2-.7 1.5z" fill="#3967a8"/><path d="m8.8 83.2 14.8-8.6-.1 24.8-14.7 8.6z" fill="#c35c0e"/><path d="m4.9 106.5 14.8-8.6c.4-.2 1-.2 1.6.2l-14.8 8.6c-.6-.4-1.2-.4-1.6-.2z" fill="#3967a8"/><path d="m34.8 153 14.7-8.6v2.6l-14.7 8.6z" fill="#3967a8"/><path d="m6.5 106.6 14.7-8.5 2.3 1.3-14.7 8.6z" fill="#3967a8"/><path d="m30.3 125.6-.1 24.8-21.5-12.5v-24.7z" fill="#637cc5"/><path d="m8.7 113.2 14.8-8.6 21.5 12.4-14.7 8.6z" fill="#3967a8"/><path d="m30.3 125.6 14.7-8.6v24.8l-14.8 8.6z" fill="#3967a8"/><path d="m30.3 125.6 14.7-8.6v24.8l-14.8 8.6z" fill="#637cc5"/><path d="m8.7 113.2 14.8-8.6 21.5 12.4-14.7 8.6z" fill="#637cc5"/><path d="m32.6 121.7c1.2.7 2.3 2.5 2.3 3.9v2.6l-.1 24.8v2.6c0 1.4-1 2-2.3 1.3l-26.1-15.1c-1.2-.7-2.3-2.5-2.3-3.9l.1-30c0-1.4 1-2 2.3-1.3l2.3 1.3 21.5 12.4z" fill="#3967a8"/><path d="m30.2 150.4-21.5-12.5v-24.7l21.6 12.4z" fill="#3967a8"/><path d="m56.3 168 14.8-8.6c0 1.4 1 3.2 2.3 3.9l-14.8 8.7c-1.3-.8-2.3-2.5-2.3-4z" fill="#c35c0e"/><path d="m4.3 78 14.8-8.6c0 1.4 1 3.2 2.3 3.9l-14.8 8.6c-1.3-.7-2.3-2.5-2.3-3.9z" fill="#c35c0e"/><path d="m34.8 153 14.7-8.6 21.6 12.5-14.8 8.5z" fill="#c35c0e"/><path d="m34.8 128.2 14.8-8.5-.1 24.7-14.7 8.6z" fill="#3967a8"/><path d="m8.8 108 14.7-8.6 21.6 12.4-14.8 8.6z" fill="#3967a8"/><path d="m34.8 125.6 14.8-8.5v2.6l-14.8 8.5z" fill="#3967a8"/><path d="m30.3 120.4 14.8-8.6 2.2 1.3-14.7 8.6z" fill="#3967a8"/><path d="m30.4 95.6 14.7-8.5v24.7l-14.8 8.6z" fill="#60b9cb"/><path d="m30.4 95.6 14.7-8.5v24.7l-14.8 8.6z" fill="#c35c0e"/><path d="m34.9 98.3 14.8-8.6-.1 24.7-14.8 8.6z" fill="#3967a8"/><path d="m32.6 121.7 14.8-8.6c1.2.7 2.3 2.5 2.3 3.9l-14.8 8.6c-.1-1.4-1.1-3.2-2.3-3.9z" fill="#3967a8"/><path d="m56.4 140.7-.1 24.7-21.5-12.4v-24.8z" fill="#60b9cb"/><path d="m34.8 128.2 14.8-8.5 21.5 12.4-14.7 8.6z" fill="#c35c0e"/><path d="m34.8 128.2 14.8-8.5 21.5 12.4-14.7 8.6z" fill="#60b9cb"/><path d="m56.4 140.7 14.7-8.6v24.8l-14.8 8.5z" fill="#60b9cb"/><path d="m56.4 140.7 14.7-8.6v27.4l-14.8 8.5z" fill="#c35c0e"/><path d="m56.4 140.7-.1 27.3c0 1.4 1 3.2 2.3 3.9l-26.1-15.1c1.2.7 2.3.1 2.3-1.3v-2.6l21.5 12.4.1-24.6-21.5-12.4z" fill="#c35c0e"/><path d="m8.8 83.2 14.8-8.6 21.5 12.5-14.7 8.5z" fill="#60b9cb"/><path d="m6.6 81.9 14.7-8.6 23.8 13.8-14.7 8.5z" fill="#c35c0e"/><path d="m30.4 93 14.7-8.5v2.6l-14.7 8.5z" fill="#3967a8"/><path d="m4.3 78c0 1.4 1 3.2 2.3 3.9l23.8 13.8-.1 24.8.1-24.8-21.6-12.5v24.8l-2.3-1.3c-1.2-.7-2.3-.1-2.3 1.3z" fill="#c35c0e"/><path d="m30.4 95.6-.1 24.8-21.5-12.4v-24.8z" fill="#60b9cb"/><path d="m56.4 138.1 14.7-8.6v2.6l-14.7 8.6z" fill="#3967a8"/><path d="m101 178.6-14.8 8.6c-.4.2-1 .2-1.6-.2l14.8-8.6c.6.4 1.2.4 1.6.2z" fill="#c35c0e"/><path d="m57 136.6 14.8-8.6c-.4.2-.7.7-.7 1.5l-14.8 8.6c.1-.7.3-1.2.7-1.5z" fill="#3967a8"/><path d="m56.5 110.7 14.7-8.6-.1 24.8-14.7 8.6z" fill="#637cc5"/><path d="m34.8 123 14.8-8.6 21.5 12.5-14.7 8.6z" fill="#3967a8"/><path d="m31 91.6 14.8-8.6c-.4.2-.7.7-.7 1.5l-14.7 8.5c0-.7.2-1.2.6-1.4z" fill="#3967a8"/><path d="m30.5 65.7 14.7-8.6-.1 24.8-14.7 8.5z" fill="#637cc5"/><path d="m8.8 78 14.8-8.6 21.5 12.5-14.7 8.5z" fill="#3967a8"/><path d="m8.9 53.2 14.8-8.6-.1 24.8-14.8 8.6z" fill="#3967a8"/><path d="m19.8 38c-.4.2-.7.7-.7 1.5l-14.7 8.5c0-.7.3-1.2.7-1.5 4.4-2.5 10.3-6 14.7-8.5z" fill="#c35c0e"/><g fill="#3967a8"><path d="m101 178.6-14.8 8.6c.4-.2.7-.7.7-1.5l14.8-8.6c0 .8-.3 1.3-.7 1.5z"/><path d="m58.7 136.8 14.7-8.6 2.3 1.3-14.8 8.6z"/><path d="m61 113.3 14.8-8.6-.1 24.8-14.8 8.6z"/><path d="m57 136.6 14.8-8.6c.4-.2 1-.2 1.6.2l-14.8 8.6c-.6-.4-1.1-.4-1.6-.2z"/><path d="m32.7 91.7 14.7-8.5 2.3 1.3-14.8 8.5z"/><path d="m35 68.3 14.8-8.6-.1 24.8-14.8 8.5z"/><path d="m31 91.6 14.8-8.6c.4-.2 1-.2 1.6.2l-14.8 8.6c-.6-.4-1.1-.5-1.6-.2z"/></g><path d="m9 23.2 14.8-8.5-.1 24.7-14.8 8.6z" fill="#c35c0e"/><path d="m5.1 46.5 14.8-8.6c.4-.2 1-.2 1.6.2l-14.8 8.6c-.7-.4-1.2-.4-1.6-.2z" fill="#3967a8"/><path d="m86.9 183.1 14.8-8.6v2.7l-14.8 8.5z" fill="#3967a8"/><path d="m6.7 46.7 14.7-8.6 2.3 1.3-14.8 8.6z" fill="#3967a8"/><path d="m60.9 143.3 14.8-8.6 21.5 12.5-14.7 8.5z" fill="#3967a8"/><path d="m82.4 180.5-21.6-12.4.1-24.8 21.6 12.4z" fill="#3967a8"/><path d="m82.5 155.7 14.7-8.5v24.7l-14.8 8.6z" fill="#3967a8"/><path d="m60.9 143.3 14.8-8.6 21.5 12.5-14.7 8.5z" fill="#637cc5"/><path d="m82.5 155.7-.1 24.8-21.6-12.4.1-24.8z" fill="#637cc5"/><path d="m82.5 155.7 14.7-8.5v24.7l-14.8 8.6z" fill="#637cc5"/><path d="m34.9 98.3 14.8-8.6 21.5 12.4-14.7 8.6z" fill="#637cc5"/><path d="m56.4 135.5.1-24.8-21.5-12.4-.2 24.7zm2.4-28.7c1.3.7 2.3 2.5 2.3 3.9v2.6l-.1 24.8-2.3-1.3c-1.3-.7-2.3-.1-2.3 1.3v2.6l-21.5-12.4v-2.6c0-1.4-1-3.2-2.3-3.9l-2.3-1.3.1-24.8v-2.6c0-1.4 1-2 2.3-1.3l2.3 1.3 21.5 12.4z" fill="#3967a8"/><path d="m56.5 110.7-.1 24.8-21.6-12.5.1-24.7z" fill="#637cc5"/><path d="m8.9 53.2 14.8-8.6 21.5 12.5-14.7 8.6z" fill="#637cc5"/><path d="m30.5 65.7-.1 24.7-21.6-12.4.1-24.8z" fill="#637cc5"/><path d="m86.9 183.1 14.8-8.6 21.5 12.5-14.7 8.6z" fill="#c35c0e"/><path d="m87 158.4 14.8-8.6-.1 24.7-14.8 8.6z" fill="#3967a8"/><path d="m82.6 125.8 14.7-8.6-.1 24.8-14.7 8.5z" fill="#60b9cb"/><path d="m60.9 138.1 14.8-8.6 21.5 12.5-14.7 8.5z" fill="#3967a8"/><path d="m56.5 80.7 14.8-8.6-.1 24.8-14.7 8.6z" fill="#60b9cb"/><path d="m34.9 93 14.8-8.5 21.5 12.4-14.7 8.6z" fill="#3967a8"/><path d="m31.2 31.6 14.8-8.6c-.4.2-.7.7-.7 1.5l-14.8 8.6c.1-.7.3-1.2.7-1.5z" fill="#c35c0e"/><path d="m31.2 31.6 14.8-8.6c.4-.2 1-.2 1.6.2l-14.8 8.6c-.6-.4-1.2-.4-1.6-.2z" fill="#3967a8"/><path d="m32.8 31.8c-1.3-.7-2.3-.1-2.3 1.3l-.1 27.4.1-24.8-21.5-12.5-.1 24.8-2.3-1.3c-1.2-.7-2.3-.1-2.3 1.3l.1-30c0-1.4 1-2 2.3-1.3z" fill="#c35c0e"/><path d="m32.8 31.8-2.3 1.3c0-.7.3-1.2.7-1.5l10.9-6.3-18.4-10.6-14.7 8.5 21.5 12.4 14.8-8.6-2.2-1.3z" fill="#60b9cb"/><path d="m32.8 31.8-2.3 1.3-.1 27.4 14.8-8.6.1-27.3z" fill="#c35c0e"/><path d="m30.5 35.7 14.8-8.6-.1 24.8-14.7 8.5z" fill="#60b9cb"/><path d="m23.7 39.4-14.8 8.6 21.5 12.4v-17.1zm6.8 4v17.1l14.8-8.6z" fill="#3967a8"/><path d="m127.1 193.7-14.8 8.6c.4-.2.7-.7.7-1.5l14.8-8.6c0 .7-.3 1.2-.7 1.5z" fill="#c35c0e"/><path d="m87 155.8 14.8-8.6v2.6l-14.8 8.6z" fill="#3967a8"/><path d="m82.5 150.5 14.7-8.5 2.3 1.3-14.7 8.5z" fill="#3967a8"/><path d="m61 110.7 14.8-8.6v2.6l-14.8 8.6z" fill="#3967a8"/><path d="m56.5 105.5 14.7-8.6 2.3 1.3-14.7 8.6z" fill="#3967a8"/><path d="m35 65.7 14.8-8.6v2.6l-14.8 8.6z" fill="#3967a8"/><path d="m30.5 60.4 14.7-8.5 2.3 1.3-14.7 8.6z" fill="#3967a8"/><path d="m5.1 16.6 14.8-8.6c.4-.2 1-.2 1.6.2l-14.8 8.6c-.6-.4-1.2-.5-1.6-.2z" fill="#c35c0e"/><path d="m84.8 151.8c1.3.7 2.3 2.5 2.3 3.9v2.6l-.1 24.8v2.6c0 1.4-1 2-2.3 1.3l-26.1-15c-1.3-.7-2.3-2.5-2.3-3.9l.1-27.4v-2.6c0-1.4 1-2 2.3-1.3l2.3 1.3 21.6 12.4z" fill="#3a6aad"/><path d="m87.1 128.4 14.7-8.6v24.8l-14.8 8.5z" fill="#3967a8"/><path d="m84.8 151.8 14.8-8.6c1.3.7 2.3 2.5 2.3 3.9l-14.9 8.7c0-1.5-1-3.2-2.2-4z" fill="#3967a8"/><path d="m58.8 106.8 14.8-8.6c1.3.7 2.3 2.5 2.3 3.9l-14.9 8.6c0-1.4-1-3.2-2.2-3.9z" fill="#3967a8"/><path d="m35.1 38.3 14.7-8.6v24.8l-14.8 8.6z" fill="#3967a8"/><path d="m32.8 61.8 14.8-8.6c1.2.7 2.3 2.5 2.3 3.9l-14.9 8.6c0-1.5-1-3.2-2.2-3.9z" fill="#3967a8"/><path d="m30.4 90.4.1-24.8-21.6-12.4-.1 24.8zm2.4-28.6c1.2.7 2.3 2.5 2.3 3.9v2.6l-.2 24.7-2.3-1.3c-1.3-.7-2.3-.1-2.3 1.3v2.6l-23.7-13.7c-1.2-.7-2.3-2.5-2.3-3.9l.1-30c0-1.4 1-2 2.3-1.3l2.3 1.3 21.5 12.4z" fill="#3967a8"/><path d="m108.6 170.8 14.7-8.6-.1 24.8-14.7 8.6z" fill="#60b9cb"/><path d="m108.6 170.8-.1 24.8-21.6-12.5.1-24.7z" fill="#60b9cb"/><path d="m87 158.4 14.8-8.6 21.5 12.4-14.7 8.6z" fill="#60b9cb"/><path d="m61 113.3 14.8-8.6 21.5 12.5-14.7 8.6z" fill="#60b9cb"/><path d="m82.6 123.2 14.7-8.6v2.6l-14.7 8.6z" fill="#3967a8"/><path d="m82.6 125.8-.1 24.7-21.6-12.4.1-24.8z" fill="#60b9cb"/><path d="m35 68.3 14.8-8.6 21.5 12.4-14.8 8.6z" fill="#60b9cb"/><path d="m56.5 80.7v24.8l-21.6-12.5.1-24.7z" fill="#60b9cb"/><path d="m30.5 35.7v24.7l-21.6-12.4.1-24.8z" fill="#60b9cb"/><path d="m87 158.4 14.8-8.6 23.8 13.7-14.8 8.6z" fill="#c35c0e"/><path d="m56.6 78.1 14.7-8.6v2.6l-14.8 8.6z" fill="#3967a8"/><path d="m87 153.1 14.8-8.5 21.5 12.4-14.7 8.6z" fill="#3967a8"/><path d="m108.6 140.8 14.8-8.5-.1 24.7-14.7 8.6z" fill="#637cc5"/><path d="m113.2 140.8 14.7-8.5v29.9l-14.8 8.6z" fill="#3967a8"/><path d="m127.2 163.7-14.8 8.6c-.4.2-1 .2-1.6-.2l14.8-8.6c.6.4 1.2.4 1.6.2z" fill="#c35c0e"/><path d="m83.2 121.7 14.8-8.6c-.4.2-.7.7-.7 1.5l-14.8 8.6c.1-.8.3-1.3.7-1.5z" fill="#3967a8"/><path d="m57.2 76.7 14.8-8.6c-.4.2-.7.7-.7 1.5l-14.8 8.6c.1-.8.3-1.3.7-1.5z" fill="#3967a8"/><path d="m56.6 50.7 14.8-8.5-.1 24.7-14.7 8.6z" fill="#637cc5"/><path d="m35 63.1 14.8-8.6 21.5 12.4-14.7 8.6z" fill="#3967a8"/><path d="m113.1 170.8 14.8-8.6-.1 30-14.8 8.6z" fill="#c35c0e"/><path d="m127.2 163.7-14.8 8.6c.4-.2.7-.7.7-1.5l14.8-8.6c-.1.8-.3 1.3-.7 1.5z" fill="#3967a8"/><path d="m87.1 128.4 14.7-8.6 21.6 12.5-14.8 8.5z" fill="#637cc5"/><path d="m108.6 140.8v24.8l-21.6-12.5.1-24.7z" fill="#637cc5"/><path d="m108.6 165.6.1-24.8-21.5-12.4-.2 24.7zm2.3-28.7c1.2.7 2.3 2.5 2.3 3.9l-.1 30c0 1.4-1 2-2.3 1.3l-23.8-13.7v-2.6c0-1.4-1-3.2-2.3-3.9l-2.3-1.3.1-24.8v-2.6c0-1.4 1-2 2.3-1.3l2.3 1.3 21.5 12.4z" fill="#3967a8"/><path d="m113.1 170.8-.1 30c0 1.4-1 2-2.3 1.3l-26-15.1c1.3.7 2.3.1 2.3-1.3v-2.6l21.5 12.4.1-24.8-21.6-12.3 23.8 13.8c1.3.6 2.3.1 2.3-1.4z" fill="#c35c0e"/><path d="m84.8 121.9 14.8-8.6 2.3 1.3-14.8 8.6z" fill="#3967a8"/><path d="m82.6 95.8 14.8-8.6-.1 24.8-14.7 8.6z" fill="#3967a8"/><path d="m82.6 95.8 14.8-8.6-.1 24.8-14.7 8.6z" fill="#637cc5"/><path d="m87.2 98.4 14.7-8.6v24.8l-14.8 8.6z" fill="#3967a8"/><path d="m83.2 121.7 14.8-8.6c.4-.2 1-.2 1.6.2l-14.8 8.6c-.6-.4-1.2-.4-1.6-.2z" fill="#3967a8"/><path d="m58.8 76.8 14.8-8.6 2.3 1.4-14.8 8.5z" fill="#3967a8"/><path d="m61.2 53.4 14.7-8.6v24.8l-14.8 8.5z" fill="#3967a8"/><path d="m57.2 76.7 14.8-8.6c.4-.2 1-.2 1.6.2l-14.8 8.6c-.6-.4-1.2-.5-1.6-.2z" fill="#3967a8"/><path d="m6.7 16.7 14.8-8.6 26.1 15.1-14.8 8.6z" fill="#c35c0e"/><path d="m61.1 83.3 14.7-8.5 21.6 12.4-14.8 8.6z" fill="#3967a8"/><path d="m82.6 120.6-21.6-12.5.1-24.8 21.5 12.5z" fill="#3967a8"/><path d="m61.1 83.3 14.7-8.5 21.6 12.4-14.8 8.6z" fill="#637cc5"/><path d="m82.6 95.8v24.8l-21.6-12.5.1-24.8z" fill="#637cc5"/><path d="m35.1 38.3 14.7-8.6 21.6 12.5-14.8 8.5z" fill="#637cc5"/><path d="m56.6 50.7v24.8l-21.6-12.4.1-24.8z" fill="#637cc5"/><path d="m108.7 110.8 14.8-8.5-.1 24.7-14.7 8.6z" fill="#60b9cb"/><path d="m87.1 123.2 14.8-8.6 21.5 12.4-14.7 8.6z" fill="#3967a8"/><path d="m61.2 50.8 14.7-8.6v2.6l-14.7 8.6z" fill="#3967a8"/><path d="m83.4 61.7 14.8-8.6c-.4.2-.7.7-.7 1.5l-14.8 8.6c0-.7.3-1.2.7-1.5z" fill="#c35c0e"/><path d="m83.4 61.7 14.8-8.6c.4-.2 1-.2 1.6.2l-14.8 8.6c-.6-.4-1.2-.4-1.6-.2z" fill="#3967a8"/><path d="m58.9 46.8 14.8-8.5 26.1 15-14.8 8.6z" fill="#c35c0e"/><path d="m58.9 46.8 14.8-8.6c1.3.7 2.3 2.5 2.3 3.9l-14.8 8.6c0-1.4-1-3.1-2.3-3.9z" fill="#3967a8"/><path d="m85 61.9c-1.2-.7-2.3-.1-2.3 1.3l-.1 27.4.1-24.8-21.6-12.4v-2.6c0-1.4-1-3.2-2.3-3.9z" fill="#c35c0e"/><path d="m85 61.9-2.3 1.3c0-.7.3-1.2.7-1.5l.7-.4-18.4-10.6-4.5 2.6 21.6 12.4 14.8-8.6-2.2-1.3z" fill="#60b9cb"/><path d="m85 61.9-2.3 1.3-.1 27.4 14.8-8.6.1-27.3z" fill="#c35c0e"/><path d="m82.7 65.8 14.8-8.6-.1 24.8-14.7 8.6z" fill="#60b9cb"/><path d="m75.9 69.6-14.8 8.6 21.6 12.4v-17.1zm6.8 3.9v17.1l14.8-8.6z" fill="#3967a8"/><path d="m108.7 135.6 14.7-8.6 2.3 1.4-14.8 8.5z" fill="#3967a8"/><path d="m87.2 95.8 14.7-8.6v2.6l-14.7 8.6z" fill="#3967a8"/><path d="m82.7 90.6 14.7-8.6 2.3 1.3-14.8 8.6z" fill="#3967a8"/><path d="m32.8 31.8 14.8-8.6 26.1 15.1-14.8 8.5z" fill="#3967a8"/><path d="m87.2 98.4 14.7-8.6 23.8 13.8-14.7 8.6z" fill="#c35c0e"/><path d="m87.2 98.4 14.7-8.6 21.6 12.5-14.8 8.5z" fill="#60b9cb"/><path d="m87.3 68.4 14.7-8.5-.1 24.7-14.7 8.6z" fill="#3967a8"/><path d="m84.9 91.9 14.8-8.6c1.3.7 2.3 2.5 2.3 3.9l-14.8 8.6c0-1.4-1-3.2-2.3-3.9z" fill="#3967a8"/><path d="m108.8 80.9 14.8-8.6-.1 24.8-14.8 8.5z" fill="#637cc5"/><path d="m87.2 93.2 14.7-8.6 21.6 12.5-14.8 8.5z" fill="#3967a8"/><path d="m113.4 80.9 14.7-8.6-.1 30-14.7 8.6z" fill="#3967a8"/><path d="m127.4 103.7-14.8 8.6c-.4.2-1 .2-1.6-.2l14.8-8.6c.6.4 1.1.5 1.6.2z" fill="#c35c0e"/><path d="m113.3 110.9 14.7-8.6-.1 30-14.7 8.5z" fill="#c35c0e"/><path d="m110.9 136.9 14.8-8.6c1.2.7 2.3 2.5 2.3 3.9l-14.8 8.6c0-1.4-1-3.2-2.3-3.9z" fill="#3967a8"/><path d="m84.9 91.9c1.3.7 2.3 2.5 2.3 3.9v2.6l-.1 24.8-2.3-1.3c-1.2-.7-2.3-.1-2.3 1.3v2.6l-21.5-12.5v-2.6c0-1.4-1-3.2-2.3-3.9l-2.3-1.3.1-24.8v-2.6c0-1.4 1-2 2.3-1.3l2.3 1.3 21.6 12.4z" fill="#3967a8"/><path d="m56.6 75.5.1-24.8-21.5-12.4-.2 24.8zm2.3-28.7c1.3.7 2.3 2.5 2.3 3.9v2.6l-.1 24.8-2.3-1.3c-1.3-.7-2.3-.1-2.3 1.3v2.6l-21.5-12.4v-2.6c0-1.4-1-3.2-2.3-3.9l-2.3-1.3.1-27.4c0-1.4 1-2 2.3-1.3z" fill="#3a6aad"/><path d="m108.7 110.8v24.8l-21.6-12.4.1-24.8z" fill="#60b9cb"/><path d="m87.3 68.4 14.7-8.5 21.6 12.4-14.8 8.6z" fill="#637cc5"/><path d="m108.7 105.6.1-24.8-21.5-12.4-.1 24.8zm2.4-28.6c1.2.7 2.3 2.5 2.3 3.9l-.1 30c0 1.4-1 2-2.3 1.3l-23.8-13.8v-2.6c0-1.4-1-3.2-2.3-3.9l-2.3-1.3.1-27.4c0-1.4 1-2 2.3-1.3z" fill="#3967a8"/><path d="m82.7 65.8v24.8l-21.6-12.5.1-24.7z" fill="#60b9cb"/><path d="m127.4 103.7-14.8 8.6c.4-.2.7-.7.7-1.5l14.8-8.6c-.1.8-.3 1.3-.7 1.5z" fill="#3967a8"/><path d="m113.3 110.9-.1 30c0-1.4-1-3.2-2.3-3.9l-2.3-1.3.1-24.8-21.5-12.4 23.8 13.8c1.2.6 2.3 0 2.3-1.4z" fill="#c35c0e"/><path d="m108.8 80.9-.1 24.7-21.5-12.4.1-24.8z" fill="#637cc5"/><path d="m85 61.9 14.8-8.6 26 15.1-14.7 8.6z" fill="#3967a8"/><path d="m111.1 77 14.8-8.6c1.2.7 2.3 2.5 2.3 3.9l-14.8 8.6c0-1.5-1.1-3.2-2.3-3.9z" fill="#3967a8"/><path d="m56.6 75.4-21.5-12.4v-24.8l21.6 12.5z" fill="#3a6aad"/><path d="m56.7 50.7-.1 24.7-21.5-12.4v-24.8z" fill="#1574f5"/><path d="m108.6 170.7-.1 24.8-21.5-12.5.1-24.7z" fill="#f36d00"/><path d="m113.1 170.7-.1 30c0 1.4-1 2-2.3 1.3l-26.1-15.1c1.3.7 2.3.1 2.3-1.3v-2.6l21.5 12.4.1-24.8-21.5-12.4 23.8 13.8c1.3.7 2.3.2 2.3-1.3z" fill="#db6610"/><path d="m32.6 121.6c1.2.7 2.3 2.5 2.3 3.9v2.6l-.1 24.8v2.6c0 1.4-1 2-2.3 1.3l-26.1-15.1c-1.2-.7-2.3-2.5-2.3-3.9l.1-30c0-1.4 1-2 2.3-1.3l2.3 1.3 21.5 12.4z" fill="#3a6aad"/><path d="m30.3 125.5v24.8l-21.6-12.5.1-24.7z" fill="#1574f5"/><path d="m58.8 106.7c1.3.7 2.3 2.5 2.3 3.9v2.6l-.1 24.8-2.3-1.3c-1.3-.7-2.3-.1-2.3 1.3v2.6l-21.6-12.4v-2.6c0-1.4-1-3.2-2.3-3.9l-2.3-1.3.1-24.8v-2.6c0-1.4 1-2 2.3-1.3l2.3 1.3 21.6 12.4z" fill="#3a6aad"/><path d="m56.4 140.6-.1 27.4c0 1.4 1 3.2 2.3 3.9l-26.1-15.1c1.2.7 2.3.1 2.3-1.3v-2.6l21.6 12.4v-24.7l-21.6-12.4z" fill="#db6610"/><path d="m56.4 140.6v24.7l-21.6-12.4.1-24.8z" fill="#f36d00"/><path d="m30.4 90.3.1-24.8-21.5-12.4-.1 24.8zm2.4-28.6c1.2.7 2.3 2.5 2.3 3.9v2.6l-.1 24.7-2.3-1.3c-1.3-.7-2.3-.1-2.3 1.3v2.6l-23.8-13.7c-1.2-.7-2.3-2.5-2.3-3.9l.1-30c0-1.4 1-2 2.3-1.3l2.3 1.3 21.5 12.4z" fill="#3a6aad"/><path d="m4.4 77.9c0 1.4 1 3.2 2.3 3.9l23.8 13.8-.1 24.8.1-24.8-21.6-12.5-.1 24.8-2.3-1.3c-1.2-.7-2.3-.1-2.3 1.3z" fill="#db6610"/><path d="m30.4 95.5v24.8l-21.6-12.4.1-24.8z" fill="#f36d00"/><path d="m56.4 135.4-21.5-12.5.1-24.7 21.5 12.4z" fill="#3a6aad"/><path d="m56.5 110.6-.1 24.8-21.5-12.5.1-24.7z" fill="#1574f5"/><path d="m30.5 65.6-.1 24.7-21.5-12.4.1-24.8z" fill="#1574f5"/><path d="m56.6 80.6-.1 24.8-21.5-12.5v-24.7z" fill="#f36d00"/><path d="m30.6 35.6-.1 24.7-21.5-12.4v-24.8z" fill="#f36d00"/><path d="m32.9 31.7c-1.3-.7-2.3-.1-2.3 1.3l-.1 27.4.1-24.8-21.6-12.5v24.8l-2.3-1.3c-1.2-.7-2.3-.1-2.3 1.3l.1-30c0-1.4 1-2 2.3-1.3z" fill="#db6610"/><path d="m108.7 140.7-.1 24.8-21.5-12.5v-24.7z" fill="#1574f5"/><path d="m82.7 95.7-.1 24.8-21.5-12.5v-24.8z" fill="#1574f5"/><path d="m108.6 165.5.1-24.8-21.5-12.4-.1 24.7zm2.4-28.7c1.2.7 2.3 2.5 2.3 3.9l-.1 30c0 1.4-1 2-2.3 1.3l-23.8-13.8v-2.6c0-1.4-1-3.2-2.3-3.9l-2.3-1.3.1-24.8v-2.6c0-1.4 1-2 2.3-1.3l2.3 1.3 21.5 12.4z" fill="#3a6aad"/><path d="m82.6 120.5.1-24.8-21.5-12.4-.1 24.7zm2.4-28.7c1.3.7 2.3 2.5 2.3 3.9v2.6l-.1 24.8-2.3-1.3c-1.2-.7-2.3-.1-2.3 1.3v2.6l-21.5-12.4v-2.6c0-1.4-1-3.2-2.3-3.9l-2.3-1.3.1-24.8v-2.6c0-1.4 1-2 2.3-1.3l2.3 1.3 21.5 12.4z" fill="#3a6aad"/><path d="m108.8 110.7-.1 24.8-21.5-12.4v-24.8z" fill="#f36d00"/><path d="m82.8 65.7-.1 24.8-21.5-12.5v-24.7z" fill="#f36d00"/><path d="m113.3 110.8-.1 30c0-1.4-1-3.2-2.3-3.9l-2.3-1.3.1-24.8-21.5-12.4 23.8 13.8c1.3.6 2.3 0 2.3-1.4z" fill="#db6610"/><path d="m108.8 105.5.1-24.8-21.5-12.4-.1 24.8zm2.3-28.6c1.2.7 2.3 2.5 2.3 3.9l-.1 30c0 1.4-1 2-2.3 1.3l-23.8-13.8v-2.6c0-1.4-1-3.2-2.3-3.9l-2.3-1.3.1-27.4c0-1.4 1-2 2.3-1.3z" fill="#3a6aad"/><path d="m85.1 61.8c-1.2-.7-2.3-.1-2.3 1.3l-.1 27.4.1-24.8-21.5-12.4v-2.6c0-1.4-1-3.2-2.3-3.9z" fill="#db6610"/><path d="m82.6 125.7-.1 24.7-21.5-12.4.1-24.8z" fill="#f36d00"/><path d="m108.9 80.8-.1 24.7-21.6-12.4.1-24.8z" fill="#1574f5"/><path d="m30.3 150.3-21.6-12.5.1-24.7 21.5 12.4z" fill="#1574f5"/><path d="m82.4 180.4-21.5-12.4.1-24.8 21.5 12.4z" fill="#1574f5"/><path d="m82.5 155.6-.1 24.8-21.5-12.4.1-24.8z" fill="#1574f5"/></svg>