<svg enable-background="new 0 0 122 197" viewBox="0 0 122 197" xmlns="http://www.w3.org/2000/svg" xmlns:xlink="http://www.w3.org/1999/xlink"><clipPath id="a"><path d="m87.8 116.2 3.6-12.3-3.6-13.8-23-7.8-21.7 10.6-11.9 35.5c1.6 3 4.5 5.8 8.9 8 11.6 5.9 29.4 5.7 40.7-.5.2-.1.4-.2.6-.3 9.1-5.3 11.2-13 6.4-19.4z"/></clipPath><clipPath id="b"><path d="m87.8 116.2 3.6-12.3-3.6-13.8-23-7.8-21.7 10.6-11.9 35.5c1.6 3 4.5 5.8 8.9 8 11.6 5.9 29.4 5.7 40.7-.5.2-.1.4-.2.6-.3 9.1-5.3 11.2-13 6.4-19.4z"/></clipPath><clipPath id="c"><path d="m87.8 116.2 3.6-12.3-3.6-13.8-23-7.8-21.7 10.6-11.9 35.5c1.6 3 4.5 5.8 8.9 8 11.6 5.9 29.4 5.7 40.7-.5.2-.1.4-.2.6-.3 9.1-5.3 11.2-13 6.4-19.4z"/></clipPath><path d="m8.9 134.3.1 35.9c0 .5.1 1 .4 1.6 2.6 5.2 7.6 9.9 14.4 13.6 9.9 5.4 22.9 8.3 36.6 8.2s26.7-3.1 36.4-8.6c.2-.1.4-.2.6-.3 10.4-6 15.6-13.9 15.6-21.8l-.1-35.9v.1c0-7.8-5.1-15.6-15.3-21.6-6.1-3.6-13.7-6.2-21.9-7.6-3.5-.6-7.4-.1-10 1.4-1.8 1.1-2.9 2.5-2.9 4v.3l.1 35.9c0 2.5 2.8 4.6 7 5.4.3.1.6.1.8.2-10.9 2.2-23.4 1-32.5-3.6-4.6-2.3-7.9-5.3-9.7-8.7-1.3-2.5-5.1-4.1-9.4-4.1h-.4c-2.6 0-5.1.6-7 1.7-1.8.9-2.8 2.4-2.8 3.9zm96.7 8.3c.2-.2.4-.4.6-.6-.2.2-.4.4-.6.6zm7.3-14.2c0-.2 0-.5 0-.7zm-.2 1.5c0-.2.1-.5.1-.7 0 .2 0 .5-.1.7zm-.3 1.5c.1-.2.1-.5.1-.7 0 .2 0 .4-.1.7zm-.4 1.4c.1-.2.1-.5.2-.7-.1.3-.1.5-.2.7zm-.6 1.5c.1-.2.2-.5.3-.7-.1.2-.2.5-.3.7zm-.6 1.4c.1-.2.2-.5.3-.7-.1.3-.2.5-.3.7zm-.8 1.4c.1-.2.2-.4.4-.7-.2.3-.3.5-.4.7zm-.9 1.4c.2-.2.3-.4.4-.7-.2.3-.3.5-.4.7zm-1.1 1.4c.2-.2.3-.4.5-.6-.2.2-.3.4-.5.6zm-1.1 1.4c.2-.2.4-.4.5-.6-.2.2-.3.4-.5.6zm-7.1 5.9c-.2.1-.4.3-.6.4.3-.2.4-.3.6-.4zm1.9-1.3c-.2.2-.4.3-.6.5.2-.2.4-.3.6-.5zm1.6-1.3c-.2.2-.4.4-.6.5.2-.1.4-.3.6-.5zm1.5-1.3c-.2.2-.4.4-.6.6.2-.2.4-.4.6-.6zm-95.8-8.5v.3c0-.1 0-.2 0-.3z" fill="#0a3847"/><path d="m6.3 130.5c0-2 1.4-3.8 3.7-5.1 2.2-1.3 5.4-2.1 8.9-2.1h.4c5.5 0 10.3 2.1 11.9 5.2 1.6 3 4.5 5.8 8.9 8 11.6 5.9 29.4 5.7 40.7-.5.2-.1.4-.2.6-.3 5.2-3 8.1-6.8 8.8-10.7-.7-3.8-3.6-7.6-8.6-10.5-3.6-2.1-7.9-3.5-12.4-4.3-5.2-.9-8.9-3.7-8.9-6.8v-3.6-.3c0-2 1.4-3.8 3.7-5.1 3.1-1.8 7.9-2.6 12.6-1.8 8.4 1.5 16.4 4.2 23 8 10.8 6.3 16.2 14.5 16.1 22.7v-.1 3.6c0 8.3-5.4 16.6-16.4 22.9-.2.1-.4.2-.6.3-21.2 11.9-55.2 12.1-76.7.4-7.4-4.1-12.5-9-15.2-14.3-.3-.7-.5-1.4-.5-2l0-3.6c0-.1 0-.1 0 0z" fill="#f36d00"/><path d="m10 125.3c-3.1 1.8-4.5 4.4-3.2 7.1 2.7 5.3 7.7 10.2 15.2 14.3 21.4 11.7 55.5 11.5 76.7-.4.2-.1.4-.2.6-.3 21.8-12.6 21.9-32.9.3-45.5-6.7-3.9-14.6-6.5-23-8-4.7-.8-9.5 0-12.6 1.8-2.2 1.3-3.6 3.1-3.7 5.1v.3c0 3.2 3.6 5.9 8.9 6.8 4.6.8 8.8 2.3 12.4 4.3 11.8 6.8 11.7 17.9-.2 24.8-.2.1-.4.2-.6.3-11.3 6.2-29.1 6.4-40.7.5-4.4-2.2-7.3-5-8.9-8-1.6-3.1-6.4-5.2-11.9-5.2h-.4c-3.5 0-6.6.8-8.9 2.1z" fill="#fff"/><g fill="#f36d00"><path d="m15.9 62.1h2.7v66.1h-2.7z"/><path d="m18.3 127.7c.5.3.5.8 0 1.1s-1.4.3-1.9 0-.5-.8 0-1.1 1.3-.3 1.9 0z"/><ellipse cx="17.3" cy="62.1" rx="1.4" ry=".8"/><path d="m96.6 73.9h2.7v66.1h-2.7z"/><ellipse cx="97.9" cy="140" rx="1.4" ry=".8"/><path d="m98.9 73.3c.5.3.5.8 0 1.1s-1.4.3-1.9 0-.5-.8 0-1.1 1.3-.3 1.9 0z"/><path d="m68.1 6.5h2.7v91.3h-2.7z"/><path d="m70.4 97.3c.5.3.5.8 0 1.1s-1.4.3-1.9 0-.5-.8 0-1.1c.5-.4 1.4-.4 1.9 0z"/><path d="m70.4 5.9c.5.3.5.8 0 1.1s-1.4.3-1.9 0-.5-.8 0-1.1 1.4-.3 1.9 0z"/></g><g enable-background="new"><path d="m8 36.5.1 21.6c0-7.9 5.2-15.8 15.6-21.8 20.7-12 54.2-12 74.8 0 10.2 5.9 15.4 13.7 15.4 21.5l-.1-21.6c0-7.8-5.1-15.6-15.4-21.5-20.6-12-54.1-12-74.8 0-10.4 6-15.6 13.9-15.6 21.8z" fill="#f36d00"/><path d="m5.4 36.5.1 21.6c0 8.2 5.4 16.4 16.1 22.6 21.6 12.6 56.8 12.6 78.6 0 11-6.3 16.4-14.6 16.4-22.9l-.1-21.6c0 8.3-5.4 16.6-16.4 22.9-21.8 12.6-56.9 12.6-78.6 0-10.7-6.2-16.1-14.4-16.1-22.6z" fill="#0a3847"/><path d="m100.4 13.6c21.6 12.6 21.5 32.9-.3 45.5s-56.9 12.6-78.6 0c-21.6-12.6-21.5-32.9.3-45.5s56.9-12.6 78.6 0zm-2.2 44.4c20.7-12 20.8-31.4.2-43.3-20.6-12-54.1-12-74.8 0s-20.8 31.4-.2 43.3c20.6 12 54.1 12 74.8 0z" fill="#fff"/></g><path clip-path="url(#a)" d="m78.8 114.1 2-1.3c.1-1 .3-2 .6-2.9.3-.8.4-1.2.5-1.9.1-.8.8-.9.8-.1-.1.8-.1 1.2-.2 1.8 0 .2.2.4.4.6.5-.1 1-.3 1.2-.6l1.1-1.3.8-1.1c.3-.5.9-.2.6.4l-.7 1.2-1.1 1.3 1-.5 1.2-1.2c.4-.4.8-.1.5.5l-1.2 1.4-1.2.8 1.2-.5.9-.6c.6-.3.7.2.2.6l-1.2.9c.5-.3.6.3-.1.8l-1.7 1.1-1.1.7-1.3.4-3.8 1.5z" fill="#ffae80"/><path clip-path="url(#b)" d="m81.6 115.3c-.6.5-2.1 1.1-3.1 1.5-2.1.8-5.8 2.6-6.1 2.7-.9.2-1.6 0-2.3-.9-1-2.7-4.4-9.5-4.4-9.7 0-.1 1.9-5.9 1.9-5.9 1.1 1.9 5.3 11.2 5.3 11.2l7.6-1.3h.2c-.2.6.1 1.9.9 2.4z" fill="#fff"/><g clip-path="url(#c)"><path d="m61.7 95c3.3.4 3.9 3.6 5.1 5.4 4.8-2.9 1.5-8.7-5.1-5.4z"/><path d="m57.7 170.3c.7 1.6 1.7 3 2.9 4 1.6 1.3 3.1 2.1 4.4 1.9 1.2-.5 1.2-1.5.7-2.9-.7-1.5-2.2-2.8-4-4 0 0-1.9-1.6-1.9-1.7 0 0-2.1 2.7-2.1 2.7z" fill="#0b1017"/><path d="m66.6 153.7c-1.3 3.9-3.7 8.9-6.5 14.3 0 0 3.4 2.9 2 4-2 1.6-4.7-3.4-4.7-3.4l3.9-13.6z" fill="#e89768"/><path d="m55 172.8v.2c-.6 0-1.3 2-1.1 3.5.8 2.2 0 4 .3 6.5.2 1.6.7 2.7 2 3.5 2.1 1.2 3.6 1.5 3.8-.3.2-1.2 0-2.3-.5-4.2l-1-4.8z" fill="#0b1017"/><path d="m58 182.4c-2.8.3-3.3-3.1-3.3-6.2 0-.9 0-1.8 0-2.5 2.5-6.3-1.9-11.9 1.1-17.3l-.4-2.2-1-6 7.2-.9 1.3 6.6.5 3.9c-.8 5.3-4.3 11.2-5 16.8-.2 2.7 1.2 7.6-.4 7.8z" fill="#ffae80"/><path d="m58.7 157.4c-3.3 2.7-.4 13.7-4.1 18.9 0-.9 0-1.8 0-2.5 2.5-6.3-1.9-11.9 1.1-17.3l-.4-2.2c1.6 1.3 3.4 3.1 3.4 3.1z" fill="#ffae80"/><path d="m68.8 137.4c.2 7.7-2 8.8-1.8 14.2 0 .4 0 .9-.1 1.3-.4 1.8-1.7 3.8-3.3 4.5-.2.1-.3.1-.5.2-1.6.2-3.2.2-4.5 0-1.5-.3-2.7-1.1-3.3-2.7 0-5.7-4.3-9.7-4.8-17.3-.2-3.2.6-6.3 2.6-8.5h2.5l12.6-.2z" fill="#0a3847"/><path d="m67.3 121.5v.7c-.1 2.2.2 4.4 1 6.5-.3 1.9-1.3 3.3-3.8 3.7-1 .2-1.9.3-2.8.3-4 .2-7.3-1-9-3.2 1.9-2 1.9-5 .7-7.8-.9-1.6-1.6-3.2-1.9-5-.5-2.2-.6-4.6-.4-7.1 2.5-2.6 5.2-4.7 8.2-5.4l6.7-2.5c2 .3 3.6 3.9 3 6.5.3 4.1 2.3 5.9 2.3 8.4 0 2.1-1.3 3.4-3.7 3.6 0 .3-.1.5-.1.8-.2.2-.2.3-.2.5z" fill="#f36d00"/><path d="m58.7 157.4s-.1 0-.2 0c-1.5-.3-2.7-1.1-3.3-2.7 0-5.7-4.3-9.7-4.8-17.3-.2-2.9.4-5.7 2.1-7.9v-.1c1.7 2.3 5 3.4 9 3.2.1.4.3.9.4 1.3-1.2-.1-2.7-.5-4.2-1-6.1 5.2-2.5 18.7 1 24.5z" fill="#2d2856" opacity=".5"/><path d="m67.4 120.2c0 .3-.1.5-.1.8v.4.7c-6.2 2.6-6.9 5.9-5.6 10.6-4 .2-7.3-1-9-3.2 1.9-2 1.9-5 .7-7.8-.9-1.6-1.6-3.2-1.9-5l4.1-2.2c.7 10.6 9 10 8.7 3.9.6.9 2.1 1.9 3.1 1.8z" fill="#db6610"/><path d="m63.7 102.5 1.7 2.7-1.2.8 1.5 1-1.5 8.5-1.6-3.5-1.2-10.3z" fill="#fff"/><g fill="#ffae80"><path d="m56.1 105.4c.9-1.5 1.2-2.9 1.4-4.7l5.3.4-.1 3.8c.9 2.4.7 4.1.8 8.4-1.8-2.3-7.1-5.9-7.4-7.9z"/><path d="m59.8 101.7c.4 3.1 1.6 7 3.3 6.9 1.2 0 .9-3.8 1.3-6.1z" opacity=".5"/><path d="m57.3 101.7c-3-5-1.4-9.3 2.6-10.2 4.4-1 7.4 2.2 7.4 6 .1 4.1-.9 7-2.5 7.2-2.6.4-4.4-.7-5.2-2.4z"/></g><path d="m58.1 103.4c.8-2.3.5-1.3.6-2l.2-1.3 1.2.5c2.4.1 2.8-4.1 7.3-3.5.4-4-2.6-6.2-6.2-6.1-7.9.6-8.2 8.1-3.1 12.4z" fill="#0b1017"/><path d="m60.1 102c.2-.6.3-.5.2-.8-.3-.8-.8-1.4-1.2-1.3-.3.1-.7.2-.8.5-.2.4 0 .8.1 1.1s.2.5.4.7.5.3.7.3c.2-.1.5-.3.6-.5z" fill="#ffae80"/><path d="m66.8 152.8c-.4 1.8-1.7 3.8-3.3 4.5.2-.5.3-1.1.4-1.5.5-3.8-1.1-7.1-.4-9.3.2 1.4.5 2.6 1.1 3.8.5 1.2 1.3 1.7 2.2 2.5z" fill="#2d2856" opacity=".5"/><path d="m64.2 115.5-.7-2.2-6.7-9.4-2.3 2.4 2.1 3.9 2.2-1.2-.7 2.2z" fill="#fff"/></g><path d="m66.5 138.6c-.2.1-.5.1-.8-.1-.6-.7-1.3-1.2-2.2-.9-.2.3-.2.7-.1 1.1v.1c.2.9.9 2.2 1.5 3.4.1.2 0 .4-.1.5s-.4.1-.6 0c0 .3-.4.5-.7.2l-.4-.5c-.1.4-.5.3-.7 0l-.8-1.1c-.6-.6-1.1-1.2-1.5-2-.1-.1-.1-.2-.2-.3-.4-1.2-.6-2.5-.6-3.7.3-1 1.2-1.2 2.4-.6l1.4.7c1.3.7 2 1.6 3.4 2.8.3 0 .2.2 0 .4z" fill="#ffae80"/><path d="m64.9 142.6c-.1.1-.4.1-.6 0 0 .3-.4.5-.7.2l-.4-.5c-.1.4-.5.3-.7 0l-.8-1.1c-.6-.6-1.1-1.2-1.5-2 .7.3 1.4.1 2.1-.3.6 1.5 1.8 3.5 2.6 3.7z" fill="#ffae80"/><path d="m66.5 138.6c-.2.1-.5.1-.8-.1-.6-.7-1.3-1.2-2.2-.9-.2.3-.2.7-.1 1.1l-.4-1.5c1.7-.4 2.8 1.1 3.5 1.4z" fill="#ffae80"/><path d="m50.9 109.6c-1.9 4.6.7 9.2 1.3 14.8 1.8 4.9 4.4 8.7 7.2 12.2.2-1 1.3-2.3 2.9-1.9l-5.4-11.1c-.1-3.4-.5-5.8-.7-10.6 0 0-.1-2.8-2-3.8-2.2-1.1-3.3.4-3.3.4z" fill="#fff"/><path d="m5.4 36.5.1 21.6c0 8.2 5.4 16.4 16.1 22.6 21.6 12.6 56.8 12.6 78.6 0 11-6.3 16.4-14.6 16.4-22.9l-.1-21.6c0 8.3-5.4 16.6-16.4 22.9-21.8 12.6-56.9 12.6-78.6 0-10.7-6.2-16.1-14.4-16.1-22.6z" fill="#0a3847"/><path d="m112.9 55.8c-2.7 4.1-7 8-12.7 11.4-21.7 12.5-56.8 12.6-78.5.1v7.4c21.6 12.5 56.7 12.5 78.5-.1 5.8-3.3 10-7.2 12.7-11.3z" fill="#fff"/><path d="m97 164.4c-20.4 11.2-52.5 11-72.4-.5v7c19.9 11.5 52 11.7 72.4.5z" fill="#fff"/><path d="m107.9 161.4c0 3.3-.9 6-2 6s-2-2.7-2-6 .9-6 2-6 2 2.6 2 6z" fill="#fff"/></svg>