<svg height="42.049" viewBox="0 0 154.549 42.049" width="154.549" xmlns="http://www.w3.org/2000/svg"><path d="m864.941 91.356a1.03 1.03 0 0 1 -1.029-1.03v-18.06a1.029 1.029 0 1 1 2.058 0v18.06a1.03 1.03 0 0 1 -1.029 1.03z" fill="#e03021" transform="translate(-823.109 -59.965)"/><path d="m870.108 93.816a1.03 1.03 0 0 1 -1.029-1.03v-20.518a1.029 1.029 0 1 1 2.059 0v20.519a1.03 1.03 0 0 1 -1.03 1.029z" fill="#ec6c2d" transform="translate(-826.21 -59.966)"/><path d="m875.275 96.165a1.03 1.03 0 0 1 -1.029-1.03v-22.867a1.029 1.029 0 1 1 2.058 0v22.867a1.03 1.03 0 0 1 -1.029 1.03z" fill="#edfb53" transform="translate(-829.312 -59.966)"/><path d="m880.442 106.269a1.029 1.029 0 0 1 -1.029-1.03v-19.739a1.029 1.029 0 1 1 2.059 0v19.735a1.029 1.029 0 0 1 -1.03 1.034z" fill="#71f17b" transform="translate(-832.414 -67.912)"/><path d="m885.609 111.337a1.03 1.03 0 0 1 -1.029-1.03v-19.955a1.029 1.029 0 0 1 2.059 0v19.955a1.03 1.03 0 0 1 -1.03 1.03z" fill="#1c5ff3" transform="translate(-835.515 -70.822)"/><path d="m890.777 114.057a1.03 1.03 0 0 1 -1.029-1.03v-20.7a1.029 1.029 0 1 1 2.058 0v20.7a1.03 1.03 0 0 1 -1.029 1.03z" fill="#8838ef" transform="translate(-838.618 -72.008)"/><path d="m895.944 111.337a1.03 1.03 0 0 1 -1.029-1.03v-19.955a1.029 1.029 0 0 1 2.059 0v19.955a1.03 1.03 0 0 1 -1.03 1.03z" fill="#67e0f0" transform="translate(-841.719 -70.822)"/><path d="m901.111 106.269a1.029 1.029 0 0 1 -1.029-1.03v-19.739a1.029 1.029 0 1 1 2.059 0v19.735a1.03 1.03 0 0 1 -1.03 1.034z" fill="#f6d0e4" transform="translate(-844.821 -67.912)"/><path d="m906.278 96.165a1.03 1.03 0 0 1 -1.029-1.03v-22.867a1.029 1.029 0 1 1 2.058 0v22.867a1.03 1.03 0 0 1 -1.029 1.03z" fill="#e1e1e1" transform="translate(-847.923 -59.966)"/><path d="m911.445 93.816a1.03 1.03 0 0 1 -1.029-1.03v-20.518a1.029 1.029 0 1 1 2.058 0v20.519a1.03 1.03 0 0 1 -1.029 1.029z" fill="#4a4a49" transform="translate(-851.025 -59.966)"/><path d="m916.612 91.356a1.03 1.03 0 0 1 -1.029-1.03v-18.06a1.029 1.029 0 0 1 2.059 0v18.06a1.03 1.03 0 0 1 -1.03 1.03z" fill="#af7f4a" transform="translate(-854.126 -59.965)"/><g fill="#f7f7f7"><path d="m768.624 64.174v10.966h-6.8v-30.489h11.482c6.192 0 10.45 4.085 10.45 9.761 0 5.763-4.258 9.762-10.45 9.762zm4-5.849c2.581 0 4.343-1.505 4.343-3.87 0-2.452-1.763-3.914-4.343-3.914h-3.956v7.784z" transform="translate(-761.829 -44.006)"/><path d="m836.96 73.587a8.884 8.884 0 0 0 -2.064-.215c-2.623 0-4.989 1.548-4.989 5.806v9.332h-6.536v-21.373h6.321v2.881c1.118-2.408 3.828-3.1 5.548-3.1a6.444 6.444 0 0 1 1.72.215z" transform="translate(-798.772 -57.375)"/><path d="m886.631 55.743a11.353 11.353 0 0 1 -22.706 0 11.353 11.353 0 0 1 22.706 0zm-6.536 0c0-3.612-2.323-5.289-4.816-5.289-2.452 0-4.817 1.677-4.817 5.289 0 3.57 2.365 5.333 4.817 5.333 2.493 0 4.815-1.72 4.815-5.333z" transform="translate(-823.116 -43.875)"/><path d="m942.43 86.682c-1.118 1.849-3.569 2.624-5.719 2.624-5.2 0-8.128-3.784-8.128-8.343v-13.503h6.536v12.126c0 2.064 1.118 3.7 3.44 3.7a3.409 3.409 0 0 0 3.57-3.655v-12.171h6.536v17.545a33.633 33.633 0 0 0 .215 3.827h-6.28a15.628 15.628 0 0 1 -.17-2.15z" transform="translate(-861.93 -57.698)"/><path d="m1009.793 70.344c0 1.935.13 3.354.172 3.827h-6.279a14.766 14.766 0 0 1 -.171-2.064 6.894 6.894 0 0 1 -5.72 2.537c-6.02 0-10.579-4.644-10.579-11.225 0-6.364 4.3-11.137 10.364-11.137 3.655 0 5.247 1.376 5.762 2.193v-11.438h6.451zm-11.181-1.544c2.537 0 4.816-1.806 4.816-5.333 0-3.569-2.279-5.289-4.816-5.289s-4.816 1.72-4.816 5.289c.004 3.523 2.279 5.333 4.816 5.333z" transform="translate(-897.127 -43.037)"/><path d="m1073.5 81.713c-1.032 3.7-4.429 6.795-9.848 6.795-5.892 0-11.138-4.215-11.138-11.4 0-6.881 5.117-11.267 10.665-11.267 6.622 0 10.708 4.086 10.708 10.966a13.661 13.661 0 0 1 -.129 2.021h-14.879a4.625 4.625 0 0 0 4.859 4.128 4.127 4.127 0 0 0 4.3-2.795zm-5.935-7.1c-.086-1.634-1.2-3.612-4.3-3.612a4.072 4.072 0 0 0 -4.258 3.612z" transform="translate(-936.327 -56.728)"/><path d="m1128.074 73.587a8.877 8.877 0 0 0 -2.064-.215c-2.624 0-4.988 1.548-4.988 5.806v9.332h-6.536v-21.373h6.322v2.881c1.118-2.408 3.827-3.1 5.547-3.1a6.441 6.441 0 0 1 1.72.215z" transform="translate(-973.525 -57.375)"/></g></svg>