<svg enable-background="new 0 0 277 351" viewBox="0 0 277 351" xmlns="http://www.w3.org/2000/svg"><path d="m14.8 255.5c3.6-.2 2.8-6.4 1.8-9.7-.4-1.2-1.8-1.8-3-1.4s-1.9 2.7-1.9 3.9c.1 1.2-1.2 7.5 3.1 7.2z" fill="#0a3847"/><path d="m16.8 249.1c.6-5.2-5-5.6-4.3 0 .2 1.5 1.1 2.6 2.1 2.6 1.5.1 2-1.5 2.2-2.6z" fill="#ffae80"/><path d="m33.6 247.1c1.6 1.3 3.6 1.9 5.5 1.9.3 0 .6 0 .7-.3.3-.3.1-.8-.1-1.2-1.8-3-5.2-5.5-6.7-8.7-.2-.4-.3-.8-.6-1-.5-.4-1.1-.3-1.7-.4-.5-.1-1.1-.5-1.6-.2-.4.2-.5.8-.7 1.3-.1.5-.4 1.9-.6 2.4s-.3 1.1-.1 1.6c.2.7.7 1.1 1.3 1.5.6.3 1.2.5 1.8.8 1.1.6 1.8 1.5 2.8 2.3z" fill="#ffae80"/><path d="m39.8 248.7c-.2.2-.5.2-.7.3-2 .1-4-.6-5.5-1.9-.9-.7-1.7-1.7-2.7-2.2-.6-.3-1.2-.5-1.8-.8s-1.1-.8-1.3-1.5c-.2-.5-.1-1.1.1-1.6s.4-1.7.5-2.2c0-.1.1-.1.1-.2.1-.5.2-1.1.7-1.3.5-.3 1 .1 1.6.2s1.2.1 1.7.4c.3.3.5.6.6 1 .6 1.3 1.5 2.3 2.5 3.2 1.5 1.5 3.2 3.6 4.3 5.4 0 .4.2.9-.1 1.2z" fill="#0a3847"/><path d="m36.5 243.8c0 .2 0 .4-.2.5-.1.1-.3.1-.5.1-1.8-.1-3.3-1.2-4.7-2.3-.7-.6-1.4-1.2-2-1.9-.3-.4-.6-.9-.9-1.5 0-.1.1-.1.1-.2.1-.5.2-1.5.6-1.8.5-.3 1.1 0 1.7.2.6.1 1.4-.2 1.9.2.3.3.2 1.1.4 1.5.6 1.3 1.6 2.6 2.5 3.5.3.4.6.8.8 1.2.1.1.2.3.3.5z" fill="#ffae80"/><path d="m34.8 207.9c-.1.8-.1 1.7-.2 2.8-.1 1-.1 2-.2 3.1-.1.9-.1 1.8-.2 2.8-.6 9.7-1.4 21.8-1.4 21.9-.9 1.7-4.2 2.1-4.5 0-.4-6.4-1.5-12-2.3-17.1-.3-1.7-.5-3.4-.7-5.1-.1-1.4-.2-2.8-.2-4.2v-.2c0-1.2.1-2.4.3-3.5.1-.3.1-.7.2-1l7.5-4.8c.1.2 1.7 5.1 1.7 5.3z" fill="#ffae80"/><path d="m26.1 197.2c-1.2 6.3-1.9 11.4-2.7 15.2-.1.3-.1.6-.2.9-.3 1.5-.6 2.8-1 3.9-.1.3-.2.5-.3.7l-.6 3-.3 1.3-4.8 23-.2.8-.2.8c0 1.8-2.8 1.2-2.9-.3 0-.1 0-.2 0-.3 0-.3-.1-.7-.1-1-1.5-13.9-1.1-19.4-.1-24.7.1-.7.2-1.3.4-2l.6-3c-.1-.3-.1-.7-.1-1 0-.1 0-.2 0-.3s0-.1 0-.1c-.8-7.2-.6-12.7-.4-16.6h12.9z" fill="#ffae80"/><path d="m26.1 197.2c-1.2 6.3-1.9 11.4-2.7 15.2-.1.3-.1.6-.2.9-.3 1.5-.6 2.8-1 3.9-.1.3-.2.5-.3.7l-.6 3-.3 1.3-4.8 23-.2.8-.2.8c0 1.8-2.8 1.2-2.9-.3 0-.1 0-.2 0-.3 0-.3-.1-.7-.1-1-1.5-13.9-1.1-19.4-.1-24.7.1-.7.2-1.3.4-2l.6-3c-.1-.3-.1-.7-.1-1 0-.1 0-.2 0-.3s0-.1 0-.1c-.8-7.2-.6-12.7-.4-16.6h12.9z" fill="#ffbb7d"/><path d="m34.7 210.7c-.1 1-.1 2-.2 3.1-.1.9-.1 1.8-.2 2.8-1.9 2.1-4.8 3.8-8.2 4.8-.3-1.7-.5-3.4-.7-5.1-.1-1.4-.2-2.8-.2-4.2z" fill="#ffae80"/><path d="m34.5 213.2c-1.1 3.1-16.4 9.3-21.3 4.5l-1.4-21.2c-1.3-6.9-.2-10.5 3.4-13.9.4-.4.9-.8 1.4-1.2l10.8-.4 4.2-.2c3.6 11.7 3.7 24.4 2.9 32.4z" fill="#0a3847"/><path d="m31.6 180.8c-1 2.5-2.4 4.4-5.1 5.1s-8.2.1-11.3-3.2c-3.6 3.4-4.8 6.9-3.4 13.9l1.4 21.2c.4.4 1.2.9 2.4 1.4-1-7.4.1-24.4 1.7-30.2 8.9.3 12.7-1.7 14.8-6.7z" fill="#07303d"/><path d="m21.6 149.9c0 2.5-2 4.5-4.5 4.5s-4.5-2-4.5-4.5 2-4.5 4.5-4.5 4.5 2 4.5 4.5z" fill="#0b1017"/><path d="m52.7 177-1.4 2.6c-.5-.1-1-.3-1.6-.5-4.8-1.5-9.6-3.7-14.3-6.6l-7.6-9.4-1.3-1.7 1.2-10.7c2.9.1 7.4 8.1 12 17z" fill="#1574f5"/><path d="m49.7 179.1c-4.8-1.5-9.6-3.7-14.3-6.6l-7.6-9.4c.4-1 1.2-3.2 1.2-2.9-.2.6 7.3 11 7.4 11.6z" fill="#1574f5"/><path d="m61.1 184.1c.2.6-.1.9-.8.6l-.6-.3c.1.3-.1.4-.5.3 0 0-.1 0-.2 0l-7.2-3.6c-.7-.4-1.1-.9-1.2-1.4-.2-.6-.1-1.2.2-1.9 0 0 1.5-2.9 5 .2 1.9 1.7 3.1 2.6 3.7 3.1.1 0 .1.1.2.1.4.3.6.4.6.4.4.5.4.9 0 1l.8.6c.3.5.4.8 0 .9z" fill="#ffae80"/><path d="m59.7 181.2s-.6 3.6-.6 3.6-.1 0-.2 0l-7.2-3.6c-.7-.4-1.1-.9-1.2-1.4 1.5.6 2.3-.4 2.9-1.3.7-1.1 5.1 2.1 6.1 2.8.2-.1.2-.1.2-.1z" fill="#1d1d1b" opacity=".15"/><path d="m56 169-3.5 20.4 10.5 6.3 3.6-21.1z" fill="#ededed"/><path d="m51.4 179.2s1.3 1.3 3.5.6l2.2.6c1.5.4 1.3-.8.2-1.1 0 0-3.2-1.3-4.1-2.4z" fill="#ffae80"/><path d="m36.1 170.1c0 2.2-2.1 4.2-4.6 3.8v.5c-.1 1.3-.3 2.9-.3 4.4v.4c0 .4.1.8.1 1.1 0 .2.1.3.1.5-1.1 2.5-2.4 4.4-5.2 5.1-.7.2-1.6.3-2.5.3-2.9 0-6.6-1-9-3.6.5-3.9-.8-8.9-2.2-13-1.1-3.2-2.2-6-2.4-7.4 2.5-3.2 5.6-5.8 8.8-8.1s4.7-5.1 8.4-3.8c3.7 1.4 4.1 8.8 5.5 11.7 1.5 3 3.3 5.1 3.3 8.1z" fill="#1574f5"/><path d="m31.3 180.3c0 .2.1.3.1.5-1.4 4-4 5.9-7.7 5.4-2.9 0-6.6-1-9-3.6.5-3.9-.8-8.9-2.2-13l3.4-.9 3.6 5.8c2.8 4.8 10.2 3.8 10.5-1l1.3.4v.5c0 1.9-.3 3.2-.3 4.4v.4c.2.4.2.8.3 1.1z" fill="#3767ac"/><path d="m10.2 162.3c-3.1 5.3-4.8 11.3-5.3 17.9-.8 4.8.1 13.7 2.3 18.3.5-.7 1.5-1 3.1-.8.4-6.5.8-12.8 0-16.1l4.9-10.7c3.2-7.2-2.3-12.1-5-8.6z" fill="#1574f5"/><path d="m16.1 202.8c-.3.2-.7.2-1-.1-.8-.9-1.7-1.5-2.8-1.1-.2.4-.2.8-.1 1.4v.1c.3 1.2 1.1 2.8 1.9 4.3.1.3 0 .5-.1.6-.2.2-.5.2-.8 0 0 .4-.5.6-.9.2l-.6-.6c-.1.5-.7.4-.9 0l-1.1-1.3c-.7-.7-1.3-1.6-1.8-2.5-.1-.1-.1-.3-.2-.4-.5-1.6-.8-3.2-.7-4.7.4-1.3 1.5-1.5 3.1-.8l1.8.9c1.7.8 2.5 2 4.3 3.5.3.1.2.4-.1.5z" fill="#ffae80"/><path d="m14.1 207.9c-.2.2-.5.2-.8 0 0 .4-.5.6-.9.2l-.6-.6c-.1.5-.7.4-.9 0l-1.1-1.3c-.7-.7-1.3-1.6-1.8-2.5.9.4 1.8.1 2.7-.4.9 1.8 2.3 4.3 3.4 4.6z" opacity=".15"/><path d="m16.1 202.8c-.3.2-.7.2-1-.1-.8-.9-1.7-1.5-2.8-1.1-.2.4-.2.8-.1 1.4l-.5-1.9c2.1-.6 3.5 1.3 4.4 1.7z" opacity=".15"/><path d="m33.8 173.6c.5-.2 1-.6 1.5-1.1-.3.5-.9.9-1.5 1.1z" fill="#1d1d1b" opacity=".1"/><path d="m19.4 149.5c-.5 1.7-.9 4-1.5 5.8-.4 2 3.3 5.9 5.8 5.8 1.7-.3 1.7-3.7 2-5.8z" fill="#ffae80"/><path d="m20 152.2c1.7 2.2 3.6 4 6.7 3.6 1.1-.2 2.2-1.9 2.1-8.6 0-2.3-1.3-5-2.3-6.3-1.5-1.8-4.1-2.5-6.5-1.9-3.5.8-5.1 3.5-4.7 6.8.7 4.5 2.7 6.2 4.7 6.4z" fill="#ffae80"/><path d="m18.9 151.7s.8-.2 1.5-1.3.8-2.3.9-3.7c3.2-.3 6.5-2.6 6.5-3.7-.1-1.5-1-2.8-3.7-3.9-3-1.1-5.7-.4-7.8 1.9-3.3 3.6-.3 10.1 2.5 11.2z" fill="#0b1017"/><path d="m19.6 150.9c-.2-.3-.5-.7-.8-.9-.3-.3-.7-.4-1.1-.4-.1 0-.2 0-.3.1-.2.1-.3.4-.3.6s.1.5.2.7c.2.4.4.8.8 1.1.3.3.8.5 1.3.5.2 0 .4 0 .5-.2.1-.1.2-.2.2-.4 0-.3-.3-.8-.5-1.1z" fill="#ffae80"/><path d="m107.8 229.6 107.4 62 .3-111.6c0-6.5-4.5-14.4-10.2-17.6l-69.8-40.4-17.1-9.9c-3.8-2.2-7.1-1.7-8.8.8-.9 1.2-1.4 2.9-1.4 5.1z" fill="#cecece"/><path d="m155.5 209.3 7.6-4.4 50.7 29.3c.6.3 1.1.7 1.7 1.1l-27.4 15.8-32.6-18.8c-8.8-5.1-8.8-17.9 0-23z" fill="#373737"/><path d="m155.5 209.3 7.6-4.4 50.7 29.3c.6.3 1.1.7 1.7 1.1l-27.4 15.8-32.6-18.8c-8.8-5.1-8.8-17.9 0-23z" fill="#0a3847"/><path d="m155.5 206.4 7.6-4.4 50.7 29.3c.6.3 1.1.7 1.7 1.1l-27.4 15.8-32.6-18.8c-8.8-5.1-8.8-17.9 0-23z" fill="#0a3847"/><path d="m164.9 221.9c.1.1.1.1 0 0l15.6 9.1s-.1 0-.1-.1c.2.2.5.2.8 0l11.7-6.8c.5-.3.9-1 .9-1.6 0-.3-.1-.5-.3-.6l-8.4-4.9 3.5-14c.1-.5 0-.8-.2-1l-15.5-9c-.1-.1-.2-.1-.4-.1-.1 0-.2.1-.3.1-.4.2-.8.7-.9 1.2l-6.6 26.6c0 .6.1 1 .2 1.1z" fill="#373737"/><g enable-background="new"><path d="m177.4 213c.3-.2.5-.2.7-.1l15.5 9c-.2-.1-.4-.1-.7.1l-10.4 6-15.5-9z" fill="#f36d00"/><path d="m164.8 221 6.6-26.6c.1-.5.5-1 .9-1.2.1-.1.2-.1.3-.1s.3 0 .4.1l15.5 9c-.1-.1-.2-.1-.4-.1-.1 0-.2.1-.3.1-.4.2-.8.7-.9 1.2l-6.6 26.6c-.1.4 0 .7.1.9 0 0 .1.1.1.1l-15.5-9s-.1 0-.1-.1c-.1-.1-.2-.5-.1-.9z" fill="#f36d00"/><path d="m184.8 203c0-.1.1-.2.1-.3l-11.6-6.7-6.1 24.8 11.6 6.7z" fill="#fff"/><path d="m187.8 202.2c-.4.2-.8.7-.9 1.2l-6.6 26.6c-.1.4 0 .7.1.9.2.2.5.2.8 0l11.7-6.8c.5-.3.9-1 .9-1.6s-.4-.8-.9-.5l-10.4 6 6.2-24.9c.2-.7-.1-1.1-.6-1-.1 0-.2.1-.3.1z" fill="#db6610"/></g><path d="m83.2 132.4c0-3.2 1.2-5.5 3-6.6 0 0 24.9-14.5 24.9-14.5 1.9-1.1 4.4-.9 7.3.7l86.9 50.2c5.6 3.3 10.2 11.1 10.2 17.6l-.3 111.6-25 14.6-2.5-1.4.3-111.6c0-4.9-3.4-10.9-7.7-13.3l-74.1-42.8 4 94.1-24.9 14.5-2.5-1.5z" fill="#0a3847"/><path d="m85.3 245.5 24.9-14.5.3-91.7-17.1-9.9c-4.3-2.5-7.7-.5-7.7 4.4z" fill="#0a3847"/><path d="m82.8 244 2.5 1.5.3-111.6c0-4.9 3.5-6.9 7.7-4.4l17.1 9.9 69.8 40.3c4.2 2.5 7.7 8.4 7.7 13.3l-.3 111.6 2.5 1.4.3-111.6c0-6.5-4.5-14.4-10.2-17.6l-69.8-40.3-17.1-9.9c-3.8-2.2-7.1-1.7-8.8.8-.9 1.2-1.4 2.9-1.4 5.1z" fill="#fff"/><path d="m49.2 235.4c-5.6 3.3-10.2 11.2-10.2 17.6l.3 46.4s-24.9-14.5-24.9-14.5l-.3-46.4c0-6.5 4.5-14.4 10.2-17.6l86-49.7 25 14.4z" fill="#0a3847"/><path d="m41.5 251.6c0-4.9 3.4-10.9 7.7-13.3-4.2 2.5-7.7 8.4-7.7 13.3l.3 46.4-1.8 1.1 1.8-1.1z" fill="#ccc"/><path d="m49.2 238.3c-4.2 2.5-7.7 8.4-7.7 13.3l.3 46.4-1.8 1.1-.7.4s-.3-46.4-.3-46.4c0-6.5 4.5-14.4 10.2-17.6l86.1-49.7v2.9z" fill="#fff"/><path d="m27.6 221.5c.1 0 .1.1 0 0l15.6 9.1s-.1 0-.1-.1c.2.2.5.2.8 0l11.7-6.8c.5-.3.9-1 .9-1.6 0-.3-.1-.5-.3-.6l-8.4-4.9 3.5-14c.1-.5 0-.8-.2-1l-15.5-9c-.1-.1-.2-.1-.4-.1-.1 0-.2.1-.3.1-.4.2-.8.7-.9 1.2l-6.6 26.6c0 .6 0 .9.2 1.1z" fill="#373737"/><g enable-background="new"><path d="m40.1 212.6c.3-.2.5-.2.7-.1l15.5 9c-.2-.1-.4-.1-.7.1l-10.4 6-15.5-9z" fill="#db6610"/><path d="m27.5 220.6 6.6-26.6c.1-.5.5-1 .9-1.2.1-.1.2-.1.3-.1s.3 0 .4.1l15.5 9c-.1-.1-.2-.1-.4-.1-.1 0-.2.1-.3.1-.4.2-.8.7-.9 1.2l-6.6 26.6c-.1.4 0 .7.1.9 0 0 .1.1.1.1l-15.5-9s-.1 0-.1-.1c-.2-.2-.2-.5-.1-.9z" fill="#f36d00"/><path d="m47.5 202.5c0-.1.1-.2.1-.3l-11.6-6.7-6.1 24.8 11.6 6.7z" fill="#fff"/><path d="m50.5 201.8c-.4.2-.8.7-.9 1.2l-6.6 26.6c-.1.4 0 .7.1.9.2.2.5.2.8 0l11.7-6.8c.5-.3.9-1 .9-1.6s-.4-.8-.9-.5l-10.4 6 6.2-24.9c.2-.7-.1-1.1-.6-1-.1 0-.2.1-.3.1z" fill="#db6610"/></g><path d="m196.2 210.2c0 4.2 3.4 5.6 7.6 3.2s7.6-7.7 7.6-11.9-3.4-5.6-7.6-3.2-7.6 7.7-7.6 11.9z" fill="#fff"/><path d="m196.2 226.5 15.2-8.7v-5.8l-15.2 8.7z" fill="#0a3847"/><path d="m196.2 235.2 15.2-8.7v-3l-15.2 8.8z" fill="#fff"/><path d="m196.2 240.6 15.2-8.7v-3l-15.2 8.8z" fill="#fff"/><path d="m199 241.5 12.4-7.2v2.9l-12.4 7.2z" fill="#fff"/><path d="m196.2 251.4 15.2-8.8v-2.9l-15.2 8.7z" fill="#fff"/><path d="m145 245.5c-.5 1.2-1 2.4-1.5 3.5-.4 1.7-1.2 3.2-2 4.7-.3 1.1.3 1.1 1.3.6l2.2-3.2c.6.5 1 1.4 1.4 2.5l-.6 4.9c.2 1 .5.9 1 .3l.9-4.5.1 4.8c.3.4.6.3.8-.4l.3-1.4c.2.5.5.4.7-.1 0 0 .2-5.8.2-5.9s-1.9-6.7-1.9-6.7l-.7-1.4-2.9.8z" fill="#ffae80"/><path d="m135.7 217.9c1 3.9.8 8.6 2.1 14.2 1.8 5.6 4 8.4 6.6 14.8.4.6 4-.2 3.8-.8-2.7-12.3-1.1-8.3-2.8-13.6-.8-4.1-.8-9.3-1.3-14.2-.3-3.2-1.5-5-3.2-5.8-3.9-1.3-7.4 1.7-5.2 5.4z" fill="#fff"/><path d="m136 299.6s-.5 2.9-.3 4.2c.3 1.3 3.6 2.1 3.6 2.1s2.8 3.4 6.7 3.1c2.3-.2 3.1-.8 3.5-1.5s0-1.6-.4-2.2c-.5-.6-3.4-1.7-4.6-3.6-.6-.9-1.6-2.9-1.6-2.9l-.1-1.1c-.2-1.5-1.4-2.7-2.9-2.7-2-.1-3.6 1.6-3.5 3.5v.6z" fill="#0b1017"/><path d="m122.3 308.4c-.5.9-.5 2.5-.5 4.7.6 1.2 1.5 2.3 2.7 2.6 0 0 .9 4 6.3 4.2 5.1.1 5-1.9 5-1.9s0-1.2-1.2-2.1c-.7-.6-3.4-2.9-4.1-3.8s-1.2-2.2-1.2-2.2l-.2-3.7h-6.8z" fill="#0b1017"/><path d="m141.8 245-9 12.2c.4 3.4 1.1 12.7 1.9 15.8-1.7 12 .5 25.7 1.5 26.5 1.4 1.1 4.7 1.8 6.6-1 0 0-.9-13.2.8-27z" fill="#07303d"/><path d="m135.5 254.8-2.5 22.6c-2.8 14-4 32.2-4 32.2-1.6 2.9-5.9 1.7-7.3 0-.2-1.8-.3-3.7-.4-5.6-.5-8.4-.5-17.7 2.7-25.7-1-5.9-2.1-16.9-1.5-22.2-1-3.1-1.4-7.4.4-11.8 0-.1 0-.1.1-.2 0 0 .1.1.2.1.7.6 1.6 1.1 2.5 1.4 6.5 2.1 16.2-3.2 16.3-3.1.1 6.7-2.3 9.2-6.5 12.3z" fill="#0a3847"/><path d="m126.3 278.8c-3.1 5.5-4.3 14.9-5 25.2-.5-8.4-.5-17.7 2.7-25.7-1-5.9-2.1-16.9-1.5-22.2-1-3.1-1.4-7.4.4-11.8h.2l3.3-.5c-.3.6-.5 1.3-.7 1.9-1.2 3.5-1.3 6.9-.2 10-1.4 6.6-.6 14.7.8 23.1z" fill="#07303d"/><path d="m143.4 234.4c-.4 2.7-1 5.3-1.5 7.8 0 0 0 .7-.4 1.5-.6 1.4-2.3 3.3-6.6 3.7-2.9.4-5.1.4-6.7.2-1.2-.2-2.2-.4-3-.8 0 0-.1 0-.1-.1l-.5-.2c-2.2-1.3-2.1-3.1-2.1-3.1-.9-4.5-1.5-9.1-1.8-13.7-.1-1.2-.1-2.8 0-4.6.1-3.4 1.1-7.2 1.1-9.5 4.7-1.8 5.8-2.8 9.7-5 4-.8 7.8-.5 11.2.1 2.2 8.4 1.9 16.4.7 23.7z" fill="#fff"/><path d="m125.2 246.7s-.1-.1-.1-.1l-.5-.2c-2.2-1.3-2.1-3.1-2.1-3.1-.9-4.5-1.5-9.1-1.8-13.7-.1-1.2-.1-2.8 0-4.6 1.8-1 3.8-2.1 3.8-2.1-1.6 7.5-1.1 15.5.7 23.8z" fill="#f8f5f2"/><path d="m135 218.6.7 2.1 1.2-.5v-2.3l-1.2-.8z" fill="#0a3847"/><path d="m135.7 220.7c.3 4.4.3 12.7 0 17.3l2 1.9 1.3-3c-.3-4.5-1.1-12.3-2.1-16.6z" fill="#0a3847"/><path d="m132.3 208.5c-.1 0-2.4 2.9-2.4 2.9-3.1 1.7.9 8.2 5.1 7.6l3.5-2.4z" fill="#ffae80"/><path d="m130.6 210.5c-.6.4-1.6 1.1-2.4 1.9 0 0 1.7 7.9 6.8 8.3.4-1.4.9-2.4.9-2.4-3.2-.6-5.3-5.4-5.3-7.8z" fill="#f8f5f2"/><path d="m135.9 218.2 1.9 1.8s1.8-7.4.2-9c-1.5-1.5-2.1 7.2-2.1 7.2z" fill="#f8f5f2"/><path d="m137.5 200.7c-3.8 0-5.9 1.8-6.1 5.7.1 4.1.3 6.6 2.3 9.4 1.2 1.6 2.9 2.7 4.9 2.6 2.3-.1 5.7-5.6 6-9.6.5-3.9-2.9-7-7.1-8.1z" fill="#ffae80"/><path d="m144.1 211.8c-.9 2-5.8 1.6-8-.8l-.2 1.5-2-1.7-1.8 2.3-.6-.9c-1.6-3.2-1.5-8.5 3-11.1 6-2.5 13.6 4.6 9.6 10.7z"/><path d="m133.2 212.5c-.2-.4-.4-.8-.5-1.3 0-.5.1-1 .4-1.3.4-.3.9-.4 1.3-.1.3.2.4.5.4.9 0 .3-.1.6-.2.9s-.2.6-.2.8c-.1.2-.1.4-.3.5s-.4 0-.5-.1c-.2 0-.3-.1-.4-.3z" fill="#ffae80"/><path d="m113.6 253.9-.2 3.5.1 3.1.9 2.3c.2.6.8.7.6 0l.8 2.5c.2.8.9.8.9 0l-.6-3.4 2.1 4.6c.3.7 1.2.8 1-.2l-1.5-5 1.6 2.7 1.5 1.8c.6.6 1.5.3 1.1-.5l-1.6-2.6s-.7-2-1-2.9c0-.2.4-2 .4-2l3.6 1.9c1 .3 1.4-.5.5-1.2l-3.7-3.2s-2.1-1.3-2.3-1.4-.2-.1-.2-.1l-.5-1.7-3.5.3z" fill="#ffae80"/><path d="m120.4 216.4c-3.9 4.2-5.9 9.1-8.8 16.4-.7 6 .4 13.5 1.9 21.4 1.1.6 2.3.1 3.9-.6-.1-5.9 1.3-11.9.7-17.7 3.1-2 6.2-7.6 9.6-12.6 1-6.8-3.1-10.6-7.3-6.9z" fill="#fff"/><path d="m169.8 326.9c-3.7-.2-2.9-6.5-1.9-9.9.4-1.2 1.8-1.8 3-1.4s2 2.7 1.9 4c.1 1.2 1.4 7.6-3 7.3z" fill="#0a3847"/><path d="m167.8 320.5c-.6-5.3 5.1-5.7 4.4 0-.2 1.5-1.2 2.6-2.1 2.7-1.6 0-2.2-1.6-2.3-2.7z" fill="#ffae80"/><path d="m150.8 318.4c-1.6 1.3-3.6 2-5.6 1.9-.3 0-.6 0-.8-.3-.3-.3-.1-.8.1-1.2 1.9-3 5.3-5.6 6.9-8.8.2-.4.3-.8.6-1 .5-.4 1.2-.3 1.7-.4s1.1-.5 1.6-.2c.4.2.5.9.7 1.4.1.5.4 1.9.6 2.4s.3 1.1.1 1.7c-.2.7-.8 1.2-1.4 1.5s-1.3.5-1.9.9c-.9.4-1.7 1.3-2.6 2.1z" fill="#ffae80"/><path d="m144.4 320c.2.2.5.2.8.3 2 .1 4-.6 5.6-1.9.9-.7 1.7-1.7 2.8-2.3.6-.3 1.3-.5 1.9-.8s1.2-.8 1.4-1.5c.2-.5.1-1.1-.1-1.7-.2-.5-.4-1.8-.5-2.2 0-.1-.1-.1-.1-.2-.1-.5-.2-1.1-.7-1.4s-1.1.1-1.6.2c-.6.1-1.3.1-1.7.4-.3.3-.5.7-.6 1-.6 1.3-1.5 2.3-2.5 3.3-1.5 1.5-3.2 3.7-4.4 5.5-.4.5-.6 1-.3 1.3z" fill="#0a3847"/><path d="m147.8 315c0 .2 0 .4.2.5.1.1.3.1.5.1 1.8-.1 3.4-1.2 4.8-2.4.7-.6 1.4-1.2 2-1.9.3-.5.7-.9.9-1.5 0-.1-.1-.1-.1-.2-.1-.5-.2-1.6-.6-1.8-.5-.3-1.1 0-1.7.2-.6.1-1.5-.2-1.9.2-.3.3-.2 1.1-.4 1.5-.6 1.3-1.6 2.6-2.6 3.6-.3.4-.6.8-.8 1.2-.2.2-.3.3-.3.5z" fill="#ffae80"/><path d="m149.5 278.6c.1.8.1 1.8.2 2.8s.1 2.1.2 3.2c.1.9.1 1.9.2 2.9.6 9.9 1.4 22.2 1.4 22.2.9 1.7 4.3 2.1 4.6 0 .4-6.5 1.5-12.2 2.3-17.4.3-1.8.5-3.5.7-5.2.1-1.4.2-2.8.2-4.2v-.2c0-1.2-.1-2.4-.3-3.6-.1-.4-.1-.7-.2-1l-7.6-4.9c-.1.1-1.7 5.2-1.7 5.4z" fill="#ffae80"/><path d="m158.4 267.7c1.3 6.4 2 11.5 2.7 15.5.1.3.1.6.2.9.3 1.5.6 2.8 1 3.9.1.3.2.5.3.7l.6 3 .3 1.3 4.9 23.3.2.8.2.8c0 1.8 2.8 1.2 3-.3 0-.1 0-.2 0-.4 0-.3.1-.7.1-1 1.5-14.1 1.1-19.8.1-25.1-.1-.7-.2-1.4-.4-2-.2-1-.4-2-.6-3.1.1-.3.1-.7.1-1 0-.1 0-.2 0-.3s0-.1 0-.1c.8-7.3.6-13 .4-16.8h-13.1z" fill="#ffae80"/><path d="m158.4 267.7c1.3 6.4 2 11.5 2.7 15.5.1.3.1.6.2.9.3 1.5.6 2.8 1 3.9.1.3.2.5.3.7l.6 3 .3 1.3 4.9 23.3.2.8.2.8c0 1.8 2.8 1.2 3-.3 0-.1 0-.2 0-.4 0-.3.1-.7.1-1 1.5-14.1 1.1-19.8.1-25.1-.1-.7-.2-1.4-.4-2-.2-1-.4-2-.6-3.1.1-.3.1-.7.1-1 0-.1 0-.2 0-.3s0-.1 0-.1c.8-7.3.6-13 .4-16.8h-13.1z" fill="#ffae80"/><path d="m141.7 250.4 11.8-2.4s4.5-14.9 4.3-15.1-4.5-9.2-4.5-9.2l-3.4 18.7-10.2 5.1z" fill="#3f76ab"/><path d="m141.7 250.4 11.8-2.4s4.5-14.9 4.3-15.1-4.5-9.2-4.5-9.2l-3.4 18.7-10.2 5.1z" fill="#fff"/><path d="m164.8 214.6c7.5 2.4 5.9 9.6 3.9 15.1l-5.3-5z" fill="#1d1d1b"/><path d="m149.8 284c1.1 3.1 16.7 9.4 21.7 4.5l1.4-21.5c1.3-7.1.2-10.7-3.5-14.1-.4-.4-.9-.8-1.4-1.2l-10.9-.4-4.3-.2c-3.8 11.8-3.9 24.7-3 32.9z" fill="#0a3847"/><path d="m148.1 240.3c0 2.2 2.1 4.2 4.6 3.8 0 2.1.6 5 0 6.9 1 2.5 2.4 4.4 5.2 5.1s8.3.1 11.5-3.3c-.5-3.9.8-8.8 2.2-13 1.1-3.2 1.4-7.3 1.7-8.7-2.5-3.2-4.9-4.5-8.1-6.8s-5.7-4.9-9.4-3.5-3.1 8.5-4.5 11.4c-1.4 3.1-3.2 5.1-3.2 8.1z" fill="#fff"/><path d="m152.7 251c1 2.5 2.4 4.4 5.2 5.1s8.3.1 11.5-3.3c3.7 3.4 4.8 7.1 3.5 14.1l-1.4 21.5c-.4.4-1.2 1-2.4 1.4 1-7.5-.1-24.8-1.7-30.7-9.1.4-12.9-1.8-15-6.8z" fill="#07303d"/><path d="m152.7 251c1 2.5 2.4 4.4 5.2 5.1s8.3.1 11.5-3.3c-.5-3.9.8-8.8 2.2-13l-2.7-2.3-4.3 7.2c-2.8 4.8-10.2 3.8-10.5-1l-1.3.4c0 2.1.6 5-.1 6.9z" fill="#f8f5f2"/><path d="m161.8 248.3c-.4.7-1.1 1.3-2.2 1.7l-1.5.3c-.1.5-.8.5-1.5.6-.5-.1-.7-.3-.7-.7-.4-.3-.6-.6-.5-1-.4-.3-.5-.6-.3-1.1-.3-.4-.5-.7-.2-1.2l-3.8.4c-.8.1-1.1-.7 0-.9l7-1.3c1-.2 2-.2 3 0l2.4.6-.1 2.9z" fill="#ffae80"/><path d="m173.3 231.2c4 4.9 8.2 18.5 5.3 20.5-3.3 2.9-10.4-.3-16.9-3 .3-1.6.4-2.7-.6-3.5l12.1 1.4-4.8-7.7c-1.9-6.3 1.3-10.1 4.9-7.7z" fill="#fff"/><path d="m163.8 219.5c.5 1.6 1.8 4.2 2.1 5.8.4 1.9-3.2 4.9-5.6 4.8-1.7-.3-2.1-2.5-2.4-4.5z" fill="#ffae80"/><path d="m162.5 220.7s1.4 11.6-4.2 10.6c-3.6-.6-2.9-6.6-2.9-6.6z" fill="#ffae80" opacity=".5"/><path d="m156.1 213.5c-4.8.7-10.1 6.6-2.1 9.8-.2-2.6-.7-4.6 2.1-9.8z" fill="#1d1d1b"/><path d="m159 210.1c-5.6.8-7.3 4-6.7 8.5.1 3.7 3.2 8.6 5.3 8.6 3.1.2 4.6-3.4 7.2-7.3 2.1-6.4-.6-10.5-5.8-9.8z" fill="#ffae80"/><path d="m152.4 218.7c1.2 1.2 3 1.9 5.3 2.5 2 .8 3.8.7 4.6 1.8l2.3-.9c2.3-2.6 2.5-10.1-1.4-11.7-6.3-2.6-13.7 3.7-10.8 8.3z" fill="#1d1d1b"/><path d="m162.4 221.9c.3-1.4 1.3-2.3 2.1-1.5.4.4.4 1 0 1.9-.3.7-.7 1-1.2 1.1-.8 0-1.2-.5-.9-1.5z" fill="#ffae80"/><path d="m145.1 238.6c3.5 3.3 5.9 8.3 7.7 15.6l-12.2.4c.2-5.7-3.5-11-8.2-16z" fill="#d6eeeb"/><path d="m140.9 247.8c1.3.1 1.3 1.1.3 1.2 1.4 0 1.7 1.2.5 1.3.8 0 1 1-.2 1.1.9.3 1 .8 0 1l-1.4.1c-.5.1-1.3-.3-1.1-1-.5 0-.8-1.1-.6-1.2-.4-.2-.7-1-.4-1.3-.6-.3-.7-1.2.2-2.1l.4-.4.6 1.2z" fill="#ffae80"/><path d="m68.3 184.2v3.6l-5.3-.1.7-4.3z" fill="#ffae80"/><path d="m65.6 181.7-2.1-1.2-2.8 1.5c-.7.4-.9 1.5.2 1.2l1.9-.4c-.1 1.3.2 1.8.9 2.6l1 .9 3.3-.1.4-2z" fill="#ffae80"/><path d="m77.9 184.9-9.6-.7c-1.7.7-2.1 2.8-1.4 4.3l8.8 3.7z" fill="#f8f5f2"/><path d="m68 270.9c0-1.9 1.5-2.6 3.6-2.8 1.9 0 4.4.8 7.7 1.6l3.8 2.1c.7 1.9.7 3.7.3 5.3-1.1.9-2.4 1.5-3.7 1.2l-4.3-1.8-.3-.6c-3.4-.5-7.1-2-7.1-5z" fill="#0b1017"/><path d="m81.8 263.4c0-1.5 1.4-1.8 3.4-2 3.7 0 3.9 1.9 7.3 1.8l3.4 2c.7 2 .5 4.1.1 5.7-1 .9-2.6 1.1-3.7.9l-3.5-2-.3-.6c-3.2-.6-6.7-3-6.7-5.8z" fill="#0b1017"/><path d="m94 210.8-12.4 5.2c0 2.2 0 4.3.2 5.8.8 5.7 3.1 14.3 3.1 14.3 1.7 7.3 2.3 16.4 2.7 26 .1 3.5 5.2 6.5 8.5 3.2.9-11.7.9-23.1-1.8-30.6 1.3-5.9.1-12.6-.3-19.4.4-.1-.4-4.3 0-4.5z" fill="#07303d"/><path d="m84.7 223.1c0 6.8.1 12.4-1.6 18.3 2.3 7.5 1.7 18.7.1 30.4-2 2.2-4.9 2.2-6.7.9-1.2-.8-1.9-2.2-1.6-4l-1.3-26s-1.8-8.6-2.3-14.3 1.5-18.7 1.5-18.7c1.1.3 2.2.5 3.3.7 7.4.9 14.1-1.7 16.3-5.9.1.3.2.6.3.9.8 2.5 1.3 5.2 1.4 7.9.3 6-5.6 8.3-9.4 9.8z" fill="#0a3847"/><path d="m71.8 186.9c.3 3.8 0 7.5-.2 11-.1 1.3-.2 2.6-.2 3.9-.1 2.4-.1 4.8.3 7 1 .6 2 1 3 1.4 6.2 2.5 12 2 17.1-4.2 1.3-2.6 5.1-11.5 6.6-21 .3-4.4-.8-7.6-4.5-8.9-6.7 1.1-13.8 4.6-21.1 10-.2.3-.6.6-1 .8z" fill="#fff"/><path d="m78.4 175.9.6 6c3.9 0 9.9-2.7 9.1-4.8l-2-3.9z" fill="#ffae80"/><path d="m76.6 176.7c1.5 1.7 3.8 1.5 6.2.9 3.4-1.6 5.9-3.9 5.6-8.4.3-3.2-1.2-6.6-6.7-6.5-3.5.1-6.5 1.4-6.7 5.2-.1-.1-.3 7 1.6 8.8z" fill="#ffae80"/><path d="m78.8 179.8-1.4 3.2c6.6-.7 12.5-3.2 11-6.3l-1.2-1.4c1 2.3-5.5 4.9-8.4 4.5z" fill="#f8f5f2"/><path d="m74.9 166.9c.3 1.3 1.1 2.3 2.2 3.1 0 0-.3 2.9-.1 3s1.7 1.4 1.7 1.4l.8 2.2c2.6 1.9 6.5.5 7.7-1.3.7-.9 1.5-4.5 1.3-7.9-.4-2.9-2.5-5.7-6.9-5.8-4.4-.2-7.1 2.4-6.7 5.3z" fill="#0b1017"/><path d="m77.5 173.5c-.4-.5.2-1.6.7-1.7.7-.2 1 .7 1.1 1.3.1.7 0 1.2-.4 1.8-.4.7-1.2 0-1.4-.5-.1-.5.3-.6 0-.9z" fill="#ffae80"/><path d="m71.4 228.5c.5 5.7 2.3 14.3 2.3 14.3l1.3 26c-.2 1.7.5 3.1 1.6 4-1.1-10.9-1.6-21.2 0-29.1-2.4-9-3.6-18.4-.7-25.4 0-2.8-.3-5.3.3-7.3-1-.3-2.1-.7-3.1-1.2-.2 0-2.2 13-1.7 18.7z" fill="#07303d"/><path d="m79.3 193.4 1.5 18.5-6.6 9.5-1-15.8z" fill="#f8f5f2"/><path d="m67.7 223 3.4-1.1.2-.1.2.4c.1.3 1.1 5.6 1.1 5.8-.2 1.5-.9 2.9-1.7 4.3l-2.7 1.9s-1.5.6-1.6-.3l.9-1.4-.5-2-.5-1.1-.5 1.3c-.9 2-2.3 1.8-2.1.9l.8-1.9.5-3.1z" fill="#ffae80"/><path d="m74 185.5c-2.9 1.8-4.2 3-4.4 8.7l.7 15.3-3.4 14.5c.3 1.6 3.8 2.5 5.1 1.5 2.3-3.8 3.5-7.1 6-13.5l1.4-16.8c.4-6.2.5-10.5-5.4-9.7z" fill="#fff"/><path d="m135.8 268.6-44.2-25.5c-2.6-1.5-4.9-1.6-6.6-.6l-25 14.4c.1 0 .1 0 .2-.1-1.8.9-2.9 3-2.9 6l-.1 47.4 2.3 1.3 24.9-14.5.1-26.6 26.4 15.2c3.9 2.2 7 7.6 7 12.1l-.1 47.4s2.3 1.3 2.3 1.3l24.9-14.5.1-47.4c-.1-5.7-4.2-12.9-9.3-15.9zm-15.7 30.5v.1z" fill="#0a3847"/><path d="m84.5 270.5-.1 26.6-24.9 14.5.1-47.4c0-.2 0-.4 0-.6 0-.1 0-.2 0-.3 0-.4.1-.8.2-1.2 0-.1.1-.2.1-.3s.1-.3.2-.4.1-.2.2-.4c0-.1.1-.2.2-.2.1-.1.2-.2.3-.3.1-.2.3-.3.4-.4s.3-.2.4-.3.2-.1.3-.2c1.2-.6 2.9-.4 4.7.6z" fill="#0a3847"/><path d="m120.1 299.1-.1 47.4-2.3-1.3.1-47.4c0-4.4-3.1-9.8-7-12.1l-26.4-15.2-17.9-10.3c-1.8-1-3.5-1.2-4.7-.6-.1 0-.2.1-.3.2-.2.1-.3.2-.4.3s-.3.2-.4.4c-.1.1-.2.2-.3.4-.1.1-.1.1-.2.2s-.1.2-.2.4c-.1.1-.1.3-.2.4 0 .1-.1.2-.1.3-.1.4-.2.8-.2 1.2v.3.6l-.1 47.4-2.3-1.3.1-47.4c0-5.6 3.8-8 8.6-5.7.2.1.4.2.7.4l17.8 10.3 26.4 15.2c5.3 2.9 9.4 10 9.4 15.9z" fill="#fff"/><path d="m119.4 265.3-6.6-26.6c-.1-.5-.5-1-.9-1.2-.1-.1-.2-.1-.3-.1s-.3 0-.4.1c0 0-15.5 9-15.5 9-.3.1-.4.5-.2 1l3.5 14s-8.4 4.9-8.4 4.9c-.2.1-.3.3-.3.6 0 .6.4 1.3.9 1.6l11.7 6.8c.3.2.6.2.8 0 0 0-.1.1-.1.1l15.5-9s.1 0 .1-.1c.2-.3.3-.7.2-1.1z" fill="#373737"/><g enable-background="new"><path d="m106.8 257.3c-.3-.2-.5-.2-.7-.1l-15.5 9c.2-.1.4-.1.7.1l10.4 6 15.5-9z" fill="#f36d00"/><path d="m119.4 265.3-6.6-26.6c-.1-.5-.5-1-.9-1.2-.1-.1-.2-.1-.3-.1s-.3 0-.4.1l-15.5 9c.1-.1.2-.1.4-.1.1 0 .2.1.3.1.4.2.8.7.9 1.2l6.6 26.6c.1.4 0 .7-.1.9 0 0-.1.1-.1.1l15.5-9s.1 0 .1-.1c.1-.1.2-.5.1-.9z" fill="#f36d00"/><path d="m99.4 247.3c0-.1-.1-.2-.1-.3l11.6-6.7 6.1 24.7-11.6 6.7z" fill="#fff"/><path d="m96.4 246.6c.4.2.8.7.9 1.2l6.6 26.6c.1.4 0 .7-.1.9-.2.2-.5.2-.8 0l-11.7-6.8c-.5-.3-.9-1-.9-1.6s.4-.8.9-.5l10.4 6-6.2-24.9c-.2-.7.1-1.1.6-1 .1 0 .2 0 .3.1z" fill="#db6610"/></g><path d="m125.2 310c0 4.2 3.4 5.6 7.6 3.2s7.6-7.7 7.6-11.9-3.4-5.6-7.6-3.2-7.6 7.7-7.6 11.9z" fill="#fff"/><path d="m125.2 326.3 15.1-8.7v-5.8l-15.1 8.7z" fill="#0a3847"/><path d="m207.8 95.5h63.8v-91.1h-199.1v91.3l65.2-.1 8.9-.1h7l18.2 31.5 19.2-31.5h6.5z" fill="#fff" stroke="#0a3847" stroke-miterlimit="10" stroke-width="2.3"/><g fill="#0a3847"><path d="m80 36h4.8l2.6 10.6c.5 2.1 1 4.3 1.5 6.4h.1c.5-2.1 1-4.3 1.6-6.4l2.7-10.6h3.3l2.7 10.6c.5 2.1 1.1 4.3 1.6 6.4h.1c.5-2.1 1-4.4 1.6-6.5l2.7-10.5h4.6l-6.4 24.8h-4.8l-2.2-8.7c-.5-2.1-1-3.9-1.5-5.9h-.1c-.5 2-.9 3.9-1.5 6l-2.2 8.6h-4.8z"/><path d="m109.4 48.4c0-7.2 4.7-12.8 10.9-12.8s10.9 5.5 10.9 12.8c0 7.2-4.7 12.8-10.9 12.8s-10.9-5.5-10.9-12.8zm17.1 0c0-4.4-2.7-7.8-6.3-7.8s-6.3 3.5-6.3 7.8 2.7 7.8 6.3 7.8 6.3-3.4 6.3-7.8z"/><path d="m133.3 36h6.5c2.5 0 4.8.4 6.5 1.6 1.5 1.1 2.5 3 2.5 5.8 0 3.2-1.5 5.8-4.2 6.8l5.9 10.5h-5.3l-5.3-9.8h-2v9.8h-4.6zm6.8 11c1.2 0 2.2-.2 2.9-.6.8-.5 1.2-1.3 1.2-2.5s-.3-1.9-1.2-2.4c-.7-.4-1.8-.6-3.4-.6h-1.8v6.1z"/><path d="m151.3 36h4.6v11h.1l7.3-11h5.4l-7.9 11.5 8.5 13.3h-5.6l-7.7-12.4h-.1v12.3h-4.6z"/><path d="m169.7 53.9c2.2 1.8 5 2.6 6.6 2.6 1.7 0 2.9-.8 2.9-2.6 0-2.3-2-2.5-4.6-3.5-2.9-1.1-5.5-2.8-5.5-7.1 0-4.6 2.9-7.5 7.3-7.5 2 0 4.5.6 6.4 1.8v5.4c-2.2-1.6-4.8-2.4-6.4-2.4s-2.7.7-2.7 2.3c0 2.2 1.9 2.4 4.4 3.4 3.1 1.2 5.7 3 5.7 7.4 0 4.8-3.1 7.7-7.6 7.7-2.1 0-4.6-.6-6.6-1.8v-5.7z"/><path d="m185.8 36h4.6v9.6h9v-9.6h4.6v24.8h-4.6v-10.4h-9v10.4h-4.6z"/><path d="m206.1 48.4c0-7.2 4.7-12.8 10.9-12.8s10.9 5.5 10.9 12.8c0 7.2-4.7 12.8-10.9 12.8s-10.9-5.5-10.9-12.8zm17.2 0c0-4.4-2.7-7.8-6.3-7.8s-6.3 3.5-6.3 7.8 2.7 7.8 6.3 7.8c3.6.1 6.3-3.4 6.3-7.8z"/><path d="m230 36h6.2c2.5 0 4.5.3 6.2 1.3 1.8 1.1 3.4 3.2 3.4 6.6 0 3-1.2 5.2-3 6.5-1.6 1.1-3.7 1.5-6.7 1.5h-1.4v8.9h-4.7zm6.3 11.5c1.8 0 2.8-.1 3.6-.6s1.3-1.5 1.3-2.7c0-1.4-.5-2.4-1.5-2.9-.8-.4-2-.5-3.6-.5h-1.6v6.7z"/><path d="m247.4 53.9c2.2 1.8 5 2.6 6.6 2.6 1.7 0 2.9-.8 2.9-2.6 0-2.3-2-2.5-4.6-3.5-2.9-1.1-5.5-2.8-5.5-7.1 0-4.6 2.9-7.5 7.3-7.5 2 0 4.5.6 6.4 1.8v5.4c-2.2-1.6-4.8-2.4-6.4-2.4s-2.7.7-2.7 2.3c0 2.2 1.9 2.4 4.4 3.4 3.1 1.2 5.7 3 5.7 7.4 0 4.8-3.1 7.7-7.6 7.7-2.1 0-4.6-.6-6.6-1.8v-5.7z"/></g></svg>