<?xml version="1.0" standalone="no"?>
<!DOCTYPE svg PUBLIC "-//W3C//DTD SVG 1.1//EN" "http://www.w3.org/Graphics/SVG/1.1/DTD/svg11.dtd" >
<svg xmlns="http://www.w3.org/2000/svg" xmlns:xlink="http://www.w3.org/1999/xlink" version="1.1">
<metadata></metadata>
<defs>
<font id="liberty_global_gestaregular" horiz-adv-x="1130" >
<font-face units-per-em="2048" ascent="1497" descent="-551" />
<missing-glyph horiz-adv-x="462" />
<glyph unicode="&#xfb01;" horiz-adv-x="1081" d="M72 827v105l137 8v111q0 147 61.5 217.5t212.5 70.5q33 0 72 -2t74 -6l-8 -125q-35 4 -69 5t-56 1q-84 0 -114 -31.5t-30 -125.5v-109h572v-946h-144v827h-428v-827h-143v827h-137zM780 1139v180h144v-180h-144z" />
<glyph unicode="&#xfb02;" horiz-adv-x="1081" d="M72 827v105l137 8v111q0 147 61.5 217.5t212.5 70.5q33 0 72 -2t74 -6l-8 -125q-35 4 -69 5t-56 1q-84 0 -114 -31.5t-30 -125.5v-109h213v-119h-213v-827h-143v827h-137zM781 0v1319h143v-1319h-143z" />
<glyph horiz-adv-x="0" />
<glyph horiz-adv-x="0" />
<glyph unicode="&#xd;" horiz-adv-x="505" />
<glyph unicode=" "  horiz-adv-x="462" />
<glyph unicode="&#x09;" horiz-adv-x="462" />
<glyph unicode="&#xa0;" horiz-adv-x="462" />
<glyph unicode="!" horiz-adv-x="548" d="M184 1319h178l-40 -950h-97zM190 0v176h166v-176h-166z" />
<glyph unicode="&#x22;" horiz-adv-x="614" d="M94 1360h152q0 -145 -13.5 -262t-35.5 -176h-54q-20 59 -33.5 175.5t-15.5 262.5zM368 1360h152q0 -145 -13.5 -262t-35.5 -176h-54q-20 59 -33.5 175.5t-15.5 262.5z" />
<glyph unicode="#" horiz-adv-x="1247" d="M72 383l18 96h238l69 361h-237l18 96h238l73 383h103l-74 -383h316l73 383h103l-74 -383h238l-19 -96h-237l-70 -361h237l-18 -96h-238l-73 -383h-103l74 383h-315l-74 -383h-102l73 383h-237zM430 479h315l70 361h-315z" />
<glyph unicode="$" horiz-adv-x="1107" d="M133 985q0 156 95.5 243t269.5 105v191h143v-187q74 -4 151.5 -14t147.5 -27l-22 -127q-31 6 -70 12.5t-82 12.5t-88 9t-86 3q-133 0 -219 -47t-86 -160q0 -63 27.5 -104t74.5 -69.5t108.5 -48t129.5 -40.5q70 -23 136 -46t118.5 -64t85 -103.5t32.5 -161.5 q0 -166 -94 -259t-264 -115v-193h-143v185q-92 2 -187.5 14t-175.5 29l23 127q31 -6 73.5 -12.5t90 -12.5t94.5 -9t90 -3q154 0 247 56t93 189q0 61 -22.5 102.5t-64.5 69t-103.5 49t-141.5 44.5q-86 25 -155.5 54.5t-120 70t-78 98t-27.5 139.5z" />
<glyph unicode="%" horiz-adv-x="1464" d="M88 1026q0 147 69.5 230t211.5 83q141 0 210.5 -82.5t69.5 -228.5q0 -147 -69.5 -230t-210.5 -83t-211 83t-70 228zM207 1026q0 -100 36 -155.5t126 -55.5t125.5 56.5t35.5 156.5t-35.5 155.5t-125.5 55.5t-126 -56.5t-36 -156.5zM272 0l789 1319h131l-789 -1319h-131z M815 291q0 147 69.5 230t211.5 83q141 0 210.5 -83t69.5 -228q0 -147 -69.5 -230t-210.5 -83t-211 83t-70 228zM934 291q0 -100 36 -155.5t126 -55.5t125.5 56.5t35.5 156.5t-35.5 155.5t-125.5 55.5t-126 -56.5t-36 -156.5z" />
<glyph unicode="&#x26;" horiz-adv-x="1243" d="M92 338q0 119 56.5 194.5t142.5 133.5l106 71l-35 35q-53 55 -99 126t-46 167q0 123 86 198.5t238 75.5t237.5 -75.5t85.5 -198.5q0 -55 -18.5 -101t-47 -83t-64.5 -67t-70 -54l-52 -35q74 -70 166 -154t193 -174q35 47 65.5 94.5t57.5 92.5l112 -68 q-35 -59 -67.5 -110.5t-67.5 -96.5l172 -151l-92 -105l-166 146q-43 -49 -89 -89t-101.5 -70t-122 -45t-148.5 -15q-113 0 -194.5 28.5t-134 77.5t-78 113.5t-25.5 138.5zM246 348q0 -109 72.5 -172t220.5 -63q61 0 109 12t89 34.5t77 55.5t71 74q-100 90 -202.5 183 t-188.5 173l-99 -65q-66 -43 -107.5 -94.5t-41.5 -137.5zM369 1059q0 -59 31.5 -107.5t78.5 -97.5l37 -37l41 27q31 20 58.5 41.5t49 47t35 56.5t13.5 70q0 70 -43 110.5t-129 40.5t-129 -41t-43 -110z" />
<glyph unicode="'" horiz-adv-x="339" d="M94 1360h152q0 -145 -13.5 -262t-35.5 -176h-54q-20 59 -33.5 175.5t-15.5 262.5z" />
<glyph unicode="(" horiz-adv-x="501" d="M88 485q0 248 70.5 470.5t220.5 406.5l86 -59q-102 -158 -168 -358t-66 -460t65.5 -459.5t168.5 -357.5l-86 -59q-150 184 -220.5 406t-70.5 470z" />
<glyph unicode=")" horiz-adv-x="501" d="M37 -332q100 158 166.5 357.5t66.5 459.5t-66.5 460t-166.5 358l86 59q150 -184 220.5 -406.5t70.5 -470.5t-71 -470t-220 -406z" />
<glyph unicode="*" horiz-adv-x="700" d="M92 944l180 105l-180 104l39 61l180 -104v209h76v-209l180 104l39 -61l-180 -104l180 -105l-39 -61l-180 104v-209h-76v209l-180 -104z" />
<glyph unicode="+" horiz-adv-x="1314" d="M182 420v108h414v418h121v-418h413v-108h-413v-420h-121v420h-414z" />
<glyph unicode="," horiz-adv-x="499" d="M166 -236q12 55 18 109t6 113q0 41 -4 85t-14 91l158 8q4 -16 4 -34.5v-39.5q0 -92 -30 -177t-83 -161z" />
<glyph unicode="-" horiz-adv-x="618" d="M92 442v133h432v-133h-432z" />
<glyph unicode="." horiz-adv-x="493" d="M166 0v176h164v-176h-164z" />
<glyph unicode="/" horiz-adv-x="745" d="M47 0l522 1319h129l-522 -1319h-129z" />
<glyph unicode="0" horiz-adv-x="1198" d="M129 659q0 160 18.5 286t69.5 213t142.5 134t238.5 47q145 0 236.5 -47t142.5 -134t69.5 -213t18.5 -286t-18.5 -285.5t-69.5 -212.5t-142.5 -134t-236.5 -47q-147 0 -238.5 47t-142.5 134t-69.5 213t-18.5 285zM281 659q0 -127 8 -227t40.5 -172t96 -109.5t172.5 -37.5 t171 37.5t95 109.5t41 172t8 227q0 125 -8 226.5t-41 173t-95 109.5t-171 38t-172.5 -38t-96 -109.5t-40.5 -173t-8 -226.5z" />
<glyph unicode="1" horiz-adv-x="786" d="M63 1161l338 158h142v-1319h-152v1169l-282 -108z" />
<glyph unicode="2" horiz-adv-x="1040" d="M84 1243q78 37 184.5 66.5t216.5 29.5q88 0 164 -23.5t131.5 -69.5t86 -114.5t30.5 -160.5q0 -113 -45 -215.5t-126 -203.5t-191.5 -203.5t-239.5 -215.5h637v-133h-840v111q135 119 254 230.5t207 217t139 205.5t51 199q0 117 -71.5 180t-200.5 63q-86 0 -180 -25.5 t-162 -56.5z" />
<glyph unicode="3" horiz-adv-x="980" d="M53 1243q78 41 189.5 68.5t216.5 27.5q84 0 156.5 -20.5t127 -63.5t85 -109.5t30.5 -156.5q0 -219 -186 -291q113 -33 164 -116.5t51 -212.5q0 -104 -33 -179t-92.5 -121t-144.5 -67.5t-191 -21.5q-88 0 -184.5 12t-173.5 31l22 127q59 -12 143 -24.5t177 -12.5 q70 0 129 11t102 41t67.5 81t24.5 133q0 74 -20.5 121t-58.5 74.5t-94 38t-128 10.5h-139v131h137q61 0 112.5 9t87.5 33.5t55.5 67.5t19.5 111q0 123 -63.5 177t-184.5 54q-94 0 -193.5 -25.5t-165.5 -56.5z" />
<glyph unicode="4" horiz-adv-x="1118" d="M59 258v111q53 98 118 211.5t136.5 235.5t147.5 249t153 254h162q-145 -236 -282.5 -468.5t-264.5 -459.5h461l19 316h133v-316h254v-133h-254v-258h-152v258h-631z" />
<glyph unicode="5" horiz-adv-x="1054" d="M113 25l22 131q63 -14 161.5 -28.5t188.5 -14.5q68 0 125.5 12t99.5 44t66.5 88t24.5 144q0 150 -74 209.5t-219 59.5q-76 0 -157 -12.5t-161 -34.5l-57 45l23 651h723v-133h-578l-14 -420q47 12 111.5 22.5t136.5 10.5q205 0 312 -97.5t107 -302.5q0 -219 -124.5 -319 t-350.5 -100q-96 0 -191 14t-175 31z" />
<glyph unicode="6" horiz-adv-x="1126" d="M129 631q0 154 21.5 283.5t77 224t152.5 147.5t249 53q80 0 166 -13t149 -32l-24 -127q-57 14 -127 26.5t-144 12.5q-106 0 -174.5 -30.5t-109.5 -91t-58.5 -148.5t-21.5 -203q84 35 176 51.5t170 16.5q184 0 291.5 -97.5t107.5 -300.5q0 -207 -114.5 -315t-331.5 -108 q-131 0 -218 40.5t-139.5 122.5t-75 204t-22.5 284zM283 618q0 -125 13 -220t47 -158.5t95.5 -95t157.5 -31.5q139 0 210 68.5t71 217.5q0 63 -14.5 114.5t-48.5 87.5t-89 55.5t-137 19.5q-70 0 -144.5 -14.5t-160.5 -43.5z" />
<glyph unicode="7" horiz-adv-x="915" d="M41 1186v133h842v-100q-111 -301 -234 -607.5t-252 -611.5h-155q281 641 481 1186h-682z" />
<glyph unicode="8" horiz-adv-x="1142" d="M115 354q0 78 20.5 135.5t55 98.5t81.5 65.5t101 36.5q-96 23 -163 95.5t-67 205.5q0 158 105.5 253t322.5 95t321.5 -95t104.5 -253q0 -133 -66.5 -205.5t-162.5 -95.5q53 -12 100 -36.5t82 -65.5t55.5 -99.5t20.5 -136.5q0 -174 -110.5 -273t-344.5 -99 q-233 0 -344.5 99t-111.5 275zM268 362q0 -133 80 -191t223 -58t222 58t79 191q0 70 -22.5 119t-62 80t-95 45.5t-121.5 14.5q-68 0 -123 -14.5t-95 -45.5t-62.5 -80t-22.5 -119zM297 983q0 -66 20.5 -110t57.5 -70.5t87 -38.5t109 -12q57 0 107.5 12t87.5 38.5t57.5 71 t20.5 109.5q0 111 -65.5 167t-207.5 56q-141 0 -207.5 -56t-66.5 -167z" />
<glyph unicode="9" horiz-adv-x="1126" d="M94 915q0 207 116 315.5t333 108.5q129 0 216 -41t139 -121.5t74.5 -203.5t22.5 -287q0 -154 -21.5 -284t-76.5 -223t-152.5 -146t-248.5 -53q-80 0 -166 13t-150 32l25 127q57 -14 126.5 -26.5t143.5 -12.5q104 0 173 30.5t111 90t59.5 148.5t21.5 204 q-84 -35 -176.5 -51.5t-167.5 -16.5q-184 0 -293 97.5t-109 299.5zM248 920q0 -63 14 -114.5t48 -87.5t89.5 -55.5t137.5 -19.5q139 0 305 57q0 125 -13.5 219.5t-48.5 158t-95 96t-155 32.5q-139 0 -210.5 -68.5t-71.5 -217.5z" />
<glyph unicode=":" horiz-adv-x="534" d="M186 0v176h164v-176h-164zM186 770v176h164v-176h-164z" />
<glyph unicode=";" horiz-adv-x="552" d="M193 770v176h164v-176h-164zM195 -236q12 55 18 109t6 113q0 41 -4 85t-14 91l158 8q4 -16 4 -34.5v-39.5q0 -92 -30 -177t-83 -161z" />
<glyph unicode="&#x3c;" horiz-adv-x="1026" d="M182 426v106q160 111 325 217.5t337 217.5v-148q-143 -90 -277.5 -175t-244.5 -159v-8q111 -74 244.5 -159t277.5 -175v-151q-172 111 -337 217t-325 217z" />
<glyph unicode="=" horiz-adv-x="1204" d="M182 227v115h838v-115h-838zM182 604v115h838v-115h-838z" />
<glyph unicode="&#x3e;" horiz-adv-x="1026" d="M182 -8v147q143 90 277.5 175t245.5 159v8q-111 74 -245 159t-278 175v152q172 -111 337 -217.5t325 -217.5v-106q-160 -111 -325 -217.5t-337 -216.5z" />
<glyph unicode="?" horiz-adv-x="845" d="M37 1249q70 41 160 65.5t182 24.5q78 0 145.5 -20.5t118.5 -62.5t80 -104t29 -148q0 -59 -14.5 -105.5t-38 -85.5t-55.5 -72.5t-69 -70.5q-45 -45 -75.5 -80t-51 -70t-29.5 -73.5t-9 -90.5h-129q0 76 12 130.5t35.5 99.5t58.5 86t82 88q25 25 48.5 50.5t42 54t28.5 62.5 t10 74q0 104 -63.5 154.5t-167.5 50.5q-72 0 -147 -21.5t-132 -51.5zM268 0v176h166v-176h-166z" />
<glyph unicode="@" horiz-adv-x="1517" d="M98 516q0 350 165 516t495 166t495.5 -165t165.5 -511q0 -209 -63.5 -302t-202.5 -93q-55 0 -109.5 18.5t-91.5 75.5q-70 -47 -129 -70.5t-129 -23.5q-150 0 -215 101.5t-65 285.5q0 211 80.5 306t242.5 95q76 0 150 -19t151 -54v-404q0 -111 28 -154.5t93 -43.5 q33 0 58.5 11t43 42t26.5 84t9 137q0 303 -129 438t-407 135q-139 0 -240.5 -32.5t-167 -102t-97.5 -178t-32 -258.5q0 -301 127 -437t404 -136q104 0 187 15t149 36l28 -107q-74 -25 -169 -40t-199 -15q-324 0 -488 167t-164 517zM553 516q0 -141 38 -206.5t132 -65.5 q96 0 192 61q-12 45 -12 117v356q-35 10 -81 15.5t-81 5.5q-49 0 -83.5 -13.5t-58.5 -46t-35 -87t-11 -136.5z" />
<glyph unicode="A" d="M37 0q92 334 197.5 660.5t224.5 658.5h213q119 -332 224 -658.5t198 -660.5h-160q-23 84 -45.5 165t-44.5 163h-563q-23 -82 -45.5 -163t-45.5 -165h-153zM319 461h486q-55 186 -114.5 366.5t-123.5 360.5h-10q-63 -180 -122.5 -360.5t-115.5 -366.5z" />
<glyph unicode="B" horiz-adv-x="1181" d="M174 0v1307q104 12 219 21t201 9q106 0 190 -18.5t142.5 -58t89.5 -105t31 -160.5q0 -129 -52.5 -198.5t-138.5 -96.5v-6q55 -16 97 -41.5t71 -63.5t44 -91.5t15 -126.5q0 -111 -34.5 -184.5t-101 -117.5t-164 -62.5t-222.5 -18.5q-35 0 -81 1t-98 3t-106.5 4t-101.5 4z M326 125q25 0 54.5 -1t60 -2t59 -1h51.5q90 0 160.5 9t119 36t74 76t25.5 129q0 74 -20.5 123t-58.5 78.5t-90 42t-116 12.5h-319v-502zM326 750h321q117 0 181.5 49t64.5 176q0 133 -76 182t-237 49q-47 0 -118 -3t-136 -11v-442z" />
<glyph unicode="C" horiz-adv-x="1085" d="M96 659q0 166 31 284t92 204q82 113 196.5 152.5t246.5 39.5q80 0 169 -11t162 -30l-24 -129q-61 14 -147.5 25.5t-157.5 11.5q-92 0 -179.5 -28.5t-146.5 -114.5q-88 -131 -88 -406q0 -127 19.5 -227t66.5 -172q51 -80 127 -112.5t174 -32.5q92 0 186.5 23.5t171.5 58.5 l47 -121q-90 -47 -201.5 -70.5t-211.5 -23.5q-133 0 -239.5 44t-176.5 144q-59 86 -88 211t-29 280z" />
<glyph unicode="D" horiz-adv-x="1257" d="M174 2v1303q39 6 86 12t98.5 10t101.5 7t95 3q317 0 465.5 -162.5t148.5 -521.5q0 -180 -37.5 -307t-117.5 -207t-206 -115.5t-304 -35.5q-33 0 -75 1t-86 3l-88 4t-81 6zM326 125q47 -2 94 -3t84 -1q129 0 225 22.5t159.5 81t95.5 161.5t32 265q0 154 -29 260.5t-87 171 t-149.5 93t-213.5 28.5q-53 0 -114 -4t-97 -8v-1067z" />
<glyph unicode="E" horiz-adv-x="1015" d="M174 0v1319h754v-133h-602v-436h505v-134h-505v-483h602v-133h-754z" />
<glyph unicode="F" horiz-adv-x="987" d="M174 0v1319h754v-133h-602v-465h510v-133h-510v-588h-152z" />
<glyph unicode="G" horiz-adv-x="1216" d="M98 657q0 160 32 284t97 212q82 106 201 146t252 40q92 0 182 -13t168 -30l-24 -129q-72 16 -159 27.5t-165 11.5q-106 0 -192.5 -28.5t-145.5 -112.5q-45 -63 -68.5 -161.5t-23.5 -241.5q0 -147 25.5 -252t76.5 -170q53 -72 130 -99.5t163 -27.5q143 0 277 57v385h-281 v133h430v-590q-98 -59 -214 -88.5t-228 -29.5q-115 0 -214 34.5t-171 120.5q-147 172 -148 522z" />
<glyph unicode="H" horiz-adv-x="1304" d="M174 0v1319h152v-569h655v569h152v-1319h-152v616h-655v-616h-152z" />
<glyph unicode="I" horiz-adv-x="499" d="M174 0v1319h152v-1319h-152z" />
<glyph unicode="J" horiz-adv-x="776" d="M16 0l17 131q41 -8 90 -13t104 -5q43 0 96.5 10t88.5 53q29 37 37 87t8 116v940h149v-940q0 -111 -18.5 -181.5t-65.5 -119.5q-53 -57 -128 -77.5t-163 -20.5q-53 0 -109 5t-106 15z" />
<glyph unicode="K" horiz-adv-x="1136" d="M174 0v1319h152v-588h2q154 152 290 296t265 292h186q-139 -158 -288.5 -312.5t-301.5 -301.5q61 -70 139 -154t165 -175t182.5 -187.5t193.5 -188.5h-209q-74 70 -153.5 151.5t-161.5 168t-160 173.5t-147 166h-2v-659h-152z" />
<glyph unicode="L" horiz-adv-x="954" d="M174 0v1319h152v-1186h594v-133h-746z" />
<glyph unicode="M" horiz-adv-x="1562" d="M147 0q12 332 29 658.5t35 660.5h225l340 -922h10l340 922h228q20 -334 36 -660.5t27 -658.5h-153q-10 289 -22.5 575.5t-27.5 573.5h-10l-336 -911h-176l-336 911h-10q-14 -287 -26 -573.5t-23 -575.5h-150z" />
<glyph unicode="N" horiz-adv-x="1368" d="M174 0v1319h232l628 -1149h10v1149h150v-1319h-231l-629 1149h-10v-1149h-150z" />
<glyph unicode="O" horiz-adv-x="1318" d="M96 659q0 342 138.5 511t424.5 169q287 0 425.5 -169t138.5 -511t-138.5 -510.5t-425.5 -168.5t-425 168.5t-138 510.5zM250 659q0 -291 102 -418.5t307 -127.5t307.5 128t102.5 418q0 291 -102.5 419t-307.5 128t-307 -128t-102 -419z" />
<glyph unicode="P" horiz-adv-x="1112" d="M174 0v1309q94 12 203.5 20t195.5 8q109 0 198 -17t153.5 -61.5t100.5 -122t36 -196.5q0 -129 -40 -212t-110.5 -132t-166 -68.5t-203.5 -19.5q-47 0 -102.5 3t-112.5 7v-518h-152zM326 649q55 -4 108 -6t88 -2q90 0 162 12.5t121 45t75.5 90t26.5 147.5q0 80 -22.5 132 t-65.5 83t-108.5 42t-151.5 11q-47 0 -110.5 -3t-122.5 -9v-543z" />
<glyph unicode="Q" horiz-adv-x="1318" d="M96 659q0 342 138.5 511t424.5 169q287 0 425.5 -169t138.5 -511q0 -485 -283 -624l211 -225l-115 -105l-248 285q-31 -4 -62.5 -7t-66.5 -3q-287 0 -425 168.5t-138 510.5zM250 659q0 -291 102 -418.5t307 -127.5t307.5 128t102.5 418q0 291 -102.5 419t-307.5 128 t-307 -128t-102 -419z" />
<glyph unicode="R" horiz-adv-x="1146" d="M174 0v1309q98 12 208 20t193 8q100 0 186.5 -16t149 -58t97 -114t34.5 -184q0 -162 -75.5 -255.5t-223.5 -129.5q70 -135 154 -280.5t182 -299.5h-182q-86 141 -162 275.5t-151 281.5q-59 0 -129 1t-129 5v-563h-152zM326 694q41 -4 84 -5t79 -1q111 0 187 13.5t123 45 t68.5 84t21.5 127.5q0 141 -76 193.5t-231 52.5q-23 0 -53.5 -1t-65.5 -2t-71 -4t-66 -5v-498z" />
<glyph unicode="S" horiz-adv-x="989" d="M74 985q0 174 120.5 264t333.5 90q82 0 170 -11t168 -30l-24 -129q-31 6 -69 12.5t-81 12.5t-86 9t-82 3q-66 0 -120 -11t-94 -35.5t-62.5 -63.5t-22.5 -97q0 -63 28 -104t74 -69.5t106.5 -48t125.5 -40.5q63 -20 129 -43.5t117 -64.5t84 -104.5t33 -164.5 q0 -193 -126 -286.5t-354 -93.5q-92 0 -188 13t-176 30l22 133q31 -6 72 -13.5t87 -14.5t93 -11t88 -4q152 0 241 55t89 188q0 61 -20.5 102.5t-62.5 70t-102.5 49t-140.5 45.5q-84 25 -152.5 54.5t-116.5 70t-74.5 98t-26.5 139.5z" />
<glyph unicode="T" horiz-adv-x="1048" d="M47 1186v133h954v-133h-401v-1186h-151v1186h-402z" />
<glyph unicode="U" horiz-adv-x="1298" d="M160 473v846h151v-827q0 -102 17.5 -175t57.5 -118t104.5 -65.5t158.5 -20.5t158.5 20.5t104.5 65.5t57.5 117.5t17.5 175.5v827h152v-846q0 -121 -27 -213t-85 -154.5t-151.5 -94t-226.5 -31.5t-226 31.5t-151.5 94t-85 154.5t-26.5 213z" />
<glyph unicode="V" horiz-adv-x="1120" d="M37 1319h160q82 -305 170 -596t190 -590h6q102 299 190.5 590t170.5 596h155q-92 -334 -195.5 -660.5t-219.5 -658.5h-211q-117 332 -220.5 658.5t-195.5 660.5z" />
<glyph unicode="W" horiz-adv-x="1798" d="M57 1319h154q55 -305 129 -607t160 -579h12q72 274 143.5 577.5t130.5 608.5h228q59 -305 131 -608t143 -578h12q86 276 160 578.5t129 607.5h150q-29 -166 -64 -329t-77 -325.5t-91 -327.5t-106 -337h-217q-78 295 -152 597t-129 581h-10q-55 -279 -129 -581t-152 -597 h-217q-115 342 -197.5 663.5t-140.5 655.5z" />
<glyph unicode="X" horiz-adv-x="1206" d="M63 0q109 174 222.5 344t228.5 336q-219 313 -418 639h178q76 -131 161 -261t171 -255q86 125 171 255t161 261h174q-203 -326 -418 -639q115 -166 228.5 -336t222.5 -344h-182q-90 150 -181.5 290t-179.5 265q-88 -125 -180 -265t-182 -290h-177z" />
<glyph unicode="Y" d="M37 1319h166q76 -182 169 -367.5t193 -345.5h4q100 160 193.5 345.5t169.5 367.5h162q-102 -236 -212 -438.5t-241 -405.5v-475h-152v475q-133 203 -241.5 405.5t-210.5 438.5z" />
<glyph unicode="Z" horiz-adv-x="1067" d="M80 0v119l733 1067h-700v133h884v-119l-733 -1067h737v-133h-921z" />
<glyph unicode="[" horiz-adv-x="550" d="M166 -334v1653h352v-115h-215v-1423h215v-115h-352z" />
<glyph unicode="\" horiz-adv-x="745" d="M47 1319h129l522 -1319h-129z" />
<glyph unicode="]" horiz-adv-x="550" d="M33 -219h215v1423h-215v115h352v-1653h-352v115z" />
<glyph unicode="^" horiz-adv-x="1241" d="M256 549l295 416h139l295 -416l-78 -57l-286 337l-287 -337z" />
<glyph unicode="_" horiz-adv-x="1046" d="M-6 -246h1061v-98h-1061v98z" />
<glyph unicode="`" horiz-adv-x="600" d="M88 1286l123 96l192 -309l-61 -49z" />
<glyph unicode="a" horiz-adv-x="964" d="M78 272q0 76 27.5 131.5t74.5 90t112.5 52t143.5 17.5q20 0 50 -1t63 -3t65.5 -4t59.5 -4v117q0 104 -59.5 138t-157.5 34q-80 0 -157 -12.5t-130 -28.5l-29 121q61 18 147.5 32.5t172.5 14.5q72 0 136.5 -12.5t113.5 -45t77.5 -87t28.5 -138.5v-684h-110l-15 88 q-57 -47 -138 -77.5t-167 -30.5q-135 0 -222 76.5t-87 215.5zM223 276q0 -86 52.5 -134t144.5 -48q61 0 131 22.5t123 65.5v262q-23 2 -53.5 3.5t-61.5 2.5t-58.5 2t-41.5 1q-47 0 -89 -8.5t-75 -28t-52.5 -54.5t-19.5 -86z" />
<glyph unicode="b" horiz-adv-x="1032" d="M158 43v1276h143v-436q59 41 122.5 62.5t141.5 21.5q186 0 270.5 -124t84.5 -376q0 -123 -20.5 -214t-67 -151.5t-123 -91t-187.5 -30.5q-92 0 -192.5 20t-171.5 43zM301 127q53 -14 115.5 -21.5t105.5 -7.5q76 0 125 22.5t77 69t39 114t11 157.5q0 193 -50 286t-187 93 q-57 0 -118 -16.5t-118 -51.5v-645z" />
<glyph unicode="c" horiz-adv-x="878" d="M98 471q0 106 21.5 197.5t72 157t133.5 103.5t205 38q59 0 131 -8.5t130 -22.5l-19 -119q-47 10 -113.5 18.5t-121.5 8.5q-160 0 -226.5 -90t-66.5 -283q0 -74 11 -139.5t42 -114.5t84 -78.5t139 -29.5q61 0 132 16t134 45l43 -115q-63 -31 -150 -53t-179 -22 q-209 0 -305.5 130t-96.5 361z" />
<glyph unicode="d" horiz-adv-x="1032" d="M113 475q0 250 90 371t301 121q100 0 227 -31v383h143v-1319h-110l-16 86q-66 -51 -132.5 -78.5t-154.5 -27.5q-180 0 -264 123.5t-84 371.5zM258 481q0 -197 52.5 -286t181.5 -89q117 0 239 74v637q-53 14 -115.5 22.5t-109.5 8.5q-72 0 -120 -22.5t-76.5 -68.5 t-40 -115t-11.5 -161z" />
<glyph unicode="e" horiz-adv-x="933" d="M92 467q0 113 25.5 205t76 157.5t124 101.5t167.5 36q92 0 160 -33t112 -91.5t65.5 -137t21.5 -173.5q0 -27 -2 -54t-6 -56h-596q8 -143 71.5 -228t208.5 -85q78 0 143.5 22.5t127.5 52.5l51 -112q-57 -33 -144.5 -62.5t-191.5 -29.5q-188 0 -301 118.5t-113 368.5z M238 537h464q0 57 -10 111t-35.5 97t-68.5 69t-107 26q-119 0 -178 -85t-65 -218z" />
<glyph unicode="f" horiz-adv-x="622" d="M72 827v105l137 8v111q0 147 61.5 217.5t212.5 70.5q33 0 72 -2t74 -6l-8 -125q-35 4 -69 5t-56 1q-84 0 -114 -31.5t-30 -125.5v-109h213v-119h-213v-827h-143v827h-137z" />
<glyph unicode="g" horiz-adv-x="1017" d="M113 467q0 248 93 374t312 126q98 0 191.5 -20.5t164.5 -43.5v-973q0 -168 -92 -245.5t-278 -77.5q-80 0 -156 11t-141 26l24 125q66 -14 134.5 -24.5t136.5 -10.5q49 0 91 8t72.5 28.5t48 57.5t17.5 96v139q-59 -41 -122.5 -62t-141.5 -21q-186 0 -270 121.5t-84 365.5z M258 471q0 -184 51.5 -274.5t186.5 -90.5q57 0 117.5 16.5t117.5 51.5v645q-53 14 -109.5 21.5t-99.5 7.5q-154 0 -209 -95.5t-55 -281.5z" />
<glyph unicode="h" horiz-adv-x="1046" d="M158 0v1319h143v-457q53 37 130 71t175 34q131 0 215 -76t84 -234v-657h-143v641q0 106 -49 152.5t-138 46.5q-76 0 -148.5 -27t-125.5 -57v-756h-143z" />
<glyph unicode="i" horiz-adv-x="458" d="M158 0v946h143v-946h-143zM158 1139v180h143v-180h-143z" />
<glyph unicode="j" horiz-adv-x="458" d="M61 -373q20 49 38 97.5t30 100.5t19.5 111.5t7.5 133.5v876h143v-876q0 -145 -29.5 -257t-70.5 -186h-138zM156 1139v180h143v-180h-143z" />
<glyph unicode="k" horiz-adv-x="933" d="M158 0v1319h143v-764h4q109 92 216.5 194.5t199.5 196.5h184q-111 -113 -225.5 -222.5t-222.5 -203.5q92 -113 205.5 -235.5t275.5 -284.5h-201q-92 94 -203.5 218t-228.5 265h-4v-483h-143z" />
<glyph unicode="l" horiz-adv-x="458" d="M158 0v1319h143v-1319h-143z" />
<glyph unicode="m" horiz-adv-x="1587" d="M158 0v946h112l13 -98q53 43 126.5 81t168.5 38q82 0 150.5 -35t102.5 -101q74 66 151 101t167 35q63 0 117.5 -19.5t93.5 -58.5t61.5 -98.5t22.5 -141.5v-649h-144v635q0 106 -47 155.5t-131 49.5q-59 0 -126.5 -24.5t-131.5 -70.5q4 -25 6 -47t2 -51v-647h-143v635 q0 106 -47 155.5t-133 49.5q-115 0 -248 -82v-758h-143z" />
<glyph unicode="n" horiz-adv-x="1046" d="M158 0v946h112l13 -96q59 45 141 81t182 36q131 0 215 -76t84 -234v-657h-143v641q0 106 -49 152.5t-138 46.5q-76 0 -147.5 -27t-126.5 -57v-756h-143z" />
<glyph unicode="o" horiz-adv-x="1030" d="M92 473q0 111 22.5 201t74 155.5t131 101.5t194.5 36t194.5 -36t131 -101.5t74 -155.5t22.5 -201t-22.5 -201t-74 -155.5t-131 -101t-194.5 -35.5t-194.5 35.5t-131 101t-74 155.5t-22.5 201zM238 473q0 -80 13 -146.5t45 -115.5t85 -77t133 -28t133 28t85 77t45.5 115.5 t13.5 146.5t-13.5 146.5t-45.5 115.5t-85 77t-133 28t-133 -28t-85 -77t-45 -115.5t-13 -146.5z" />
<glyph unicode="p" horiz-adv-x="1032" d="M158 -373v1319h110l17 -86q66 51 132 79t154 28q180 0 264.5 -125t84.5 -373q0 -250 -90.5 -369.5t-301.5 -119.5q-102 0 -227 30v-383h-143zM301 129q53 -14 115.5 -22.5t109.5 -8.5q143 0 195.5 90.5t52.5 274.5q0 197 -52 287t-181 90q-117 0 -240 -74v-637z" />
<glyph unicode="q" horiz-adv-x="1032" d="M113 467q0 248 93 374t312 126q98 0 191.5 -20.5t164.5 -43.5v-1276h-143v436q-59 -41 -122.5 -62t-141.5 -21q-186 0 -270 121.5t-84 365.5zM258 471q0 -184 51.5 -274.5t186.5 -90.5q57 0 117.5 16.5t117.5 51.5v645q-53 14 -109.5 21.5t-99.5 7.5q-154 0 -209 -95.5 t-55 -281.5z" />
<glyph unicode="r" horiz-adv-x="692" d="M158 0v946h112l19 -117q55 72 119.5 105t144.5 33q29 0 61.5 -4.5t55.5 -10.5l-17 -127q-53 12 -106 13q-74 0 -132.5 -31t-113.5 -102v-705h-143z" />
<glyph unicode="s" horiz-adv-x="837" d="M74 18l22 123q59 -12 138 -23.5t151 -11.5q102 0 169 34t67 120q0 35 -13.5 58.5t-40 42t-69.5 33t-101 30.5q-57 16 -112.5 34.5t-99.5 49.5t-71.5 76t-27.5 114q0 125 97.5 197t252.5 72q68 0 143.5 -8.5t135.5 -22.5l-19 -125q-57 10 -129.5 19.5t-134.5 9.5 q-92 0 -146.5 -35t-54.5 -100q0 -35 17.5 -57.5t49.5 -39t80 -31t109 -32.5q63 -20 114.5 -42t88.5 -52.5t56.5 -74.5t19.5 -108q0 -150 -104.5 -219t-282.5 -69q-76 0 -155 11t-150 27z" />
<glyph unicode="t" horiz-adv-x="663" d="M53 827v105l144 8l12 283h125v-277h270v-119h-270v-581q0 -72 20.5 -106t83.5 -34q61 0 146 31l41 -112q-47 -20 -96.5 -32.5t-104.5 -12.5q-117 0 -175.5 61t-58.5 197v589h-137z" />
<glyph unicode="u" horiz-adv-x="1040" d="M143 293v653h144v-637q0 -111 48 -157t138 -46q68 0 137.5 23t128.5 57v760h144v-946h-111l-12 88q-61 -47 -142 -77.5t-174 -30.5q-135 0 -218 76.5t-83 236.5z" />
<glyph unicode="v" horiz-adv-x="903" d="M49 946h148q53 -225 112.5 -435t134.5 -396h17q76 186 135 396t113 435h143q-55 -244 -128 -480.5t-171 -465.5h-205q-98 229 -171 465.5t-128 480.5z" />
<glyph unicode="w" horiz-adv-x="1392" d="M51 946h146q37 -215 87 -432t109 -399h17q53 199 102 416t90 415h193q41 -199 90 -416t102 -415h17q59 182 109 399t87 432h141q-25 -127 -50 -245.5t-54 -233.5t-63.5 -230.5t-77.5 -236.5h-205q-25 86 -50.5 187.5t-50 207t-48 209t-42.5 195.5h-8 q-18 -92 -41.5 -195.5t-49.5 -209t-51.5 -207t-47.5 -187.5h-205q-43 121 -78 236.5t-63.5 230.5t-54 233.5t-50.5 245.5z" />
<glyph unicode="x" horiz-adv-x="913" d="M57 0q78 127 158 249t162 234q-76 106 -154 224t-153 239h157q55 -92 114.5 -186t119.5 -174q57 80 117.5 174t113.5 186h150q-74 -117 -153 -236.5t-152 -226.5q82 -113 161.5 -234.5t157.5 -248.5h-156q-61 98 -121.5 192.5t-125.5 184.5q-63 -90 -125 -184.5 t-121 -192.5h-150z" />
<glyph unicode="y" horiz-adv-x="897" d="M51 946h150q55 -223 117.5 -432t134.5 -395h16q66 190 127 403t109 424h143q-39 -160 -86 -330t-100.5 -341t-111.5 -335.5t-120 -312.5h-137q41 98 75.5 191.5t65.5 181.5h-78q-86 209 -162.5 449.5t-142.5 496.5z" />
<glyph unicode="z" horiz-adv-x="821" d="M70 0v102l508 719h-494v125h661v-102l-507 -719h512v-125h-680z" />
<glyph unicode="{" horiz-adv-x="600" d="M88 496q33 39 56.5 69.5t38 61t20.5 65.5t6 80v322q0 129 78 187t235 58v-65q-49 -10 -81.5 -24.5t-51 -42t-27 -74t-8.5 -119.5v-260q0 -84 -34.5 -144.5t-106.5 -113.5q45 -33 72.5 -66t43 -69.5t20.5 -82t5 -102.5v-260q0 -53 11.5 -88t33 -56.5t53 -33.5t70.5 -21 v-65q-158 0 -235.5 58.5t-77.5 187.5v321q0 45 -6 79t-20.5 64.5t-38 62.5t-56.5 71z" />
<glyph unicode="|" horiz-adv-x="649" d="M254 -373v1692h143v-1692h-143z" />
<glyph unicode="}" horiz-adv-x="600" d="M78 -283q39 8 70.5 20.5t53 34t33 56.5t11.5 88v322q0 84 35.5 144t107.5 114q-72 53 -107.5 113.5t-35.5 144.5v321q0 53 -11.5 88t-33 56.5t-53 34t-70.5 20.5v65q158 0 235.5 -58t77.5 -187v-322q0 -45 6 -80t20.5 -65.5t37 -61t57.5 -69.5q-35 -39 -57.5 -71 t-37 -62.5t-20.5 -64.5t-6 -79v-321q0 -129 -77.5 -187.5t-235.5 -58.5v65z" />
<glyph unicode="~" horiz-adv-x="1046" d="M182 618q0 18 11.5 42t32 44.5t50 35t66.5 14.5q31 0 76 -12.5t110 -45.5q70 -35 106 -48t64 -13q33 0 60.5 18.5t48.5 65.5l55 -51q0 -18 -11 -42t-31.5 -44.5t-50.5 -35t-67 -14.5q-31 0 -75.5 12.5t-110.5 45.5q-70 35 -105.5 48t-64.5 13q-33 0 -60.5 -18.5 t-47.5 -65.5z" />
<glyph unicode="&#xa1;" horiz-adv-x="548" d="M184 -373l41 951h97l40 -951h-178zM190 770v176h166v-176h-166z" />
<glyph unicode="&#xa2;" horiz-adv-x="907" d="M102 471q0 94 16.5 177t55.5 147.5t103.5 106.5t158.5 56v193h127v-184q55 -2 117.5 -10.5t114.5 -20.5l-19 -119q-47 10 -113.5 18.5t-121.5 8.5q-160 0 -226.5 -90t-66.5 -283q0 -74 11 -139.5t42 -114.5t84 -78.5t139 -29.5q61 0 132 16t135 45l43 -115 q-53 -27 -124 -46t-147 -25v-193h-127v193q-174 20 -254 147t-80 340z" />
<glyph unicode="&#xa3;" horiz-adv-x="1028" d="M121 578v112l123 6q-23 72 -41.5 150t-18.5 151q0 82 30 145.5t85 107.5t131 66.5t168 22.5q72 0 159 -12t165 -31l-23 -127q-59 12 -134 24.5t-149 12.5q-55 0 -105 -10t-89 -34.5t-61.5 -67.5t-22.5 -109q0 -61 17.5 -135t39.5 -141h367v-129h-332q12 -47 20.5 -93.5 t8.5 -87.5q0 -86 -35 -155.5t-92 -110.5h600v-133h-807v113q82 41 135 111.5t53 170.5q0 47 -10 91t-22 92h-160z" />
<glyph unicode="&#xa4;" horiz-adv-x="1105" d="M84 287l143 143q-35 47 -54 105.5t-19 123.5q0 66 19.5 124.5t53.5 105.5l-143 143l96 98l146 -145q100 70 229 70t229 -70l146 145l96 -98l-143 -143q35 -47 54 -105.5t19 -124.5t-19 -124t-54 -105l143 -143l-96 -99l-146 146q-100 -70 -229 -70t-229 70l-146 -146z M281 659q0 -57 20.5 -108t57 -89t87 -59.5t109.5 -21.5q57 0 107.5 21.5t87 59.5t58 89t21.5 108t-21.5 108.5t-58 89.5t-87 59.5t-107.5 21.5q-59 0 -109.5 -21.5t-87 -59.5t-57 -89t-20.5 -109z" />
<glyph unicode="&#xa5;" horiz-adv-x="1077" d="M66 1319h167q72 -154 148 -295t158 -274h4q82 133 157.5 274t147.5 295h164q-76 -164 -162 -323.5t-174 -307.5h258v-123h-320v-192h320v-123h-320v-250h-151v250h-320v123h320v192h-320v123h258q-88 147 -174 307t-161 324z" />
<glyph unicode="&#xa6;" horiz-adv-x="649" d="M254 248h143v-621h-143v621zM254 698v621h143v-621h-143z" />
<glyph unicode="&#xa7;" horiz-adv-x="1095" d="M117 758q0 160 35.5 271.5t102.5 182t160 102.5t210 32q76 0 156.5 -10.5t146.5 -26.5l-17 -123q-55 10 -129.5 19t-140.5 9q-80 0 -145.5 -17t-112.5 -61t-75.5 -118t-37.5 -184q41 8 84 13t90 5q115 0 225.5 -40t188.5 -138q123 -158 123 -451q0 -160 -36 -271.5 t-101.5 -182t-159.5 -102.5t-211 -32q-76 0 -155.5 10.5t-147.5 26.5l16 123q57 -12 131 -20t136 -8q82 0 148.5 18t113.5 61t75.5 117t36.5 184q-43 -8 -86 -12t-88 -4q-68 0 -132 12.5t-122.5 40t-109.5 72.5t-88 113q-84 150 -84 389zM270 709q4 -90 18.5 -156t37.5 -109 q27 -53 65.5 -89t85.5 -57.5t98.5 -30.5t104.5 -9q41 0 77 4t70 8q-4 109 -24.5 183.5t-52.5 124.5q-53 82 -140.5 113.5t-185.5 31.5q-41 0 -79 -4t-75 -10z" />
<glyph unicode="&#xa8;" horiz-adv-x="804" d="M145 1098v162h150v-162h-150zM514 1098v162h150v-162h-150z" />
<glyph unicode="&#xa9;" horiz-adv-x="1456" d="M84 659q0 328 162 504t483 176q322 0 483.5 -176t161.5 -504t-161.5 -503.5t-483.5 -175.5t-483.5 175.5t-161.5 503.5zM201 659q0 -287 133 -429t395 -142t395 142.5t133 428.5q0 287 -133 429.5t-395 142.5t-395 -142.5t-133 -429.5zM422 662q0 80 15.5 147.5t51 116.5 t96 77.5t152.5 28.5q47 0 102.5 -6t100.5 -16l-16 -92q-37 6 -86.5 12t-89.5 6q-66 0 -107 -19.5t-63.5 -54.5t-31.5 -86t-9 -112q0 -51 7 -101.5t27.5 -89.5t58.5 -62.5t99 -23.5q51 0 103.5 15.5t93.5 37.5l45 -88q-49 -29 -115.5 -48t-136.5 -19q-82 0 -138.5 27.5 t-92 77.5t-51 119t-15.5 153z" />
<glyph unicode="&#xaa;" horiz-adv-x="624" d="M86 958q0 86 57.5 122t153.5 36q20 0 48 -1t54 -5v25q0 57 -20.5 83.5t-93.5 26.5q-37 0 -73 -5t-79 -15l-20 88q39 12 91 19t97 7q106 0 155.5 -45t49.5 -143v-342h-74l-12 39q-29 -23 -68 -37t-86 -14q-72 0 -126 38.5t-54 122.5zM193 961q0 -41 24.5 -60.5t65.5 -19.5 q33 0 66.5 11t49.5 28v112q-18 4 -41.5 4h-46.5q-47 0 -82.5 -12t-35.5 -63z" />
<glyph unicode="&#xab;" horiz-adv-x="952" d="M49 490q0 47 21.5 89t69.5 91q20 20 51 52t67.5 66.5t75.5 71.5t74 70l82 -86q-35 -31 -75 -70t-79 -76.5t-70.5 -69.5t-46.5 -50q-39 -45 -38 -86q0 -23 8 -42.5t30 -43.5q14 -18 46 -50t71 -70t79 -77t75 -70l-82 -90q-35 33 -74 69t-75.5 71.5t-67.5 66t-51 53.5 q-47 49 -69 91t-22 90zM401 490q0 47 21.5 89t69.5 91q20 20 51 52t67.5 66.5t75.5 71.5t74 70l82 -86q-35 -31 -75 -70t-79 -76.5t-70.5 -69.5t-46.5 -50q-39 -45 -38 -86q0 -23 8 -42.5t30 -43.5q14 -18 46 -50t71 -70t79 -77t75 -70l-82 -90q-35 33 -74 69t-75.5 71.5 t-67.5 66t-51 53.5q-47 49 -69 91t-22 90z" />
<glyph unicode="&#xac;" horiz-adv-x="1314" d="M182 520v115h948v-533h-124v418h-824z" />
<glyph unicode="&#xad;" horiz-adv-x="606" d="M86 449v114h432v-114h-432z" />
<glyph unicode="&#xae;" horiz-adv-x="974" d="M166 999q0 164 82 252t241 88q160 0 241 -88t81 -252t-81 -252t-241 -88t-241.5 88.5t-81.5 251.5zM221 999q0 -288 266 -288q268 0 269 288q0 291 -269 291q-266 0 -266 -291zM367 817v367q29 4 60.5 6t57.5 2q59 0 99.5 -21.5t40.5 -89.5q0 -86 -84 -106 q39 -72 96 -158h-70q-23 39 -43 75t-39 75q-12 0 -28.5 1t-32.5 3v-154h-57zM424 1014q10 -2 23.5 -2h23.5q53 0 74.5 15t21.5 52q0 39 -20.5 51.5t-57.5 12.5q-14 0 -31.5 -1t-33.5 -3v-125z" />
<glyph unicode="&#xaf;" horiz-adv-x="661" d="M96 1124v99h471v-99h-471z" />
<glyph unicode="&#xb0;" horiz-adv-x="739" d="M92 1067q0 127 69.5 203t207.5 76q137 0 206.5 -76t69.5 -203t-69.5 -203t-206.5 -76t-207 76t-70 203zM205 1067q0 -84 39 -129t125 -45q84 0 123.5 45t39.5 129t-39.5 129t-123.5 45q-86 0 -125 -45t-39 -129z" />
<glyph unicode="&#xb1;" horiz-adv-x="1191" d="M182 0v106h826v-106h-826zM182 588v106h353v350h120v-350h353v-106h-353v-350h-120v350h-353z" />
<glyph unicode="&#xb2;" horiz-adv-x="688" d="M92 1282q47 25 108.5 41t123.5 16q109 0 174 -55t65 -158q0 -61 -25.5 -117.5t-67.5 -108.5t-97.5 -102t-114.5 -100h322v-98h-476v92q78 66 142.5 124t109.5 110.5t70 100.5t25 93q0 55 -37 88t-103 33q-47 0 -98 -14.5t-88 -30.5z" />
<glyph unicode="&#xb3;" horiz-adv-x="667" d="M96 623l23 96q35 -10 85 -19.5t99 -9.5q72 0 115 29t43 100q0 66 -38 89.5t-106 23.5h-73v96h69q59 0 96 20.5t37 81.5q0 111 -124 111q-45 0 -92.5 -13.5t-86.5 -31.5l-41 84q47 25 107.5 42t120.5 17q94 0 161.5 -49t67.5 -151q0 -59 -24.5 -97t-65.5 -57 q47 -18 75.5 -59t28.5 -113q0 -109 -69.5 -165t-196.5 -56q-51 0 -104 8t-107 23z" />
<glyph unicode="&#xb4;" horiz-adv-x="600" d="M195 1073l194 309l123 -96l-254 -262z" />
<glyph unicode="&#xb5;" horiz-adv-x="1050" d="M53 -373q25 51 42.5 106.5t29.5 126t18.5 161t6.5 212.5v713h143v-643q0 -106 49 -151.5t137 -45.5q68 0 137.5 23t128.5 57v760h144v-946h-111l-12 88q-61 -47 -142 -77.5t-171 -30.5q-98 0 -162 43q-4 -125 -34 -226.5t-71 -169.5h-133z" />
<glyph unicode="&#xb6;" horiz-adv-x="983" d="M88 993q0 168 85 247t245 79h393v-1692h-141v1045h-113v-1045h-141v1045q-168 4 -248 83t-80 238z" />
<glyph unicode="&#xb7;" horiz-adv-x="493" d="M166 424v176h164v-176h-164z" />
<glyph unicode="&#xb8;" horiz-adv-x="534" d="M119 -379l12 68q41 -10 76 -11q45 0 73.5 19.5t28.5 66.5q0 39 -28.5 61.5t-118.5 22.5l12 64q123 0 175 -34t52 -107q0 -74 -46 -119t-130 -45q-29 0 -59.5 5t-46.5 9z" />
<glyph unicode="&#xb9;" horiz-adv-x="602" d="M94 1225l193 94h104v-719h-115v604l-149 -57z" />
<glyph unicode="&#xba;" horiz-adv-x="636" d="M86 1069q0 125 53.5 197.5t179.5 72.5q127 0 180.5 -72.5t53.5 -197.5q0 -127 -53.5 -199.5t-180.5 -72.5t-180 72.5t-53 199.5zM195 1069q0 -84 26 -132t98 -48q74 0 99.5 48t25.5 132t-25.5 131t-99.5 47q-72 0 -98 -47t-26 -131z" />
<glyph unicode="&#xbb;" horiz-adv-x="954" d="M53 135q33 31 74 70t80 77t69.5 69.5t46.5 50.5q23 25 31 44t8 42q0 41 -39 86q-16 18 -46.5 49.5t-69.5 69.5t-80 77t-74 70l82 90q35 -33 74 -70t75.5 -71.5t67.5 -66.5t51 -52q47 -49 68.5 -91t21.5 -89t-21.5 -89.5t-68.5 -91.5q-20 -23 -51 -53.5t-67.5 -66 t-75.5 -71.5t-74 -69zM407 135q33 31 74 70t80 77t69.5 69.5t46.5 50.5q23 25 31 44t8 42q0 41 -39 86q-16 18 -46.5 49.5t-69.5 69.5t-80 77t-74 70l82 90q35 -33 74 -70t75.5 -71.5t67.5 -66.5t51 -52q47 -49 68.5 -91t21.5 -89t-21.5 -89.5t-68.5 -91.5 q-20 -23 -51 -53.5t-67.5 -66t-75.5 -71.5t-74 -69z" />
<glyph unicode="&#xbc;" horiz-adv-x="1427" d="M94 1225l193 94h104v-719h-115v604l-149 -57zM190 0l789 1319h131l-788 -1319h-132zM723 137v84q68 131 138.5 256t142.5 250h112q-70 -123 -140.5 -249t-129.5 -242h217l12 153h99v-153h120v-99h-120v-137h-111v137h-340z" />
<glyph unicode="&#xbd;" horiz-adv-x="1517" d="M94 1225l193 94h104v-719h-115v604l-149 -57zM192 0l789 1319h131l-789 -1319h-131zM880 684q47 25 108.5 41t123.5 16q109 0 174 -55t65 -158q0 -61 -25.5 -117.5t-67.5 -108.5t-97.5 -102t-114.5 -100h322v-98h-476v92q78 66 142.5 124t109.5 110.5t70 100.5t25 93 q0 55 -37 88t-103 33q-47 0 -98 -14.5t-88 -30.5z" />
<glyph unicode="&#xbe;" horiz-adv-x="1523" d="M96 623l23 96q35 -10 85 -19.5t99 -9.5q72 0 115 29t43 100q0 66 -38 89.5t-106 23.5h-73v96h69q59 0 96 20.5t37 81.5q0 111 -124 111q-45 0 -92.5 -13.5t-86.5 -31.5l-41 84q47 25 107.5 42t120.5 17q94 0 161.5 -49t67.5 -151q0 -59 -24.5 -97t-65.5 -57 q47 -18 75.5 -59t28.5 -113q0 -109 -69.5 -165t-196.5 -56q-51 0 -104 8t-107 23zM311 0l789 1319h131l-789 -1319h-131zM844 137v84q68 131 138.5 256t141.5 250h113q-70 -123 -140.5 -249t-129.5 -242h217l12 153h98v-153h121v-99h-121v-137h-110v137h-340z" />
<glyph unicode="&#xbf;" horiz-adv-x="845" d="M37 -57q0 59 14.5 105t38 85t55 73t68.5 70q45 45 75.5 80t51 70t30 73t9.5 91h129q0 -76 -12.5 -130t-36 -99.5t-58 -86.5t-82.5 -88q-51 -51 -90 -105t-39 -136q0 -104 63.5 -154.5t168.5 -50.5q72 0 146.5 21.5t131.5 52.5l52 -117q-70 -41 -160 -65.5t-182 -24.5 q-78 0 -145.5 20.5t-119 62.5t-80 104.5t-28.5 148.5zM354 770v176h166v-176h-166z" />
<glyph unicode="&#xc0;" d="M37 0q92 334 197.5 660.5t224.5 658.5h213q119 -332 224 -658.5t198 -660.5h-160q-23 84 -45.5 165t-44.5 163h-563q-23 -82 -45.5 -163t-45.5 -165h-153zM317 1655l123 96l192 -309l-61 -49zM319 461h486q-55 186 -114.5 366.5t-123.5 360.5h-10q-63 -180 -122.5 -360.5 t-115.5 -366.5z" />
<glyph unicode="&#xc1;" d="M37 0q92 334 197.5 660.5t224.5 658.5h213q119 -332 224 -658.5t198 -660.5h-160q-23 84 -45.5 165t-44.5 163h-563q-23 -82 -45.5 -163t-45.5 -165h-153zM319 461h486q-55 186 -114.5 366.5t-123.5 360.5h-10q-63 -180 -122.5 -360.5t-115.5 -366.5zM488 1442l194 309 l123 -96l-254 -262z" />
<glyph unicode="&#xc2;" d="M37 0q92 334 197.5 660.5t224.5 658.5h213q119 -332 224 -658.5t198 -660.5h-160q-23 84 -45.5 165t-44.5 163h-563q-23 -82 -45.5 -163t-45.5 -165h-153zM301 1444l207 244h114l209 -244l-59 -47l-207 190l-207 -190zM319 461h486q-55 186 -114.5 366.5t-123.5 360.5 h-10q-63 -180 -122.5 -360.5t-115.5 -366.5z" />
<glyph unicode="&#xc3;" d="M37 0q92 334 197.5 660.5t224.5 658.5h213q119 -332 224 -658.5t198 -660.5h-160q-23 84 -45.5 165t-44.5 163h-563q-23 -82 -45.5 -163t-45.5 -165h-153zM246 1495q29 72 67.5 115t102.5 43q39 0 77 -14.5t74.5 -32t72.5 -31.5t69 -14q37 0 61.5 21.5t40.5 62.5l68 -35 q-29 -74 -67 -116t-103 -42q-41 0 -79 14.5t-75 32t-70.5 31.5t-66.5 14q-39 0 -62.5 -21.5t-39.5 -62.5zM319 461h486q-55 186 -114.5 366.5t-123.5 360.5h-10q-63 -180 -122.5 -360.5t-115.5 -366.5z" />
<glyph unicode="&#xc4;" d="M37 0q92 334 197.5 660.5t224.5 658.5h213q119 -332 224 -658.5t198 -660.5h-160q-23 84 -45.5 165t-44.5 163h-563q-23 -82 -45.5 -163t-45.5 -165h-153zM307 1466v162h150v-162h-150zM319 461h486q-55 186 -114.5 366.5t-123.5 360.5h-10q-63 -180 -122.5 -360.5 t-115.5 -366.5zM676 1466v162h150v-162h-150z" />
<glyph unicode="&#xc5;" d="M37 0q92 334 197.5 660.5t224.5 658.5h213q119 -332 224 -658.5t198 -660.5h-160q-23 84 -45.5 165t-44.5 163h-563q-23 -82 -45.5 -163t-45.5 -165h-153zM319 461h486q-55 186 -114.5 366.5t-123.5 360.5h-10q-63 -180 -122.5 -360.5t-115.5 -366.5zM375 1599 q0 84 51 137.5t137 53.5q90 0 140.5 -52t50.5 -136t-51.5 -137.5t-137.5 -53.5q-90 0 -140 52.5t-50 135.5zM459 1599q0 -51 26.5 -81.5t79.5 -30.5t79 31.5t26 83.5q0 51 -27 81.5t-80 30.5t-78.5 -31.5t-25.5 -83.5z" />
<glyph unicode="&#xc6;" horiz-adv-x="1566" d="M14 0q131 338 278.5 662.5t307.5 656.5h875v-135h-660l86 -434h477v-134h-448l98 -481h445v-135h-568l-67 328h-541q-35 -82 -66.5 -163t-64.5 -165h-152zM354 461h457l-141 686h-4q-80 -170 -158 -340t-154 -346z" />
<glyph unicode="&#xc7;" horiz-adv-x="1085" d="M96 659q0 166 31 284t92 204q82 113 196.5 152.5t246.5 39.5q80 0 169 -11t162 -30l-24 -129q-61 14 -147.5 25.5t-157.5 11.5q-92 0 -179.5 -28.5t-146.5 -114.5q-88 -131 -88 -406q0 -127 19.5 -227t66.5 -172q51 -80 127 -112.5t174 -32.5q92 0 186.5 23.5t171.5 58.5 l47 -121q-90 -47 -201.5 -70.5t-211.5 -23.5q-133 0 -239.5 44t-176.5 144q-59 86 -88 211t-29 280zM494 -379l12 68q41 -10 76 -11q45 0 73.5 19.5t28.5 66.5q0 39 -28.5 61.5t-118.5 22.5l12 64q123 0 175 -34t52 -107q0 -74 -46 -119t-130 -45q-29 0 -59.5 5t-46.5 9z " />
<glyph unicode="&#xc8;" horiz-adv-x="1015" d="M174 0v1319h754v-133h-602v-436h505v-134h-505v-483h602v-133h-754zM305 1655l123 96l192 -309l-61 -49z" />
<glyph unicode="&#xc9;" horiz-adv-x="1015" d="M174 0v1319h754v-133h-602v-436h505v-134h-505v-483h602v-133h-754zM465 1442l194 309l123 -96l-254 -262z" />
<glyph unicode="&#xca;" horiz-adv-x="1015" d="M174 0v1319h754v-133h-602v-436h505v-134h-505v-483h602v-133h-754zM301 1444l207 244h114l209 -244l-59 -47l-207 190l-207 -190z" />
<glyph unicode="&#xcb;" horiz-adv-x="1015" d="M174 0v1319h754v-133h-602v-436h505v-134h-505v-483h602v-133h-754zM303 1466v162h150v-162h-150zM672 1466v162h150v-162h-150z" />
<glyph unicode="&#xcc;" horiz-adv-x="499" d="M6 1655l123 96l192 -309l-61 -49zM172 0v1319h152v-1319h-152z" />
<glyph unicode="&#xcd;" horiz-adv-x="499" d="M174 0v1319h152v-1319h-152zM179 1442l194 309l123 -96l-254 -262z" />
<glyph unicode="&#xce;" horiz-adv-x="499" d="M-14 1444l207 244h114l209 -244l-59 -47l-207 190l-207 -190zM174 0v1319h152v-1319h-152z" />
<glyph unicode="&#xcf;" horiz-adv-x="499" d="M-7 1466v162h150v-162h-150zM174 0v1319h152v-1319h-152zM362 1466v162h150v-162h-150z" />
<glyph unicode="&#xd0;" horiz-adv-x="1267" d="M25 616v134h161v555q39 6 86 12t98.5 10t101.5 7t95 3q317 0 466 -162.5t149 -521.5q0 -180 -38 -307t-118 -207t-206 -115.5t-304 -35.5q-33 0 -75 1t-86 3l-88 4t-81 6v614h-161zM338 125q47 -2 94 -3t84 -1q129 0 225.5 22.5t160 81t95 161.5t31.5 265 q0 154 -28.5 260.5t-87 171t-149.5 93t-214 28.5q-53 0 -113.5 -4t-97.5 -8v-442h303v-134h-303v-491z" />
<glyph unicode="&#xd1;" horiz-adv-x="1368" d="M174 0v1319h232l628 -1149h10v1149h150v-1319h-231l-629 1149h-10v-1149h-150zM365 1495q29 72 67.5 115t102.5 43q39 0 77 -14.5t74.5 -32t72.5 -31.5t69 -14q37 0 61.5 21.5t40.5 62.5l68 -35q-29 -74 -67 -116t-103 -42q-41 0 -79 14.5t-75 32t-70.5 31.5t-66.5 14 q-39 0 -62.5 -21.5t-39.5 -62.5z" />
<glyph unicode="&#xd2;" horiz-adv-x="1318" d="M96 659q0 342 138.5 511t424.5 169q287 0 425.5 -169t138.5 -511t-138.5 -510.5t-425.5 -168.5t-425 168.5t-138 510.5zM250 659q0 -291 102 -418.5t307 -127.5t307.5 128t102.5 418q0 291 -102.5 419t-307.5 128t-307 -128t-102 -419zM430 1655l123 96l192 -309l-61 -49 z" />
<glyph unicode="&#xd3;" horiz-adv-x="1318" d="M96 659q0 342 138.5 511t424.5 169q287 0 425.5 -169t138.5 -511t-138.5 -510.5t-425.5 -168.5t-425 168.5t-138 510.5zM250 659q0 -291 102 -418.5t307 -127.5t307.5 128t102.5 418q0 291 -102.5 419t-307.5 128t-307 -128t-102 -419zM574 1442l194 309l123 -96 l-254 -262z" />
<glyph unicode="&#xd4;" horiz-adv-x="1318" d="M96 659q0 342 138.5 511t424.5 169q287 0 425.5 -169t138.5 -511t-138.5 -510.5t-425.5 -168.5t-425 168.5t-138 510.5zM250 659q0 -291 102 -418.5t307 -127.5t307.5 128t102.5 418q0 291 -102.5 419t-307.5 128t-307 -128t-102 -419zM393 1444l207 244h114l209 -244 l-59 -47l-207 190l-207 -190z" />
<glyph unicode="&#xd5;" horiz-adv-x="1318" d="M96 659q0 342 138.5 511t424.5 169q287 0 425.5 -169t138.5 -511t-138.5 -510.5t-425.5 -168.5t-425 168.5t-138 510.5zM250 659q0 -291 102 -418.5t307 -127.5t307.5 128t102.5 418q0 291 -102.5 419t-307.5 128t-307 -128t-102 -419zM342 1495q29 72 67.5 115t102.5 43 q39 0 77 -14.5t74.5 -32t72.5 -31.5t69 -14q37 0 61.5 21.5t40.5 62.5l68 -35q-29 -74 -67 -116t-103 -42q-41 0 -79 14.5t-75 32t-70.5 31.5t-66.5 14q-39 0 -62.5 -21.5t-39.5 -62.5z" />
<glyph unicode="&#xd6;" horiz-adv-x="1318" d="M96 659q0 342 138.5 511t424.5 169q287 0 425.5 -169t138.5 -511t-138.5 -510.5t-425.5 -168.5t-425 168.5t-138 510.5zM250 659q0 -291 102 -418.5t307 -127.5t307.5 128t102.5 418q0 291 -102.5 419t-307.5 128t-307 -128t-102 -419zM399 1466v162h150v-162h-150z M768 1466v162h150v-162h-150z" />
<glyph unicode="&#xd7;" horiz-adv-x="1116" d="M182 176l289 293l-289 293l84 82l289 -293l289 293l84 -82l-289 -293l289 -293l-84 -82l-289 293l-289 -293z" />
<glyph unicode="&#xd8;" horiz-adv-x="1318" d="M96 659q0 342 138.5 511t424.5 169q207 0 342 -94l52 74h139l-107 -152q137 -170 138 -508q0 -342 -138.5 -510.5t-425.5 -168.5q-213 0 -342 92l-51 -72h-139l106 152q-137 168 -137 507zM250 659q0 -248 74 -378l594 845q-94 80 -259 80q-205 0 -307 -128t-102 -419z M399 190q96 -78 260 -77q205 0 307.5 128t102.5 418q0 246 -76 377z" />
<glyph unicode="&#xd9;" horiz-adv-x="1298" d="M160 473v846h151v-827q0 -102 17.5 -175t57.5 -118t104.5 -65.5t158.5 -20.5t158.5 20.5t104.5 65.5t57.5 117.5t17.5 175.5v827h152v-846q0 -121 -27 -213t-85 -154.5t-151.5 -94t-226.5 -31.5t-226 31.5t-151.5 94t-85 154.5t-26.5 213zM405 1655l123 96l192 -309 l-61 -49z" />
<glyph unicode="&#xda;" horiz-adv-x="1298" d="M160 473v846h151v-827q0 -102 17.5 -175t57.5 -118t104.5 -65.5t158.5 -20.5t158.5 20.5t104.5 65.5t57.5 117.5t17.5 175.5v827h152v-846q0 -121 -27 -213t-85 -154.5t-151.5 -94t-226.5 -31.5t-226 31.5t-151.5 94t-85 154.5t-26.5 213zM572 1442l194 309l123 -96 l-254 -262z" />
<glyph unicode="&#xdb;" horiz-adv-x="1298" d="M160 473v846h151v-827q0 -102 17.5 -175t57.5 -118t104.5 -65.5t158.5 -20.5t158.5 20.5t104.5 65.5t57.5 117.5t17.5 175.5v827h152v-846q0 -121 -27 -213t-85 -154.5t-151.5 -94t-226.5 -31.5t-226 31.5t-151.5 94t-85 154.5t-26.5 213zM383 1444l207 244h114l209 -244 l-59 -47l-207 190l-207 -190z" />
<glyph unicode="&#xdc;" horiz-adv-x="1298" d="M160 473v846h151v-827q0 -102 17.5 -175t57.5 -118t104.5 -65.5t158.5 -20.5t158.5 20.5t104.5 65.5t57.5 117.5t17.5 175.5v827h152v-846q0 -121 -27 -213t-85 -154.5t-151.5 -94t-226.5 -31.5t-226 31.5t-151.5 94t-85 154.5t-26.5 213zM393 1466v162h150v-162h-150z M762 1466v162h150v-162h-150z" />
<glyph unicode="&#xdd;" d="M37 1319h166q76 -182 169 -367.5t193 -345.5h4q100 160 193.5 345.5t169.5 367.5h162q-102 -236 -212 -438.5t-241 -405.5v-475h-152v475q-133 203 -241.5 405.5t-210.5 438.5zM506 1442l194 309l123 -96l-254 -262z" />
<glyph unicode="&#xde;" horiz-adv-x="1112" d="M174 0v1319h152v-238q66 4 130 8.5t117 4.5q109 0 198 -17.5t153.5 -61.5t100.5 -122t36 -197q0 -129 -40 -212t-110.5 -132t-166 -68.5t-203.5 -19.5q-47 0 -102.5 3t-112.5 7v-274h-152zM326 406q55 -4 108 -6.5t88 -2.5q90 0 162 12.5t121 45t75.5 90t26.5 147.5 q0 80 -22.5 132.5t-65.5 83t-108.5 42t-151.5 11.5q-47 0 -110.5 -3.5t-122.5 -9.5v-542z" />
<glyph unicode="&#xdf;" horiz-adv-x="1134" d="M158 0v940q0 88 22.5 162t72.5 126t131 81.5t198 29.5q82 0 149.5 -14t115.5 -45t74.5 -77t26.5 -109q0 -92 -51 -149.5t-121 -106.5q-59 -41 -99 -73t-40 -75q0 -23 11 -37t34 -28.5t56.5 -29.5t78.5 -38q47 -23 89 -47.5t74 -55t50.5 -72.5t18.5 -99q0 -131 -98.5 -217 t-291.5 -86q-59 0 -127.5 8t-128.5 20l23 125q49 -10 104.5 -19.5t114.5 -9.5q117 0 186.5 41t69.5 127q0 39 -15.5 67t-41 49.5t-61 38.5t-76.5 36q-57 25 -98.5 47t-67 46t-37.5 51.5t-12 66.5t11 69.5t33.5 57t55.5 52.5t76 56q61 45 98 82t37 92q0 59 -52.5 94 t-168.5 35q-82 0 -136.5 -18t-86 -53t-45 -89.5t-13.5 -123.5v-928h-143z" />
<glyph unicode="&#xe0;" horiz-adv-x="964" d="M78 272q0 76 27.5 131.5t74.5 90t112.5 52t143.5 17.5q20 0 50 -1t63 -3t65.5 -4t59.5 -4v117q0 104 -59.5 138t-157.5 34q-80 0 -157 -12.5t-130 -28.5l-29 121q61 18 147.5 32.5t172.5 14.5q72 0 136.5 -12.5t113.5 -45t77.5 -87t28.5 -138.5v-684h-110l-15 88 q-57 -47 -138 -77.5t-167 -30.5q-135 0 -222 76.5t-87 215.5zM223 276q0 -86 52.5 -134t144.5 -48q61 0 131 22.5t123 65.5v262q-23 2 -53.5 3.5t-61.5 2.5t-58.5 2t-41.5 1q-47 0 -89 -8.5t-75 -28t-52.5 -54.5t-19.5 -86zM287 1286l123 96l192 -309l-61 -49z" />
<glyph unicode="&#xe1;" horiz-adv-x="964" d="M78 272q0 76 27.5 131.5t74.5 90t112.5 52t143.5 17.5q20 0 50 -1t63 -3t65.5 -4t59.5 -4v117q0 104 -59.5 138t-157.5 34q-80 0 -157 -12.5t-130 -28.5l-29 121q61 18 147.5 32.5t172.5 14.5q72 0 136.5 -12.5t113.5 -45t77.5 -87t28.5 -138.5v-684h-110l-15 88 q-57 -47 -138 -77.5t-167 -30.5q-135 0 -222 76.5t-87 215.5zM223 276q0 -86 52.5 -134t144.5 -48q61 0 131 22.5t123 65.5v262q-23 2 -53.5 3.5t-61.5 2.5t-58.5 2t-41.5 1q-47 0 -89 -8.5t-75 -28t-52.5 -54.5t-19.5 -86zM392 1073l194 309l123 -96l-254 -262z" />
<glyph unicode="&#xe2;" horiz-adv-x="964" d="M78 272q0 76 27.5 131.5t74.5 90t112.5 52t143.5 17.5q20 0 50 -1t63 -3t65.5 -4t59.5 -4v117q0 104 -59.5 138t-157.5 34q-80 0 -157 -12.5t-130 -28.5l-29 121q61 18 147.5 32.5t172.5 14.5q72 0 136.5 -12.5t113.5 -45t77.5 -87t28.5 -138.5v-684h-110l-15 88 q-57 -47 -138 -77.5t-167 -30.5q-135 0 -222 76.5t-87 215.5zM215 1075l207 244h114l209 -244l-59 -47l-207 191l-207 -191zM223 276q0 -86 52.5 -134t144.5 -48q61 0 131 22.5t123 65.5v262q-23 2 -53.5 3.5t-61.5 2.5t-58.5 2t-41.5 1q-47 0 -89 -8.5t-75 -28t-52.5 -54.5 t-19.5 -86z" />
<glyph unicode="&#xe3;" horiz-adv-x="964" d="M78 272q0 76 27.5 131.5t74.5 90t112.5 52t143.5 17.5q20 0 50 -1t63 -3t65.5 -4t59.5 -4v117q0 104 -59.5 138t-157.5 34q-80 0 -157 -12.5t-130 -28.5l-29 121q61 18 147.5 32.5t172.5 14.5q72 0 136.5 -12.5t113.5 -45t77.5 -87t28.5 -138.5v-684h-110l-15 88 q-57 -47 -138 -77.5t-167 -30.5q-135 0 -222 76.5t-87 215.5zM164 1126q29 72 67.5 115t102.5 43q39 0 77 -14.5t74.5 -31.5t72.5 -31.5t69 -14.5q37 0 61.5 21.5t40.5 62.5l68 -35q-29 -74 -67 -116t-103 -42q-41 0 -79 14.5t-75 32t-70.5 32t-66.5 14.5q-39 0 -62.5 -21.5 t-39.5 -62.5zM223 276q0 -86 52.5 -134t144.5 -48q61 0 131 22.5t123 65.5v262q-23 2 -53.5 3.5t-61.5 2.5t-58.5 2t-41.5 1q-47 0 -89 -8.5t-75 -28t-52.5 -54.5t-19.5 -86z" />
<glyph unicode="&#xe4;" horiz-adv-x="964" d="M78 272q0 76 27.5 131.5t74.5 90t112.5 52t143.5 17.5q20 0 50 -1t63 -3t65.5 -4t59.5 -4v117q0 104 -59.5 138t-157.5 34q-80 0 -157 -12.5t-130 -28.5l-29 121q61 18 147.5 32.5t172.5 14.5q72 0 136.5 -12.5t113.5 -45t77.5 -87t28.5 -138.5v-684h-110l-15 88 q-57 -47 -138 -77.5t-167 -30.5q-135 0 -222 76.5t-87 215.5zM221 1098v162h150v-162h-150zM223 276q0 -86 52.5 -134t144.5 -48q61 0 131 22.5t123 65.5v262q-23 2 -53.5 3.5t-61.5 2.5t-58.5 2t-41.5 1q-47 0 -89 -8.5t-75 -28t-52.5 -54.5t-19.5 -86zM590 1098v162h150 v-162h-150z" />
<glyph unicode="&#xe5;" horiz-adv-x="964" d="M78 272q0 76 27.5 131.5t74.5 90t112.5 52t143.5 17.5q20 0 50 -1t63 -3t65.5 -4t59.5 -4v117q0 104 -59.5 138t-157.5 34q-80 0 -157 -12.5t-130 -28.5l-29 121q61 18 147.5 32.5t172.5 14.5q72 0 136.5 -12.5t113.5 -45t77.5 -87t28.5 -138.5v-684h-110l-15 88 q-57 -47 -138 -77.5t-167 -30.5q-135 0 -222 76.5t-87 215.5zM223 276q0 -86 52.5 -134t144.5 -48q61 0 131 22.5t123 65.5v262q-23 2 -53.5 3.5t-61.5 2.5t-58.5 2t-41.5 1q-47 0 -89 -8.5t-75 -28t-52.5 -54.5t-19.5 -86zM293 1231q0 84 51 137t137 53q90 0 140.5 -52 t50.5 -136t-51.5 -137.5t-137.5 -53.5q-90 0 -140 52.5t-50 136.5zM377 1231q0 -51 26.5 -82t79.5 -31t79 32t26 83t-27 82t-80 31t-78.5 -32t-25.5 -83z" />
<glyph unicode="&#xe6;" horiz-adv-x="1492" d="M78 274q0 147 97 218t265 71q49 0 107.5 -4t111.5 -10v57q0 51 -5 94t-26.5 74t-64.5 48.5t-119 17.5q-72 0 -150.5 -12.5t-131.5 -28.5l-29 121q63 18 151.5 32.5t174.5 14.5q119 0 190.5 -36t108.5 -114q45 72 118.5 111t172.5 39q92 0 158.5 -33t109.5 -90.5 t64.5 -135t21.5 -165.5q0 -25 -2 -58.5t-6 -62.5h-594q6 -160 76.5 -236.5t199.5 -76.5q74 0 137.5 20.5t126.5 50.5l52 -112q-57 -31 -143.5 -59.5t-192.5 -28.5q-117 0 -195 39.5t-125 113.5q-61 -72 -149 -112.5t-193 -40.5q-68 0 -126 19t-101 56t-66.5 92t-23.5 127z M223 276q0 -88 52.5 -135t142.5 -47q78 0 151.5 35t120.5 94q-16 47 -23.5 101.5t-7.5 113.5q-41 6 -95 10.5t-95 4.5q-109 0 -177.5 -38.5t-68.5 -138.5zM799 537h463q0 61 -10.5 115.5t-36 96.5t-67.5 66.5t-106 24.5q-61 0 -106 -23.5t-75 -64.5t-45 -96.5t-17 -118.5z " />
<glyph unicode="&#xe7;" horiz-adv-x="878" d="M98 471q0 106 21.5 197.5t72 157t133.5 103.5t205 38q59 0 131 -8.5t130 -22.5l-19 -119q-47 10 -113.5 18.5t-121.5 8.5q-160 0 -226.5 -90t-66.5 -283q0 -74 11 -139.5t42 -114.5t84 -78.5t139 -29.5q61 0 132 16t134 45l43 -115q-63 -31 -150 -53t-179 -22 q-209 0 -305.5 130t-96.5 361zM365 -379l12 68q41 -10 76 -11q45 0 73.5 19.5t28.5 66.5q0 39 -28.5 61.5t-118.5 22.5l12 64q123 0 175 -34t52 -107q0 -74 -46 -119t-130 -45q-29 0 -59.5 5t-46.5 9z" />
<glyph unicode="&#xe8;" horiz-adv-x="933" d="M92 467q0 113 25.5 205t76 157.5t124 101.5t167.5 36q92 0 160 -33t112 -91.5t65.5 -137t21.5 -173.5q0 -27 -2 -54t-6 -56h-596q8 -143 71.5 -228t208.5 -85q78 0 143.5 22.5t127.5 52.5l51 -112q-57 -33 -144.5 -62.5t-191.5 -29.5q-188 0 -301 118.5t-113 368.5z M238 537h464q0 57 -10 111t-35.5 97t-68.5 69t-107 26q-119 0 -178 -85t-65 -218zM272 1286l123 96l192 -309l-61 -49z" />
<glyph unicode="&#xe9;" horiz-adv-x="933" d="M92 467q0 113 25.5 205t76 157.5t124 101.5t167.5 36q92 0 160 -33t112 -91.5t65.5 -137t21.5 -173.5q0 -27 -2 -54t-6 -56h-596q8 -143 71.5 -228t208.5 -85q78 0 143.5 22.5t127.5 52.5l51 -112q-57 -33 -144.5 -62.5t-191.5 -29.5q-188 0 -301 118.5t-113 368.5z M238 537h464q0 57 -10 111t-35.5 97t-68.5 69t-107 26q-119 0 -178 -85t-65 -218zM396 1073l194 309l123 -96l-254 -262z" />
<glyph unicode="&#xea;" horiz-adv-x="933" d="M92 467q0 113 25.5 205t76 157.5t124 101.5t167.5 36q92 0 160 -33t112 -91.5t65.5 -137t21.5 -173.5q0 -27 -2 -54t-6 -56h-596q8 -143 71.5 -228t208.5 -85q78 0 143.5 22.5t127.5 52.5l51 -112q-57 -33 -144.5 -62.5t-191.5 -29.5q-188 0 -301 118.5t-113 368.5z M223 1075l207 244h114l209 -244l-59 -47l-207 191l-207 -191zM238 537h464q0 57 -10 111t-35.5 97t-68.5 69t-107 26q-119 0 -178 -85t-65 -218z" />
<glyph unicode="&#xeb;" horiz-adv-x="933" d="M92 467q0 113 25.5 205t76 157.5t124 101.5t167.5 36q92 0 160 -33t112 -91.5t65.5 -137t21.5 -173.5q0 -27 -2 -54t-6 -56h-596q8 -143 71.5 -228t208.5 -85q78 0 143.5 22.5t127.5 52.5l51 -112q-57 -33 -144.5 -62.5t-191.5 -29.5q-188 0 -301 118.5t-113 368.5z M221 1098v162h150v-162h-150zM238 537h464q0 57 -10 111t-35.5 97t-68.5 69t-107 26q-119 0 -178 -85t-65 -218zM590 1098v162h150v-162h-150z" />
<glyph unicode="&#xec;" horiz-adv-x="458" d="M6 1286l123 96l192 -309l-61 -49zM158 0v946h143v-946h-143z" />
<glyph unicode="&#xed;" horiz-adv-x="458" d="M138 1073l194 309l123 -96l-254 -262zM158 0v946h143v-946h-143z" />
<glyph unicode="&#xee;" horiz-adv-x="458" d="M-35 1075l207 244h114l209 -244l-59 -47l-207 191l-207 -191zM158 0v946h143v-946h-143z" />
<glyph unicode="&#xef;" horiz-adv-x="458" d="M-27 1098v162h150v-162h-150zM158 0v946h143v-946h-143zM342 1098v162h150v-162h-150z" />
<glyph unicode="&#xf0;" horiz-adv-x="1034" d="M92 489q0 240 92 359t293 119q39 0 86 -5.5t99 -15.5q-35 55 -72 103.5t-78 89.5l-172 -121l-59 86l155 110q-41 37 -80 65t-71 50l59 88q51 -29 100.5 -60.5t96.5 -68.5l161 115l62 -88l-141 -101q96 -94 168 -210q63 -104 104 -238.5t41 -294.5q0 -109 -22.5 -199 t-74 -155.5t-131 -101t-196.5 -35.5q-115 0 -193.5 35.5t-130 101t-74 160.5t-22.5 212zM238 492q0 -86 12 -157t44 -121t85 -79t135 -29q80 0 133 27t85 75t45.5 114.5t13.5 146.5q0 100 -18.5 186t-53.5 166q-57 12 -118.5 19.5t-104.5 7.5q-145 0 -201.5 -87t-56.5 -269z " />
<glyph unicode="&#xf1;" horiz-adv-x="1046" d="M158 0v946h112l13 -96q59 45 141 81t182 36q131 0 215 -76t84 -234v-657h-143v641q0 106 -49 152.5t-138 46.5q-76 0 -147.5 -27t-126.5 -57v-756h-143zM223 1126q29 72 67.5 115t102.5 43q39 0 77 -14.5t74.5 -31.5t72.5 -31.5t69 -14.5q37 0 61.5 21.5t40.5 62.5 l68 -35q-29 -74 -67 -116t-103 -42q-41 0 -79 14.5t-75 32t-70.5 32t-66.5 14.5q-39 0 -62.5 -21.5t-39.5 -62.5z" />
<glyph unicode="&#xf2;" horiz-adv-x="1030" d="M92 473q0 111 22.5 201t74 155.5t131 101.5t194.5 36t194.5 -36t131 -101.5t74 -155.5t22.5 -201t-22.5 -201t-74 -155.5t-131 -101t-194.5 -35.5t-194.5 35.5t-131 101t-74 155.5t-22.5 201zM238 473q0 -80 13 -146.5t45 -115.5t85 -77t133 -28t133 28t85 77t45.5 115.5 t13.5 146.5t-13.5 146.5t-45.5 115.5t-85 77t-133 28t-133 -28t-85 -77t-45 -115.5t-13 -146.5zM287 1286l123 96l192 -309l-61 -49z" />
<glyph unicode="&#xf3;" horiz-adv-x="1030" d="M92 473q0 111 22.5 201t74 155.5t131 101.5t194.5 36t194.5 -36t131 -101.5t74 -155.5t22.5 -201t-22.5 -201t-74 -155.5t-131 -101t-194.5 -35.5t-194.5 35.5t-131 101t-74 155.5t-22.5 201zM238 473q0 -80 13 -146.5t45 -115.5t85 -77t133 -28t133 28t85 77t45.5 115.5 t13.5 146.5t-13.5 146.5t-45.5 115.5t-85 77t-133 28t-133 -28t-85 -77t-45 -115.5t-13 -146.5zM428 1073l194 309l123 -96l-254 -262z" />
<glyph unicode="&#xf4;" horiz-adv-x="1030" d="M92 473q0 111 22.5 201t74 155.5t131 101.5t194.5 36t194.5 -36t131 -101.5t74 -155.5t22.5 -201t-22.5 -201t-74 -155.5t-131 -101t-194.5 -35.5t-194.5 35.5t-131 101t-74 155.5t-22.5 201zM238 473q0 -80 13 -146.5t45 -115.5t85 -77t133 -28t133 28t85 77t45.5 115.5 t13.5 146.5t-13.5 146.5t-45.5 115.5t-85 77t-133 28t-133 -28t-85 -77t-45 -115.5t-13 -146.5zM250 1075l207 244h114l209 -244l-59 -47l-207 191l-207 -191z" />
<glyph unicode="&#xf5;" horiz-adv-x="1030" d="M92 473q0 111 22.5 201t74 155.5t131 101.5t194.5 36t194.5 -36t131 -101.5t74 -155.5t22.5 -201t-22.5 -201t-74 -155.5t-131 -101t-194.5 -35.5t-194.5 35.5t-131 101t-74 155.5t-22.5 201zM197 1126q29 72 67.5 115t102.5 43q39 0 77 -14.5t74.5 -31.5t72.5 -31.5 t69 -14.5q37 0 61.5 21.5t40.5 62.5l68 -35q-29 -74 -67 -116t-103 -42q-41 0 -79 14.5t-75 32t-70.5 32t-66.5 14.5q-39 0 -62.5 -21.5t-39.5 -62.5zM238 473q0 -80 13 -146.5t45 -115.5t85 -77t133 -28t133 28t85 77t45.5 115.5t13.5 146.5t-13.5 146.5t-45.5 115.5 t-85 77t-133 28t-133 -28t-85 -77t-45 -115.5t-13 -146.5z" />
<glyph unicode="&#xf6;" horiz-adv-x="1030" d="M92 473q0 111 22.5 201t74 155.5t131 101.5t194.5 36t194.5 -36t131 -101.5t74 -155.5t22.5 -201t-22.5 -201t-74 -155.5t-131 -101t-194.5 -35.5t-194.5 35.5t-131 101t-74 155.5t-22.5 201zM238 473q0 -80 13 -146.5t45 -115.5t85 -77t133 -28t133 28t85 77t45.5 115.5 t13.5 146.5t-13.5 146.5t-45.5 115.5t-85 77t-133 28t-133 -28t-85 -77t-45 -115.5t-13 -146.5zM258 1098v162h150v-162h-150zM627 1098v162h150v-162h-150z" />
<glyph unicode="&#xf7;" horiz-adv-x="1314" d="M182 420v108h946v-108h-946zM575 0v176h160v-176h-160zM575 772v174h160v-174h-160z" />
<glyph unicode="&#xf8;" horiz-adv-x="1030" d="M92 473q0 111 22.5 201t74 155.5t131 101.5t194.5 36q80 0 142.5 -17.5t109.5 -52.5l37 49h125l-88 -119q51 -66 73.5 -154.5t22.5 -199.5t-23.5 -202t-74 -155.5t-131 -100t-195.5 -35.5q-156 0 -250 67l-35 -47h-127l86 117q-49 66 -71.5 155.5t-22.5 200.5zM238 471 q0 -66 9 -125t32 -106l405 546q-31 25 -73 39.5t-101 14.5q-80 0 -132 -28t-83 -77t-44 -116.5t-13 -147.5zM344 158q63 -51 170 -52q80 0 133 28t85 77t45.5 115.5t13.5 144.5q0 70 -9.5 128t-31.5 106z" />
<glyph unicode="&#xf9;" horiz-adv-x="1040" d="M143 293v653h144v-637q0 -111 48 -157t138 -46q68 0 137.5 23t128.5 57v760h144v-946h-111l-12 88q-61 -47 -142 -77.5t-174 -30.5q-135 0 -218 76.5t-83 236.5zM301 1286l123 96l192 -309l-61 -49z" />
<glyph unicode="&#xfa;" horiz-adv-x="1040" d="M143 293v653h144v-637q0 -111 48 -157t138 -46q68 0 137.5 23t128.5 57v760h144v-946h-111l-12 88q-61 -47 -142 -77.5t-174 -30.5q-135 0 -218 76.5t-83 236.5zM416 1073l194 309l123 -96l-254 -262z" />
<glyph unicode="&#xfb;" horiz-adv-x="1040" d="M143 293v653h144v-637q0 -111 48 -157t138 -46q68 0 137.5 23t128.5 57v760h144v-946h-111l-12 88q-61 -47 -142 -77.5t-174 -30.5q-135 0 -218 76.5t-83 236.5zM254 1075l207 244h114l209 -244l-59 -47l-207 191l-207 -191z" />
<glyph unicode="&#xfc;" horiz-adv-x="1040" d="M143 293v653h144v-637q0 -111 48 -157t138 -46q68 0 137.5 23t128.5 57v760h144v-946h-111l-12 88q-61 -47 -142 -77.5t-174 -30.5q-135 0 -218 76.5t-83 236.5zM260 1098v162h150v-162h-150zM629 1098v162h150v-162h-150z" />
<glyph unicode="&#xfd;" horiz-adv-x="897" d="M51 946h150q55 -223 117.5 -432t134.5 -395h16q66 190 127 403t109 424h143q-39 -160 -86 -330t-100.5 -341t-111.5 -335.5t-120 -312.5h-137q41 98 75.5 191.5t65.5 181.5h-78q-86 209 -162.5 449.5t-142.5 496.5zM400 1073l194 309l123 -96l-254 -262z" />
<glyph unicode="&#xfe;" horiz-adv-x="1032" d="M158 -373v1692h143v-447q59 45 122.5 70t147.5 25q180 0 264.5 -125t84.5 -373q0 -250 -90.5 -369.5t-301.5 -119.5q-102 0 -227 30v-383h-143zM301 129q53 -14 115.5 -22.5t109.5 -8.5q143 0 195.5 90.5t52.5 274.5q0 197 -52 287t-181 90q-117 0 -240 -74v-637z" />
<glyph unicode="&#xff;" horiz-adv-x="897" d="M51 946h150q55 -223 117.5 -432t134.5 -395h16q66 190 127 403t109 424h143q-39 -160 -86 -330t-100.5 -341t-111.5 -335.5t-120 -312.5h-137q41 98 75.5 191.5t65.5 181.5h-78q-86 209 -162.5 449.5t-142.5 496.5zM198 1098v162h150v-162h-150zM567 1098v162h150v-162 h-150z" />
<glyph unicode="&#x152;" horiz-adv-x="1650" d="M96 659q0 334 141.5 497t448.5 163h873v-133h-553v-436h456v-134h-456v-483h553v-133h-873q-307 0 -448.5 162.5t-141.5 496.5zM250 659q0 -147 27.5 -247.5t81 -162t134 -89t187.5 -27.5h174v1053h-174q-106 0 -187 -28t-134.5 -89t-81 -161.5t-27.5 -248.5z" />
<glyph unicode="&#x153;" horiz-adv-x="1593" d="M92 473q0 104 20.5 195.5t67.5 157t124 103.5t190 38q236 0 335 -172q47 86 130 129t188 43q92 0 159.5 -34t111.5 -91.5t64.5 -136t20.5 -166.5q0 -25 -2 -56.5t-6 -60.5h-596q4 -70 20.5 -127t48 -99t82 -64.5t124.5 -22.5q72 0 141 20.5t135 54.5l51 -112 q-66 -37 -152.5 -64.5t-189.5 -27.5q-111 0 -198 39.5t-134 132.5q-45 -80 -130 -126t-208 -46q-106 0 -182 35.5t-123 101t-69.5 155.5t-22.5 201zM238 473q0 -80 12 -146.5t42 -115.5t79 -77t125 -28t125 28t78.5 77t42 115.5t12.5 146.5t-12.5 146.5t-42 115.5t-79 77 t-124.5 28q-76 0 -125 -28t-79 -77t-42 -115.5t-12 -146.5zM897 537h465q0 61 -10.5 115.5t-36 96.5t-67.5 66.5t-105 24.5q-61 0 -107.5 -23.5t-76 -64.5t-45 -96.5t-17.5 -118.5z" />
<glyph unicode="&#x178;" d="M37 1319h166q76 -182 169 -367.5t193 -345.5h4q100 160 193.5 345.5t169.5 367.5h162q-102 -236 -212 -438.5t-241 -405.5v-475h-152v475q-133 203 -241.5 405.5t-210.5 438.5zM309 1466v162h150v-162h-150zM678 1466v162h150v-162h-150z" />
<glyph unicode="&#x2c6;" horiz-adv-x="864" d="M166 1075l207 244h114l209 -244l-59 -47l-207 191l-207 -191z" />
<glyph unicode="&#x2dc;" horiz-adv-x="884" d="M125 1126q29 72 67.5 115t102.5 43q39 0 77 -14.5t74.5 -31.5t72.5 -31.5t69 -14.5q37 0 61.5 21.5t40.5 62.5l68 -35q-29 -74 -67 -116t-103 -42q-41 0 -79 14.5t-75 32t-70.5 32t-66.5 14.5q-39 0 -62.5 -21.5t-39.5 -62.5z" />
<glyph unicode="&#x2000;" horiz-adv-x="895" />
<glyph unicode="&#x2001;" horiz-adv-x="1790" />
<glyph unicode="&#x2002;" horiz-adv-x="895" />
<glyph unicode="&#x2003;" horiz-adv-x="1790" />
<glyph unicode="&#x2004;" horiz-adv-x="596" />
<glyph unicode="&#x2005;" horiz-adv-x="447" />
<glyph unicode="&#x2006;" horiz-adv-x="298" />
<glyph unicode="&#x2007;" horiz-adv-x="298" />
<glyph unicode="&#x2008;" horiz-adv-x="223" />
<glyph unicode="&#x2009;" horiz-adv-x="358" />
<glyph unicode="&#x200a;" horiz-adv-x="99" />
<glyph unicode="&#x2010;" horiz-adv-x="618" d="M92 442v133h432v-133h-432z" />
<glyph unicode="&#x2011;" horiz-adv-x="618" d="M92 442v133h432v-133h-432z" />
<glyph unicode="&#x2012;" horiz-adv-x="618" d="M92 442v133h432v-133h-432z" />
<glyph unicode="&#x2013;" horiz-adv-x="1378" d="M182 451v110h1012v-110h-1012z" />
<glyph unicode="&#x2014;" horiz-adv-x="1548" d="M84 451v110h1382v-110h-1382z" />
<glyph unicode="&#x2018;" horiz-adv-x="491" d="M164 938q0 111 25.5 210t78.5 175l60 -8q-10 -47 -16.5 -106.5t-6.5 -116.5q0 -41 3 -77t7 -69z" />
<glyph unicode="&#x2019;" horiz-adv-x="491" d="M164 946q23 96 22 234q0 33 -2 67.5t-6 67.5l150 8q0 -111 -24.5 -210t-78.5 -175z" />
<glyph unicode="&#x201a;" horiz-adv-x="491" d="M164 -205q23 96 22 234q0 33 -2 67.5t-6 67.5l150 8q0 -111 -24.5 -210t-78.5 -175z" />
<glyph unicode="&#x201c;" horiz-adv-x="731" d="M164 938q0 111 25.5 210t78.5 175l60 -8q-10 -47 -16.5 -106.5t-6.5 -116.5q0 -41 3 -77t7 -69zM404 938q0 111 25.5 210t78.5 175l60 -8q-10 -47 -16.5 -106.5t-6.5 -116.5q0 -41 3 -77t7 -69z" />
<glyph unicode="&#x201d;" horiz-adv-x="731" d="M164 946q23 96 22 234q0 33 -2 67.5t-6 67.5l150 8q0 -111 -24.5 -210t-78.5 -175zM404 946q23 96 22 234q0 33 -2 67.5t-6 67.5l150 8q0 -111 -24.5 -210t-78.5 -175z" />
<glyph unicode="&#x201e;" horiz-adv-x="731" d="M164 -205q23 96 22 234q0 33 -2 67.5t-6 67.5l150 8q0 -111 -24.5 -210t-78.5 -175zM404 -205q23 96 22 234q0 33 -2 67.5t-6 67.5l150 8q0 -111 -24.5 -210t-78.5 -175z" />
<glyph unicode="&#x2022;" horiz-adv-x="790" d="M182 672q0 102 55.5 153.5t157.5 51.5t157.5 -51.5t55.5 -153.5t-55.5 -153.5t-157.5 -51.5t-157.5 51t-55.5 154z" />
<glyph unicode="&#x2026;" horiz-adv-x="1333" d="M201 0v176h164v-176h-164zM574 0v176h164v-176h-164zM946 0v176h164v-176h-164z" />
<glyph unicode="&#x202f;" horiz-adv-x="358" />
<glyph unicode="&#x2039;" horiz-adv-x="598" d="M63 494q0 47 21.5 89t69.5 91q20 20 51 52t67.5 66.5t75.5 71.5t74 70l82 -86q-35 -31 -75 -70t-79 -76.5t-70.5 -69.5t-46.5 -50q-39 -45 -38 -86q0 -23 8 -42.5t30 -43.5q14 -18 46 -50t71 -70t79 -77t75 -70l-82 -90q-35 33 -74 69t-75.5 71.5t-67.5 66t-51 53.5 q-47 49 -69 91t-22 90z" />
<glyph unicode="&#x203a;" horiz-adv-x="598" d="M92 139q33 31 74 70t80 77t69.5 69.5t46.5 50.5q23 25 31 44t8 42q0 41 -39 86q-16 18 -46.5 49.5t-69.5 69.5t-80 77t-74 70l82 90q35 -33 74 -70t75.5 -71.5t67.5 -66.5t51 -52q47 -49 68.5 -91t21.5 -89t-21.5 -89.5t-68.5 -91.5q-20 -23 -51 -53.5t-67.5 -66 t-75.5 -71.5t-74 -69z" />
<glyph unicode="&#x205f;" horiz-adv-x="447" />
<glyph unicode="&#x20ac;" horiz-adv-x="1196" d="M63 465v123h146q-2 41 -2 81t4 79h-145v122h157q27 164 109 277q78 106 188.5 149t253.5 43q82 0 170 -11t162 -30l-25 -129q-63 14 -148 25.5t-159 11.5q-102 0 -185 -30.5t-138 -112.5q-27 -37 -44.5 -85t-27.5 -108h520v-122h-534q-8 -78 -3 -160h537v-123h-524 q10 -61 27.5 -113.5t43.5 -93.5q49 -78 125 -111.5t179 -33.5q92 0 186 23.5t172 58.5l47 -121q-90 -47 -201.5 -70.5t-216.5 -23.5q-133 0 -237 44t-174 144q-80 113 -105 297h-158z" />
<glyph unicode="&#x2122;" horiz-adv-x="1433" d="M51 1221v98h547v-98h-219v-635h-111v635h-217zM668 586l16 733h127l213 -455h2l213 455h127l16 -733h-112l-8 532h-2l-183 -389h-100l-182 389h-2l-9 -532h-116z" />
<glyph unicode="&#x25fc;" horiz-adv-x="942" d="M0 0v942h942v-942h-942z" />
</font>
</defs>
</svg>
