<?xml version="1.0" standalone="no"?>
<!DOCTYPE svg PUBLIC "-//W3C//DTD SVG 1.1//EN" "http://www.w3.org/Graphics/SVG/1.1/DTD/svg11.dtd" >
<svg xmlns="http://www.w3.org/2000/svg" xmlns:xlink="http://www.w3.org/1999/xlink" version="1.1">
<metadata></metadata>
<defs>
<font id="liberty_global_gestabold" horiz-adv-x="1335" >
<font-face units-per-em="2048" ascent="1497" descent="-551" />
<missing-glyph horiz-adv-x="514" />
<glyph unicode="&#xfb01;" horiz-adv-x="1177" d="M49 745v181l144 8v82q0 324 350 323q33 0 73.5 -3t75.5 -7l-10 -209q-41 4 -75 5t-72 1q-57 0 -79 -24.5t-22 -89.5v-66h617v-946h-242v745h-375v-745h-241v745h-144zM809 1090v229h242v-229h-242z" />
<glyph unicode="&#xfb02;" horiz-adv-x="1177" d="M49 745v181l144 8v82q0 324 350 323q33 0 73.5 -3t75.5 -7l-10 -209q-41 4 -75 5t-72 1q-57 0 -79 -24.5t-22 -89.5v-66h201v-201h-201v-745h-241v745h-144zM809 0v1319h242v-1319h-242z" />
<glyph horiz-adv-x="0" />
<glyph horiz-adv-x="0" />
<glyph unicode="&#xd;" horiz-adv-x="514" />
<glyph unicode=" "  horiz-adv-x="514" />
<glyph unicode="&#x09;" horiz-adv-x="514" />
<glyph unicode="&#xa0;" horiz-adv-x="514" />
<glyph unicode="!" horiz-adv-x="542" d="M133 1319h277l-62 -959h-153zM154 0v238h235v-238h-235z" />
<glyph unicode="&#x22;" horiz-adv-x="653" d="M66 1360h225q-2 -170 -20.5 -274.5t-43.5 -163.5h-98q-25 59 -43 163.5t-20 274.5zM363 1360h225q-2 -170 -20.5 -274.5t-43.5 -163.5h-98q-25 59 -43 163.5t-20 274.5z" />
<glyph unicode="#" horiz-adv-x="1181" d="M70 385l26 154h185l45 247h-187l27 154h186l68 379h158l-68 -379h256l68 379h157l-67 -379h188l-27 -154h-188l-45 -247h190l-26 -154h-191l-69 -385h-158l70 385h-256l-70 -385h-158l70 385h-184zM438 539h256l45 247h-256z" />
<glyph unicode="$" horiz-adv-x="1087" d="M96 954q0 162 91.5 252t242.5 119v205h242v-195q121 -6 252 -35l-31 -217q-29 4 -67 9.5t-78.5 10.5t-83.5 8t-80 3q-41 0 -82 -5t-73 -20.5t-51.5 -42t-19.5 -69.5t21.5 -71.5t60.5 -50t92.5 -39t118.5 -40.5q57 -20 117.5 -47t110 -70t81 -109.5t31.5 -164.5 q0 -164 -87 -258t-234 -127v-211h-242v193q-72 4 -159 12t-158 20l28 217q31 -4 73 -9t85 -9t85 -6t77 -2q141 0 205.5 43t64.5 127q0 41 -15.5 68.5t-48 50t-85 42t-123.5 44.5q-74 25 -139.5 53.5t-114.5 69t-78 101t-29 150.5z" />
<glyph unicode="%" horiz-adv-x="1566" d="M74 1014q0 145 73.5 235t227.5 90t227.5 -90t73.5 -235t-73.5 -235.5t-227.5 -90.5t-227.5 90t-73.5 236zM260 1018q0 -74 21.5 -123t93.5 -49t93 45t21 119t-21.5 123t-92.5 49q-72 0 -93.5 -45t-21.5 -119zM268 0l824 1319h206l-823 -1319h-207zM891 305 q0 145 73.5 235.5t227.5 90.5t227.5 -90t73.5 -236q0 -145 -73.5 -235t-227.5 -90t-227.5 90t-73.5 235zM1077 309q0 -74 21.5 -123t93.5 -49t93.5 45t21.5 119t-21.5 123t-93.5 49t-93.5 -45t-21.5 -119z" />
<glyph unicode="&#x26;" horiz-adv-x="1294" d="M88 340q0 117 59.5 193.5t149.5 134.5l53 32q-68 63 -120 138t-52 182q0 70 26.5 128t77 101t123 66.5t162.5 23.5t162 -23.5t122 -65.5t76.5 -100t26.5 -126q0 -66 -22.5 -117t-57 -91t-76.5 -71.5t-81 -56.5q53 -47 112.5 -97t124.5 -106q23 33 45.5 67t44.5 69 l199 -123q-16 -25 -45 -69t-63 -93l147 -121l-154 -182l-143 119q-86 -82 -189.5 -127t-250.5 -45q-123 0 -210 30.5t-142.5 80.5t-80 114.5t-24.5 134.5zM350 367q0 -68 49.5 -115t165.5 -47q82 0 137.5 25.5t102.5 72.5q-76 63 -149.5 127t-145.5 127l-49 -31 q-47 -31 -79 -65.5t-32 -93.5zM440 1008q0 -45 28 -80t89 -94q66 41 101.5 80.5t35.5 93.5q0 49 -31.5 77.5t-95.5 28.5q-63 0 -95 -28.5t-32 -77.5z" />
<glyph unicode="'" horiz-adv-x="356" d="M66 1360h225q-2 -170 -20.5 -274.5t-43.5 -163.5h-98q-25 59 -43 163.5t-20 274.5z" />
<glyph unicode="(" horiz-adv-x="526" d="M47 485q0 162 23.5 292t65.5 235.5t99.5 191.5t124.5 162l119 -76q-49 -76 -90 -156.5t-70.5 -177t-46 -212t-16.5 -259.5q0 -143 16.5 -258.5t46 -212t70.5 -177.5t90 -156l-119 -76q-68 76 -125 162t-99 191t-65.5 234t-23.5 293z" />
<glyph unicode=")" horiz-adv-x="526" d="M47 -319q49 76 90 156.5t71 177t46 212t16 258.5t-16 259t-46 212.5t-71 177t-90 156.5l119 76q68 -76 125 -162t99 -191.5t65.5 -235.5t23.5 -292q0 -164 -23.5 -293t-65.5 -234t-99.5 -191t-124.5 -162z" />
<glyph unicode="*" horiz-adv-x="677" d="M66 946l151 92l-151 92l59 97l156 -90v182h116v-182l156 90l59 -97l-151 -92l151 -92l-59 -96l-156 90v-182h-116v182l-156 -90z" />
<glyph unicode="+" horiz-adv-x="1204" d="M131 383v180h371v383h200v-383h371v-180h-371v-383h-200v383h-371z" />
<glyph unicode="," horiz-adv-x="487" d="M119 -238q16 59 24.5 120t8.5 120q0 102 -23 209l236 12q4 -18 4 -36.5v-36.5q0 -115 -41 -217.5t-105 -180.5z" />
<glyph unicode="-" horiz-adv-x="589" d="M66 399v226h458v-226h-458z" />
<glyph unicode="." horiz-adv-x="473" d="M119 0v238h235v-238h-235z" />
<glyph unicode="/" horiz-adv-x="808" d="M25 0l550 1319h209l-551 -1319h-208z" />
<glyph unicode="0" horiz-adv-x="1171" d="M90 662q0 174 23.5 301t80 210.5t151.5 124.5t239 41q143 0 238.5 -41t152.5 -124.5t80.5 -210.5t23.5 -301t-23.5 -302.5t-80.5 -213.5t-152.5 -125.5t-238.5 -40.5t-238.5 40.5t-152 125.5t-80 213t-23.5 303zM348 662q0 -106 4 -190.5t27.5 -144t71 -91t133.5 -31.5 t134 31.5t70.5 91t27.5 143.5t5 191q0 106 -5 190t-27.5 142.5t-70.5 89t-134 30.5t-133.5 -30.5t-71 -89t-27.5 -142.5t-4 -190z" />
<glyph unicode="1" horiz-adv-x="792" d="M14 1130l371 189h227v-1319h-258v1055l-256 -101z" />
<glyph unicode="2" horiz-adv-x="1062" d="M84 1253q78 35 183.5 60.5t215.5 25.5q100 0 186.5 -25.5t150 -75.5t98 -125t34.5 -173q0 -109 -42 -204t-111.5 -181t-160.5 -167t-189 -163h522v-225h-860v193q150 127 258 231t180 193.5t106.5 164t34.5 140.5q0 92 -61.5 142t-171.5 50q-39 0 -81 -6t-82 -15.5 t-77 -20.5t-65 -21z" />
<glyph unicode="3" horiz-adv-x="991" d="M51 1253q39 18 88 34t102.5 27t110 18t107.5 7q96 0 175 -24.5t134 -70.5t86 -112.5t31 -148.5q0 -90 -38 -165t-120 -120q98 -41 140 -115.5t42 -195.5q0 -111 -33.5 -188.5t-96 -126.5t-151.5 -70.5t-200 -21.5q-86 0 -179 10t-175 24l28 213q47 -6 126 -14t161 -8 q59 0 106.5 8t81 29.5t52 59.5t18.5 97q0 84 -43 128t-158 44h-153v217h147q92 0 137.5 33t45.5 123q0 88 -46.5 129t-144.5 41q-84 0 -169 -20.5t-144 -40.5z" />
<glyph unicode="4" horiz-adv-x="1116" d="M45 238v192q119 211 253 439.5t269 449.5h277q-147 -236 -273.5 -445.5t-242.5 -412.5h311l20 278h238v-278h193v-223h-193v-238h-258v238h-594z" />
<glyph unicode="5" horiz-adv-x="1062" d="M106 12l29 215q45 -6 127 -14t180 -8q59 0 110.5 6t88.5 28.5t58.5 64.5t21.5 116q0 106 -52.5 150t-174.5 44q-59 0 -127 -8t-134 -24l-108 100l22 637h760v-225h-512l-8 -283q37 8 77 12t87 4q92 0 172 -20.5t137.5 -68.5t90 -127t32.5 -193q0 -438 -516 -438 q-90 0 -185.5 10t-175.5 22z" />
<glyph unicode="6" horiz-adv-x="1105" d="M88 643q0 143 24.5 270t85 222.5t164 149.5t261.5 54q72 0 159.5 -10t157.5 -26l-33 -218q-59 10 -123.5 19.5t-121.5 9.5q-86 0 -143.5 -23.5t-93.5 -68.5t-52.5 -109.5t-20.5 -146.5q68 35 138.5 48t138.5 13q203 0 307 -106.5t104 -298.5q0 -205 -119 -323.5 t-346 -118.5q-258 0 -372.5 167.5t-114.5 495.5zM352 571q4 -84 17.5 -151.5t41 -115.5t71.5 -73.5t110 -25.5q102 0 144 56t42 153q0 100 -48 150t-159 50q-43 0 -100 -9t-119 -34z" />
<glyph unicode="7" horiz-adv-x="966" d="M57 1094v225h889v-164q-98 -276 -214 -571t-243 -584h-258q135 305 249 578.5t200 515.5h-623z" />
<glyph unicode="8" horiz-adv-x="1122" d="M88 373q0 68 17.5 119t47 88.5t68.5 62.5t80 41q-37 12 -70.5 36.5t-61.5 60.5t-44 81t-16 101q0 80 26.5 149.5t81.5 119.5t140 78.5t204 28.5t204 -28.5t140.5 -78.5t82 -120t26.5 -149q0 -55 -16.5 -100.5t-44 -81.5t-61.5 -60.5t-71 -36.5q41 -16 80 -41t68.5 -62.5 t47 -89t17.5 -118.5q0 -190 -115.5 -291.5t-357.5 -101.5t-357.5 101.5t-115.5 291.5zM350 385q0 -94 53.5 -137t157.5 -43t157.5 43t53.5 137q0 184 -211 184t-211 -184zM371 952q0 -90 50 -124.5t140 -34.5t140.5 34.5t50.5 124.5t-50.5 126t-140.5 36t-140 -36t-50 -126z " />
<glyph unicode="9" horiz-adv-x="1107" d="M66 897q0 203 119.5 322.5t346.5 119.5q260 0 374 -167.5t114 -495.5q0 -145 -23.5 -271t-84 -221.5t-164 -149.5t-263.5 -54q-72 0 -160.5 10t-156.5 26l33 217q57 -10 122.5 -19t122.5 -9q86 0 143.5 23.5t91.5 67.5t50.5 107.5t20.5 145.5q-68 -33 -137.5 -45 t-135.5 -12q-203 0 -308 106.5t-105 298.5zM332 905q0 -100 47 -150t158 -50q41 0 98 8t117 32q-4 84 -15.5 152t-38 116t-70.5 74.5t-112 26.5q-102 0 -143 -56.5t-41 -152.5z" />
<glyph unicode=":" horiz-adv-x="501" d="M133 0v238h235v-238h-235zM133 709v238h235v-238h-235z" />
<glyph unicode=";" horiz-adv-x="544" d="M133 709v238h235v-238h-235zM162 -238q16 59 24.5 120t8.5 120q0 102 -23 209l236 12q4 -18 4 -36.5v-36.5q0 -115 -41 -217.5t-105 -180.5z" />
<glyph unicode="&#x3c;" horiz-adv-x="880" d="M131 399v148q141 98 295 200.5t324 213.5v-240q-111 -68 -213.5 -132.5t-167.5 -109.5v-4q66 -45 168 -109.5t213 -132.5v-247q-170 111 -324 213t-295 200z" />
<glyph unicode="=" horiz-adv-x="1122" d="M131 197v184h860v-184h-860zM131 565v185h860v-185h-860z" />
<glyph unicode="&#x3e;" horiz-adv-x="880" d="M131 -14v239q111 68 213 132.5t168 109.5v4q-66 45 -168 109.5t-213 132.5v248q170 -111 323.5 -213.5t295.5 -200.5v-148q-141 -98 -295 -200.5t-324 -212.5z" />
<glyph unicode="?" horiz-adv-x="917" d="M25 1237q78 43 183 72.5t210 29.5q84 0 156.5 -22.5t126 -66.5t84 -108.5t30.5 -150.5q0 -63 -17.5 -113.5t-45 -90t-62.5 -73.5t-69 -65q-39 -35 -64 -60.5t-39 -53t-19 -63.5t-7 -91h-218q0 90 8.5 151.5t25 105.5t44 77t68.5 67q59 51 96 94.5t37 106.5q0 68 -42 99.5 t-118 31.5q-72 0 -150.5 -22.5t-136.5 -51.5zM270 0v238h236v-238h-236z" />
<glyph unicode="@" horiz-adv-x="1564" d="M111 520q0 186 45 315.5t130 210t210 116.5t284 36q160 0 285 -36t211 -113.5t132 -202.5t46 -303q0 -201 -64.5 -303.5t-220.5 -102.5q-131 0 -204 74q-63 -39 -120 -56.5t-120 -17.5q-160 0 -224.5 100.5t-64.5 280.5q0 219 84 313.5t238 94.5q84 0 171 -23.5 t163 -64.5v-430q0 -59 21.5 -82t60.5 -23q23 0 41 8t30 33t19.5 69t7.5 113q0 141 -29 238.5t-89 158t-152.5 87t-219.5 26.5t-219 -26.5t-152.5 -88t-89 -160.5t-28.5 -243q0 -143 28.5 -242.5t89 -161t151.5 -88t218 -26.5q92 0 179.5 11.5t150.5 27.5l31 -154 q-57 -16 -157.5 -31.5t-215.5 -15.5q-156 0 -277.5 37t-206.5 118t-129 211t-44 316zM635 526q0 -127 29.5 -176t107.5 -49q27 0 61.5 5t69.5 20q-6 27 -6 61v365q-27 6 -62.5 9t-58.5 3q-37 0 -63.5 -10.5t-44 -37t-25.5 -72.5t-8 -118z" />
<glyph unicode="A" horiz-adv-x="1212" d="M35 0q92 344 190.5 667.5t208.5 651.5h344q111 -328 209 -651.5t191 -667.5h-263q-16 70 -34.5 139.5t-38.5 139.5h-475q-20 -70 -39 -139.5t-35 -139.5h-258zM428 504h352q-41 147 -85 293.5t-87 287.5h-8q-43 -141 -87 -287.5t-85 -293.5z" />
<glyph unicode="B" horiz-adv-x="1193" d="M154 2v1301q49 6 107 13t117.5 11t116 7t103.5 3q90 0 177 -14t155.5 -53t110.5 -108.5t42 -178.5q0 -119 -48 -187.5t-126 -97.5v-8q98 -31 149.5 -99.5t51.5 -203.5q0 -219 -137 -311t-393 -92q-35 0 -88.5 1t-113 4t-118.5 6t-106 7zM412 213q55 -4 99 -4h95 q53 0 97.5 6t77 25.5t50 54.5t17.5 94q0 102 -55.5 143t-153.5 41h-227v-360zM412 776h235q86 0 130 39t44 127q0 57 -17.5 91t-48 51.5t-71.5 22.5t-90 5q-33 0 -84 -1t-98 -5v-330z" />
<glyph unicode="C" horiz-adv-x="1093" d="M90 653q0 184 41 321.5t127 223.5q82 84 189.5 112.5t230.5 28.5q86 0 169 -9t159 -25l-35 -220q-59 10 -131 19.5t-138 9.5q-29 0 -62.5 -2t-69 -11t-68.5 -26.5t-60 -48.5q-53 -59 -71.5 -153.5t-18.5 -213.5q0 -100 13.5 -183t48.5 -142q41 -72 109.5 -98.5 t148.5 -26.5t163 19.5t154 41.5l68 -204q-84 -39 -192.5 -62.5t-219.5 -23.5q-127 0 -241.5 41t-190.5 143q-63 86 -93 210t-30 279z" />
<glyph unicode="D" horiz-adv-x="1284" d="M154 4v1299q104 16 214.5 25t198.5 9q176 0 296 -43t192.5 -127t104.5 -211t32 -294q0 -172 -33 -299t-108.5 -212t-200.5 -126t-307 -41q-31 0 -76 1t-97.5 4t-108.5 6t-107 9zM412 213q43 -4 72.5 -4h66.5q113 0 185.5 24.5t115.5 78t60.5 139.5t17.5 206 q0 119 -17.5 205t-60.5 141.5t-118 82t-191 26.5q-63 0 -131 -6v-893z" />
<glyph unicode="E" horiz-adv-x="1038" d="M154 0v1319h802v-225h-544v-306h462v-225h-462v-338h544v-225h-802z" />
<glyph unicode="F" horiz-adv-x="1038" d="M154 0v1319h811v-225h-553v-328h465v-225h-465v-541h-258z" />
<glyph unicode="G" horiz-adv-x="1249" d="M96 659q0 375 170 541q45 43 98.5 70.5t110.5 43t116.5 20.5t115.5 5q92 0 190 -10t188 -26l-32 -220q-76 12 -158 21.5t-168 9.5q-80 0 -151.5 -14.5t-120.5 -67.5q-57 -61 -77 -159.5t-20 -208.5q0 -123 20.5 -214.5t72.5 -150.5q47 -53 105 -71.5t130 -18.5q41 0 91 5 t97 19v259h-227v225h486v-619q-98 -57 -222.5 -87.5t-257.5 -30.5q-117 0 -213 27t-170 99q-90 86 -132 227.5t-42 325.5z" />
<glyph unicode="H" horiz-adv-x="1337" d="M154 0v1319h258v-531h514v531h258v-1319h-258v563h-514v-563h-258z" />
<glyph unicode="I" horiz-adv-x="565" d="M154 0v1319h258v-1319h-258z" />
<glyph unicode="J" horiz-adv-x="872" d="M23 10l26 219q23 -4 53.5 -8t63.5 -8t65.5 -6t61.5 -2q55 0 92 12t57 43q16 29 20.5 64.5t4.5 89.5v905h258v-889q0 -123 -18.5 -198.5t-57.5 -127.5q-59 -78 -150 -101t-194 -23q-76 0 -143.5 8t-138.5 22z" />
<glyph unicode="K" horiz-adv-x="1198" d="M154 0v1319h258v-531h2q111 119 227.5 256.5t220.5 274.5h330q-152 -180 -289 -332.5t-254 -275.5q129 -174 274.5 -352.5t305.5 -358.5h-350q-51 61 -109.5 135t-119 154t-121 161.5t-115.5 159.5h-2v-610h-258z" />
<glyph unicode="L" horiz-adv-x="985" d="M154 0v1319h258v-1094h536v-225h-794z" />
<glyph unicode="M" horiz-adv-x="1587" d="M125 0q10 330 25.5 658.5t33.5 660.5h357l247 -811h11l248 811h356q18 -332 33.5 -660.5t25.5 -658.5h-264q-4 236 -14 476.5t-21 473.5h-10l-233 -743h-261l-235 743h-8q-10 -233 -21 -473.5t-14 -476.5h-256z" />
<glyph unicode="N" horiz-adv-x="1394" d="M154 0v1319h350l469 -950h12v950h256v-1319h-350l-469 950h-12v-950h-256z" />
<glyph unicode="O" d="M92 659q0 164 31 291t99.5 213t178 131t267.5 45t267 -45t178 -131t99.5 -213t30.5 -291t-30.5 -290.5t-99.5 -212.5t-178.5 -131t-266.5 -45q-158 0 -267.5 45t-178 131t-99.5 212.5t-31 290.5zM354 659q0 -111 13.5 -195.5t48.5 -142t95.5 -87t156.5 -29.5 q94 0 155.5 29.5t96 87t48 142.5t13.5 195q0 111 -13.5 196t-48 142.5t-96 87t-155.5 29.5q-96 0 -156.5 -29.5t-95.5 -87t-48.5 -142.5t-13.5 -196z" />
<glyph unicode="P" horiz-adv-x="1169" d="M154 0v1311q106 12 224 20t204 8q109 0 204 -17t166.5 -65.5t113.5 -132.5t42 -217q0 -129 -40 -217t-109.5 -142t-164 -76.5t-200.5 -22.5q-41 0 -88 3t-94 7v-459h-258zM412 668q25 -4 64.5 -6.5t78.5 -2.5q141 0 216 50.5t75 183.5q0 127 -67.5 174t-205.5 47 q-39 0 -83 -2t-78 -6v-438z" />
<glyph unicode="Q" d="M92 659q0 164 31 291t99.5 213t178 131t267.5 45t267 -45t178 -131t99.5 -213t30.5 -291q0 -223 -56.5 -374.5t-189.5 -229.5l199 -190l-190 -180l-261 299q-18 -2 -37.5 -3t-39.5 -1q-158 0 -267.5 45t-178 131t-99.5 212.5t-31 290.5zM354 659q0 -111 13.5 -195.5 t48.5 -142t95.5 -87t156.5 -29.5q94 0 155.5 29.5t96 87t48 142.5t13.5 195q0 111 -13.5 196t-48 142.5t-96 87t-155.5 29.5q-96 0 -156.5 -29.5t-95.5 -87t-48.5 -142.5t-13.5 -196z" />
<glyph unicode="R" horiz-adv-x="1181" d="M154 0v1311q92 10 204.5 19t204.5 9q100 0 194.5 -16t167 -60t115.5 -124t43 -207q0 -141 -58 -240.5t-189 -148.5q57 -117 137 -259.5t166 -283.5h-312q-70 131 -128 254t-117 252q-41 0 -87 1t-83 5v-512h-258zM412 713q68 -6 125 -6q51 0 101 7t91 29.5t66.5 65.5 t25.5 115q0 61 -19.5 99t-52 57.5t-78.5 26.5t-98 7q-29 0 -74.5 -1t-86.5 -5v-395z" />
<glyph unicode="S" horiz-adv-x="1015" d="M61 954q0 84 30 155t93.5 122t158.5 79.5t228 28.5q72 0 156 -9t170 -25l-29 -222q-29 4 -67.5 9.5t-80.5 10.5t-86 8t-81 3q-43 0 -84 -5t-75 -20.5t-54.5 -42t-20.5 -69.5t23 -73t62.5 -51.5t95 -38.5t121.5 -40q57 -20 118.5 -47t111.5 -72t83 -110.5t33 -161.5 q0 -182 -131 -292.5t-402 -110.5q-82 0 -177 9t-183 25l28 222q66 -10 161 -20.5t173 -10.5q145 0 210 43t65 125q0 41 -16.5 69.5t-52.5 51t-89 42t-127 44.5t-140.5 54.5t-116.5 72.5t-79 102t-29 145z" />
<glyph unicode="T" horiz-adv-x="1060" d="M33 1094v225h995v-225h-369v-1094h-258v1094h-368z" />
<glyph unicode="U" horiz-adv-x="1275" d="M123 446v873h258v-838q0 -145 57.5 -212.5t198.5 -67.5q143 0 200.5 67.5t57.5 212.5v838h258v-873q0 -123 -36 -212t-102.5 -145t-162.5 -82.5t-215 -26.5t-214 26.5t-161.5 82.5t-102.5 145.5t-36 211.5z" />
<glyph unicode="V" horiz-adv-x="1187" d="M29 1319h272q70 -279 142.5 -547t150.5 -539h8q78 270 150.5 538.5t142.5 547.5h264q-90 -344 -185 -667.5t-202 -651.5h-356q-109 328 -204 651.5t-183 667.5z" />
<glyph unicode="W" horiz-adv-x="1828" d="M47 1319h270q18 -125 42 -264.5t50.5 -279.5t56.5 -276.5t60 -256.5h11q29 125 57.5 263t55 279.5t49 277.5t40.5 257h357q18 -121 40.5 -257t49 -277.5t55.5 -279.5t57 -263h11q31 121 60.5 257t56 276t50 279.5t42.5 264.5h264q-53 -328 -125 -654.5t-170 -664.5h-367 q-61 281 -111.5 543t-90.5 504h-7q-41 -242 -91 -504t-111 -543h-367q-98 338 -170 664.5t-125 654.5z" />
<glyph unicode="X" horiz-adv-x="1249" d="M25 0q104 180 216.5 346t225.5 328q-104 147 -205.5 305t-206.5 340h307q59 -113 127 -224.5t140 -217.5q70 106 137.5 217.5t128.5 224.5h297q-106 -182 -206.5 -340t-203.5 -305q113 -162 224.5 -328t218.5 -346h-305q-72 125 -150 246t-149 231q-72 -111 -150 -231.5 t-149 -245.5h-297z" />
<glyph unicode="Y" horiz-adv-x="1265" d="M45 1319h279q31 -72 67.5 -149.5t76.5 -157.5t82 -157t83 -146h8q41 70 83 146.5t82 156.5t77 157.5t67 149.5h271q-104 -223 -217 -431t-242 -411v-477h-258v477q-129 203 -241.5 411t-217.5 431z" />
<glyph unicode="Z" horiz-adv-x="1120" d="M111 0v188l596 906h-578v225h893v-189l-596 -905h608v-225h-923z" />
<glyph unicode="[" horiz-adv-x="612" d="M147 -334v1653h435v-191h-209v-1271h209v-191h-435z" />
<glyph unicode="\" horiz-adv-x="808" d="M25 1319h208l551 -1319h-209z" />
<glyph unicode="]" horiz-adv-x="612" d="M31 -143h209v1271h-209v191h434v-1653h-434v191z" />
<glyph unicode="^" horiz-adv-x="1241" d="M231 561l295 404h189l295 -404l-131 -98l-258 293l-259 -293z" />
<glyph unicode="_" horiz-adv-x="1064" d="M-4 -219h1073v-123h-1073v123z" />
<glyph unicode="`" horiz-adv-x="675" d="M100 1260l187 143l172 -309l-103 -78z" />
<glyph unicode="a" horiz-adv-x="960" d="M66 281q0 143 96 221t274 78q35 0 80 -2.5t84 -6.5v33q0 43 -7 73t-26.5 46t-53.5 23.5t-87 7.5q-72 0 -143.5 -8.5t-128.5 -18.5l-25 205q70 14 156 24.5t164 10.5q186 0 289.5 -77t103.5 -259v-631h-172l-27 70q-53 -43 -119.5 -66.5t-140.5 -23.5q-70 0 -128 20 t-100 59t-65.5 94.5t-23.5 127.5zM311 291q0 -53 32 -85t97 -32q43 0 87 13.5t73 31.5v182q-33 4 -69.5 5.5t-57.5 1.5q-76 0 -119 -25.5t-43 -91.5z" />
<glyph unicode="b" horiz-adv-x="1003" d="M127 53v1266h242v-397q41 20 96 32.5t115 12.5q188 0 271 -129t83 -365q0 -250 -97.5 -371.5t-326.5 -121.5q-115 0 -213 23.5t-170 49.5zM369 199q29 -8 69.5 -12.5t69.5 -4.5q106 0 143 73t37 226q0 61 -6 112.5t-24.5 87.5t-53.5 55.5t-92 19.5q-35 0 -73 -6.5 t-70 -16.5v-534z" />
<glyph unicode="c" horiz-adv-x="839" d="M66 465q0 125 24.5 218t77.5 156.5t139 95.5t207 32q53 0 120.5 -6.5t129.5 -18.5l-23 -201q-49 6 -103 11.5t-101 5.5q-68 0 -111 -14.5t-68.5 -48t-36 -88t-10.5 -136.5q0 -57 7.5 -107.5t29 -87t61.5 -58t105 -21.5q57 0 120.5 14t113.5 31l63 -197q-72 -29 -161 -47 t-175 -18q-217 0 -313 123.5t-96 361.5z" />
<glyph unicode="d" horiz-adv-x="1003" d="M70 465q0 147 30.5 243.5t85 154t126 81t155.5 23.5q51 0 95 -6.5t73 -14.5v373h242v-1319h-172l-25 63q-35 -29 -95.5 -56t-154.5 -27q-186 0 -273 123.5t-87 361.5zM315 465q0 -135 33 -205t139 -70q35 0 75 6.5t73 16.5v535q-29 6 -66 11t-71 5q-49 0 -84 -14.5 t-56.5 -49t-32 -92t-10.5 -143.5z" />
<glyph unicode="e" horiz-adv-x="915" d="M63 479q0 113 29 204t81 153.5t128 96.5t168 34q186 0 281.5 -112t95.5 -314q0 -35 -3 -78t-12 -78h-518q12 -104 68.5 -148t148.5 -44q70 0 134.5 18t115.5 37l68 -189q-70 -33 -159 -56t-185 -23q-201 0 -321 122.5t-120 376.5zM311 573h297q-4 80 -36.5 131.5 t-110.5 51.5q-76 0 -110 -49.5t-40 -133.5z" />
<glyph unicode="f" horiz-adv-x="681" d="M49 745v181l144 8v82q0 323 348 323h2q33 0 73.5 -3t75.5 -7l-10 -209q-41 4 -75 5t-72 1q-57 0 -79 -24.5t-22 -89.5v-66h201v-201h-201v-745h-241v745h-144z" />
<glyph unicode="g" horiz-adv-x="1003" d="M70 471q0 125 22.5 218t73.5 154.5t132 92.5t196 31t213 -23.5t170 -50.5v-920q0 -109 -31 -179t-86 -111t-134 -58.5t-175 -17.5q-76 0 -144.5 8t-134.5 20l25 209q49 -8 114.5 -16t130.5 -8q37 0 71 4t61.5 19.5t44 42t16.5 73.5v66q-53 -23 -98 -34t-101 -11 q-100 0 -169.5 32.5t-113.5 95t-63.5 154.5t-19.5 209zM315 465q0 -61 6.5 -112.5t25 -87.5t53.5 -55.5t92 -19.5q35 0 72.5 6.5t70.5 16.5v535q-29 8 -70 12t-69 4q-53 0 -88 -18.5t-55.5 -55.5t-29 -93t-8.5 -132z" />
<glyph unicode="h" horiz-adv-x="1044" d="M127 0v1319h242v-414q43 23 104.5 42.5t140.5 19.5q162 0 238 -91.5t76 -234.5v-641h-242v608q0 72 -31.5 109t-109.5 37q-47 0 -94.5 -11.5t-81.5 -23.5v-719h-242z" />
<glyph unicode="i" horiz-adv-x="495" d="M127 0v946h242v-946h-242zM127 1090v229h242v-229h-242z" />
<glyph unicode="j" horiz-adv-x="495" d="M27 -373q27 68 46 130.5t31.5 130t17.5 144.5t5 173v741h242v-737q0 -201 -29 -339t-96 -243h-217zM127 1090v229h242v-229h-242z" />
<glyph unicode="k" horiz-adv-x="1009" d="M127 0v1319h242v-748h2q82 88 166 184.5t159 190.5h312q-94 -106 -197.5 -214.5t-206.5 -207.5q43 -57 88 -115.5t97.5 -122t113 -134t131.5 -152.5h-325q-78 94 -165 210t-173 241h-2v-451h-242z" />
<glyph unicode="l" horiz-adv-x="495" d="M127 0v1319h242v-1319h-242z" />
<glyph unicode="m" horiz-adv-x="1538" d="M127 0v946h172l23 -69q41 29 105.5 59.5t158.5 30.5q82 0 140 -27t97 -72q57 41 125 70t160 29q154 0 233.5 -89.5t79.5 -248.5v-629h-241v602q0 70 -32 111t-110 41q-70 0 -151 -33q4 -29 6 -45.5t2 -44.5v-631h-242v602q0 72 -31.5 112t-109.5 40q-68 0 -143 -29v-725 h-242z" />
<glyph unicode="n" horiz-adv-x="1044" d="M127 0v946h172l23 -69q61 43 133.5 66.5t156.5 23.5q82 0 141.5 -23.5t98.5 -66.5t57.5 -102.5t18.5 -129.5v-645h-242v608q0 72 -32.5 109t-110.5 37q-45 0 -89 -10.5t-85 -24.5v-719h-242z" />
<glyph unicode="o" horiz-adv-x="995" d="M66 473q0 113 22.5 205t73.5 155.5t134 98.5t202 35t201.5 -35t134 -98.5t74 -155.5t22.5 -205q0 -115 -22.5 -206t-74 -154.5t-134.5 -98t-201 -34.5q-119 0 -202 34.5t-134 98t-73.5 154.5t-22.5 206zM311 473q0 -59 6.5 -109.5t25.5 -89t56.5 -60t98.5 -21.5t98 21.5 t56.5 60t25.5 89t6 109.5q0 57 -6 108.5t-25.5 90.5t-56.5 60.5t-98 21.5t-98.5 -21.5t-56.5 -60.5t-25.5 -90.5t-6.5 -108.5z" />
<glyph unicode="p" horiz-adv-x="1003" d="M127 -373v1319h172l25 -63q35 29 95 56.5t154 27.5q186 0 273.5 -124t87.5 -354q0 -154 -31 -253t-86 -155t-130 -78.5t-163 -22.5q-45 0 -89 7t-66 15v-375h-242zM369 199q29 -6 65.5 -11.5t71.5 -5.5q49 0 84 14.5t56.5 49.5t31.5 93t10 144q0 135 -33.5 204t-144.5 69 q-29 0 -69 -6.5t-72 -16.5v-534z" />
<glyph unicode="q" horiz-adv-x="1003" d="M70 471q0 125 22.5 218t73.5 154.5t132 92.5t196 31t213 -23.5t170 -50.5v-1266h-242v398q-41 -20 -92.5 -32.5t-112.5 -12.5q-98 0 -166.5 33.5t-111.5 96t-62.5 153.5t-19.5 208zM315 465q0 -61 6.5 -112.5t25 -87.5t53.5 -55.5t92 -19.5q35 0 72.5 6.5t70.5 16.5v535 q-29 8 -70 12t-69 4q-53 0 -88 -18.5t-55.5 -55.5t-29 -93t-8.5 -132z" />
<glyph unicode="r" horiz-adv-x="718" d="M127 0v946h172l31 -106q59 72 122.5 99.5t147.5 27.5q20 0 49 -3t53 -8l-12 -215q-31 4 -55.5 6.5t-56.5 2.5q-131 0 -209 -78v-672h-242z" />
<glyph unicode="s" horiz-adv-x="837" d="M55 668q0 143 113 221t307 78q66 0 133.5 -8.5t126.5 -20.5l-24 -209q-59 10 -127 17.5t-121 7.5q-78 0 -120 -16.5t-42 -51.5q0 -25 21.5 -41t56.5 -28.5t79 -23.5t89 -26q49 -16 92 -37.5t77 -53.5t53 -78t19 -109q0 -147 -108.5 -228t-319.5 -81q-70 0 -151.5 8 t-147.5 22l29 211q70 -12 142.5 -20t138.5 -8q70 0 121 15t51 64q0 18 -9.5 30.5t-36 25t-71.5 26t-115 33.5q-125 35 -190.5 104.5t-65.5 176.5z" />
<glyph unicode="t" horiz-adv-x="714" d="M20 745v181l154 8l16 274h216v-262h235v-201h-235v-481q0 -37 17 -54t60 -17q29 0 66 6t67 16l48 -190q-43 -18 -97.5 -30.5t-120.5 -12.5q-139 0 -210.5 62t-71.5 194v507h-144z" />
<glyph unicode="u" horiz-adv-x="1042" d="M117 311v635h241v-602q0 -80 33 -115.5t115 -35.5q43 0 82 9t86 25v719h241v-946h-172l-18 70q-59 -41 -135 -65.5t-162 -24.5q-84 0 -143.5 25.5t-96 69.5t-54 104.5t-17.5 131.5z" />
<glyph unicode="v" horiz-adv-x="983" d="M41 946h256q20 -98 42.5 -199.5t47.5 -199.5t50.5 -189.5t49.5 -169.5h17q25 78 50.5 169.5t50 189.5t47 199.5t42.5 199.5h248q-53 -227 -122.5 -471t-153.5 -475h-349q-84 231 -153.5 475t-122.5 471z" />
<glyph unicode="w" horiz-adv-x="1433" d="M45 946h246q12 -92 28.5 -197.5t34 -208t36 -194.5t36.5 -158h16q35 172 67 372t54 386h316q23 -186 54.5 -386t65.5 -372h17q18 66 36.5 158t36 194.5t34 208t28.5 197.5h238q-35 -231 -89.5 -470.5t-123.5 -475.5h-328q-12 63 -30.5 157.5t-37 197t-35 203.5t-26.5 179 h-4q-10 -78 -26.5 -179t-35 -203.5t-37 -197t-30.5 -157.5h-328q-70 236 -124 475.5t-89 470.5z" />
<glyph unicode="x" horiz-adv-x="972" d="M37 0q86 135 167 258t154 227q-35 47 -73.5 104.5t-79.5 118t-81 122t-75 116.5h256q45 -76 95.5 -154.5t91.5 -136.5q41 57 90 136t94 155h246q-35 -55 -75 -116.5t-80 -122t-80 -118t-73 -104.5q74 -104 156 -227t168 -258h-260q-47 78 -96.5 155.5t-100.5 155.5 q-51 -78 -99 -155.5t-95 -155.5h-250z" />
<glyph unicode="y" horiz-adv-x="968" d="M45 946h254q39 -193 82 -376t94 -373h12q47 152 99.5 350t99.5 399h242q-43 -172 -90 -348t-98.5 -345t-102.5 -329t-102 -297h-232q45 125 79 220.5t50 152.5h-125q-35 104 -69.5 219t-68.5 237t-65.5 245.5t-58.5 244.5z" />
<glyph unicode="z" horiz-adv-x="841" d="M57 0v156l406 577h-400v213h705v-155l-406 -578h412v-213h-717z" />
<glyph unicode="{" horiz-adv-x="589" d="M43 496q66 66 93.5 128t27.5 156v297q0 74 29.5 124t82 81t122 44t147.5 13v-133q-41 -6 -68.5 -16t-44 -30.5t-24 -55.5t-7.5 -92v-250q0 -162 -141 -266q141 -104 141 -267v-249q0 -57 7.5 -92t24 -55.5t44 -31t68.5 -16.5v-133q-78 0 -147.5 13t-122 44t-82 81 t-29.5 124v297q0 94 -27.5 156.5t-93.5 128.5z" />
<glyph unicode="|" horiz-adv-x="606" d="M182 -373v1692h242v-1692h-242z" />
<glyph unicode="}" horiz-adv-x="589" d="M45 -215q41 6 68.5 16.5t44 31t23.5 55t7 92.5v249q0 162 142 267q-141 104 -142 266v250q0 57 -7 92t-23.5 55.5t-44 30.5t-68.5 16v133q78 0 147.5 -13t122 -44t82 -81t29.5 -124v-297q0 -94 27.5 -156.5t93.5 -127.5q-66 -66 -93.5 -128.5t-27.5 -156.5v-297 q0 -74 -29.5 -124t-82 -81t-122 -44t-147.5 -13v133z" />
<glyph unicode="~" horiz-adv-x="962" d="M131 596q0 25 13.5 54.5t37 55t57 43t76.5 17.5q37 0 83 -14.5t104 -42.5q59 -29 89 -40.5t54 -11.5q39 0 61.5 20.5t38.5 51.5l86 -61q0 -25 -13 -54.5t-36.5 -55.5t-57.5 -43t-77 -17q-37 0 -83 14t-103 43q-59 29 -89 40t-55 11q-39 0 -61.5 -20.5t-38.5 -50.5z" />
<glyph unicode="&#xa1;" horiz-adv-x="542" d="M133 -373l62 959h153l62 -959h-277zM154 709v237h235v-237h-235z" />
<glyph unicode="&#xa2;" horiz-adv-x="851" d="M66 465q0 211 72.5 334t242.5 155v197h201v-186q88 -6 182 -23l-23 -201q-49 6 -103 11.5t-101 5.5q-68 0 -111 -14.5t-68.5 -48t-36 -88t-10.5 -136.5q0 -57 7.5 -107.5t29 -87t61.5 -58t105 -21.5q57 0 120.5 14t113.5 31l63 -197q-104 -41 -229 -57v-195h-201v195 q-166 25 -240.5 145.5t-74.5 331.5z" />
<glyph unicode="&#xa3;" horiz-adv-x="983" d="M94 0v184q74 29 123 86.5t49 141.5q0 29 -5 60.5t-15 66.5h-152v182l94 8q-20 63 -34.5 126t-14.5 124q0 166 115 263t338 97q76 0 165 -11t167 -28l-29 -213q-59 10 -123.5 18.5t-146.5 8.5q-43 0 -84 -5t-72 -21.5t-49.5 -47t-18.5 -84.5q0 -41 11.5 -97t27.5 -109h332 v-211h-270q6 -31 11 -62t5 -61q0 -106 -74 -191h502v-225h-852z" />
<glyph unicode="&#xa4;" horiz-adv-x="1105" d="M57 313l144 144q-55 88 -56 202q0 113 56 203l-144 144l150 151l145 -147q45 27 95.5 42t105.5 15t105.5 -15.5t95.5 -41.5l145 147l150 -151l-144 -144q55 -90 56 -203q0 -115 -56 -202l144 -144l-150 -151l-145 147q-45 -27 -95.5 -42t-105.5 -15t-105.5 15.5 t-95.5 41.5l-145 -147zM334 659q0 -45 17.5 -84.5t47 -68.5t69.5 -46.5t85 -17.5t85 17.5t69.5 46.5t47 68.5t17.5 84.5t-17.5 85t-47 69t-69.5 46.5t-85 17.5t-85 -17.5t-69.5 -46.5t-47 -68.5t-17.5 -85.5z" />
<glyph unicode="&#xa5;" horiz-adv-x="1187" d="M55 1319h283q57 -123 123.5 -252t132.5 -233h8q66 104 132.5 233t123.5 252h275q-68 -147 -148 -300t-158 -290h199v-192h-303v-134h303v-192h-303v-211h-258v211h-303v192h303v134h-303v192h198q-78 137 -157.5 289.5t-147.5 300.5z" />
<glyph unicode="&#xa6;" horiz-adv-x="606" d="M182 279h242v-652h-242v652zM182 668v651h242v-651h-242z" />
<glyph unicode="&#xa7;" horiz-adv-x="1056" d="M84 762q0 129 28.5 234.5t92 182t166 118.5t247.5 42q66 0 142 -8t145 -22l-18 -211q-57 8 -122 12t-112 4q-74 0 -128 -12t-91 -43t-58.5 -82t-29.5 -127q164 0 292 -36t214 -148q61 -84 91 -200t30 -251q0 -129 -29 -235.5t-92.5 -183.5t-165.5 -119t-248 -42 q-66 0 -141.5 8.5t-144.5 22.5l18 211q57 -8 120.5 -12t110.5 -4q80 0 134.5 13t91.5 45t56 82t28 124q-74 0 -145.5 7t-137.5 26.5t-123 55.5t-100 95q-59 78 -90 195t-31 258zM348 631q6 -49 17 -89t34 -73q25 -37 60 -61.5t74.5 -39t84 -19.5t89.5 -5q-6 47 -17.5 88 t-32.5 74q-25 39 -58.5 62.5t-74.5 38t-86 19.5t-90 5z" />
<glyph unicode="&#xa8;" horiz-adv-x="907" d="M164 1061v203h196v-203h-196zM547 1061v203h196v-203h-196z" />
<glyph unicode="&#xa9;" horiz-adv-x="1404" d="M57 659q0 328 163 504t482 176t482.5 -176t163.5 -504t-163 -503.5t-483 -175.5q-319 0 -482 175.5t-163 503.5zM240 659q0 -510 462 -509q463 0 463 509q0 510 -463 510q-462 0 -462 -510zM397 659q0 82 17.5 151t56.5 118t101.5 76.5t152.5 27.5q49 0 100.5 -6 t96.5 -16l-21 -140q-35 6 -77 10.5t-81 4.5q-53 0 -87.5 -15.5t-55 -44t-28 -70.5t-7.5 -96q0 -37 5 -76.5t22.5 -72.5t47.5 -54.5t79 -21.5q47 0 94 17.5t82 40.5l72 -117q-53 -39 -125 -64.5t-148 -25.5q-80 0 -137 29.5t-92 80.5t-51.5 120t-16.5 144z" />
<glyph unicode="&#xaa;" horiz-adv-x="555" d="M43 969q0 84 54.5 124t152.5 40q23 0 41 -1.5t41 -5.5v17q0 37 -21.5 47t-62.5 10q-43 0 -78 -4t-76 -12l-24 131q16 6 39.5 10t50 7t52.5 5t46 2q102 0 165.5 -38.5t63.5 -139.5v-352h-106l-14 27q-29 -18 -64 -27.5t-72 -9.5t-70.5 10t-59 30.5t-42 53.5t-16.5 76z M203 971q0 -29 17 -40t42 -11q41 0 70 16v80q-16 2 -31.5 2h-32.5q-35 0 -50 -9.5t-15 -37.5z" />
<glyph unicode="&#xab;" horiz-adv-x="970" d="M14 490q0 47 23.5 94t70.5 98q29 33 87.5 89t127.5 120l121 -123q-29 -27 -58.5 -57.5t-58 -59t-51 -53t-35.5 -39.5q-20 -23 -26 -38t-6 -29t6 -29.5t26 -38.5q12 -14 35 -38.5t51.5 -53.5t58 -59.5t58.5 -57.5l-121 -127q-70 63 -128 119.5t-87 89.5q-47 51 -70.5 98 t-23.5 95zM442 490q0 47 23.5 94t70.5 98q29 33 87.5 89t127.5 120l121 -123q-29 -27 -58.5 -57.5t-58 -59t-51 -53t-35.5 -39.5q-20 -23 -26 -38t-6 -29t6 -29.5t26 -38.5q12 -14 35 -38.5t51.5 -53.5t58 -59.5t58.5 -57.5l-121 -127q-70 63 -128 119.5t-87 89.5 q-47 51 -70.5 98t-23.5 95z" />
<glyph unicode="&#xac;" horiz-adv-x="1204" d="M131 483v181h942v-562h-201v381h-741z" />
<glyph unicode="&#xad;" horiz-adv-x="598" d="M70 420v182h458v-182h-458z" />
<glyph unicode="&#xae;" horiz-adv-x="882" d="M119 999q0 164 82 252t241 88q160 0 241 -88t81 -252t-81 -252t-241 -88t-241.5 88.5t-81.5 251.5zM205 999q-1 -262 237 -262t238 262q0 264 -238 265q-238 0 -237 -265zM309 819v367q27 4 60.5 6t62.5 2q31 0 59.5 -5t51 -18.5t36 -38t13.5 -63.5q0 -35 -13.5 -60.5 t-48.5 -41.5q14 -29 38 -70t46 -78h-116q-16 35 -30.5 67t-29.5 66h-15t-17 2v-135h-97zM406 1022q10 -2 16 -2h12q25 0 42.5 10t17.5 39t-19.5 36t-38.5 7h-13t-17 -2v-88z" />
<glyph unicode="&#xaf;" horiz-adv-x="753" d="M147 1087v148h459v-148h-459z" />
<glyph unicode="&#xb0;" horiz-adv-x="675" d="M66 1065q0 131 68.5 202.5t203.5 71.5t203.5 -71.5t68.5 -202.5t-68.5 -202.5t-203.5 -71.5t-203.5 71.5t-68.5 202.5zM225 1065q0 -59 22.5 -90t90.5 -31t90.5 31t22.5 90t-22.5 90t-90.5 31t-90.5 -31t-22.5 -90z" />
<glyph unicode="&#xb1;" horiz-adv-x="1081" d="M131 0v180h819v-180h-819zM131 565v180h309v299h201v-299h309v-180h-309v-299h-201v299h-309z" />
<glyph unicode="&#xb2;" horiz-adv-x="729" d="M88 1284q49 25 112.5 40t123.5 15q117 0 191.5 -60t74.5 -169q0 -59 -21.5 -110.5t-57.5 -96.5t-79 -84t-86 -74h272v-145h-503v131q88 70 147.5 125t95 99t50 79t14.5 64q0 47 -32 70.5t-83 23.5q-39 0 -88 -11.5t-84 -25.5z" />
<glyph unicode="&#xb3;" horiz-adv-x="655" d="M84 618l29 144q29 -6 77 -13.5t95 -7.5q63 0 95 19.5t32 68.5q0 41 -22.5 58.5t-70.5 17.5h-86v139h76q41 0 64.5 15.5t23.5 54.5q0 47 -30.5 62.5t-65.5 15.5q-37 0 -77 -11.5t-68 -29.5l-70 123q47 31 110.5 48t120.5 17q47 0 92.5 -12t80 -38.5t55 -65.5t20.5 -90 q0 -53 -20.5 -92.5t-48.5 -57.5q37 -23 60.5 -60.5t23.5 -105.5q0 -121 -76 -173t-205 -52q-55 0 -109.5 8t-105.5 18z" />
<glyph unicode="&#xb4;" horiz-adv-x="675" d="M217 1094l172 309l186 -143l-256 -244z" />
<glyph unicode="&#xb5;" horiz-adv-x="1042" d="M16 -373q55 135 78 270.5t23 307.5v741h241v-602q0 -80 33 -115.5t115 -35.5q43 0 82 9t86 25v719h241v-946h-172l-18 70q-59 -41 -135 -65.5t-162 -24.5q-43 0 -80 6q-25 -211 -115 -359h-217z" />
<glyph unicode="&#xb6;" horiz-adv-x="1148" d="M111 969q0 180 93 265t267 85h524v-1692h-219v989h-137v-989h-219v991q-150 12 -229.5 98.5t-79.5 252.5z" />
<glyph unicode="&#xb7;" horiz-adv-x="473" d="M119 373v238h235v-238h-235z" />
<glyph unicode="&#xb8;" horiz-adv-x="522" d="M80 -381l24 94q10 -4 25.5 -6t36.5 -2q47 0 73.5 16.5t26.5 51.5q0 31 -25.5 45t-101.5 14l21 90q135 0 183 -39t48 -106q0 -86 -59.5 -128t-149.5 -42q-23 0 -54.5 4t-47.5 8z" />
<glyph unicode="&#xb9;" horiz-adv-x="663" d="M86 1219l199 100h153v-719h-168v545l-131 -47z" />
<glyph unicode="&#xba;" horiz-adv-x="585" d="M53 1069q0 59 11.5 109.5t39 86t73.5 55t116 19.5t116 -19.5t73.5 -55t38.5 -86t11 -109.5q0 -61 -11 -111.5t-38.5 -86t-73.5 -55t-116 -19.5t-116 19.5t-73.5 55t-39 86t-11.5 111.5zM211 1069q0 -29 2 -53.5t9 -43t23.5 -28.5t47.5 -10t47 10t23.5 28.5t9.5 43t2 53.5 q0 55 -11.5 94t-70.5 39t-70.5 -39t-11.5 -94z" />
<glyph unicode="&#xbb;" horiz-adv-x="970" d="M9 211l57.5 57.5l59 59t51 53.5t34.5 39q20 23 26.5 38t6.5 30q0 14 -6 29.5t-27 37.5q-12 14 -34.5 39t-51 53.5t-59.5 59t-57 57.5l120 127q70 -63 128.5 -119.5t86.5 -89.5q47 -51 71 -98t24 -94t-23.5 -94.5t-71.5 -98.5q-29 -33 -87 -89t-128 -120zM437 211 l57.5 57.5l59 59t51 53.5t34.5 39q20 23 26.5 38t6.5 30q0 14 -6 29.5t-27 37.5q-12 14 -34.5 39t-51 53.5t-59.5 59t-57 57.5l120 127q70 -63 128.5 -119.5t86.5 -89.5q47 -51 71 -98t24 -94t-23.5 -94.5t-71.5 -98.5q-29 -33 -87 -89t-128 -120z" />
<glyph unicode="&#xbc;" horiz-adv-x="1492" d="M86 1219l199 100h153v-719h-168v545l-131 -47zM176 0l823 1319h207l-823 -1319h-207zM774 125v119q61 117 132 238.5t138 236.5h170q-68 -115 -137 -233.5t-125 -219.5h140l20 121h145v-121h105v-141h-105v-125h-165v125h-318z" />
<glyph unicode="&#xbd;" horiz-adv-x="1554" d="M86 1219l199 100h153v-719h-168v545l-131 -47zM176 0l823 1319h207l-823 -1319h-207zM901 686q49 25 112.5 40t123.5 15q117 0 191.5 -60t74.5 -169q0 -59 -21.5 -110.5t-57.5 -96.5t-79 -84t-86 -74h272v-145h-503v131q88 70 147.5 125t95 99t50 79t14.5 64 q0 47 -32 70.5t-83 23.5q-39 0 -88 -11.5t-84 -25.5z" />
<glyph unicode="&#xbe;" horiz-adv-x="1583" d="M84 618l29 144q29 -6 77 -13.5t95 -7.5q63 0 95 19.5t32 68.5q0 41 -22.5 58.5t-70.5 17.5h-86v139h76q41 0 64.5 15.5t23.5 54.5q0 47 -30.5 62.5t-65.5 15.5q-37 0 -77 -11.5t-68 -29.5l-70 123q47 31 110.5 48t120.5 17q47 0 92.5 -12t80 -38.5t55 -65.5t20.5 -90 q0 -53 -20.5 -92.5t-48.5 -57.5q37 -23 60.5 -60.5t23.5 -105.5q0 -121 -76 -173t-205 -52q-55 0 -109.5 8t-105.5 18zM268 0l824 1319h206l-823 -1319h-207zM866 125v119q61 117 132 238.5t139 236.5h170q-68 -115 -137.5 -233.5t-125.5 -219.5h140l20 121h146v-121h104 v-141h-104v-125h-166v125h-318z" />
<glyph unicode="&#xbf;" horiz-adv-x="917" d="M25 -45q0 63 17 113.5t45 90.5t62.5 73.5t69.5 64.5q39 35 63.5 60.5t39 53t19.5 63.5t7 91h217q0 -90 -8 -151.5t-24.5 -105.5t-45 -77.5t-67.5 -66.5q-59 -51 -96 -94t-37 -107q0 -68 42 -99.5t117 -31.5q72 0 151 22.5t136 51.5l82 -197q-78 -43 -183.5 -72.5 t-209.5 -29.5q-84 0 -156.5 22.5t-126 66.5t-84 108.5t-30.5 150.5zM334 709v237h235v-237h-235z" />
<glyph unicode="&#xc0;" horiz-adv-x="1212" d="M35 0q92 344 190.5 667.5t208.5 651.5h344q111 -328 209 -651.5t191 -667.5h-263q-16 70 -34.5 139.5t-38.5 139.5h-475q-20 -70 -39 -139.5t-35 -139.5h-258zM356 1628l187 144l172 -310l-103 -78zM428 504h352q-41 147 -85 293.5t-87 287.5h-8q-43 -141 -87 -287.5 t-85 -293.5z" />
<glyph unicode="&#xc1;" horiz-adv-x="1212" d="M35 0q92 344 190.5 667.5t208.5 651.5h344q111 -328 209 -651.5t191 -667.5h-263q-16 70 -34.5 139.5t-38.5 139.5h-475q-20 -70 -39 -139.5t-35 -139.5h-258zM428 504h352q-41 147 -85 293.5t-87 287.5h-8q-43 -141 -87 -287.5t-85 -293.5zM487 1462l172 310l186 -144 l-256 -244z" />
<glyph unicode="&#xc2;" horiz-adv-x="1212" d="M35 0q92 344 190.5 667.5t208.5 651.5h344q111 -328 209 -651.5t191 -667.5h-263q-16 70 -34.5 139.5t-38.5 139.5h-475q-20 -70 -39 -139.5t-35 -139.5h-258zM330 1452l190 236h172l190 -236l-90 -72l-186 174l-186 -174zM428 504h352q-41 147 -85 293.5t-87 287.5h-8 q-43 -141 -87 -287.5t-85 -293.5z" />
<glyph unicode="&#xc3;" horiz-adv-x="1212" d="M35 0q92 344 190.5 667.5t208.5 651.5h344q111 -328 209 -651.5t191 -667.5h-263q-16 70 -34.5 139.5t-38.5 139.5h-475q-20 -70 -39 -139.5t-35 -139.5h-258zM289 1499q39 78 77.5 123t104.5 45q35 0 70.5 -11t69.5 -24.5t66 -25t56 -11.5q29 0 48.5 17.5t41.5 52.5 l96 -63q-41 -80 -78.5 -124t-105.5 -44q-37 0 -73.5 11t-71.5 24.5t-64.5 24.5t-52.5 11q-29 0 -48.5 -18.5t-39.5 -50.5zM428 504h352q-41 147 -85 293.5t-87 287.5h-8q-43 -141 -87 -287.5t-85 -293.5z" />
<glyph unicode="&#xc4;" horiz-adv-x="1212" d="M35 0q92 344 190.5 667.5t208.5 651.5h344q111 -328 209 -651.5t191 -667.5h-263q-16 70 -34.5 139.5t-38.5 139.5h-475q-20 -70 -39 -139.5t-35 -139.5h-258zM318 1430v202h196v-202h-196zM428 504h352q-41 147 -85 293.5t-87 287.5h-8q-43 -141 -87 -287.5t-85 -293.5z M701 1430v202h196v-202h-196z" />
<glyph unicode="&#xc5;" horiz-adv-x="1212" d="M35 0q92 344 190.5 667.5t208.5 651.5h344q111 -328 209 -651.5t191 -667.5h-263q-16 70 -34.5 139.5t-38.5 139.5h-475q-20 -70 -39 -139.5t-35 -139.5h-258zM412 1599q0 90 52.5 141.5t142.5 51.5t142 -51t52 -139q0 -90 -52 -141.5t-142 -51.5t-142.5 51t-52.5 139z M428 504h352q-41 147 -85 293.5t-87 287.5h-8q-43 -141 -87 -287.5t-85 -293.5zM514 1599q0 -45 22 -71.5t71 -26.5t70.5 27.5t21.5 73.5q0 45 -21.5 71.5t-70.5 26.5t-71 -27.5t-22 -73.5z" />
<glyph unicode="&#xc6;" horiz-adv-x="1656" d="M6 0q145 346 295 669.5t309 649.5h965v-225h-631l74 -306h475v-225h-420l82 -338h420v-225h-633l-68 279h-493l-111 -279h-264zM477 504h342l-117 479h-6q-57 -121 -111.5 -239.5t-107.5 -239.5z" />
<glyph unicode="&#xc7;" horiz-adv-x="1093" d="M90 653q0 184 41 321.5t127 223.5q82 84 189.5 112.5t230.5 28.5q86 0 169 -9t159 -25l-35 -220q-59 10 -131 19.5t-138 9.5q-29 0 -62.5 -2t-69 -11t-68.5 -26.5t-60 -48.5q-53 -59 -71.5 -153.5t-18.5 -213.5q0 -100 13.5 -183t48.5 -142q41 -72 109.5 -98.5 t148.5 -26.5t163 19.5t154 41.5l68 -204q-84 -39 -192.5 -62.5t-219.5 -23.5q-127 0 -241.5 41t-190.5 143q-63 86 -93 210t-30 279zM477 -381l24 94q10 -4 25.5 -6t36.5 -2q47 0 73.5 16.5t26.5 51.5q0 31 -25.5 45t-101.5 14l21 90q135 0 183 -39t48 -106 q0 -86 -59.5 -128t-149.5 -42q-23 0 -54.5 4t-47.5 8z" />
<glyph unicode="&#xc8;" horiz-adv-x="1038" d="M154 0v1319h802v-225h-544v-306h462v-225h-462v-338h544v-225h-802zM305 1628l187 144l172 -310l-103 -78z" />
<glyph unicode="&#xc9;" horiz-adv-x="1038" d="M154 0v1319h802v-225h-544v-306h462v-225h-462v-338h544v-225h-802zM450 1462l172 310l186 -144l-256 -244z" />
<glyph unicode="&#xca;" horiz-adv-x="1038" d="M154 0v1319h802v-225h-544v-306h462v-225h-462v-338h544v-225h-802zM302 1452l190 236h172l190 -236l-90 -72l-186 174l-186 -174z" />
<glyph unicode="&#xcb;" horiz-adv-x="1038" d="M154 0v1319h802v-225h-544v-306h462v-225h-462v-338h544v-225h-802zM275 1430v202h196v-202h-196zM658 1430v202h196v-202h-196z" />
<glyph unicode="&#xcc;" horiz-adv-x="565" d="M43 1628l187 144l172 -310l-103 -78zM154 0v1319h258v-1319h-258z" />
<glyph unicode="&#xcd;" horiz-adv-x="565" d="M154 0v1319h258v-1319h-258zM166 1462l172 310l186 -144l-256 -244z" />
<glyph unicode="&#xce;" horiz-adv-x="565" d="M7 1452l190 236h172l190 -236l-90 -72l-186 174l-186 -174zM154 0v1319h258v-1319h-258z" />
<glyph unicode="&#xcf;" horiz-adv-x="565" d="M-4 1430v202h196v-202h-196zM154 0v1319h258v-1319h-258zM379 1430v202h196v-202h-196z" />
<glyph unicode="&#xd0;" horiz-adv-x="1284" d="M27 565v223h127v515q104 16 214.5 25t198.5 9q176 0 296 -43t192.5 -127t104.5 -211t32 -294q0 -172 -33 -299t-108.5 -212t-200.5 -126t-307 -41q-31 0 -76 1t-97.5 4t-108.5 6t-107 9v561h-127zM412 213q43 -4 72.5 -4h66.5q113 0 185.5 24.5t115.5 78t60.5 139.5 t17.5 206q0 119 -17.5 205t-60.5 141.5t-118 82t-191 26.5q-63 0 -131 -6v-318h262v-223h-262v-352z" />
<glyph unicode="&#xd1;" horiz-adv-x="1394" d="M154 0v1319h350l469 -950h12v950h256v-1319h-350l-469 950h-12v-950h-256zM381 1499q39 78 77.5 123t104.5 45q35 0 70.5 -11t69.5 -24.5t66 -25t56 -11.5q29 0 48.5 17.5t41.5 52.5l96 -63q-41 -80 -78.5 -124t-105.5 -44q-37 0 -73.5 11t-71.5 24.5t-64.5 24.5 t-52.5 11q-29 0 -48.5 -18.5t-39.5 -50.5z" />
<glyph unicode="&#xd2;" d="M92 659q0 164 31 291t99.5 213t178 131t267.5 45t267 -45t178 -131t99.5 -213t30.5 -291t-30.5 -290.5t-99.5 -212.5t-178.5 -131t-266.5 -45q-158 0 -267.5 45t-178 131t-99.5 212.5t-31 290.5zM354 659q0 -111 13.5 -195.5t48.5 -142t95.5 -87t156.5 -29.5 q94 0 155.5 29.5t96 87t48 142.5t13.5 195q0 111 -13.5 196t-48 142.5t-96 87t-155.5 29.5q-96 0 -156.5 -29.5t-95.5 -87t-48.5 -142.5t-13.5 -196zM405 1628l187 144l172 -310l-103 -78z" />
<glyph unicode="&#xd3;" d="M92 659q0 164 31 291t99.5 213t178 131t267.5 45t267 -45t178 -131t99.5 -213t30.5 -291t-30.5 -290.5t-99.5 -212.5t-178.5 -131t-266.5 -45q-158 0 -267.5 45t-178 131t-99.5 212.5t-31 290.5zM354 659q0 -111 13.5 -195.5t48.5 -142t95.5 -87t156.5 -29.5 q94 0 155.5 29.5t96 87t48 142.5t13.5 195q0 111 -13.5 196t-48 142.5t-96 87t-155.5 29.5q-96 0 -156.5 -29.5t-95.5 -87t-48.5 -142.5t-13.5 -196zM553 1462l172 310l186 -144l-256 -244z" />
<glyph unicode="&#xd4;" d="M92 659q0 164 31 291t99.5 213t178 131t267.5 45t267 -45t178 -131t99.5 -213t30.5 -291t-30.5 -290.5t-99.5 -212.5t-178.5 -131t-266.5 -45q-158 0 -267.5 45t-178 131t-99.5 212.5t-31 290.5zM354 659q0 -111 13.5 -195.5t48.5 -142t95.5 -87t156.5 -29.5 q94 0 155.5 29.5t96 87t48 142.5t13.5 195q0 111 -13.5 196t-48 142.5t-96 87t-155.5 29.5q-96 0 -156.5 -29.5t-95.5 -87t-48.5 -142.5t-13.5 -196zM392 1452l190 236h172l190 -236l-90 -72l-186 174l-186 -174z" />
<glyph unicode="&#xd5;" d="M92 659q0 164 31 291t99.5 213t178 131t267.5 45t267 -45t178 -131t99.5 -213t30.5 -291t-30.5 -290.5t-99.5 -212.5t-178.5 -131t-266.5 -45q-158 0 -267.5 45t-178 131t-99.5 212.5t-31 290.5zM354 659q0 -111 13.5 -195.5t48.5 -142t95.5 -87t156.5 -29.5 q94 0 155.5 29.5t96 87t48 142.5t13.5 195q0 111 -13.5 196t-48 142.5t-96 87t-155.5 29.5q-96 0 -156.5 -29.5t-95.5 -87t-48.5 -142.5t-13.5 -196zM357 1499q39 78 77.5 123t104.5 45q35 0 70.5 -11t69.5 -24.5t66 -25t56 -11.5q29 0 48.5 17.5t41.5 52.5l96 -63 q-41 -80 -78.5 -124t-105.5 -44q-37 0 -73.5 11t-71.5 24.5t-64.5 24.5t-52.5 11q-29 0 -48.5 -18.5t-39.5 -50.5z" />
<glyph unicode="&#xd6;" d="M92 659q0 164 31 291t99.5 213t178 131t267.5 45t267 -45t178 -131t99.5 -213t30.5 -291t-30.5 -290.5t-99.5 -212.5t-178.5 -131t-266.5 -45q-158 0 -267.5 45t-178 131t-99.5 212.5t-31 290.5zM354 659q0 -111 13.5 -195.5t48.5 -142t95.5 -87t156.5 -29.5 q94 0 155.5 29.5t96 87t48 142.5t13.5 195q0 111 -13.5 196t-48 142.5t-96 87t-155.5 29.5q-96 0 -156.5 -29.5t-95.5 -87t-48.5 -142.5t-13.5 -196zM381 1430v202h196v-202h-196zM764 1430v202h196v-202h-196z" />
<glyph unicode="&#xd7;" horiz-adv-x="1069" d="M131 215l262 262l-262 262l141 142l263 -263l262 263l141 -142l-262 -262l262 -262l-141 -141l-262 262l-263 -262z" />
<glyph unicode="&#xd8;" d="M92 0l119 168q-63 86 -91 209t-28 282q0 164 31 291t99.5 213t178 131t267.5 45q199 0 325 -73l37 53h213l-121 -170q63 -86 92 -209t29 -281q0 -164 -30.5 -290.5t-99.5 -212.5t-178.5 -131t-266.5 -45q-199 0 -326 71l-37 -51h-213zM354 659q0 -76 5.5 -139t21.5 -114 l471 661q-70 47 -184 47q-96 0 -156.5 -29.5t-95.5 -87t-48.5 -142.5t-13.5 -196zM483 250q66 -45 185 -45q94 0 155.5 29.5t96 87t48 142.5t13.5 195q0 154 -27 254z" />
<glyph unicode="&#xd9;" horiz-adv-x="1275" d="M123 446v873h258v-838q0 -145 57.5 -212.5t198.5 -67.5q143 0 200.5 67.5t57.5 212.5v838h258v-873q0 -123 -36 -212t-102.5 -145t-162.5 -82.5t-215 -26.5t-214 26.5t-161.5 82.5t-102.5 145.5t-36 211.5zM381 1628l187 144l172 -310l-103 -78z" />
<glyph unicode="&#xda;" horiz-adv-x="1275" d="M123 446v873h258v-838q0 -145 57.5 -212.5t198.5 -67.5q143 0 200.5 67.5t57.5 212.5v838h258v-873q0 -123 -36 -212t-102.5 -145t-162.5 -82.5t-215 -26.5t-214 26.5t-161.5 82.5t-102.5 145.5t-36 211.5zM528 1462l172 310l186 -144l-256 -244z" />
<glyph unicode="&#xdb;" horiz-adv-x="1275" d="M123 446v873h258v-838q0 -145 57.5 -212.5t198.5 -67.5q143 0 200.5 67.5t57.5 212.5v838h258v-873q0 -123 -36 -212t-102.5 -145t-162.5 -82.5t-215 -26.5t-214 26.5t-161.5 82.5t-102.5 145.5t-36 211.5zM363 1452l190 236h172l190 -236l-90 -72l-186 174l-186 -174z " />
<glyph unicode="&#xdc;" horiz-adv-x="1275" d="M123 446v873h258v-838q0 -145 57.5 -212.5t198.5 -67.5q143 0 200.5 67.5t57.5 212.5v838h258v-873q0 -123 -36 -212t-102.5 -145t-162.5 -82.5t-215 -26.5t-214 26.5t-161.5 82.5t-102.5 145.5t-36 211.5zM350 1430v202h196v-202h-196zM733 1430v202h196v-202h-196z" />
<glyph unicode="&#xdd;" horiz-adv-x="1265" d="M45 1319h279q31 -72 67.5 -149.5t76.5 -157.5t82 -157t83 -146h8q41 70 83 146.5t82 156.5t77 157.5t67 149.5h271q-104 -223 -217 -431t-242 -411v-477h-258v477q-129 203 -241.5 411t-217.5 431zM541 1462l172 310l186 -144l-256 -244z" />
<glyph unicode="&#xde;" horiz-adv-x="1169" d="M154 0v1319h258v-217q92 6 170 6q109 0 204 -17.5t166.5 -65.5t113.5 -132t42 -217q0 -129 -40 -217t-109.5 -142.5t-164 -77t-200.5 -22.5q-41 0 -88 3t-94 7v-227h-258zM412 436q25 -4 64.5 -6t78.5 -2q141 0 216 50t75 184q0 127 -67.5 174t-205.5 47q-39 0 -83 -2 t-78 -7v-438z" />
<glyph unicode="&#xdf;" horiz-adv-x="1163" d="M127 0v930q0 88 24.5 162.5t80 130t143.5 86t213 30.5q82 0 155.5 -14t130 -47t90 -85t33.5 -128q0 -137 -129 -246q-47 -39 -79.5 -60.5t-32.5 -53.5q0 -18 12 -30.5t33.5 -25t51.5 -26t65 -33.5q33 -20 65.5 -45t58 -57.5t41 -74.5t15.5 -98q0 -68 -25.5 -128t-77 -106 t-129.5 -73.5t-182 -27.5q-53 0 -120.5 7t-127.5 21l39 213q37 -10 90 -17t103 -7q84 0 134 27.5t50 88.5q0 53 -45 84t-145 80q-76 37 -114 83t-38 118q0 66 30.5 111t90.5 94q53 45 87 77.5t34 75.5q0 47 -43 68.5t-121 21.5q-68 0 -111 -14t-66.5 -39.5t-32.5 -61.5 t-9 -79v-932h-242z" />
<glyph unicode="&#xe0;" horiz-adv-x="960" d="M66 281q0 143 96 221t274 78q35 0 80 -2.5t84 -6.5v33q0 43 -7 73t-26.5 46t-53.5 23.5t-87 7.5q-72 0 -143.5 -8.5t-128.5 -18.5l-25 205q70 14 156 24.5t164 10.5q186 0 289.5 -77t103.5 -259v-631h-172l-27 70q-53 -43 -119.5 -66.5t-140.5 -23.5q-70 0 -128 20 t-100 59t-65.5 94.5t-23.5 127.5zM266 1260l187 143l172 -309l-103 -78zM311 291q0 -53 32 -85t97 -32q43 0 87 13.5t73 31.5v182q-33 4 -69.5 5.5t-57.5 1.5q-76 0 -119 -25.5t-43 -91.5z" />
<glyph unicode="&#xe1;" horiz-adv-x="960" d="M66 281q0 143 96 221t274 78q35 0 80 -2.5t84 -6.5v33q0 43 -7 73t-26.5 46t-53.5 23.5t-87 7.5q-72 0 -143.5 -8.5t-128.5 -18.5l-25 205q70 14 156 24.5t164 10.5q186 0 289.5 -77t103.5 -259v-631h-172l-27 70q-53 -43 -119.5 -66.5t-140.5 -23.5q-70 0 -128 20 t-100 59t-65.5 94.5t-23.5 127.5zM311 291q0 -53 32 -85t97 -32q43 0 87 13.5t73 31.5v182q-33 4 -69.5 5.5t-57.5 1.5q-76 0 -119 -25.5t-43 -91.5zM373 1094l172 309l186 -143l-256 -244z" />
<glyph unicode="&#xe2;" horiz-adv-x="960" d="M66 281q0 143 96 221t274 78q35 0 80 -2.5t84 -6.5v33q0 43 -7 73t-26.5 46t-53.5 23.5t-87 7.5q-72 0 -143.5 -8.5t-128.5 -18.5l-25 205q70 14 156 24.5t164 10.5q186 0 289.5 -77t103.5 -259v-631h-172l-27 70q-53 -43 -119.5 -66.5t-140.5 -23.5q-70 0 -128 20 t-100 59t-65.5 94.5t-23.5 127.5zM207 1083l190 236h172l190 -236l-90 -71l-186 174l-186 -174zM311 291q0 -53 32 -85t97 -32q43 0 87 13.5t73 31.5v182q-33 4 -69.5 5.5t-57.5 1.5q-76 0 -119 -25.5t-43 -91.5z" />
<glyph unicode="&#xe3;" horiz-adv-x="960" d="M66 281q0 143 96 221t274 78q35 0 80 -2.5t84 -6.5v33q0 43 -7 73t-26.5 46t-53.5 23.5t-87 7.5q-72 0 -143.5 -8.5t-128.5 -18.5l-25 205q70 14 156 24.5t164 10.5q186 0 289.5 -77t103.5 -259v-631h-172l-27 70q-53 -43 -119.5 -66.5t-140.5 -23.5q-70 0 -128 20 t-100 59t-65.5 94.5t-23.5 127.5zM158 1130q39 78 77.5 123t104.5 45q35 0 70.5 -11t69.5 -24.5t66 -24.5t56 -11q29 0 48.5 17.5t41.5 51.5l96 -63q-41 -80 -78.5 -124t-105.5 -44q-37 0 -73.5 11t-71.5 24.5t-64.5 25t-52.5 11.5q-29 0 -48.5 -18.5t-39.5 -51.5zM311 291 q0 -53 32 -85t97 -32q43 0 87 13.5t73 31.5v182q-33 4 -69.5 5.5t-57.5 1.5q-76 0 -119 -25.5t-43 -91.5z" />
<glyph unicode="&#xe4;" horiz-adv-x="960" d="M66 281q0 143 96 221t274 78q35 0 80 -2.5t84 -6.5v33q0 43 -7 73t-26.5 46t-53.5 23.5t-87 7.5q-72 0 -143.5 -8.5t-128.5 -18.5l-25 205q70 14 156 24.5t164 10.5q186 0 289.5 -77t103.5 -259v-631h-172l-27 70q-53 -43 -119.5 -66.5t-140.5 -23.5q-70 0 -128 20 t-100 59t-65.5 94.5t-23.5 127.5zM197 1061v203h196v-203h-196zM311 291q0 -53 32 -85t97 -32q43 0 87 13.5t73 31.5v182q-33 4 -69.5 5.5t-57.5 1.5q-76 0 -119 -25.5t-43 -91.5zM580 1061v203h196v-203h-196z" />
<glyph unicode="&#xe5;" horiz-adv-x="960" d="M66 281q0 143 96 221t274 78q35 0 80 -2.5t84 -6.5v33q0 43 -7 73t-26.5 46t-53.5 23.5t-87 7.5q-72 0 -143.5 -8.5t-128.5 -18.5l-25 205q70 14 156 24.5t164 10.5q186 0 289.5 -77t103.5 -259v-631h-172l-27 70q-53 -43 -119.5 -66.5t-140.5 -23.5q-70 0 -128 20 t-100 59t-65.5 94.5t-23.5 127.5zM301 1231q0 90 52.5 141t142.5 51t142 -51t52 -139q0 -90 -52 -141.5t-142 -51.5t-142.5 51.5t-52.5 139.5zM311 291q0 -53 32 -85t97 -32q43 0 87 13.5t73 31.5v182q-33 4 -69.5 5.5t-57.5 1.5q-76 0 -119 -25.5t-43 -91.5zM403 1231 q0 -45 22 -71.5t71 -26.5t70.5 27.5t21.5 72.5t-21.5 71.5t-70.5 26.5t-71 -27.5t-22 -72.5z" />
<glyph unicode="&#xe6;" horiz-adv-x="1425" d="M66 287q0 80 29.5 136t79.5 93t117.5 53.5t145.5 16.5q35 0 78 -3t84 -8v25q0 86 -38 120t-140 34q-31 0 -65.5 -2t-70.5 -6.5t-69 -8.5t-59 -10l-31 205q72 16 161 25.5t161 9.5q82 0 160.5 -18.5t135.5 -74.5q41 41 111 67t156 26q174 0 264 -107.5t90 -288.5 q0 -33 -3 -87t-11 -99h-514q2 -109 51 -148.5t143 -39.5q68 0 138.5 13t121.5 30l56 -197q-72 -29 -160 -46t-172 -17q-205 0 -305 116q-59 -53 -135 -84.5t-170 -31.5q-70 0 -132.5 19t-108.5 57t-72.5 95.5t-26.5 135.5zM311 293q0 -59 37 -89t96 -30q45 0 97.5 17.5 t87.5 50.5q-12 37 -17.5 75.5t-9.5 75.5q-55 12 -125 13q-31 0 -61.5 -4.5t-53 -16.5t-37 -33.5t-14.5 -58.5zM838 573h295q0 88 -33 135.5t-111 47.5q-82 0 -114.5 -48.5t-36.5 -134.5z" />
<glyph unicode="&#xe7;" horiz-adv-x="839" d="M66 465q0 125 24.5 218t77.5 156.5t139 95.5t207 32q53 0 120.5 -6.5t129.5 -18.5l-23 -201q-49 6 -103 11.5t-101 5.5q-68 0 -111 -14.5t-68.5 -48t-36 -88t-10.5 -136.5q0 -57 7.5 -107.5t29 -87t61.5 -58t105 -21.5q57 0 120.5 14t113.5 31l63 -197q-72 -29 -161 -47 t-175 -18q-217 0 -313 123.5t-96 361.5zM328 -381l24 94q10 -4 25.5 -6t36.5 -2q47 0 73.5 16.5t26.5 51.5q0 31 -25.5 45t-101.5 14l21 90q135 0 183 -39t48 -106q0 -86 -59.5 -128t-149.5 -42q-23 0 -54.5 4t-47.5 8z" />
<glyph unicode="&#xe8;" horiz-adv-x="915" d="M63 479q0 113 29 204t81 153.5t128 96.5t168 34q186 0 281.5 -112t95.5 -314q0 -35 -3 -78t-12 -78h-518q12 -104 68.5 -148t148.5 -44q70 0 134.5 18t115.5 37l68 -189q-70 -33 -159 -56t-185 -23q-201 0 -321 122.5t-120 376.5zM243 1260l187 143l172 -309l-103 -78z M311 573h297q-4 80 -36.5 131.5t-110.5 51.5q-76 0 -110 -49.5t-40 -133.5z" />
<glyph unicode="&#xe9;" horiz-adv-x="915" d="M63 479q0 113 29 204t81 153.5t128 96.5t168 34q186 0 281.5 -112t95.5 -314q0 -35 -3 -78t-12 -78h-518q12 -104 68.5 -148t148.5 -44q70 0 134.5 18t115.5 37l68 -189q-70 -33 -159 -56t-185 -23q-201 0 -321 122.5t-120 376.5zM311 573h297q-4 80 -36.5 131.5 t-110.5 51.5q-76 0 -110 -49.5t-40 -133.5zM358 1094l172 309l186 -143l-256 -244z" />
<glyph unicode="&#xea;" horiz-adv-x="915" d="M63 479q0 113 29 204t81 153.5t128 96.5t168 34q186 0 281.5 -112t95.5 -314q0 -35 -3 -78t-12 -78h-518q12 -104 68.5 -148t148.5 -44q70 0 134.5 18t115.5 37l68 -189q-70 -33 -159 -56t-185 -23q-201 0 -321 122.5t-120 376.5zM201 1083l190 236h172l190 -236l-90 -71 l-186 174l-186 -174zM311 573h297q-4 80 -36.5 131.5t-110.5 51.5q-76 0 -110 -49.5t-40 -133.5z" />
<glyph unicode="&#xeb;" horiz-adv-x="915" d="M63 479q0 113 29 204t81 153.5t128 96.5t168 34q186 0 281.5 -112t95.5 -314q0 -35 -3 -78t-12 -78h-518q12 -104 68.5 -148t148.5 -44q70 0 134.5 18t115.5 37l68 -189q-70 -33 -159 -56t-185 -23q-201 0 -321 122.5t-120 376.5zM178 1061v203h196v-203h-196zM311 573 h297q-4 80 -36.5 131.5t-110.5 51.5q-76 0 -110 -49.5t-40 -133.5zM561 1061v203h196v-203h-196z" />
<glyph unicode="&#xec;" horiz-adv-x="495" d="M18 1260l187 143l172 -309l-103 -78zM127 0v946h242v-946h-242z" />
<glyph unicode="&#xed;" horiz-adv-x="495" d="M123 1094l172 309l186 -143l-256 -244zM127 0v946h242v-946h-242z" />
<glyph unicode="&#xee;" horiz-adv-x="495" d="M-26 1083l190 236h172l190 -236l-90 -71l-186 174l-186 -174zM127 0v946h242v-946h-242z" />
<glyph unicode="&#xef;" horiz-adv-x="495" d="M-39 1061v203h196v-203h-196zM127 0v946h242v-946h-242zM344 1061v203h196v-203h-196z" />
<glyph unicode="&#xf0;" horiz-adv-x="999" d="M66 483q0 133 25.5 225.5t73.5 149.5t116.5 83t154.5 26q66 0 139 -13q-47 84 -100 150l-156 -98l-88 139l127 82q-23 20 -45 38.5t-45 34.5l97 136q43 -20 83.5 -46t81.5 -55l160 103l88 -140l-119 -75q43 -47 81 -97.5t69 -107.5q66 -123 93.5 -263.5t27.5 -269.5 q0 -121 -22.5 -214t-74 -158.5t-134.5 -99t-201 -33.5q-121 0 -204 34.5t-133 99t-72.5 157.5t-22.5 212zM311 479q0 -61 6.5 -113.5t25.5 -91t56.5 -60t98.5 -21.5t98 21.5t56.5 60t25.5 90t6 110.5q0 66 -6 132.5t-23 137.5q-37 8 -85 14.5t-87 6.5q-51 0 -84.5 -15.5 t-53 -49t-27 -88t-7.5 -134.5z" />
<glyph unicode="&#xf1;" horiz-adv-x="1044" d="M127 0v946h172l23 -69q61 43 133.5 66.5t156.5 23.5q82 0 141.5 -23.5t98.5 -66.5t57.5 -102.5t18.5 -129.5v-645h-242v608q0 72 -32.5 109t-110.5 37q-45 0 -89 -10.5t-85 -24.5v-719h-242zM228 1130q39 78 77.5 123t104.5 45q35 0 70.5 -11t69.5 -24.5t66 -24.5t56 -11 q29 0 48.5 17.5t41.5 51.5l96 -63q-41 -80 -78.5 -124t-105.5 -44q-37 0 -73.5 11t-71.5 24.5t-64.5 25t-52.5 11.5q-29 0 -48.5 -18.5t-39.5 -51.5z" />
<glyph unicode="&#xf2;" horiz-adv-x="995" d="M66 473q0 113 22.5 205t73.5 155.5t134 98.5t202 35t201.5 -35t134 -98.5t74 -155.5t22.5 -205q0 -115 -22.5 -206t-74 -154.5t-134.5 -98t-201 -34.5q-119 0 -202 34.5t-134 98t-73.5 154.5t-22.5 206zM254 1260l187 143l172 -309l-103 -78zM311 473q0 -59 6.5 -109.5 t25.5 -89t56.5 -60t98.5 -21.5t98 21.5t56.5 60t25.5 89t6 109.5q0 57 -6 108.5t-25.5 90.5t-56.5 60.5t-98 21.5t-98.5 -21.5t-56.5 -60.5t-25.5 -90.5t-6.5 -108.5z" />
<glyph unicode="&#xf3;" horiz-adv-x="995" d="M66 473q0 113 22.5 205t73.5 155.5t134 98.5t202 35t201.5 -35t134 -98.5t74 -155.5t22.5 -205q0 -115 -22.5 -206t-74 -154.5t-134.5 -98t-201 -34.5q-119 0 -202 34.5t-134 98t-73.5 154.5t-22.5 206zM311 473q0 -59 6.5 -109.5t25.5 -89t56.5 -60t98.5 -21.5t98 21.5 t56.5 60t25.5 89t6 109.5q0 57 -6 108.5t-25.5 90.5t-56.5 60.5t-98 21.5t-98.5 -21.5t-56.5 -60.5t-25.5 -90.5t-6.5 -108.5zM393 1094l172 309l186 -143l-256 -244z" />
<glyph unicode="&#xf4;" horiz-adv-x="995" d="M66 473q0 113 22.5 205t73.5 155.5t134 98.5t202 35t201.5 -35t134 -98.5t74 -155.5t22.5 -205q0 -115 -22.5 -206t-74 -154.5t-134.5 -98t-201 -34.5q-119 0 -202 34.5t-134 98t-73.5 154.5t-22.5 206zM222 1083l190 236h172l190 -236l-90 -71l-186 174l-186 -174z M311 473q0 -59 6.5 -109.5t25.5 -89t56.5 -60t98.5 -21.5t98 21.5t56.5 60t25.5 89t6 109.5q0 57 -6 108.5t-25.5 90.5t-56.5 60.5t-98 21.5t-98.5 -21.5t-56.5 -60.5t-25.5 -90.5t-6.5 -108.5z" />
<glyph unicode="&#xf5;" horiz-adv-x="995" d="M66 473q0 113 22.5 205t73.5 155.5t134 98.5t202 35t201.5 -35t134 -98.5t74 -155.5t22.5 -205q0 -115 -22.5 -206t-74 -154.5t-134.5 -98t-201 -34.5q-119 0 -202 34.5t-134 98t-73.5 154.5t-22.5 206zM183 1130q39 78 77.5 123t104.5 45q35 0 70.5 -11t69.5 -24.5 t66 -24.5t56 -11q29 0 48.5 17.5t41.5 51.5l96 -63q-41 -80 -78.5 -124t-105.5 -44q-37 0 -73.5 11t-71.5 24.5t-64.5 25t-52.5 11.5q-29 0 -48.5 -18.5t-39.5 -51.5zM311 473q0 -59 6.5 -109.5t25.5 -89t56.5 -60t98.5 -21.5t98 21.5t56.5 60t25.5 89t6 109.5 q0 57 -6 108.5t-25.5 90.5t-56.5 60.5t-98 21.5t-98.5 -21.5t-56.5 -60.5t-25.5 -90.5t-6.5 -108.5z" />
<glyph unicode="&#xf6;" horiz-adv-x="995" d="M66 473q0 113 22.5 205t73.5 155.5t134 98.5t202 35t201.5 -35t134 -98.5t74 -155.5t22.5 -205q0 -115 -22.5 -206t-74 -154.5t-134.5 -98t-201 -34.5q-119 0 -202 34.5t-134 98t-73.5 154.5t-22.5 206zM211 1061v203h196v-203h-196zM311 473q0 -59 6.5 -109.5t25.5 -89 t56.5 -60t98.5 -21.5t98 21.5t56.5 60t25.5 89t6 109.5q0 57 -6 108.5t-25.5 90.5t-56.5 60.5t-98 21.5t-98.5 -21.5t-56.5 -60.5t-25.5 -90.5t-6.5 -108.5zM594 1061v203h196v-203h-196z" />
<glyph unicode="&#xf7;" horiz-adv-x="1204" d="M131 383v180h942v-180h-942zM487 0v238h230v-238h-230zM487 709v237h230v-237h-230z" />
<glyph unicode="&#xf8;" horiz-adv-x="995" d="M66 0l88 123q-47 66 -67.5 152.5t-20.5 197.5q0 113 22.5 205t73.5 155.5t134 98.5t202 35q68 0 123 -11.5t100 -33.5l18 24h191l-88 -125q47 -63 67.5 -150t20.5 -198q0 -115 -22.5 -206t-74 -154.5t-134.5 -98t-201 -34.5q-131 0 -226 45l-16 -25h-190zM311 473 q0 -63 6 -119l273 381q-37 18 -92 19q-61 0 -98.5 -21.5t-56.5 -60.5t-25.5 -90.5t-6.5 -108.5zM406 209q33 -16 92 -16q61 0 98 21.5t56.5 60t25.5 89t6 109.5q0 31 -2 60.5t-6 56.5z" />
<glyph unicode="&#xf9;" horiz-adv-x="1042" d="M117 311v635h241v-602q0 -80 33 -115.5t115 -35.5q43 0 82 9t86 25v719h241v-946h-172l-18 70q-59 -41 -135 -65.5t-162 -24.5q-84 0 -143.5 25.5t-96 69.5t-54 104.5t-17.5 131.5zM276 1260l187 143l172 -309l-103 -78z" />
<glyph unicode="&#xfa;" horiz-adv-x="1042" d="M117 311v635h241v-602q0 -80 33 -115.5t115 -35.5q43 0 82 9t86 25v719h241v-946h-172l-18 70q-59 -41 -135 -65.5t-162 -24.5q-84 0 -143.5 25.5t-96 69.5t-54 104.5t-17.5 131.5zM412 1094l172 309l186 -143l-256 -244z" />
<glyph unicode="&#xfb;" horiz-adv-x="1042" d="M117 311v635h241v-602q0 -80 33 -115.5t115 -35.5q43 0 82 9t86 25v719h241v-946h-172l-18 70q-59 -41 -135 -65.5t-162 -24.5q-84 0 -143.5 25.5t-96 69.5t-54 104.5t-17.5 131.5zM250 1083l190 236h172l190 -236l-90 -71l-186 174l-186 -174z" />
<glyph unicode="&#xfc;" horiz-adv-x="1042" d="M117 311v635h241v-602q0 -80 33 -115.5t115 -35.5q43 0 82 9t86 25v719h241v-946h-172l-18 70q-59 -41 -135 -65.5t-162 -24.5q-84 0 -143.5 25.5t-96 69.5t-54 104.5t-17.5 131.5zM230 1061v203h196v-203h-196zM613 1061v203h196v-203h-196z" />
<glyph unicode="&#xfd;" horiz-adv-x="968" d="M45 946h254q39 -193 82 -376t94 -373h12q47 152 99.5 350t99.5 399h242q-43 -172 -90 -348t-98.5 -345t-102.5 -329t-102 -297h-232q45 125 79 220.5t50 152.5h-125q-35 104 -69.5 219t-68.5 237t-65.5 245.5t-58.5 244.5zM422 1094l172 309l186 -143l-256 -244z" />
<glyph unicode="&#xfe;" horiz-adv-x="1003" d="M127 -373v1692h242v-406q35 23 85 38.5t119 15.5q186 0 273.5 -124t87.5 -354q0 -154 -31 -253t-86 -155t-130 -78.5t-163 -22.5q-45 0 -89 7t-66 15v-375h-242zM369 199q29 -6 65.5 -11.5t71.5 -5.5q49 0 84 14.5t56.5 49.5t31.5 93t10 144q0 135 -33.5 204t-144.5 69 q-29 0 -69 -6.5t-72 -16.5v-534z" />
<glyph unicode="&#xff;" horiz-adv-x="968" d="M45 946h254q39 -193 82 -376t94 -373h12q47 152 99.5 350t99.5 399h242q-43 -172 -90 -348t-98.5 -345t-102.5 -329t-102 -297h-232q45 125 79 220.5t50 152.5h-125q-35 104 -69.5 219t-68.5 237t-65.5 245.5t-58.5 244.5zM213 1061v203h196v-203h-196zM596 1061v203h196 v-203h-196z" />
<glyph unicode="&#x152;" horiz-adv-x="1701" d="M92 659q0 158 33 281t108.5 207t201.5 128t313 44h872v-225h-520v-306h438v-225h-438v-338h520v-225h-872q-186 0 -312.5 44t-202 128t-108.5 206.5t-33 280.5zM354 659q0 -117 17.5 -198.5t60.5 -134t116 -77t181 -24.5h113v869h-113q-109 0 -181.5 -25t-115.5 -77 t-60.5 -134t-17.5 -199z" />
<glyph unicode="&#x153;" horiz-adv-x="1476" d="M66 473q0 113 21.5 205t70.5 155.5t126.5 98.5t190.5 35q98 0 172 -29t125 -82q45 53 108.5 82t149.5 29q186 0 281.5 -112t95.5 -314q0 -35 -3 -78t-11 -78h-519q12 -104 68.5 -148t149.5 -44q70 0 133 17t114 36l70 -187q-70 -33 -159 -56t-185 -23q-195 0 -291 114 q-47 -57 -124 -85.5t-171 -28.5q-115 0 -193.5 34.5t-127.5 98t-70.5 154.5t-21.5 206zM311 473q0 -59 5.5 -109.5t22.5 -89t49 -60t87 -21.5t88 21.5t50.5 60t22.5 89t5 109.5q0 57 -5 108.5t-22.5 90.5t-50.5 60.5t-88 21.5t-87 -21.5t-49 -60.5t-22.5 -90.5t-5.5 -108.5z M872 573h297q-4 80 -37.5 131.5t-111.5 51.5q-76 0 -109.5 -49.5t-38.5 -133.5z" />
<glyph unicode="&#x178;" horiz-adv-x="1265" d="M45 1319h279q31 -72 67.5 -149.5t76.5 -157.5t82 -157t83 -146h8q41 70 83 146.5t82 156.5t77 157.5t67 149.5h271q-104 -223 -217 -431t-242 -411v-477h-258v477q-129 203 -241.5 411t-217.5 431zM344 1430v202h196v-202h-196zM727 1430v202h196v-202h-196z" />
<glyph unicode="&#x2c6;" horiz-adv-x="937" d="M193 1083l190 236h172l190 -236l-90 -71l-186 174l-186 -174z" />
<glyph unicode="&#x2dc;" horiz-adv-x="946" d="M158 1130q39 78 77.5 123t104.5 45q35 0 70.5 -11t69.5 -24.5t66 -24.5t56 -11q29 0 48.5 17.5t41.5 51.5l96 -63q-41 -80 -78.5 -124t-105.5 -44q-37 0 -73.5 11t-71.5 24.5t-64.5 25t-52.5 11.5q-29 0 -48.5 -18.5t-39.5 -51.5z" />
<glyph unicode="&#x2000;" horiz-adv-x="896" />
<glyph unicode="&#x2001;" horiz-adv-x="1792" />
<glyph unicode="&#x2002;" horiz-adv-x="896" />
<glyph unicode="&#x2003;" horiz-adv-x="1792" />
<glyph unicode="&#x2004;" horiz-adv-x="597" />
<glyph unicode="&#x2005;" horiz-adv-x="448" />
<glyph unicode="&#x2006;" horiz-adv-x="298" />
<glyph unicode="&#x2007;" horiz-adv-x="298" />
<glyph unicode="&#x2008;" horiz-adv-x="224" />
<glyph unicode="&#x2009;" horiz-adv-x="358" />
<glyph unicode="&#x200a;" horiz-adv-x="99" />
<glyph unicode="&#x2010;" horiz-adv-x="589" d="M66 399v226h458v-226h-458z" />
<glyph unicode="&#x2011;" horiz-adv-x="589" d="M66 399v226h458v-226h-458z" />
<glyph unicode="&#x2012;" horiz-adv-x="589" d="M66 399v226h458v-226h-458z" />
<glyph unicode="&#x2013;" horiz-adv-x="1300" d="M131 424v174h1038v-174h-1038z" />
<glyph unicode="&#x2014;" horiz-adv-x="1470" d="M57 428v166h1356v-166h-1356z" />
<glyph unicode="&#x2018;" horiz-adv-x="450" d="M119 897q0 106 29.5 220t95.5 208l88 -10q-18 -111 -19 -234q0 -41 2 -85t7 -91z" />
<glyph unicode="&#x2019;" horiz-adv-x="450" d="M119 907q18 111 18 234q0 41 -2 85t-6 91l203 8q0 -106 -30 -220t-95 -208z" />
<glyph unicode="&#x201a;" horiz-adv-x="450" d="M119 -193q18 111 18 234q0 41 -2 85t-6 91l203 8q0 -106 -30 -220t-95 -208z" />
<glyph unicode="&#x201c;" horiz-adv-x="745" d="M119 897q0 106 29.5 220t95.5 208l88 -10q-18 -111 -19 -234q0 -41 2 -85t7 -91zM414 897q0 106 29.5 220t95.5 208l88 -10q-18 -111 -19 -234q0 -41 2 -85t7 -91z" />
<glyph unicode="&#x201d;" horiz-adv-x="745" d="M119 907q18 111 18 234q0 41 -2 85t-6 91l203 8q0 -106 -30 -220t-95 -208zM414 907q18 111 18 234q0 41 -2 85t-6 91l203 8q0 -106 -30 -220t-95 -208z" />
<glyph unicode="&#x201e;" horiz-adv-x="745" d="M119 -195q18 111 18 234q0 41 -2 85t-6 91l203 8q0 -106 -30 -220t-95 -208zM414 -195q18 111 18 234q0 41 -2 85t-6 91l203 8q0 -106 -30 -220t-95 -208z" />
<glyph unicode="&#x2022;" horiz-adv-x="741" d="M131 668q0 236 240 235q240 0 239 -235q1 -236 -239 -236t-240 236z" />
<glyph unicode="&#x2026;" horiz-adv-x="1353" d="M144 0v238h235v-238h-235zM559 0v238h235v-238h-235zM975 0v238h235v-238h-235z" />
<glyph unicode="&#x202f;" horiz-adv-x="358" />
<glyph unicode="&#x2039;" horiz-adv-x="540" d="M45 494q0 47 23.5 94t70.5 98q29 33 87.5 89t127.5 120l121 -123q-29 -27 -58.5 -57.5t-58 -59t-51 -53t-35.5 -39.5q-20 -23 -26 -38t-6 -29t6 -29.5t26 -38.5q12 -14 35 -38.5t51.5 -53.5t58 -59.5t58.5 -57.5l-121 -127q-70 63 -128 119.5t-87 89.5q-47 51 -70.5 98 t-23.5 95z" />
<glyph unicode="&#x203a;" horiz-adv-x="540" d="M66 215l57.5 57.5l59 59t51 53.5t34.5 39q20 23 26.5 38t6.5 30q0 14 -6 29.5t-27 37.5q-12 14 -34.5 39t-51 53.5t-59.5 59t-57 57.5l120 127q70 -63 128.5 -119.5t86.5 -89.5q47 -51 71 -98t24 -94t-23.5 -94.5t-71.5 -98.5q-29 -33 -87 -89t-128 -120z" />
<glyph unicode="&#x205f;" horiz-adv-x="448" />
<glyph unicode="&#x20ac;" horiz-adv-x="1232" d="M104 424v188h121q-2 51 0 103h-116v188h139q37 186 145 295q82 84 189.5 112.5t230.5 28.5q86 0 170 -9t160 -25l-39 -218q-59 10 -130 18.5t-136 8.5q-29 0 -63 -2t-69.5 -11t-68.5 -26.5t-59 -48.5q-23 -25 -38.5 -56.5t-25.5 -66.5h412v-188h-439q-2 -53 0 -103h439 v-188h-414q12 -55 37 -94q41 -72 109.5 -98.5t148.5 -26.5t163 19.5t154 41.5l68 -200q-84 -39 -192.5 -62.5t-219.5 -23.5q-127 0 -241.5 41t-190.5 143q-39 51 -63.5 116.5t-40.5 143.5h-140z" />
<glyph unicode="&#x2122;" horiz-adv-x="1468" d="M35 1174v145h563v-145h-199v-588h-166v588h-198zM659 586l17 733h178l190 -393h5l190 393h178l17 -733h-168l-11 415h-2l-127 -268h-159l-127 268h-2l-11 -415h-168z" />
<glyph unicode="&#x25fc;" horiz-adv-x="942" d="M0 0v942h942v-942h-942z" />
</font>
</defs>
</svg>
