<?xml version="1.0" standalone="no"?>
<!DOCTYPE svg PUBLIC "-//W3C//DTD SVG 1.1//EN" "http://www.w3.org/Graphics/SVG/1.1/DTD/svg11.dtd" >
<svg xmlns="http://www.w3.org/2000/svg" xmlns:xlink="http://www.w3.org/1999/xlink" version="1.1">
<metadata></metadata>
<defs>
<font id="liberty_global_gestaMdIt" horiz-adv-x="983" >
<font-face units-per-em="2048" ascent="1497" descent="-551" />
<missing-glyph horiz-adv-x="446" />
<glyph unicode="&#xfb01;" horiz-adv-x="1073" d="M94 0l139 793h-129l23 131l131 10l21 117q29 154 98 221t215 67q39 0 81 -4t83 -8l-19 -162q-33 4 -71.5 7.5t-67.5 3.5q-31 0 -52.5 -5.5t-36.5 -19.5t-25.5 -41t-18.5 -72l-16 -92h569l-166 -946h-188l139 793h-381l-139 -793h-189zM860 1116l35 203h188l-34 -203h-189 z" />
<glyph unicode="&#xfb02;" horiz-adv-x="1073" d="M94 0l139 793h-131l25 131l131 10l21 117q29 154 98 221t215 67q39 0 81 -4t83 -8l-19 -162q-33 4 -71.5 7.5t-67.5 3.5q-31 0 -52.5 -5.5t-36.5 -19.5t-25.5 -41t-18.5 -72l-16 -92h188l-27 -153h-188l-139 -793h-189zM663 0l232 1319h188l-231 -1319h-189z" />
<glyph horiz-adv-x="0" />
<glyph horiz-adv-x="0" />
<glyph unicode="&#xd;" horiz-adv-x="468" />
<glyph unicode=" "  horiz-adv-x="446" />
<glyph unicode="&#x09;" horiz-adv-x="446" />
<glyph unicode="&#xa0;" horiz-adv-x="446" />
<glyph unicode="!" horiz-adv-x="534" d="M86 0l35 203h194l-34 -203h-195zM184 362l123 957h219l-217 -957h-125z" />
<glyph unicode="&#x22;" horiz-adv-x="616" d="M201 1026q0 59 9 145t28 189h182q-29 -156 -66 -267.5t-71 -170.5h-74q-4 20 -6 44.5t-2 59.5zM473 1026q0 59 9 145t28 189h182q-29 -156 -66 -267.5t-71 -170.5h-74q-4 20 -6 44.5t-2 59.5z" />
<glyph unicode="#" horiz-adv-x="1148" d="M55 385l41 121h199l106 307h-198l41 121h198l131 385h134l-134 -385h254l131 385h134l-134 -385h199l-41 -121h-198l-107 -307h199l-41 -121h-199l-131 -385h-133l133 385h-254l-131 -385h-133l133 385h-199zM426 506h254l106 307h-254z" />
<glyph unicode="$" horiz-adv-x="1024" d="M43 25l33 176q76 -16 150.5 -29.5t152.5 -13.5q74 0 139.5 16t112.5 62q31 29 50 69.5t19 93.5q0 47 -16 79t-47 54.5t-73 40t-93 39.5q-63 27 -114.5 55.5t-88.5 66.5t-57.5 89t-20.5 121q0 92 35 166t101 127q100 82 247 100l35 189h189l-33 -187q55 -4 109.5 -11 t107.5 -17l-31 -174q-29 6 -64.5 12t-74.5 10t-76 7t-67 3q-57 0 -111.5 -13t-95.5 -50q-33 -27 -51.5 -66t-18.5 -86q0 -43 17.5 -69.5t48 -47t74.5 -40t100 -43.5q57 -27 106 -55.5t86 -67.5t57.5 -91.5t20.5 -123.5q0 -94 -37 -180t-108 -146q-47 -41 -106.5 -63.5 t-125.5 -32.5l-35 -201h-186l33 193q-78 4 -152.5 13t-140.5 26z" />
<glyph unicode="%" horiz-adv-x="1417" d="M139 938q0 68 21.5 139.5t66.5 130t110.5 95t156.5 36.5q111 0 172 -63.5t61 -171.5q0 -68 -21.5 -139.5t-66.5 -130t-111.5 -95.5t-154.5 -37q-111 0 -172.5 63.5t-61.5 172.5zM186 0l957 1319h155l-956 -1319h-156zM289 954q0 -125 102 -125q51 0 87 26t58.5 64.5 t32 84t9.5 83.5q0 125 -103 125q-53 0 -88 -25.5t-57.5 -64.5t-31.5 -84t-9 -84zM758 215q0 68 21.5 139.5t66.5 130t110.5 95t155.5 36.5q111 0 172.5 -63.5t61.5 -171.5q0 -68 -21.5 -139.5t-67 -130t-112 -95t-154.5 -36.5q-111 0 -172 63t-61 172zM907 231 q0 -125 103 -125q51 0 87 26t58.5 65t31.5 84t9 84q0 125 -102 124q-53 0 -88 -25.5t-57.5 -64.5t-32 -84t-9.5 -84z" />
<glyph unicode="&#x26;" horiz-adv-x="1175" d="M47 291q0 133 68.5 222t185.5 161l86 53l-16 21q-45 55 -75 120.5t-30 139.5q0 70 28 130t78 105t120.5 70.5t158.5 25.5q74 0 131.5 -20.5t96.5 -56t59 -82.5t20 -103q0 -63 -22.5 -113.5t-59 -92.5t-86 -76.5t-100.5 -67.5l-39 -25q51 -59 109.5 -124.5t128.5 -141.5 q29 35 61.5 75t67.5 87l133 -98q-35 -47 -71 -94.5t-76 -94.5l133 -139l-140 -129l-123 131q-98 -92 -203.5 -143t-250.5 -51q-100 0 -171 24.5t-116 66.5t-65.5 98t-20.5 122zM248 319q0 -72 46 -118.5t159 -46.5q98 0 166.5 38.5t140.5 106.5q-78 84 -144.5 160 t-126.5 143l-73 -45q-70 -43 -119 -98.5t-49 -139.5zM469 1016q0 -47 16.5 -88t51.5 -84l14 -19l43 27q29 18 57.5 37.5t52 44t38 54.5t14.5 69q0 49 -33 79.5t-90 30.5q-74 0 -119 -41t-45 -110z" />
<glyph unicode="'" horiz-adv-x="342" d="M201 1026q0 59 9 145t28 189h182q-29 -156 -66 -267.5t-71 -170.5h-74q-4 20 -6 44.5t-2 59.5z" />
<glyph unicode="(" horiz-adv-x="493" d="M55 201q0 160 33 329.5t105 335.5q66 156 150.5 277t186.5 229l103 -69q-80 -92 -155 -211t-134 -273q-57 -147 -88 -308t-31 -333q0 -315 111 -506l-111 -69q-86 117 -128 264.5t-42 333.5z" />
<glyph unicode=")" horiz-adv-x="493" d="M-135 -328q80 92 155 211t134 273q57 147 87.5 308t30.5 333q0 315 -110 506l110 69q86 -117 128 -264t42 -334q0 -160 -32.5 -330t-104.5 -335q-66 -156 -150.5 -277t-187.5 -229z" />
<glyph unicode="*" horiz-adv-x="665" d="M166 944l174 100l-137 99l59 82l135 -97l33 191h102l-32 -189l168 95l32 -80l-174 -101l140 -100l-62 -80l-135 94l-33 -188h-102l35 188l-170 -94z" />
<glyph unicode="+" horiz-adv-x="1193" d="M141 403l25 140h364l72 403h158l-72 -403h365l-25 -140h-364l-70 -403h-158l70 403h-365z" />
<glyph unicode="," horiz-adv-x="477" d="M14 -238q41 98 61.5 202t22.5 220l187 9q-6 -123 -58.5 -236t-132.5 -201z" />
<glyph unicode="-" horiz-adv-x="587" d="M72 422l30 174h424l-30 -174h-424z" />
<glyph unicode="." horiz-adv-x="477" d="M57 0l35 203h195l-35 -203h-195z" />
<glyph unicode="/" horiz-adv-x="755" d="M-41 0l746 1319h159l-745 -1319h-160z" />
<glyph unicode="0" horiz-adv-x="1107" d="M109 385q0 59 7 134t20.5 154t31.5 156.5t41 143.5q31 86 69.5 153.5t95 115.5t131.5 72.5t175 24.5q207 0 295 -103t88 -296q0 -59 -7 -134t-20.5 -155t-32 -158.5t-40.5 -146.5q-61 -180 -170 -273t-304 -93q-207 0 -293.5 104t-86.5 301zM309 379q0 -53 9.5 -94 t32 -71t59 -45t94.5 -15q119 0 182.5 72.5t104.5 226.5q12 47 24 108.5t23.5 128t17.5 131t6 115.5q0 106 -41 167.5t-153 61.5q-123 0 -185.5 -74.5t-101.5 -224.5q-12 -47 -24.5 -110.5t-23.5 -130t-17.5 -132t-6.5 -114.5z" />
<glyph unicode="1" horiz-adv-x="770" d="M166 1141l373 178h176l-232 -1319h-198l196 1114l-260 -100z" />
<glyph unicode="2" horiz-adv-x="1058" d="M80 0l24 143q156 129 288 244t227.5 219.5t149.5 200.5t54 188q0 90 -49 130t-145 40q-84 0 -166 -23.5t-152 -51.5l-51 155q78 35 180.5 64.5t210.5 29.5q82 0 150.5 -19.5t118 -59t77 -99t27.5 -139.5q0 -113 -55.5 -222.5t-146.5 -216t-209.5 -209t-247.5 -200.5h544 l-30 -174h-799z" />
<glyph unicode="3" horiz-adv-x="927" d="M-6 20l33 173q59 -14 135 -26.5t153 -12.5q174 0 250 84q37 41 52.5 95t15.5 107q0 90 -44 125t-149 35h-137l29 168h147q63 0 108.5 21.5t73 57.5t40 79t12.5 86q0 78 -41 115.5t-135 37.5q-86 0 -163 -23.5t-136 -49.5l-56 155q74 35 175.5 63.5t211.5 28.5 q160 0 252 -70.5t92 -221.5q0 -113 -54 -209.5t-165 -139.5q72 -35 106 -104.5t34 -157.5q0 -86 -31 -173t-94 -152q-72 -74 -168.5 -102.5t-216.5 -28.5q-86 0 -171 11t-159 29z" />
<glyph unicode="4" horiz-adv-x="1058" d="M16 250l25 143q141 209 312 447.5t349 478.5h209q-176 -236 -338.5 -459t-310.5 -438h352l68 299h182l-53 -299h207l-31 -172h-207l-43 -250h-196l43 250h-568z" />
<glyph unicode="5" horiz-adv-x="991" d="M31 16l28 170q70 -12 154 -22t160 -10q88 0 156.5 21.5t111.5 84.5q33 47 47 108.5t14 112.5q0 92 -49 128t-166 36q-66 0 -130 -9t-124 -24l-81 68l133 639h696l-31 -174h-506l-71 -352q41 10 85 15t93 5q78 0 143.5 -16.5t111.5 -53t71.5 -96t25.5 -145.5 q0 -51 -9 -105.5t-27.5 -106.5t-45 -98.5t-61.5 -82.5q-68 -72 -161 -100.5t-226 -28.5q-86 0 -174 10t-168 26z" />
<glyph unicode="6" horiz-adv-x="1050" d="M111 369q0 66 10 152.5t29.5 180t49 184.5t70.5 169q78 150 193 217t289 67q59 0 136 -7t142 -23l-33 -172q-25 6 -56.5 11t-65 9t-66.5 6t-59 2q-72 0 -131.5 -18.5t-107.5 -64.5t-85 -125.5t-61 -200.5q27 10 61.5 20t73.5 18.5t78.5 13.5t76.5 5q59 0 116.5 -16.5 t103 -52t73 -94t27.5 -144.5q0 -41 -7 -88t-21.5 -96.5t-39 -97.5t-57.5 -89q-72 -88 -168 -121.5t-201 -33.5q-182 0 -276 92t-94 297zM311 371q0 -102 41 -159.5t150 -57.5q59 0 112.5 20.5t92.5 73.5t53 118.5t14 112.5q0 94 -48 132t-140 38q-70 0 -132.5 -15.5 t-115.5 -33.5q-10 -49 -18.5 -111.5t-8.5 -117.5z" />
<glyph unicode="7" horiz-adv-x="890" d="M141 0q98 170 180 313.5t157 277.5t147.5 268t152.5 286h-610l31 174h809l-23 -129q-78 -152 -153.5 -296t-154.5 -289.5t-162 -295t-173 -309.5h-201z" />
<glyph unicode="8" horiz-adv-x="1067" d="M74 287q0 74 21.5 140.5t61.5 119.5t93 90t119 53q-68 29 -111 83t-43 155q0 88 35 169t106 140q66 53 148 77.5t176 24.5q172 0 264 -74.5t92 -215.5q0 -66 -20.5 -124.5t-55 -104.5t-80.5 -79.5t-100 -52.5q74 -27 122 -87t48 -169q0 -86 -34.5 -178t-108.5 -160 q-66 -59 -154 -86.5t-198 -27.5q-197 0 -289 80t-92 227zM274 338q0 -102 54.5 -143t140.5 -41q66 0 122 20.5t93 61.5q35 39 50.5 91t15.5 99q0 98 -53.5 138t-143.5 40q-66 0 -121 -19.5t-92 -60.5q-39 -41 -52.5 -93t-13.5 -93zM416 930q0 -90 49 -125t125 -35 q119 0 184 70q29 29 45.5 73.5t16.5 94.5q0 86 -49.5 121.5t-127.5 35.5q-119 0 -186 -71q-35 -37 -46 -82t-11 -82z" />
<glyph unicode="9" horiz-adv-x="1050" d="M88 10l33 172q25 -6 56.5 -11t65 -9t66.5 -6t60 -2q72 0 131 18t107 64.5t85 126t62 200.5q-27 -10 -62 -20.5t-73.5 -18.5t-78.5 -13t-77 -5q-59 0 -116.5 16.5t-102.5 52t-73 94t-28 144.5q0 39 7.5 87t21.5 97.5t37.5 97.5t58.5 89q72 88 168 121.5t201 33.5 q182 0 276.5 -92t94.5 -297q0 -66 -10.5 -152.5t-30 -180t-50 -185.5t-69.5 -168q-78 -150 -192.5 -217t-288.5 -67q-59 0 -136 7t-143 23zM344 840q0 -94 49.5 -132t141.5 -38q68 0 130 15t115 34q10 49 18.5 111.5t8.5 117.5q0 102 -41 159.5t-150 57.5q-59 0 -112 -20.5 t-92 -73.5t-53.5 -118.5t-14.5 -112.5z" />
<glyph unicode=":" horiz-adv-x="507" d="M73 0l35 203h195l-35 -203h-195zM204 743l35 203h195l-35 -203h-195z" />
<glyph unicode=";" horiz-adv-x="536" d="M45 -238q41 98 61.5 202t22.5 220l187 9q-6 -123 -58.5 -236t-132.5 -201zM207 743l35 203h195l-35 -203h-195z" />
<glyph unicode="&#x3c;" horiz-adv-x="905" d="M143 418l21 119q158 104 326.5 211.5t345.5 218.5l-35 -199q-131 -78 -258 -155.5t-226 -141.5v-6q74 -61 175.5 -138t203.5 -155l-32 -184q-137 111 -268.5 218t-252.5 212z" />
<glyph unicode="=" horiz-adv-x="1101" d="M109 217l24 141h795l-25 -141h-794zM174 590l25 141h794l-24 -141h-795z" />
<glyph unicode="&#x3e;" horiz-adv-x="907" d="M68 -14l34 196q131 78 260.5 157t225.5 142l2 6q-74 61 -175.5 138t-205.5 155l33 189q137 -111 269 -219.5t253 -212.5l-21 -117q-158 -104 -328.5 -214t-346.5 -220z" />
<glyph unicode="?" horiz-adv-x="843" d="M170 1253q72 35 164 60.5t182 25.5q70 0 130.5 -18t105.5 -55t70.5 -92.5t25.5 -129.5q0 -66 -20.5 -119t-53.5 -98t-77 -85t-89 -83q-47 -43 -77.5 -74.5t-50 -64.5t-33 -68.5t-21.5 -86.5h-170q12 82 32.5 138t48.5 99t64.5 80t83.5 80q68 63 121 127.5t53 142.5 q0 68 -44 101.5t-115 33.5q-63 0 -137 -21.5t-134 -47.5zM186 0l35 203h193l-35 -203h-193z" />
<glyph unicode="@" horiz-adv-x="1441" d="M90 328q0 63 9.5 139t30 155.5t53 158.5t79.5 147q100 147 243.5 208.5t325.5 61.5q262 0 406.5 -117.5t144.5 -363.5q0 -74 -14 -171t-47 -186q-37 -100 -101.5 -162.5t-177.5 -62.5q-119 0 -174 86q-55 -41 -114.5 -63.5t-128.5 -22.5q-61 0 -104.5 19.5t-70 53.5 t-38 79t-11.5 98q0 68 16.5 156t49.5 166q90 217 301 217q80 0 158 -26t149 -67l-74 -413q-6 -37 -6 -64q0 -35 14.5 -55t51.5 -20q47 0 72.5 32.5t46.5 94.5q23 72 36 157.5t13 155.5q0 188 -102.5 266t-303.5 78q-150 0 -258 -45t-184 -164q-35 -55 -60.5 -120.5 t-42 -134.5t-24.5 -136.5t-8 -124.5q0 -100 23.5 -170t72.5 -113t125 -62.5t178 -19.5q78 0 149.5 10.5t143.5 30.5l31 -127q-66 -20 -162 -34.5t-195 -14.5q-121 0 -217 28t-163.5 86t-104.5 151.5t-37 224.5zM569 403q0 -57 19.5 -94t85.5 -37q35 0 78 12.5t84 37.5 q-4 49 6 104l63 336q-29 10 -63.5 19.5t-67.5 9.5q-66 0 -101.5 -41t-60.5 -111q-20 -55 -31.5 -119t-11.5 -117z" />
<glyph unicode="A" horiz-adv-x="1134" d="M-41 0q147 338 300 663.5t316 655.5h291q49 -330 85 -655.5t61 -663.5h-201q-4 76 -10 151.5t-13 153.5h-493q-33 -74 -65.5 -150.5t-65.5 -154.5h-205zM373 479h401q-16 166 -34.5 335t-41.5 347h-6q-166 -338 -319 -682z" />
<glyph unicode="B" horiz-adv-x="1120" d="M76 2l229 1301q94 16 203.5 25t193.5 9q80 0 153 -12t126 -44t85 -87t32 -141q0 -53 -13.5 -107.5t-42 -102.5t-71.5 -86t-101 -59v-6q70 -27 108 -82t38 -155q0 -92 -34 -191.5t-110 -169.5q-37 -33 -79.5 -54.5t-98 -33.5t-126 -16t-158.5 -4q-98 0 -180.5 4t-153.5 12 zM301 162q41 -2 95.5 -2h103.5q86 0 146.5 17.5t98.5 58.5q37 41 53.5 100t16.5 113q0 92 -48 123.5t-140 31.5h-248zM408 762h245q61 0 102.5 16.5t71.5 50.5q33 35 51.5 85.5t18.5 101.5q0 45 -15.5 73.5t-44 45t-69.5 22.5t-92 6q-47 0 -103.5 -4t-97.5 -8z" />
<glyph unicode="C" horiz-adv-x="1030" d="M100 446q0 61 8.5 136t26 154t44 158t65.5 148q90 164 220 230.5t306 66.5q76 0 156 -10t157 -26l-30 -168q-66 12 -146 21t-143 9q-123 0 -206 -46t-142 -163q-29 -55 -50.5 -121.5t-36 -134t-21.5 -133t-7 -116.5q0 -154 64.5 -226.5t199.5 -72.5q84 0 170 23.5 t154 51.5l51 -155q-82 -37 -189.5 -66t-220.5 -29q-207 0 -318.5 114.5t-111.5 354.5z" />
<glyph unicode="D" horiz-adv-x="1187" d="M76 2l227 1301q74 14 172 24t182 10q113 0 205 -24.5t156.5 -78.5t99.5 -141t35 -210q0 -55 -7 -125t-22.5 -143.5t-39 -149.5t-56.5 -143q-43 -90 -97 -154t-128 -103.5t-171 -59t-222 -19.5q-27 0 -66 1t-84 3t-93 5t-91 7zM301 162q45 -2 81 -2h77q152 0 243 56 t150 187q25 51 43 113t30.5 123t19.5 120.5t7 108.5q0 160 -75.5 227.5t-245.5 67.5q-37 0 -81 -2t-75 -6z" />
<glyph unicode="E" d="M76 0l231 1319h737l-30 -174h-539l-67 -379h442l-31 -172h-442l-74 -420h541l-31 -174h-737z" />
<glyph unicode="F" horiz-adv-x="962" d="M76 0l231 1319h735l-30 -174h-537l-74 -408h443l-31 -172h-440l-101 -565h-196z" />
<glyph unicode="G" horiz-adv-x="1134" d="M106 438q0 70 9.5 149t28 159.5t46 157.5t64.5 143q49 86 107.5 143t126 90t141 46t153.5 13q82 0 167 -10t165 -26l-31 -168q-61 10 -146 20t-155 10q-119 0 -208 -44t-152 -165q-29 -53 -49.5 -117.5t-35.5 -132t-22.5 -133t-7.5 -120.5q0 -158 63.5 -228.5 t194.5 -70.5q55 0 109.5 11t95.5 25l59 345h-217l31 174h414l-111 -629q-100 -53 -208.5 -76.5t-207.5 -23.5q-213 0 -318.5 111t-105.5 347z" />
<glyph unicode="H" horiz-adv-x="1243" d="M76 0l231 1319h197l-96 -553h534l96 553h197l-231 -1319h-197l104 594h-534l-105 -594h-196z" />
<glyph unicode="I" horiz-adv-x="514" d="M76 0l231 1319h197l-232 -1319h-196z" />
<glyph unicode="J" horiz-adv-x="727" d="M-57 -2l22 170q45 -8 90 -11t76 -3q63 0 103 14t66 46t41 83t28 125l157 897h197l-160 -916q-18 -106 -47 -186t-78 -132t-120.5 -78.5t-176.5 -26.5q-57 0 -108 6t-90 12z" />
<glyph unicode="K" horiz-adv-x="1103" d="M76 0l231 1319h197l-98 -555h2q63 57 133.5 124.5t143.5 140.5t142.5 145.5t135.5 144.5h241q-172 -186 -332.5 -347t-296.5 -280q100 -172 212 -342t243 -350h-252q-47 70 -99 150.5t-104.5 163.5t-101.5 165t-88 154h-2l-111 -633h-196z" />
<glyph unicode="L" horiz-adv-x="946" d="M76 0l231 1319h197l-201 -1145h537l-31 -174h-733z" />
<glyph unicode="M" horiz-adv-x="1488" d="M51 0q68 330 139.5 658.5t149.5 660.5h274l123 -850h6l420 850h287q-41 -332 -85 -660.5t-89 -658.5h-203q37 264 72 513t67 511h-8l-401 -801h-213l-119 801h-8q-61 -276 -115.5 -529t-103.5 -495h-193z" />
<glyph unicode="N" horiz-adv-x="1306" d="M76 0l231 1319h273l329 -1055h6l185 1055h196l-231 -1319h-272l-328 1055h-8l-185 -1055h-196z" />
<glyph unicode="O" horiz-adv-x="1241" d="M102 420q0 57 7.5 130t24 150.5t42 155.5t60.5 150q84 168 211.5 250.5t320.5 82.5q227 0 331.5 -112.5t104.5 -327.5q0 -57 -7 -130t-23.5 -150.5t-42 -156.5t-60.5 -149q-84 -168 -212 -250.5t-320 -82.5q-227 0 -332 112.5t-105 327.5zM303 432q0 -150 61.5 -214 t190.5 -64q131 0 210 61t132 184q23 51 42 113.5t33.5 127.5t23 129.5t8.5 119.5q0 147 -60.5 211.5t-189.5 64.5q-137 0 -215 -64.5t-129 -180.5q-23 -53 -42.5 -115t-34 -126.5t-22.5 -128t-8 -118.5z" />
<glyph unicode="P" horiz-adv-x="1087" d="M76 0l227 1303q94 16 196.5 25t180.5 9q98 0 177 -17t134.5 -57t85 -105.5t29.5 -160.5q0 -123 -48 -231.5t-134 -177.5q-59 -49 -143.5 -78t-217.5 -29q-53 0 -97 4t-106 15l-88 -500h-196zM387 653q29 -4 70 -6t82 -2q88 0 152.5 16.5t111.5 59.5q53 49 77.5 124 t24.5 144q0 106 -59.5 140t-188.5 34q-47 0 -91 -3t-91 -7z" />
<glyph unicode="Q" horiz-adv-x="1241" d="M102 420q0 57 7.5 130t24 150.5t42 155.5t60.5 150q84 168 211.5 250.5t320.5 82.5q227 0 331.5 -112.5t104.5 -327.5q0 -57 -7 -130t-23.5 -150.5t-42 -156.5t-60.5 -149q-102 -209 -283 -288l162 -218l-166 -116l-188 291q-20 -2 -31.5 -2h-25.5q-227 0 -332 112.5 t-105 327.5zM303 432q0 -150 61.5 -214t190.5 -64q131 0 210 61t132 184q23 51 42 113.5t33.5 127.5t23 129.5t8.5 119.5q0 147 -60.5 211.5t-189.5 64.5q-137 0 -215 -64.5t-129 -180.5q-23 -53 -42.5 -115t-34 -126.5t-22.5 -128t-8 -118.5z" />
<glyph unicode="R" horiz-adv-x="1107" d="M76 0l229 1309q45 6 97.5 11t104.5 9t101 6t86 2q92 0 167 -15t128 -53t82 -100.5t29 -156.5q0 -80 -21.5 -152t-64.5 -132t-105.5 -103t-144.5 -64q39 -127 92 -271.5t113 -289.5h-217q-53 135 -99.5 269t-87.5 268q-51 0 -108.5 1t-87.5 5l-97 -543h-196zM395 698 q31 -4 75 -5t73 -1q111 0 174 21.5t102 64.5q45 49 62.5 112.5t17.5 110.5q0 94 -58.5 128t-174.5 34q-29 0 -85.5 -2t-105.5 -8z" />
<glyph unicode="S" horiz-adv-x="940" d="M12 20l33 177q76 -16 150.5 -29.5t152.5 -13.5q74 0 139.5 16t112.5 61q31 29 50.5 70t19.5 94q0 47 -16.5 79t-47.5 54.5t-72.5 40t-93.5 39.5q-63 27 -114.5 55.5t-88 66.5t-57 89t-20.5 121q0 92 34.5 166t100.5 127q70 57 158 81.5t200 24.5q72 0 149 -8t148 -24 l-30 -174q-29 6 -65 12t-75 10t-75.5 7t-67.5 3q-57 0 -111.5 -13t-95.5 -50q-33 -27 -51.5 -66t-18.5 -86q0 -43 17.5 -69.5t48.5 -47t75 -40t99 -43.5q57 -27 106.5 -55.5t86 -67.5t57 -91.5t20.5 -123.5q0 -94 -36.5 -180.5t-108.5 -145.5q-74 -61 -173 -83.5t-200 -22.5 q-88 0 -176 12t-164 28z" />
<glyph unicode="T" horiz-adv-x="1044" d="M170 1145l31 174h938l-31 -174h-371l-200 -1145h-197l201 1145h-371z" />
<glyph unicode="U" horiz-adv-x="1208" d="M123 334q0 35 4 71.5t12 77.5l146 836h196l-141 -805q-8 -43 -12 -80t-4 -67q0 -213 227 -213q137 0 217 82q45 47 71.5 117.5t43.5 160.5l141 805h197l-148 -836q-20 -115 -58 -211t-110 -166q-68 -66 -161 -96t-203 -30q-193 0 -305.5 87t-112.5 267z" />
<glyph unicode="V" horiz-adv-x="1126" d="M199 1319h200q16 -285 42 -570.5t63 -590.5h4q131 287 257 574.5t245 586.5h209q-139 -338 -286 -663.5t-304 -655.5h-293q-45 330 -80 655.5t-57 663.5z" />
<glyph unicode="W" horiz-adv-x="1761" d="M207 1319h203q-2 -59 -3 -120.5t-1 -121.5q0 -225 8 -451.5t28 -469.5h4q53 129 109.5 275.5t113 298t109.5 301t99 288.5h297q-2 -98 -2.5 -178t-0.5 -154q0 -205 4.5 -410.5t18.5 -420.5h4q55 129 114.5 274t118 296t112.5 302.5t99 290.5h203q-111 -330 -240.5 -655.5 t-285.5 -663.5h-293q-6 123 -11 250t-9.5 266t-6.5 295t-2 334h-4q-45 -129 -97 -271.5t-107.5 -290t-113 -295t-114.5 -288.5h-293q-29 244 -45 571.5t-16 747.5z" />
<glyph unicode="X" horiz-adv-x="1173" d="M-29 0q133 176 268.5 348t270.5 336q-33 66 -70 143.5t-73.5 160.5t-71.5 168t-66 163h224q47 -129 92 -243.5t102 -235.5q96 117 186.5 234.5t184.5 244.5h227q-57 -78 -122.5 -163t-132 -168t-131 -161.5t-120.5 -146.5q74 -156 151 -331t148 -349h-215 q-59 143 -111.5 263t-111.5 251q-106 -131 -201.5 -253t-195.5 -261h-232z" />
<glyph unicode="Y" horiz-adv-x="1128" d="M193 1319h202q37 -174 87 -351t104 -317h4q53 74 108.5 156t110.5 168t106.5 173t98.5 171h219q-129 -229 -270.5 -434t-298.5 -412l-84 -473h-197l84 473q-86 207 -155.5 412t-118.5 434z" />
<glyph unicode="Z" horiz-adv-x="1034" d="M10 0l27 147l797 998h-601l31 174h836l-27 -148l-797 -997h629l-31 -174h-864z" />
<glyph unicode="[" horiz-adv-x="561" d="M10 -334l291 1653h371l-27 -148h-190l-240 -1357h193l-27 -148h-371z" />
<glyph unicode="\" horiz-adv-x="735" d="M190 1319h154l268 -1319h-153z" />
<glyph unicode="]" horiz-adv-x="563" d="M-98 -334l26 148h197l237 1357h-196l27 148h372l-291 -1653h-372z" />
<glyph unicode="^" horiz-adv-x="1069" d="M154 551l338 414h180l243 -420l-104 -70l-244 324l-321 -324z" />
<glyph unicode="_" horiz-adv-x="997" d="M-141 -342l18 106h993l-18 -106h-993z" />
<glyph unicode="`" horiz-adv-x="608" d="M238 1309l170 84l112 -330l-92 -43z" />
<glyph unicode="a" horiz-adv-x="956" d="M70 285q0 39 5 92t16 110.5t27.5 116t39.5 109.5q53 123 140 188.5t234 65.5q45 0 95.5 -6.5t98.5 -15.5t92 -22.5t79 -25.5l-158 -897h-141l-4 76q-49 -41 -114.5 -68.5t-143.5 -27.5q-133 0 -199.5 82t-66.5 223zM258 305q0 -78 28.5 -120t100.5 -42q57 0 110.5 22.5 t92.5 49.5l100 578q-35 6 -81 11t-79 5q-78 0 -127 -37t-81 -125q-12 -35 -24.5 -80t-21 -91t-13.5 -91t-5 -80z" />
<glyph unicode="b" horiz-adv-x="968" d="M66 49l223 1270h188l-74 -424q37 29 94.5 50.5t129.5 21.5q131 0 198.5 -82t67.5 -223q0 -41 -5 -93.5t-16.5 -110t-28 -115.5t-38.5 -110q-53 -125 -142.5 -189t-234.5 -64q-90 0 -191.5 21.5t-170.5 47.5zM272 156q45 -10 85 -15.5t69 -5.5q92 0 142 48t83 145 q23 63 38.5 148t15.5 157q0 92 -33 131t-105 39q-53 0 -102 -16.5t-90 -45.5z" />
<glyph unicode="c" horiz-adv-x="821" d="M70 311q0 39 5 90.5t16 106.5t28.5 112.5t42.5 106.5q61 125 160.5 182.5t252.5 57.5q61 0 124 -8.5t122 -20.5l-30 -158q-109 23 -207 23q-90 0 -156 -32t-106 -134q-14 -35 -25.5 -76t-20 -83t-13.5 -82t-5 -70q0 -182 170 -183q59 0 123.5 19.5t122.5 44.5l49 -150 q-66 -33 -155 -55t-175 -22q-152 0 -237.5 81.5t-85.5 249.5z" />
<glyph unicode="d" horiz-adv-x="968" d="M76 285q0 39 5 91t16.5 109.5t27.5 115.5t39 112q51 117 136 185.5t230 68.5q43 0 93.5 -6.5t99.5 -18.5l65 377h189l-232 -1319h-141l-2 82q-47 -45 -109.5 -73.5t-146.5 -28.5q-135 0 -202.5 82t-67.5 223zM264 305q0 -78 29 -120t100 -42q57 0 110.5 22.5t92.5 49.5 l100 580q-35 6 -80 10t-77 4q-80 0 -129.5 -36t-81.5 -126q-12 -35 -24.5 -79t-21 -91t-13.5 -92t-5 -80z" />
<glyph unicode="e" horiz-adv-x="888" d="M66 324q0 47 7 104t22.5 117.5t41 121t62.5 113.5q59 86 144 136.5t198 50.5q150 0 223.5 -88t73.5 -224q0 -55 -10.5 -119.5t-26.5 -129.5h-541q-4 -18 -5 -40t-1 -38q0 -88 42 -136.5t138 -48.5q61 0 126 18.5t122 45.5l49 -150q-66 -33 -155 -55t-179 -22 q-158 0 -244.5 82t-86.5 262zM285 553h360q10 51 10 98q0 66 -29.5 109t-103.5 43q-96 0 -152.5 -69.5t-84.5 -180.5z" />
<glyph unicode="f" horiz-adv-x="606" d="M94 0l139 793h-131l25 131l131 10l21 117q29 154 98 221t215 67q39 0 81 -4t83 -8l-19 -162q-33 4 -71.5 7.5t-67.5 3.5q-31 0 -52.5 -5.5t-36.5 -19.5t-25.5 -41t-18.5 -72l-16 -92h188l-27 -153h-188l-139 -793h-189z" />
<glyph unicode="g" horiz-adv-x="958" d="M53 -338l41 154q51 -14 124 -29.5t140 -15.5q74 0 119 29.5t62 115.5l24 135q-37 -29 -96 -50t-131 -21q-133 0 -199.5 81.5t-66.5 223.5q0 41 5 93t16 109.5t27.5 116t39.5 109.5q53 123 141 188.5t236 65.5q45 0 95 -6.5t98 -15.5t92 -22.5t79 -25.5l-176 -1010 q-14 -82 -47 -136t-81 -86t-106.5 -45t-126.5 -13q-80 0 -157.5 15.5t-151.5 39.5zM258 309q0 -86 33 -126t104 -40q53 0 103.5 19.5t93.5 48.5l100 580q-90 22 -152 22h-5q-86 0 -132.5 -45t-74.5 -113q-14 -37 -27.5 -81t-23 -90t-14.5 -92t-5 -83z" />
<glyph unicode="h" horiz-adv-x="985" d="M57 0l232 1319h188l-76 -436q51 35 111.5 59.5t136.5 24.5q123 0 185.5 -68t62.5 -172q0 -23 -2 -45.5t-6 -44.5l-111 -637h-188l110 625q4 16 6.5 37.5t2.5 37.5q0 102 -115 103q-59 0 -116.5 -20.5t-102.5 -43.5l-129 -739h-189z" />
<glyph unicode="i" horiz-adv-x="466" d="M57 0l166 946h189l-166 -946h-189zM254 1116l35 203h188l-35 -203h-188z" />
<glyph unicode="j" horiz-adv-x="466" d="M-98 -373q33 61 59.5 114.5t48 114t40 135.5t36.5 177l137 778h189l-140 -792q-16 -96 -36.5 -172t-44 -139.5t-53 -116t-64.5 -99.5h-172zM254 1116l35 203h188l-35 -203h-188z" />
<glyph unicode="k" horiz-adv-x="923" d="M57 0l232 1319h188l-131 -746h2q100 86 200.5 181.5t188.5 191.5h230q-104 -111 -223 -222.5t-232 -209.5q61 -111 142 -235.5t192 -278.5h-232q-33 47 -71.5 107.5t-77.5 124t-74 125t-59 110.5h-4l-82 -467h-189z" />
<glyph unicode="l" horiz-adv-x="466" d="M57 0l232 1319h188l-231 -1319h-189z" />
<glyph unicode="m" horiz-adv-x="1449" d="M57 0l166 946h142l2 -78q51 35 114.5 67t145.5 32q72 0 127 -30t80 -87q68 51 133 84t151 33q117 0 180.5 -61.5t63.5 -178.5q0 -25 -4 -53.5t-8 -55.5l-109 -618h-188l110 627q4 16 6 35.5t2 35.5q0 104 -112 105q-47 0 -95.5 -19.5t-99.5 -50.5q0 -29 -4 -58.5 t-8 -58.5l-109 -616h-188l111 627q6 37 6 67q0 109 -113 109q-47 0 -92 -17.5t-92 -46.5l-129 -739h-189z" />
<glyph unicode="n" horiz-adv-x="985" d="M57 0l166 946h142l4 -76q55 41 125.5 69t154.5 28q123 0 185.5 -66.5t62.5 -177.5q0 -39 -8 -86l-111 -637h-188l110 625q4 18 6.5 38.5t2.5 36.5q0 47 -28 75t-87 28q-57 0 -114.5 -20.5t-104.5 -43.5l-129 -739h-189z" />
<glyph unicode="o" horiz-adv-x="954" d="M66 324q0 98 26.5 211.5t77.5 205.5q61 111 155.5 168.5t227.5 57.5q162 0 247 -86t85 -260q0 -94 -25.5 -208t-77.5 -206q-127 -227 -387 -227q-160 0 -244.5 86t-84.5 258zM254 326q0 -82 34 -132.5t122 -50.5q141 0 215 152q18 37 31.5 80t22.5 87t13 85t4 74 q0 82 -32.5 132t-122.5 50q-143 0 -215 -150q-18 -37 -31.5 -80t-23 -87t-13.5 -85.5t-4 -74.5z" />
<glyph unicode="p" horiz-adv-x="968" d="M-10 -373l231 1319h141l3 -82q47 45 109.5 74t146.5 29q135 0 202.5 -82t67.5 -226q0 -43 -6 -95t-16.5 -109.5t-28 -113.5t-37.5 -108q-51 -119 -135 -186t-230 -67q-43 0 -94 6t-100 18l-68 -377h-186zM270 156q33 -10 73 -16.5t75 -6.5q80 0 135 41t92 143 q25 68 41 156t16 160q0 84 -28.5 127t-102.5 43q-53 0 -105 -19.5t-93 -50.5z" />
<glyph unicode="q" horiz-adv-x="960" d="M76 285q0 41 5 93t16.5 109.5t27.5 116t39 109.5q53 123 139 188.5t234 65.5q45 0 95 -6.5t98 -15.5t92 -22.5t79 -25.5l-223 -1270h-189l76 424q-39 -29 -96 -50t-129 -21q-133 0 -198.5 82t-65.5 223zM264 311q0 -90 31 -129t102 -39q53 0 103.5 19.5t93.5 50.5 l100 578q-90 22 -152 22h-5q-84 0 -131.5 -42t-75.5 -116q-14 -35 -25.5 -79t-21 -90t-14.5 -92t-5 -83z" />
<glyph unicode="r" horiz-adv-x="671" d="M57 0l166 946h142l4 -102q57 57 116.5 90t135.5 33q23 0 54.5 -3t55.5 -10l-18 -168q-61 12 -111 13q-70 0 -125 -25.5t-110 -83.5l-121 -690h-189z" />
<glyph unicode="s" horiz-adv-x="788" d="M-2 12l31 162q59 -12 129.5 -21.5t128.5 -9.5q94 0 154.5 32t60.5 106q0 29 -10.5 46t-31 31.5t-51 25.5t-73.5 28q-47 18 -87 37.5t-69.5 47t-47 66.5t-17.5 94q0 66 24.5 122.5t71.5 98.5t118.5 65.5t166.5 23.5q59 0 128.5 -8.5t125.5 -20.5l-31 -160 q-51 10 -109.5 17.5t-99.5 7.5q-37 0 -74 -7.5t-66.5 -21.5t-48 -38.5t-18.5 -57.5q0 -29 14.5 -47.5t39 -31.5t57 -25.5t71.5 -26.5q51 -20 89 -42t64 -49.5t39 -64.5t13 -88q0 -152 -105.5 -237.5t-299.5 -85.5q-66 0 -144 9t-143 23z" />
<glyph unicode="t" horiz-adv-x="677" d="M102 793l23 131l137 10l66 283h168l-47 -271h237l-27 -153h-237l-92 -525q-6 -35 -6 -55q0 -70 61 -70q29 0 65.5 11.5t67.5 27.5l62 -129q-47 -31 -109.5 -52t-132.5 -21q-86 0 -147.5 43t-61.5 143q0 20 4 47t8 55l92 525h-131z" />
<glyph unicode="u" d="M88 221q0 16 2 39t6 49l111 637h188l-108 -618q-4 -27 -7.5 -45.5t-3.5 -38.5q0 -100 117 -101q57 0 113.5 20.5t103.5 43.5l129 739h187l-166 -946h-142l-2 76q-57 -41 -125.5 -68.5t-152.5 -27.5q-125 0 -187.5 65t-62.5 176z" />
<glyph unicode="v" horiz-adv-x="892" d="M127 946h188q8 -223 21.5 -423.5t36.5 -377.5h8q43 86 87 183.5t87 201t86 209t82 207.5h192q-92 -236 -199.5 -476.5t-232.5 -469.5h-256q-47 229 -69.5 470t-30.5 476z" />
<glyph unicode="w" horiz-adv-x="1370" d="M127 946h186q-6 -141 -6 -291q0 -141 4 -272t13 -236h6q37 90 78 190.5t80.5 205t78.5 207t72 196.5h246q-2 -47 -2 -96v-100q0 -154 3 -308.5t11 -294.5h6q37 78 77 176.5t80 204t78 213t68 205.5h185q-82 -244 -176.5 -476t-206.5 -470h-258q-8 197 -13.5 402.5 t-5.5 392.5h-8q-29 -86 -65.5 -186.5t-76.5 -205t-81 -208t-78 -195.5h-250q-25 250 -35 480.5t-10 465.5z" />
<glyph unicode="x" horiz-adv-x="909" d="M-25 0q96 129 192.5 251t188.5 232q-51 104 -107 225t-106 238h195q31 -84 66.5 -167t70.5 -158q59 74 125 157.5t127 167.5h201q-88 -117 -187.5 -240.5t-187.5 -230.5q53 -111 108.5 -228.5t108.5 -246.5h-195q-33 86 -68.5 167t-72.5 167q-66 -82 -129 -165t-127 -169 h-203z" />
<glyph unicode="y" horiz-adv-x="886" d="M123 -373q59 111 108.5 205t83.5 168h-94q-31 199 -54.5 443.5t-37.5 502.5h193q6 -205 19 -406.5t36 -387.5h8q39 86 83 184t87 200.5t85 207t79 202.5h188q-66 -164 -138.5 -337t-150 -343t-157.5 -332.5t-156 -306.5h-182z" />
<glyph unicode="z" horiz-adv-x="774" d="M-16 0l22 123l537 670h-410l27 153h622l-22 -123l-537 -669h424l-26 -154h-637z" />
<glyph unicode="{" horiz-adv-x="600" d="M74 496q37 37 64.5 67.5t47 62t31.5 67.5t21 83l55 311q25 137 125 194.5t254 57.5l-17 -94q-41 -8 -70.5 -18t-52 -31.5t-38 -57.5t-25.5 -91l-49 -289q-14 -80 -62.5 -145.5t-121.5 -116.5q96 -86 96 -201q0 -16 -1 -34.5t-5 -35.5l-52 -280q-2 -10 -4 -35t-2 -43 q0 -61 32 -85t91 -36l-16 -94q-139 0 -217 45t-78 145q0 14 1 27.5t5 34.5l53 311q4 23 6 46.5t2 43.5q0 49 -17 93t-56 98z" />
<glyph unicode="|" horiz-adv-x="612" d="M61 -373l301 1692h187l-301 -1692h-187z" />
<glyph unicode="}" horiz-adv-x="602" d="M-70 -348l17 94q43 8 73.5 19.5t52 33t35 56t23.5 90.5l51 288q14 80 61.5 145.5t121.5 117.5q-47 43 -71 92t-24 108q0 31 6 66l50 285q4 25 6 43t2 32q0 66 -32 88.5t-91 34.5l16 94q137 0 216 -44t79 -142q0 -33 -6 -66l-53 -311q-4 -25 -6 -47t-2 -39q0 -55 17 -98 t54 -96q-37 -37 -63.5 -67t-46 -61.5t-31.5 -67.5t-20 -85l-56 -311q-25 -137 -125 -194.5t-254 -57.5z" />
<glyph unicode="~" horiz-adv-x="956" d="M178 612q31 66 74 107t115 41q43 0 79.5 -15.5t85.5 -44.5q47 -27 77 -41t55 -14q35 0 61.5 25.5t48.5 60.5l62 -67q-31 -66 -74 -107t-115 -41q-43 0 -80 15.5t-86 43.5q-47 27 -76.5 41.5t-54.5 14.5q-35 0 -61.5 -25.5t-48.5 -60.5z" />
<glyph unicode="&#xa1;" horiz-adv-x="534" d="M6 -373l215 957h125l-121 -957h-219zM217 743l35 203h197l-35 -203h-197z" />
<glyph unicode="&#xa2;" horiz-adv-x="845" d="M70 311q0 37 5 88.5t16 107.5t28.5 112.5t42.5 105.5q53 111 132 165t179 68l35 193h162l-33 -186q94 -6 190 -29l-30 -158q-57 10 -112.5 17.5t-109.5 7.5q-92 0 -153.5 -35t-102.5 -135q-14 -35 -25 -75t-19.5 -82t-12.5 -81t-4 -69q0 -90 41 -136.5t131 -46.5 q61 0 123.5 19.5t120.5 44.5l49 -150q-53 -29 -120.5 -48t-139.5 -25l-33 -193h-164l35 197q-113 20 -172 104t-59 219z" />
<glyph unicode="&#xa3;" horiz-adv-x="966" d="M37 0l20 121q109 66 167.5 153.5t58.5 206.5v39t-2 41h-148l25 137l106 9q-6 47 -10 90t-4 77q0 98 28.5 185.5t88.5 152.5q70 74 160.5 100.5t189.5 26.5q70 0 145.5 -9t145.5 -25l-29 -166q-51 10 -112.5 18t-121.5 8q-66 0 -129 -15t-104 -67q-61 -74 -61 -215 q0 -31 3 -67.5t7 -75.5h321l-28 -164h-279q2 -16 3 -30.5t1 -34.5q0 -92 -36.5 -174t-114.5 -148h514l-31 -174h-774z" />
<glyph unicode="&#xa4;" horiz-adv-x="1112" d="M43 299l170 143q-18 35 -25.5 74t-7.5 76q0 80 28 153.5t81 133.5l-117 141l141 121l119 -146q53 31 110.5 49.5t116.5 18.5t111.5 -18.5t93.5 -49.5l170 146l101 -121l-170 -143q16 -35 24 -74t8 -80q0 -78 -27.5 -150.5t-80.5 -132.5l117 -141l-142 -121l-119 146 q-53 -31 -110 -49.5t-117 -18.5q-59 0 -111.5 18.5t-93.5 49.5l-170 -146zM330 610q0 -92 60.5 -147t152.5 -55q55 0 103 19t89 54q53 45 83 103.5t30 124.5q0 92 -60.5 147t-152.5 55q-55 0 -103.5 -19.5t-89.5 -53.5q-53 -45 -82.5 -103.5t-29.5 -124.5z" />
<glyph unicode="&#xa5;" horiz-adv-x="1064" d="M102 233l27 154h289l28 166h-288l26 154h215q-51 141 -100 299.5t-90 312.5h209q37 -139 79 -272.5t87 -249.5q84 117 172 250t174 272h219q-92 -154 -198.5 -312.5t-205.5 -299.5h213l-26 -154h-289l-29 -166h289l-26 -154h-289l-41 -233h-197l41 233h-289z" />
<glyph unicode="&#xa6;" horiz-adv-x="612" d="M61 -373l111 635h186l-112 -635h-185zM250 684l110 635h187l-111 -635h-186z" />
<glyph unicode="&#xa7;" horiz-adv-x="995" d="M12 -332l33 162q57 -14 119.5 -22.5t122.5 -8.5q68 0 126 15.5t105 53.5t83 103.5t61 167.5q-41 -6 -93 -6q-209 0 -333.5 108.5t-124.5 338.5q0 49 6 109.5t19.5 126t36 132t54.5 125.5q80 150 195 210t274 60q72 0 147 -9t144 -25l-31 -162q-57 14 -120.5 22.5 t-122.5 8.5q-68 0 -125.5 -14.5t-105.5 -52.5t-85 -103.5t-61 -167.5q49 6 100 6q102 0 185.5 -27.5t142.5 -83t92 -138.5t33 -196q0 -47 -6 -107.5t-19.5 -126t-35 -134t-54.5 -129.5q-78 -147 -195.5 -208t-277.5 -61q-72 0 -145.5 9.5t-143.5 23.5zM299 598 q0 -164 77 -232.5t242 -68.5h34t40 4q6 45 6 96q0 61 -14 113.5t-48 90.5t-91.5 59.5t-143.5 21.5q-27 0 -50 -1t-46 -3q-6 -41 -6 -80z" />
<glyph unicode="&#xa8;" horiz-adv-x="811" d="M256 1081l31 181h166l-31 -181h-166zM604 1081l31 181h166l-31 -181h-166z" />
<glyph unicode="&#xa9;" horiz-adv-x="1345" d="M86 473q0 63 9 135t27.5 146.5t48.5 147.5t73 138q195 299 577 299q250 0 376 -126t126 -371q0 -66 -9 -138.5t-29.5 -147.5t-53.5 -149.5t-78 -142.5q-94 -137 -234.5 -210.5t-332.5 -73.5q-252 0 -376 125.5t-124 367.5zM236 492q0 -377 370 -377q291 0 436 227 q33 51 57.5 112.5t41 126t25 128t8.5 118.5q0 377 -371 377q-145 0 -258 -58.5t-187 -180.5q-59 -100 -90.5 -230t-31.5 -243zM412 541q0 72 19.5 164t60.5 163q53 92 131.5 128t171.5 36q41 0 87 -5t87 -13l-19 -115q-35 6 -75.5 9t-71.5 3q-74 0 -123 -23.5t-82 -94.5 q-23 -47 -36 -113t-13 -125q0 -74 27.5 -110.5t97.5 -36.5q45 0 92 13t88 34l43 -103q-51 -29 -115.5 -48t-134.5 -19q-235 0 -235 256z" />
<glyph unicode="&#xaa;" horiz-adv-x="595" d="M145 975q0 53 13.5 118.5t42.5 120.5q29 59 73.5 92t122.5 33q53 0 113.5 -14t118.5 -41l-84 -477h-92l-9 41q-33 -25 -65.5 -38t-75.5 -13q-80 0 -119 46t-39 132zM276 979q0 -43 14.5 -62.5t49.5 -19.5q23 0 50.5 7t45.5 20l53 301q-14 4 -35.5 9t-43.5 5 q-37 0 -60.5 -17.5t-40.5 -64.5q-14 -39 -23.5 -88t-9.5 -90z" />
<glyph unicode="&#xab;" horiz-adv-x="907" d="M55 455q0 63 31 114.5t78 94.5q12 12 43 39.5t69.5 61.5t80.5 71t77 67l92 -106q-31 -27 -72.5 -65t-80.5 -73.5t-71 -65.5t-40 -38q-16 -16 -31.5 -40.5t-15.5 -55.5q0 -16 5 -29.5t16 -30.5q10 -16 30.5 -45.5t45 -63.5t51 -69t51.5 -65l-119 -94q-23 25 -48.5 57.5 t-50 65t-48 63.5t-37.5 53q-27 41 -41.5 77t-14.5 77zM411 455q0 63 31 114.5t78 94.5q12 12 43 39.5t69.5 61.5t80.5 71t77 67l92 -106q-31 -27 -72.5 -65t-80.5 -73.5t-71 -65.5t-40 -38q-16 -16 -31.5 -40.5t-15.5 -55.5q0 -16 5 -29.5t16 -30.5q10 -16 30.5 -45.5 t45 -63.5t51 -69t51.5 -65l-119 -94q-23 25 -48.5 57.5t-50 65t-48 63.5t-37.5 53q-27 41 -41.5 77t-14.5 77z" />
<glyph unicode="&#xac;" horiz-adv-x="1193" d="M160 504l24 143h885l-96 -545h-160l70 402h-723z" />
<glyph unicode="&#xad;" horiz-adv-x="585" d="M72 422l30 174h424l-30 -174h-424z" />
<glyph unicode="&#xae;" horiz-adv-x="909" d="M223 926q0 86 25.5 161.5t73 131t117 88t157.5 32.5q57 0 107.5 -14t87 -45t58 -82t21.5 -125q0 -86 -25.5 -161.5t-72.5 -131t-116.5 -88.5t-157.5 -33q-57 0 -107.5 14.5t-87.5 45.5t-58.5 82t-21.5 125zM317 928q0 -96 51.5 -142.5t137.5 -46.5q66 0 117 29t84.5 75 t51 105.5t17.5 122.5q0 96 -51 142.5t-137 46.5q-66 0 -117 -29t-85 -75t-51.5 -105.5t-17.5 -122.5zM395 823l66 353q31 6 58.5 10t53.5 4q121 0 121 -94q0 -41 -21.5 -74t-64.5 -49q8 -39 19.5 -77t23.5 -73h-90q-10 33 -16 68t-13 70h-28l-25 -138h-84zM516 1028h41 q27 0 40 17.5t13 41.5q0 20 -10 26.5t-29 6.5q-10 0 -19 -1t-20 -3z" />
<glyph unicode="&#xaf;" horiz-adv-x="671" d="M225 1108l21 119h440l-20 -119h-441z" />
<glyph unicode="&#xb0;" horiz-adv-x="677" d="M178 1006q0 61 19.5 120.5t58.5 106.5t97.5 76.5t135.5 29.5q104 0 162 -55t58 -164q0 -61 -19.5 -120.5t-58.5 -106.5t-97.5 -77t-136.5 -30q-104 0 -161.5 55.5t-57.5 164.5zM313 1020q0 -53 26 -80t73 -27q41 0 71.5 18.5t50 46.5t29.5 61.5t10 66.5q0 53 -25.5 80.5 t-72.5 27.5q-41 0 -70.5 -18t-50 -46t-31 -62.5t-10.5 -67.5z" />
<glyph unicode="&#xb1;" horiz-adv-x="1081" d="M72 0l24 139h772l-24 -139h-772zM174 578l25 139h305l59 327h160l-59 -327h307l-25 -139h-305l-59 -328h-160l59 328h-307z" />
<glyph unicode="&#xb2;" horiz-adv-x="686" d="M129 600l16 90q49 37 117 91.5t128.5 114.5t102.5 122.5t42 116.5q0 43 -28 63.5t-73 20.5q-41 0 -84 -13.5t-76 -29.5l-45 100q45 23 107.5 43t124.5 20q86 0 151.5 -48t65.5 -144q0 -66 -30 -123t-78 -110.5t-107.5 -101.5t-116.5 -93h279l-21 -119h-475z" />
<glyph unicode="&#xb3;" horiz-adv-x="632" d="M117 616l20 117q29 -6 72 -13t86 -7q35 0 68.5 9t56.5 38q27 37 26 90q0 41 -20 56.5t-68 15.5h-82l21 112h76q55 0 84.5 32t29.5 81q0 72 -84 72q-41 0 -79.5 -10.5t-73.5 -22.5l-39 100q41 20 100.5 36.5t118.5 16.5q80 0 140.5 -39.5t60.5 -128.5q0 -55 -29 -107 t-88 -83q76 -41 76 -139q0 -47 -17.5 -93.5t-50.5 -80.5q-41 -43 -96 -59.5t-121 -16.5q-47 0 -95 7t-93 17z" />
<glyph unicode="&#xb4;" horiz-adv-x="620" d="M305 1092l221 284l140 -145l-291 -211z" />
<glyph unicode="&#xb5;" horiz-adv-x="993" d="M-106 -373q35 63 62.5 118.5t49 116t38.5 134.5t36 172l137 778h189l-109 -618q-4 -20 -7 -42t-3 -42q0 -100 114 -101q57 0 113.5 20.5t103.5 43.5l132 739h186l-166 -946h-141l-4 76q-57 -41 -126 -68.5t-151 -27.5q-74 0 -117 28q-29 -127 -69.5 -216t-95.5 -165h-172 z" />
<glyph unicode="&#xb6;" horiz-adv-x="1050" d="M178 899q0 82 27.5 159t81 134t130.5 92t175 35h448l-297 -1692h-174l179 1020h-125l-179 -1020h-176l181 1022q-135 8 -203 64.5t-68 185.5z" />
<glyph unicode="&#xb7;" horiz-adv-x="477" d="M127 401l35 203h195l-35 -203h-195z" />
<glyph unicode="&#xb8;" horiz-adv-x="518" d="M-47 -375l31 78q16 -6 34.5 -8t30.5 -2q55 0 81 26.5t26 61.5q0 31 -26 45t-91 14l22 68q111 0 159 -27.5t48 -91.5q0 -37 -15 -69.5t-43 -58.5t-66 -40t-81 -14q-29 0 -58.5 5t-51.5 13z" />
<glyph unicode="&#xb9;" horiz-adv-x="626" d="M223 1206l219 113h127l-127 -719h-139l100 576l-139 -58z" />
<glyph unicode="&#xba;" horiz-adv-x="593" d="M168 991q0 51 14.5 115.5t48.5 118.5q33 51 87.5 82.5t132.5 31.5q96 0 140 -50t44 -142q0 -47 -14.5 -115.5t-57.5 -130.5q-35 -47 -85 -75.5t-124 -28.5q-98 0 -142 51t-44 143zM301 995q0 -41 15.5 -63.5t52.5 -22.5t59.5 19.5t38.5 54.5t24.5 78t8.5 78 q0 45 -15.5 66.5t-52.5 21.5q-35 0 -57.5 -19.5t-38.5 -54.5t-25.5 -79t-9.5 -79z" />
<glyph unicode="&#xbb;" horiz-adv-x="909" d="M31 168q31 27 68.5 60.5t74.5 67.5t68.5 63.5t52.5 50.5q16 16 31.5 37.5t15.5 54.5t-20 65q-10 16 -31 44t-45.5 62t-51 68.5t-49.5 65.5l117 96q23 -27 48.5 -58.5t51 -65t47 -64.5t37.5 -53q29 -41 42.5 -76t13.5 -76q0 -70 -32 -117t-77 -92q-18 -18 -50 -47 t-68.5 -61.5t-75.5 -66.5t-74 -64zM387 168q31 27 68.5 60.5t74.5 67.5t68.5 63.5t52.5 50.5q16 16 31.5 37.5t15.5 54.5t-20 65q-10 16 -31 44t-45.5 62t-51 68.5t-49.5 65.5l117 96q23 -27 48.5 -58.5t51 -65t47 -64.5t37.5 -53q29 -41 42.5 -76t13.5 -76q0 -70 -32 -117 t-77 -92q-18 -18 -50 -47t-68.5 -61.5t-75.5 -66.5t-74 -64z" />
<glyph unicode="&#xbc;" horiz-adv-x="1363" d="M84 0l956 1319h156l-956 -1319h-156zM213 1206l219 113h127l-127 -719h-139l100 576l-139 -58zM629 127l16 96q84 125 172 253t170 243h152q-84 -119 -170 -242t-160 -233h156l39 139h124l-24 -139h104l-20 -117h-105l-22 -127h-139l22 127h-315z" />
<glyph unicode="&#xbd;" horiz-adv-x="1423" d="M86 0l956 1319h156l-956 -1319h-156zM219 1206l219 113h127l-127 -719h-139l100 576l-139 -58zM756 4l16 90q49 37 117 91.5t128.5 114.5t102.5 122.5t42 116.5q0 43 -28 63.5t-73 20.5q-41 0 -84 -13.5t-76 -29.5l-45 100q45 23 107.5 43t124.5 20q86 0 151.5 -48 t65.5 -144q0 -66 -30 -123t-78 -110.5t-107.5 -101.5t-116.5 -93h279l-21 -119h-475z" />
<glyph unicode="&#xbe;" horiz-adv-x="1441" d="M117 616l20 117q29 -6 72 -13t86 -7q35 0 68.5 9t56.5 38q27 37 26 90q0 41 -20 56.5t-68 15.5h-82l21 112h76q55 0 84.5 32t29.5 81q0 72 -84 72q-41 0 -79.5 -10.5t-73.5 -22.5l-39 100q41 20 100.5 36.5t118.5 16.5q80 0 140.5 -39.5t60.5 -128.5q0 -55 -29 -107 t-88 -83q76 -41 76 -139q0 -47 -17.5 -93.5t-50.5 -80.5q-41 -43 -96 -59.5t-121 -16.5q-47 0 -95 7t-93 17zM184 0l957 1319h155l-956 -1319h-156zM729 127l16 96q84 125 172.5 253t169.5 243h152q-84 -119 -170 -242t-160 -233h156l39 139h125l-25 -139h105l-21 -117h-104 l-23 -127h-139l22 127h-315z" />
<glyph unicode="&#xbf;" horiz-adv-x="843" d="M-63 -98q0 66 20 119t53 98t76 85t90 83q45 43 77 74.5t51.5 64.5t31.5 68.5t22 87.5h170q-12 -84 -32.5 -139.5t-48 -98.5t-64.5 -80t-84 -80q-68 -63 -121 -126.5t-53 -141.5q0 -72 46 -104.5t114 -32.5q63 0 137 21.5t133 47.5l59 -155q-72 -35 -164 -60.5t-182 -25.5 q-70 0 -130 18.5t-105 55t-70.5 92t-25.5 129.5zM371 743l35 203h194l-35 -203h-194z" />
<glyph unicode="&#xc0;" horiz-adv-x="1134" d="M-41 0q147 338 300 663.5t316 655.5h291q49 -330 85 -655.5t61 -663.5h-201q-4 76 -10 151.5t-13 153.5h-493q-33 -74 -65.5 -150.5t-65.5 -154.5h-205zM373 479h401q-16 166 -34.5 335t-41.5 347h-6q-166 -338 -319 -682zM532 1677l170 84l113 -329l-92 -43z" />
<glyph unicode="&#xc1;" horiz-adv-x="1134" d="M-41 0q147 338 300 663.5t316 655.5h291q49 -330 85 -655.5t61 -663.5h-201q-4 76 -10 151.5t-13 153.5h-493q-33 -74 -65.5 -150.5t-65.5 -154.5h-205zM373 479h401q-16 166 -34.5 335t-41.5 347h-6q-166 -338 -319 -682zM668 1460l221 285l139 -146l-291 -210z" />
<glyph unicode="&#xc2;" horiz-adv-x="1134" d="M-41 0q147 338 300 663.5t316 655.5h291q49 -330 85 -655.5t61 -663.5h-201q-4 76 -10 151.5t-13 153.5h-493q-33 -74 -65.5 -150.5t-65.5 -154.5h-205zM373 479h401q-16 166 -34.5 335t-41.5 347h-6q-166 -338 -319 -682zM467 1448l240 240h139l162 -240l-82 -59 l-160 188l-235 -188z" />
<glyph unicode="&#xc3;" horiz-adv-x="1134" d="M-41 0q147 338 300 663.5t316 655.5h291q49 -330 85 -655.5t61 -663.5h-201q-4 76 -10 151.5t-13 153.5h-493q-33 -74 -65.5 -150.5t-65.5 -154.5h-205zM373 479h401q-16 166 -34.5 335t-41.5 347h-6q-166 -338 -319 -682zM469 1497q23 72 66 116t113 44q35 0 65.5 -11.5 t67.5 -31.5q31 -16 53.5 -26.5t46.5 -10.5q29 0 45.5 14.5t30.5 44.5l78 -32q-23 -72 -66 -116t-112 -44q-35 0 -66 11t-68 32q-31 16 -53 26.5t-47 10.5q-29 0 -45 -14.5t-31 -45.5z" />
<glyph unicode="&#xc4;" horiz-adv-x="1134" d="M-41 0q147 338 300 663.5t316 655.5h291q49 -330 85 -655.5t61 -663.5h-201q-4 76 -10 151.5t-13 153.5h-493q-33 -74 -65.5 -150.5t-65.5 -154.5h-205zM373 479h401q-16 166 -34.5 335t-41.5 347h-6q-166 -338 -319 -682zM488 1450l30 180h166l-31 -180h-165zM836 1450 l30 180h166l-30 -180h-166z" />
<glyph unicode="&#xc5;" horiz-adv-x="1134" d="M-41 0q147 338 300 663.5t316 655.5h291q49 -330 85 -655.5t61 -663.5h-201q-4 76 -10 151.5t-13 153.5h-493q-33 -74 -65.5 -150.5t-65.5 -154.5h-205zM373 479h401q-16 166 -34.5 335t-41.5 347h-6q-166 -338 -319 -682zM583 1585q0 35 11.5 72t36 66.5t62.5 49 t89 19.5q31 0 63.5 -10t58 -30.5t42 -54.5t16.5 -79q0 -35 -11 -72t-36 -66.5t-63 -49t-89 -19.5q-31 0 -63.5 10.5t-58 31t-42 53t-16.5 79.5zM675 1593q0 -47 27 -69.5t64 -22.5q59 0 81.5 36t22.5 73q0 47 -26.5 69.5t-63.5 22.5q-59 0 -82 -36t-23 -73z" />
<glyph unicode="&#xc6;" horiz-adv-x="1515" d="M-72 0q188 340 381 664.5t398 654.5h872l-31 -174h-622l12 -379h446l-30 -172h-408l15 -420h417l-30 -174h-574l-10 305h-463l-166 -305h-207zM397 479h361l-21 576h-2q-86 -143 -170 -286.5t-168 -289.5z" />
<glyph unicode="&#xc7;" horiz-adv-x="1030" d="M100 446q0 61 8.5 136t26 154t44 158t65.5 148q90 164 220 230.5t306 66.5q76 0 156 -10t157 -26l-30 -168q-66 12 -146 21t-143 9q-123 0 -206 -46t-142 -163q-29 -55 -50.5 -121.5t-36 -134t-21.5 -133t-7 -116.5q0 -154 64.5 -226.5t199.5 -72.5q84 0 170 23.5 t154 51.5l51 -155q-82 -37 -189.5 -66t-220.5 -29q-207 0 -318.5 114.5t-111.5 354.5zM311 -375l31 78q16 -6 34.5 -8t30.5 -2q55 0 81 26.5t26 61.5q0 31 -26 45t-91 14l22 68q111 0 159 -27.5t48 -91.5q0 -37 -15 -69.5t-43 -58.5t-66 -40t-81 -14q-29 0 -58.5 5t-51.5 13 z" />
<glyph unicode="&#xc8;" d="M76 0l231 1319h737l-30 -174h-539l-67 -379h442l-31 -172h-442l-74 -420h541l-31 -174h-737zM520 1677l170 84l113 -329l-92 -43z" />
<glyph unicode="&#xc9;" d="M76 0l231 1319h737l-30 -174h-539l-67 -379h442l-31 -172h-442l-74 -420h541l-31 -174h-737zM594 1460l221 285l139 -146l-291 -210z" />
<glyph unicode="&#xca;" d="M76 0l231 1319h737l-30 -174h-539l-67 -379h442l-31 -172h-442l-74 -420h541l-31 -174h-737zM442 1448l240 240h139l162 -240l-82 -59l-160 188l-235 -188z" />
<glyph unicode="&#xcb;" d="M76 0l231 1319h737l-30 -174h-539l-67 -379h442l-31 -172h-442l-74 -420h541l-31 -174h-737zM447 1450l30 180h166l-31 -180h-165zM795 1450l30 180h166l-30 -180h-166z" />
<glyph unicode="&#xcc;" horiz-adv-x="514" d="M76 0l231 1319h197l-232 -1319h-196zM229 1677l170 84l113 -329l-92 -43z" />
<glyph unicode="&#xcd;" horiz-adv-x="514" d="M76 0l231 1319h197l-232 -1319h-196zM361 1460l221 285l139 -146l-291 -210z" />
<glyph unicode="&#xce;" horiz-adv-x="514" d="M76 0l231 1319h197l-232 -1319h-196zM156 1448l240 240h139l162 -240l-82 -59l-160 188l-235 -188z" />
<glyph unicode="&#xcf;" horiz-adv-x="514" d="M76 0l231 1319h197l-232 -1319h-196zM172 1450l30 180h166l-31 -180h-165zM520 1450l30 180h166l-30 -180h-166z" />
<glyph unicode="&#xd0;" horiz-adv-x="1198" d="M45 600l31 174h143l92 529q74 14 172.5 24t182.5 10q113 0 205 -24.5t156.5 -78.5t99 -141t34.5 -210q0 -55 -7 -125t-22.5 -143.5t-39 -149.5t-56.5 -143q-43 -90 -97 -154t-128 -103.5t-171 -59t-222 -19.5q-27 0 -66 1t-84 3t-93 5t-91 7l104 598h-143zM309 162 q45 -2 81 -2h77q152 0 243 56t150 187q25 51 43.5 113t30.5 123t19.5 120.5t7.5 108.5q0 160 -76 227.5t-246 67.5q-37 0 -81 -2t-75 -6l-67 -381h254l-31 -174h-254z" />
<glyph unicode="&#xd1;" horiz-adv-x="1306" d="M76 0l231 1319h273l329 -1055h6l185 1055h196l-231 -1319h-272l-328 1055h-8l-185 -1055h-196zM561 1497q23 72 66 116t113 44q35 0 65.5 -11.5t67.5 -31.5q31 -16 53.5 -26.5t46.5 -10.5q29 0 45.5 14.5t30.5 44.5l78 -32q-23 -72 -66 -116t-112 -44q-35 0 -66 11 t-68 32q-31 16 -53 26.5t-47 10.5q-29 0 -45 -14.5t-31 -45.5z" />
<glyph unicode="&#xd2;" horiz-adv-x="1241" d="M102 420q0 57 7.5 130t24 150.5t42 155.5t60.5 150q84 168 211.5 250.5t320.5 82.5q227 0 331.5 -112.5t104.5 -327.5q0 -57 -7 -130t-23.5 -150.5t-42 -156.5t-60.5 -149q-84 -168 -212 -250.5t-320 -82.5q-227 0 -332 112.5t-105 327.5zM303 432q0 -150 61.5 -214 t190.5 -64q131 0 210 61t132 184q23 51 42 113.5t33.5 127.5t23 129.5t8.5 119.5q0 147 -60.5 211.5t-189.5 64.5q-137 0 -215 -64.5t-129 -180.5q-23 -53 -42.5 -115t-34 -126.5t-22.5 -128t-8 -118.5zM635 1691l170 84l113 -329l-92 -43z" />
<glyph unicode="&#xd3;" horiz-adv-x="1241" d="M102 420q0 57 7.5 130t24 150.5t42 155.5t60.5 150q84 168 211.5 250.5t320.5 82.5q227 0 331.5 -112.5t104.5 -327.5q0 -57 -7 -130t-23.5 -150.5t-42 -156.5t-60.5 -149q-84 -168 -212 -250.5t-320 -82.5q-227 0 -332 112.5t-105 327.5zM303 432q0 -150 61.5 -214 t190.5 -64q131 0 210 61t132 184q23 51 42 113.5t33.5 127.5t23 129.5t8.5 119.5q0 147 -60.5 211.5t-189.5 64.5q-137 0 -215 -64.5t-129 -180.5q-23 -53 -42.5 -115t-34 -126.5t-22.5 -128t-8 -118.5zM721 1460l221 285l139 -146l-291 -210z" />
<glyph unicode="&#xd4;" horiz-adv-x="1241" d="M102 420q0 57 7.5 130t24 150.5t42 155.5t60.5 150q84 168 211.5 250.5t320.5 82.5q227 0 331.5 -112.5t104.5 -327.5q0 -57 -7 -130t-23.5 -150.5t-42 -156.5t-60.5 -149q-84 -168 -212 -250.5t-320 -82.5q-227 0 -332 112.5t-105 327.5zM303 432q0 -150 61.5 -214 t190.5 -64q131 0 210 61t132 184q23 51 42 113.5t33.5 127.5t23 129.5t8.5 119.5q0 147 -60.5 211.5t-189.5 64.5q-137 0 -215 -64.5t-129 -180.5q-23 -53 -42.5 -115t-34 -126.5t-22.5 -128t-8 -118.5zM537 1448l240 240h139l162 -240l-82 -59l-160 188l-235 -188z" />
<glyph unicode="&#xd5;" horiz-adv-x="1241" d="M102 420q0 57 7.5 130t24 150.5t42 155.5t60.5 150q84 168 211.5 250.5t320.5 82.5q227 0 331.5 -112.5t104.5 -327.5q0 -57 -7 -130t-23.5 -150.5t-42 -156.5t-60.5 -149q-84 -168 -212 -250.5t-320 -82.5q-227 0 -332 112.5t-105 327.5zM303 432q0 -150 61.5 -214 t190.5 -64q131 0 210 61t132 184q23 51 42 113.5t33.5 127.5t23 129.5t8.5 119.5q0 147 -60.5 211.5t-189.5 64.5q-137 0 -215 -64.5t-129 -180.5q-23 -53 -42.5 -115t-34 -126.5t-22.5 -128t-8 -118.5zM538 1497q23 72 66 116t113 44q35 0 65.5 -11.5t67.5 -31.5 q31 -16 53.5 -26.5t46.5 -10.5q29 0 45.5 14.5t30.5 44.5l78 -32q-23 -72 -66 -116t-112 -44q-35 0 -66 11t-68 32q-31 16 -53 26.5t-47 10.5q-29 0 -45 -14.5t-31 -45.5z" />
<glyph unicode="&#xd6;" horiz-adv-x="1241" d="M102 420q0 57 7.5 130t24 150.5t42 155.5t60.5 150q84 168 211.5 250.5t320.5 82.5q227 0 331.5 -112.5t104.5 -327.5q0 -57 -7 -130t-23.5 -150.5t-42 -156.5t-60.5 -149q-84 -168 -212 -250.5t-320 -82.5q-227 0 -332 112.5t-105 327.5zM303 432q0 -150 61.5 -214 t190.5 -64q131 0 210 61t132 184q23 51 42 113.5t33.5 127.5t23 129.5t8.5 119.5q0 147 -60.5 211.5t-189.5 64.5q-137 0 -215 -64.5t-129 -180.5q-23 -53 -42.5 -115t-34 -126.5t-22.5 -128t-8 -118.5zM551 1450l30 180h166l-31 -180h-165zM899 1450l30 180h166l-30 -180 h-166z" />
<glyph unicode="&#xd7;" horiz-adv-x="1034" d="M109 199l303 276l-207 277l127 112l205 -276l301 276l88 -116l-303 -277l206 -276l-127 -113l-204 276l-301 -276z" />
<glyph unicode="&#xd8;" horiz-adv-x="1241" d="M27 0l131 160q-29 51 -42.5 116.5t-13.5 145.5q0 57 7.5 129t22.5 148.5t41 155.5t60 151q84 168 212 250.5t321 82.5q188 0 295 -82l49 62h168l-131 -160q55 -104 55 -262q0 -55 -7 -127t-22.5 -149.5t-41 -157.5t-60.5 -150q-84 -168 -213 -250.5t-321 -82.5 q-188 0 -293 79l-49 -59h-168zM303 430q0 -49 6 -86l627 762q-59 59 -184 59q-135 0 -213 -62.5t-131 -182.5q-23 -53 -42.5 -115t-34 -127.5t-21.5 -129t-7 -118.5zM369 211q59 -57 184 -57q135 0 214 64.5t130 180.5q23 51 42 113.5t32.5 128.5t21.5 129.5t8 118.5 q0 45 -6 86z" />
<glyph unicode="&#xd9;" horiz-adv-x="1208" d="M123 334q0 35 4 71.5t12 77.5l146 836h196l-141 -805q-8 -43 -12 -80t-4 -67q0 -213 227 -213q137 0 217 82q45 47 71.5 117.5t43.5 160.5l141 805h197l-148 -836q-20 -115 -58 -211t-110 -166q-68 -66 -161 -96t-203 -30q-193 0 -305.5 87t-112.5 267zM592 1677l170 84 l113 -329l-92 -43z" />
<glyph unicode="&#xda;" horiz-adv-x="1208" d="M123 334q0 35 4 71.5t12 77.5l146 836h196l-141 -805q-8 -43 -12 -80t-4 -67q0 -213 227 -213q137 0 217 82q45 47 71.5 117.5t43.5 160.5l141 805h197l-148 -836q-20 -115 -58 -211t-110 -166q-68 -66 -161 -96t-203 -30q-193 0 -305.5 87t-112.5 267zM678 1460l221 285 l139 -146l-291 -210z" />
<glyph unicode="&#xdb;" horiz-adv-x="1208" d="M123 334q0 35 4 71.5t12 77.5l146 836h196l-141 -805q-8 -43 -12 -80t-4 -67q0 -213 227 -213q137 0 217 82q45 47 71.5 117.5t43.5 160.5l141 805h197l-148 -836q-20 -115 -58 -211t-110 -166q-68 -66 -161 -96t-203 -30q-193 0 -305.5 87t-112.5 267zM504 1448l240 240 h139l162 -240l-82 -59l-160 188l-235 -188z" />
<glyph unicode="&#xdc;" horiz-adv-x="1208" d="M123 334q0 35 4 71.5t12 77.5l146 836h196l-141 -805q-8 -43 -12 -80t-4 -67q0 -213 227 -213q137 0 217 82q45 47 71.5 117.5t43.5 160.5l141 805h197l-148 -836q-20 -115 -58 -211t-110 -166q-68 -66 -161 -96t-203 -30q-193 0 -305.5 87t-112.5 267zM516 1450l30 180 h166l-31 -180h-165zM864 1450l30 180h166l-30 -180h-166z" />
<glyph unicode="&#xdd;" horiz-adv-x="1128" d="M193 1319h202q37 -174 87 -351t104 -317h4q53 74 108.5 156t110.5 168t106.5 173t98.5 171h219q-129 -229 -270.5 -434t-298.5 -412l-84 -473h-197l84 473q-86 207 -155.5 412t-118.5 434zM633 1460l221 285l139 -146l-291 -210z" />
<glyph unicode="&#xde;" horiz-adv-x="1114" d="M76 0l231 1319h197l-43 -248q43 4 88 7t78 3q100 0 181 -17t136 -57t85 -105.5t30 -160.5q0 -125 -47 -233.5t-133 -177.5q-63 -51 -150.5 -78t-212.5 -27q-59 0 -104 5.5t-97 13.5l-43 -244h-196zM342 397q29 -4 69 -6t81 -2q90 0 153.5 16.5t110.5 57.5q53 49 77.5 124 t24.5 144q0 106 -60.5 141t-183.5 35q-51 0 -95 -3t-89 -7z" />
<glyph unicode="&#xdf;" horiz-adv-x="1079" d="M57 0l166 950q35 205 146.5 297t300.5 92q172 0 261 -66.5t89 -174.5q0 -41 -12.5 -76t-35 -64.5t-52 -56.5t-64.5 -53q-41 -33 -72.5 -55.5t-53 -39t-33 -31.5t-11.5 -32q0 -33 38 -55.5t97 -61.5q86 -57 124 -117.5t38 -146.5q0 -70 -24.5 -130t-74.5 -104t-130 -69.5 t-191 -25.5q-63 0 -122.5 8t-112.5 22l28 162q41 -10 99.5 -19.5t111.5 -9.5q106 0 167 40t61 118q0 33 -10.5 55.5t-29 41t-45 36t-59.5 39.5q-86 55 -119.5 95t-33.5 100q0 72 44 119t126 108q72 53 117.5 93t45.5 91q0 45 -40.5 71t-126.5 26q-119 0 -176.5 -55.5 t-79.5 -180.5l-164 -940h-187z" />
<glyph unicode="&#xe0;" horiz-adv-x="956" d="M70 285q0 39 5 92t16 110.5t27.5 116t39.5 109.5q53 123 140 188.5t234 65.5q45 0 95.5 -6.5t98.5 -15.5t92 -22.5t79 -25.5l-158 -897h-141l-4 76q-49 -41 -114.5 -68.5t-143.5 -27.5q-133 0 -199.5 82t-66.5 223zM258 305q0 -78 28.5 -120t100.5 -42q57 0 110.5 22.5 t92.5 49.5l100 578q-35 6 -81 11t-79 5q-78 0 -127 -37t-81 -125q-12 -35 -24.5 -80t-21 -91t-13.5 -91t-5 -80zM394 1309l170 84l112 -330l-92 -43z" />
<glyph unicode="&#xe1;" horiz-adv-x="956" d="M70 285q0 39 5 92t16 110.5t27.5 116t39.5 109.5q53 123 140 188.5t234 65.5q45 0 95.5 -6.5t98.5 -15.5t92 -22.5t79 -25.5l-158 -897h-141l-4 76q-49 -41 -114.5 -68.5t-143.5 -27.5q-133 0 -199.5 82t-66.5 223zM258 305q0 -78 28.5 -120t100.5 -42q57 0 110.5 22.5 t92.5 49.5l100 578q-35 6 -81 11t-79 5q-78 0 -127 -37t-81 -125q-12 -35 -24.5 -80t-21 -91t-13.5 -91t-5 -80zM489 1092l221 284l140 -145l-291 -211z" />
<glyph unicode="&#xe2;" horiz-adv-x="956" d="M70 285q0 39 5 92t16 110.5t27.5 116t39.5 109.5q53 123 140 188.5t234 65.5q45 0 95.5 -6.5t98.5 -15.5t92 -22.5t79 -25.5l-158 -897h-141l-4 76q-49 -41 -114.5 -68.5t-143.5 -27.5q-133 0 -199.5 82t-66.5 223zM258 305q0 -78 28.5 -120t100.5 -42q57 0 110.5 22.5 t92.5 49.5l100 578q-35 6 -81 11t-79 5q-78 0 -127 -37t-81 -125q-12 -35 -24.5 -80t-21 -91t-13.5 -91t-5 -80zM316 1079l239 240h139l162 -240l-82 -59l-159 188l-236 -188z" />
<glyph unicode="&#xe3;" horiz-adv-x="956" d="M70 285q0 39 5 92t16 110.5t27.5 116t39.5 109.5q53 123 140 188.5t234 65.5q45 0 95.5 -6.5t98.5 -15.5t92 -22.5t79 -25.5l-158 -897h-141l-4 76q-49 -41 -114.5 -68.5t-143.5 -27.5q-133 0 -199.5 82t-66.5 223zM258 305q0 -78 28.5 -120t100.5 -42q57 0 110.5 22.5 t92.5 49.5l100 578q-35 6 -81 11t-79 5q-78 0 -127 -37t-81 -125q-12 -35 -24.5 -80t-21 -91t-13.5 -91t-5 -80zM320 1130q23 72 65.5 116t112.5 44q35 0 65.5 -11t67.5 -32q31 -16 53.5 -26.5t47.5 -10.5q29 0 45 14.5t30 45.5l78 -33q-23 -72 -65.5 -116t-112.5 -44 q-35 0 -65.5 11.5t-67.5 31.5q-31 16 -53.5 26.5t-46.5 10.5q-29 0 -45.5 -14.5t-30.5 -44.5z" />
<glyph unicode="&#xe4;" horiz-adv-x="956" d="M70 285q0 39 5 92t16 110.5t27.5 116t39.5 109.5q53 123 140 188.5t234 65.5q45 0 95.5 -6.5t98.5 -15.5t92 -22.5t79 -25.5l-158 -897h-141l-4 76q-49 -41 -114.5 -68.5t-143.5 -27.5q-133 0 -199.5 82t-66.5 223zM258 305q0 -78 28.5 -120t100.5 -42q57 0 110.5 22.5 t92.5 49.5l100 578q-35 6 -81 11t-79 5q-78 0 -127 -37t-81 -125q-12 -35 -24.5 -80t-21 -91t-13.5 -91t-5 -80zM326 1081l31 181h166l-31 -181h-166zM674 1081l31 181h166l-31 -181h-166z" />
<glyph unicode="&#xe5;" horiz-adv-x="956" d="M70 285q0 39 5 92t16 110.5t27.5 116t39.5 109.5q53 123 140 188.5t234 65.5q45 0 95.5 -6.5t98.5 -15.5t92 -22.5t79 -25.5l-158 -897h-141l-4 76q-49 -41 -114.5 -68.5t-143.5 -27.5q-133 0 -199.5 82t-66.5 223zM258 305q0 -78 28.5 -120t100.5 -42q57 0 110.5 22.5 t92.5 49.5l100 578q-35 6 -81 11t-79 5q-78 0 -127 -37t-81 -125q-12 -35 -24.5 -80t-21 -91t-13.5 -91t-5 -80zM428 1217q0 35 11 71.5t35.5 66t62.5 49t89 19.5q31 0 64 -10t58.5 -30.5t42 -54.5t16.5 -79q0 -35 -11.5 -71.5t-36 -66.5t-62.5 -49.5t-89 -19.5 q-31 0 -63.5 10.5t-58 31t-42 53t-16.5 80.5zM520 1225q0 -47 26.5 -69.5t63.5 -22.5q59 0 81.5 35.5t22.5 72.5q0 47 -26.5 69.5t-63.5 22.5q-59 0 -81.5 -35.5t-22.5 -72.5z" />
<glyph unicode="&#xe6;" horiz-adv-x="1392" d="M59 291q0 39 5.5 90t15.5 107.5t26.5 115t38.5 109.5q53 123 140.5 188.5t228.5 65.5q74 0 155 -16.5t142 -43.5l-6 -55q41 47 100.5 81t143.5 34q59 0 111 -19.5t90 -59.5t59.5 -98.5t21.5 -136.5q0 -49 -9 -113.5t-28 -133.5h-526q-4 -20 -6 -42t-2 -47q0 -78 37 -126 t133 -48q59 0 123.5 17.5t124.5 44.5l47 -148q-66 -33 -155 -55t-173 -22q-88 0 -159.5 28.5t-106.5 81.5q-84 -61 -152.5 -85.5t-138.5 -24.5q-141 0 -211 82t-70 229zM248 305q0 -78 29.5 -120t101.5 -42q57 0 107.5 23.5t91.5 52.5q-2 16 -3.5 33.5t-1.5 38.5 q0 70 17 158l61 344q-29 8 -64.5 12t-66.5 4q-92 0 -136 -45t-73 -119q-14 -39 -26.5 -85t-20.5 -91t-12 -88t-4 -76zM793 553h342q4 23 6 45.5t2 38.5q0 74 -30 120t-99 46q-35 0 -69 -13.5t-63.5 -42t-53 -76.5t-35.5 -118z" />
<glyph unicode="&#xe7;" horiz-adv-x="819" d="M70 311q0 39 5 90.5t16 106.5t28.5 112.5t42.5 106.5q61 125 160.5 182.5t252.5 57.5q61 0 124 -8.5t122 -20.5l-30 -158q-109 23 -207 23q-90 0 -156 -32t-106 -134q-14 -35 -25.5 -76t-20 -83t-13.5 -82t-5 -70q0 -182 170 -183q59 0 123.5 19.5t122.5 44.5l49 -150 q-66 -33 -155 -55t-175 -22q-152 0 -237.5 81.5t-85.5 249.5zM207 -375l31 78q16 -6 34.5 -8t30.5 -2q55 0 81 26.5t26 61.5q0 31 -26 45t-91 14l22 68q111 0 159 -27.5t48 -91.5q0 -37 -15 -69.5t-43 -58.5t-66 -40t-81 -14q-29 0 -58.5 5t-51.5 13z" />
<glyph unicode="&#xe8;" horiz-adv-x="888" d="M66 324q0 47 7 104t22.5 117.5t41 121t62.5 113.5q59 86 144 136.5t198 50.5q150 0 223.5 -88t73.5 -224q0 -55 -10.5 -119.5t-26.5 -129.5h-541q-4 -18 -5 -40t-1 -38q0 -88 42 -136.5t138 -48.5q61 0 126 18.5t122 45.5l49 -150q-66 -33 -155 -55t-179 -22 q-158 0 -244.5 82t-86.5 262zM285 553h360q10 51 10 98q0 66 -29.5 109t-103.5 43q-96 0 -152.5 -69.5t-84.5 -180.5zM347 1309l170 84l112 -330l-92 -43z" />
<glyph unicode="&#xe9;" horiz-adv-x="888" d="M66 324q0 47 7 104t22.5 117.5t41 121t62.5 113.5q59 86 144 136.5t198 50.5q150 0 223.5 -88t73.5 -224q0 -55 -10.5 -119.5t-26.5 -129.5h-541q-4 -18 -5 -40t-1 -38q0 -88 42 -136.5t138 -48.5q61 0 126 18.5t122 45.5l49 -150q-66 -33 -155 -55t-179 -22 q-158 0 -244.5 82t-86.5 262zM285 553h360q10 51 10 98q0 66 -29.5 109t-103.5 43q-96 0 -152.5 -69.5t-84.5 -180.5zM471 1092l221 284l140 -145l-291 -211z" />
<glyph unicode="&#xea;" horiz-adv-x="890" d="M66 324q0 47 7 104t22.5 117.5t41 121t62.5 113.5q59 86 144 136.5t198 50.5q150 0 223.5 -88t73.5 -224q0 -55 -10.5 -119.5t-26.5 -129.5h-541q-4 -18 -5 -40t-1 -38q0 -88 42 -136.5t138 -48.5q61 0 126 18.5t122 45.5l49 -150q-66 -33 -155 -55t-179 -22 q-158 0 -244.5 82t-86.5 262zM285 553h360q10 51 10 98q0 66 -29.5 109t-103.5 43q-96 0 -152.5 -69.5t-84.5 -180.5zM293 1079l239 240h139l162 -240l-82 -59l-159 188l-236 -188z" />
<glyph unicode="&#xeb;" horiz-adv-x="903" d="M66 324q0 47 7 104t22.5 117.5t41 121t62.5 113.5q59 86 144 136.5t198 50.5q150 0 223.5 -88t73.5 -224q0 -55 -10.5 -119.5t-26.5 -129.5h-541q-4 -18 -5 -40t-1 -38q0 -88 42 -136.5t138 -48.5q61 0 126 18.5t122 45.5l49 -150q-66 -33 -155 -55t-179 -22 q-158 0 -244.5 82t-86.5 262zM285 553h360q10 51 10 98q0 66 -29.5 109t-103.5 43q-96 0 -152.5 -69.5t-84.5 -180.5zM295 1081l31 181h166l-31 -181h-166zM643 1081l31 181h166l-31 -181h-166z" />
<glyph unicode="&#xec;" horiz-adv-x="466" d="M57 0l166 946h189l-166 -946h-189zM152 1309l170 84l112 -330l-92 -43z" />
<glyph unicode="&#xed;" horiz-adv-x="466" d="M57 0l166 946h189l-166 -946h-189zM254 1092l221 284l140 -145l-291 -211z" />
<glyph unicode="&#xee;" horiz-adv-x="466" d="M57 0l166 946h189l-166 -946h-189zM76 1079l239 240h139l162 -240l-82 -59l-159 188l-236 -188z" />
<glyph unicode="&#xef;" horiz-adv-x="466" d="M57 0l166 946h189l-166 -946h-189zM86 1081l31 181h166l-31 -181h-166zM434 1081l31 181h166l-31 -181h-166z" />
<glyph unicode="&#xf0;" horiz-adv-x="958" d="M66 287q0 39 6 92t17 109.5t28.5 115t42.5 109.5q55 123 142 188.5t226 65.5q33 0 68 -4.5t70 -10.5q-25 92 -78 172l-144 -110l-84 108l140 109q-49 45 -111 86l96 108q39 -23 74 -45t68 -51l114 92l84 -110l-104 -80q166 -213 166 -537q0 -86 -13.5 -187t-52.5 -206 q-25 -66 -59.5 -124t-85.5 -102t-122 -69.5t-165 -25.5q-170 0 -246.5 83t-76.5 224zM254 309q0 -92 42 -129t112 -37q80 0 143 53.5t104 192.5q25 86 34 172t9 152q0 20 -1 39.5t-3 40.5q-37 8 -76.5 12t-72.5 4q-82 0 -134.5 -38t-86.5 -124q-16 -37 -28.5 -83t-22 -92 t-14.5 -89t-5 -74z" />
<glyph unicode="&#xf1;" horiz-adv-x="985" d="M57 0l166 946h142l4 -76q55 41 125.5 69t154.5 28q123 0 185.5 -66.5t62.5 -177.5q0 -39 -8 -86l-111 -637h-188l110 625q4 18 6.5 38.5t2.5 36.5q0 47 -28 75t-87 28q-57 0 -114.5 -20.5t-104.5 -43.5l-129 -739h-189zM336 1130q23 72 65.5 116t112.5 44q35 0 65.5 -11 t67.5 -32q31 -16 53.5 -26.5t47.5 -10.5q29 0 45 14.5t30 45.5l78 -33q-23 -72 -65.5 -116t-112.5 -44q-35 0 -65.5 11.5t-67.5 31.5q-31 16 -53.5 26.5t-46.5 10.5q-29 0 -45.5 -14.5t-30.5 -44.5z" />
<glyph unicode="&#xf2;" horiz-adv-x="954" d="M66 324q0 98 26.5 211.5t77.5 205.5q61 111 155.5 168.5t227.5 57.5q162 0 247 -86t85 -260q0 -94 -25.5 -208t-77.5 -206q-127 -227 -387 -227q-160 0 -244.5 86t-84.5 258zM254 326q0 -82 34 -132.5t122 -50.5q141 0 215 152q18 37 31.5 80t22.5 87t13 85t4 74 q0 82 -32.5 132t-122.5 50q-143 0 -215 -150q-18 -37 -31.5 -80t-23 -87t-13.5 -85.5t-4 -74.5zM390 1309l170 84l112 -330l-92 -43z" />
<glyph unicode="&#xf3;" horiz-adv-x="954" d="M66 324q0 98 26.5 211.5t77.5 205.5q61 111 155.5 168.5t227.5 57.5q162 0 247 -86t85 -260q0 -94 -25.5 -208t-77.5 -206q-127 -227 -387 -227q-160 0 -244.5 86t-84.5 258zM254 326q0 -82 34 -132.5t122 -50.5q141 0 215 152q18 37 31.5 80t22.5 87t13 85t4 74 q0 82 -32.5 132t-122.5 50q-143 0 -215 -150q-18 -37 -31.5 -80t-23 -87t-13.5 -85.5t-4 -74.5zM516 1092l221 284l140 -145l-291 -211z" />
<glyph unicode="&#xf4;" horiz-adv-x="954" d="M66 324q0 98 26.5 211.5t77.5 205.5q61 111 155.5 168.5t227.5 57.5q162 0 247 -86t85 -260q0 -94 -25.5 -208t-77.5 -206q-127 -227 -387 -227q-160 0 -244.5 86t-84.5 258zM254 326q0 -82 34 -132.5t122 -50.5q141 0 215 152q18 37 31.5 80t22.5 87t13 85t4 74 q0 82 -32.5 132t-122.5 50q-143 0 -215 -150q-18 -37 -31.5 -80t-23 -87t-13.5 -85.5t-4 -74.5zM322 1079l239 240h139l162 -240l-82 -59l-159 188l-236 -188z" />
<glyph unicode="&#xf5;" horiz-adv-x="954" d="M66 324q0 98 26.5 211.5t77.5 205.5q61 111 155.5 168.5t227.5 57.5q162 0 247 -86t85 -260q0 -94 -25.5 -208t-77.5 -206q-127 -227 -387 -227q-160 0 -244.5 86t-84.5 258zM254 326q0 -82 34 -132.5t122 -50.5q141 0 215 152q18 37 31.5 80t22.5 87t13 85t4 74 q0 82 -32.5 132t-122.5 50q-143 0 -215 -150q-18 -37 -31.5 -80t-23 -87t-13.5 -85.5t-4 -74.5zM313 1130q23 72 65.5 116t112.5 44q35 0 65.5 -11t67.5 -32q31 -16 53.5 -26.5t47.5 -10.5q29 0 45 14.5t30 45.5l78 -33q-23 -72 -65.5 -116t-112.5 -44q-35 0 -65.5 11.5 t-67.5 31.5q-31 16 -53.5 26.5t-46.5 10.5q-29 0 -45.5 -14.5t-30.5 -44.5z" />
<glyph unicode="&#xf6;" horiz-adv-x="954" d="M66 324q0 98 26.5 211.5t77.5 205.5q61 111 155.5 168.5t227.5 57.5q162 0 247 -86t85 -260q0 -94 -25.5 -208t-77.5 -206q-127 -227 -387 -227q-160 0 -244.5 86t-84.5 258zM254 326q0 -82 34 -132.5t122 -50.5q141 0 215 152q18 37 31.5 80t22.5 87t13 85t4 74 q0 82 -32.5 132t-122.5 50q-143 0 -215 -150q-18 -37 -31.5 -80t-23 -87t-13.5 -85.5t-4 -74.5zM326 1081l31 181h166l-31 -181h-166zM674 1081l31 181h166l-31 -181h-166z" />
<glyph unicode="&#xf7;" horiz-adv-x="1193" d="M141 403l25 140h887l-25 -140h-887zM418 0l35 203h190l-35 -203h-190zM551 743l35 203h190l-35 -203h-190z" />
<glyph unicode="&#xf8;" horiz-adv-x="956" d="M6 0l103 121q-43 80 -43 203q0 98 26.5 211.5t77.5 205.5q61 111 155.5 168.5t227.5 57.5t219 -64l35 43h141l-106 -125q43 -80 43 -200q0 -94 -25.5 -208t-77.5 -206q-127 -227 -387 -227q-131 0 -215 59l-33 -39h-141zM254 293l399 471q-39 39 -112 39 q-143 0 -215 -150q-18 -37 -31.5 -80t-23 -87t-13.5 -86t-4 -74v-33zM299 180q37 -37 111 -37q141 0 215 152q18 37 31.5 80t22.5 87t13 85t4 74v13t-2 13z" />
<glyph unicode="&#xf9;" d="M88 221q0 16 2 39t6 49l111 637h188l-108 -618q-4 -27 -7.5 -45.5t-3.5 -38.5q0 -100 117 -101q57 0 113.5 20.5t103.5 43.5l129 739h187l-166 -946h-142l-2 76q-57 -41 -125.5 -68.5t-152.5 -27.5q-125 0 -187.5 65t-62.5 176zM398 1309l170 84l112 -330l-92 -43z" />
<glyph unicode="&#xfa;" d="M88 221q0 16 2 39t6 49l111 637h188l-108 -618q-4 -27 -7.5 -45.5t-3.5 -38.5q0 -100 117 -101q57 0 113.5 20.5t103.5 43.5l129 739h187l-166 -946h-142l-2 76q-57 -41 -125.5 -68.5t-152.5 -27.5q-125 0 -187.5 65t-62.5 176zM520 1092l221 284l140 -145l-291 -211z " />
<glyph unicode="&#xfb;" d="M88 221q0 16 2 39t6 49l111 637h188l-108 -618q-4 -27 -7.5 -45.5t-3.5 -38.5q0 -100 117 -101q57 0 113.5 20.5t103.5 43.5l129 739h187l-166 -946h-142l-2 76q-57 -41 -125.5 -68.5t-152.5 -27.5q-125 0 -187.5 65t-62.5 176zM322 1079l239 240h139l162 -240l-82 -59 l-159 188l-236 -188z" />
<glyph unicode="&#xfc;" d="M88 221q0 16 2 39t6 49l111 637h188l-108 -618q-4 -27 -7.5 -45.5t-3.5 -38.5q0 -100 117 -101q57 0 113.5 20.5t103.5 43.5l129 739h187l-166 -946h-142l-2 76q-57 -41 -125.5 -68.5t-152.5 -27.5q-125 0 -187.5 65t-62.5 176zM326 1081l31 181h166l-31 -181h-166z M674 1081l31 181h166l-31 -181h-166z" />
<glyph unicode="&#xfd;" horiz-adv-x="886" d="M123 -373q59 111 108.5 205t83.5 168h-94q-31 199 -54.5 443.5t-37.5 502.5h193q6 -205 19 -406.5t36 -387.5h8q39 86 83 184t87 200.5t85 207t79 202.5h188q-66 -164 -138.5 -337t-150 -343t-157.5 -332.5t-156 -306.5h-182zM489 1092l221 284l140 -145l-291 -211z" />
<glyph unicode="&#xfe;" horiz-adv-x="968" d="M-10 -373l297 1692h188l-74 -426q45 33 98.5 53.5t121.5 20.5q135 0 202.5 -83t67.5 -227q0 -41 -6 -93t-16.5 -109.5t-28 -113.5t-37.5 -108q-51 -119 -135 -186t-230 -67q-43 0 -94 6t-100 18l-66 -377h-188zM270 156q33 -10 73 -16.5t75 -6.5q80 0 135 41t92 143 q25 68 41 156t16 160q0 84 -28.5 127t-102.5 43q-53 0 -105 -20.5t-93 -51.5z" />
<glyph unicode="&#xff;" horiz-adv-x="886" d="M123 -373q59 111 108.5 205t83.5 168h-94q-31 199 -54.5 443.5t-37.5 502.5h193q6 -205 19 -406.5t36 -387.5h8q39 86 83 184t87 200.5t85 207t79 202.5h188q-66 -164 -138.5 -337t-150 -343t-157.5 -332.5t-156 -306.5h-182zM291 1081l31 181h166l-31 -181h-166z M639 1081l31 181h166l-31 -181h-166z" />
<glyph unicode="&#x152;" horiz-adv-x="1562" d="M102 449q0 55 7.5 127.5t25 150.5t46 158t71.5 151q86 141 220 212t345 71h809l-31 -174h-495l-68 -379h400l-31 -172h-397l-76 -420h497l-30 -174h-811q-246 0 -364 111t-118 338zM303 469q0 -164 69.5 -229.5t225.5 -65.5h133l172 971h-121q-133 0 -220 -46t-146 -153 q-29 -53 -50.5 -114.5t-35 -125t-20.5 -125t-7 -112.5z" />
<glyph unicode="&#x153;" horiz-adv-x="1441" d="M61 319q0 88 22.5 199t76.5 211q59 115 151 176.5t234 61.5q201 0 266 -133q115 133 295 133q133 0 211 -78t78 -234q0 -59 -11.5 -121.5t-31.5 -127.5h-525q-2 -18 -4 -38t-2 -42q0 -86 41 -134.5t131 -48.5q57 0 123 18.5t123 45.5l49 -150q-66 -33 -156 -55t-178 -22 q-98 0 -167.5 34.5t-98.5 108.5q-119 -143 -313 -143q-152 0 -233 82.5t-81 256.5zM250 342q0 -84 32.5 -141.5t116.5 -57.5q78 0 128.5 51.5t80.5 122.5q29 66 44.5 142t15.5 143q0 84 -32 142.5t-116 58.5q-78 0 -129 -50.5t-82 -123.5q-23 -55 -41 -135t-18 -152z M854 553h342q10 47 10 92q0 68 -28.5 113t-100.5 45q-92 0 -147.5 -73t-75.5 -177z" />
<glyph unicode="&#x178;" horiz-adv-x="1128" d="M193 1319h202q37 -174 87 -351t104 -317h4q53 74 108.5 156t110.5 168t106.5 173t98.5 171h219q-129 -229 -270.5 -434t-298.5 -412l-84 -473h-197l84 473q-86 207 -155.5 412t-118.5 434zM469 1450l30 180h166l-31 -180h-165zM817 1450l30 180h166l-30 -180h-166z" />
<glyph unicode="&#x2c6;" horiz-adv-x="882" d="M279 1079l239 240h139l162 -240l-82 -59l-159 188l-236 -188z" />
<glyph unicode="&#x2dc;" horiz-adv-x="856" d="M252 1130q23 72 65.5 116t112.5 44q35 0 65.5 -11t67.5 -32q31 -16 53.5 -26.5t47.5 -10.5q29 0 45 14.5t30 45.5l78 -33q-23 -72 -65.5 -116t-112.5 -44q-35 0 -65.5 11.5t-67.5 31.5q-31 16 -53.5 26.5t-46.5 10.5q-29 0 -45.5 -14.5t-30.5 -44.5z" />
<glyph unicode="&#x2000;" horiz-adv-x="896" />
<glyph unicode="&#x2001;" horiz-adv-x="1792" />
<glyph unicode="&#x2002;" horiz-adv-x="896" />
<glyph unicode="&#x2003;" horiz-adv-x="1792" />
<glyph unicode="&#x2004;" horiz-adv-x="597" />
<glyph unicode="&#x2005;" horiz-adv-x="448" />
<glyph unicode="&#x2006;" horiz-adv-x="298" />
<glyph unicode="&#x2007;" horiz-adv-x="298" />
<glyph unicode="&#x2008;" horiz-adv-x="224" />
<glyph unicode="&#x2009;" horiz-adv-x="358" />
<glyph unicode="&#x200a;" horiz-adv-x="99" />
<glyph unicode="&#x2010;" horiz-adv-x="587" d="M72 422l30 174h424l-30 -174h-424z" />
<glyph unicode="&#x2011;" horiz-adv-x="587" d="M72 422l30 174h424l-30 -174h-424z" />
<glyph unicode="&#x2012;" horiz-adv-x="587" d="M72 422l30 174h424l-30 -174h-424z" />
<glyph unicode="&#x2013;" horiz-adv-x="1265" d="M147 436l25 144h956l-24 -144h-957z" />
<glyph unicode="&#x2014;" horiz-adv-x="1423" d="M68 436l24 144h1276l-25 -144h-1275z" />
<glyph unicode="&#x2018;" horiz-adv-x="450" d="M219 920q29 236 168 405l74 -10q-33 -90 -53.5 -186.5t-26.5 -198.5z" />
<glyph unicode="&#x2019;" horiz-adv-x="452" d="M219 928q35 90 54.5 187t25.5 198l164 12q-29 -240 -170 -405z" />
<glyph unicode="&#x201a;" horiz-adv-x="452" d="M10 -200q35 90 54.5 187t25.5 198l164 12q-29 -240 -170 -405z" />
<glyph unicode="&#x201c;" horiz-adv-x="700" d="M219 920q29 236 168 405l74 -10q-33 -90 -53.5 -186.5t-26.5 -198.5zM469 920q29 236 168 405l74 -10q-33 -90 -53.5 -186.5t-26.5 -198.5z" />
<glyph unicode="&#x201d;" horiz-adv-x="702" d="M219 928q35 90 54.5 187t25.5 198l164 12q-29 -240 -170 -405zM469 928q35 90 54.5 187t25.5 198l164 12q-29 -240 -170 -405z" />
<glyph unicode="&#x201e;" horiz-adv-x="702" d="M10 -200q35 90 54.5 187t25.5 198l164 12q-29 -240 -170 -405zM258 -200q35 90 54.5 187t25.5 198l164 12q-29 -240 -170 -405z" />
<glyph unicode="&#x2022;" horiz-adv-x="731" d="M176 614q0 49 16.5 98.5t48 88.5t81 62.5t116.5 23.5q176 0 176 -168q0 -51 -17 -100.5t-51 -87t-84 -60t-116 -22.5q-170 0 -170 165z" />
<glyph unicode="&#x2026;" horiz-adv-x="1243" d="M84 0l35 203h195l-35 -203h-195zM440 0l35 203h195l-35 -203h-195zM796 0l35 203h195l-35 -203h-195z" />
<glyph unicode="&#x202f;" horiz-adv-x="358" />
<glyph unicode="&#x2039;" horiz-adv-x="550" d="M55 459q0 63 31 114.5t78 94.5q12 12 43 39.5t69.5 61.5t80.5 71t77 67l92 -106q-31 -27 -72.5 -65t-80.5 -73.5t-71 -65.5t-40 -38q-16 -16 -31.5 -40.5t-15.5 -55.5q0 -16 5 -29.5t16 -30.5q10 -16 30.5 -45.5t45 -63.5t51 -69t51.5 -65l-119 -94q-23 25 -48.5 57.5 t-50 65t-48 63.5t-37.5 53q-27 41 -41.5 77t-14.5 77z" />
<glyph unicode="&#x203a;" horiz-adv-x="550" d="M31 172q31 27 68.5 60.5t74.5 67.5t68.5 63.5t52.5 50.5q16 16 31.5 37.5t15.5 54.5t-20 65q-10 16 -31 44t-45.5 62t-51 68.5t-49.5 65.5l117 96q23 -27 48.5 -58.5t51 -65t47 -64.5t37.5 -53q29 -41 42.5 -76t13.5 -76q0 -70 -32 -117t-77 -92q-18 -18 -50 -47 t-68.5 -61.5t-75.5 -66.5t-74 -64z" />
<glyph unicode="&#x205f;" horiz-adv-x="448" />
<glyph unicode="&#x20ac;" horiz-adv-x="1112" d="M66 449l26 149h144q4 35 10 71t12 64h-143l26 152h158q25 74 60.5 146.5t93.5 137.5q84 96 188 133t227 37q72 0 144.5 -10t144.5 -26l-31 -168q-63 12 -133.5 21t-130.5 9q-88 0 -152.5 -25.5t-113.5 -88.5q-29 -39 -49.5 -80t-38.5 -86h360l-26 -152h-379 q-10 -35 -16.5 -68.5t-10.5 -66.5h383l-26 -149h-367q0 -154 58.5 -224.5t185.5 -70.5q78 0 158.5 22.5t144.5 50.5l49 -155q-78 -37 -180.5 -66t-208.5 -29q-195 0 -301.5 115t-106.5 357h-159z" />
<glyph unicode="&#x2122;" horiz-adv-x="1413" d="M176 1200l21 119h551l-21 -119h-205l-108 -614h-140l109 614h-207zM690 586l144 733h147l109 -404h4l249 404h158l-115 -733h-141l70 461h-4l-185 -308h-118l-84 308h-4l-89 -461h-141z" />
<glyph unicode="&#x25fc;" horiz-adv-x="942" d="M0 0v942h942v-942h-942z" />
</font>
</defs>
</svg>
