<?xml version="1.0" standalone="no"?>
<!DOCTYPE svg PUBLIC "-//W3C//DTD SVG 1.1//EN" "http://www.w3.org/Graphics/SVG/1.1/DTD/svg11.dtd" >
<svg xmlns="http://www.w3.org/2000/svg" xmlns:xlink="http://www.w3.org/1999/xlink" version="1.1">
<metadata></metadata>
<defs>
<font id="liberty_global_gestaLtIt" horiz-adv-x="1208" >
<font-face units-per-em="2048" ascent="1497" descent="-551" />
<missing-glyph horiz-adv-x="407" />
<glyph unicode="&#xfb01;" horiz-adv-x="993" d="M115 0l151 862h-125l13 70l127 8l24 137q12 70 29.5 119t47.5 81t75 47t112 15q31 0 68 -3t70 -7l-11 -88q-25 4 -55.5 6t-60.5 2q-41 0 -70 -7t-49.5 -25.5t-33.5 -52.5t-21 -87l-23 -131h528l-166 -946h-102l152 862h-426l-152 -862h-102zM846 1159l28 160h103 l-29 -160h-102z" />
<glyph unicode="&#xfb02;" horiz-adv-x="993" d="M115 0l151 862h-125l13 70l127 8l24 137q12 70 29.5 119t47.5 81t75 47t112 15q31 0 68 -3t70 -7l-11 -88q-25 4 -55.5 6t-60.5 2q-41 0 -70 -7t-49.5 -25.5t-33.5 -52.5t-21 -87l-23 -131h199l-15 -84h-198l-152 -862h-102zM643 0l231 1319h103l-232 -1319h-102z" />
<glyph horiz-adv-x="0" />
<glyph horiz-adv-x="0" />
<glyph unicode="&#xd;" horiz-adv-x="460" />
<glyph unicode=" "  horiz-adv-x="407" />
<glyph unicode="&#x09;" horiz-adv-x="407" />
<glyph unicode="&#xa0;" horiz-adv-x="407" />
<glyph unicode="!" horiz-adv-x="534" d="M117 0l26 152h131l-26 -152h-131zM215 373l133 946h135l-198 -946h-70z" />
<glyph unicode="&#x22;" horiz-adv-x="563" d="M211 991q0 63 10 163.5t29 205.5h121q-12 -68 -26.5 -133.5t-31 -124t-32 -105.5t-29.5 -75h-37q-2 12 -3 28.5t-1 40.5zM455 991q0 63 10 163.5t29 205.5h121q-12 -68 -26.5 -133.5t-31 -124t-32 -105.5t-29.5 -75h-37q-2 12 -3 28.5t-1 40.5z" />
<glyph unicode="#" horiz-adv-x="1193" d="M57 383l25 72h237l146 409h-238l25 72h237l134 383h82l-136 -383h310l133 383h82l-136 -383h238l-25 -72h-237l-146 -409h238l-25 -72h-237l-133 -383h-82l135 383h-309l-133 -383h-82l135 383h-238zM399 455h310l145 409h-309z" />
<glyph unicode="$" horiz-adv-x="1064" d="M63 25l23 98q72 -20 159 -34.5t173 -14.5q82 0 156.5 18.5t132 58t92.5 101t35 147.5q0 57 -19.5 95t-56.5 65t-88.5 45.5t-114.5 38.5q-72 23 -129 48.5t-97 60t-61.5 83t-21.5 115.5q0 88 33.5 158t90 119t132.5 76.5t160 33.5l32 185h103l-33 -183q70 -2 141.5 -11 t138.5 -23l-18 -97q-57 14 -140 25.5t-157 11.5q-84 0 -153.5 -20.5t-121 -57.5t-79 -91t-27.5 -122q0 -55 20.5 -89t58.5 -58.5t91 -44t119 -41.5q68 -25 122 -50.5t94 -62.5t61.5 -87t21.5 -124q0 -92 -32 -164.5t-87 -125t-130 -83t-161 -38.5l-32 -189h-103l33 183 q-94 0 -189.5 12t-171.5 33z" />
<glyph unicode="%" horiz-adv-x="1363" d="M172 952q0 66 18.5 134.5t57.5 125t101.5 92t148.5 35.5q209 0 209 -227q0 -66 -18.5 -134.5t-57.5 -124.5t-101.5 -92t-148.5 -36q-209 0 -209 227zM178 0l942 1319h105l-942 -1319h-105zM266 961q0 -154 125 -154q59 0 101.5 28.5t69 71.5t38.5 95.5t12 101.5 q0 154 -125 153q-59 0 -101 -28.5t-68.5 -71.5t-39 -95t-12.5 -101zM696 207q0 66 18.5 134.5t57.5 124.5t101.5 92t148.5 36q209 0 209 -227q0 -66 -18.5 -134.5t-57.5 -125t-101.5 -92t-148.5 -35.5q-209 0 -209 227zM791 215q0 -154 124 -154q59 0 101.5 29t69 72t39 95 t12.5 101q0 154 -125 154q-59 0 -101.5 -28.5t-69 -71.5t-38.5 -95.5t-12 -101.5z" />
<glyph unicode="&#x26;" horiz-adv-x="1142" d="M53 285q0 125 70 213t196 166l117 71l-26 37q-47 66 -76 125t-29 135q0 70 25.5 126t70.5 96t105.5 62.5t130.5 22.5q117 0 190.5 -63.5t73.5 -179.5q0 -111 -66.5 -186.5t-179.5 -145.5l-80 -49q61 -78 141.5 -173.5t162.5 -193.5q41 49 76.5 96.5t68.5 90.5l74 -56 q-33 -43 -72 -95t-86 -105l145 -168l-75 -64l-138 158l-12 -12q-96 -98 -199.5 -155.5t-252.5 -57.5q-94 0 -162 22.5t-111 63t-62.5 97t-19.5 122.5zM162 299q0 -102 61.5 -163.5t198.5 -61.5q66 0 120 15t100 42t87 63.5t82 79.5q-115 135 -190.5 227.5t-128.5 160.5 l-105 -64q-47 -29 -88 -59.5t-71.5 -66.5t-48 -79t-17.5 -94zM412 1032q0 -59 23.5 -110.5t58.5 -98.5l26 -37l68 43q37 25 73.5 49.5t66.5 54.5t48.5 67.5t18.5 86.5q0 68 -38 115t-124 47q-96 0 -158.5 -59.5t-62.5 -157.5z" />
<glyph unicode="'" horiz-adv-x="319" d="M211 991q0 63 10 163.5t29 205.5h121q-12 -68 -26.5 -133.5t-31 -124t-32 -105.5t-29.5 -75h-37q-2 12 -3 28.5t-1 40.5z" />
<glyph unicode="(" horiz-adv-x="485" d="M80 215q0 162 36 332t109 336q119 264 324 479l57 -45q-88 -102 -164.5 -222t-132.5 -253q-59 -143 -94 -303t-35 -326q0 -162 34 -302t93 -257l-65 -39q-86 137 -124 285.5t-38 314.5z" />
<glyph unicode=")" horiz-adv-x="485" d="M-121 -340q88 102 165 222t132 253q59 143 94 303t35 326q0 162 -33.5 302t-93.5 257l66 39q86 -137 124 -285.5t38 -314.5q0 -162 -36 -332t-110 -336q-119 -264 -323 -479z" />
<glyph unicode="*" horiz-adv-x="679" d="M186 944l197 109l-158 108l39 53l156 -110l37 215h59l-37 -215l193 108l22 -51l-198 -108l159 -109l-41 -51l-153 108l-39 -215h-60l39 215l-194 -108z" />
<glyph unicode="+" horiz-adv-x="1275" d="M188 434l15 78h397l74 434h88l-74 -434h397l-14 -78h-397l-74 -434h-88l74 434h-398z" />
<glyph unicode="," horiz-adv-x="489" d="M51 -236q35 88 53.5 182.5t20.5 194.5l123 6q-6 -117 -46 -209t-110 -178z" />
<glyph unicode="-" horiz-adv-x="602" d="M100 457l17 94h395l-16 -94h-396z" />
<glyph unicode="." horiz-adv-x="487" d="M94 0l27 152h131l-27 -152h-131z" />
<glyph unicode="/" horiz-adv-x="731" d="M-25 0l742 1319h102l-741 -1319h-103z" />
<glyph unicode="0" horiz-adv-x="1132" d="M137 346q0 63 8.5 144t22.5 165t34.5 166t43.5 150q31 88 70.5 157.5t95 115.5t129 70.5t170.5 24.5q96 0 162.5 -24.5t107.5 -71.5t58.5 -114.5t17.5 -155.5q0 -63 -8.5 -144t-22.5 -165t-34.5 -166t-43.5 -150q-31 -90 -70.5 -158.5t-95 -114.5t-129 -70.5 t-170.5 -24.5q-96 0 -162.5 24.5t-107.5 71.5t-58.5 114.5t-17.5 155.5zM246 348q0 -133 51 -203.5t197 -70.5q78 0 135 21.5t99 62.5t71.5 101t54.5 138q16 53 33.5 124t31 149t21.5 154.5t8 142.5q0 137 -51 207.5t-197 70.5q-76 0 -132 -19.5t-98 -59.5t-73.5 -100 t-56.5 -144q-18 -57 -34.5 -131t-30 -151t-21.5 -153t-8 -139z" />
<glyph unicode="1" horiz-adv-x="759" d="M209 1171l338 148h104l-231 -1319h-107l213 1214l-288 -112z" />
<glyph unicode="2" horiz-adv-x="983" d="M4 0l12 76q160 131 305.5 258t255 247.5t175 236.5t65.5 226q0 201 -227 201q-92 0 -178 -27.5t-164 -62.5l-35 80q86 41 189.5 72.5t205.5 31.5q158 0 238 -78.5t80 -207.5q0 -88 -35 -176.5t-94.5 -174.5t-137 -168.5t-161.5 -159.5t-169 -147.5t-161 -132.5h633 l-17 -94h-780z" />
<glyph unicode="3" horiz-adv-x="917" d="M-8 25l20 92q63 -16 143.5 -29.5t166.5 -13.5t157.5 19.5t124.5 74.5q55 59 76.5 136t21.5 140q0 111 -59 156t-190 45h-131l16 94h147q80 0 135.5 28t91.5 72t52 100t16 114q0 109 -54 150.5t-159 41.5q-96 0 -180 -26.5t-162 -61.5l-35 80q72 37 171.5 69.5t211.5 32.5 q141 0 228.5 -65.5t87.5 -208.5q0 -57 -15.5 -116.5t-46 -111t-75.5 -88t-107 -51.5q86 -23 125 -91t39 -165q0 -94 -27.5 -178t-87 -147.5t-152.5 -100t-227 -36.5q-86 0 -166.5 11t-156.5 34z" />
<glyph unicode="4" horiz-adv-x="1058" d="M33 268l14 76q63 98 143 212t169.5 239t186.5 258t195 266h115q-176 -238 -349 -478.5t-335 -478.5h477l72 332h90l-57 -332h256l-17 -94h-256l-47 -268h-104l47 268h-600z" />
<glyph unicode="5" horiz-adv-x="983" d="M39 20l24 97q74 -16 162 -29.5t158 -13.5q113 0 186.5 38t116.5 95t59.5 126.5t16.5 133.5q0 127 -61.5 177t-198.5 50q-78 0 -155 -12t-154 -31l-33 35l133 633h661l-16 -94h-559l-98 -469q53 12 110.5 20t122.5 8q109 0 178.5 -23.5t109.5 -65.5t54 -98t14 -124 q0 -100 -28.5 -190t-90 -158t-156.5 -106.5t-228 -38.5q-68 0 -160 10t-168 30z" />
<glyph unicode="6" horiz-adv-x="1052" d="M137 336q0 68 9.5 156t28 182t45 187t63.5 171q66 143 176 225t295 82q59 0 129.5 -8t132.5 -24l-21 -93q-57 14 -124.5 22.5t-122.5 8.5q-84 0 -154 -23.5t-126 -82t-99 -159.5t-74 -255q29 12 72 23.5t91 20.5t99 15.5t96 6.5q55 0 109.5 -12.5t97.5 -44.5t69.5 -89 t26.5 -145q0 -82 -24.5 -174.5t-81.5 -169t-149.5 -126.5t-227.5 -50q-174 0 -255 80.5t-81 275.5zM246 338q0 -143 55 -203.5t184 -60.5q80 0 145.5 24.5t119.5 87.5q57 70 77.5 154t20.5 147q0 68 -20.5 110t-54.5 65.5t-78 30.5t-93 7q-92 0 -174 -18t-147 -43 q-12 -59 -23.5 -141t-11.5 -160z" />
<glyph unicode="7" horiz-adv-x="845" d="M150 0q100 174 185 324.5t164 295t157.5 292t166.5 313.5h-653l16 94h764l-12 -74q-80 -152 -159 -301t-161.5 -302t-171 -311.5t-184.5 -330.5h-112z" />
<glyph unicode="8" horiz-adv-x="1073" d="M94 287q0 76 22.5 145.5t62.5 123.5t95.5 91t122.5 47q-74 29 -114.5 86.5t-40.5 155.5q0 92 33.5 167t92 127t139.5 80.5t175 28.5q158 0 246 -72.5t88 -213.5q0 -129 -69.5 -227.5t-176.5 -137.5q72 -27 118 -89t46 -171q0 -74 -23.5 -153.5t-79 -145.5t-146.5 -107.5 t-224 -41.5q-186 0 -276.5 77.5t-90.5 229.5zM203 299q0 -123 73.5 -174t186.5 -51q92 0 160.5 28.5t113.5 75.5t66.5 109.5t21.5 130.5q0 123 -71.5 173t-190.5 50q-94 0 -161.5 -27.5t-111.5 -74.5t-65.5 -109.5t-21.5 -130.5zM348 934q0 -111 66 -155t168 -44 q80 0 141 23.5t102 64.5t62.5 98.5t21.5 122.5q0 55 -17.5 93.5t-49 62t-74.5 34.5t-94 11q-80 0 -140.5 -23.5t-101.5 -65.5t-62.5 -98.5t-21.5 -123.5z" />
<glyph unicode="9" horiz-adv-x="1054" d="M100 12l21 92q57 -14 124.5 -22t123.5 -8q82 0 152.5 23.5t127 82t99.5 159.5t73 255q-29 -12 -71.5 -23.5t-91 -20.5t-99.5 -15.5t-96 -6.5q-55 0 -109.5 12.5t-97.5 44t-69.5 88t-26.5 146.5q0 82 24.5 173t82 168t149.5 128t227 51q174 0 255 -80.5t81 -275.5 q0 -68 -9 -156t-27.5 -182t-45.5 -187t-63 -171q-66 -143 -176.5 -225t-295.5 -82q-59 0 -129.5 8t-132.5 24zM268 831q0 -68 20.5 -109.5t54.5 -65t78 -31t93 -7.5q92 0 174 18.5t148 43.5q12 59 23 141t11 160q0 143 -55 203.5t-184 60.5q-80 0 -145.5 -24.5t-118.5 -87.5 q-57 -70 -78 -154t-21 -148z" />
<glyph unicode=":" horiz-adv-x="530" d="M114 0l27 152h131l-27 -152h-131zM256 795l27 152h131l-27 -152h-131z" />
<glyph unicode=";" horiz-adv-x="522" d="M71 -236q35 88 53.5 182.5t20.5 194.5l123 6q-6 -117 -46 -209t-110 -178zM248 795l27 152h131l-27 -152h-131z" />
<glyph unicode="&#x3c;" horiz-adv-x="1024" d="M188 440l15 82q174 115 354 227.5t356 223.5l-20 -121q-162 -98 -315.5 -193.5t-288.5 -181.5l-2 -8q104 -86 224 -181t247 -194l-17 -104q-139 111 -279 223.5t-274 226.5z" />
<glyph unicode="=" horiz-adv-x="1163" d="M154 238l14 86h770l-14 -86h-770zM221 618l15 87h770l-15 -87h-770z" />
<glyph unicode="&#x3e;" horiz-adv-x="1026" d="M111 -10l20 121q162 98 315.5 193t288.5 181l2 9q-104 86 -224 181t-247 193l17 105q139 -111 279 -223.5t274 -227.5l-15 -82q-174 -115 -354 -227.5z" />
<glyph unicode="?" horiz-adv-x="774" d="M174 0l27 152h129l-27 -152h-129zM178 1257q72 39 148.5 60.5t148.5 21.5q63 0 119.5 -18t98.5 -55t65.5 -91.5t23.5 -123.5q0 -61 -18.5 -115.5t-49 -102t-70.5 -91.5t-85 -85q-53 -49 -90 -85.5t-63.5 -71.5t-42 -73t-23.5 -89h-94q8 63 30.5 115.5t56.5 98.5t78 89 t95 90q33 29 63.5 63.5t55 74.5t40 85t15.5 95q0 92 -53.5 147t-151.5 55q-61 0 -130 -21.5t-128 -51.5z" />
<glyph unicode="@" horiz-adv-x="1398" d="M80 332q0 61 8 132t25.5 144.5t45 146t68.5 138.5q188 305 592 305q510 0 510 -489q0 -94 -17.5 -201t-51.5 -193q-39 -96 -96.5 -142t-145.5 -46q-70 0 -107 25.5t-59 72.5q-61 -41 -118.5 -69.5t-129.5 -28.5q-63 0 -105 23.5t-66.5 61.5t-35 87t-10.5 98 q0 72 17.5 159t52.5 159q53 113 127.5 156.5t167.5 43.5q72 0 142.5 -22.5t133.5 -63.5l-78 -434q-4 -23 -6 -42t-2 -36q0 -53 19.5 -76.5t66.5 -23.5t81 28.5t62 104.5q29 76 45.5 178.5t16.5 190.5q0 205 -102.5 297t-319.5 92q-174 0 -298 -61.5t-206 -204.5 q-33 -55 -56.5 -121t-38.5 -133.5t-23.5 -134t-8.5 -127.5q0 -211 99.5 -304.5t320.5 -93.5q164 0 303 52l29 -84q-80 -29 -168 -43.5t-180 -14.5q-262 0 -383 122t-121 372zM498 399q0 -35 5 -66.5t19.5 -56t40 -40t66.5 -15.5q47 0 102 18.5t107 53.5q0 20 1 40.5t5 47.5 l74 410q-39 14 -80 24t-82 10q-70 0 -119 -35.5t-86 -125.5q-23 -55 -38 -126t-15 -139z" />
<glyph unicode="A" horiz-adv-x="1060" d="M-39 0q154 328 318.5 656.5t338.5 662.5h146q57 -334 98 -662.5t72 -656.5h-109q-6 88 -13 174t-17 174h-562q-41 -86 -79.5 -173t-77.5 -175h-115zM279 442h505q-20 197 -44.5 392.5t-59.5 396.5h-8q-104 -195 -201.5 -391.5t-191.5 -397.5z" />
<glyph unicode="B" horiz-adv-x="1103" d="M92 0l230 1307q86 14 184 22t174 8q80 0 149.5 -12t120.5 -44t81 -86t30 -138q0 -59 -15.5 -113.5t-46 -101.5t-76.5 -84t-110 -58v-4q78 -29 120 -84t42 -168q0 -98 -34 -195t-112 -163q-72 -59 -170 -77.5t-243 -18.5q-74 0 -160 3t-164 7zM213 88q43 -2 101.5 -3 t107.5 -1q119 0 202 15.5t138 62.5q57 49 80.5 127t23.5 149q0 121 -61.5 166t-171.5 45h-322zM328 739h305q84 0 139 20.5t94 61.5q41 43 63.5 103.5t22.5 122.5q0 61 -21.5 100t-61.5 60.5t-95 28.5t-123 7q-59 0 -125.5 -5t-113.5 -11z" />
<glyph unicode="C" horiz-adv-x="1015" d="M104 449q0 68 8.5 145.5t27 157t47 158.5t67.5 149q88 154 208 217t275 63q78 0 162 -12t164 -33l-21 -90q-68 16 -148.5 28.5t-152.5 12.5q-135 0 -232 -54t-169 -190q-35 -66 -58.5 -140.5t-39 -149t-22.5 -146t-7 -127.5q0 -104 22.5 -173.5t64.5 -111.5t99.5 -60.5 t128.5 -18.5q86 0 174.5 22.5t171.5 63.5l37 -84q-86 -41 -183 -68.5t-204 -27.5q-420 0 -420 469z" />
<glyph unicode="D" horiz-adv-x="1161" d="M92 0l230 1307q20 4 60 9t89 10t99.5 8t91.5 3q225 0 343.5 -111.5t118.5 -340.5q0 -59 -8 -132t-24.5 -150t-41 -152.5t-57.5 -141.5q-86 -170 -227 -244.5t-367 -74.5q-47 0 -131 3t-176 7zM213 88q59 -4 117.5 -4h105.5q78 0 145.5 13.5t126 44t106.5 82.5t87 130 q29 59 50.5 127t35.5 137.5t21.5 135t7.5 120.5q0 205 -96.5 287t-288.5 82q-25 0 -55.5 -1t-61.5 -3t-57.5 -5t-44.5 -5z" />
<glyph unicode="E" horiz-adv-x="954" d="M92 0l232 1319h682l-17 -94h-577l-86 -492h465l-17 -94h-465l-96 -545h580l-17 -94h-684z" />
<glyph unicode="F" horiz-adv-x="915" d="M92 0l232 1319h677l-16 -94h-573l-93 -529h461l-16 -94h-461l-106 -602h-105z" />
<glyph unicode="G" horiz-adv-x="1128" d="M111 438q0 72 8 152t26.5 160.5t47 159.5t69.5 149q90 156 217 218t285 62q78 0 163 -12t167 -33l-19 -90q-70 18 -151.5 29.5t-153.5 11.5q-133 0 -240.5 -53t-181.5 -191q-33 -61 -57.5 -133.5t-39.5 -147.5t-23.5 -149.5t-8.5 -142.5q0 -98 21.5 -166.5t62.5 -109.5 t98.5 -59.5t130.5 -18.5q88 0 163 20.5t132 44.5l78 436h-289l17 95h389l-102 -580q-180 -110 -408 -110h-4q-199 0 -298 116.5t-99 341.5z" />
<glyph unicode="H" horiz-adv-x="1214" d="M92 0l232 1319h104l-102 -586h653l102 586h105l-232 -1319h-104l113 639h-654l-112 -639h-105z" />
<glyph unicode="I" horiz-adv-x="456" d="M92 0l232 1319h104l-231 -1319h-105z" />
<glyph unicode="J" horiz-adv-x="698" d="M-63 -4l16 88q33 -8 71.5 -9t69.5 -1q80 0 133.5 19.5t87 56t54 93t32.5 130.5l166 946h105l-168 -959q-18 -111 -52 -183.5t-84.5 -116.5t-117 -62t-150.5 -18q-53 0 -92 5t-71 11z" />
<glyph unicode="K" horiz-adv-x="1036" d="M92 0l232 1319h104l-104 -598h4q172 143 337.5 290.5t331.5 307.5h127q-166 -160 -344 -319.5t-354 -307.5q109 -166 239 -342t277 -350h-133q-129 158 -254 330t-236 342h-4l-118 -672h-105z" />
<glyph unicode="L" horiz-adv-x="897" d="M92 0l232 1319h104l-215 -1225h573l-16 -94h-678z" />
<glyph unicode="M" horiz-adv-x="1462" d="M68 0q68 332 140.5 658.5t149.5 660.5h172l170 -969h7l512 969h178q-39 -334 -82 -658.5t-88 -660.5h-107q43 315 84 619.5t82 611.5h-6l-522 -981h-140l-174 981h-6q-70 -305 -136 -612.5t-132 -618.5h-102z" />
<glyph unicode="N" horiz-adv-x="1271" d="M92 0l232 1319h172l422 -1231h6l215 1231h104l-231 -1319h-172l-422 1231h-6l-215 -1231h-105z" />
<glyph unicode="O" d="M106 410q0 61 8.5 141t27 167t49 174t73.5 165q78 135 196 208.5t298 73.5q201 0 304 -101t103 -329q0 -61 -8 -141t-26.5 -167t-49 -175t-73.5 -164q-78 -135 -196 -208.5t-298 -73.5q-201 0 -304.5 101.5t-103.5 328.5zM215 420q0 -98 21.5 -165t61.5 -106.5t97.5 -57 t128.5 -17.5q139 0 231.5 57t155.5 174q31 57 57.5 130t46 152t31 159.5t11.5 152.5q0 98 -21.5 164.5t-61.5 106.5t-97.5 57.5t-128.5 17.5q-139 0 -231.5 -57.5t-156.5 -173.5q-31 -57 -57.5 -130t-45.5 -152t-30.5 -159.5t-11.5 -152.5z" />
<glyph unicode="P" horiz-adv-x="1048" d="M92 0l230 1309q86 12 172 20t163 8q205 0 304.5 -69.5t99.5 -235.5q0 -106 -40 -212.5t-122 -180.5q-66 -59 -155 -86t-224 -27q-55 0 -108.5 4.5t-118.5 14.5l-96 -545h-105zM307 631q41 -4 93.5 -8.5t107.5 -4.5q106 0 189 20.5t141 76.5q57 55 85.5 142t28.5 171 q0 127 -73.5 171t-235.5 44q-59 0 -112.5 -4t-118.5 -10z" />
<glyph unicode="Q" d="M106 410q0 61 8.5 141t27 167t49 174t73.5 165q78 135 196 208.5t298 73.5q201 0 304 -101t103 -329q0 -61 -8 -141t-26.5 -167t-49 -175t-73.5 -164q-53 -92 -123 -154.5t-166 -97.5l170 -239l-96 -62l-175 279q-25 -4 -50 -6t-54 -2q-201 0 -304.5 101.5t-103.5 328.5z M215 420q0 -98 21.5 -165t61.5 -106.5t97.5 -57t128.5 -17.5q139 0 231.5 57t155.5 174q31 57 57.5 130t46 152t31 159.5t11.5 152.5q0 98 -21.5 164.5t-61.5 106.5t-97.5 57.5t-128.5 17.5q-139 0 -231.5 -57.5t-156.5 -173.5q-31 -57 -57.5 -130t-45.5 -152t-30.5 -159.5 t-11.5 -152.5z" />
<glyph unicode="R" horiz-adv-x="1079" d="M92 0l230 1307q43 6 95 12t104 10t100.5 6t83.5 2q178 0 267 -67.5t89 -231.5q0 -172 -95.5 -292.5t-281.5 -155.5q49 -143 105.5 -286.5t128.5 -303.5h-117q-61 141 -117.5 285.5t-103.5 292.5h-77t-83 1t-74 2t-47 1l-102 -582h-105zM313 668q47 -4 100.5 -4h82.5 q152 0 242.5 36.5t138.5 96.5q39 49 57 110.5t18 126.5q0 117 -63.5 163t-198.5 46q-23 0 -56.5 -1t-71.5 -3t-78 -5t-72 -7z" />
<glyph unicode="S" horiz-adv-x="915" d="M2 25l23 96q68 -18 150.5 -32.5t164.5 -14.5q90 0 172 23.5t135 84.5q37 41 57.5 97.5t20.5 119.5q0 57 -18.5 95t-52 65t-81 45.5t-106.5 38.5q-68 23 -122 48.5t-92 60t-58.5 82t-20.5 114.5q0 98 37 169t90 118q63 55 148.5 79.5t189.5 24.5q72 0 148.5 -9t146.5 -25 l-19 -97q-53 14 -131.5 25.5t-150.5 11.5q-76 0 -139.5 -17.5t-114.5 -58.5q-47 -39 -71.5 -94t-24.5 -121q0 -55 18 -89t52 -58.5t84 -44t112 -41.5q57 -23 109.5 -47.5t91 -60t61.5 -88t23 -128.5q0 -86 -30 -161.5t-83 -129.5q-72 -74 -171 -100t-208 -26q-88 0 -178 12 t-162 33z" />
<glyph unicode="T" horiz-adv-x="1011" d="M188 1225l17 94h895l-17 -94h-395l-215 -1225h-104l215 1225h-396z" />
<glyph unicode="U" horiz-adv-x="1224" d="M152 340q0 82 18 184l139 795h105l-138 -782q-18 -104 -18 -183q0 -139 69.5 -209.5t217.5 -70.5q174 0 276 110q53 59 85 144.5t55 208.5l137 782h104l-139 -795q-23 -133 -61.5 -236.5t-106.5 -174.5q-66 -68 -158 -100.5t-202 -32.5q-186 0 -284.5 90t-98.5 270z" />
<glyph unicode="V" horiz-adv-x="1038" d="M195 1319h110q23 -305 54.5 -610.5t80.5 -620.5h9q150 301 292 607t281 624h117q-147 -328 -305 -657.5t-326 -661.5h-154q-53 334 -92 662.5t-67 656.5z" />
<glyph unicode="W" horiz-adv-x="1669" d="M209 1319h104q0 -141 4.5 -280.5t12.5 -276.5q10 -195 24.5 -354.5t34.5 -319.5h6q123 281 252 592t248 639h164q4 -195 10 -381t16 -363q2 -51 6.5 -111.5t9.5 -125t9 -129t10 -121.5h6q137 285 270.5 598t245.5 633h109q-117 -336 -256 -656.5t-311 -662.5h-148 q-4 51 -10 123t-12 149.5t-11.5 155.5t-9.5 141q-10 172 -16 338t-10 324h-6q-53 -143 -116 -299t-128.5 -313.5t-133 -315.5t-130.5 -303h-148q-39 260 -59.5 504t-30.5 485q-6 162 -6 330z" />
<glyph unicode="X" horiz-adv-x="1114" d="M2 0q131 172 265 339t272 339q-72 160 -142.5 316.5t-136.5 324.5h125q51 -139 105.5 -274.5t117.5 -272.5q104 133 209 269.5t211 277.5h127q-123 -166 -250 -327t-256 -322q74 -164 151 -330t150 -340h-119q-63 154 -125.5 294t-125.5 281q-113 -141 -223.5 -284.5 t-219.5 -290.5h-135z" />
<glyph unicode="Y" horiz-adv-x="1021" d="M186 1319h111q41 -197 97.5 -394.5t123.5 -367.5h4q129 170 255 367.5t235 394.5h121q-131 -242 -274.5 -452t-297.5 -416l-80 -451h-104l80 451q-86 207 -155 416.5t-116 451.5z" />
<glyph unicode="Z" horiz-adv-x="987" d="M-12 0l16 90l928 1135h-694l16 94h819l-16 -90l-928 -1135h731l-16 -94h-856z" />
<glyph unicode="[" horiz-adv-x="505" d="M25 -334l290 1653h299l-14 -82h-197l-262 -1489h197l-14 -82h-299z" />
<glyph unicode="\" horiz-adv-x="714" d="M207 1319h100l264 -1319h-100z" />
<glyph unicode="]" horiz-adv-x="509" d="M-102 -334l14 82h197l262 1489h-199l14 82h301l-290 -1653h-299z" />
<glyph unicode="^" horiz-adv-x="1214" d="M201 506q86 104 160.5 191t134.5 155q47 51 91 83t103 32t93 -32t63 -83q14 -27 35.5 -67t45 -88t48 -97t47.5 -94h-107q-43 90 -79.5 160.5t-71.5 132.5q-23 37 -40 56t-44 19q-25 0 -48.5 -19t-58.5 -56q-37 -39 -66.5 -73t-59 -67.5t-60.5 -70.5t-68 -82h-118z" />
<glyph unicode="_" horiz-adv-x="980" d="M-143 -344l14 86h977l-14 -86h-977z" />
<glyph unicode="`" horiz-adv-x="544" d="M231 1331l109 53l129 -329l-53 -27z" />
<glyph unicode="a" horiz-adv-x="962" d="M92 297q0 45 6 100.5t17.5 111.5t28 112.5t36.5 103.5q53 121 138 181.5t233 60.5q80 0 170 -16.5t156 -43.5l-160 -907h-86l8 86q-63 -51 -136 -78.5t-149 -27.5q-123 0 -192.5 78.5t-69.5 238.5zM197 307q0 -237 173 -237h1q76 0 148.5 36.5t127.5 86.5l117 655 q-51 10 -111.5 19.5t-109.5 9.5q-113 0 -175.5 -50.5t-95.5 -136.5q-16 -39 -29.5 -87t-23.5 -98t-16 -101.5t-6 -96.5z" />
<glyph unicode="b" horiz-adv-x="985" d="M88 39l225 1280h103l-80 -451q57 45 128 72t146 27q123 0 192.5 -80t69.5 -240q0 -45 -6 -99t-16 -111.5t-26.5 -113t-37.5 -102.5q-53 -121 -139 -181t-233 -60q-80 0 -170 16t-156 43zM199 92q72 -16 123 -20t79 -4q68 0 118 17t87 47t61.5 71t41.5 88q27 72 43 167 t16 179q0 133 -45 186.5t-137 53.5q-61 0 -132 -21.5t-132 -69.5z" />
<glyph unicode="c" horiz-adv-x="841" d="M94 315q0 39 5 88.5t15.5 101.5t26 104.5t37.5 101.5q63 137 160.5 196.5t241.5 59.5q66 0 128 -11.5t119 -27.5l-24 -86q-53 16 -111.5 25.5t-111.5 9.5q-104 0 -182.5 -45.5t-129.5 -167.5q-16 -39 -28.5 -85.5t-21.5 -93.5t-14 -92t-5 -82q0 -241 211 -241h2 q61 0 130.5 19.5t141.5 51.5l35 -82q-68 -35 -158 -57t-168 -22q-154 0 -226.5 88.5t-72.5 246.5z" />
<glyph unicode="d" horiz-adv-x="980" d="M106 297q0 45 6.5 98.5t16.5 110.5t26.5 113.5t39.5 105.5q53 119 138 180.5t226 61.5q49 0 111.5 -7.5t122.5 -21.5l67 381h103l-232 -1319h-86l8 100q-59 -51 -123.5 -85.5t-156.5 -34.5q-129 0 -198 78.5t-69 238.5zM211 303q0 -233 174 -233q76 0 148.5 36.5 t128.5 86.5l116 661q-49 10 -108.5 16.5t-106.5 6.5q-117 0 -177 -46.5t-99 -140.5q-16 -37 -29.5 -85t-24 -100t-16.5 -104.5t-6 -97.5z" />
<glyph unicode="e" horiz-adv-x="913" d="M90 326q0 76 19.5 186.5t72.5 214.5q53 102 141.5 171t223.5 69q80 0 134 -26t88 -69t48 -98t14 -115q0 -45 -7 -103t-19 -118h-602q-4 -33 -6 -62.5t-2 -51.5q0 -57 11 -103.5t36.5 -80.5t69.5 -52t110 -18t135.5 18t140.5 51l35 -80q-68 -35 -158 -57t-172 -22 q-147 0 -230 83t-83 263zM217 522h502q4 29 6 61.5t2 63.5q0 45 -8 87t-28.5 74t-56.5 50.5t-91 18.5q-129 0 -210 -97.5t-116 -257.5z" />
<glyph unicode="f" horiz-adv-x="561" d="M115 0l151 862h-125l13 70l127 8l24 137q12 70 29.5 119t47.5 81t75 47t112 15q31 0 68 -3t70 -7l-11 -88q-25 4 -55.5 6t-60.5 2q-41 0 -70 -7t-49.5 -25.5t-33.5 -52.5t-21 -87l-23 -131h199l-15 -84h-198l-152 -862h-102z" />
<glyph unicode="g" horiz-adv-x="964" d="M72 -348l24 88q47 -14 118 -28.5t146 -14.5q92 0 152.5 37t83.5 153l35 191q-57 -45 -128 -71.5t-147 -26.5q-123 0 -191.5 79.5t-68.5 239.5q0 45 6.5 100.5t17.5 111.5t27.5 111.5t36.5 102.5q53 121 137.5 181.5t231.5 60.5q80 0 170 -16.5t156 -43.5l-183 -1030 q-27 -147 -110.5 -208.5t-227.5 -61.5q-76 0 -149.5 13t-136.5 32zM201 301q0 -231 176 -231q66 0 138.5 30.5t133.5 81.5l117 672q-72 16 -127 22.5t-92 6.5q-106 0 -169 -48.5t-102 -144.5q-16 -41 -29.5 -90t-23.5 -101.5t-16 -103.5t-6 -94z" />
<glyph unicode="h" horiz-adv-x="993" d="M82 0l231 1319h103l-84 -473q66 51 147.5 86t167.5 35q100 0 168 -54.5t68 -164.5q0 -23 -3 -44.5t-8 -46.5l-114 -657h-103l113 647q10 51 10 94q0 66 -32.5 101t-110.5 35q-84 0 -168 -34t-148 -73l-135 -770h-102z" />
<glyph unicode="i" horiz-adv-x="432" d="M82 0l166 946h102l-166 -946h-102zM285 1159l28 160h103l-29 -160h-102z" />
<glyph unicode="j" horiz-adv-x="432" d="M-72 -373q33 55 58.5 105.5t46 108t38 129t35.5 171.5l142 805h102l-141 -807q-31 -178 -78 -303t-106 -209h-97zM285 1159l28 160h103l-29 -160h-102z" />
<glyph unicode="k" horiz-adv-x="862" d="M82 0l231 1319h103l-135 -768h2q127 94 254 198.5t231 196.5h137q-127 -113 -261 -222.5t-263 -203.5q66 -106 164 -240.5t223 -279.5h-135q-86 106 -180.5 238.5t-178.5 267.5h-2l-88 -506h-102z" />
<glyph unicode="l" horiz-adv-x="432" d="M82 0l231 1319h103l-232 -1319h-102z" />
<glyph unicode="m" horiz-adv-x="1490" d="M82 0l166 946h84l-8 -104q63 47 135.5 86t156.5 39q31 0 64 -8.5t62.5 -26t52 -45t34.5 -68.5q78 66 155 107t163 41q96 0 162.5 -56.5t66.5 -165.5q0 -23 -2 -46t-6 -42l-115 -657h-102l113 647q4 16 6 42t2 48q0 78 -40 109t-102 31q-72 0 -141 -32t-147 -89 q0 -23 -2 -48.5t-6 -52.5l-115 -655h-103l113 647q4 16 6 42t2 48q0 78 -40 109t-101 31q-70 0 -137.5 -30t-141.5 -83l-133 -764h-102z" />
<glyph unicode="n" horiz-adv-x="993" d="M82 0l166 946h86l-8 -102q63 51 149 87t176 36q47 0 89 -13.5t74 -41t50.5 -70.5t18.5 -103q0 -16 -3 -35.5t-8 -46.5l-114 -657h-103l113 647q10 51 10 94q0 61 -31.5 98.5t-111.5 37.5q-86 0 -169 -34t-147 -73l-135 -770h-102z" />
<glyph unicode="o" horiz-adv-x="970" d="M88 326q0 55 8 112.5t22.5 113.5t34 107.5t44.5 92.5q55 98 144 156.5t222 58.5q160 0 237 -90.5t77 -255.5q0 -55 -8.5 -112.5t-23 -114t-33.5 -107.5t-44 -92q-55 -98 -144 -156.5t-223 -58.5q-160 0 -236.5 90t-76.5 256zM193 334q0 -57 10 -105.5t35.5 -84t67.5 -55 t104 -19.5q82 0 153.5 41t124.5 145q43 84 63.5 179t20.5 177q0 57 -10 105.5t-36 83.5t-68 55.5t-103 20.5q-82 0 -153.5 -41t-125.5 -146q-43 -84 -63 -179t-20 -177z" />
<glyph unicode="p" horiz-adv-x="983" d="M14 -373l232 1319h86l-8 -100q59 51 125.5 86t158.5 35q129 0 195.5 -80t66.5 -240q0 -47 -6 -101t-16 -110.5t-26.5 -112t-37.5 -102.5q-53 -119 -139 -180t-227 -61q-49 0 -111.5 7t-122.5 21l-67 -381h-103zM199 92q47 -10 103 -19.5t108 -9.5q94 0 162.5 42 t117.5 149q37 80 56.5 179t19.5 196q0 129 -39 191.5t-133 62.5q-78 0 -148.5 -36t-130.5 -89z" />
<glyph unicode="q" horiz-adv-x="976" d="M109 297q0 47 6 101.5t17 111.5t27.5 112.5t37.5 102.5q53 121 136 181.5t230 60.5q80 0 171 -16.5t157 -43.5l-227 -1280h-103l82 451q-57 -45 -129 -71.5t-147 -26.5q-123 0 -190.5 78.5t-67.5 238.5zM213 299q0 -229 176 -229q66 0 136.5 29.5t136.5 82.5l116 672 q-72 16 -127 22.5t-92 6.5q-106 0 -168.5 -48.5t-101.5 -144.5q-14 -37 -27.5 -85t-25 -100t-17.5 -106.5t-6 -99.5z" />
<glyph unicode="r" horiz-adv-x="641" d="M82 0l166 946h86l-12 -117q70 76 136 107t144 31q45 0 80 -9l-12 -92q-25 4 -45.5 6t-42.5 2q-68 0 -137.5 -36.5t-131.5 -102.5l-129 -735h-102z" />
<glyph unicode="s" horiz-adv-x="751" d="M-16 25l22 90q66 -20 138.5 -32.5t131.5 -12.5q115 0 188 52t73 154q0 72 -40 104t-124 60q-45 14 -92.5 30.5t-85 42.5t-62 67t-24.5 106q0 125 93 203t257 78q59 0 125.5 -9.5t117.5 -23.5l-16 -90q-63 16 -118.5 24.5t-106.5 8.5q-129 0 -188.5 -53.5t-59.5 -131.5 q0 -35 11.5 -57.5t36 -39.5t63 -31.5t92.5 -33.5q106 -35 165.5 -87t59.5 -154q0 -135 -98.5 -222t-270.5 -87q-66 0 -147.5 12t-140.5 33z" />
<glyph unicode="t" horiz-adv-x="626" d="M129 862l12 70l129 8l64 289h86l-49 -283h262l-15 -84h-262l-106 -622q-4 -25 -6 -45.5t-2 -34.5q0 -51 21.5 -70.5t74.5 -19.5q35 0 67.5 7t69.5 19l23 -80q-41 -16 -89.5 -26t-95.5 -10q-176 0 -176 176q0 16 2 38.5t6 47.5l109 620h-125z" />
<glyph unicode="u" horiz-adv-x="989" d="M109 201q0 16 2 37.5t6 50.5l114 657h103l-111 -647q-4 -29 -7 -52.5t-3 -43.5q0 -133 145 -133q86 0 165 33.5t145 72.5l135 770h102l-166 -946h-86l9 102q-66 -51 -148 -86.5t-172 -35.5q-49 0 -92 12t-75 38.5t-49 69t-17 101.5z" />
<glyph unicode="v" horiz-adv-x="841" d="M139 946h99q10 -236 33.5 -449.5t64.5 -412.5h10q111 199 209 413t190 449h105q-98 -250 -206.5 -484.5t-244.5 -461.5h-141q-55 227 -83 461.5t-36 484.5z" />
<glyph unicode="w" horiz-adv-x="1343" d="M139 946h103q-1 -41 0 -83q0 -177 13 -361q17 -226 46 -418h8q45 100 94.5 211t96.5 222.5t92 221t84 207.5h143q8 -203 23.5 -427t36.5 -435h6q100 195 196.5 419t171.5 443h99q-47 -133 -93.5 -250.5t-95.5 -231.5t-103 -227.5t-118 -236.5h-143q-10 100 -20.5 211 t-17.5 222.5t-13.5 220t-10.5 208.5h-8q-39 -96 -85 -207.5t-95 -226.5t-97.5 -224.5t-91.5 -203.5h-145q-20 123 -33.5 236.5t-22.5 227.5t-13.5 231.5t-6.5 250.5z" />
<glyph unicode="x" horiz-adv-x="841" d="M-8 0q92 123 186 241.5t191 241.5q-53 111 -105.5 225.5t-101.5 237.5h104q37 -98 79 -193.5t87 -193.5q74 94 148.5 190.5t150.5 196.5h111q-92 -121 -184.5 -236.5t-188.5 -236.5q53 -117 106.5 -233.5t104.5 -239.5h-100q-41 100 -84 198.5t-88 198.5 q-78 -96 -154 -194.5t-154 -202.5h-108z" />
<glyph unicode="y" horiz-adv-x="837" d="M119 -373q49 86 101 180.5t104 192.5h-60q-41 182 -73.5 424t-61.5 522h109q18 -233 45.5 -451.5t68.5 -410.5h8q100 203 202 428t179 434h105q-59 -154 -132 -321.5t-154 -338.5t-167 -339t-174 -320h-100z" />
<glyph unicode="z" horiz-adv-x="776" d="M-8 0l12 80l643 780h-485l14 86h600l-14 -80l-641 -780h504l-15 -86h-618z" />
<glyph unicode="{" horiz-adv-x="598" d="M106 496q41 43 70 73.5t48.5 60t30.5 61.5t19 77l60 334q23 121 93.5 179t227.5 58l-6 -36q-41 -10 -75.5 -22.5t-62.5 -35t-47.5 -57.5t-27.5 -86l-61 -352q-14 -80 -62.5 -142.5t-126.5 -111.5q102 -86 103 -197q0 -20 -2 -41.5t-6 -40.5l-58 -328q-4 -16 -4 -27.5 v-23.5q0 -72 41 -102.5t105 -46.5l-7 -37q-135 0 -189 42t-54 128q0 31 6 67l57 334q4 23 6 40.5t2 35.5q0 49 -19.5 90t-60.5 107z" />
<glyph unicode="|" horiz-adv-x="638" d="M117 -373l299 1692h102l-299 -1692h-102z" />
<glyph unicode="}" horiz-adv-x="602" d="M-51 -348l6 37q39 8 73.5 21.5t62.5 36t47.5 57t29.5 85.5l61 353q14 80 62.5 142t126.5 112q-51 43 -77 91t-26 109q0 31 7 66l59 340q4 16 4 27.5v23.5q0 72 -41 102.5t-104 47.5l6 36q135 0 189 -42t54 -128q0 -31 -6 -67l-57 -334q-4 -23 -6 -40t-2 -36 q0 -49 19.5 -90t60.5 -106q-41 -43 -70 -74t-48.5 -60.5t-30.5 -61.5t-19 -77l-60 -334q-23 -121 -93.5 -179t-227.5 -58z" />
<glyph unicode="~" horiz-adv-x="1019" d="M223 629q2 14 16.5 35.5t36 40t50 32t61.5 13.5q37 0 77 -16.5t85 -43.5q55 -33 89 -49t62 -16q31 0 61 22.5t58 75.5l37 -57q-4 -16 -17.5 -37t-35 -39.5t-50 -31.5t-61.5 -13q-37 0 -77 16.5t-85 42.5q-55 33 -88.5 49.5t-62.5 16.5q-31 0 -60.5 -22.5t-58.5 -76.5z " />
<glyph unicode="&#xa1;" horiz-adv-x="534" d="M47 -373l201 946h69l-135 -946h-135zM258 795l27 151h131l-27 -151h-131z" />
<glyph unicode="&#xa2;" horiz-adv-x="888" d="M98 315q0 80 19.5 186.5t64.5 205.5q57 125 139 183t193 73l33 188h98l-33 -184q59 -4 121 -14.5t115 -26.5l-23 -88q-63 16 -121.5 28.5t-119.5 12.5q-104 0 -182 -47.5t-130 -167.5q-16 -39 -29.5 -85.5t-22.5 -93.5t-14 -92t-5 -82q0 -240 215 -239q61 0 130.5 18.5 t141.5 50.5l35 -82q-59 -31 -135 -52t-150 -25l-32 -193h-99l33 195q-123 14 -182.5 100t-59.5 231z" />
<glyph unicode="&#xa3;" horiz-adv-x="983" d="M53 0l10 66q115 80 182.5 180t67.5 241q0 20 -1 52t-3 57h-153l12 76l129 10q-4 47 -9 100.5t-5 106.5q0 82 17 161.5t69 145.5q33 43 74.5 70.5t88 44t95.5 22.5t96 6q66 0 140.5 -9t140.5 -25l-19 -91q-59 14 -124.5 22.5t-127.5 8.5q-168 0 -258 -88t-90 -274 q0 -47 4 -95.5t10 -97.5h357l-17 -94h-327q2 -20 3 -44t1 -46q0 -121 -47 -229.5t-158 -182.5h592l-17 -94h-733z" />
<glyph unicode="&#xa4;" horiz-adv-x="1110" d="M59 276l170 144q-47 76 -47 170q0 86 34 168t95 143l-116 141l88 76l118 -143q59 37 123 58.5t131 21.5q68 0 124.5 -21.5t101.5 -58.5l170 143l61 -76l-170 -143q47 -76 47 -170q0 -86 -33.5 -168t-95.5 -143l117 -142l-88 -75l-119 143q-59 -37 -122.5 -58.5 t-131.5 -21.5t-124 21.5t-101 58.5l-170 -143zM274 608q0 -53 19.5 -100t53.5 -81t81 -53.5t104 -19.5q66 0 131.5 28t118 77t84 113.5t31.5 138.5q0 53 -19.5 100t-53 81t-81 53.5t-104.5 19.5q-66 0 -131.5 -28t-117.5 -77t-84 -113.5t-32 -138.5z" />
<glyph unicode="&#xa5;" horiz-adv-x="968" d="M92 266l17 94h301l39 218h-302l17 94h260q-55 150 -108.5 315.5t-96.5 331.5h117q41 -162 88 -308.5t100 -289.5q106 143 203.5 289.5t196.5 308.5h120q-104 -170 -212.5 -332t-217.5 -315h260l-16 -94h-301l-39 -218h301l-16 -94h-301l-47 -266h-109l47 266h-301z" />
<glyph unicode="&#xa6;" horiz-adv-x="641" d="M117 -373l108 609h103l-109 -609h-102zM309 711l109 608h102l-108 -608h-103z" />
<glyph unicode="&#xa7;" horiz-adv-x="1038" d="M27 -322l24 89q61 -18 132 -29.5t136 -11.5q78 0 145.5 19t123 68.5t98.5 131.5t74 205q-39 -10 -81 -15.5t-89 -5.5q-203 0 -324 113.5t-121 345.5q0 49 6.5 110.5t20.5 126t35.5 129t52.5 123.5q80 152 194.5 211.5t256.5 59.5q74 0 153.5 -12.5t149.5 -30.5l-25 -88 q-61 18 -132 29t-136 11q-78 0 -145.5 -19t-123 -68.5t-98.5 -131.5t-73 -204q39 10 80.5 15t89.5 5q100 0 182 -28.5t140 -86t90 -143.5t32 -201q0 -49 -6 -109.5t-20.5 -126t-36 -131t-52.5 -122.5q-80 -152 -194.5 -211.5t-255.5 -59.5q-74 0 -154 12.5t-149 30.5z M248 596q0 -184 87 -281.5t275 -97.5q41 0 83 4t83 10q6 39 11.5 80t5.5 82q0 178 -87.5 275.5t-277.5 97.5q-41 0 -83 -4t-81 -10q-16 -82 -16 -156z" />
<glyph unicode="&#xa8;" horiz-adv-x="724" d="M246 1114l24 143h127l-24 -143h-127zM578 1114l24 143h129l-24 -143h-129z" />
<glyph unicode="&#xa9;" horiz-adv-x="1380" d="M106 477q0 63 9.5 135t27 143.5t45 141.5t64.5 129q98 160 247.5 236.5t338.5 76.5q248 0 371.5 -128t123.5 -369q0 -63 -9 -135t-26.5 -143.5t-45 -141.5t-64.5 -129q-98 -160 -247.5 -236.5t-338.5 -76.5q-248 0 -372 127.5t-124 369.5zM195 481q0 -215 105.5 -317.5 t309.5 -102.5q174 0 299 71t205 206q61 104 96 238.5t35 261.5q0 420 -416 419q-174 0 -298.5 -70.5t-204.5 -205.5q-61 -104 -96 -238.5t-35 -261.5zM426 532q0 33 5 76t14.5 88t23.5 89t35 81q51 92 129 129t168 37q45 0 91 -6t87 -16l-14 -74q-37 8 -79 13t-81 5 q-70 0 -128.5 -26.5t-94.5 -100.5q-27 -53 -45.5 -134t-18.5 -152q0 -92 37 -134t111 -42q47 0 99 15t99 38l33 -68q-47 -29 -116.5 -47t-131.5 -18q-111 0 -167 63t-56 184z" />
<glyph unicode="&#xaa;" horiz-adv-x="643" d="M168 977q0 49 12.5 112.5t42 119t79.5 93t128 37.5q55 0 109.5 -14t91.5 -31l-90 -487h-62l-2 43q-33 -23 -68.5 -38t-82.5 -15q-78 0 -118 47t-40 133zM254 977q0 -59 20.5 -84t65.5 -25q74 0 137 52l64 333q-18 4 -48 10.5t-61 6.5q-51 0 -86 -30t-55.5 -74t-28.5 -95 t-8 -94z" />
<glyph unicode="&#xab;" horiz-adv-x="872" d="M66 465q0 63 29.5 105t74.5 85q18 18 54 51t79 71t88 78t82 71l64 -72q-35 -29 -79 -66.5t-87 -76.5t-82 -74t-64 -59q-29 -27 -44 -52.5t-15 -58.5q0 -41 27 -80q12 -18 35.5 -51t52 -71t61.5 -77.5t61 -76.5l-77 -66q-20 25 -48 59.5t-55.5 71.5t-54.5 73t-47 64 q-27 39 -41 74t-14 78zM363 465q0 63 29.5 105t74.5 85q18 18 54 51t79 71t88 78t82 71l64 -72q-35 -29 -79 -66.5t-87 -76.5t-82 -74t-64 -59q-29 -27 -44 -52.5t-15 -58.5q0 -41 27 -80q12 -18 35.5 -51t52 -71t61.5 -77.5t61 -76.5l-77 -66q-20 25 -48 59.5t-55.5 71.5 t-54.5 73t-47 64q-27 39 -41 74t-14 78z" />
<glyph unicode="&#xac;" horiz-adv-x="1277" d="M207 537l16 86h883l-92 -521h-94l75 435h-788z" />
<glyph unicode="&#xad;" horiz-adv-x="581" d="M92 457l17 94h395l-16 -94h-396z" />
<glyph unicode="&#xae;" horiz-adv-x="968" d="M260 918q0 98 28.5 175.5t80 133t122 84t152.5 28.5q51 0 96 -14t79 -45t53.5 -80t19.5 -119q0 -98 -28.5 -176t-80 -133t-122 -84t-152.5 -29q-51 0 -96 13.5t-79 44.5t-53.5 80t-19.5 121zM330 924q0 -109 48 -159t140 -50q76 0 133.5 31.5t95 83t56 116t18.5 129.5 q0 109 -48 159t-140 50q-78 0 -134.5 -31.5t-94 -83t-56 -116t-18.5 -129.5zM432 823l62 348q29 8 59.5 13.5t58.5 5.5q53 0 80 -24.5t27 -67.5q0 -41 -21.5 -74t-68.5 -47q10 -41 22.5 -79t26.5 -75h-64q-12 35 -22 73t-21 75h-53l-26 -148h-60zM526 1020h58q35 0 54 18.5 t19 53.5q0 45 -53 45q-16 0 -30.5 -1t-26.5 -3z" />
<glyph unicode="&#xaf;" horiz-adv-x="608" d="M193 1141l12 76h457l-13 -76h-456z" />
<glyph unicode="&#xb0;" horiz-adv-x="727" d="M201 1004q0 61 20.5 121.5t60.5 108.5t98 77.5t132 29.5q104 0 162.5 -59t58.5 -164q0 -61 -21.5 -121.5t-61.5 -108.5t-97 -78t-131 -30q-104 0 -162.5 59.5t-58.5 164.5zM291 1012q0 -148 137 -148q51 0 91 21.5t67.5 55.5t42 78t14.5 91q0 147 -137 147 q-51 0 -91 -21.5t-68 -55t-42 -78.5t-14 -90z" />
<glyph unicode="&#xb1;" horiz-adv-x="1163" d="M113 0l12 76h770l-12 -76h-770zM219 598l12 74h342l66 372h88l-65 -372h339l-12 -74h-340l-65 -373h-88l65 373h-342z" />
<glyph unicode="&#xb2;" horiz-adv-x="645" d="M121 598l10 61q74 55 150.5 118t139 126.5t102.5 127t40 122.5q0 53 -30.5 80t-83.5 27q-47 0 -97.5 -14.5t-87.5 -31.5l-26 66q41 20 101 38.5t120 18.5q84 0 138 -44t54 -130q0 -70 -36.5 -136t-94 -127.5t-125 -117t-131.5 -104.5h318l-15 -80h-446z" />
<glyph unicode="&#xb3;" horiz-adv-x="632" d="M125 621l18 75q33 -10 79 -18t93 -8q39 0 73 9t59.5 29.5t40 54.5t14.5 81q0 59 -32 79.5t-95 20.5h-70l14 76h68q70 0 115 39t45 110q0 47 -23.5 70t-83.5 23q-47 0 -90 -11.5t-78 -23.5l-26 67q41 18 94 31.5t106 13.5q80 0 135.5 -35.5t55.5 -121.5q0 -61 -32 -112.5 t-91 -84.5q35 -16 57.5 -46t22.5 -89q0 -123 -77 -190.5t-200 -67.5q-49 0 -98 8t-94 21z" />
<glyph unicode="&#xb4;" horiz-adv-x="565" d="M283 1077l260 264l80 -94l-301 -215z" />
<glyph unicode="&#xb5;" horiz-adv-x="1007" d="M-78 -373q33 55 58.5 105.5t47 108t39 129t35.5 171.5l142 805h102l-110 -647q-4 -25 -7.5 -48.5t-3.5 -43.5q0 -66 32 -101.5t114 -35.5q86 0 165.5 33.5t145.5 72.5l135 770h103l-166 -946h-86l8 102q-66 -51 -149 -86.5t-173 -35.5q-51 0 -95 14t-77 45 q-31 -137 -71.5 -238.5t-92.5 -173.5h-96z" />
<glyph unicode="&#xb6;" horiz-adv-x="911" d="M164 924q0 78 24.5 149.5t73.5 125.5t120 87t163 33h338l-303 -1692h-107l191 1067h-105l-190 -1067h-107l191 1067q-150 0 -219.5 50.5t-69.5 179.5z" />
<glyph unicode="&#xb7;" horiz-adv-x="487" d="M172 444l27 152h131l-27 -152h-131z" />
<glyph unicode="&#xb8;" horiz-adv-x="522" d="M-18 -375l18 56q18 -6 37.5 -10.5t40.5 -4.5q31 0 52.5 11.5t34.5 27.5t19 35.5t6 38.5q0 37 -28.5 55.5t-104.5 20.5l17 51q193 0 192 -123q0 -29 -10 -59.5t-31.5 -57t-55.5 -43t-79 -16.5q-23 0 -53.5 4t-54.5 14z" />
<glyph unicode="&#xb9;" horiz-adv-x="557" d="M227 1221l197 98h82l-127 -719h-90l110 627l-147 -62z" />
<glyph unicode="&#xba;" horiz-adv-x="628" d="M195 987q0 59 15 121.5t48 114t83 84t122 32.5q90 0 134 -49t44 -141q0 -59 -15.5 -121.5t-48 -114t-83.5 -84t-121 -32.5q-90 0 -134 49t-44 141zM281 993q0 -61 23.5 -92t78.5 -31q47 0 80 27t53.5 67t29.5 88t9 91q0 61 -23.5 92t-78.5 31q-47 0 -80 -27t-53.5 -66.5 t-29.5 -88t-9 -91.5z" />
<glyph unicode="&#xbb;" horiz-adv-x="880" d="M41 117q35 29 79 66.5t87 76.5t82 74t63 59q29 27 44.5 52.5t15.5 58.5q0 39 -27 80q-12 18 -35.5 51t-53.5 71t-61.5 77.5t-60.5 76.5l78 66q20 -25 48 -59.5t55.5 -71.5t54 -73t47.5 -64q27 -39 41 -74t14 -78q0 -63 -29.5 -105.5t-74.5 -85.5q-18 -18 -54.5 -50.5 t-79.5 -70.5t-88 -78t-82 -71zM340 117q35 29 79 66.5t87 76.5t82 74t63 59q29 27 44.5 52.5t15.5 58.5q0 39 -27 80q-12 18 -35.5 51t-53.5 71t-61.5 77.5t-60.5 76.5l78 66q20 -25 48 -59.5t55.5 -71.5t54 -73t47.5 -64q27 -39 41 -74t14 -78q0 -63 -29.5 -105.5 t-74.5 -85.5q-18 -18 -54.5 -50.5t-79.5 -70.5t-88 -78t-82 -71z" />
<glyph unicode="&#xbc;" horiz-adv-x="1304" d="M102 0l942 1319h105l-942 -1319h-105zM223 1221l197 98h82l-127 -719h-90l110 627l-147 -62zM588 131l12 68q92 137 182 271t170 249h99q-86 -125 -174.5 -254t-167.5 -254h221l39 168h80l-29 -168h117l-15 -80h-116l-23 -131h-90l22 131h-327z" />
<glyph unicode="&#xbd;" horiz-adv-x="1339" d="M104 0l942 1319h105l-942 -1319h-105zM227 1221l197 98h82l-127 -719h-90l110 627l-147 -62zM737 2l10 61q74 55 150.5 118t139 126.5t102.5 127t40 122.5q0 53 -30.5 80t-83.5 27q-47 0 -97.5 -14.5t-87.5 -31.5l-26 66q41 20 101 38.5t120 18.5q84 0 138 -44t54 -130 q0 -70 -36.5 -136t-94 -127.5t-125 -117t-131.5 -104.5h318l-15 -80h-446z" />
<glyph unicode="&#xbe;" horiz-adv-x="1441" d="M125 621l18 75q33 -10 79 -18t93 -8q39 0 73 9t59.5 29.5t40 54.5t14.5 81q0 59 -32 79.5t-95 20.5h-70l14 76h68q70 0 115 39t45 110q0 47 -23.5 70t-83.5 23q-47 0 -90 -11.5t-78 -23.5l-26 67q41 18 94 31.5t106 13.5q80 0 135.5 -35.5t55.5 -121.5q0 -61 -32 -112.5 t-91 -84.5q35 -16 57.5 -46t22.5 -89q0 -123 -77 -190.5t-200 -67.5q-49 0 -98 8t-94 21zM231 0l943 1319h104l-942 -1319h-105zM717 131l12 68q92 137 182 271t170 249h99q-86 -125 -174 -254t-168 -254h221l39 168h80l-29 -168h117l-15 -80h-116l-23 -131h-90l22 131h-327 z" />
<glyph unicode="&#xbf;" horiz-adv-x="774" d="M-55 -104q0 61 18.5 115.5t49 101.5t70.5 91t85 85q51 49 89 86t64.5 71.5t42 72.5t23.5 89h94q-8 -63 -30.5 -115.5t-56.5 -98.5t-78 -90t-95 -89q-33 -29 -63.5 -63.5t-55 -74.5t-40 -85t-15.5 -94q0 -92 53.5 -147.5t151.5 -55.5q61 0 130 21.5t128 52.5l39 -80 q-72 -39 -148.5 -60.5t-148.5 -21.5q-66 0 -121 18.5t-97 55t-65.5 90t-23.5 125.5zM397 795l27 151h129l-27 -151h-129z" />
<glyph unicode="&#xc0;" horiz-adv-x="1060" d="M-39 0q154 328 318.5 656.5t338.5 662.5h146q57 -334 98 -662.5t72 -656.5h-109q-6 88 -13 174t-17 174h-562q-41 -86 -79.5 -173t-77.5 -175h-115zM279 442h505q-20 197 -44.5 392.5t-59.5 396.5h-8q-104 -195 -201.5 -391.5t-191.5 -397.5zM496 1700l109 53l129 -330 l-54 -26z" />
<glyph unicode="&#xc1;" horiz-adv-x="1060" d="M-39 0q154 328 318.5 656.5t338.5 662.5h146q57 -334 98 -662.5t72 -656.5h-109q-6 88 -13 174t-17 174h-562q-41 -86 -79.5 -173t-77.5 -175h-115zM279 442h505q-20 197 -44.5 392.5t-59.5 396.5h-8q-104 -195 -201.5 -391.5t-191.5 -397.5zM663 1446l260 264l80 -94 l-301 -215z" />
<glyph unicode="&#xc2;" horiz-adv-x="1060" d="M-39 0q154 328 318.5 656.5t338.5 662.5h146q57 -334 98 -662.5t72 -656.5h-109q-6 88 -13 174t-17 174h-562q-41 -86 -79.5 -173t-77.5 -175h-115zM279 442h505q-20 197 -44.5 392.5t-59.5 396.5h-8q-104 -195 -201.5 -391.5t-191.5 -397.5zM447 1442l256 246h90 l174 -246l-51 -39l-177 196l-254 -196z" />
<glyph unicode="&#xc3;" horiz-adv-x="1060" d="M-39 0q154 328 318.5 656.5t338.5 662.5h146q57 -334 98 -662.5t72 -656.5h-109q-6 88 -13 174t-17 174h-562q-41 -86 -79.5 -173t-77.5 -175h-115zM279 442h505q-20 197 -44.5 392.5t-59.5 396.5h-8q-104 -195 -201.5 -391.5t-191.5 -397.5zM441 1507q23 57 63.5 98.5 t106.5 41.5q35 0 67.5 -13.5t69.5 -36.5q45 -27 69.5 -37t53.5 -10q39 0 60.5 17.5t41.5 56.5l47 -25q-23 -57 -63.5 -98t-106.5 -41q-35 0 -67.5 13.5t-69.5 35.5q-45 27 -69.5 37t-53.5 10q-39 0 -60.5 -17t-41.5 -56z" />
<glyph unicode="&#xc4;" horiz-adv-x="1060" d="M-39 0q154 328 318.5 656.5t338.5 662.5h146q57 -334 98 -662.5t72 -656.5h-109q-6 88 -13 174t-17 174h-562q-41 -86 -79.5 -173t-77.5 -175h-115zM279 442h505q-20 197 -44.5 392.5t-59.5 396.5h-8q-104 -195 -201.5 -391.5t-191.5 -397.5zM487 1483l25 143h127 l-25 -143h-127zM819 1483l25 143h129l-25 -143h-129z" />
<glyph unicode="&#xc5;" horiz-adv-x="1060" d="M-39 0q154 328 318.5 656.5t338.5 662.5h146q57 -334 98 -662.5t72 -656.5h-109q-6 88 -13 174t-17 174h-562q-41 -86 -79.5 -173t-77.5 -175h-115zM279 442h505q-20 197 -44.5 392.5t-59.5 396.5h-8q-104 -195 -201.5 -391.5t-191.5 -397.5zM547 1591q0 31 9 66 t30.5 63.5t58.5 48t90 19.5q80 0 138.5 -45t58.5 -133q0 -31 -9.5 -66t-31 -63.5t-58.5 -48t-90 -19.5q-80 0 -138 45t-58 133zM618 1593q0 -35 12.5 -57.5t31 -36.5t41 -19t42.5 -5q35 0 57.5 13t35 33.5t17.5 44t5 42.5q0 35 -12 57.5t-30.5 36.5t-41 19t-43.5 5 q-35 0 -57.5 -13t-34.5 -33.5t-17.5 -44t-5.5 -42.5z" />
<glyph unicode="&#xc6;" horiz-adv-x="1429" d="M-66 0q180 332 369 657.5t393 661.5h785l-17 -94h-622v-492h424l-17 -94h-407v-545h426l-17 -94h-508v348h-510q-47 -86 -93 -173t-93 -175h-113zM285 442h458v779h-4q-117 -193 -230.5 -386.5t-223.5 -392.5z" />
<glyph unicode="&#xc7;" horiz-adv-x="1015" d="M104 449q0 68 8.5 145.5t27 157t47 158.5t67.5 149q88 154 208 217t275 63q78 0 162 -12t164 -33l-21 -90q-68 16 -148.5 28.5t-152.5 12.5q-135 0 -232 -54t-169 -190q-35 -66 -58.5 -140.5t-39 -149t-22.5 -146t-7 -127.5q0 -104 22.5 -173.5t64.5 -111.5t99.5 -60.5 t128.5 -18.5q86 0 174.5 22.5t171.5 63.5l37 -84q-86 -41 -183 -68.5t-204 -27.5q-420 0 -420 469zM359 -375l18 56q18 -6 37.5 -10.5t40.5 -4.5q31 0 52.5 11.5t34.5 27.5t19 35.5t6 38.5q0 37 -28.5 55.5t-104.5 20.5l17 51q193 0 192 -123q0 -29 -10 -59.5t-31.5 -57 t-55.5 -43t-79 -16.5q-23 0 -53.5 4t-54.5 14z" />
<glyph unicode="&#xc8;" horiz-adv-x="954" d="M92 0l232 1319h682l-17 -94h-577l-86 -492h465l-17 -94h-465l-96 -545h580l-17 -94h-684zM518 1700l109 53l129 -330l-54 -26z" />
<glyph unicode="&#xc9;" horiz-adv-x="954" d="M92 0l232 1319h682l-17 -94h-577l-86 -492h465l-17 -94h-465l-96 -545h580l-17 -94h-684zM608 1446l260 264l80 -94l-301 -215z" />
<glyph unicode="&#xca;" horiz-adv-x="954" d="M92 0l232 1319h682l-17 -94h-577l-86 -492h465l-17 -94h-465l-96 -545h580l-17 -94h-684zM437 1442l256 246h90l174 -246l-51 -39l-177 196l-254 -196z" />
<glyph unicode="&#xcb;" horiz-adv-x="954" d="M92 0l232 1319h682l-17 -94h-577l-86 -492h465l-17 -94h-465l-96 -545h580l-17 -94h-684zM463 1483l25 143h127l-25 -143h-127zM795 1483l25 143h129l-25 -143h-129z" />
<glyph unicode="&#xcc;" horiz-adv-x="456" d="M92 0l232 1319h104l-231 -1319h-105zM207 1700l109 53l129 -330l-54 -26z" />
<glyph unicode="&#xcd;" horiz-adv-x="456" d="M92 0l232 1319h104l-231 -1319h-105zM350 1446l260 264l80 -94l-301 -215z" />
<glyph unicode="&#xce;" horiz-adv-x="456" d="M92 0l232 1319h104l-231 -1319h-105zM140 1442l256 246h90l174 -246l-51 -39l-177 196l-254 -196z" />
<glyph unicode="&#xcf;" horiz-adv-x="456" d="M92 0l232 1319h104l-231 -1319h-105zM182 1483l25 143h127l-25 -143h-127zM514 1483l25 143h129l-25 -143h-129z" />
<glyph unicode="&#xd0;" horiz-adv-x="1171" d="M57 657l17 95h159l99 555q20 4 60 9t89 10t99.5 8t91.5 3q225 0 344 -111.5t119 -340.5q0 -59 -8.5 -132t-25 -150t-41 -152.5t-56.5 -141.5q-86 -170 -227.5 -244.5t-366.5 -74.5q-47 0 -131 3t-177 7l115 657h-160zM223 88q59 -4 117.5 -4h105.5q78 0 145.5 13.5 t126 44t106.5 82.5t87 130q29 59 50.5 127t36 137.5t21.5 135t7 120.5q0 205 -96 287t-289 82q-25 0 -55.5 -1t-61 -3t-57.5 -5l-45 -5l-84 -477h309l-16 -95h-309z" />
<glyph unicode="&#xd1;" horiz-adv-x="1271" d="M92 0l232 1319h172l422 -1231h6l215 1231h104l-231 -1319h-172l-422 1231h-6l-215 -1231h-105zM537 1507q23 57 63.5 98.5t106.5 41.5q35 0 67.5 -13.5t69.5 -36.5q45 -27 69.5 -37t53.5 -10q39 0 60.5 17.5t41.5 56.5l47 -25q-23 -57 -63.5 -98t-106.5 -41 q-35 0 -67.5 13.5t-69.5 35.5q-45 27 -69.5 37t-53.5 10q-39 0 -60.5 -17t-41.5 -56z" />
<glyph unicode="&#xd2;" d="M106 410q0 61 8.5 141t27 167t49 174t73.5 165q78 135 196 208.5t298 73.5q201 0 304 -101t103 -329q0 -61 -8 -141t-26.5 -167t-49 -175t-73.5 -164q-78 -135 -196 -208.5t-298 -73.5q-201 0 -304.5 101.5t-103.5 328.5zM215 420q0 -98 21.5 -165t61.5 -106.5t97.5 -57 t128.5 -17.5q139 0 231.5 57t155.5 174q31 57 57.5 130t46 152t31 159.5t11.5 152.5q0 98 -21.5 164.5t-61.5 106.5t-97.5 57.5t-128.5 17.5q-139 0 -231.5 -57.5t-156.5 -173.5q-31 -57 -57.5 -130t-45.5 -152t-30.5 -159.5t-11.5 -152.5zM651 1735l109 53l129 -330 l-54 -26z" />
<glyph unicode="&#xd3;" d="M106 410q0 61 8.5 141t27 167t49 174t73.5 165q78 135 196 208.5t298 73.5q201 0 304 -101t103 -329q0 -61 -8 -141t-26.5 -167t-49 -175t-73.5 -164q-78 -135 -196 -208.5t-298 -73.5q-201 0 -304.5 101.5t-103.5 328.5zM215 420q0 -98 21.5 -165t61.5 -106.5t97.5 -57 t128.5 -17.5q139 0 231.5 57t155.5 174q31 57 57.5 130t46 152t31 159.5t11.5 152.5q0 98 -21.5 164.5t-61.5 106.5t-97.5 57.5t-128.5 17.5q-139 0 -231.5 -57.5t-156.5 -173.5q-31 -57 -57.5 -130t-45.5 -152t-30.5 -159.5t-11.5 -152.5zM710 1446l260 264l80 -94 l-301 -215z" />
<glyph unicode="&#xd4;" d="M106 410q0 61 8.5 141t27 167t49 174t73.5 165q78 135 196 208.5t298 73.5q201 0 304 -101t103 -329q0 -61 -8 -141t-26.5 -167t-49 -175t-73.5 -164q-78 -135 -196 -208.5t-298 -73.5q-201 0 -304.5 101.5t-103.5 328.5zM215 420q0 -98 21.5 -165t61.5 -106.5t97.5 -57 t128.5 -17.5q139 0 231.5 57t155.5 174q31 57 57.5 130t46 152t31 159.5t11.5 152.5q0 98 -21.5 164.5t-61.5 106.5t-97.5 57.5t-128.5 17.5q-139 0 -231.5 -57.5t-156.5 -173.5q-31 -57 -57.5 -130t-45.5 -152t-30.5 -159.5t-11.5 -152.5zM523 1442l256 246h90l174 -246 l-51 -39l-177 196l-254 -196z" />
<glyph unicode="&#xd5;" d="M106 410q0 61 8.5 141t27 167t49 174t73.5 165q78 135 196 208.5t298 73.5q201 0 304 -101t103 -329q0 -61 -8 -141t-26.5 -167t-49 -175t-73.5 -164q-78 -135 -196 -208.5t-298 -73.5q-201 0 -304.5 101.5t-103.5 328.5zM215 420q0 -98 21.5 -165t61.5 -106.5t97.5 -57 t128.5 -17.5q139 0 231.5 57t155.5 174q31 57 57.5 130t46 152t31 159.5t11.5 152.5q0 98 -21.5 164.5t-61.5 106.5t-97.5 57.5t-128.5 17.5q-139 0 -231.5 -57.5t-156.5 -173.5q-31 -57 -57.5 -130t-45.5 -152t-30.5 -159.5t-11.5 -152.5zM516 1507q23 57 63.5 98.5 t106.5 41.5q35 0 67.5 -13.5t69.5 -36.5q45 -27 69.5 -37t53.5 -10q39 0 60.5 17.5t41.5 56.5l47 -25q-23 -57 -63.5 -98t-106.5 -41q-35 0 -67.5 13.5t-69.5 35.5q-45 27 -69.5 37t-53.5 10q-39 0 -60.5 -17t-41.5 -56z" />
<glyph unicode="&#xd6;" d="M106 410q0 61 8.5 141t27 167t49 174t73.5 165q78 135 196 208.5t298 73.5q201 0 304 -101t103 -329q0 -61 -8 -141t-26.5 -167t-49 -175t-73.5 -164q-78 -135 -196 -208.5t-298 -73.5q-201 0 -304.5 101.5t-103.5 328.5zM215 420q0 -98 21.5 -165t61.5 -106.5t97.5 -57 t128.5 -17.5q139 0 231.5 57t155.5 174q31 57 57.5 130t46 152t31 159.5t11.5 152.5q0 98 -21.5 164.5t-61.5 106.5t-97.5 57.5t-128.5 17.5q-139 0 -231.5 -57.5t-156.5 -173.5q-31 -57 -57.5 -130t-45.5 -152t-30.5 -159.5t-11.5 -152.5zM567 1483l25 143h127l-25 -143 h-127zM899 1483l25 143h129l-25 -143h-129z" />
<glyph unicode="&#xd7;" horiz-adv-x="1079" d="M143 164l338 309l-225 299l66 57l223 -299l336 308l51 -66l-338 -309l225 -299l-65 -58l-224 300l-335 -308z" />
<glyph unicode="&#xd8;" d="M43 0l119 145q-55 98 -56 265q0 61 8.5 141t27 167t49 174t73.5 165q78 135 196 208.5t298 73.5q203 0 301 -100l65 80h107l-121 -148q55 -98 55 -262q0 -61 -8 -141t-26.5 -167t-49 -175t-73.5 -164q-78 -135 -196 -208.5t-298 -73.5q-203 0 -301 98l-63 -78h-107z M215 420q0 -109 25 -178l749 911q-41 51 -102.5 71.5t-138.5 20.5q-139 0 -231.5 -57.5t-156.5 -173.5q-31 -57 -57.5 -130t-45.5 -152t-30.5 -159.5t-11.5 -152.5zM283 164q41 -49 101 -69.5t140 -20.5q139 0 231.5 57t155.5 174q31 57 57.5 130t46 152t31 159.5 t11.5 152.5q0 104 -25 176z" />
<glyph unicode="&#xd9;" horiz-adv-x="1224" d="M152 340q0 82 18 184l139 795h105l-138 -782q-18 -104 -18 -183q0 -139 69.5 -209.5t217.5 -70.5q174 0 276 110q53 59 85 144.5t55 208.5l137 782h104l-139 -795q-23 -133 -61.5 -236.5t-106.5 -174.5q-66 -68 -158 -100.5t-202 -32.5q-186 0 -284.5 90t-98.5 270z M600 1700l109 53l129 -330l-54 -26z" />
<glyph unicode="&#xda;" horiz-adv-x="1224" d="M152 340q0 82 18 184l139 795h105l-138 -782q-18 -104 -18 -183q0 -139 69.5 -209.5t217.5 -70.5q174 0 276 110q53 59 85 144.5t55 208.5l137 782h104l-139 -795q-23 -133 -61.5 -236.5t-106.5 -174.5q-66 -68 -158 -100.5t-202 -32.5q-186 0 -284.5 90t-98.5 270z M690 1446l260 264l80 -94l-301 -215z" />
<glyph unicode="&#xdb;" horiz-adv-x="1224" d="M152 340q0 82 18 184l139 795h105l-138 -782q-18 -104 -18 -183q0 -139 69.5 -209.5t217.5 -70.5q174 0 276 110q53 59 85 144.5t55 208.5l137 782h104l-139 -795q-23 -133 -61.5 -236.5t-106.5 -174.5q-66 -68 -158 -100.5t-202 -32.5q-186 0 -284.5 90t-98.5 270z M515 1442l256 246h90l174 -246l-51 -39l-177 196l-254 -196z" />
<glyph unicode="&#xdc;" horiz-adv-x="1224" d="M152 340q0 82 18 184l139 795h105l-138 -782q-18 -104 -18 -183q0 -139 69.5 -209.5t217.5 -70.5q174 0 276 110q53 59 85 144.5t55 208.5l137 782h104l-139 -795q-23 -133 -61.5 -236.5t-106.5 -174.5q-66 -68 -158 -100.5t-202 -32.5q-186 0 -284.5 90t-98.5 270z M547 1483l25 143h127l-25 -143h-127zM879 1483l25 143h129l-25 -143h-129z" />
<glyph unicode="&#xdd;" horiz-adv-x="1021" d="M186 1319h111q41 -197 97.5 -394.5t123.5 -367.5h4q129 170 255 367.5t235 394.5h121q-131 -242 -274.5 -452t-297.5 -416l-80 -451h-104l80 451q-86 207 -155 416.5t-116 451.5zM608 1446l260 264l80 -94l-301 -215z" />
<glyph unicode="&#xde;" horiz-adv-x="1048" d="M92 0l232 1319h104l-47 -270q59 6 116.5 10t110.5 4q205 0 304.5 -69.5t99.5 -235.5q0 -106 -40 -213t-122 -180q-66 -59 -155 -86t-222 -27q-57 0 -110.5 4t-118.5 14l-47 -270h-105zM260 358q41 -6 92 -10t105 -4q109 0 191.5 20.5t139.5 75.5t86 142.5t29 171.5 q0 127 -73.5 171t-235.5 44q-59 0 -112.5 -4t-116.5 -11z" />
<glyph unicode="&#xdf;" horiz-adv-x="1044" d="M82 0l166 944q33 195 131 295t301 100q147 0 225 -52t78 -150q0 -45 -15.5 -81t-42 -68t-63.5 -60.5t-78 -59.5q-88 -63 -139 -101t-51 -83q0 -41 43 -68.5t113 -72.5q92 -59 135 -113.5t43 -140.5q0 -63 -22.5 -119.5t-70 -98.5t-118 -66.5t-168.5 -24.5 q-72 0 -137.5 12t-124.5 35l32 90q51 -18 108.5 -32.5t123.5 -14.5q127 0 199.5 57t72.5 156q0 35 -10 61.5t-28.5 47t-45 39t-57.5 38.5q-55 35 -92 61.5t-59.5 49t-32 46t-9.5 54.5q0 37 13.5 64.5t41 54t67.5 55.5t94 66q82 57 128 102t46 106q0 59 -48.5 90t-152.5 31 q-78 0 -134.5 -18.5t-94 -57t-62.5 -99t-39 -142.5l-164 -932h-102z" />
<glyph unicode="&#xe0;" horiz-adv-x="962" d="M92 297q0 45 6 100.5t17.5 111.5t28 112.5t36.5 103.5q53 121 138 181.5t233 60.5q80 0 170 -16.5t156 -43.5l-160 -907h-86l8 86q-63 -51 -136 -78.5t-149 -27.5q-123 0 -192.5 78.5t-69.5 238.5zM197 307q0 -238 174 -237q76 0 148.5 36.5t127.5 86.5l117 655 q-51 10 -111.5 19.5t-109.5 9.5q-113 0 -175.5 -50.5t-95.5 -136.5q-16 -39 -29.5 -87t-23.5 -98t-16 -101.5t-6 -96.5zM409 1331l109 53l129 -329l-53 -27z" />
<glyph unicode="&#xe1;" horiz-adv-x="962" d="M92 297q0 45 6 100.5t17.5 111.5t28 112.5t36.5 103.5q53 121 138 181.5t233 60.5q80 0 170 -16.5t156 -43.5l-160 -907h-86l8 86q-63 -51 -136 -78.5t-149 -27.5q-123 0 -192.5 78.5t-69.5 238.5zM197 307q0 -238 174 -237q76 0 148.5 36.5t127.5 86.5l117 655 q-51 10 -111.5 19.5t-109.5 9.5q-113 0 -175.5 -50.5t-95.5 -136.5q-16 -39 -29.5 -87t-23.5 -98t-16 -101.5t-6 -96.5zM502 1077l260 264l80 -94l-301 -215z" />
<glyph unicode="&#xe2;" horiz-adv-x="962" d="M92 297q0 45 6 100.5t17.5 111.5t28 112.5t36.5 103.5q53 121 138 181.5t233 60.5q80 0 170 -16.5t156 -43.5l-160 -907h-86l8 86q-63 -51 -136 -78.5t-149 -27.5q-123 0 -192.5 78.5t-69.5 238.5zM197 307q0 -238 174 -237q76 0 148.5 36.5t127.5 86.5l117 655 q-51 10 -111.5 19.5t-109.5 9.5q-113 0 -175.5 -50.5t-95.5 -136.5q-16 -39 -29.5 -87t-23.5 -98t-16 -101.5t-6 -96.5zM330 1073l256 246h90l174 -246l-51 -39l-176 197l-254 -197z" />
<glyph unicode="&#xe3;" horiz-adv-x="962" d="M92 297q0 45 6 100.5t17.5 111.5t28 112.5t36.5 103.5q53 121 138 181.5t233 60.5q80 0 170 -16.5t156 -43.5l-160 -907h-86l8 86q-63 -51 -136 -78.5t-149 -27.5q-123 0 -192.5 78.5t-69.5 238.5zM197 307q0 -238 174 -237q76 0 148.5 36.5t127.5 86.5l117 655 q-51 10 -111.5 19.5t-109.5 9.5q-113 0 -175.5 -50.5t-95.5 -136.5q-16 -39 -29.5 -87t-23.5 -98t-16 -101.5t-6 -96.5zM307 1139q23 57 64 98t106 41q35 0 68 -13.5t69 -35.5q45 -27 70 -37t53 -10q39 0 60.5 17.5t42.5 55.5l47 -24q-23 -57 -64 -98t-106 -41 q-35 0 -67.5 13t-69.5 36q-45 27 -70 37t-53 10q-39 0 -60.5 -17.5t-42.5 -56.5z" />
<glyph unicode="&#xe4;" horiz-adv-x="962" d="M92 297q0 45 6 100.5t17.5 111.5t28 112.5t36.5 103.5q53 121 138 181.5t233 60.5q80 0 170 -16.5t156 -43.5l-160 -907h-86l8 86q-63 -51 -136 -78.5t-149 -27.5q-123 0 -192.5 78.5t-69.5 238.5zM197 307q0 -238 174 -237q76 0 148.5 36.5t127.5 86.5l117 655 q-51 10 -111.5 19.5t-109.5 9.5q-113 0 -175.5 -50.5t-95.5 -136.5q-16 -39 -29.5 -87t-23.5 -98t-16 -101.5t-6 -96.5zM363 1114l24 143h127l-24 -143h-127zM695 1114l24 143h129l-24 -143h-129z" />
<glyph unicode="&#xe5;" horiz-adv-x="958" d="M92 297q0 45 6 100.5t17.5 111.5t28 112.5t36.5 103.5q53 121 138 181.5t233 60.5q80 0 170 -16.5t156 -43.5l-160 -907h-86l8 86q-63 -51 -136 -78.5t-149 -27.5q-123 0 -192.5 78.5t-69.5 238.5zM197 307q0 -238 174 -237q76 0 148.5 36.5t127.5 86.5l117 655 q-51 10 -111.5 19.5t-109.5 9.5q-113 0 -175.5 -50.5t-95.5 -136.5q-16 -39 -29.5 -87t-23.5 -98t-16 -101.5t-6 -96.5zM430 1223q0 31 9.5 65.5t31 63t58 48t90.5 19.5q80 0 138 -45t58 -133q0 -31 -9 -65.5t-30.5 -63.5t-58.5 -48.5t-90 -19.5q-80 0 -138.5 45.5 t-58.5 133.5zM502 1225q0 -35 12.5 -57.5t30.5 -37t41 -19.5t43 -5q35 0 57.5 13.5t34.5 34t17.5 44t5.5 41.5q0 35 -12.5 57.5t-31 37t-41 19.5t-42.5 5q-35 0 -57.5 -13.5t-35 -34t-17.5 -44t-5 -41.5z" />
<glyph unicode="&#xe6;" horiz-adv-x="1449" d="M92 299q0 45 6 100.5t17.5 111.5t28 111.5t36.5 102.5q53 119 137 180.5t222 61.5q74 0 157.5 -16.5t143.5 -43.5l-17 -92q14 27 38 54.5t56.5 49t74.5 35t95 13.5q57 0 108.5 -18.5t89.5 -56.5t60.5 -96.5t22.5 -138.5q0 -49 -9 -105t-28 -114h-577q-12 -61 -13 -127 q0 -49 9.5 -93t32 -76.5t63.5 -52t104 -19.5t134 18t143 51l35 -80q-68 -35 -159 -57t-169 -22q-92 0 -162 34.5t-104 110.5q-94 -86 -164 -115.5t-142 -29.5q-270 0 -270 319zM197 305q0 -236 174 -235q45 0 84 13t73.5 33.5t63.5 45t53 47.5q-6 37 -6 80q0 35 5 79t13 89 l70 395q-37 10 -86 17.5t-96 7.5q-113 0 -173.5 -47.5t-99.5 -141.5q-18 -43 -31.5 -93t-23.5 -100.5t-15 -99.5t-5 -90zM768 522h485q6 31 8.5 62.5t2.5 52.5q0 51 -10.5 94t-33 76t-56.5 51.5t-83 18.5q-37 0 -83 -14.5t-90 -52.5t-82 -107.5t-58 -180.5z" />
<glyph unicode="&#xe7;" horiz-adv-x="841" d="M94 315q0 39 5 88.5t15.5 101.5t26 104.5t37.5 101.5q63 137 160.5 196.5t241.5 59.5q66 0 128 -11.5t119 -27.5l-24 -86q-53 16 -111.5 25.5t-111.5 9.5q-104 0 -182.5 -45.5t-129.5 -167.5q-16 -39 -28.5 -85.5t-21.5 -93.5t-14 -92t-5 -82q0 -242 213 -241 q61 0 130.5 19.5t141.5 51.5l35 -82q-68 -35 -158 -57t-168 -22q-154 0 -226.5 88.5t-72.5 246.5zM218 -375l18 56q18 -6 37.5 -10.5t40.5 -4.5q31 0 52.5 11.5t34.5 27.5t19 35.5t6 38.5q0 37 -28.5 55.5t-104.5 20.5l17 51q193 0 192 -123q0 -29 -10 -59.5t-31.5 -57 t-55.5 -43t-79 -16.5q-23 0 -53.5 4t-54.5 14z" />
<glyph unicode="&#xe8;" horiz-adv-x="913" d="M90 326q0 76 19.5 186.5t72.5 214.5q53 102 141.5 171t223.5 69q80 0 134 -26t88 -69t48 -98t14 -115q0 -45 -7 -103t-19 -118h-602q-4 -33 -6 -62.5t-2 -51.5q0 -57 11 -103.5t36.5 -80.5t69.5 -52t110 -18t135.5 18t140.5 51l35 -80q-68 -35 -158 -57t-172 -22 q-147 0 -230 83t-83 263zM217 522h502q4 29 6 61.5t2 63.5q0 45 -8 87t-28.5 74t-56.5 50.5t-91 18.5q-129 0 -210 -97.5t-116 -257.5zM360 1331l109 53l129 -329l-53 -27z" />
<glyph unicode="&#xe9;" horiz-adv-x="913" d="M90 326q0 76 19.5 186.5t72.5 214.5q53 102 141.5 171t223.5 69q80 0 134 -26t88 -69t48 -98t14 -115q0 -45 -7 -103t-19 -118h-602q-4 -33 -6 -62.5t-2 -51.5q0 -57 11 -103.5t36.5 -80.5t69.5 -52t110 -18t135.5 18t140.5 51l35 -80q-68 -35 -158 -57t-172 -22 q-147 0 -230 83t-83 263zM217 522h502q4 29 6 61.5t2 63.5q0 45 -8 87t-28.5 74t-56.5 50.5t-91 18.5q-129 0 -210 -97.5t-116 -257.5zM461 1077l260 264l80 -94l-301 -215z" />
<glyph unicode="&#xea;" horiz-adv-x="913" d="M90 326q0 76 19.5 186.5t72.5 214.5q53 102 141.5 171t223.5 69q80 0 134 -26t88 -69t48 -98t14 -115q0 -45 -7 -103t-19 -118h-602q-4 -33 -6 -62.5t-2 -51.5q0 -57 11 -103.5t36.5 -80.5t69.5 -52t110 -18t135.5 18t140.5 51l35 -80q-68 -35 -158 -57t-172 -22 q-147 0 -230 83t-83 263zM217 522h502q4 29 6 61.5t2 63.5q0 45 -8 87t-28.5 74t-56.5 50.5t-91 18.5q-129 0 -210 -97.5t-116 -257.5zM303 1073l256 246h90l174 -246l-51 -39l-176 197l-254 -197z" />
<glyph unicode="&#xeb;" horiz-adv-x="913" d="M90 326q0 76 19.5 186.5t72.5 214.5q53 102 141.5 171t223.5 69q80 0 134 -26t88 -69t48 -98t14 -115q0 -45 -7 -103t-19 -118h-602q-4 -33 -6 -62.5t-2 -51.5q0 -57 11 -103.5t36.5 -80.5t69.5 -52t110 -18t135.5 18t140.5 51l35 -80q-68 -35 -158 -57t-172 -22 q-147 0 -230 83t-83 263zM217 522h502q4 29 6 61.5t2 63.5q0 45 -8 87t-28.5 74t-56.5 50.5t-91 18.5q-129 0 -210 -97.5t-116 -257.5zM324 1114l24 143h127l-24 -143h-127zM656 1114l24 143h129l-24 -143h-129z" />
<glyph unicode="&#xec;" horiz-adv-x="432" d="M82 0l166 946h102l-166 -946h-102zM116 1331l109 53l129 -329l-53 -27z" />
<glyph unicode="&#xed;" horiz-adv-x="432" d="M82 0l166 946h102l-166 -946h-102zM263 1077l260 264l80 -94l-301 -215z" />
<glyph unicode="&#xee;" horiz-adv-x="432" d="M70 1073l256 246h90l174 -246l-51 -39l-176 197l-254 -197zM86 0l166 946h102l-166 -946h-102z" />
<glyph unicode="&#xef;" horiz-adv-x="432" d="M82 0l166 946h102l-166 -946h-102zM99 1114l24 143h127l-24 -143h-127zM431 1114l24 143h129l-24 -143h-129z" />
<glyph unicode="&#xf0;" horiz-adv-x="989" d="M90 301q0 92 26.5 210t76.5 216q59 123 149 181.5t219 58.5q35 0 74 -4.5t80 -12.5q-39 113 -119 215l-186 -137l-50 66l181 133q-31 31 -65 58.5t-73 55.5l56 68q43 -29 84 -59.5t75 -65.5l150 111l49 -68l-141 -102q90 -106 141 -245.5t51 -326.5q0 -98 -19.5 -217 t-72.5 -223q-25 -47 -57.5 -89t-78.5 -74t-104.5 -51t-134.5 -19q-150 0 -230.5 80.5t-80.5 240.5zM195 315q0 -72 15 -118.5t44 -75.5t68.5 -40t87.5 -11q98 0 164.5 43t111.5 135q27 55 43 117.5t23.5 119t9.5 101.5t2 65q0 55 -6 106.5t-17 98.5q-88 20 -161 21 q-111 0 -180.5 -45.5t-116.5 -141.5q-43 -86 -65.5 -187.5t-22.5 -187.5z" />
<glyph unicode="&#xf1;" horiz-adv-x="993" d="M82 0l166 946h86l-8 -102q63 51 149 87t176 36q47 0 89 -13.5t74 -41t50.5 -70.5t18.5 -103q0 -16 -3 -35.5t-8 -46.5l-114 -657h-103l113 647q10 51 10 94q0 61 -31.5 98.5t-111.5 37.5q-86 0 -169 -34t-147 -73l-135 -770h-102zM338 1139q23 57 64 98t106 41 q35 0 68 -13.5t69 -35.5q45 -27 70 -37t53 -10q39 0 60.5 17.5t42.5 55.5l47 -24q-23 -57 -64 -98t-106 -41q-35 0 -67.5 13t-69.5 36q-45 27 -70 37t-53 10q-39 0 -60.5 -17.5t-42.5 -56.5z" />
<glyph unicode="&#xf2;" horiz-adv-x="970" d="M88 326q0 55 8 112.5t22.5 113.5t34 107.5t44.5 92.5q55 98 144 156.5t222 58.5q160 0 237 -90.5t77 -255.5q0 -55 -8.5 -112.5t-23 -114t-33.5 -107.5t-44 -92q-55 -98 -144 -156.5t-223 -58.5q-160 0 -236.5 90t-76.5 256zM193 334q0 -57 10 -105.5t35.5 -84t67.5 -55 t104 -19.5q82 0 153.5 41t124.5 145q43 84 63.5 179t20.5 177q0 57 -10 105.5t-36 83.5t-68 55.5t-103 20.5q-82 0 -153.5 -41t-125.5 -146q-43 -84 -63 -179t-20 -177zM424 1331l109 53l129 -329l-53 -27z" />
<glyph unicode="&#xf3;" horiz-adv-x="970" d="M88 326q0 55 8 112.5t22.5 113.5t34 107.5t44.5 92.5q55 98 144 156.5t222 58.5q160 0 237 -90.5t77 -255.5q0 -55 -8.5 -112.5t-23 -114t-33.5 -107.5t-44 -92q-55 -98 -144 -156.5t-223 -58.5q-160 0 -236.5 90t-76.5 256zM193 334q0 -57 10 -105.5t35.5 -84t67.5 -55 t104 -19.5q82 0 153.5 41t124.5 145q43 84 63.5 179t20.5 177q0 57 -10 105.5t-36 83.5t-68 55.5t-103 20.5q-82 0 -153.5 -41t-125.5 -146q-43 -84 -63 -179t-20 -177zM539 1077l260 264l80 -94l-301 -215z" />
<glyph unicode="&#xf4;" horiz-adv-x="970" d="M88 326q0 55 8 112.5t22.5 113.5t34 107.5t44.5 92.5q55 98 144 156.5t222 58.5q160 0 237 -90.5t77 -255.5q0 -55 -8.5 -112.5t-23 -114t-33.5 -107.5t-44 -92q-55 -98 -144 -156.5t-223 -58.5q-160 0 -236.5 90t-76.5 256zM193 334q0 -57 10 -105.5t35.5 -84t67.5 -55 t104 -19.5q82 0 153.5 41t124.5 145q43 84 63.5 179t20.5 177q0 57 -10 105.5t-36 83.5t-68 55.5t-103 20.5q-82 0 -153.5 -41t-125.5 -146q-43 -84 -63 -179t-20 -177zM330 1073l256 246h90l174 -246l-51 -39l-176 197l-254 -197z" />
<glyph unicode="&#xf5;" horiz-adv-x="970" d="M88 326q0 55 8 112.5t22.5 113.5t34 107.5t44.5 92.5q55 98 144 156.5t222 58.5q160 0 237 -90.5t77 -255.5q0 -55 -8.5 -112.5t-23 -114t-33.5 -107.5t-44 -92q-55 -98 -144 -156.5t-223 -58.5q-160 0 -236.5 90t-76.5 256zM193 334q0 -57 10 -105.5t35.5 -84t67.5 -55 t104 -19.5q82 0 153.5 41t124.5 145q43 84 63.5 179t20.5 177q0 57 -10 105.5t-36 83.5t-68 55.5t-103 20.5q-82 0 -153.5 -41t-125.5 -146q-43 -84 -63 -179t-20 -177zM313 1139q23 57 64 98t106 41q35 0 68 -13.5t69 -35.5q45 -27 70 -37t53 -10q39 0 60.5 17.5t42.5 55.5 l47 -24q-23 -57 -64 -98t-106 -41q-35 0 -67.5 13t-69.5 36q-45 27 -70 37t-53 10q-39 0 -60.5 -17.5t-42.5 -56.5z" />
<glyph unicode="&#xf6;" horiz-adv-x="970" d="M88 326q0 55 8 112.5t22.5 113.5t34 107.5t44.5 92.5q55 98 144 156.5t222 58.5q160 0 237 -90.5t77 -255.5q0 -55 -8.5 -112.5t-23 -114t-33.5 -107.5t-44 -92q-55 -98 -144 -156.5t-223 -58.5q-160 0 -236.5 90t-76.5 256zM193 334q0 -57 10 -105.5t35.5 -84t67.5 -55 t104 -19.5q82 0 153.5 41t124.5 145q43 84 63.5 179t20.5 177q0 57 -10 105.5t-36 83.5t-68 55.5t-103 20.5q-82 0 -153.5 -41t-125.5 -146q-43 -84 -63 -179t-20 -177zM363 1114l24 143h127l-24 -143h-127zM695 1114l24 143h129l-24 -143h-129z" />
<glyph unicode="&#xf7;" horiz-adv-x="1275" d="M188 434l15 78h882l-14 -78h-883zM492 0l26 147h129l-26 -147h-129zM627 799l26 147h129l-26 -147h-129z" />
<glyph unicode="&#xf8;" horiz-adv-x="970" d="M20 0l109 125q-41 76 -41 201q0 55 8 112.5t22.5 113.5t34 107.5t44.5 92.5q55 98 144 156.5t222 58.5q147 0 225 -82l54 61h102l-108 -125q41 -82 41 -200q0 -55 -8.5 -112.5t-23 -114t-33.5 -107.5t-44 -92q-55 -98 -144 -156.5t-223 -58.5q-147 0 -229 81l-53 -61h-99 zM193 334q0 -70 14 -121l514 594q-27 33 -67 51.5t-99 18.5q-82 0 -153.5 -41t-125.5 -146q-43 -84 -63 -179t-20 -177zM242 141q25 -35 65.5 -53t102.5 -18q82 0 153.5 41t124.5 145q43 84 63.5 179t20.5 177q0 70 -14 119z" />
<glyph unicode="&#xf9;" horiz-adv-x="989" d="M109 201q0 16 2 37.5t6 50.5l114 657h103l-111 -647q-4 -29 -7 -52.5t-3 -43.5q0 -133 145 -133q86 0 165 33.5t145 72.5l135 770h102l-166 -946h-86l9 102q-66 -51 -148 -86.5t-172 -35.5q-49 0 -92 12t-75 38.5t-49 69t-17 101.5zM409 1331l109 53l129 -329l-53 -27z " />
<glyph unicode="&#xfa;" horiz-adv-x="989" d="M109 201q0 16 2 37.5t6 50.5l114 657h103l-111 -647q-4 -29 -7 -52.5t-3 -43.5q0 -133 145 -133q86 0 165 33.5t145 72.5l135 770h102l-166 -946h-86l9 102q-66 -51 -148 -86.5t-172 -35.5q-49 0 -92 12t-75 38.5t-49 69t-17 101.5zM533 1077l260 264l80 -94l-301 -215z " />
<glyph unicode="&#xfb;" horiz-adv-x="989" d="M109 201q0 16 2 37.5t6 50.5l114 657h103l-111 -647q-4 -29 -7 -52.5t-3 -43.5q0 -133 145 -133q86 0 165 33.5t145 72.5l135 770h102l-166 -946h-86l9 102q-66 -51 -148 -86.5t-172 -35.5q-49 0 -92 12t-75 38.5t-49 69t-17 101.5zM328 1073l256 246h90l174 -246 l-51 -39l-176 197l-254 -197z" />
<glyph unicode="&#xfc;" horiz-adv-x="989" d="M109 201q0 16 2 37.5t6 50.5l114 657h103l-111 -647q-4 -29 -7 -52.5t-3 -43.5q0 -133 145 -133q86 0 165 33.5t145 72.5l135 770h102l-166 -946h-86l9 102q-66 -51 -148 -86.5t-172 -35.5q-49 0 -92 12t-75 38.5t-49 69t-17 101.5zM357 1114l24 143h127l-24 -143h-127z M689 1114l24 143h129l-24 -143h-129z" />
<glyph unicode="&#xfd;" horiz-adv-x="837" d="M119 -373q49 86 101 180.5t104 192.5h-60q-41 182 -73.5 424t-61.5 522h109q18 -233 45.5 -451.5t68.5 -410.5h8q100 203 202 428t179 434h105q-59 -154 -132 -321.5t-154 -338.5t-167 -339t-174 -320h-100zM465 1077l260 264l80 -94l-301 -215z" />
<glyph unicode="&#xfe;" horiz-adv-x="983" d="M14 -373l297 1692h103l-82 -465q57 47 122.5 80t153.5 33q129 0 195.5 -80t66.5 -240q0 -47 -6 -101t-16 -110.5t-26.5 -112t-37.5 -102.5q-53 -119 -139 -180t-227 -61q-49 0 -111.5 7t-122.5 21l-67 -381h-103zM199 92q47 -10 103 -19.5t108 -9.5q94 0 162.5 42 t117.5 149q37 80 56.5 179t19.5 196q0 129 -39 191.5t-133 62.5q-78 0 -148.5 -36t-130.5 -89z" />
<glyph unicode="&#xff;" horiz-adv-x="837" d="M119 -373q49 86 101 180.5t104 192.5h-60q-41 182 -73.5 424t-61.5 522h109q18 -233 45.5 -451.5t68.5 -410.5h8q100 203 202 428t179 434h105q-59 -154 -132 -321.5t-154 -338.5t-167 -339t-174 -320h-100zM295 1114l24 143h127l-24 -143h-127zM627 1114l24 143h129 l-24 -143h-129z" />
<glyph unicode="&#x152;" horiz-adv-x="1519" d="M106 451q0 61 7.5 131.5t23 142.5t39 143.5t55.5 135.5q84 166 217.5 240.5t315.5 74.5h807l-17 -94h-524l-86 -492h412l-17 -94h-411l-97 -545h527l-19 -94h-809q-203 0 -313.5 109t-110.5 342zM213 446q0 -98 22.5 -165.5t65.5 -108.5t105.5 -59.5t140.5 -18.5h180 l199 1131h-178q-141 0 -251 -61.5t-180 -215.5q-51 -115 -77.5 -243t-26.5 -259z" />
<glyph unicode="&#x153;" horiz-adv-x="1529" d="M88 326q0 45 6 100t20.5 112.5t36 114t52.5 107.5q125 207 356 207q227 0 287 -195q59 98 149 146.5t195 48.5q125 0 199.5 -73t74.5 -232q0 -53 -9 -109.5t-28 -114.5h-581q-4 -31 -7 -60.5t-3 -60.5q0 -113 48 -180t165 -67q61 0 131.5 18t142.5 51l35 -80 q-68 -35 -158 -57t-170 -22q-53 0 -100 11t-84 37.5t-62.5 67.5t-33.5 101q-66 -106 -155 -161.5t-204 -55.5q-141 0 -222 87t-81 259zM193 342q0 -55 10 -105.5t34.5 -87t64.5 -58t99 -21.5q88 0 157 47t118 137q43 78 64.5 171t21.5 179q0 55 -10.5 105.5t-35 87.5 t-64.5 58.5t-99 21.5q-88 0 -156.5 -47.5t-117.5 -137.5q-43 -78 -64.5 -171t-21.5 -179zM860 522h486q6 31 10 62.5t4 66.5q0 43 -8.5 84t-27.5 73t-54 51.5t-88 19.5q-66 0 -118 -29t-92 -77t-69 -112.5t-43 -138.5z" />
<glyph unicode="&#x178;" horiz-adv-x="1021" d="M186 1319h111q41 -197 97.5 -394.5t123.5 -367.5h4q129 170 255 367.5t235 394.5h121q-131 -242 -274.5 -452t-297.5 -416l-80 -451h-104l80 451q-86 207 -155 416.5t-116 451.5zM461 1483l25 143h127l-25 -143h-127zM793 1483l25 143h129l-25 -143h-129z" />
<glyph unicode="&#x2c6;" horiz-adv-x="825" d="M256 1073l256 246h90l174 -246l-51 -39l-176 197l-254 -197z" />
<glyph unicode="&#x2dc;" horiz-adv-x="782" d="M225 1139q23 57 64 98t106 41q35 0 68 -13.5t69 -35.5q45 -27 70 -37t53 -10q39 0 60.5 17.5t42.5 55.5l47 -24q-23 -57 -64 -98t-106 -41q-35 0 -67.5 13t-69.5 36q-45 27 -70 37t-53 10q-39 0 -60.5 -17.5t-42.5 -56.5z" />
<glyph unicode="&#x2000;" horiz-adv-x="894" />
<glyph unicode="&#x2001;" horiz-adv-x="1788" />
<glyph unicode="&#x2002;" horiz-adv-x="894" />
<glyph unicode="&#x2003;" horiz-adv-x="1788" />
<glyph unicode="&#x2004;" horiz-adv-x="596" />
<glyph unicode="&#x2005;" horiz-adv-x="447" />
<glyph unicode="&#x2006;" horiz-adv-x="298" />
<glyph unicode="&#x2007;" horiz-adv-x="298" />
<glyph unicode="&#x2008;" horiz-adv-x="223" />
<glyph unicode="&#x2009;" horiz-adv-x="357" />
<glyph unicode="&#x200a;" horiz-adv-x="99" />
<glyph unicode="&#x2010;" horiz-adv-x="602" d="M100 457l17 94h395l-16 -94h-396z" />
<glyph unicode="&#x2011;" horiz-adv-x="602" d="M100 457l17 94h395l-16 -94h-396z" />
<glyph unicode="&#x2012;" horiz-adv-x="602" d="M100 457l17 94h395l-16 -94h-396z" />
<glyph unicode="&#x2013;" horiz-adv-x="1320" d="M193 461l14 86h930l-15 -86h-929z" />
<glyph unicode="&#x2014;" horiz-adv-x="1476" d="M90 461l14 86h1289l-15 -86h-1288z" />
<glyph unicode="&#x2018;" horiz-adv-x="495" d="M262 954q20 113 56 206t94 163l53 -8q-33 -82 -53.5 -170t-22.5 -182z" />
<glyph unicode="&#x2019;" horiz-adv-x="497" d="M262 963q35 80 54.5 170t23.5 182l127 8q-18 -113 -55 -206t-97 -163z" />
<glyph unicode="&#x201a;" horiz-adv-x="497" d="M43 -208q35 80 54.5 170t23.5 182l127 8q-18 -113 -55 -206t-97 -163z" />
<glyph unicode="&#x201c;" horiz-adv-x="716" d="M262 954q20 113 56 206t94 163l53 -8q-33 -82 -53.5 -170t-22.5 -182zM483 954q20 113 56 206t94 163l53 -8q-33 -82 -53.5 -170t-22.5 -182z" />
<glyph unicode="&#x201d;" horiz-adv-x="716" d="M262 963q35 80 54.5 170t23.5 182l127 8q-18 -113 -55 -206t-97 -163zM481 963q35 80 54.5 170t23.5 182l127 8q-18 -113 -55 -206t-97 -163z" />
<glyph unicode="&#x201e;" horiz-adv-x="716" d="M43 -208q35 80 54.5 170t23.5 182l127 8q-18 -113 -55 -206t-97 -163zM262 -208q35 80 54.5 170t23.5 182l127 8q-18 -113 -55 -206t-97 -163z" />
<glyph unicode="&#x2022;" horiz-adv-x="753" d="M209 627q0 45 14.5 87t44 75.5t72.5 54t98 20.5q76 0 116 -40t40 -111q0 -45 -15.5 -88t-45 -76t-74 -52.5t-99.5 -19.5q-152 0 -151 150z" />
<glyph unicode="&#x2026;" horiz-adv-x="1245" d="M129 0l27 152h131l-27 -152h-131zM471 0l27 152h131l-27 -152h-131zM815 0l27 152h131l-27 -152h-131z" />
<glyph unicode="&#x202f;" horiz-adv-x="357" />
<glyph unicode="&#x2039;" horiz-adv-x="573" d="M66 469q0 63 29.5 105t74.5 85q18 18 54 51t79 71t88 78t82 71l64 -72q-35 -29 -79 -66.5t-87 -76.5t-82 -74t-64 -59q-29 -27 -44 -52.5t-15 -58.5q0 -41 27 -80q12 -18 35.5 -51t52 -71t61.5 -77.5t61 -76.5l-77 -66q-20 25 -48 59.5t-55.5 71.5t-54.5 73t-47 64 q-27 39 -41 74t-14 78z" />
<glyph unicode="&#x203a;" horiz-adv-x="579" d="M41 121q35 29 79 66.5t87 76.5t82 74t63 59q29 27 44.5 52.5t15.5 58.5q0 39 -27 80q-12 18 -35.5 51t-53.5 71t-61.5 77.5t-60.5 76.5l78 66q20 -25 48 -59.5t55.5 -71.5t54 -73t47.5 -64q27 -39 41 -74t14 -78q0 -63 -29.5 -105.5t-74.5 -85.5q-18 -18 -54.5 -50.5 t-79.5 -70.5t-88 -78t-82 -71z" />
<glyph unicode="&#x205f;" horiz-adv-x="447" />
<glyph unicode="&#x20ac;" horiz-adv-x="1060" d="M49 483l17 95h145q4 45 11 91t18 93h-144l17 94h151q43 135 97.5 227.5t122 149.5t147.5 81.5t174 24.5q72 0 150.5 -12t154.5 -33l-20 -90q-63 16 -140.5 28.5t-142.5 12.5q-78 0 -142.5 -20.5t-116.5 -66.5t-95 -119.5t-78 -182.5h454l-16 -94h-463q-10 -47 -18 -94 t-13 -90h465l-16 -95h-455v-45q0 -102 20.5 -171.5t59.5 -112.5t93.5 -61.5t119.5 -18.5q80 0 164 22.5t162 63.5l37 -84q-82 -41 -174.5 -68.5t-192.5 -27.5q-197 0 -297 115.5t-100 353.5v34h-156z" />
<glyph unicode="&#x2122;" horiz-adv-x="1368" d="M195 1241l14 78h518l-14 -78h-215l-115 -655h-88l115 655h-215zM684 586l141 733h103l119 -465h2l282 465h111l-117 -733h-90l90 573h-2l-252 -420h-80l-108 420h-2l-107 -573h-90z" />
<glyph unicode="&#x25fc;" horiz-adv-x="942" d="M0 0v942h942v-942h-942z" />
</font>
</defs>
</svg>
