<?xml version="1.0" standalone="no"?>
<!DOCTYPE svg PUBLIC "-//W3C//DTD SVG 1.1//EN" "http://www.w3.org/Graphics/SVG/1.1/DTD/svg11.dtd" >
<svg xmlns="http://www.w3.org/2000/svg" xmlns:xlink="http://www.w3.org/1999/xlink" version="1.1">
<metadata></metadata>
<defs>
<font id="liberty_global_gestaitalic" horiz-adv-x="448" >
<font-face units-per-em="2048" ascent="1497" descent="-551" />
<missing-glyph horiz-adv-x="425" />
<glyph unicode="&#xfb01;" horiz-adv-x="1032" d="M104 0l146 827h-127l18 101l127 10l23 127q12 74 34.5 126t56.5 85t84 48t118 15q33 0 71.5 -3t75.5 -9l-14 -123q-29 4 -62.5 6t-62.5 2q-37 0 -62.5 -6t-44 -22.5t-31 -46t-20.5 -78.5l-20 -113h553l-166 -946h-144l146 827h-410l-145 -827h-144zM856 1139l33 180h143 l-33 -180h-143z" />
<glyph unicode="&#xfb02;" horiz-adv-x="1032" d="M104 0l146 827h-127l18 101l127 10l23 127q12 74 34.5 126t56.5 85t84 48t118 15q33 0 71.5 -3t75.5 -9l-14 -123q-29 4 -62.5 6t-62.5 2q-37 0 -62.5 -6t-44 -22.5t-31 -46t-20.5 -78.5l-20 -113h194l-20 -119h-195l-145 -827h-144zM654 0l231 1319h143l-231 -1319h-143 z" />
<glyph horiz-adv-x="0" />
<glyph horiz-adv-x="0" />
<glyph unicode="&#xd;" horiz-adv-x="464" />
<glyph unicode=" "  horiz-adv-x="425" />
<glyph unicode="&#x09;" horiz-adv-x="425" />
<glyph unicode="&#xa0;" horiz-adv-x="425" />
<glyph unicode="!" horiz-adv-x="534" d="M102 0l31 176h162l-31 -176h-162zM201 367l127 952h176l-207 -952h-96z" />
<glyph unicode="&#x22;" horiz-adv-x="589" d="M205 1006q0 66 9 157.5t28 196.5h151q-27 -145 -62.5 -262t-66.5 -176h-53q-6 31 -6 84zM463 1006q0 66 9 157.5t28 196.5h151q-27 -145 -62.5 -262t-66.5 -176h-53q-6 31 -6 84z" />
<glyph unicode="#" horiz-adv-x="1171" d="M57 383l33 96h219l127 361h-219l33 96h219l131 383h107l-134 -383h283l131 383h107l-133 -383h219l-33 -96h-219l-127 -361h219l-33 -96h-219l-131 -383h-107l134 383h-283l-131 -383h-107l133 383h-219zM414 479h282l127 361h-282z" />
<glyph unicode="$" horiz-adv-x="1044" d="M53 23l27 135q72 -16 150.5 -30.5t160.5 -14.5q80 0 153.5 20.5t125.5 73.5q35 35 54 84t19 108q0 53 -17 88t-50 58.5t-77 41t-99 38.5q-63 25 -116.5 51t-91.5 63t-58.5 87.5t-20.5 119.5q0 98 38 170t93 119q53 45 118.5 68.5t143.5 31.5l33 189h143l-32 -187 q59 -4 120.5 -12t116.5 -18l-22 -136q-57 12 -137 23.5t-146 11.5q-72 0 -132.5 -17.5t-100.5 -51.5q-39 -33 -60.5 -81t-21.5 -104q0 -49 17 -79.5t50 -53t80 -41t107 -43.5q59 -25 110 -52.5t88 -65t57.5 -90t20.5 -124.5q0 -86 -31.5 -166.5t-97.5 -140.5 q-98 -90 -258 -108l-33 -193h-143l33 185q-82 2 -164 14t-150 29z" />
<glyph unicode="%" horiz-adv-x="1400" d="M164 946q0 68 19.5 137.5t60.5 126t103.5 93t150.5 36.5q215 0 215 -231q0 -68 -19.5 -137.5t-60.5 -126t-103.5 -93t-150.5 -36.5q-215 0 -215 231zM188 0l957 1319h135l-956 -1319h-136zM283 954q-1 -139 110 -139q55 0 94 28.5t62.5 70.5t34 92.5t10.5 93.5 q0 139 -111 139q-55 0 -94 -28.5t-62.5 -70.5t-33.5 -92.5t-10 -93.5zM756 211q0 68 19.5 137.5t60.5 125.5t103 93t151 37q215 0 215 -231q0 -68 -19.5 -137.5t-60.5 -126t-103.5 -93t-150.5 -36.5q-215 0 -215 231zM874 219q0 -139 111 -139q55 0 94 28.5t62.5 70.5 t34 92.5t10.5 93.5q0 139 -111 139q-55 0 -94 -29t-62.5 -71t-34 -92t-10.5 -93z" />
<glyph unicode="&#x26;" horiz-adv-x="1181" d="M59 297q0 66 18.5 120t51.5 99t80 84t102 74l115 71l-20 27q-43 55 -70 122t-27 136q0 61 22.5 117.5t65.5 98.5t106.5 67.5t145.5 25.5q141 0 213 -70.5t72 -178.5q0 -59 -20.5 -106.5t-54.5 -87.5t-79 -74t-94 -64l-61 -39q61 -78 126.5 -155t143.5 -167q37 43 70.5 86 t72.5 95l105 -76q-41 -55 -80 -104.5t-82 -98.5l141 -154l-104 -92l-131 144q-49 -49 -98.5 -89t-104.5 -69t-118.5 -44t-139.5 -15q-186 0 -276.5 88t-90.5 229zM213 305q0 -86 54.5 -139t178.5 -53q59 0 106.5 13t88.5 36.5t80 57.5t80 75q-86 96 -157 179t-138 169 l-98 -61q-37 -25 -73 -52.5t-62.5 -61.5t-43 -74t-16.5 -89zM461 1034q0 -51 19.5 -100t47.5 -90l17 -23l51 33q39 25 72.5 48.5t59.5 49t40 56t14 69.5q0 61 -36.5 97t-104.5 36q-82 0 -131 -49t-49 -127z" />
<glyph unicode="'" horiz-adv-x="331" d="M205 1006q0 66 9 157.5t28 196.5h151q-27 -145 -62.5 -262t-66.5 -176h-53q-6 31 -6 84z" />
<glyph unicode="(" horiz-adv-x="489" d="M53 215q0 156 34 321.5t99 323.5q117 279 332 502l84 -59q-84 -102 -157.5 -219t-131.5 -261q-57 -145 -87.5 -298.5t-30.5 -313.5q0 -164 30.5 -297t83.5 -246l-90 -59q-166 260 -166 606z" />
<glyph unicode=")" horiz-adv-x="489" d="M-115 -332q84 102 158 219t131 260q57 145 88 299t31 314q0 164 -31 297t-84 246l90 59q166 -262 166 -606q0 -156 -33.5 -322t-99.5 -323q-117 -279 -332 -502z" />
<glyph unicode="*" horiz-adv-x="671" d="M176 944l184 105l-147 104l49 68l146 -105l34 203h80l-35 -203l183 103l26 -66l-186 -104l149 -105l-51 -65l-143 102l-37 -203h-80l37 203l-184 -102z" />
<glyph unicode="+" horiz-adv-x="1236" d="M166 420l18 106h379l74 420h123l-74 -420h383l-18 -106h-383l-74 -420h-123l74 420h-379z" />
<glyph unicode="," horiz-adv-x="483" d="M33 -236q76 186 78 398l153 8q-6 -121 -52 -223.5t-120 -188.5z" />
<glyph unicode="-" horiz-adv-x="593" d="M86 442l23 133h409l-22 -133h-410z" />
<glyph unicode="." horiz-adv-x="481" d="M76 0l30 176h162l-30 -176h-162z" />
<glyph unicode="/" horiz-adv-x="743" d="M-35 0l744 1319h135l-744 -1319h-135z" />
<glyph unicode="0" horiz-adv-x="1120" d="M123 362q0 61 7 138.5t21.5 160t34 162.5t41.5 148q61 180 168 274t301 94q199 0 281 -99t82 -284q0 -61 -8.5 -138t-21.5 -160t-32.5 -162.5t-42.5 -147.5q-31 -90 -71.5 -158.5t-96 -115.5t-129 -70.5t-170.5 -23.5q-201 0 -282.5 99t-81.5 283zM276 367 q0 -123 46.5 -188.5t175.5 -65.5q141 0 211.5 79.5t113.5 231.5q14 53 29.5 120.5t27 138.5t18.5 140.5t7 128.5q0 61 -10 108.5t-34.5 80.5t-67.5 49t-109 16q-133 0 -205.5 -74.5t-118.5 -236.5q-16 -53 -30.5 -121.5t-26.5 -139.5t-19.5 -140.5t-7.5 -126.5z" />
<glyph unicode="1" horiz-adv-x="765" d="M188 1157l357 162h139l-231 -1319h-152l205 1165l-275 -106z" />
<glyph unicode="2" horiz-adv-x="1019" d="M41 0l18 109q158 131 297.5 250.5t242.5 232.5t162.5 219.5t59.5 208.5q0 186 -211 186q-88 0 -172 -25.5t-159 -58.5l-41 117q82 39 185 69.5t210 30.5q160 0 251 -78.5t91 -222.5q0 -123 -65.5 -243.5t-169 -235.5t-229.5 -222.5t-247 -203.5h590l-23 -133h-790z" />
<glyph unicode="3" horiz-adv-x="921" d="M-8 23l26 131q61 -16 140.5 -28.5t158.5 -12.5q82 0 151 18.5t116 69.5t64.5 117.5t17.5 123.5q0 100 -51.5 140.5t-168.5 40.5h-135l23 131h147q72 0 122 24.5t82 64.5t46 90t14 101q0 92 -48 132t-146 40q-92 0 -172 -25.5t-150 -56.5l-43 117q72 37 172.5 67.5 t210.5 30.5q150 0 240 -68.5t90 -215.5q0 -57 -14.5 -113.5t-44 -105t-72.5 -84t-100 -54.5q78 -29 114.5 -97.5t36.5 -160.5t-33.5 -185t-97.5 -157q-68 -68 -162 -93t-209 -25q-86 0 -167.5 11t-157.5 32z" />
<glyph unicode="4" horiz-adv-x="1058" d="M25 256l20 113q68 100 146.5 213.5t165.5 234.5t179.5 248t186.5 254h162q-176 -236 -345 -470.5t-323 -461.5h416l69 320h138l-56 -320h230l-23 -131h-229l-45 -256h-152l45 256h-585z" />
<glyph unicode="5" horiz-adv-x="987" d="M35 18l26 132q72 -14 158 -25.5t160 -11.5q199 0 278 110q41 55 58.5 127t17.5 129q0 111 -60.5 151t-180.5 40q-74 0 -143.5 -12.5t-139.5 -30.5l-53 51l133 641h678l-23 -133h-532l-86 -414q51 12 101 19.5t105 7.5q174 0 264.5 -73t90.5 -226q0 -104 -35 -209 t-94 -172q-121 -139 -389 -139q-76 0 -166 10t-168 28z" />
<glyph unicode="6" horiz-adv-x="1052" d="M125 352q0 63 9 150.5t27.5 180.5t47.5 186.5t67 172.5q72 147 184.5 222t291.5 75q61 0 133.5 -8t136.5 -24l-25 -131q-53 14 -123.5 22t-125.5 8q-78 0 -142.5 -21.5t-117 -73.5t-92.5 -143t-66 -229q27 12 66.5 22.5t82.5 20t88 14.5t86 5q57 0 113.5 -14.5t100.5 -48 t71 -91t27 -143.5t-30 -189.5t-99 -187.5q-70 -82 -159 -114.5t-200 -32.5q-180 0 -266 85.5t-86 286.5zM279 354q0 -123 48 -182t167 -59q72 0 130 22.5t105 81.5t64.5 136t17.5 130q0 57 -15.5 95t-44 59.5t-68.5 30t-89 8.5q-82 0 -153.5 -16.5t-131.5 -38.5 q-10 -53 -20 -127t-10 -140z" />
<glyph unicode="7" horiz-adv-x="868" d="M145 0q98 172 181.5 319.5t160 286.5t152.5 279.5t160 300.5h-629l23 133h784l-19 -105q-78 -152 -154.5 -298t-157.5 -294.5t-167 -302t-180 -319.5h-154z" />
<glyph unicode="8" horiz-adv-x="1071" d="M84 287q0 76 21.5 143.5t61.5 121.5t95 91t121 49q-72 29 -114 85.5t-42 154.5q0 88 35 168t100 137q63 53 144.5 77.5t173.5 24.5q166 0 256 -72.5t90 -213.5q0 -66 -19.5 -124.5t-53 -105.5t-80 -81.5t-99.5 -53.5q78 -29 123 -92.5t45 -163.5q0 -86 -35 -179 t-104 -159q-125 -115 -346 -114q-190 0 -281.5 78.5t-91.5 228.5zM238 317q0 -113 63.5 -158.5t163.5 -45.5q82 0 145.5 25.5t102.5 66.5q43 47 59 104.5t16 108.5q0 115 -62 160t-167 45q-76 0 -140.5 -21.5t-105.5 -66.5q-43 -47 -59 -107t-16 -111zM381 934 q0 -102 56.5 -141t148.5 -39q141 0 215 77q39 41 55 92.5t16 100.5q0 100 -57 141t-145 41q-72 0 -128.5 -22.5t-90.5 -57.5q-41 -41 -55.5 -94t-14.5 -98z" />
<glyph unicode="9" horiz-adv-x="1052" d="M94 12l25 131q53 -14 123.5 -22t126.5 -8q76 0 140 21.5t116.5 73.5t92.5 142t68 230q-29 -12 -67.5 -22.5t-81.5 -20t-89 -14.5t-85 -5q-57 0 -113.5 14.5t-100.5 48t-70.5 91t-26.5 143.5t29.5 189.5t99.5 187.5q70 82 158.5 114.5t199.5 32.5q180 0 266 -86t86 -288 q0 -66 -9 -153t-27.5 -180t-47 -186.5t-67.5 -169.5q-72 -147 -184.5 -221.5t-290.5 -74.5q-61 0 -134 8t-137 24zM305 838q0 -59 16.5 -96t45 -60t68.5 -31t89 -8q80 0 152 16.5t131 38.5q10 53 20.5 127t10.5 140q0 123 -48.5 182t-166.5 59q-72 0 -130.5 -22.5 t-105.5 -81.5q-25 -33 -41 -70t-25.5 -71.5t-12.5 -66.5t-3 -56z" />
<glyph unicode=":" horiz-adv-x="518" d="M94 0l30 176h162l-30 -176h-162zM230 770l30 176h162l-30 -176h-162z" />
<glyph unicode=";" horiz-adv-x="528" d="M60 -236q76 186 78 398l153 8q-6 -121 -52 -223.5t-120 -188.5zM228 770l30 176h162l-30 -176h-162z" />
<glyph unicode="&#x3c;" horiz-adv-x="964" d="M166 428l18 100q166 111 341 221.5t352 221.5l-27 -160q-147 -88 -288.5 -175t-258.5 -161l-2 -8q92 -74 201.5 -161t226.5 -173l-24 -145q-139 111 -275.5 220t-263.5 220z" />
<glyph unicode="=" horiz-adv-x="1132" d="M131 227l21 115h782l-21 -115h-782zM197 604l20 115h782l-20 -115h-782z" />
<glyph unicode="&#x3e;" horiz-adv-x="968" d="M90 -12l27 157q147 88 288.5 175.5t258.5 162.5l2 9q-92 74 -202 160.5t-226 172.5l24 146q139 -111 275.5 -221.5t261.5 -221.5l-17 -100q-166 -111 -341 -220.5t-351 -219.5z" />
<glyph unicode="?" horiz-adv-x="808" d="M174 1255q72 37 156 60.5t164 23.5q68 0 126 -18t101 -55t67.5 -91.5t24.5 -127.5q0 -66 -18.5 -118t-51 -98.5t-74.5 -88.5t-87 -85q-49 -45 -83 -78.5t-56.5 -66.5t-37 -71t-24.5 -91h-131q10 72 31.5 126t53.5 99.5t71.5 85t89.5 84.5q68 63 121 136t53 159 q0 80 -49.5 125t-135.5 45q-61 0 -131.5 -21.5t-130.5 -49.5zM178 0l31 176h162l-31 -176h-162z" />
<glyph unicode="@" horiz-adv-x="1419" d="M84 330q0 63 8 136t27.5 149.5t50.5 151.5t74 142q188 289 579 289q262 0 396.5 -120t134.5 -365q0 -84 -15.5 -186.5t-48.5 -188.5q-37 -98 -99.5 -152.5t-162.5 -54.5q-66 0 -104.5 23.5t-63.5 68.5q-59 -41 -116.5 -66.5t-129.5 -25.5q-63 0 -105 21.5t-67.5 57.5 t-36 83t-10.5 100q0 70 16.5 156t49.5 162q51 117 129 163t172 46q76 0 149.5 -25t139.5 -66l-76 -423q-8 -39 -8 -72q0 -86 77 -86q41 0 73 26.5t59 102.5q25 72 40 167t15 175q0 197 -103.5 281.5t-312.5 84.5q-154 0 -272.5 -51t-200.5 -186q-35 -55 -59.5 -120.5 t-40 -133.5t-23.5 -135.5t-8 -126.5q0 -102 23.5 -175t74.5 -119t128 -66.5t186 -20.5q160 0 297 45l30 -105q-72 -25 -165 -39t-187 -14q-254 0 -384 117t-130 375zM532 403q0 -63 23 -110t96 -47q41 0 90.5 16.5t94.5 44.5q-2 41 6 96l69 373q-35 12 -72.5 22.5 t-74.5 10.5q-66 0 -110 -39t-74 -119q-23 -55 -35.5 -122t-12.5 -126z" />
<glyph unicode="A" horiz-adv-x="1097" d="M-41 0q150 334 309.5 660.5t329.5 658.5h215q53 -332 92 -658.5t68 -660.5h-156q-6 94 -12 175t-12 153h-529q-37 -82 -73.5 -163t-71.5 -165h-160zM324 461h456q-18 180 -40.5 363.5t-51.5 373.5h-6q-92 -184 -182 -367.5t-176 -369.5z" />
<glyph unicode="B" horiz-adv-x="1112" d="M84 0l229 1305q90 16 193.5 24t181.5 8q82 0 152.5 -12t123 -44t83 -86t30.5 -140q0 -55 -14 -110.5t-44 -102.5t-74 -84t-105 -58v-6q74 -27 113.5 -82t39.5 -161q0 -98 -35.5 -197.5t-107.5 -163.5q-72 -63 -175.5 -82.5t-258.5 -19.5q-92 0 -168 4t-164 8zM256 125 q41 -2 97.5 -3t95.5 -1q106 0 182 15.5t123 62.5t66.5 114.5t19.5 126.5q0 109 -55.5 148t-155.5 39h-285zM365 750h276q72 0 121 19t84 56q37 39 57.5 94.5t20.5 112.5q0 53 -18.5 87t-52.5 52.5t-81 25.5t-104 7q-59 0 -121 -5t-107 -9z" />
<glyph unicode="C" horiz-adv-x="1024" d="M102 449q0 63 8.5 139t26 155.5t45 158.5t66.5 149q92 162 218 225t288 63q76 0 158.5 -11t160.5 -30l-26 -129q-66 16 -147 26.5t-148 10.5q-129 0 -219.5 -50t-155.5 -177q-31 -59 -54.5 -130t-38 -143.5t-21.5 -140t-7 -121.5q0 -90 19.5 -153.5t56.5 -103.5t91 -57 t124 -17q84 0 171 22.5t163 57.5l45 -119q-86 -41 -187.5 -67.5t-210.5 -26.5q-209 0 -317.5 114.5t-108.5 354.5z" />
<glyph unicode="D" horiz-adv-x="1173" d="M84 0l229 1305q29 6 71 12t90 10t95 7t88 3q229 0 354.5 -108.5t125.5 -345.5q0 -57 -7.5 -128t-22.5 -145.5t-40 -150.5t-57 -144q-43 -86 -98.5 -148.5t-129 -102t-167 -58t-212.5 -18.5q-25 0 -60.5 1t-78.5 2t-89 3t-91 6zM258 125q51 -4 97 -4h91q150 0 255.5 56 t175.5 202q27 55 46 119.5t32.5 130t20.5 128t7 115.5q0 180 -85 256t-265 76q-47 0 -101.5 -4t-87.5 -8z" />
<glyph unicode="E" horiz-adv-x="968" d="M84 0l231 1319h709l-23 -133h-561l-75 -436h454l-22 -134h-455l-86 -483h561l-22 -133h-711z" />
<glyph unicode="F" horiz-adv-x="937" d="M84 0l231 1319h705l-23 -133h-555l-82 -469h451l-23 -133h-450l-102 -584h-152z" />
<glyph unicode="G" horiz-adv-x="1130" d="M109 440q0 70 9 149t27.5 159.5t46 158.5t66.5 146q92 162 224 224t292 62q78 0 164 -11t166 -30l-25 -129q-66 16 -150.5 26.5t-156.5 10.5q-63 0 -118.5 -11t-102.5 -36.5t-89 -70t-77 -109.5q-31 -57 -54.5 -125t-39 -137.5t-22.5 -138t-7 -127.5q0 -186 72 -262 t213 -76q74 0 136 15t112 34l69 393h-250l23 133h403l-106 -604q-96 -53 -202.5 -78.5t-209.5 -25.5q-209 0 -311 112t-102 348z" />
<glyph unicode="H" horiz-adv-x="1228" d="M92 0l232 1319h151l-100 -569h590l100 569h152l-232 -1319h-151l108 616h-590l-108 -616h-152z" />
<glyph unicode="I" horiz-adv-x="485" d="M84 0l231 1319h152l-231 -1319h-152z" />
<glyph unicode="J" horiz-adv-x="712" d="M-61 -2l18 125q41 -4 86 -7t74 -3q66 0 110.5 16t75.5 51t50.5 88.5t31.5 126.5l160 924h151l-166 -938q-18 -109 -49.5 -184.5t-80 -123.5t-118 -70.5t-165.5 -22.5q-53 0 -98.5 5t-79.5 13z" />
<glyph unicode="K" horiz-adv-x="1069" d="M84 0l231 1319h152l-100 -574h2q150 133 301 278.5t293 295.5h196q-178 -180 -347 -342t-312 -285q98 -158 213.5 -332t261.5 -360h-193q-49 66 -106.5 147.5t-114.5 168.5t-111.5 174.5t-97.5 162.5h-2l-114 -653h-152z" />
<glyph unicode="L" horiz-adv-x="919" d="M84 0l231 1319h152l-209 -1186h553l-23 -133h-704z" />
<glyph unicode="M" horiz-adv-x="1474" d="M59 0q68 332 140.5 658.5t148.5 660.5h223l148 -909h6l467 909h229q-39 -334 -82 -659.5t-88 -659.5h-153q41 289 78.5 567.5t72.5 562.5h-6l-463 -892h-176l-147 892h-6q-66 -293 -126.5 -572t-117.5 -558h-148z" />
<glyph unicode="N" horiz-adv-x="1288" d="M84 0l231 1319h222l374 -1145h7l200 1145h150l-232 -1319h-221l-375 1145h-6l-201 -1145h-149z" />
<glyph unicode="O" horiz-adv-x="1224" d="M104 418q0 57 7.5 132t25 156.5t45 165.5t68.5 160q82 154 206 230.5t308 76.5q422 0 422 -434q0 -59 -8.5 -136t-25.5 -160t-45 -166t-67 -156q-78 -147 -201.5 -227t-314.5 -80q-211 0 -315.5 107.5t-104.5 330.5zM258 426q0 -174 71.5 -243.5t209.5 -69.5 q141 0 225 61.5t141 175.5q29 57 52.5 125t40 140.5t25.5 143t9 134.5q0 174 -71.5 243.5t-208.5 69.5q-139 0 -224.5 -60.5t-142.5 -176.5q-29 -57 -52.5 -125t-40 -140.5t-25.5 -143.5t-9 -134z" />
<glyph unicode="P" horiz-adv-x="1067" d="M84 0l229 1307q90 14 183.5 22t171.5 8q203 0 309 -72.5t106 -248.5q0 -117 -44 -223.5t-126 -178.5q-66 -55 -153.5 -82.5t-214.5 -27.5q-59 0 -109.5 5t-107.5 15l-92 -524h-152zM348 645q37 -4 81 -8t97 -4q96 0 170 18.5t125 65.5q55 53 82 134t27 157q0 59 -16.5 97 t-49.5 60.5t-85 30.5t-122 8q-57 0 -110 -4t-103 -8z" />
<glyph unicode="Q" horiz-adv-x="1224" d="M104 418q0 57 7.5 132t25 156.5t45 165.5t68.5 160q82 154 206 230.5t308 76.5q422 0 422 -434q0 -59 -8.5 -136t-25.5 -160t-45 -166t-67 -156q-51 -96 -120.5 -164t-161.5 -105l164 -219l-129 -94l-187 279q-20 -2 -39.5 -3t-42.5 -1q-211 0 -315.5 107.5t-104.5 330.5 zM258 426q0 -174 71.5 -243.5t209.5 -69.5q141 0 225 61.5t141 175.5q29 57 52.5 125t40 140.5t25.5 143t9 134.5q0 174 -71.5 243.5t-208.5 69.5q-139 0 -224.5 -60.5t-142.5 -176.5q-29 -57 -52.5 -125t-40 -140.5t-25.5 -143.5t-9 -134z" />
<glyph unicode="R" horiz-adv-x="1093" d="M84 0l229 1307q43 6 95.5 12t104.5 10t100.5 6t84.5 2q180 0 279.5 -68.5t99.5 -242.5q0 -86 -25.5 -166t-74.5 -139q-47 -57 -110.5 -92t-145.5 -54q43 -135 94 -278t117 -297h-168q-53 137 -101.5 276.5t-91.5 280.5h-66.5t-68.5 1t-60.5 2t-41.5 1l-98 -561h-152z M356 682q39 -2 85 -3t75 -1q131 0 210 28.5t122 81.5q41 49 58.5 111t17.5 117q0 109 -59.5 148.5t-186.5 39.5q-39 0 -106.5 -3t-127.5 -9z" />
<glyph unicode="S" horiz-adv-x="927" d="M8 23l27 135q72 -16 150.5 -30.5t160.5 -14.5q80 0 153.5 20.5t125.5 73.5q35 35 54 84t19 108q0 53 -17 88t-50 58.5t-77 41t-99 38.5q-63 25 -116.5 51t-91.5 63t-58.5 87.5t-20.5 119.5q0 98 38 170t93 119q68 57 156 80.5t192 23.5q72 0 148.5 -9t146.5 -23l-22 -136 q-57 12 -137.5 23.5t-145.5 11.5q-72 0 -132.5 -17.5t-101.5 -51.5q-39 -33 -60 -81t-21 -104q0 -49 17 -79.5t50 -53t80 -41t106 -43.5t110.5 -52.5t88.5 -65t57.5 -90t20.5 -124.5q0 -86 -32 -166.5t-97 -140.5q-70 -63 -163 -89.5t-212 -26.5q-88 0 -177 12t-163 31z" />
<glyph unicode="T" horiz-adv-x="1028" d="M180 1186l23 133h917l-22 -133h-383l-209 -1186h-152l209 1186h-383z" />
<glyph unicode="U" horiz-adv-x="1216" d="M137 342q0 31 4 73t13 89l143 815h152l-140 -795q-8 -47 -12 -88t-4 -69q0 -127 60.5 -190.5t191.5 -63.5q158 0 248 96q51 53 79.5 132t47.5 183l139 795h151l-143 -815q-23 -123 -60.5 -223.5t-107.5 -169.5q-131 -131 -362 -131q-190 0 -295 88t-105 274z" />
<glyph unicode="V" horiz-adv-x="1081" d="M197 1319h155q18 -295 47 -591t72 -607h6q141 295 275.5 592t263.5 606h162q-287 -664 -611 -1319h-221q-49 332 -86 658.5t-63 660.5z" />
<glyph unicode="W" horiz-adv-x="1714" d="M207 1319h151q0 -156 3 -304.5t9.5 -295t16.5 -295t27 -303.5h4q57 135 117.5 282.5t120 301t117.5 308t112 306.5h229q0 -184 2 -367.5t10 -355.5q2 -74 6.5 -135.5t7.5 -117.5t7 -110.5t8 -111.5h4q61 135 126 282.5t126.5 301t119.5 309t109 305.5h156 q-115 -332 -250 -655.5t-299 -663.5h-217q-4 55 -9 126t-10 144.5t-9.5 147.5t-6.5 139q-8 162 -11 321.5t-3 311.5h-6q-49 -137 -106.5 -285.5t-118 -302t-123 -306.5t-123.5 -296h-219q-41 324 -59.5 648.5t-18.5 670.5z" />
<glyph unicode="X" horiz-adv-x="1142" d="M-12 0q133 174 267 344t271 336q-70 147 -144.5 311t-135.5 328h172q49 -135 99 -260t112 -254q98 125 196.5 252t198.5 262h176q-121 -160 -253 -328t-253 -315q74 -160 151 -331t148 -345h-166q-59 147 -117.5 279.5t-119.5 267.5q-111 -135 -213.5 -268.5 t-206.5 -278.5h-182z" />
<glyph unicode="Y" horiz-adv-x="1073" d="M188 1319h156q39 -186 92 -373.5t113 -343.5h4q117 160 237.5 347.5t221.5 369.5h168q-129 -236 -270.5 -443.5t-299.5 -414.5l-80 -461h-151l82 461q-86 207 -155.5 414.5t-117.5 443.5z" />
<glyph unicode="Z" horiz-adv-x="1009" d="M0 0l20 117l865 1069h-647l22 133h827l-20 -117l-864 -1069h680l-23 -133h-860z" />
<glyph unicode="[" horiz-adv-x="532" d="M16 -334l291 1653h334l-20 -115h-195l-250 -1423h195l-21 -115h-334z" />
<glyph unicode="\" horiz-adv-x="724" d="M199 1319h127l266 -1319h-127z" />
<glyph unicode="]" horiz-adv-x="536" d="M-100 -334l20 115h195l252 1423h-199l20 115h336l-291 -1653h-333z" />
<glyph unicode="^" horiz-adv-x="1144" d="M211 557l369 408h139l217 -422l-84 -49l-219 335l-350 -340z" />
<glyph unicode="_" horiz-adv-x="989" d="M-141 -344l16 98h985l-16 -98h-985z" />
<glyph unicode="`" horiz-adv-x="575" d="M236 1319l139 70l121 -330l-72 -35z" />
<glyph unicode="a" horiz-adv-x="960" d="M80 291q0 43 6 97t16.5 110.5t26.5 114t39 106.5q53 123 140 185.5t235 62.5q86 0 181 -18.5t163 -47.5l-158 -901h-115l2 80q-55 -47 -123.5 -73.5t-146.5 -26.5q-129 0 -197.5 79.5t-68.5 231.5zM225 307q0 -100 37 -150.5t119 -50.5q72 0 133 32t109 71l106 612 q-45 10 -98 16.5t-94 6.5q-98 0 -150.5 -41t-87.5 -133q-14 -37 -27.5 -82t-23.5 -93.5t-16.5 -96.5t-6.5 -91z" />
<glyph unicode="b" horiz-adv-x="976" d="M76 45l223 1274h143l-75 -436q47 37 112.5 60.5t136.5 23.5q127 0 195 -81t68 -235q0 -41 -5.5 -94t-16.5 -110.5t-27.5 -114t-36.5 -105.5q-53 -123 -140.5 -185t-234.5 -62q-86 0 -180.5 18t-161.5 47zM231 123q59 -14 104.5 -18.5t72.5 -4.5q117 0 177 55.5t93 153.5 q23 68 39 159t16 169q0 111 -39 157t-123 46q-55 0 -114.5 -18.5t-112.5 -57.5z" />
<glyph unicode="c" horiz-adv-x="831" d="M82 313q0 39 5 89.5t15.5 103.5t26.5 108.5t39 104.5q63 135 165.5 191.5t241.5 56.5q63 0 126 -9.5t122 -25.5l-28 -121q-53 16 -107.5 22.5t-101.5 6.5q-104 0 -175 -39t-118 -150q-14 -35 -26.5 -77t-20.5 -87t-13.5 -88t-5.5 -77q0 -215 191 -216q61 0 128.5 19.5 t131.5 48.5l41 -117q-66 -35 -156 -56t-170 -21q-154 0 -232.5 85.5t-78.5 247.5z" />
<glyph unicode="d" horiz-adv-x="974" d="M92 293q0 41 5 94t16.5 109.5t28 114t38.5 108.5q49 113 134 180.5t231 67.5q47 0 104.5 -7.5t110.5 -19.5l67 379h144l-232 -1319h-112l4 92q-53 -47 -117.5 -79.5t-151.5 -32.5q-133 0 -201.5 80.5t-68.5 232.5zM238 305q0 -100 36.5 -149.5t116.5 -49.5q70 0 132.5 31 t109.5 70l108 618q-43 8 -96 13.5t-92 5.5q-102 0 -155.5 -43t-88.5 -131q-16 -39 -28.5 -86t-22.5 -95.5t-15 -96.5t-5 -87z" />
<glyph unicode="e" horiz-adv-x="903" d="M78 324q0 43 6 96t18.5 110.5t34 114.5t51.5 109q55 92 143.5 152.5t211.5 60.5q76 0 131 -24.5t91 -66.5t52.5 -97.5t16.5 -119.5q0 -51 -9.5 -112.5t-21.5 -124.5h-574q-4 -27 -5 -52.5t-1 -43.5q0 -102 45 -161t158 -59q66 0 132.5 18.5t131.5 47.5l41 -115 q-66 -35 -156 -56t-176 -21q-154 0 -237.5 82t-83.5 262zM248 537h432q4 29 6 57.5t2 50.5q0 41 -7 77t-24.5 61.5t-47 41t-77.5 15.5q-115 0 -183 -84t-101 -219z" />
<glyph unicode="f" horiz-adv-x="583" d="M104 0l146 827h-127l18 101l127 10l23 127q12 74 34.5 126t56.5 85t84 48t118 15q33 0 71.5 -3t75.5 -9l-14 -123q-29 4 -62.5 6t-62.5 2q-37 0 -62.5 -6t-44 -22.5t-31 -46t-20.5 -78.5l-20 -113h194l-20 -119h-195l-145 -827h-144z" />
<glyph unicode="g" horiz-adv-x="962" d="M63 -344l33 121q47 -14 119 -28.5t143 -14.5q41 0 76 7t61.5 25.5t45 51t28.5 84.5l29 164q-47 -37 -112.5 -61.5t-139.5 -24.5q-129 0 -195.5 80.5t-66.5 232.5q0 43 6 96t16.5 110.5t27 114t38.5 105.5q53 123 139 185.5t234 62.5q86 0 181 -18.5t163 -47.5l-178 -1018 q-14 -78 -45 -131t-75 -86t-102.5 -46t-128.5 -13q-78 0 -153.5 14t-143.5 35zM229 305q0 -199 158 -199q59 0 119.5 25t114.5 66l110 626q-59 14 -108.5 19.5t-79.5 5.5q-92 0 -148.5 -42t-93.5 -134q-16 -37 -28.5 -84t-22.5 -96.5t-15.5 -98.5t-5.5 -88z" />
<glyph unicode="h" horiz-adv-x="989" d="M70 0l231 1319h143l-79 -455q57 43 129.5 73t152.5 30q111 0 177.5 -59.5t66.5 -168.5q0 -23 -3 -45t-7 -47l-113 -647h-143l110 635q4 25 7 46t3 40q0 59 -30.5 89t-100.5 30q-72 0 -143.5 -27t-124.5 -57l-133 -756h-143z" />
<glyph unicode="i" d="M70 0l166 946h143l-166 -946h-143zM268 1139l33 180h143l-32 -180h-144z" />
<glyph unicode="j" d="M-84 -373q33 59 59.5 112.5t48 114t40 134t36.5 172.5l138 786h143l-139 -794q-33 -186 -80 -310.5t-113 -214.5h-133zM270 1139l33 180h143l-32 -180h-144z" />
<glyph unicode="k" horiz-adv-x="890" d="M70 0l231 1319h143l-135 -764h2q117 96 232.5 198.5t208.5 192.5h188q-113 -109 -242 -222.5t-252 -213.5q66 -106 155 -233t208 -277h-180q-84 109 -166 229.5t-162 253.5h-4l-84 -483h-143z" />
<glyph unicode="l" d="M70 0l231 1319h143l-231 -1319h-143z" />
<glyph unicode="m" horiz-adv-x="1470" d="M70 0l166 946h110l-2 -92q51 39 119.5 76t154.5 37q70 0 127.5 -32t81.5 -101q74 59 144.5 96t156.5 37q104 0 170 -58.5t66 -177.5q0 -16 -2 -42.5t-6 -49.5l-111 -639h-143l110 637q4 16 5.5 38.5t1.5 37.5q0 72 -33 99.5t-92 27.5q-61 0 -121 -26t-125 -69 q0 -27 -2 -54t-6 -54l-111 -637h-143l110 637q4 16 6.5 38.5t2.5 41.5q0 68 -35 95.5t-95 27.5q-59 0 -114 -23.5t-117 -64.5l-131 -752h-143z" />
<glyph unicode="n" horiz-adv-x="989" d="M70 0l166 946h112l-4 -90q59 47 138 79t165 32q111 0 177.5 -59.5t66.5 -170.5q0 -23 -3 -43t-7 -47l-113 -647h-143l110 635q4 25 7 46t3 40q0 55 -30.5 87t-102.5 32t-142.5 -27t-123.5 -57l-133 -756h-143z" />
<glyph unicode="o" horiz-adv-x="962" d="M76 324q0 51 7 107t21.5 111.5t34 107.5t43.5 95q59 104 151.5 163t225.5 59q160 0 242 -87t82 -257q0 -51 -7.5 -107.5t-21.5 -112t-33.5 -107.5t-44.5 -95q-59 -104 -151.5 -162.5t-225.5 -58.5q-160 0 -241.5 87t-81.5 257zM221 328q0 -96 41 -159t148 -63 q78 0 139 38t108 130q18 39 34 83t26 90.5t15 90.5t5 80q0 96 -41 159t-147 63q-78 0 -139.5 -38t-108.5 -130q-18 -39 -33.5 -83t-26 -90t-15.5 -90t-5 -81z" />
<glyph unicode="p" horiz-adv-x="974" d="M2 -373l231 1319h113l-4 -92q53 47 118.5 80t151.5 33q133 0 200 -81t67 -233q0 -43 -6.5 -97t-16.5 -110.5t-26.5 -113t-36.5 -105.5q-51 -119 -137.5 -183t-227.5 -64q-47 0 -104.5 7t-110.5 19l-68 -379h-143zM233 123q41 -10 88.5 -17.5t92.5 -7.5q90 0 150.5 41 t103.5 146q31 74 48 168t17 178q0 106 -32.5 159.5t-118.5 53.5q-66 0 -127.5 -29t-112.5 -70z" />
<glyph unicode="q" horiz-adv-x="968" d="M92 293q0 43 6 96t16.5 110.5t27 114t38.5 105.5q53 123 138 185.5t233 62.5q86 0 181 -18.5t163 -47.5l-223 -1274h-144l78 439q-47 -37 -112.5 -61.5t-139.5 -24.5q-129 0 -195.5 80.5t-66.5 232.5zM238 303q0 -197 155 -197q59 0 120.5 25t115.5 66l108 626 q-59 14 -106 19.5t-78 5.5q-100 0 -154.5 -45t-89.5 -131q-14 -35 -26.5 -81t-22.5 -96.5t-16 -99.5t-6 -92z" />
<glyph unicode="r" horiz-adv-x="655" d="M70 0l166 946h112l-2 -121h2q55 74 112.5 108t135.5 34q63 0 109 -17l-21 -133q-55 16 -111 17q-135 0 -239 -146l-121 -688h-143z" />
<glyph unicode="s" horiz-adv-x="776" d="M-10 18l30 123q61 -16 132 -25.5t124 -9.5q111 0 177.5 42t66.5 131q0 33 -10 54t-30.5 36.5t-51.5 28t-74 28.5q-45 16 -89 33.5t-77.5 45t-55 67.5t-21.5 102q0 127 94 210t268 83q57 0 128 -9.5t124 -21.5l-23 -121q-57 12 -116.5 18.5t-98.5 6.5q-104 0 -167.5 -41 t-63.5 -115q0 -35 14.5 -55.5t41 -35.5t61.5 -27.5t78 -26.5q51 -18 92 -40t67.5 -49.5t41 -65.5t14.5 -89q0 -141 -101.5 -228t-285.5 -87q-66 0 -146 11t-143 27z" />
<glyph unicode="t" horiz-adv-x="651" d="M117 827l18 101l131 10l64 285h125l-49 -277h253l-20 -119h-254l-100 -573q-4 -18 -5 -38.5t-1 -33.5q0 -41 19 -58.5t60 -17.5q35 0 70 10.5t68 24.5l41 -108q-43 -23 -96.5 -38t-112.5 -15q-88 0 -141.5 42t-53.5 140q0 16 2 40.5t6 51.5l101 573h-125z" />
<glyph unicode="u" horiz-adv-x="987" d="M98 211q0 16 2 37.5t6 50.5l113 647h143l-110 -633q-10 -57 -10 -90q0 -117 133 -117q72 0 139.5 27t122.5 57l133 756h143l-165 -946h-113l4 90q-61 -47 -138 -78.5t-165 -31.5q-111 0 -174.5 58t-63.5 173z" />
<glyph unicode="v" horiz-adv-x="866" d="M133 946h143q8 -229 27 -437t51 -394h8q98 184 191.5 397t179.5 434h148q-94 -244 -203 -481.5t-238 -464.5h-196q-51 229 -77 465.5t-34 480.5z" />
<glyph unicode="w" horiz-adv-x="1355" d="M133 946h143q0 -106 2 -217t6.5 -218.5t11.5 -208.5t17 -187h9q41 96 86 201.5t88 213t85 214t76 202.5h195q4 -197 12 -415t25 -416h6q43 88 88 189.5t88 210t84 218t76 213.5h141q-45 -127 -90 -245.5t-93 -233.5t-101.5 -230.5t-112.5 -236.5h-199q-16 199 -26.5 418 t-14.5 411h-8q-35 -92 -76 -198.5t-86 -215t-90 -216t-84 -199.5h-196q-16 123 -27.5 239.5t-19 231.5t-10.5 232.5t-5 242.5z" />
<glyph unicode="x" horiz-adv-x="874" d="M-16 0q94 125 190 246t188 237q-53 106 -106 224t-102 239h147q70 -182 154 -356q66 84 136.5 174t139.5 182h154q-90 -119 -185.5 -238.5t-187.5 -234.5q53 -111 106.5 -229.5t106.5 -243.5h-145q-37 92 -77 184t-81 183q-72 -88 -142.5 -179.5t-140.5 -187.5h-155z" />
<glyph unicode="y" horiz-adv-x="862" d="M121 -373q53 98 104 192.5t94 180.5h-75q-37 190 -65.5 434t-49.5 512h150q12 -219 32.5 -429t53.5 -400h8q45 92 92 195.5t93 211t90 215t81 207.5h148q-61 -160 -135 -330t-153 -341t-162 -335.5t-165 -312.5h-141z" />
<glyph unicode="z" horiz-adv-x="776" d="M-12 0l18 100l588 721h-447l23 125h610l-18 -100l-588 -721h463l-23 -125h-626z" />
<glyph unicode="{" horiz-adv-x="600" d="M90 496q39 39 66.5 69.5t47 61t32 65.5t20.5 80l57 322q23 129 109 187t242 58l-13 -65q-41 -8 -72.5 -20.5t-57 -34t-43 -56.5t-25.5 -88l-56 -321q-14 -80 -62 -143.5t-124 -114.5q100 -88 100 -197q0 -20 -2 -40.5t-6 -37.5l-55 -305q-4 -20 -5 -33.5t-1 -27.5 q0 -37 11 -60.5t29.5 -39t43 -23.5t51.5 -15l-10 -65q-270 0 -271 182q0 23 6 64l58 321q4 16 6 40t2 44q0 49 -19.5 91t-58.5 102z" />
<glyph unicode="|" horiz-adv-x="626" d="M90 -373l299 1692h143l-299 -1692h-143z" />
<glyph unicode="}" horiz-adv-x="602" d="M-59 -348l12 65q39 8 71.5 20.5t58.5 34t42 56.5t27 88l55 322q14 80 62 143t124 115q-100 88 -100 196q0 20 2 41t6 37l55 305q6 39 6 62q0 37 -11 60.5t-29.5 38.5t-43 23.5t-51.5 14.5l11 65q270 0 270 -182q0 -25 -6 -63l-58 -322q-4 -16 -6 -39.5t-2 -44.5 q0 -49 19.5 -91t58.5 -101q-39 -39 -66.5 -71t-47 -62.5t-32 -64.5t-20.5 -79l-57 -321q-23 -129 -109 -187.5t-241 -58.5z" />
<glyph unicode="~" horiz-adv-x="989" d="M201 621q2 18 17 40.5t39 43t54.5 35t65.5 14.5t76 -15.5t88 -42.5q53 -29 83.5 -45t59.5 -16q59 0 113 92l49 -61q-4 -18 -18.5 -41t-38 -43.5t-54 -35t-65.5 -14.5t-76 15.5t-88 42.5q-53 29 -84 45t-60 16q-59 0 -112 -92z" />
<glyph unicode="&#xa1;" horiz-adv-x="534" d="M27 -373l209 953h96l-129 -953h-176zM240 770l30 176h162l-31 -176h-161z" />
<glyph unicode="&#xa2;" horiz-adv-x="868" d="M84 313q0 39 5 88.5t15.5 103.5t26.5 107.5t39 102.5q55 117 136 173t188 73l32 190h129l-32 -184q53 -4 109 -13.5t104 -21.5l-25 -123q-59 14 -116.5 24.5t-116.5 10.5q-104 0 -171 -44t-112 -151q-16 -37 -28.5 -80t-20.5 -87t-13.5 -87t-5.5 -76q0 -211 195 -210 q61 0 126.5 18t131.5 47l41 -117q-55 -29 -127 -49t-145 -24l-33 -193h-129l32 195q-117 16 -176 101t-59 226z" />
<glyph unicode="&#xa3;" horiz-adv-x="974" d="M45 0l16 92q111 74 174.5 169t63.5 224v44t-2 51h-152l19 104l119 10q-6 47 -11.5 95.5t-5.5 91.5q0 92 23.5 175t79.5 148q68 80 162 107.5t190 27.5q68 0 143.5 -9t143.5 -25l-25 -127q-55 12 -118.5 20t-125.5 8q-78 0 -143.5 -18.5t-112.5 -77.5q-35 -45 -49 -104.5 t-14 -133.5q0 -35 2 -77.5t8 -85.5h340l-22 -129h-306q2 -18 3 -38t1 -42q0 -104 -40.5 -200.5t-135.5 -166.5h553l-22 -133h-756z" />
<glyph unicode="&#xa4;" horiz-adv-x="1112" d="M51 287l170 143q-41 76 -41 164q0 80 31 157.5t90 137.5l-119 143l115 98l119 -145q55 35 115.5 54.5t125.5 19.5q66 0 119 -19.5t96 -54.5l170 145l80 -98l-170 -143q41 -70 41 -164q0 -80 -30.5 -158t-90.5 -137l119 -143l-114 -99l-119 146q-55 -35 -115.5 -54.5 t-126.5 -19.5q-63 0 -117.5 19.5t-97.5 54.5l-170 -146zM301 608q0 -100 67 -163.5t171 -63.5q59 0 112.5 21.5t98.5 60.5q53 43 87.5 107.5t34.5 140.5q0 100 -66.5 163.5t-170.5 63.5q-59 0 -112.5 -21.5t-98.5 -60.5q-53 -43 -88 -107.5t-35 -140.5z" />
<glyph unicode="&#xa5;" horiz-adv-x="1015" d="M98 250l23 123h295l33 192h-295l22 123h238q-53 145 -105.5 308t-93.5 323h162q39 -152 84 -292t92 -269q96 129 189.5 269t185.5 292h168q-98 -162 -205 -322.5t-211 -308.5h238l-23 -123h-295l-33 -192h295l-22 -123h-295l-43 -250h-152l43 250h-295z" />
<glyph unicode="&#xa6;" horiz-adv-x="626" d="M90 -373l111 621h145l-110 -621h-146zM283 698l110 621h146l-111 -621h-145z" />
<glyph unicode="&#xa7;" horiz-adv-x="1017" d="M20 -326l27 123q59 -16 127 -25.5t129 -9.5q74 0 136.5 17.5t114.5 60.5t91 117t68 186q-68 -12 -146 -12q-98 0 -179 27.5t-138 83t-89 140.5t-32 200q0 49 6 109.5t19.5 126t36 132t53.5 125.5q80 152 196.5 211.5t261.5 59.5q72 0 151 -11.5t146 -27.5l-26 -125 q-59 16 -127 26.5t-129 10.5q-74 0 -136.5 -17.5t-113.5 -60.5t-92 -118t-68 -187q35 8 72 11t72 3q201 0 320.5 -111.5t119.5 -343.5q0 -43 -5 -101t-18.5 -123t-36 -133.5t-55.5 -131.5q-78 -145 -189.5 -208t-269.5 -63q-72 0 -150.5 11.5t-146.5 27.5zM274 596 q0 -158 75 -249t245 -91q31 0 67.5 2t73.5 6q12 70 13 144q-2 166 -91.5 241.5t-234.5 75.5q-29 0 -66 -3t-71 -7q-4 -29 -7.5 -57.5t-3.5 -61.5z" />
<glyph unicode="&#xa8;" horiz-adv-x="765" d="M250 1098l29 162h145l-29 -162h-145zM592 1098l29 162h145l-29 -162h-145z" />
<glyph unicode="&#xa9;" horiz-adv-x="1363" d="M96 475q0 63 8.5 135t27 144.5t47 144.5t69.5 135q92 147 238.5 226t344.5 79q248 0 372 -127t124 -370q0 -66 -9 -139.5t-28.5 -147.5t-49.5 -144.5t-69 -131.5q-92 -143 -237.5 -221t-341.5 -78q-248 0 -372 126.5t-124 368.5zM215 489q0 -205 97.5 -303t295.5 -98 q319 0 471 252q63 104 97 238.5t34 255.5q0 397 -395 397q-156 0 -274.5 -61.5t-198.5 -196.5q-59 -100 -93 -230.5t-34 -253.5zM418 537q0 35 5 77.5t15.5 86.5t24.5 86t35 79q53 94 131 130t170 36q41 0 87 -5t87 -15l-17 -94q-35 8 -76.5 12t-76.5 4q-72 0 -125 -25.5 t-88 -97.5q-23 -49 -40.5 -124t-17.5 -140q0 -82 33 -122t105 -40q47 0 96 14.5t94 36.5l37 -86q-49 -29 -116.5 -47t-133.5 -18q-115 0 -172 64.5t-57 187.5z" />
<glyph unicode="&#xaa;" horiz-adv-x="620" d="M156 975q0 53 14 119.5t43 122.5q27 51 70 86.5t129 35.5q55 0 111.5 -14t103.5 -37l-86 -481h-76l-6 43q-33 -23 -67 -38t-79 -15q-78 0 -117.5 47t-39.5 131zM262 979q0 -96 76 -96q29 0 62.5 11t58.5 30l55 315q-16 4 -42 10t-54 6q-47 0 -73 -21.5t-44 -68.5 q-16 -41 -27.5 -93t-11.5 -93z" />
<glyph unicode="&#xab;" horiz-adv-x="890" d="M59 461q0 66 32 112t75 87q16 16 50 46.5t75 66.5t84 74t78 67l77 -89q-33 -29 -73.5 -64.5t-80.5 -71.5t-76 -68.5t-58 -55.5q-23 -23 -38.5 -46t-15.5 -56t25 -72q8 -14 29.5 -43.5t49 -65.5t57.5 -76t59 -73l-99 -80q-25 31 -53.5 66t-55 70.5t-49 66.5t-36.5 51 q-27 41 -41.5 76t-14.5 78zM385 461q0 66 32 112t75 87q16 16 50 46.5t75 66.5t84 74t78 67l77 -89q-33 -29 -73.5 -64.5t-80.5 -71.5t-76 -68.5t-58 -55.5q-23 -23 -38.5 -46t-15.5 -56t25 -72q8 -14 29.5 -43.5t49 -65.5t57.5 -76t59 -73l-99 -80q-25 31 -53.5 66 t-55 70.5t-49 66.5t-36.5 51q-27 41 -41.5 76t-14.5 78z" />
<glyph unicode="&#xac;" horiz-adv-x="1236" d="M184 520l21 115h885l-95 -533h-127l74 418h-758z" />
<glyph unicode="&#xad;" horiz-adv-x="583" d="M82 442l23 133h409l-22 -133h-410z" />
<glyph unicode="&#xae;" horiz-adv-x="940" d="M242 926q0 90 28.5 165.5t79.5 131t122 86t157 30.5q53 0 99 -13t81 -44t54.5 -82t19.5 -127q0 -90 -29 -166t-80 -131t-121.5 -86t-156.5 -31q-53 0 -99.5 13.5t-81 44.5t-54 82t-19.5 127zM326 924q0 -102 45 -149.5t137 -47.5q72 0 126 29.5t90 79t54.5 112 t18.5 127.5q0 102 -44 149.5t-137 47.5q-72 0 -126 -31t-91 -80t-55 -111.5t-18 -125.5zM416 823l63 351q61 16 115 16q113 0 113 -94q0 -41 -21.5 -74t-67.5 -47q10 -39 21.5 -77t26.5 -75h-76q-10 35 -19.5 71t-17.5 73h-41l-27 -144h-69zM522 1024h49q63 0 64 63 q0 41 -47 41q-10 0 -23.5 -1t-23.5 -3z" />
<glyph unicode="&#xaf;" horiz-adv-x="638" d="M209 1124l16 99h449l-17 -99h-448z" />
<glyph unicode="&#xb0;" horiz-adv-x="704" d="M188 1006q0 61 20.5 120.5t60.5 107.5t97.5 77.5t133.5 29.5q104 0 162.5 -58t58.5 -165q0 -61 -20.5 -120.5t-59.5 -107.5t-97 -78t-134 -30q-104 0 -163 58.5t-59 165.5zM301 1016q0 -129 119 -129q45 0 81 19.5t59.5 51t35.5 71.5t12 79q0 129 -119 129 q-45 0 -79.5 -19.5t-59 -51t-37 -71.5t-12.5 -79z" />
<glyph unicode="&#xb1;" horiz-adv-x="1124" d="M92 0l19 106h772l-19 -106h-772zM197 588l18 106h326l61 350h123l-61 -350h321l-18 -106h-322l-61 -350h-125l63 350h-325z" />
<glyph unicode="&#xb2;" horiz-adv-x="665" d="M125 600l12 76q61 47 134 104.5t134.5 120t102.5 124.5t41 120q0 47 -30 71.5t-77 24.5q-43 0 -91 -14.5t-83 -30.5l-35 84q41 23 103.5 41t122.5 18q86 0 145.5 -45t59.5 -137q0 -68 -34 -130t-86 -119.5t-115.5 -110t-125.5 -99.5h299l-16 -98h-461z" />
<glyph unicode="&#xb3;" horiz-adv-x="632" d="M121 618l20 97q31 -8 75 -16.5t91 -8.5q45 0 80 11.5t57 41.5q16 20 23.5 47t7.5 56q0 51 -26.5 68.5t-79.5 17.5h-76l16 96h72q63 0 100 35t37 94q0 84 -96 84q-41 0 -83 -11t-77 -24l-33 84q41 20 97.5 34.5t111.5 14.5q80 0 138.5 -37.5t58.5 -125.5q0 -59 -30 -109.5 t-89 -83.5q35 -16 55.5 -49t20.5 -88q0 -49 -17.5 -95t-48.5 -81q-41 -43 -94 -60.5t-119 -17.5q-49 0 -98 8t-94 18z" />
<glyph unicode="&#xb4;" horiz-adv-x="591" d="M293 1083l242 273l108 -119l-297 -213z" />
<glyph unicode="&#xb5;" horiz-adv-x="1001" d="M-92 -373q33 59 60.5 111.5t49 112t40 132t36.5 171.5l137 792h144l-111 -633q-10 -47 -10 -90q0 -55 29.5 -86t101.5 -31t139.5 27t124.5 57l133 756h144l-166 -946h-113l4 90q-61 -47 -138 -78.5t-161 -31.5q-92 0 -145 45q-31 -133 -72 -229.5t-94 -168.5h-133z" />
<glyph unicode="&#xb6;" horiz-adv-x="978" d="M170 911q0 80 26.5 154t77 130t124 90t167.5 34h393l-296 -1692h-144l184 1045h-114l-187 -1045h-139l187 1045q-141 4 -210 57t-69 182z" />
<glyph unicode="&#xb7;" horiz-adv-x="481" d="M150 424l30 176h162l-30 -176h-162z" />
<glyph unicode="&#xb8;" horiz-adv-x="520" d="M-33 -375l25 66q16 -4 35.5 -8.5t38.5 -4.5q57 0 82.5 34t25.5 69t-27.5 50t-99.5 17l21 60q201 0 200 -123q0 -33 -13 -64.5t-37.5 -57t-60.5 -41t-81 -15.5q-25 0 -55.5 4t-53.5 14z" />
<glyph unicode="&#xb9;" horiz-adv-x="589" d="M225 1214l207 105h103l-127 -719h-115l106 602l-143 -59z" />
<glyph unicode="&#xba;" horiz-adv-x="612" d="M182 989q0 53 16.5 122t51.5 122q72 106 207 106q92 0 137 -49t45 -141q0 -55 -17.5 -126t-54.5 -124q-71 -102 -202 -102q-92 0 -137.5 50t-45.5 142zM293 993q0 -53 18.5 -78.5t65.5 -25.5q45 0 70.5 22.5t41.5 53.5q18 39 28.5 88t10.5 90q0 53 -18 78.5t-66 25.5 q-41 0 -67.5 -20.5t-44.5 -57.5t-28.5 -86t-10.5 -90z" />
<glyph unicode="&#xbb;" horiz-adv-x="894" d="M35 141q33 27 74 64t80.5 73.5t74.5 69.5t58 54q23 23 38 45t15 57q0 33 -23 72q-10 18 -32.5 47.5t-49 65.5t-56.5 74t-56 71l98 80q20 -25 47 -59t53.5 -68.5t51 -67.5t43.5 -59q27 -39 41 -75t14 -79q0 -66 -32 -112t-75 -87q-18 -18 -53 -49t-75 -65.5t-82 -71.5 t-76 -68zM363 141q33 27 74 64t80.5 73.5t74.5 69.5t58 54q23 23 38 45t15 57q0 33 -23 72q-10 18 -32.5 47.5t-49 65.5t-56.5 74t-56 71l98 80q20 -25 47 -59t53.5 -68.5t51 -67.5t43.5 -59q27 -39 41 -75t14 -79q0 -66 -32 -112t-75 -87q-18 -18 -53 -49t-75 -65.5 t-82 -71.5t-76 -68z" />
<glyph unicode="&#xbc;" horiz-adv-x="1333" d="M100 0l957 1319h135l-956 -1319h-136zM219 1214l207 105h102l-127 -719h-114l106 602l-143 -59zM614 129l15 82q86 131 176 262t170 246h125q-86 -123 -172 -249t-164 -243h188l39 154h103l-27 -154h111l-19 -98h-110l-23 -129h-115l23 129h-320z" />
<glyph unicode="&#xbd;" horiz-adv-x="1380" d="M100 0l957 1319h135l-957 -1319h-135zM221 1214l207 105h103l-127 -719h-115l106 602l-143 -59zM737 2l12 76q61 47 134 104.5t134.5 120t102.5 124.5t41 120q0 47 -30 71.5t-77 24.5q-43 0 -91 -14.5t-83 -30.5l-35 84q41 23 103.5 41t122.5 18q86 0 145.5 -45 t59.5 -137q0 -68 -34 -130t-86 -119.5t-115.5 -110t-125.5 -99.5h299l-16 -98h-461z" />
<glyph unicode="&#xbe;" horiz-adv-x="1441" d="M121 618l20 97q31 -8 75 -16.5t91 -8.5q45 0 80 11.5t57 41.5q16 20 23.5 47t7.5 56q0 51 -26.5 68.5t-79.5 17.5h-76l16 96h72q63 0 100 35t37 94q0 84 -96 84q-41 0 -83 -11t-77 -24l-33 84q41 20 97.5 34.5t111.5 14.5q80 0 138.5 -37.5t58.5 -125.5q0 -59 -30 -109.5 t-89 -83.5q35 -16 55.5 -49t20.5 -88q0 -49 -17.5 -95t-48.5 -81q-41 -43 -94 -60.5t-119 -17.5q-49 0 -98 8t-94 18zM223 0l957 1319h135l-957 -1319h-135zM737 129l15 82q86 131 176 262t170 246h125q-86 -123 -172 -249t-164 -243h188l39 154h103l-27 -154h110l-18 -98 h-111l-22 -129h-115l23 129h-320z" />
<glyph unicode="&#xbf;" horiz-adv-x="808" d="M-59 -102q0 63 18 117.5t50 100.5t74 88t87 85q51 47 85 82t57.5 66.5t36.5 68.5t24 90h131q-10 -72 -31.5 -126t-53.5 -99t-72 -85t-89 -85q-68 -63 -121 -136t-53 -159q0 -80 49 -125t135 -45q61 0 132 21.5t130 49.5l50 -116q-72 -37 -156 -60.5t-166 -23.5 q-68 0 -125 18.5t-100 55t-67.5 91t-24.5 126.5zM383 770l31 176h161l-30 -176h-162z" />
<glyph unicode="&#xc0;" horiz-adv-x="1097" d="M-41 0q150 334 309.5 660.5t329.5 658.5h215q53 -332 92 -658.5t68 -660.5h-156q-6 94 -12 175t-12 153h-529q-37 -82 -73.5 -163t-71.5 -165h-160zM324 461h456q-18 180 -40.5 363.5t-51.5 373.5h-6q-92 -184 -182 -367.5t-176 -369.5zM514 1688l139 69l121 -330 l-72 -34z" />
<glyph unicode="&#xc1;" horiz-adv-x="1097" d="M-41 0q150 334 309.5 660.5t329.5 658.5h215q53 -332 92 -658.5t68 -660.5h-156q-6 94 -12 175t-12 153h-529q-37 -82 -73.5 -163t-71.5 -165h-160zM324 461h456q-18 180 -40.5 363.5t-51.5 373.5h-6q-92 -184 -182 -367.5t-176 -369.5zM675 1452l242 272l109 -118 l-297 -213z" />
<glyph unicode="&#xc2;" horiz-adv-x="1097" d="M-41 0q150 334 309.5 660.5t329.5 658.5h215q53 -332 92 -658.5t68 -660.5h-156q-6 94 -12 175t-12 153h-529q-37 -82 -73.5 -163t-71.5 -165h-160zM324 461h456q-18 180 -40.5 363.5t-51.5 373.5h-6q-92 -184 -182 -367.5t-176 -369.5zM455 1444l248 244h112l168 -244 l-65 -47l-168 192l-246 -192z" />
<glyph unicode="&#xc3;" horiz-adv-x="1097" d="M-41 0q150 334 309.5 660.5t329.5 658.5h215q53 -332 92 -658.5t68 -660.5h-156q-6 94 -12 175t-12 153h-529q-37 -82 -73.5 -163t-71.5 -165h-160zM324 461h456q-18 180 -40.5 363.5t-51.5 373.5h-6q-92 -184 -182 -367.5t-176 -369.5zM453 1503q20 66 63.5 108 t108.5 42q35 0 66.5 -12.5t70.5 -34.5q41 -23 62.5 -33t48.5 -10q35 0 54.5 16t35.5 51l61 -28q-20 -66 -63 -108t-109 -42q-35 0 -66.5 12.5t-70.5 34.5q-41 23 -62.5 33t-47.5 10q-35 0 -54.5 -16.5t-35.5 -50.5z" />
<glyph unicode="&#xc4;" horiz-adv-x="1097" d="M-41 0q150 334 309.5 660.5t329.5 658.5h215q53 -332 92 -658.5t68 -660.5h-156q-6 94 -12 175t-12 153h-529q-37 -82 -73.5 -163t-71.5 -165h-160zM324 461h456q-18 180 -40.5 363.5t-51.5 373.5h-6q-92 -184 -182 -367.5t-176 -369.5zM485 1466l29 162h145l-29 -162 h-145zM827 1466l29 162h145l-29 -162h-145z" />
<glyph unicode="&#xc5;" horiz-adv-x="1097" d="M-41 0q150 334 309.5 660.5t329.5 658.5h215q53 -332 92 -658.5t68 -660.5h-156q-6 94 -12 175t-12 153h-529q-37 -82 -73.5 -163t-71.5 -165h-160zM324 461h456q-18 180 -40.5 363.5t-51.5 373.5h-6q-92 -184 -182 -367.5t-176 -369.5zM563 1589q0 31 10 67t33 66.5 t60.5 50t91.5 19.5q74 0 132 -43t58 -133q0 -31 -10 -67t-34 -66.5t-61 -50t-90 -19.5q-74 0 -132 43t-58 133zM647 1593q0 -31 10 -50t26.5 -31.5t35.5 -17.5t37 -5q33 0 53 13.5t32.5 31.5t17.5 39.5t5 38.5q0 31 -10 50t-26.5 31.5t-35 17.5t-36.5 5q-33 0 -53.5 -13 t-33 -31.5t-17.5 -40t-5 -38.5z" />
<glyph unicode="&#xc6;" horiz-adv-x="1472" d="M-68 0q182 338 374 662.5t396 656.5h826l-23 -133h-622l6 -436h434l-23 -134h-407l6 -483h422l-23 -133h-540l-4 328h-488q-47 -84 -90 -164t-86 -164h-158zM340 461h412l-11 678h-4q-102 -168 -200.5 -336t-196.5 -342z" />
<glyph unicode="&#xc7;" horiz-adv-x="1024" d="M102 449q0 63 8.5 139t26 155.5t45 158.5t66.5 149q92 162 218 225t288 63q76 0 158.5 -11t160.5 -30l-26 -129q-66 16 -147 26.5t-148 10.5q-129 0 -219.5 -50t-155.5 -177q-31 -59 -54.5 -130t-38 -143.5t-21.5 -140t-7 -121.5q0 -90 19.5 -153.5t56.5 -103.5t91 -57 t124 -17q84 0 171 22.5t163 57.5l45 -119q-86 -41 -187.5 -67.5t-210.5 -26.5q-209 0 -317.5 114.5t-108.5 354.5zM354 -375l25 66q16 -4 35.5 -8.5t38.5 -4.5q57 0 82.5 34t25.5 69t-27.5 50t-99.5 17l21 60q201 0 200 -123q0 -33 -13 -64.5t-37.5 -57t-60.5 -41t-81 -15.5 q-25 0 -55.5 4t-53.5 14z" />
<glyph unicode="&#xc8;" horiz-adv-x="968" d="M84 0l231 1319h709l-23 -133h-561l-75 -436h454l-22 -134h-455l-86 -483h561l-22 -133h-711zM520 1688l139 69l121 -330l-72 -34z" />
<glyph unicode="&#xc9;" horiz-adv-x="968" d="M84 0l231 1319h709l-23 -133h-561l-75 -436h454l-22 -134h-455l-86 -483h561l-22 -133h-711zM589 1452l242 272l109 -118l-297 -213z" />
<glyph unicode="&#xca;" horiz-adv-x="968" d="M84 0l231 1319h709l-23 -133h-561l-75 -436h454l-22 -134h-455l-86 -483h561l-22 -133h-711zM438 1444l248 244h112l168 -244l-65 -47l-168 192l-246 -192z" />
<glyph unicode="&#xcb;" horiz-adv-x="968" d="M84 0l231 1319h709l-23 -133h-561l-75 -436h454l-22 -134h-455l-86 -483h561l-22 -133h-711zM465 1466l29 162h145l-29 -162h-145zM807 1466l29 162h145l-29 -162h-145z" />
<glyph unicode="&#xcc;" horiz-adv-x="485" d="M84 0l231 1319h152l-231 -1319h-152zM219 1688l139 69l121 -330l-72 -34z" />
<glyph unicode="&#xcd;" horiz-adv-x="485" d="M84 0l231 1319h152l-231 -1319h-152zM356 1452l242 272l109 -118l-297 -213z" />
<glyph unicode="&#xce;" horiz-adv-x="485" d="M84 0l231 1319h152l-231 -1319h-152zM148 1444l248 244h112l168 -244l-65 -47l-168 192l-246 -192z" />
<glyph unicode="&#xcf;" horiz-adv-x="485" d="M84 0l231 1319h152l-231 -1319h-152zM176 1466l29 162h145l-29 -162h-145zM518 1466l29 162h145l-29 -162h-145z" />
<glyph unicode="&#xd0;" horiz-adv-x="1183" d="M51 629l23 133h151l97 543q29 6 70.5 12t89.5 10t95.5 7t88.5 3q229 0 354 -108.5t125 -345.5q0 -57 -7.5 -128t-22.5 -145.5t-39.5 -150.5t-57.5 -144q-43 -86 -98.5 -148.5t-129 -102t-167 -58t-211.5 -18.5q-25 0 -61 1t-79 2t-89 3t-91 6l111 629h-152zM266 125 q51 -4 97.5 -4h91.5q150 0 255 56t175 202q27 55 46 119.5t32.5 130t20.5 128t7 115.5q0 180 -85 256t-265 76q-47 0 -101.5 -4t-86.5 -8l-76 -430h280l-22 -133h-281z" />
<glyph unicode="&#xd1;" horiz-adv-x="1288" d="M84 0l231 1319h222l374 -1145h7l200 1145h150l-232 -1319h-221l-375 1145h-6l-201 -1145h-149zM547 1503q20 66 63.5 108t108.5 42q35 0 66.5 -12.5t70.5 -34.5q41 -23 62.5 -33t48.5 -10q35 0 54.5 16t35.5 51l61 -28q-20 -66 -63 -108t-109 -42q-35 0 -66.5 12.5 t-70.5 34.5q-41 23 -62.5 33t-47.5 10q-35 0 -54.5 -16.5t-35.5 -50.5z" />
<glyph unicode="&#xd2;" horiz-adv-x="1224" d="M104 418q0 57 7.5 132t25 156.5t45 165.5t68.5 160q82 154 206 230.5t308 76.5q422 0 422 -434q0 -59 -8.5 -136t-25.5 -160t-45 -166t-67 -156q-78 -147 -201.5 -227t-314.5 -80q-211 0 -315.5 107.5t-104.5 330.5zM258 426q0 -174 71.5 -243.5t209.5 -69.5 q141 0 225 61.5t141 175.5q29 57 52.5 125t40 140.5t25.5 143t9 134.5q0 174 -71.5 243.5t-208.5 69.5q-139 0 -224.5 -60.5t-142.5 -176.5q-29 -57 -52.5 -125t-40 -140.5t-25.5 -143.5t-9 -134zM645 1713l139 69l121 -330l-72 -34z" />
<glyph unicode="&#xd3;" horiz-adv-x="1224" d="M104 418q0 57 7.5 132t25 156.5t45 165.5t68.5 160q82 154 206 230.5t308 76.5q422 0 422 -434q0 -59 -8.5 -136t-25.5 -160t-45 -166t-67 -156q-78 -147 -201.5 -227t-314.5 -80q-211 0 -315.5 107.5t-104.5 330.5zM258 426q0 -174 71.5 -243.5t209.5 -69.5 q141 0 225 61.5t141 175.5q29 57 52.5 125t40 140.5t25.5 143t9 134.5q0 174 -71.5 243.5t-208.5 69.5q-139 0 -224.5 -60.5t-142.5 -176.5q-29 -57 -52.5 -125t-40 -140.5t-25.5 -143.5t-9 -134zM714 1452l242 272l109 -118l-297 -213z" />
<glyph unicode="&#xd4;" horiz-adv-x="1224" d="M104 418q0 57 7.5 132t25 156.5t45 165.5t68.5 160q82 154 206 230.5t308 76.5q422 0 422 -434q0 -59 -8.5 -136t-25.5 -160t-45 -166t-67 -156q-78 -147 -201.5 -227t-314.5 -80q-211 0 -315.5 107.5t-104.5 330.5zM258 426q0 -174 71.5 -243.5t209.5 -69.5 q141 0 225 61.5t141 175.5q29 57 52.5 125t40 140.5t25.5 143t9 134.5q0 174 -71.5 243.5t-208.5 69.5q-139 0 -224.5 -60.5t-142.5 -176.5q-29 -57 -52.5 -125t-40 -140.5t-25.5 -143.5t-9 -134zM529 1444l248 244h112l168 -244l-65 -47l-168 192l-246 -192z" />
<glyph unicode="&#xd5;" horiz-adv-x="1224" d="M104 418q0 57 7.5 132t25 156.5t45 165.5t68.5 160q82 154 206 230.5t308 76.5q422 0 422 -434q0 -59 -8.5 -136t-25.5 -160t-45 -166t-67 -156q-78 -147 -201.5 -227t-314.5 -80q-211 0 -315.5 107.5t-104.5 330.5zM258 426q0 -174 71.5 -243.5t209.5 -69.5 q141 0 225 61.5t141 175.5q29 57 52.5 125t40 140.5t25.5 143t9 134.5q0 174 -71.5 243.5t-208.5 69.5q-139 0 -224.5 -60.5t-142.5 -176.5q-29 -57 -52.5 -125t-40 -140.5t-25.5 -143.5t-9 -134zM526 1503q20 66 63.5 108t108.5 42q35 0 66.5 -12.5t70.5 -34.5 q41 -23 62.5 -33t48.5 -10q35 0 54.5 16t35.5 51l61 -28q-20 -66 -63 -108t-109 -42q-35 0 -66.5 12.5t-70.5 34.5q-41 23 -62.5 33t-47.5 10q-35 0 -54.5 -16.5t-35.5 -50.5z" />
<glyph unicode="&#xd6;" horiz-adv-x="1224" d="M104 418q0 57 7.5 132t25 156.5t45 165.5t68.5 160q82 154 206 230.5t308 76.5q422 0 422 -434q0 -59 -8.5 -136t-25.5 -160t-45 -166t-67 -156q-78 -147 -201.5 -227t-314.5 -80q-211 0 -315.5 107.5t-104.5 330.5zM258 426q0 -174 71.5 -243.5t209.5 -69.5 q141 0 225 61.5t141 175.5q29 57 52.5 125t40 140.5t25.5 143t9 134.5q0 174 -71.5 243.5t-208.5 69.5q-139 0 -224.5 -60.5t-142.5 -176.5q-29 -57 -52.5 -125t-40 -140.5t-25.5 -143.5t-9 -134zM547 1466l29 162h145l-29 -162h-145zM889 1466l29 162h145l-29 -162h-145z " />
<glyph unicode="&#xd7;" horiz-adv-x="1056" d="M125 182l321 293l-217 287l95 86l217 -293l319 293l70 -92l-322 -293l217 -287l-94 -86l-217 293l-319 -293z" />
<glyph unicode="&#xd8;" horiz-adv-x="1224" d="M35 0l123 152q-55 100 -56 266q0 57 7.5 132t25 156.5t45 165.5t68.5 160q82 154 206 230.5t308 76.5q190 0 297 -90l57 70h137l-125 -154q55 -98 56 -260q0 -59 -8.5 -136t-25.5 -160t-45 -166t-67 -156q-78 -147 -201.5 -227t-314.5 -80q-193 0 -295 88l-55 -68h-137z M256 426q0 -41 3 -75t11 -62l693 841q-68 76 -213 76q-139 0 -224.5 -60.5t-142.5 -176.5q-29 -57 -52.5 -125t-40 -140.5t-25.5 -143.5t-9 -134zM324 186q35 -41 88 -57t125 -16q141 0 225 61.5t141 175.5q29 57 52.5 125t40 140.5t25.5 143t9 134.5q0 84 -14 135z" />
<glyph unicode="&#xd9;" horiz-adv-x="1216" d="M137 342q0 31 4 73t13 89l143 815h152l-140 -795q-8 -47 -12 -88t-4 -69q0 -127 60.5 -190.5t191.5 -63.5q158 0 248 96q51 53 79.5 132t47.5 183l139 795h151l-143 -815q-23 -123 -60.5 -223.5t-107.5 -169.5q-131 -131 -362 -131q-190 0 -295 88t-105 274zM596 1688 l139 69l121 -330l-72 -34z" />
<glyph unicode="&#xda;" horiz-adv-x="1216" d="M137 342q0 31 4 73t13 89l143 815h152l-140 -795q-8 -47 -12 -88t-4 -69q0 -127 60.5 -190.5t191.5 -63.5q158 0 248 96q51 53 79.5 132t47.5 183l139 795h151l-143 -815q-23 -123 -60.5 -223.5t-107.5 -169.5q-131 -131 -362 -131q-190 0 -295 88t-105 274zM684 1452 l242 272l109 -118l-297 -213z" />
<glyph unicode="&#xdb;" horiz-adv-x="1216" d="M137 342q0 31 4 73t13 89l143 815h152l-140 -795q-8 -47 -12 -88t-4 -69q0 -127 60.5 -190.5t191.5 -63.5q158 0 248 96q51 53 79.5 132t47.5 183l139 795h151l-143 -815q-23 -123 -60.5 -223.5t-107.5 -169.5q-131 -131 -362 -131q-190 0 -295 88t-105 274zM508 1444 l248 244h112l168 -244l-65 -47l-168 192l-246 -192z" />
<glyph unicode="&#xdc;" horiz-adv-x="1216" d="M137 342q0 31 4 73t13 89l143 815h152l-140 -795q-8 -47 -12 -88t-4 -69q0 -127 60.5 -190.5t191.5 -63.5q158 0 248 96q51 53 79.5 132t47.5 183l139 795h151l-143 -815q-23 -123 -60.5 -223.5t-107.5 -169.5q-131 -131 -362 -131q-190 0 -295 88t-105 274zM531 1466 l29 162h145l-29 -162h-145zM873 1466l29 162h145l-29 -162h-145z" />
<glyph unicode="&#xdd;" horiz-adv-x="1073" d="M188 1319h156q39 -186 92 -373.5t113 -343.5h4q117 160 237.5 347.5t221.5 369.5h168q-129 -236 -270.5 -443.5t-299.5 -414.5l-80 -461h-151l82 461q-86 207 -155.5 414.5t-117.5 443.5zM616 1452l242 272l109 -118l-297 -213z" />
<glyph unicode="&#xde;" horiz-adv-x="1081" d="M84 0l231 1319h152l-45 -260q104 12 196 12q201 0 308.5 -72.5t107.5 -248.5q0 -117 -44 -223.5t-128 -178.5q-66 -55 -152.5 -81.5t-217.5 -26.5q-55 0 -104.5 4t-108.5 12l-46 -256h-149zM301 377q37 -4 82 -7t88 -3q100 0 175 18t126 68q53 53 81 133t28 157 q0 117 -66.5 156t-216.5 39q-94 0 -201 -12z" />
<glyph unicode="&#xdf;" horiz-adv-x="1062" d="M70 0l166 946q35 205 141 299t299 94q160 0 242.5 -58t82.5 -163q0 -86 -52 -144.5t-130 -115.5q-86 -63 -133 -97t-47 -75q0 -37 41 -61.5t104 -67.5q92 -61 131 -117.5t39 -138.5q0 -68 -23.5 -126t-71.5 -101t-122.5 -68.5t-179.5 -25.5q-70 0 -132.5 11t-119.5 27 l33 125q47 -14 104.5 -25.5t116.5 -11.5q117 0 183.5 48.5t66.5 138.5q0 68 -39 102.5t-102 75.5q-49 33 -83 56.5t-54.5 46t-28.5 45t-8 53.5q0 37 11 64.5t35.5 54t60.5 54t85 62.5q78 55 124 98.5t46 98.5q0 109 -184 108q-70 0 -119 -15t-84 -49t-57.5 -86t-34.5 -126 l-164 -936h-143z" />
<glyph unicode="&#xe0;" horiz-adv-x="960" d="M80 291q0 43 6 97t16.5 110.5t26.5 114t39 106.5q53 123 140 185.5t235 62.5q86 0 181 -18.5t163 -47.5l-158 -901h-115l2 80q-55 -47 -123.5 -73.5t-146.5 -26.5q-129 0 -197.5 79.5t-68.5 231.5zM225 307q0 -100 37 -150.5t119 -50.5q72 0 133 32t109 71l106 612 q-45 10 -98 16.5t-94 6.5q-98 0 -150.5 -41t-87.5 -133q-14 -37 -27.5 -82t-23.5 -93.5t-16.5 -96.5t-6.5 -91zM402 1319l139 70l121 -330l-72 -35z" />
<glyph unicode="&#xe1;" horiz-adv-x="960" d="M80 291q0 43 6 97t16.5 110.5t26.5 114t39 106.5q53 123 140 185.5t235 62.5q86 0 181 -18.5t163 -47.5l-158 -901h-115l2 80q-55 -47 -123.5 -73.5t-146.5 -26.5q-129 0 -197.5 79.5t-68.5 231.5zM225 307q0 -100 37 -150.5t119 -50.5q72 0 133 32t109 71l106 612 q-45 10 -98 16.5t-94 6.5q-98 0 -150.5 -41t-87.5 -133q-14 -37 -27.5 -82t-23.5 -93.5t-16.5 -96.5t-6.5 -91zM494 1083l242 273l108 -119l-297 -213z" />
<glyph unicode="&#xe2;" horiz-adv-x="960" d="M80 291q0 43 6 97t16.5 110.5t26.5 114t39 106.5q53 123 140 185.5t235 62.5q86 0 181 -18.5t163 -47.5l-158 -901h-115l2 80q-55 -47 -123.5 -73.5t-146.5 -26.5q-129 0 -197.5 79.5t-68.5 231.5zM225 307q0 -100 37 -150.5t119 -50.5q72 0 133 32t109 71l106 612 q-45 10 -98 16.5t-94 6.5q-98 0 -150.5 -41t-87.5 -133q-14 -37 -27.5 -82t-23.5 -93.5t-16.5 -96.5t-6.5 -91zM321 1075l248 244h113l168 -244l-66 -47l-168 193l-246 -193z" />
<glyph unicode="&#xe3;" horiz-adv-x="960" d="M80 291q0 43 6 97t16.5 110.5t26.5 114t39 106.5q53 123 140 185.5t235 62.5q86 0 181 -18.5t163 -47.5l-158 -901h-115l2 80q-55 -47 -123.5 -73.5t-146.5 -26.5q-129 0 -197.5 79.5t-68.5 231.5zM225 307q0 -100 37 -150.5t119 -50.5q72 0 133 32t109 71l106 612 q-45 10 -98 16.5t-94 6.5q-98 0 -150.5 -41t-87.5 -133q-14 -37 -27.5 -82t-23.5 -93.5t-16.5 -96.5t-6.5 -91zM314 1135q20 66 63 107.5t109 41.5q35 0 66.5 -12t70.5 -35q41 -23 62.5 -33t47.5 -10q35 0 54.5 16.5t36.5 51.5l61 -29q-20 -66 -63.5 -108t-108.5 -42 q-35 0 -66.5 12.5t-70.5 34.5q-41 23 -62.5 33.5t-48.5 10.5q-35 0 -54.5 -16.5t-35.5 -51.5z" />
<glyph unicode="&#xe4;" horiz-adv-x="960" d="M80 291q0 43 6 97t16.5 110.5t26.5 114t39 106.5q53 123 140 185.5t235 62.5q86 0 181 -18.5t163 -47.5l-158 -901h-115l2 80q-55 -47 -123.5 -73.5t-146.5 -26.5q-129 0 -197.5 79.5t-68.5 231.5zM225 307q0 -100 37 -150.5t119 -50.5q72 0 133 32t109 71l106 612 q-45 10 -98 16.5t-94 6.5q-98 0 -150.5 -41t-87.5 -133q-14 -37 -27.5 -82t-23.5 -93.5t-16.5 -96.5t-6.5 -91zM344 1098l29 162h145l-29 -162h-145zM686 1098l29 162h145l-29 -162h-145z" />
<glyph unicode="&#xe5;" horiz-adv-x="960" d="M80 291q0 43 6 97t16.5 110.5t26.5 114t39 106.5q53 123 140 185.5t235 62.5q86 0 181 -18.5t163 -47.5l-158 -901h-115l2 80q-55 -47 -123.5 -73.5t-146.5 -26.5q-129 0 -197.5 79.5t-68.5 231.5zM225 307q0 -100 37 -150.5t119 -50.5q72 0 133 32t109 71l106 612 q-45 10 -98 16.5t-94 6.5q-98 0 -150.5 -41t-87.5 -133q-14 -37 -27.5 -82t-23.5 -93.5t-16.5 -96.5t-6.5 -91zM428 1219q0 31 10.5 66.5t33 66t60.5 50t91 19.5q74 0 132 -43t58 -133q0 -31 -10 -66.5t-33.5 -66.5t-60.5 -50.5t-90 -19.5q-74 0 -132.5 43t-58.5 134z M512 1223q0 -31 10.5 -50.5t27 -32t35 -17.5t36.5 -5q33 0 53.5 13.5t32.5 32t17.5 40t5.5 37.5q0 31 -10.5 50.5t-27 31.5t-35 17.5t-36.5 5.5q-33 0 -53.5 -13.5t-32.5 -32t-17.5 -40t-5.5 -37.5z" />
<glyph unicode="&#xe6;" horiz-adv-x="1421" d="M76 293q0 43 6 96t16.5 110.5t26.5 114t39 105.5q53 123 139 185.5t225 62.5q74 0 156 -16.5t143 -43.5l-12 -73q35 49 96.5 91t157.5 42q57 0 109.5 -19.5t90.5 -58.5t60.5 -97.5t22.5 -136.5q0 -49 -9.5 -109.5t-27.5 -123.5h-553q-4 -25 -7 -51.5t-3 -55.5 q0 -43 9 -81.5t30.5 -66.5t58.5 -44.5t92 -16.5q59 0 128 18.5t134 47.5l41 -115q-68 -35 -158 -56t-169 -21q-92 0 -162 31.5t-105 94.5q-90 -74 -159.5 -100t-139.5 -26q-137 0 -206.5 80.5t-69.5 232.5zM221 305q0 -199 156 -199q74 0 134 36t101 73q-2 16 -3 34.5 t-1 39.5q0 35 4 78t13 86l65 372q-33 8 -75 13.5t-80 5.5q-102 0 -154.5 -45t-87.5 -131q-16 -41 -29.5 -88.5t-23 -95.5t-14.5 -95t-5 -84zM782 537h416q4 27 6 54t2 46q0 86 -35.5 144.5t-119.5 58.5q-35 0 -76 -13.5t-78 -47.5t-67.5 -93t-47.5 -149z" />
<glyph unicode="&#xe7;" horiz-adv-x="829" d="M82 313q0 39 5 89.5t15.5 103.5t26.5 108.5t39 104.5q63 135 165.5 191.5t241.5 56.5q63 0 126 -9.5t122 -25.5l-28 -121q-53 16 -107.5 22.5t-101.5 6.5q-104 0 -175 -39t-118 -150q-14 -35 -26.5 -77t-20.5 -87t-13.5 -88t-5.5 -77q0 -215 191 -216q61 0 128.5 19.5 t131.5 48.5l41 -117q-66 -35 -156 -56t-170 -21q-154 0 -232.5 85.5t-78.5 247.5zM209 -375l25 66q16 -4 35.5 -8.5t38.5 -4.5q57 0 82.5 34t25.5 69t-27.5 50t-99.5 17l21 60q201 0 200 -123q0 -33 -13 -64.5t-37.5 -57t-60.5 -41t-81 -15.5q-25 0 -55.5 4t-53.5 14z" />
<glyph unicode="&#xe8;" horiz-adv-x="903" d="M78 324q0 43 6 96t18.5 110.5t34 114.5t51.5 109q55 92 143.5 152.5t211.5 60.5q76 0 131 -24.5t91 -66.5t52.5 -97.5t16.5 -119.5q0 -51 -9.5 -112.5t-21.5 -124.5h-574q-4 -27 -5 -52.5t-1 -43.5q0 -102 45 -161t158 -59q66 0 132.5 18.5t131.5 47.5l41 -115 q-66 -35 -156 -56t-176 -21q-154 0 -237.5 82t-83.5 262zM248 537h432q4 29 6 57.5t2 50.5q0 41 -7 77t-24.5 61.5t-47 41t-77.5 15.5q-115 0 -183 -84t-101 -219zM355 1319l139 70l121 -330l-72 -35z" />
<glyph unicode="&#xe9;" horiz-adv-x="903" d="M78 324q0 43 6 96t18.5 110.5t34 114.5t51.5 109q55 92 143.5 152.5t211.5 60.5q76 0 131 -24.5t91 -66.5t52.5 -97.5t16.5 -119.5q0 -51 -9.5 -112.5t-21.5 -124.5h-574q-4 -27 -5 -52.5t-1 -43.5q0 -102 45 -161t158 -59q66 0 132.5 18.5t131.5 47.5l41 -115 q-66 -35 -156 -56t-176 -21q-154 0 -237.5 82t-83.5 262zM248 537h432q4 29 6 57.5t2 50.5q0 41 -7 77t-24.5 61.5t-47 41t-77.5 15.5q-115 0 -183 -84t-101 -219zM455 1083l242 273l108 -119l-297 -213z" />
<glyph unicode="&#xea;" horiz-adv-x="903" d="M78 324q0 43 6 96t18.5 110.5t34 114.5t51.5 109q55 92 143.5 152.5t211.5 60.5q76 0 131 -24.5t91 -66.5t52.5 -97.5t16.5 -119.5q0 -51 -9.5 -112.5t-21.5 -124.5h-574q-4 -27 -5 -52.5t-1 -43.5q0 -102 45 -161t158 -59q66 0 132.5 18.5t131.5 47.5l41 -115 q-66 -35 -156 -56t-176 -21q-154 0 -237.5 82t-83.5 262zM248 537h432q4 29 6 57.5t2 50.5q0 41 -7 77t-24.5 61.5t-47 41t-77.5 15.5q-115 0 -183 -84t-101 -219zM293 1075l248 244h113l168 -244l-66 -47l-168 193l-246 -193z" />
<glyph unicode="&#xeb;" horiz-adv-x="903" d="M78 324q0 43 6 96t18.5 110.5t34 114.5t51.5 109q55 92 143.5 152.5t211.5 60.5q76 0 131 -24.5t91 -66.5t52.5 -97.5t16.5 -119.5q0 -51 -9.5 -112.5t-21.5 -124.5h-574q-4 -27 -5 -52.5t-1 -43.5q0 -102 45 -161t158 -59q66 0 132.5 18.5t131.5 47.5l41 -115 q-66 -35 -156 -56t-176 -21q-154 0 -237.5 82t-83.5 262zM248 537h432q4 29 6 57.5t2 50.5q0 41 -7 77t-24.5 61.5t-47 41t-77.5 15.5q-115 0 -183 -84t-101 -219zM309 1098l29 162h145l-29 -162h-145zM651 1098l29 162h145l-29 -162h-145z" />
<glyph unicode="&#xec;" d="M70 0l166 946h143l-166 -946h-143zM130 1319l139 70l121 -330l-72 -35z" />
<glyph unicode="&#xed;" d="M70 0l166 946h143l-166 -946h-143zM252 1083l242 273l108 -119l-297 -213z" />
<glyph unicode="&#xee;" d="M70 0l166 946h143l-166 -946h-143zM71 1075l248 244h113l168 -244l-66 -47l-168 193l-246 -193z" />
<glyph unicode="&#xef;" d="M70 0l166 946h143l-166 -946h-143zM90 1098l29 162h145l-29 -162h-145zM432 1098l29 162h145l-29 -162h-145z" />
<glyph unicode="&#xf0;" horiz-adv-x="974" d="M78 293q0 43 6 96t18.5 110.5t31 115t42.5 106.5q59 127 150.5 186.5t218.5 59.5q35 0 71.5 -4.5t75.5 -10.5q-35 106 -100 195l-166 -125l-66 86l160 121q-29 27 -58.5 51.5t-64.5 48.5l74 88q41 -25 79 -51.5t73 -58.5l131 100l67 -88l-123 -92q86 -106 133.5 -232.5 t47.5 -306.5q0 -90 -16.5 -205.5t-63.5 -226.5q-23 -53 -56.5 -102.5t-81 -88t-113 -62t-153.5 -23.5q-160 0 -238.5 80.5t-78.5 232.5zM223 315q0 -119 50.5 -164t132.5 -45q188 0 266 211q14 37 25.5 82t19.5 94.5t12 98.5t4 92q0 35 -3 71t-7 70q-43 8 -84 13.5t-80 5.5 q-94 0 -153.5 -41t-102.5 -133q-39 -84 -59.5 -182.5t-20.5 -172.5z" />
<glyph unicode="&#xf1;" horiz-adv-x="989" d="M70 0l166 946h112l-4 -90q59 47 138 79t165 32q111 0 177.5 -59.5t66.5 -170.5q0 -23 -3 -43t-7 -47l-113 -647h-143l110 635q4 25 7 46t3 40q0 55 -30.5 87t-102.5 32t-142.5 -27t-123.5 -57l-133 -756h-143zM336 1135q20 66 63 107.5t109 41.5q35 0 66.5 -12t70.5 -35 q41 -23 62.5 -33t47.5 -10q35 0 54.5 16.5t36.5 51.5l61 -29q-20 -66 -63.5 -108t-108.5 -42q-35 0 -66.5 12.5t-70.5 34.5q-41 23 -62.5 33.5t-48.5 10.5q-35 0 -54.5 -16.5t-35.5 -51.5z" />
<glyph unicode="&#xf2;" horiz-adv-x="962" d="M76 324q0 51 7 107t21.5 111.5t34 107.5t43.5 95q59 104 151.5 163t225.5 59q160 0 242 -87t82 -257q0 -51 -7.5 -107.5t-21.5 -112t-33.5 -107.5t-44.5 -95q-59 -104 -151.5 -162.5t-225.5 -58.5q-160 0 -241.5 87t-81.5 257zM221 328q0 -96 41 -159t148 -63 q78 0 139 38t108 130q18 39 34 83t26 90.5t15 90.5t5 80q0 96 -41 159t-147 63q-78 0 -139.5 -38t-108.5 -130q-18 -39 -33.5 -83t-26 -90t-15.5 -90t-5 -81zM408 1319l139 70l121 -330l-72 -35z" />
<glyph unicode="&#xf3;" horiz-adv-x="962" d="M76 324q0 51 7 107t21.5 111.5t34 107.5t43.5 95q59 104 151.5 163t225.5 59q160 0 242 -87t82 -257q0 -51 -7.5 -107.5t-21.5 -112t-33.5 -107.5t-44.5 -95q-59 -104 -151.5 -162.5t-225.5 -58.5q-160 0 -241.5 87t-81.5 257zM221 328q0 -96 41 -159t148 -63 q78 0 139 38t108 130q18 39 34 83t26 90.5t15 90.5t5 80q0 96 -41 159t-147 63q-78 0 -139.5 -38t-108.5 -130q-18 -39 -33.5 -83t-26 -90t-15.5 -90t-5 -81zM526 1083l242 273l108 -119l-297 -213z" />
<glyph unicode="&#xf4;" horiz-adv-x="962" d="M76 324q0 51 7 107t21.5 111.5t34 107.5t43.5 95q59 104 151.5 163t225.5 59q160 0 242 -87t82 -257q0 -51 -7.5 -107.5t-21.5 -112t-33.5 -107.5t-44.5 -95q-59 -104 -151.5 -162.5t-225.5 -58.5q-160 0 -241.5 87t-81.5 257zM221 328q0 -96 41 -159t148 -63 q78 0 139 38t108 130q18 39 34 83t26 90.5t15 90.5t5 80q0 96 -41 159t-147 63q-78 0 -139.5 -38t-108.5 -130q-18 -39 -33.5 -83t-26 -90t-15.5 -90t-5 -81zM325 1075l248 244h113l168 -244l-66 -47l-168 193l-246 -193z" />
<glyph unicode="&#xf5;" horiz-adv-x="962" d="M76 324q0 51 7 107t21.5 111.5t34 107.5t43.5 95q59 104 151.5 163t225.5 59q160 0 242 -87t82 -257q0 -51 -7.5 -107.5t-21.5 -112t-33.5 -107.5t-44.5 -95q-59 -104 -151.5 -162.5t-225.5 -58.5q-160 0 -241.5 87t-81.5 257zM221 328q0 -96 41 -159t148 -63 q78 0 139 38t108 130q18 39 34 83t26 90.5t15 90.5t5 80q0 96 -41 159t-147 63q-78 0 -139.5 -38t-108.5 -130q-18 -39 -33.5 -83t-26 -90t-15.5 -90t-5 -81zM314 1135q20 66 63 107.5t109 41.5q35 0 66.5 -12t70.5 -35q41 -23 62.5 -33t47.5 -10q35 0 54.5 16.5t36.5 51.5 l61 -29q-20 -66 -63.5 -108t-108.5 -42q-35 0 -66.5 12.5t-70.5 34.5q-41 23 -62.5 33.5t-48.5 10.5q-35 0 -54.5 -16.5t-35.5 -51.5z" />
<glyph unicode="&#xf6;" horiz-adv-x="962" d="M76 324q0 51 7 107t21.5 111.5t34 107.5t43.5 95q59 104 151.5 163t225.5 59q160 0 242 -87t82 -257q0 -51 -7.5 -107.5t-21.5 -112t-33.5 -107.5t-44.5 -95q-59 -104 -151.5 -162.5t-225.5 -58.5q-160 0 -241.5 87t-81.5 257zM221 328q0 -96 41 -159t148 -63 q78 0 139 38t108 130q18 39 34 83t26 90.5t15 90.5t5 80q0 96 -41 159t-147 63q-78 0 -139.5 -38t-108.5 -130q-18 -39 -33.5 -83t-26 -90t-15.5 -90t-5 -81zM344 1098l29 162h145l-29 -162h-145zM686 1098l29 162h145l-29 -162h-145z" />
<glyph unicode="&#xf7;" horiz-adv-x="1236" d="M166 420l18 106h885l-18 -106h-885zM457 0l30 174h158l-31 -174h-157zM590 772l31 174h157l-30 -174h-158z" />
<glyph unicode="&#xf8;" horiz-adv-x="964" d="M12 0l105 123q-41 82 -41 203q0 51 7 106t20.5 110.5t33 107.5t43.5 95q59 104 152.5 163t226.5 59q143 0 221 -70l41 49h123l-106 -125q43 -80 43 -200q0 -51 -7.5 -106.5t-20.5 -111t-32.5 -107.5t-44.5 -95q-59 -104 -151.5 -162.5t-225.5 -58.5q-145 0 -223 69 l-41 -49h-123zM221 330q0 -45 6 -78l459 534q-23 25 -56.5 39.5t-80.5 14.5q-78 0 -140.5 -38t-109.5 -130q-39 -78 -58.5 -173.5t-19.5 -168.5zM270 158q47 -51 140 -52q78 0 139 38t108 130q39 78 58.5 173.5t19.5 168.5q0 41 -6 78z" />
<glyph unicode="&#xf9;" horiz-adv-x="987" d="M98 211q0 16 2 37.5t6 50.5l113 647h143l-110 -633q-10 -57 -10 -90q0 -117 133 -117q72 0 139.5 27t122.5 57l133 756h143l-165 -946h-113l4 90q-61 -47 -138 -78.5t-165 -31.5q-111 0 -174.5 58t-63.5 173zM406 1319l139 70l121 -330l-72 -35z" />
<glyph unicode="&#xfa;" horiz-adv-x="987" d="M98 211q0 16 2 37.5t6 50.5l113 647h143l-110 -633q-10 -57 -10 -90q0 -117 133 -117q72 0 139.5 27t122.5 57l133 756h143l-165 -946h-113l4 90q-61 -47 -138 -78.5t-165 -31.5q-111 0 -174.5 58t-63.5 173zM524 1083l242 273l108 -119l-297 -213z" />
<glyph unicode="&#xfb;" horiz-adv-x="987" d="M98 211q0 16 2 37.5t6 50.5l113 647h143l-110 -633q-10 -57 -10 -90q0 -117 133 -117q72 0 139.5 27t122.5 57l133 756h143l-165 -946h-113l4 90q-61 -47 -138 -78.5t-165 -31.5q-111 0 -174.5 58t-63.5 173zM323 1075l248 244h113l168 -244l-66 -47l-168 193l-246 -193z " />
<glyph unicode="&#xfc;" horiz-adv-x="987" d="M98 211q0 16 2 37.5t6 50.5l113 647h143l-110 -633q-10 -57 -10 -90q0 -117 133 -117q72 0 139.5 27t122.5 57l133 756h143l-165 -946h-113l4 90q-61 -47 -138 -78.5t-165 -31.5q-111 0 -174.5 58t-63.5 173zM340 1098l29 162h145l-29 -162h-145zM682 1098l29 162h145 l-29 -162h-145z" />
<glyph unicode="&#xfd;" horiz-adv-x="862" d="M121 -373q53 98 104 192.5t94 180.5h-75q-37 190 -65.5 434t-49.5 512h150q12 -219 32.5 -429t53.5 -400h8q45 92 92 195.5t93 211t90 215t81 207.5h148q-61 -160 -135 -330t-153 -341t-162 -335.5t-165 -312.5h-141zM475 1083l242 273l108 -119l-297 -213z" />
<glyph unicode="&#xfe;" horiz-adv-x="974" d="M2 -373l299 1692h143l-79 -447q53 41 113.5 68t137.5 27q129 0 197 -80t68 -234q0 -43 -6.5 -97t-16.5 -110.5t-26.5 -113t-36.5 -105.5q-51 -119 -137.5 -183t-227.5 -64q-47 0 -104.5 7t-110.5 19l-68 -379h-145zM233 123q41 -10 89.5 -17.5t93.5 -7.5q90 0 150.5 41 t103.5 146q31 74 48 168t17 178q0 106 -32.5 159.5t-118.5 53.5q-66 0 -127.5 -29t-112.5 -70z" />
<glyph unicode="&#xff;" horiz-adv-x="862" d="M121 -373q53 98 104 192.5t94 180.5h-75q-37 190 -65.5 434t-49.5 512h150q12 -219 32.5 -429t53.5 -400h8q45 92 92 195.5t93 211t90 215t81 207.5h148q-61 -160 -135 -330t-153 -341t-162 -335.5t-165 -312.5h-141zM293 1098l29 162h145l-29 -162h-145zM635 1098 l29 162h145l-29 -162h-145z" />
<glyph unicode="&#x152;" horiz-adv-x="1540" d="M104 453q0 57 7.5 127.5t25 146.5t43 150.5t62.5 142.5q86 154 219 226.5t330 72.5h806l-22 -133h-510l-76 -436h404l-23 -134h-403l-86 -483h510l-23 -133h-811q-223 0 -338 110t-115 343zM258 463q0 -184 78 -257t235 -73h158l184 1053h-147q-150 0 -243 -57.5 t-156 -182.5q-27 -53 -47.5 -114.5t-34 -125t-20.5 -126t-7 -117.5z" />
<glyph unicode="&#x153;" horiz-adv-x="1486" d="M76 324q0 90 24.5 204.5t81.5 216.5q61 111 150.5 166.5t218.5 55.5q213 0 278 -166q57 82 140.5 124t179.5 42q129 0 205 -76t76 -234q0 -53 -9.5 -114.5t-29.5 -120.5h-553q-4 -25 -6.5 -49.5t-2.5 -44.5q0 -104 44.5 -163t148.5 -59q59 0 127 18.5t133 47.5l41 -115 q-66 -35 -155 -56t-175 -21q-102 0 -177 41.5t-97 138.5q-59 -88 -144.5 -134t-193.5 -46q-145 0 -225 85t-80 259zM221 344q0 -49 9.5 -93t30 -76t54 -50.5t84.5 -18.5q88 0 147.5 51.5t96.5 127.5q35 68 54.5 154.5t19.5 164.5q0 49 -9.5 92t-31 75t-55 50.5t-84.5 18.5 q-84 0 -142.5 -49.5t-99.5 -128.5q-37 -74 -55.5 -157t-18.5 -161zM856 537h416q12 51 12 110q0 39 -7 74t-24.5 61.5t-47 42t-75.5 15.5q-55 0 -100 -23.5t-78.5 -64.5t-58.5 -96.5t-37 -118.5z" />
<glyph unicode="&#x178;" horiz-adv-x="1073" d="M188 1319h156q39 -186 92 -373.5t113 -343.5h4q117 160 237.5 347.5t221.5 369.5h168q-129 -236 -270.5 -443.5t-299.5 -414.5l-80 -461h-151l82 461q-86 207 -155.5 414.5t-117.5 443.5zM572 1466l29 162h145l-29 -162h-145zM914 1466l29 162h145l-29 -162h-145z" />
<glyph unicode="&#x2c6;" horiz-adv-x="854" d="M266 1075l248 244h113l168 -244l-66 -47l-168 193l-246 -193z" />
<glyph unicode="&#x2dc;" horiz-adv-x="817" d="M238 1135q20 66 63 107.5t109 41.5q35 0 66.5 -12t70.5 -35q41 -23 62.5 -33t47.5 -10q35 0 54.5 16.5t36.5 51.5l61 -29q-20 -66 -63.5 -108t-108.5 -42q-35 0 -66.5 12.5t-70.5 34.5q-41 23 -62.5 33.5t-48.5 10.5q-35 0 -54.5 -16.5t-35.5 -51.5z" />
<glyph unicode="&#x2000;" horiz-adv-x="896" />
<glyph unicode="&#x2001;" horiz-adv-x="1792" />
<glyph unicode="&#x2002;" horiz-adv-x="896" />
<glyph unicode="&#x2003;" horiz-adv-x="1792" />
<glyph unicode="&#x2004;" horiz-adv-x="597" />
<glyph unicode="&#x2005;" />
<glyph unicode="&#x2006;" horiz-adv-x="298" />
<glyph unicode="&#x2007;" horiz-adv-x="298" />
<glyph unicode="&#x2008;" horiz-adv-x="224" />
<glyph unicode="&#x2009;" horiz-adv-x="358" />
<glyph unicode="&#x200a;" horiz-adv-x="99" />
<glyph unicode="&#x2010;" horiz-adv-x="593" d="M86 442l23 133h409l-22 -133h-410z" />
<glyph unicode="&#x2011;" horiz-adv-x="593" d="M86 442l23 133h409l-22 -133h-410z" />
<glyph unicode="&#x2012;" horiz-adv-x="593" d="M86 442l23 133h409l-22 -133h-410z" />
<glyph unicode="&#x2013;" horiz-adv-x="1294" d="M170 451l20 110h945l-21 -110h-944z" />
<glyph unicode="&#x2014;" horiz-adv-x="1449" d="M78 451l18 110h1282l-18 -110h-1282z" />
<glyph unicode="&#x2018;" horiz-adv-x="473" d="M242 936q16 117 55 213t104 174l62 -8q-33 -86 -52.5 -178.5t-23.5 -190.5z" />
<glyph unicode="&#x2019;" horiz-adv-x="475" d="M242 946q68 172 77 369l146 8q-16 -115 -55 -212t-105 -175z" />
<glyph unicode="&#x201a;" horiz-adv-x="475" d="M29 -205q68 172 77 369l146 8q-16 -115 -55 -212t-105 -175z" />
<glyph unicode="&#x201c;" horiz-adv-x="708" d="M242 936q16 117 55 213t104 174l62 -8q-33 -86 -52.5 -178.5t-23.5 -190.5zM478 936q16 117 55 213t104 174l62 -8q-33 -86 -52.5 -178.5t-23.5 -190.5z" />
<glyph unicode="&#x201d;" horiz-adv-x="708" d="M242 946q68 172 77 369l146 8q-16 -115 -55 -212t-105 -175zM475 946q68 172 77 369l146 8q-16 -115 -55 -212t-105 -175z" />
<glyph unicode="&#x201e;" horiz-adv-x="708" d="M29 -205q68 172 77 369l146 8q-16 -115 -55 -212t-105 -175zM260 -205q68 172 77 369l146 8q-16 -115 -55 -212t-105 -175z" />
<glyph unicode="&#x2022;" horiz-adv-x="743" d="M193 621q0 47 15 93t46 81.5t76 58.5t106 23q168 0 168 -162q0 -47 -16.5 -93.5t-48 -81t-78 -56t-107.5 -21.5q-162 0 -161 158z" />
<glyph unicode="&#x2026;" horiz-adv-x="1243" d="M107 0l30 176h162l-30 -176h-162zM455 0l30 176h162l-30 -176h-162zM805 0l30 176h162l-30 -176h-162z" />
<glyph unicode="&#x202f;" horiz-adv-x="358" />
<glyph unicode="&#x2039;" horiz-adv-x="561" d="M59 465q0 66 32 112t75 87q16 16 50 46.5t75 66.5t84 74t78 67l77 -89q-33 -29 -73.5 -64.5t-80.5 -71.5t-76 -68.5t-58 -55.5q-23 -23 -38.5 -46t-15.5 -56t25 -72q8 -14 29.5 -43.5t49 -65.5t57.5 -76t59 -73l-99 -80q-25 31 -53.5 66t-55 70.5t-49 66.5t-36.5 51 q-27 41 -41.5 76t-14.5 78z" />
<glyph unicode="&#x203a;" horiz-adv-x="565" d="M35 145q33 27 74 64t80.5 73.5t74.5 69.5t58 54q23 23 38 45t15 57q0 33 -23 72q-10 18 -32.5 47.5t-49 65.5t-56.5 74t-56 71l98 80q20 -25 47 -59t53.5 -68.5t51 -67.5t43.5 -59q27 -39 41 -75t14 -79q0 -66 -32 -112t-75 -87q-18 -18 -53 -49t-75 -65.5t-82 -71.5 t-76 -68z" />
<glyph unicode="&#x205f;" />
<glyph unicode="&#x20ac;" horiz-adv-x="1085" d="M57 465l23 123h143q4 39 11.5 81t15.5 79h-146l23 122h154q33 100 73 181q86 164 209 226t271 62q72 0 149.5 -11t151.5 -30l-27 -129q-61 16 -137 26.5t-140 10.5q-119 0 -203.5 -50t-144.5 -177q-6 -12 -20 -44t-25 -65h412l-23 -122h-421q-10 -41 -16.5 -81t-10.5 -79 h424l-23 -123h-409v-21q0 -182 69.5 -256.5t198.5 -74.5q78 0 161 22.5t152 57.5l43 -119q-78 -41 -175 -67.5t-202 -26.5q-197 0 -299 114.5t-102 351.5v19h-160z" />
<glyph unicode="&#x2122;" horiz-adv-x="1390" d="M186 1221l17 98h534l-16 -98h-211l-113 -635h-112l112 635h-211zM688 586l141 733h125l113 -436h4l266 436h133l-114 -733h-117l82 518h-4l-219 -365h-99l-96 365h-2l-98 -518h-115z" />
<glyph unicode="&#x25fc;" horiz-adv-x="942" d="M0 0v942h942v-942h-942z" />
</font>
</defs>
</svg>
