<?xml version="1.0" standalone="no"?>
<!DOCTYPE svg PUBLIC "-//W3C//DTD SVG 1.1//EN" "http://www.w3.org/Graphics/SVG/1.1/DTD/svg11.dtd" >
<svg xmlns="http://www.w3.org/2000/svg" xmlns:xlink="http://www.w3.org/1999/xlink" version="1.1">
<metadata></metadata>
<defs>
<font id="liberty_global_gestaBdIt" horiz-adv-x="1183" >
<font-face units-per-em="2048" ascent="1497" descent="-551" />
<missing-glyph horiz-adv-x="473" />
<glyph unicode="&#xfb01;" horiz-adv-x="1126" d="M80 0l131 745h-131l31 175l133 10l18 102q16 88 46 147.5t74 95.5t100.5 50t127.5 14q41 0 86 -4t95 -10l-25 -209q-39 4 -81 7t-67 3q-53 0 -78.5 -20.5t-37.5 -91.5l-13 -68h598l-165 -946h-244l131 745h-354l-131 -745h-244zM868 1090l41 229h244l-41 -229h-244z" />
<glyph unicode="&#xfb02;" horiz-adv-x="1126" d="M80 0l131 745h-131l31 175l133 10l18 102q16 88 46 147.5t74 95.5t100.5 50t127.5 14q41 0 86 -4t95 -10l-25 -209q-39 4 -81 7t-67 3q-53 0 -78.5 -20.5t-37.5 -91.5l-13 -68h185l-35 -201h-184l-131 -745h-244zM678 0l231 1319h244l-231 -1319h-244z" />
<glyph horiz-adv-x="0" />
<glyph horiz-adv-x="0" />
<glyph unicode="&#xd;" horiz-adv-x="473" />
<glyph unicode=" "  horiz-adv-x="473" />
<glyph unicode="&#x09;" horiz-adv-x="473" />
<glyph unicode="&#xa0;" horiz-adv-x="473" />
<glyph unicode="!" horiz-adv-x="534" d="M66 0l40 238h238l-41 -238h-237zM166 354l115 965h274l-227 -965h-162z" />
<glyph unicode="&#x22;" horiz-adv-x="651" d="M193 1049q0 59 7 135t25 176h226q-35 -170 -74 -274.5t-76 -163.5h-98q-4 25 -7 55.5t-3 71.5zM486 1049q0 59 7 135t25 176h226q-35 -170 -74 -274.5t-76 -163.5h-98q-4 25 -7 55.5t-3 71.5z" />
<glyph unicode="#" horiz-adv-x="1120" d="M55 385l51 154h173l81 247h-172l52 154h172l131 379h166l-131 -379h217l131 379h166l-131 -379h172l-52 -154h-172l-82 -247h172l-51 -154h-172l-131 -385h-166l131 385h-217l-131 -385h-166l131 385h-172zM444 539h218l81 247h-217z" />
<glyph unicode="$" horiz-adv-x="997" d="M29 10l24 215q63 -8 141 -14t144 -6q78 0 142.5 12t109.5 47q29 23 47 56.5t18 80.5q0 33 -10 54.5t-34.5 41t-65.5 39t-103 48.5q-49 23 -98 50.5t-89 65t-65.5 90t-25.5 123.5q0 86 38 171t103 145q43 39 102.5 64.5t131.5 35.5l36 201h242l-35 -195q53 -4 103.5 -10 t99.5 -16l-33 -215q-47 8 -111.5 14t-129.5 6q-74 0 -135.5 -11t-98.5 -44q-23 -20 -37 -49t-14 -64q0 -27 10 -46t37 -38.5t70 -41t108 -52.5q55 -27 103.5 -58.5t85.5 -72.5t57.5 -94.5t20.5 -122.5q0 -104 -46.5 -198.5t-123.5 -149.5q-43 -31 -95.5 -49.5t-107.5 -28.5 l-37 -205h-242l35 193q-72 4 -140.5 11t-131.5 17z" />
<glyph unicode="%" horiz-adv-x="1529" d="M156 932q0 72 23.5 144.5t69.5 131t113.5 95t157.5 36.5q119 0 178.5 -65.5t59.5 -177.5q0 -72 -23.5 -144.5t-70 -131t-114 -95.5t-157.5 -37q-119 0 -178 65.5t-59 178.5zM193 0l989 1319h215l-989 -1319h-215zM342 944q0 -51 17.5 -74.5t58.5 -23.5q45 0 74.5 26.5 t47 64.5t24.5 79t7 67q0 51 -17 75t-58 24q-45 0 -75 -27t-47.5 -64.5t-24.5 -78.5t-7 -68zM836 223q0 72 23.5 144.5t69.5 131t113.5 95.5t157.5 37q119 0 178.5 -65.5t59.5 -178.5q0 -72 -23.5 -144.5t-70 -131t-114 -95t-157.5 -36.5q-119 0 -178 65t-59 178zM1022 236 q0 -51 17.5 -75t58.5 -24q45 0 74.5 26.5t47 64.5t24.5 79t7 68q0 51 -17 74.5t-58 23.5q-45 0 -75 -26.5t-47.5 -64.5t-24.5 -78.5t-7 -67.5z" />
<glyph unicode="&#x26;" horiz-adv-x="1167" d="M18 289q0 125 70 218t188 165l56 33q-53 66 -86 130t-33 146q0 80 33 145.5t90 112.5t135 73.5t168 26.5q80 0 143.5 -22.5t106.5 -60t65.5 -90t22.5 -111.5q0 -66 -25.5 -120t-66.5 -98t-95.5 -82t-109.5 -71q41 -47 91 -99.5t99 -103.5q27 31 55.5 67t59.5 77l170 -129 q-29 -39 -62.5 -82t-70.5 -88l123 -123l-178 -172l-117 119q-96 -84 -194.5 -127t-235.5 -43q-109 0 -185.5 25.5t-125 68.5t-70 98.5t-21.5 116.5zM281 338q0 -57 36.5 -95t133.5 -38q78 0 136 26.5t113 73.5q-66 68 -125 132.5t-108 117.5l-49 -29q-55 -35 -96 -75.5 t-41 -112.5zM475 989q0 -35 16.5 -71.5t55.5 -83.5l35 20q23 12 46 28.5t42.5 37t32 46t12.5 58.5q0 41 -28 65.5t-75 24.5q-61 0 -99 -32.5t-38 -92.5z" />
<glyph unicode="'" horiz-adv-x="358" d="M193 1049q0 59 7 135t25 176h226q-35 -170 -74 -274.5t-76 -163.5h-98q-4 25 -7 55.5t-3 71.5z" />
<glyph unicode="(" horiz-adv-x="538" d="M57 203q0 166 39 356.5t123 366.5q68 143 153 252.5t167 187.5l116 -76q-76 -94 -141 -194.5t-119 -235.5q-63 -158 -98 -332t-35 -348q0 -160 30 -276.5t83 -222.5l-123 -76q-45 59 -81 122.5t-61.5 135t-39 156t-13.5 184.5z" />
<glyph unicode=")" horiz-adv-x="538" d="M-109 -319q76 94 142 194.5t119 235.5q63 158 98 331.5t35 348.5q0 160 -30 276.5t-83 222.5l123 76q45 -59 81 -122.5t61.5 -135.5t38.5 -156t13 -184q0 -166 -38.5 -356.5t-122.5 -366.5q-68 -143 -153 -252.5t-167 -187.5z" />
<glyph unicode="*" horiz-adv-x="655" d="M152 944l157 94l-125 92l76 103l121 -88l31 174h129l-31 -172l154 86l38 -100l-157 -95l125 -94l-76 -100l-121 88l-31 -174h-129l31 172l-154 -86z" />
<glyph unicode="+" horiz-adv-x="1140" d="M111 383l30 180h344l68 383h205l-70 -383h342l-31 -180h-344l-65 -383h-205l68 383h-342z" />
<glyph unicode="," horiz-adv-x="468" d="M-10 -238q47 104 67.5 215t22.5 234l227 12q-4 -66 -21.5 -130t-46 -125.5t-66.5 -116t-81 -99.5z" />
<glyph unicode="-" horiz-adv-x="577" d="M53 399l39 226h445l-39 -226h-445z" />
<glyph unicode="." horiz-adv-x="468" d="M33 0l41 238h237l-41 -238h-237z" />
<glyph unicode="/" horiz-adv-x="772" d="M-57 0l747 1319h211l-747 -1319h-211z" />
<glyph unicode="0" horiz-adv-x="1091" d="M88 403q0 53 6 124t18.5 148t30 153.5t41.5 144.5q31 90 73 158.5t98.5 114.5t131 69.5t172.5 23.5q217 0 312.5 -108.5t95.5 -315.5q0 -53 -6 -123.5t-18.5 -147.5t-30 -153.5t-41.5 -144.5q-31 -90 -73 -158.5t-98.5 -114.5t-131 -69.5t-172.5 -23.5q-217 0 -312.5 108 t-95.5 315zM350 399q0 -86 34 -140t128 -54q104 0 153.5 72.5t82.5 211.5q8 39 18 96.5t19.5 118t14.5 118t5 98.5q0 86 -34 140t-128 54q-104 0 -153.5 -72.5t-81.5 -212.5q-10 -41 -19.5 -97t-19 -116.5t-14.5 -118t-5 -98.5z" />
<glyph unicode="1" horiz-adv-x="778" d="M137 1120l395 199h224l-232 -1319h-258l185 1049l-240 -95z" />
<glyph unicode="2" horiz-adv-x="1107" d="M129 0l33 188q154 127 277.5 233.5t209.5 200t133 177.5t47 164q0 84 -46 117.5t-130 33.5q-78 0 -156.5 -22.5t-144.5 -44.5l-61 204q76 31 176 59.5t215 28.5q82 0 156.5 -19.5t131 -60t89.5 -105t33 -155.5q0 -193 -157 -380t-441 -394h485l-39 -225h-811z" />
<glyph unicode="3" horiz-adv-x="933" d="M-6 18l41 224q59 -14 133 -25.5t141 -11.5q72 0 133.5 17.5t96.5 60.5q25 29 36 71.5t11 83.5q0 76 -36 104.5t-118 28.5h-143l39 217h145q55 0 92 18.5t59.5 47.5t32 63.5t9.5 69.5q0 59 -32 93t-120 34q-78 0 -149.5 -22.5t-120.5 -42.5l-68 204q76 35 177.5 60.5 t211.5 25.5q170 0 266.5 -74.5t96.5 -230.5q0 -111 -51.5 -196.5t-151.5 -139.5q66 -37 94.5 -96t28.5 -153q0 -100 -31 -182.5t-84 -141.5q-80 -88 -189.5 -116.5t-217.5 -28.5q-82 0 -170 11t-162 27z" />
<glyph unicode="4" horiz-adv-x="1058" d="M6 238l33 188q147 217 312 445.5t329 447.5h270q-176 -231 -332.5 -445.5t-293.5 -412.5h268l67 278h240l-49 -278h176l-39 -223h-176l-43 -238h-258l43 238h-547z" />
<glyph unicode="5" horiz-adv-x="995" d="M25 12l30 219q66 -10 148 -18t159 -8q37 0 74 3t71 14t62.5 30.5t48.5 52.5q25 41 33 91t8 85q0 66 -31.5 99.5t-131.5 33.5q-51 0 -118 -8t-136 -22l-92 98l129 637h718l-39 -225h-469l-55 -275q23 4 52.5 6t64.5 2q80 0 148.5 -16t117.5 -53t77 -97.5t28 -148.5 q0 -49 -9.5 -105.5t-29 -112.5t-49 -107.5t-70.5 -90.5q-76 -72 -179.5 -94t-213.5 -22q-94 0 -179.5 9t-166.5 23z" />
<glyph unicode="6" horiz-adv-x="1050" d="M92 393q0 63 10.5 148.5t31 177.5t52 183t74.5 167q86 154 205 212t280 58q66 0 146 -7t145 -23l-39 -224q-23 6 -54.5 11.5t-66 9.5t-69.5 6t-62 2q-61 0 -113 -15.5t-94 -54t-74 -104.5t-54 -164q47 23 116.5 37t128.5 14q61 0 121 -18t106 -57t74.5 -99.5t28.5 -142.5 q0 -41 -7 -88t-22.5 -96.5t-37 -95.5t-52.5 -85q-37 -49 -83 -80.5t-96 -50t-101 -26.5t-101 -8q-186 0 -289.5 100t-103.5 313zM354 395q0 -39 7.5 -73.5t23.5 -60t46 -41t77 -15.5q49 0 94 19.5t74 64.5q27 41 37 94t10 94q0 63 -32 100t-120 37q-53 0 -102 -12t-94 -29 q-8 -43 -14.5 -90t-6.5 -88z" />
<glyph unicode="7" horiz-adv-x="921" d="M137 0q98 166 178 305t152 267t141.5 254t143.5 268h-582l39 225h838l-29 -164q-74 -150 -147.5 -292t-150.5 -283.5t-157 -284.5t-168 -295h-258z" />
<glyph unicode="8" horiz-adv-x="1062" d="M61 287q0 72 21.5 136t60.5 116.5t92.5 90.5t116.5 58q-66 27 -109.5 79t-43.5 155q0 86 36.5 171t112.5 146q66 53 151 76.5t179 23.5q182 0 277.5 -75.5t95.5 -216.5q0 -68 -21.5 -125.5t-57.5 -103.5t-83 -78.5t-101 -51.5q76 -27 125.5 -85t49.5 -167q0 -90 -38 -183 t-112 -159q-68 -61 -159 -87.5t-201 -26.5q-203 0 -297.5 80t-94.5 227zM324 350q0 -78 43 -111.5t110 -33.5q53 0 97 16.5t75 50.5q29 31 40 74t11 84q0 78 -42 111.5t-113 33.5q-106 0 -168 -67q-29 -31 -41 -74t-12 -84zM461 924q0 -68 38 -96.5t97 -28.5q94 0 145 55 q25 27 36 62.5t11 72.5q0 68 -37.5 96.5t-99.5 28.5q-94 0 -145 -55q-25 -27 -35 -62.5t-10 -72.5z" />
<glyph unicode="9" horiz-adv-x="1048" d="M80 10l39 223q23 -6 54.5 -11t66 -9t68.5 -6t63 -2q61 0 113.5 15.5t94.5 54t73.5 104t54.5 164.5q-47 -23 -117 -37t-129 -14q-61 0 -120.5 18t-106 57t-75 99.5t-28.5 142.5q0 39 7 87t22.5 97t37 95.5t52.5 85.5q37 49 83 80.5t96 50t101.5 26.5t100.5 8 q186 0 289.5 -100t103.5 -313q0 -63 -10 -148.5t-30.5 -177.5t-52.5 -183t-75 -167q-86 -154 -205 -212t-280 -58q-66 0 -146 7t-145 23zM393 842q0 -63 34 -100t118 -37q53 0 102 12t94 28q8 43 14.5 90.5t6.5 88.5q0 39 -7 72.5t-23.5 60t-47.5 42t-76 15.5 q-49 0 -94 -19.5t-74 -64.5q-27 -41 -37 -94t-10 -94z" />
<glyph unicode=":" horiz-adv-x="491" d="M45 0l41 238h237l-41 -238h-237zM168 709l41 238h237l-41 -238h-237z" />
<glyph unicode=";" horiz-adv-x="544" d="M29 -238q47 104 67.5 215t22.5 234l227 12q-4 -66 -21.5 -130t-46 -125.5t-66.5 -116t-81 -99.5zM180 709l41 238h237l-41 -238h-237z" />
<glyph unicode="&#x3c;" horiz-adv-x="825" d="M115 401l24 144q147 98 309 202.5t338 215.5l-43 -248q-55 -33 -112.5 -67t-110.5 -66.5t-100 -61t-82 -53.5v-4q27 -23 63.5 -51.5t79.5 -59t88 -64.5t88 -65l-41 -241q-137 111 -264 216t-237 203z" />
<glyph unicode="=" horiz-adv-x="1060" d="M78 203l31 180h811l-31 -180h-811zM141 569l31 181h811l-31 -181h-811z" />
<glyph unicode="&#x3e;" horiz-adv-x="829" d="M39 -18l43 247q55 33 112.5 68t111.5 66.5t102.5 61.5t83.5 54v4q-27 23 -64 51.5t-80 59.5t-88 64.5t-88 64.5l41 242q137 -111 264 -216.5t238 -203.5l-25 -144q-147 -98 -311 -203.5t-340 -215.5z" />
<glyph unicode="?" horiz-adv-x="890" d="M164 1251q72 35 175 61.5t204 26.5q74 0 137 -17t110.5 -54t74 -93.5t26.5 -134.5q0 -70 -21.5 -122t-56.5 -95t-80 -82t-92 -82q-39 -35 -64.5 -63.5t-43 -59t-28.5 -67.5t-22 -88h-221q16 90 34.5 149.5t42 102.5t56.5 76.5t76 72.5q78 72 127 125.5t49 112.5 q0 53 -39 73.5t-90 20.5q-66 0 -143.5 -22.5t-136.5 -44.5zM193 0l40 238h236l-41 -238h-235z" />
<glyph unicode="@" horiz-adv-x="1470" d="M98 326q0 63 10.5 143t33 164t57 166t86.5 151q104 141 244.5 194.5t308.5 53.5q133 0 240.5 -28.5t182 -87t115.5 -148.5t41 -213q0 -59 -11 -149.5t-42 -180.5q-18 -51 -44 -96t-62.5 -79t-86 -54.5t-112.5 -20.5q-57 0 -102.5 17.5t-75.5 58.5q-104 -76 -240 -76 q-123 0 -175 63.5t-52 178.5q0 61 14 148t47 171q43 111 115 169.5t190 58.5q86 0 169 -29t159 -70l-72 -399q-4 -16 -5 -27.5t-1 -23.5q0 -29 11.5 -45.5t41.5 -16.5q41 0 64.5 33t40.5 90q18 66 28.5 144t10.5 135q0 88 -25.5 147.5t-77 96t-125 52t-172.5 15.5 q-127 0 -227 -33.5t-170 -136.5q-37 -55 -64.5 -121.5t-44 -135t-24.5 -136.5t-8 -123q0 -96 23.5 -161.5t71.5 -105.5t121 -57.5t171 -17.5q76 0 145.5 8t139.5 25l34 -156q-29 -8 -69.5 -15t-90 -13.5t-101.5 -10.5t-101 -4q-115 0 -212 24.5t-169 82t-113 151t-41 230.5z M616 403q0 -47 17.5 -72.5t71.5 -25.5q29 0 63.5 8.5t67.5 28.5q-2 10 -2 18.5v18.5q0 18 2 37.5t6 40.5l55 284q-23 10 -53.5 18.5t-57.5 8.5q-61 0 -88.5 -44t-44.5 -101q-16 -55 -26.5 -115t-10.5 -105z" />
<glyph unicode="A" d="M-43 0q141 344 287.5 667.5t304.5 651.5h385q43 -330 74.5 -651.5t54.5 -667.5h-262l-17 279h-446l-115 -279h-266zM434 504h334q-12 147 -26.5 298.5t-30.5 313.5h-4q-72 -154 -139.5 -306.5t-133.5 -305.5z" />
<glyph unicode="B" horiz-adv-x="1130" d="M66 2l229 1298q49 8 105.5 15.5t111.5 11.5t108.5 7t96.5 3q82 0 155.5 -12t129 -44t88 -87t32.5 -143q0 -51 -12 -104.5t-39 -101.5t-66.5 -87t-95.5 -60l-2 -10q66 -23 101.5 -79t35.5 -148q0 -43 -8 -91t-26.5 -96.5t-45 -92.5t-63.5 -81q-37 -35 -81 -57.5 t-102.5 -35.5t-134 -18t-173.5 -5q-59 0 -99.5 1t-76 4t-74.5 6t-94 7zM360 211q41 -2 92.5 -2h98.5q131 0 184 76q23 33 35 81t12 89q0 72 -40 95t-117 23h-201zM461 776h207q41 0 74.5 13.5t60.5 44.5t42 74.5t15 86.5q0 70 -43 93.5t-125 23.5q-41 0 -90 -4t-86 -8z" />
<glyph unicode="C" horiz-adv-x="1040" d="M98 446q0 57 7.5 129t23.5 150t43 157t64 150q49 90 109.5 149.5t131 94.5t149.5 49t165 14q74 0 152.5 -8t152.5 -22l-37 -222q-66 10 -143.5 18.5t-137.5 8.5q-115 0 -187.5 -40t-125.5 -148q-25 -49 -44.5 -110.5t-32.5 -124t-20.5 -122t-7.5 -108.5 q0 -121 49.5 -189.5t180.5 -68.5q80 0 164 23.5t143 45.5l61 -204q-80 -35 -193.5 -63t-227.5 -28q-207 0 -323 114.5t-116 354.5z" />
<glyph unicode="D" horiz-adv-x="1206" d="M66 2l227 1296q96 18 186 28.5t174 10.5q117 0 213.5 -22.5t164 -75.5t105.5 -141t38 -219q0 -53 -7.5 -119t-22 -137.5t-37 -147.5t-54.5 -145q-41 -92 -95.5 -158t-130 -107.5t-176 -61t-235.5 -19.5q-29 0 -71 1t-89 3t-97 5t-93 9zM360 211q35 -2 57.5 -2h57.5 q135 0 215 52t131 175q20 47 36.5 102.5t29 113t18.5 111.5t6 101q0 131 -63.5 189.5t-218.5 58.5q-25 0 -53.5 -1t-57.5 -5z" />
<glyph unicode="E" horiz-adv-x="1001" d="M66 0l231 1319h774l-39 -225h-516l-53 -306h428l-39 -225h-430l-60 -338h517l-39 -225h-774z" />
<glyph unicode="F" horiz-adv-x="993" d="M66 0l231 1319h772l-39 -225h-514l-59 -330h430l-39 -225h-430l-94 -539h-258z" />
<glyph unicode="G" horiz-adv-x="1138" d="M102 434q0 70 10.5 150t29 159.5t45 155.5t61.5 139q49 90 109.5 148.5t131 92.5t147.5 47t161 13q82 0 168 -9t163 -23l-38 -220q-29 4 -67 8.5t-78 8.5t-81 7t-73 3q-102 0 -183.5 -38t-138.5 -150q-25 -47 -43 -106.5t-32.5 -122t-21.5 -123t-7 -109.5 q0 -127 51 -193.5t170 -66.5q35 0 77 5t72 13l47 269h-188l39 225h446l-112 -645q-106 -49 -221 -70.5t-209 -21.5q-217 0 -326 109t-109 345z" />
<glyph unicode="H" horiz-adv-x="1263" d="M66 0l231 1319h258l-92 -531h452l93 531h258l-232 -1319h-258l98 563h-452l-98 -563h-258z" />
<glyph unicode="I" horiz-adv-x="552" d="M66 0l231 1319h258l-231 -1319h-258z" />
<glyph unicode="J" horiz-adv-x="747" d="M-53 0l26 217q59 -8 94 -10t66 -2q55 0 90 11t58.5 40t38 76t26.5 121l152 866h258l-156 -889q-18 -104 -44 -188t-73 -142.5t-123.5 -89t-195.5 -30.5q-59 0 -117.5 6t-99.5 14z" />
<glyph unicode="K" horiz-adv-x="1146" d="M66 0l231 1319h258l-92 -531h4q135 129 264 265.5t240 265.5h319q-164 -184 -323.5 -347t-292.5 -284q82 -158 186.5 -334t220.5 -354h-313q-35 59 -77 133t-85 154t-87 162.5t-83 160.5h-6l-106 -610h-258z" />
<glyph unicode="L" horiz-adv-x="976" d="M66 0l231 1319h258l-193 -1094h515l-39 -225h-772z" />
<glyph unicode="M" horiz-adv-x="1507" d="M39 0q66 330 137.5 658.5t147.5 660.5h344l90 -770h6l360 770h357q-41 -332 -85 -660.5t-91 -658.5h-267q35 231 65 445t58 444h-8l-324 -682h-260l-84 682h-8q-57 -260 -102 -477t-84 -412h-252z" />
<glyph unicode="N" horiz-adv-x="1329" d="M66 0l231 1319h338l264 -940h8l166 940h258l-231 -1319h-338l-264 940h-9l-165 -940h-258z" />
<glyph unicode="O" horiz-adv-x="1263" d="M98 426q0 55 7.5 122.5t21.5 139.5t36.5 144.5t51.5 138.5q80 180 214 274t345 94q121 0 207 -31.5t141.5 -90t81 -140.5t25.5 -184q0 -55 -7.5 -123t-21.5 -139.5t-36.5 -144t-51.5 -138.5q-80 -180 -214 -274t-345 -94q-121 0 -207 31.5t-141 90t-81 140.5t-26 184z M360 438q0 -117 46.5 -175t166.5 -58q68 0 117 18.5t86 51t62.5 79.5t48.5 107q18 49 32.5 103t24.5 109.5t16.5 109t6.5 98.5q0 117 -46.5 175t-166.5 58q-68 0 -117 -18.5t-86 -51t-63.5 -81t-47.5 -105.5q-18 -49 -32.5 -103.5t-24.5 -109.5t-16.5 -108.5t-6.5 -98.5z " />
<glyph unicode="P" horiz-adv-x="1114" d="M66 0l227 1298q49 8 103.5 16.5t107.5 12.5t102 7t88 3q98 0 179 -18.5t139.5 -60t90.5 -111.5t32 -172q0 -135 -53.5 -246t-139.5 -176q-59 -47 -145 -75.5t-215 -28.5q-49 0 -91 4t-85 12l-82 -465h-258zM440 670q23 -4 54.5 -5t60.5 -1q80 0 133 13t92 48 q49 45 70.5 111.5t21.5 126.5q0 92 -49 120.5t-153 28.5q-41 0 -80 -2t-72 -6z" />
<glyph unicode="Q" horiz-adv-x="1263" d="M98 426q0 55 7.5 122.5t21.5 139.5t36.5 144.5t51.5 138.5q80 180 214 274t345 94q121 0 207 -31.5t141.5 -90t81 -140.5t25.5 -184q0 -55 -7.5 -123t-21.5 -139.5t-36.5 -144t-51.5 -138.5q-49 -111 -117.5 -188.5t-160.5 -122.5l161 -197l-217 -155l-192 297 q-8 -2 -16.5 -2h-16.5q-121 0 -207 31.5t-141 90t-81 140.5t-26 184zM360 438q0 -117 46.5 -175t166.5 -58q68 0 117 18.5t86 51t62.5 79.5t48.5 107q18 49 32.5 103t24.5 109.5t16.5 109t6.5 98.5q0 117 -46.5 175t-166.5 58q-68 0 -117 -18.5t-86 -51t-63.5 -81 t-47.5 -105.5q-18 -49 -32.5 -103.5t-24.5 -109.5t-16.5 -108.5t-6.5 -98.5z" />
<glyph unicode="R" horiz-adv-x="1128" d="M66 0l229 1309q45 6 97 11t105.5 9t103.5 6t87 2q92 0 172 -15t138.5 -54t92 -104.5t33.5 -166.5q0 -76 -19.5 -147.5t-58 -131t-94 -105.5t-129.5 -70q33 -117 83 -259.5t104 -283.5h-281q-47 131 -87 254t-75 252q-86 0 -153 6l-90 -512h-258zM449 711q23 -2 59.5 -3 t64.5 -1q82 0 129.5 13t79.5 46q25 25 40.5 54.5t24.5 58t12 54t3 44.5q0 82 -51 108.5t-149 26.5q-29 0 -68 -1t-76 -5z" />
<glyph unicode="S" horiz-adv-x="956" d="M20 18l41 228q80 -16 150 -28.5t147 -12.5q61 0 115.5 12t97.5 47q29 23 46.5 53.5t17.5 77.5q0 39 -14.5 64.5t-42 46t-66.5 38t-86 40.5q-55 27 -104.5 56.5t-87 70.5t-59 95t-21.5 128q0 86 33.5 164t105.5 135q78 61 176 83.5t197 22.5q72 0 148.5 -8t148.5 -22 l-37 -228q-31 6 -69 12.5t-76 10.5t-74.5 7t-63.5 3q-45 0 -94 -11t-84 -44q-23 -20 -36 -49t-13 -64q0 -27 10 -46t34.5 -37.5t67.5 -41t109 -53.5q55 -27 102 -58.5t82 -72.5t55.5 -94.5t20.5 -122.5q0 -104 -45 -198.5t-123 -149.5q-74 -53 -172 -72.5t-195 -19.5 q-90 0 -177 11t-165 27z" />
<glyph unicode="T" horiz-adv-x="1064" d="M158 1094l39 225h966l-39 -225h-354l-192 -1094h-259l193 1094h-354z" />
<glyph unicode="U" horiz-adv-x="1198" d="M102 336q0 29 3.5 57.5t9.5 63.5l151 862h258l-143 -821q-6 -35 -11 -66t-5 -57q0 -170 188 -170q111 0 174 63q41 41 65.5 102.5t34.5 127.5l144 821h258l-152 -862q-18 -104 -56 -194.5t-112 -160.5q-72 -66 -163 -94t-201 -28q-98 0 -180 21.5t-140.5 65.5 t-90.5 111.5t-32 157.5z" />
<glyph unicode="V" d="M203 1319h260q12 -270 32.5 -542.5t49.5 -573.5h4q119 276 233.5 552.5t221.5 563.5h268q-133 -344 -273.5 -667.5t-289.5 -651.5h-385q-41 328 -71 651.5t-50 667.5z" />
<glyph unicode="W" horiz-adv-x="1820" d="M203 977q0 96 1 178t3 164h266q-6 -127 -8 -258t-2 -242q0 -190 4 -342.5t10 -275.5h4q49 123 101.5 267t102.5 292.5t97 292t84 266.5h385q-8 -160 -12 -337t-4 -339q0 -131 2 -240.5t6 -201.5h4q47 119 101.5 261t106.5 290.5t101.5 294t88.5 272.5h264 q-104 -324 -229.5 -654.5t-272.5 -664.5h-387q-4 135 -7 264t-3 266t3 279.5t7 280.5h-4q-80 -246 -179.5 -528.5t-203.5 -561.5h-387q-23 248 -33 495.5t-10 481.5z" />
<glyph unicode="X" horiz-adv-x="1212" d="M-49 0q133 180 269 355t269 333q-31 57 -67.5 135t-75.5 163t-74.5 171t-64.5 162h289q43 -123 82.5 -224.5t93.5 -211.5q88 104 170 211.5t168 224.5h293q-55 -76 -122 -162t-135.5 -171t-133 -163t-115.5 -135q74 -154 151.5 -334t147.5 -354h-281q-27 68 -51.5 127 t-49 115.5l-49 113t-53.5 119.5q-51 -61 -97 -118.5t-90 -114t-88 -115.5t-93 -127h-293z" />
<glyph unicode="Y" horiz-adv-x="1198" d="M197 1319h264q16 -78 36.5 -161t42 -161.5t44 -151.5t45.5 -132h4q45 66 95 141.5t100.5 154t98.5 157.5t89 153h282q-125 -219 -266 -422t-301 -410l-86 -487h-258l86 487q-86 207 -155.5 410t-120.5 422z" />
<glyph unicode="Z" horiz-adv-x="1064" d="M27 0l30 184l715 910h-539l39 225h846l-33 -184l-710 -910h561l-39 -225h-870z" />
<glyph unicode="[" horiz-adv-x="598" d="M0 -334l293 1653h420l-33 -191h-191l-225 -1271h191l-35 -191h-420z" />
<glyph unicode="\" horiz-adv-x="749" d="M174 1319h199l270 -1319h-199z" />
<glyph unicode="]" horiz-adv-x="598" d="M-96 -334l33 191h192l225 1271h-192l33 191h419l-292 -1653h-418z" />
<glyph unicode="^" horiz-adv-x="978" d="M129 565l365 400h180l227 -408l-143 -90l-201 297l-315 -307z" />
<glyph unicode="_" horiz-adv-x="1009" d="M-139 -342l20 123h1006l-21 -123h-1005z" />
<glyph unicode="`" horiz-adv-x="651" d="M254 1300l190 93l113 -322l-117 -55z" />
<glyph unicode="a" horiz-adv-x="958" d="M53 289q0 37 5 87t15.5 106.5t28 114.5t39.5 112q53 127 140.5 192.5t234.5 65.5q49 0 104.5 -7.5t108.5 -18.5t102.5 -24.5t83.5 -27.5l-155 -889h-178l-9 70q-41 -35 -103 -62.5t-140 -27.5q-131 0 -204 82t-73 227zM297 307q0 -53 23.5 -86t89.5 -33q41 0 79.5 12.5 t67.5 28.5l90 519q-25 8 -57.5 12t-61.5 4q-55 0 -99 -25.5t-75 -113.5q-12 -33 -22 -77t-17.5 -88t-12.5 -85t-5 -68z" />
<glyph unicode="b" horiz-adv-x="966" d="M51 57l221 1262h244l-72 -408q25 16 73 36t120 20q135 0 205.5 -83t70.5 -222q0 -39 -6 -90.5t-17 -108.5t-27.5 -116.5t-39.5 -113.5q-53 -129 -140 -191t-234 -62q-104 0 -215 24.5t-183 52.5zM319 199q25 -8 58 -12.5t61 -4.5q27 0 52.5 5.5t47 20.5t40 41.5 t34.5 72.5q12 33 22.5 76.5t17.5 87.5t12.5 85t5.5 68q0 53 -23.5 86t-89.5 33q-41 0 -80 -12.5t-67 -28.5z" />
<glyph unicode="c" horiz-adv-x="808" d="M53 305q0 39 5 92.5t16.5 112.5t30 118.5t45.5 108.5q66 127 173 178.5t252 51.5q53 0 117 -6.5t123 -16.5l-35 -205q-53 8 -101 11.5t-97 3.5q-84 0 -139.5 -24.5t-88.5 -108.5q-12 -31 -22 -69t-18.5 -77t-12.5 -76t-4 -63q0 -78 36 -110.5t105 -32.5q59 0 121 18 t109 39l57 -195q-66 -31 -153 -53t-179 -22q-152 0 -246 77.5t-94 247.5z" />
<glyph unicode="d" horiz-adv-x="964" d="M53 283q0 39 6.5 91t17.5 110.5t27.5 116.5t38.5 112q53 123 140.5 188.5t224.5 65.5q84 0 174 -23l66 375h243l-231 -1319h-178l-9 70q-45 -35 -104 -62.5t-139 -27.5q-135 0 -206 83t-71 220zM297 305q0 -53 23.5 -85t89.5 -32q41 0 79.5 12.5t67.5 28.5l90 519 q-25 8 -57.5 12t-61.5 4q-55 0 -99 -25.5t-75 -113.5q-12 -33 -22 -77t-17.5 -88t-12.5 -85t-5 -70z" />
<glyph unicode="e" horiz-adv-x="872" d="M49 324q0 57 9.5 122.5t30 132t50 127t70.5 109.5q127 152 326 152q145 0 225 -84t80 -232q0 -61 -12.5 -129.5t-28.5 -136.5h-504q-2 -10 -2 -25.5v-25.5q0 -76 38 -108.5t109 -32.5q59 0 121 18t111 39l57 -195q-66 -31 -154 -53t-184 -22q-162 0 -252 80t-90 264z M328 573h268q10 45 10 82q0 98 -98 99q-72 0 -115 -52.5t-65 -128.5z" />
<glyph unicode="f" horiz-adv-x="636" d="M80 0l131 745h-131l31 175l133 10l18 102q16 88 46 147.5t74 95.5t100.5 50t127.5 14q41 0 86 -4t95 -10l-25 -209q-39 4 -81 7t-67 3q-53 0 -78.5 -20.5t-37.5 -91.5l-13 -68h185l-35 -201h-184l-131 -745h-244z" />
<glyph unicode="g" horiz-adv-x="960" d="M41 -332l57 201q55 -16 127 -32.5t133 -16.5q66 0 101 24.5t47 89.5l18 99q-39 -23 -87 -38t-105 -15q-131 0 -204 81.5t-73 227.5q0 37 5.5 87t15.5 106.5t27.5 114.5t39.5 112q53 127 140.5 192.5t234.5 65.5q49 0 104.5 -7.5t108.5 -18.5t102.5 -24.5t84.5 -27.5 l-175 -993q-16 -88 -52 -144.5t-85 -88.5t-109.5 -44t-121.5 -12q-88 0 -171 17.5t-163 43.5zM299 307q0 -53 23.5 -86t89.5 -33q41 0 79.5 12.5t67.5 28.5l90 519q-25 8 -57.5 12t-61.5 4q-55 0 -99 -25.5t-75 -113.5q-12 -33 -22 -77t-17.5 -88t-12.5 -85t-5 -68z" />
<glyph unicode="h" horiz-adv-x="980" d="M41 0l231 1319h244l-72 -412q41 25 90.5 42.5t114.5 17.5q70 0 119 -20.5t80 -55.5t45 -82t14 -98q0 -16 -2 -39t-6 -49l-108 -623h-244l110 608q4 16 5.5 33.5t1.5 28.5q0 84 -99 84q-41 0 -81 -10.5t-72 -24.5l-127 -719h-244z" />
<glyph unicode="i" horiz-adv-x="489" d="M41 0l166 946h244l-166 -946h-244zM231 1090l41 229h244l-41 -229h-244z" />
<glyph unicode="j" horiz-adv-x="489" d="M-117 -373q37 68 64.5 127.5t50 123t41 137t35.5 171.5l133 760h244l-138 -782q-18 -102 -37.5 -179t-44 -138.5t-55.5 -115t-70 -104.5h-223zM231 1090l41 229h244l-41 -229h-244z" />
<glyph unicode="k" horiz-adv-x="962" d="M41 0l231 1319h244l-131 -748h2q92 92 178 187.5t164 187.5h307q-102 -113 -212.5 -225.5t-223.5 -216.5q53 -113 118.5 -231.5t160.5 -272.5h-291q-27 49 -57.5 107.5t-59.5 119t-56.5 117.5t-47.5 107h-2l-80 -451h-244z" />
<glyph unicode="l" horiz-adv-x="489" d="M41 0l231 1319h244l-231 -1319h-244z" />
<glyph unicode="m" horiz-adv-x="1423" d="M41 0l166 946h178l10 -59q41 29 99.5 54.5t138.5 25.5q78 0 126 -28t75 -69q59 41 116.5 69t143.5 28q129 0 191.5 -64.5t62.5 -187.5q0 -51 -13 -121l-102 -594h-244l109 614q6 37 6 54q0 41 -22.5 63.5t-73.5 22.5q-33 0 -66 -10.5t-68 -24.5q0 -31 -4 -64.5t-8 -62.5 l-102 -592h-244l107 614q6 37 6 54q0 41 -21.5 63.5t-72.5 22.5q-31 0 -62 -9.5t-61 -21.5l-127 -723h-244z" />
<glyph unicode="n" horiz-adv-x="980" d="M41 0l166 946h178l10 -59q53 35 113.5 57.5t138.5 22.5q70 0 120 -20.5t81 -55.5t45 -82t14 -98q0 -16 -2 -39t-6 -49l-108 -623h-244l110 608q4 23 5.5 36t1.5 26q0 84 -99 84q-39 0 -79 -10.5t-74 -24.5l-127 -719h-244z" />
<glyph unicode="o" horiz-adv-x="944" d="M49 326q0 43 5 93t17.5 103t32 107.5t46.5 103.5q66 121 166 177.5t235 56.5q162 0 253 -83t91 -263q0 -43 -5 -93.5t-17.5 -103.5t-32 -107.5t-45.5 -103.5q-66 -121 -166.5 -177t-235.5 -56q-162 0 -253 83t-91 263zM293 319q0 -59 26.5 -92.5t92.5 -33.5t105.5 33.5 t66.5 92.5q14 33 26.5 75t21.5 85t14 81t5 67q0 59 -26.5 93t-92.5 34t-105.5 -34t-66.5 -93q-14 -35 -26 -76t-21.5 -84t-14.5 -82t-5 -66z" />
<glyph unicode="p" horiz-adv-x="966" d="M-25 -373l232 1319h178l8 -69q45 35 104.5 62.5t139.5 27.5q135 0 205.5 -84t70.5 -226q0 -41 -6 -92t-17 -107.5t-27.5 -114.5t-39.5 -110q-53 -125 -140 -189t-224 -64q-84 0 -174 22l-66 -375h-244zM319 199q25 -8 58 -12.5t61 -4.5q27 0 52.5 5.5t47 20.5t40 41.5 t34.5 72.5q12 33 22.5 76.5t17.5 87.5t12.5 85t5.5 68q0 53 -23.5 86t-89.5 33q-41 0 -80 -12.5t-67 -28.5z" />
<glyph unicode="q" horiz-adv-x="958" d="M53 295q0 41 6.5 92t17.5 106.5t27.5 112t38.5 107.5q55 129 142.5 191.5t232.5 62.5q104 0 215 -24.5t182 -53.5l-221 -1262h-243l71 408q-25 -16 -73 -35.5t-119 -19.5q-137 0 -207 85t-70 230zM297 307q0 -53 23.5 -86t89.5 -33q41 0 79.5 12.5t67.5 28.5l90 519 q-25 8 -57.5 12t-61.5 4q-55 0 -99 -25.5t-75 -113.5q-12 -33 -22 -77t-17.5 -88t-12.5 -85t-5 -68z" />
<glyph unicode="r" horiz-adv-x="692" d="M41 0l166 946h178l10 -100q59 66 117.5 93.5t136.5 27.5q27 0 54.5 -4.5t50.5 -10.5l-33 -217q-23 6 -51.5 10.5t-61.5 4.5q-61 0 -111.5 -17.5t-95.5 -64.5l-116 -668h-244z" />
<glyph unicode="s" horiz-adv-x="792" d="M-8 4l35 213q55 -10 124.5 -17t133.5 -7q72 0 125 17t53 75q0 16 -6 28.5t-24.5 23.5t-51.5 24.5t-84 31.5q-98 37 -146.5 93.5t-48.5 152.5q0 68 25 127t76 103t129 71t182 27q59 0 126 -8.5t124 -20.5l-33 -209q-45 8 -104.5 16.5t-112.5 8.5q-14 0 -42 -2t-55.5 -10.5 t-49 -26t-21.5 -47.5q0 -23 11.5 -36.5t34 -23.5t53 -21.5t71.5 -29.5q94 -41 142.5 -92t48.5 -154q0 -160 -113 -245.5t-328 -85.5q-63 0 -135 7t-139 17z" />
<glyph unicode="t" horiz-adv-x="712" d="M86 745l31 175l141 10l72 278h213l-47 -262h227l-35 -201h-229l-84 -464q-2 -10 -3 -22.5t-1 -20.5q0 -18 12 -35t47 -17q29 0 63.5 11.5t67.5 25.5l68 -176q-57 -29 -129 -48t-138 -19q-49 0 -92 12t-74.5 36.5t-51 61.5t-19.5 86q0 14 2 44t8 61l82 464h-131z" />
<glyph unicode="u" horiz-adv-x="978" d="M74 236q0 16 2 38.5t6 49.5l108 622h244l-106 -598q-4 -16 -6.5 -37.5t-2.5 -38.5q0 -79 93 -79h2q41 0 81 11t74 23l127 719h244l-168 -946h-176l-10 59q-53 -35 -113.5 -57t-138.5 -22q-72 0 -121 20t-80 55t-45 81.5t-14 99.5z" />
<glyph unicode="v" horiz-adv-x="925" d="M119 946h248q4 -217 10 -407.5t18 -352.5h8q35 76 74 169.5t78 193.5t78 202.5t74 194.5h249q-86 -227 -192.5 -472t-224.5 -474h-332q-41 231 -61.5 475t-26.5 471z" />
<glyph unicode="w" horiz-adv-x="1378" d="M119 946h241q-6 -100 -10 -206.5t-6 -207t-3 -189.5t-1 -155h6q31 82 67 177.5t70.5 193.5t68.5 197.5t62 189.5h306q-4 -92 -8.5 -189.5t-6.5 -195.5q-2 -97 -3 -193v-63q0 -61 1 -117h6q27 66 61 158t68.5 195.5t68.5 208t62 196.5h240q-74 -229 -167 -473t-198 -473 h-333q0 184 1 369.5t5 359.5h-4q-25 -80 -53.5 -170t-61.5 -185t-67.5 -190.5t-67.5 -183.5h-318q-16 250 -21 489.5t-5 456.5z" />
<glyph unicode="x" horiz-adv-x="952" d="M-41 0q100 135 199.5 260t187.5 229q-25 47 -51.5 103.5t-55 117t-55 121t-51.5 115.5h252q29 -72 59.5 -145.5t59.5 -132.5q47 59 105.5 132.5t111.5 145.5h260q-43 -55 -92 -116.5t-98.5 -123t-96.5 -119t-86 -106.5q51 -104 108.5 -227t112.5 -254h-254 q-29 74 -60.5 149.5t-63.5 149.5q-57 -74 -116 -149.5t-112 -149.5h-264z" />
<glyph unicode="y" horiz-adv-x="919" d="M127 -373q66 125 112 220.5t72 152.5h-116q-12 104 -23.5 219t-20 237t-13.5 245.5t-7 244.5h248q-1 -74 -1 -150q0 -113 2 -228q3 -191 13 -373h10q33 76 71 167t78 190t79 199.5t74 194.5h245q-68 -172 -141.5 -348t-149 -345t-150.5 -329t-144 -297h-238z" />
<glyph unicode="z" horiz-adv-x="774" d="M-23 0l27 152l453 581h-344l37 213h634l-26 -151l-453 -582h359l-37 -213h-650z" />
<glyph unicode="{" horiz-adv-x="602" d="M51 496q35 33 61.5 63.5t45 63t32 71.5t21.5 86l53 297q12 74 51 124t94.5 81t125 44t145.5 13l-23 -131q-41 -6 -67.5 -16t-46 -30.5t-31.5 -56.5t-23 -93l-43 -250q-14 -80 -61 -146.5t-119 -119.5q92 -88 92 -203q0 -31 -6 -64l-45 -249q-4 -29 -7 -50.5t-3 -42.5 q0 -55 26.5 -74.5t82.5 -29.5l-23 -131q-70 0 -130 10t-104.5 34.5t-69 65.5t-24.5 101v16t4 35l52 297q4 27 6 49.5t2 40.5q0 59 -16.5 103.5t-51.5 91.5z" />
<glyph unicode="|" horiz-adv-x="593" d="M25 -373l301 1692h243l-301 -1692h-243z" />
<glyph unicode="}" horiz-adv-x="602" d="M-82 -348l23 131q39 6 66.5 16.5t47 30.5t31.5 55t23 95l43 249q14 80 61 146.5t119 120.5q-92 88 -92 202q0 29 6 64l45 250q4 29 7 50t3 42q0 55 -26.5 74.5t-81.5 29.5l22 131q70 0 130.5 -10t104.5 -34.5t68.5 -64.5t24.5 -97v-21.5t-4 -34.5l-52 -297q-4 -27 -6 -49 t-2 -41q0 -59 16.5 -103t51.5 -91q-35 -33 -61.5 -64t-45 -63.5t-32 -71.5t-21.5 -86l-53 -297q-12 -74 -51 -124t-94.5 -81t-125 -44t-145.5 -13z" />
<glyph unicode="~" horiz-adv-x="913" d="M150 600q4 25 21 53.5t45 53t63.5 42t76.5 17.5q63 0 166 -57q43 -25 71 -38.5t50 -13.5q33 0 56.5 25t45.5 55l78 -73q-4 -25 -21.5 -53.5t-45 -53.5t-64.5 -42t-76 -17q-63 0 -165 57q-43 25 -71 38t-50 13q-33 0 -56.5 -24.5t-46.5 -55.5z" />
<glyph unicode="&#xa1;" horiz-adv-x="534" d="M-20 -373l225 965h162l-113 -965h-274zM193 709l40 237h238l-41 -237h-237z" />
<glyph unicode="&#xa2;" horiz-adv-x="817" d="M49 307q0 37 5 90.5t16.5 111.5t30 118.5t44.5 109.5q53 100 129 149.5t170 67.5l35 197h205l-33 -186q82 -6 160 -21l-35 -205q-53 8 -106.5 13.5t-98.5 5.5q-86 0 -137 -30t-86 -116q-12 -31 -22.5 -67.5t-17.5 -74.5t-11 -73t-4 -61q0 -70 32.5 -104.5t112.5 -34.5 q59 0 117.5 16t108.5 37l57 -195q-51 -25 -111.5 -43t-132.5 -26l-33 -193h-204l34 199q-109 23 -167 104.5t-58 210.5z" />
<glyph unicode="&#xa3;" horiz-adv-x="954" d="M27 0l26 156q211 119 211 321v29.5t-2 32.5h-141l33 176l92 8q-8 47 -11.5 84t-3.5 61q0 109 33 200t103 157t158.5 90t187.5 24q72 0 149.5 -9t149.5 -25l-37 -215q-43 8 -105.5 16t-115.5 8q-66 0 -118 -14.5t-87 -50.5q-29 -33 -42 -79t-13 -104q0 -29 1 -56.5 t5 -59.5h303l-37 -211h-250q2 -16 2 -24.5v-18.5q0 -78 -27.5 -143.5t-82.5 -127.5h462l-39 -225h-804z" />
<glyph unicode="&#xa4;" horiz-adv-x="1114" d="M33 313l170 144q-16 35 -21.5 70.5t-5.5 76.5q0 66 25.5 134.5t72.5 123.5l-118 144l176 151l119 -147q49 27 102 42t109 15q55 0 102 -15.5t88 -41.5l172 147l123 -151l-170 -144q16 -35 21.5 -70.5t5.5 -76.5q0 -66 -26 -134.5t-73 -123.5l119 -144l-176 -151l-119 147 q-49 -27 -102.5 -42t-108.5 -15t-102 15.5t-88 41.5l-172 -147zM367 608q0 -80 52 -123t134 -43q47 0 88 17.5t76 46.5q41 33 68.5 87t27.5 118q0 80 -52 123t-134 43q-47 0 -88 -17.5t-76 -46.5q-41 -33 -68.5 -87t-27.5 -118z" />
<glyph unicode="&#xa5;" horiz-adv-x="1128" d="M111 211l32 192h281l22 134h-278l33 192h186q-49 135 -97 290t-85 300h270q35 -123 74 -249t76 -222q70 96 152.5 222t160.5 249h283q-86 -145 -189.5 -300t-197.5 -290h184l-33 -192h-280l-23 -134h279l-33 -192h-281l-37 -211h-258l37 211h-278z" />
<glyph unicode="&#xa6;" horiz-adv-x="593" d="M25 -373l114 652h244l-115 -652h-243zM211 668l115 651h243l-114 -651h-244z" />
<glyph unicode="&#xa7;" horiz-adv-x="966" d="M4 -338l37 211q55 -10 113.5 -17.5t111.5 -7.5q61 0 113.5 12.5t93.5 43t73 86t52 141.5q-18 0 -46 1t-50 3q-86 6 -162 32t-131 77t-88 131t-33 194q0 43 5 103.5t19.5 128t36 137.5t56.5 133q82 152 202.5 210t284.5 58q66 0 137.5 -7t139.5 -19l-33 -213 q-55 10 -114.5 18t-116.5 8t-108.5 -11t-93.5 -42t-76 -86t-54 -143h47t49 -2q74 -4 147.5 -26.5t134 -72t97.5 -132.5t37 -210q0 -43 -5.5 -102t-18.5 -126t-35.5 -136.5t-55.5 -132.5q-82 -152 -205 -210.5t-284 -58.5q-66 0 -137.5 7.5t-139.5 19.5zM332 588 q0 -51 12 -103.5t57 -87.5q29 -23 65 -33t77 -14q23 -2 47 -3t49 -1q2 12 2 24.5v26.5q0 47 -11.5 91t-45.5 79q-31 29 -72 42.5t-88 17.5q-23 2 -45.5 2h-44.5q-2 -10 -2 -20.5v-20.5z" />
<glyph unicode="&#xa8;" horiz-adv-x="866" d="M262 1061l35 203h190l-34 -203h-191zM623 1061l34 203h191l-35 -203h-190z" />
<glyph unicode="&#xa9;" horiz-adv-x="1323" d="M74 469q0 61 8 134t28.5 149.5t52.5 153.5t79 147q96 141 238.5 213.5t334.5 72.5q502 0 502 -497q0 -72 -10.5 -149t-33 -155.5t-57 -153.5t-83.5 -140q-96 -129 -234.5 -196.5t-323.5 -67.5q-252 0 -376.5 124.5t-124.5 364.5zM264 500q0 -350 342 -350q258 0 391 196 q35 51 59.5 112.5t41 125t23.5 125t7 112.5q0 348 -342 348q-272 0 -403 -215q-31 -49 -52.5 -107.5t-36.5 -117.5t-22.5 -118.5t-7.5 -110.5zM403 547q0 76 20.5 163t61.5 158q55 94 133 129t175 35q39 0 85 -4t85 -12l-21 -142q-31 4 -73 7.5t-70 3.5q-72 0 -116 -23.5 t-73 -91.5q-16 -43 -28.5 -101.5t-12.5 -107.5q0 -59 23.5 -93t89.5 -34q43 0 87 13.5t81 31.5l49 -127q-53 -29 -115.5 -48t-136.5 -19q-244 0 -244 262z" />
<glyph unicode="&#xaa;" horiz-adv-x="565" d="M129 975q0 51 12.5 116.5t36.5 118.5q29 66 76 97.5t123 31.5q51 0 114.5 -15t133.5 -48l-84 -469h-109l-12 41q-57 -51 -133 -51q-84 0 -121 46t-37 132zM289 983q0 -35 10 -51.5t39 -16.5q16 0 35.5 4.5t32.5 8.5l49 278q-10 4 -26.5 8.5t-35.5 4.5q-23 0 -42 -13.5 t-36 -60.5q-10 -33 -18 -79t-8 -83z" />
<glyph unicode="&#xab;" horiz-adv-x="931" d="M47 449q0 61 28.5 114.5t82.5 104.5q18 18 46.5 43.5t61.5 54.5t69 60.5t71 60.5l112 -129q-29 -27 -62.5 -57.5t-66.5 -61.5t-60.5 -57.5t-43.5 -42.5q-10 -10 -24.5 -32t-14.5 -50q0 -27 16 -53q8 -12 25.5 -39t40 -57.5t46 -62.5t44.5 -59l-146 -114q-23 27 -47 57.5 t-47.5 61t-43 57.5l-32.5 45q-29 41 -42 78t-13 78zM442 449q0 61 28.5 114.5t82.5 104.5q18 18 46.5 43.5t61.5 54.5t69 60.5t71 60.5l112 -129q-29 -27 -62.5 -57.5t-66.5 -61.5t-60.5 -57.5t-43.5 -42.5q-10 -10 -24.5 -32t-14.5 -50q0 -27 16 -53q8 -12 25.5 -39 t40 -57.5t46 -62.5t44.5 -59l-146 -114q-23 27 -47 57.5t-47.5 61t-43 57.5l-32.5 45q-29 41 -42 78t-13 78z" />
<glyph unicode="&#xac;" horiz-adv-x="1138" d="M129 483l31 181h887l-99 -562h-205l68 381h-682z" />
<glyph unicode="&#xad;" horiz-adv-x="587" d="M57 399l39 226h445l-39 -226h-445z" />
<glyph unicode="&#xae;" horiz-adv-x="870" d="M199 924q0 82 26.5 157.5t77.5 133t123 91t164 33.5q57 0 106 -14t85 -46t56.5 -82t20.5 -122q0 -82 -26.5 -157.5t-76.5 -133t-123 -91.5t-165 -34q-57 0 -106.5 14.5t-85 46.5t-56 82t-20.5 122zM317 926q0 -86 39 -128t125 -42q57 0 105.5 25.5t82 69.5t52 101.5 t18.5 120.5q0 86 -38.5 128t-125.5 42q-59 0 -106 -25.5t-81 -69.5t-52.5 -101.5t-18.5 -120.5zM373 823l67 357q31 4 57.5 7t51.5 3q129 0 129 -96q0 -41 -21.5 -75t-62.5 -50q8 -35 18.5 -73t20.5 -73h-107q-6 33 -11 65t-9 66h-10l-25 -131h-98zM510 1032h31 q20 0 29.5 17.5t9.5 33.5t-9.5 20.5t-19.5 4.5h-12.5t-14.5 -2z" />
<glyph unicode="&#xaf;" horiz-adv-x="712" d="M246 1087l26 148h430l-26 -148h-430z" />
<glyph unicode="&#xb0;" horiz-adv-x="647" d="M162 1008q0 59 18.5 118.5t56 106.5t97 76.5t139.5 29.5q104 0 161.5 -53t57.5 -164q0 -59 -18.5 -118.5t-56 -106.5t-97 -76.5t-139.5 -29.5q-104 0 -161.5 53t-57.5 164zM328 1026q0 -41 19 -61.5t54 -20.5q33 0 56.5 16.5t39 40t22.5 51t7 52.5q0 41 -19.5 61.5 t-53.5 20.5q-33 0 -56.5 -16.5t-39 -40t-22.5 -51t-7 -52.5z" />
<glyph unicode="&#xb1;" horiz-adv-x="1028" d="M45 0l31 180h776l-33 -180h-774zM145 565l31 180h285l53 299h205l-53 -299h284l-30 -180h-285l-53 -299h-205l53 299h-285z" />
<glyph unicode="&#xb2;" horiz-adv-x="712" d="M135 600l19 109q35 27 96 74.5t120.5 106t102.5 119t43 109.5q0 37 -24.5 55.5t-63.5 18.5q-37 0 -78 -13.5t-69 -29.5l-58 123q47 27 110.5 47t129.5 20q45 0 86 -12t73.5 -36.5t52 -63.5t19.5 -92q0 -61 -24.5 -114.5t-66.5 -101t-95 -90.5t-109 -84h254l-24 -145h-494 z" />
<glyph unicode="&#xb3;" horiz-adv-x="632" d="M111 614l22 144q27 -4 67 -10.5t79 -6.5q31 0 60.5 7.5t47.5 31.5q23 29 23 72q0 29 -13.5 41t-48.5 12h-90l25 139h79q47 0 67 26t20 60q0 35 -19.5 48.5t-52.5 13.5q-35 0 -72 -10.5t-69 -22.5l-48 121q41 23 104.5 41t125.5 18q39 0 76.5 -10t66.5 -31.5t46.5 -54.5 t17.5 -80q0 -51 -26 -103t-85 -81q37 -23 54.5 -59.5t17.5 -81.5q0 -47 -17.5 -93.5t-52.5 -80.5q-43 -43 -99.5 -57.5t-115.5 -14.5q-49 0 -97 6t-93 16z" />
<glyph unicode="&#xb4;" horiz-adv-x="657" d="M322 1106l213 280l145 -145l-268 -225z" />
<glyph unicode="&#xb5;" horiz-adv-x="985" d="M-127 -373q37 68 64.5 127.5t50 123t41 137t34.5 171.5l134 760h243l-104 -598q-4 -16 -6 -37.5t-2 -38.5q0 -80 92 -79q41 0 81 11t74 23l127 719h244l-168 -946h-176l-10 59q-53 -35 -113.5 -57t-138.5 -22q-45 0 -76 8q-29 -119 -68.5 -201t-99.5 -160h-223z" />
<glyph unicode="&#xb6;" horiz-adv-x="1140" d="M186 883q0 86 30 165.5t85 139t135 95.5t182 36h525l-303 -1692h-219l178 989h-137l-179 -989h-219l178 991q-127 12 -191.5 74t-64.5 191z" />
<glyph unicode="&#xb7;" horiz-adv-x="468" d="M99 373l41 238h237l-41 -238h-237z" />
<glyph unicode="&#xb8;" horiz-adv-x="514" d="M-68 -375l37 92q14 -4 31.5 -6t30.5 -2q45 0 71.5 20.5t26.5 53.5q0 27 -22.5 38t-83.5 11l28 78q117 0 167 -26.5t50 -90.5q0 -43 -19.5 -77.5t-51 -58.5t-72.5 -37t-84 -13q-29 0 -58.5 5t-50.5 13z" />
<glyph unicode="&#xb9;" horiz-adv-x="671" d="M219 1198l232 121h157l-127 -719h-174l96 541l-135 -54z" />
<glyph unicode="&#xba;" horiz-adv-x="571" d="M152 991q0 47 13 109.5t46 116.5q35 55 90 88.5t137 33.5q104 0 148.5 -52t44.5 -142q0 -51 -15.5 -120t-54.5 -122q-35 -47 -87 -76.5t-130 -29.5q-104 0 -148 53t-44 141zM317 995q0 -29 9 -45t36 -16q31 0 48.5 19.5t29.5 52.5q10 29 17.5 66.5t7.5 68.5q0 29 -9.5 45 t-35.5 16q-29 0 -47.5 -19.5t-30.5 -54.5q-10 -29 -17.5 -66.5t-7.5 -66.5z" />
<glyph unicode="&#xbb;" horiz-adv-x="929" d="M23 201q29 27 62.5 57.5t66 61t60.5 57.5t44 43q10 10 24.5 31.5t14.5 50.5q0 27 -16 53q-8 12 -25.5 39t-40.5 57.5t-46.5 62.5t-43.5 58l145 115q23 -27 47.5 -57.5t48 -61.5t43 -57.5t31.5 -44.5q29 -41 42.5 -78t13.5 -78q0 -61 -29 -114.5t-82 -104.5 q-18 -18 -47 -44t-61.5 -54.5t-69.5 -60.5t-70 -60zM418 201q29 27 62.5 57.5t66 61t60.5 57.5t44 43q10 10 24.5 31.5t14.5 50.5q0 27 -16 53q-8 12 -25.5 39t-40.5 57.5t-46.5 62.5t-43.5 58l145 115q23 -27 47.5 -57.5t48 -61.5t43 -57.5t31.5 -44.5q29 -41 42.5 -78 t13.5 -78q0 -61 -29 -114.5t-82 -104.5q-18 -18 -47 -44t-61.5 -54.5t-69.5 -60.5t-70 -60z" />
<glyph unicode="&#xbc;" horiz-adv-x="1402" d="M82 0l989 1319h215l-989 -1319h-215zM207 1198l231 121h158l-127 -719h-174l96 541l-135 -54zM657 125l21 115q78 117 165 240.5t171 238.5h186q-82 -113 -167 -232.5t-154 -220.5h110l41 121h154l-21 -121h94l-24 -141h-94l-21 -125h-174l21 125h-308z" />
<glyph unicode="&#xbd;" horiz-adv-x="1478" d="M82 0l989 1319h215l-989 -1319h-215zM211 1198l232 121h157l-127 -719h-174l96 541l-135 -54zM784 2l19 109q35 27 96 74.5t120.5 106t102.5 119t43 109.5q0 37 -24.5 55.5t-63.5 18.5q-37 0 -78 -13.5t-69 -29.5l-58 123q47 27 110.5 47t129.5 20q45 0 86 -12 t73.5 -36.5t52 -63.5t19.5 -92q0 -61 -24.5 -114.5t-66.5 -101t-95 -90.5t-109 -84h254l-24 -145h-494z" />
<glyph unicode="&#xbe;" horiz-adv-x="1441" d="M111 614l22 144q27 -4 67 -10.5t79 -6.5q31 0 60.5 7.5t47.5 31.5q23 29 23 72q0 29 -13.5 41t-48.5 12h-90l25 139h79q47 0 67 26t20 60q0 35 -19.5 48.5t-52.5 13.5q-35 0 -72 -10.5t-69 -22.5l-48 121q41 23 104.5 41t125.5 18q39 0 76.5 -10t66.5 -31.5t46.5 -54.5 t17.5 -80q0 -51 -26 -103t-85 -81q37 -23 54.5 -59.5t17.5 -81.5q0 -47 -17.5 -93.5t-52.5 -80.5q-43 -43 -99.5 -57.5t-115.5 -14.5q-49 0 -97 6t-93 16zM152 0l989 1319h215l-989 -1319h-215zM727 125l21 115q78 117 164.5 240.5t170.5 238.5h187q-82 -113 -167 -232.5 t-155 -220.5h111l41 121h153l-20 -121h94l-24 -141h-95l-20 -125h-174l20 125h-307z" />
<glyph unicode="&#xbf;" horiz-adv-x="890" d="M-70 -94q0 70 21.5 122t56.5 95t80 82t92 82q39 35 64.5 63.5t43 59t29 66.5t21.5 89h221q-16 -90 -34.5 -149.5t-42 -102.5t-56.5 -76.5t-76 -72.5q-78 -72 -127 -125t-49 -113q0 -53 39 -73.5t90 -20.5q66 0 143.5 22.5t137.5 45.5l73 -205q-72 -35 -175 -61.5 t-203 -26.5q-74 0 -137.5 17.5t-110.5 54t-74 93t-27 134.5zM352 709l41 237h236l-41 -237h-236z" />
<glyph unicode="&#xc0;" d="M-43 0q141 344 287.5 667.5t304.5 651.5h385q43 -330 74.5 -651.5t54.5 -667.5h-262l-17 279h-446l-115 -279h-266zM434 504h334q-12 147 -26.5 298.5t-30.5 313.5h-4q-72 -154 -139.5 -306.5t-133.5 -305.5zM567 1669l191 92l113 -321l-117 -56z" />
<glyph unicode="&#xc1;" d="M-43 0q141 344 287.5 667.5t304.5 651.5h385q43 -330 74.5 -651.5t54.5 -667.5h-262l-17 279h-446l-115 -279h-266zM434 504h334q-12 147 -26.5 298.5t-30.5 313.5h-4q-72 -154 -139.5 -306.5t-133.5 -305.5zM661 1475l213 280l146 -145l-269 -226z" />
<glyph unicode="&#xc2;" d="M-43 0q141 344 287.5 667.5t304.5 651.5h385q43 -330 74.5 -651.5t54.5 -667.5h-262l-17 279h-446l-115 -279h-266zM434 504h334q-12 147 -26.5 298.5t-30.5 313.5h-4q-72 -154 -139.5 -306.5t-133.5 -305.5zM479 1452l228 236h172l153 -242l-100 -66l-147 183l-228 -183 z" />
<glyph unicode="&#xc3;" d="M-43 0q141 344 287.5 667.5t304.5 651.5h385q43 -330 74.5 -651.5t54.5 -667.5h-262l-17 279h-446l-115 -279h-266zM434 504h334q-12 147 -26.5 298.5t-30.5 313.5h-4q-72 -154 -139.5 -306.5t-133.5 -305.5zM486 1493q20 84 65 129t123 45q27 0 60.5 -11t64.5 -28 q29 -14 53.5 -23.5t40.5 -9.5q43 0 62 52l96 -39q-20 -84 -65.5 -129t-122.5 -45q-33 0 -70 13t-68 30q-25 12 -45 20t-36 8q-43 0 -62 -51z" />
<glyph unicode="&#xc4;" d="M-43 0q141 344 287.5 667.5t304.5 651.5h385q43 -330 74.5 -651.5t54.5 -667.5h-262l-17 279h-446l-115 -279h-266zM434 504h334q-12 147 -26.5 298.5t-30.5 313.5h-4q-72 -154 -139.5 -306.5t-133.5 -305.5zM478 1430l34 202h191l-35 -202h-190zM838 1430l35 202h190 l-34 -202h-191z" />
<glyph unicode="&#xc5;" d="M-43 0q141 344 287.5 667.5t304.5 651.5h385q43 -330 74.5 -651.5t54.5 -667.5h-262l-17 279h-446l-115 -279h-266zM434 504h334q-12 147 -26.5 298.5t-30.5 313.5h-4q-72 -154 -139.5 -306.5t-133.5 -305.5zM602 1569q0 31 9 65.5t30.5 64.5t55.5 49t81 19q27 0 59.5 -8 t59 -26.5t45 -49t18.5 -75.5q0 -31 -9 -66t-30.5 -64.5t-55.5 -49t-81 -19.5q-29 0 -60.5 8t-58 26.5t-45 49.5t-18.5 76zM690 1575q0 -49 30.5 -66.5t59.5 -17.5q27 0 45 12.5t28.5 28.5t14.5 35.5t4 34.5q0 49 -30.5 66.5t-59.5 17.5t-46.5 -12.5t-27.5 -29t-14 -36 t-4 -33.5z" />
<glyph unicode="&#xc6;" horiz-adv-x="1572" d="M-76 0q195 346 390.5 669.5t400.5 649.5h927l-38 -225h-623l20 -306h461l-39 -225h-407l22 -338h412l-39 -225h-616l-19 279h-430l-151 -279h-271zM473 504h289l-29 440h-2q-66 -111 -130 -219.5t-128 -220.5z" />
<glyph unicode="&#xc7;" horiz-adv-x="1040" d="M98 446q0 57 7.5 129t23.5 150t43 157t64 150q49 90 109.5 149.5t131 94.5t149.5 49t165 14q74 0 152.5 -8t152.5 -22l-37 -222q-66 10 -143.5 18.5t-137.5 8.5q-115 0 -187.5 -40t-125.5 -148q-25 -49 -44.5 -110.5t-32.5 -124t-20.5 -122t-7.5 -108.5 q0 -121 49.5 -189.5t180.5 -68.5q80 0 164 23.5t143 45.5l61 -204q-80 -35 -193.5 -63t-227.5 -28q-207 0 -323 114.5t-116 354.5zM346 -375l37 92q14 -4 31.5 -6t30.5 -2q45 0 71.5 20.5t26.5 53.5q0 27 -22.5 38t-83.5 11l28 78q117 0 167 -26.5t50 -90.5 q0 -43 -19.5 -77.5t-51 -58.5t-72.5 -37t-84 -13q-29 0 -58.5 5t-50.5 13z" />
<glyph unicode="&#xc8;" horiz-adv-x="1001" d="M66 0l231 1319h774l-39 -225h-516l-53 -306h428l-39 -225h-430l-60 -338h517l-39 -225h-774zM512 1669l191 92l113 -321l-117 -56z" />
<glyph unicode="&#xc9;" horiz-adv-x="1001" d="M66 0l231 1319h774l-39 -225h-516l-53 -306h428l-39 -225h-430l-60 -338h517l-39 -225h-774zM582 1475l213 280l146 -145l-269 -226z" />
<glyph unicode="&#xca;" horiz-adv-x="1001" d="M66 0l231 1319h774l-39 -225h-516l-53 -306h428l-39 -225h-430l-60 -338h517l-39 -225h-774zM426 1452l228 236h172l153 -242l-100 -66l-147 183l-228 -183z" />
<glyph unicode="&#xcb;" horiz-adv-x="1001" d="M66 0l231 1319h774l-39 -225h-516l-53 -306h428l-39 -225h-430l-60 -338h517l-39 -225h-774zM422 1430l34 202h191l-35 -202h-190zM782 1430l35 202h190l-34 -202h-191z" />
<glyph unicode="&#xcc;" horiz-adv-x="552" d="M66 0l231 1319h258l-231 -1319h-258zM254 1669l191 92l113 -321l-117 -56z" />
<glyph unicode="&#xcd;" horiz-adv-x="552" d="M66 0l231 1319h258l-231 -1319h-258zM371 1475l213 280l146 -145l-269 -226z" />
<glyph unicode="&#xce;" horiz-adv-x="552" d="M66 0l231 1319h258l-231 -1319h-258zM165 1452l228 236h172l153 -242l-100 -66l-147 183l-228 -183z" />
<glyph unicode="&#xcf;" horiz-adv-x="552" d="M66 0l231 1319h258l-231 -1319h-258zM170 1430l34 202h191l-35 -202h-190zM530 1430l35 202h190l-34 -202h-191z" />
<glyph unicode="&#xd0;" horiz-adv-x="1214" d="M37 563l39 225h135l90 510q96 18 186.5 28.5t174.5 10.5q117 0 213 -22.5t163.5 -75.5t105.5 -141t38 -219q0 -53 -7.5 -119t-21.5 -137.5t-36.5 -147.5t-55.5 -145q-41 -92 -95.5 -158t-130 -107.5t-176 -61t-235.5 -19.5q-29 0 -71 1t-89 3t-97 5t-93 9l98 561h-135z M369 211q35 -2 57.5 -2h56.5q135 0 215 52t131 175q20 47 37 102.5t29 113t18.5 111.5t6.5 101q0 131 -63.5 189.5t-219.5 58.5q-25 0 -53.5 -1t-57.5 -5l-55 -318h215l-39 -225h-217z" />
<glyph unicode="&#xd1;" horiz-adv-x="1329" d="M66 0l231 1319h338l264 -940h8l166 940h258l-231 -1319h-338l-264 940h-9l-165 -940h-258zM576 1493q20 84 65 129t123 45q27 0 60.5 -11t64.5 -28q29 -14 53.5 -23.5t40.5 -9.5q43 0 62 52l96 -39q-20 -84 -65.5 -129t-122.5 -45q-33 0 -70 13t-68 30q-25 12 -45 20 t-36 8q-43 0 -62 -51z" />
<glyph unicode="&#xd2;" horiz-adv-x="1263" d="M98 426q0 55 7.5 122.5t21.5 139.5t36.5 144.5t51.5 138.5q80 180 214 274t345 94q121 0 207 -31.5t141.5 -90t81 -140.5t25.5 -184q0 -55 -7.5 -123t-21.5 -139.5t-36.5 -144t-51.5 -138.5q-80 -180 -214 -274t-345 -94q-121 0 -207 31.5t-141 90t-81 140.5t-26 184z M360 438q0 -117 46.5 -175t166.5 -58q68 0 117 18.5t86 51t62.5 79.5t48.5 107q18 49 32.5 103t24.5 109.5t16.5 109t6.5 98.5q0 117 -46.5 175t-166.5 58q-68 0 -117 -18.5t-86 -51t-63.5 -81t-47.5 -105.5q-18 -49 -32.5 -103.5t-24.5 -109.5t-16.5 -108.5t-6.5 -98.5z M634 1669l191 92l113 -321l-117 -56z" />
<glyph unicode="&#xd3;" horiz-adv-x="1263" d="M98 426q0 55 7.5 122.5t21.5 139.5t36.5 144.5t51.5 138.5q80 180 214 274t345 94q121 0 207 -31.5t141.5 -90t81 -140.5t25.5 -184q0 -55 -7.5 -123t-21.5 -139.5t-36.5 -144t-51.5 -138.5q-80 -180 -214 -274t-345 -94q-121 0 -207 31.5t-141 90t-81 140.5t-26 184z M360 438q0 -117 46.5 -175t166.5 -58q68 0 117 18.5t86 51t62.5 79.5t48.5 107q18 49 32.5 103t24.5 109.5t16.5 109t6.5 98.5q0 117 -46.5 175t-166.5 58q-68 0 -117 -18.5t-86 -51t-63.5 -81t-47.5 -105.5q-18 -49 -32.5 -103.5t-24.5 -109.5t-16.5 -108.5t-6.5 -98.5z M731 1475l213 280l146 -145l-269 -226z" />
<glyph unicode="&#xd4;" horiz-adv-x="1263" d="M98 426q0 55 7.5 122.5t21.5 139.5t36.5 144.5t51.5 138.5q80 180 214 274t345 94q121 0 207 -31.5t141.5 -90t81 -140.5t25.5 -184q0 -55 -7.5 -123t-21.5 -139.5t-36.5 -144t-51.5 -138.5q-80 -180 -214 -274t-345 -94q-121 0 -207 31.5t-141 90t-81 140.5t-26 184z M360 438q0 -117 46.5 -175t166.5 -58q68 0 117 18.5t86 51t62.5 79.5t48.5 107q18 49 32.5 103t24.5 109.5t16.5 109t6.5 98.5q0 117 -46.5 175t-166.5 58q-68 0 -117 -18.5t-86 -51t-63.5 -81t-47.5 -105.5q-18 -49 -32.5 -103.5t-24.5 -109.5t-16.5 -108.5t-6.5 -98.5z M544 1452l228 236h172l153 -242l-100 -66l-147 183l-228 -183z" />
<glyph unicode="&#xd5;" horiz-adv-x="1263" d="M98 426q0 55 7.5 122.5t21.5 139.5t36.5 144.5t51.5 138.5q80 180 214 274t345 94q121 0 207 -31.5t141.5 -90t81 -140.5t25.5 -184q0 -55 -7.5 -123t-21.5 -139.5t-36.5 -144t-51.5 -138.5q-80 -180 -214 -274t-345 -94q-121 0 -207 31.5t-141 90t-81 140.5t-26 184z M360 438q0 -117 46.5 -175t166.5 -58q68 0 117 18.5t86 51t62.5 79.5t48.5 107q18 49 32.5 103t24.5 109.5t16.5 109t6.5 98.5q0 117 -46.5 175t-166.5 58q-68 0 -117 -18.5t-86 -51t-63.5 -81t-47.5 -105.5q-18 -49 -32.5 -103.5t-24.5 -109.5t-16.5 -108.5t-6.5 -98.5z M553 1493q20 84 65 129t123 45q27 0 60.5 -11t64.5 -28q29 -14 53.5 -23.5t40.5 -9.5q43 0 62 52l96 -39q-20 -84 -65.5 -129t-122.5 -45q-33 0 -70 13t-68 30q-25 12 -45 20t-36 8q-43 0 -62 -51z" />
<glyph unicode="&#xd6;" horiz-adv-x="1263" d="M98 426q0 55 7.5 122.5t21.5 139.5t36.5 144.5t51.5 138.5q80 180 214 274t345 94q121 0 207 -31.5t141.5 -90t81 -140.5t25.5 -184q0 -55 -7.5 -123t-21.5 -139.5t-36.5 -144t-51.5 -138.5q-80 -180 -214 -274t-345 -94q-121 0 -207 31.5t-141 90t-81 140.5t-26 184z M360 438q0 -117 46.5 -175t166.5 -58q68 0 117 18.5t86 51t62.5 79.5t48.5 107q18 49 32.5 103t24.5 109.5t16.5 109t6.5 98.5q0 117 -46.5 175t-166.5 58q-68 0 -117 -18.5t-86 -51t-63.5 -81t-47.5 -105.5q-18 -49 -32.5 -103.5t-24.5 -109.5t-16.5 -108.5t-6.5 -98.5z M525 1430l34 202h191l-35 -202h-190zM885 1430l35 202h190l-34 -202h-191z" />
<glyph unicode="&#xd7;" horiz-adv-x="1003" d="M84 223l281 254l-195 262l166 150l192 -262l281 256l113 -152l-281 -254l195 -262l-166 -149l-193 262l-280 -256z" />
<glyph unicode="&#xd8;" horiz-adv-x="1261" d="M16 0l140 168q-57 102 -58 258q0 55 7.5 122.5t21.5 139.5t36.5 144.5t51.5 138.5q80 180 214 274t345 94q92 0 162 -17t123 -52l41 49h211l-140 -170q57 -102 58 -256q0 -55 -7.5 -123t-21.5 -139.5t-36.5 -144t-51.5 -138.5q-80 -180 -214 -274t-345 -94 q-176 0 -285 69l-41 -49h-211zM360 418l539 657q-55 39 -145 39q-68 0 -117 -18.5t-86 -51t-63.5 -81t-47.5 -105.5q-18 -49 -32.5 -103.5t-24.5 -109.5t-16.5 -108.5t-6.5 -98.5v-20zM428 244q47 -39 145 -39q68 0 117 18.5t86 51t62.5 79.5t48.5 107q18 49 32.5 103 t24.5 109.5t16.5 109t6.5 98.5v18z" />
<glyph unicode="&#xd9;" horiz-adv-x="1198" d="M102 336q0 29 3.5 57.5t9.5 63.5l151 862h258l-143 -821q-6 -35 -11 -66t-5 -57q0 -170 188 -170q111 0 174 63q41 41 65.5 102.5t34.5 127.5l144 821h258l-152 -862q-18 -104 -56 -194.5t-112 -160.5q-72 -66 -163 -94t-201 -28q-98 0 -180 21.5t-140.5 65.5 t-90.5 111.5t-32 157.5zM596 1669l191 92l113 -321l-117 -56z" />
<glyph unicode="&#xda;" horiz-adv-x="1198" d="M102 336q0 29 3.5 57.5t9.5 63.5l151 862h258l-143 -821q-6 -35 -11 -66t-5 -57q0 -170 188 -170q111 0 174 63q41 41 65.5 102.5t34.5 127.5l144 821h258l-152 -862q-18 -104 -56 -194.5t-112 -160.5q-72 -66 -163 -94t-201 -28q-98 0 -180 21.5t-140.5 65.5 t-90.5 111.5t-32 157.5zM674 1475l213 280l146 -145l-269 -226z" />
<glyph unicode="&#xdb;" horiz-adv-x="1198" d="M102 336q0 29 3.5 57.5t9.5 63.5l151 862h258l-143 -821q-6 -35 -11 -66t-5 -57q0 -170 188 -170q111 0 174 63q41 41 65.5 102.5t34.5 127.5l144 821h258l-152 -862q-18 -104 -56 -194.5t-112 -160.5q-72 -66 -163 -94t-201 -28q-98 0 -180 21.5t-140.5 65.5 t-90.5 111.5t-32 157.5zM497 1452l228 236h172l153 -242l-100 -66l-147 183l-228 -183z" />
<glyph unicode="&#xdc;" horiz-adv-x="1198" d="M102 336q0 29 3.5 57.5t9.5 63.5l151 862h258l-143 -821q-6 -35 -11 -66t-5 -57q0 -170 188 -170q111 0 174 63q41 41 65.5 102.5t34.5 127.5l144 821h258l-152 -862q-18 -104 -56 -194.5t-112 -160.5q-72 -66 -163 -94t-201 -28q-98 0 -180 21.5t-140.5 65.5 t-90.5 111.5t-32 157.5zM492 1430l34 202h191l-35 -202h-190zM852 1430l35 202h190l-34 -202h-191z" />
<glyph unicode="&#xdd;" horiz-adv-x="1198" d="M197 1319h264q16 -78 36.5 -161t42 -161.5t44 -151.5t45.5 -132h4q45 66 95 141.5t100.5 154t98.5 157.5t89 153h282q-125 -219 -266 -422t-301 -410l-86 -487h-258l86 487q-86 207 -155.5 410t-120.5 422zM657 1475l213 280l146 -145l-269 -226z" />
<glyph unicode="&#xde;" horiz-adv-x="1157" d="M66 0l231 1319h258l-41 -234q74 6 135 7q98 0 179 -18.5t139.5 -60.5t90.5 -112t32 -172q0 -135 -53.5 -245.5t-139.5 -176.5q-59 -47 -145 -75.5t-213 -28.5q-53 0 -94.5 4t-82.5 12l-38 -219h-258zM397 424q23 -4 53.5 -5t59.5 -1q80 0 133 13t92 48q49 45 70.5 111.5 t21.5 126.5q0 92 -49 120.5t-153 28.5q-41 0 -80 -2t-72 -6z" />
<glyph unicode="&#xdf;" horiz-adv-x="1103" d="M41 0l166 954q18 111 61 184.5t103.5 117.5t135.5 63.5t157 19.5q186 0 284.5 -76.5t98.5 -191.5q0 -78 -41 -132t-103 -105q-41 -33 -69.5 -53.5t-48 -36t-28.5 -26.5t-9 -24q0 -27 35.5 -46t86.5 -54q80 -55 115 -119.5t35 -150.5q0 -74 -24.5 -136.5t-79 -108.5 t-139.5 -72.5t-204 -26.5q-57 0 -113.5 5t-105.5 15l27 209q35 -6 93 -11t106 -5q94 0 145 26.5t51 95.5q0 31 -10 50.5t-28.5 37t-45 34t-59.5 38.5q-59 41 -94 81t-35 106q0 72 38 117.5t103 99.5q66 53 112 89t46 79q0 37 -38 58t-110 21q-92 0 -141 -42t-65 -140 l-164 -944h-244z" />
<glyph unicode="&#xe0;" horiz-adv-x="956" d="M53 289q0 37 5 87t15.5 106.5t28 114.5t39.5 112q53 127 140.5 192.5t234.5 65.5q49 0 104.5 -7.5t108.5 -18.5t102.5 -24.5t83.5 -27.5l-155 -889h-178l-9 70q-41 -35 -103 -62.5t-140 -27.5q-131 0 -204 82t-73 227zM297 307q0 -53 23.5 -86t89.5 -33q41 0 79.5 12.5 t67.5 28.5l90 519q-25 8 -57.5 12t-61.5 4q-55 0 -99 -25.5t-75 -113.5q-12 -33 -22 -77t-17.5 -88t-12.5 -85t-5 -68zM393 1300l190 93l113 -322l-117 -55z" />
<glyph unicode="&#xe1;" horiz-adv-x="956" d="M53 289q0 37 5 87t15.5 106.5t28 114.5t39.5 112q53 127 140.5 192.5t234.5 65.5q49 0 104.5 -7.5t108.5 -18.5t102.5 -24.5t83.5 -27.5l-155 -889h-178l-9 70q-41 -35 -103 -62.5t-140 -27.5q-131 0 -204 82t-73 227zM297 307q0 -53 23.5 -86t89.5 -33q41 0 79.5 12.5 t67.5 28.5l90 519q-25 8 -57.5 12t-61.5 4q-55 0 -99 -25.5t-75 -113.5q-12 -33 -22 -77t-17.5 -88t-12.5 -85t-5 -68zM482 1106l213 280l145 -145l-268 -225z" />
<glyph unicode="&#xe2;" horiz-adv-x="956" d="M53 289q0 37 5 87t15.5 106.5t28 114.5t39.5 112q53 127 140.5 192.5t234.5 65.5q49 0 104.5 -7.5t108.5 -18.5t102.5 -24.5t83.5 -27.5l-155 -889h-178l-9 70q-41 -35 -103 -62.5t-140 -27.5q-131 0 -204 82t-73 227zM297 307q0 -53 23.5 -86t89.5 -33q41 0 79.5 12.5 t67.5 28.5l90 519q-25 8 -57.5 12t-61.5 4q-55 0 -99 -25.5t-75 -113.5q-12 -33 -22 -77t-17.5 -88t-12.5 -85t-5 -68zM305 1083l227 236h172l154 -242l-101 -65l-147 182l-227 -182z" />
<glyph unicode="&#xe3;" horiz-adv-x="956" d="M53 289q0 37 5 87t15.5 106.5t28 114.5t39.5 112q53 127 140.5 192.5t234.5 65.5q49 0 104.5 -7.5t108.5 -18.5t102.5 -24.5t83.5 -27.5l-155 -889h-178l-9 70q-41 -35 -103 -62.5t-140 -27.5q-131 0 -204 82t-73 227zM297 307q0 -53 23.5 -86t89.5 -33q41 0 79.5 12.5 t67.5 28.5l90 519q-25 8 -57.5 12t-61.5 4q-55 0 -99 -25.5t-75 -113.5q-12 -33 -22 -77t-17.5 -88t-12.5 -85t-5 -68zM327 1124q20 84 65.5 129t123.5 45q27 0 60.5 -11t64.5 -27q29 -14 53 -23.5t41 -9.5q43 0 61 51l97 -39q-20 -84 -65.5 -129t-123.5 -45 q-33 0 -69.5 13.5t-67.5 29.5q-25 12 -45.5 20.5t-36.5 8.5q-43 0 -61 -52z" />
<glyph unicode="&#xe4;" horiz-adv-x="956" d="M53 289q0 37 5 87t15.5 106.5t28 114.5t39.5 112q53 127 140.5 192.5t234.5 65.5q49 0 104.5 -7.5t108.5 -18.5t102.5 -24.5t83.5 -27.5l-155 -889h-178l-9 70q-41 -35 -103 -62.5t-140 -27.5q-131 0 -204 82t-73 227zM297 307q0 -53 23.5 -86t89.5 -33q41 0 79.5 12.5 t67.5 28.5l90 519q-25 8 -57.5 12t-61.5 4q-55 0 -99 -25.5t-75 -113.5q-12 -33 -22 -77t-17.5 -88t-12.5 -85t-5 -68zM301 1061l35 203h190l-34 -203h-191zM662 1061l34 203h191l-35 -203h-190z" />
<glyph unicode="&#xe5;" horiz-adv-x="956" d="M53 289q0 37 5 87t15.5 106.5t28 114.5t39.5 112q53 127 140.5 192.5t234.5 65.5q49 0 104.5 -7.5t108.5 -18.5t102.5 -24.5t83.5 -27.5l-155 -889h-178l-9 70q-41 -35 -103 -62.5t-140 -27.5q-131 0 -204 82t-73 227zM297 307q0 -53 23.5 -86t89.5 -33q41 0 79.5 12.5 t67.5 28.5l90 519q-25 8 -57.5 12t-61.5 4q-55 0 -99 -25.5t-75 -113.5q-12 -33 -22 -77t-17.5 -88t-12.5 -85t-5 -68zM426 1200q0 31 9.5 65.5t31 64.5t55 49.5t80.5 19.5q27 0 60 -8.5t59.5 -26.5t45 -49t18.5 -76q0 -31 -9.5 -65.5t-31 -64.5t-55 -49.5t-80.5 -19.5 q-29 0 -61 8.5t-58.5 27t-45 49t-18.5 75.5zM514 1206q0 -49 30.5 -66.5t59.5 -17.5q27 0 45.5 12.5t28.5 29t14.5 36t4.5 33.5q0 49 -31 66.5t-60 17.5t-46 -12.5t-27.5 -28.5t-14.5 -35.5t-4 -34.5z" />
<glyph unicode="&#xe6;" horiz-adv-x="1353" d="M37 281q0 35 5 85t15.5 107t27.5 117.5t40 114.5q53 127 142 194.5t233 67.5q74 0 152.5 -16.5t140.5 -43.5l2 -30q45 41 102 65.5t125 24.5q123 0 205 -82t82 -236q0 -47 -9.5 -117.5t-29.5 -146.5h-492q-2 -14 -3 -28.5t-1 -28.5q0 -135 139 -135q57 0 120 18t112 39 l57 -195q-66 -31 -153.5 -53t-174.5 -22q-86 0 -158.5 23.5t-107.5 62.5q-78 -45 -146.5 -65.5t-135.5 -20.5q-78 0 -133.5 22.5t-90 62t-50 95t-15.5 121.5zM281 305q0 -53 21.5 -82.5t84.5 -29.5q35 0 77 9t71 25q-2 14 -3.5 29.5t-1.5 34.5q0 35 4.5 70.5t12.5 82.5 l55 312q-51 10 -96 10q-74 0 -110 -41t-58 -107q-12 -33 -22.5 -74.5t-17.5 -85.5t-12 -84t-5 -69zM811 573h258q6 31 6 64q0 55 -23.5 86t-76.5 31q-66 0 -107 -47.5t-57 -133.5z" />
<glyph unicode="&#xe7;" horiz-adv-x="802" d="M53 305q0 39 5 92.5t16.5 112.5t30 118.5t45.5 108.5q66 127 173 178.5t252 51.5q53 0 117 -6.5t123 -16.5l-35 -205q-53 8 -101 11.5t-97 3.5q-84 0 -139.5 -24.5t-88.5 -108.5q-12 -31 -22 -69t-18.5 -77t-12.5 -76t-4 -63q0 -78 36 -110.5t105 -32.5q59 0 121 18 t109 39l57 -195q-66 -31 -153 -53t-179 -22q-152 0 -246 77.5t-94 247.5zM190 -375l37 92q14 -4 31.5 -6t30.5 -2q45 0 71.5 20.5t26.5 53.5q0 27 -22.5 38t-83.5 11l28 78q117 0 167 -26.5t50 -90.5q0 -43 -19.5 -77.5t-51 -58.5t-72.5 -37t-84 -13q-29 0 -58.5 5t-50.5 13 z" />
<glyph unicode="&#xe8;" horiz-adv-x="872" d="M49 324q0 57 9.5 122.5t30 132t50 127t70.5 109.5q127 152 326 152q145 0 225 -84t80 -232q0 -61 -12.5 -129.5t-28.5 -136.5h-504q-2 -10 -2 -25.5v-25.5q0 -76 38 -108.5t109 -32.5q59 0 121 18t111 39l57 -195q-66 -31 -154 -53t-184 -22q-162 0 -252 80t-90 264z M328 573h268q10 45 10 82q0 98 -98 99q-72 0 -115 -52.5t-65 -128.5zM350 1300l190 93l113 -322l-117 -55z" />
<glyph unicode="&#xe9;" horiz-adv-x="872" d="M49 324q0 57 9.5 122.5t30 132t50 127t70.5 109.5q127 152 326 152q145 0 225 -84t80 -232q0 -61 -12.5 -129.5t-28.5 -136.5h-504q-2 -10 -2 -25.5v-25.5q0 -76 38 -108.5t109 -32.5q59 0 121 18t111 39l57 -195q-66 -31 -154 -53t-184 -22q-162 0 -252 80t-90 264z M328 573h268q10 45 10 82q0 98 -98 99q-72 0 -115 -52.5t-65 -128.5zM445 1106l213 280l145 -145l-268 -225z" />
<glyph unicode="&#xea;" horiz-adv-x="874" d="M49 324q0 57 9.5 122.5t30 132t50 127t70.5 109.5q127 152 326 152q145 0 225 -84t80 -232q0 -61 -12.5 -129.5t-28.5 -136.5h-504q-2 -10 -2 -25.5v-25.5q0 -76 38 -108.5t109 -32.5q59 0 121 18t111 39l57 -195q-66 -31 -154 -53t-184 -22q-162 0 -252 80t-90 264z M289 1083l227 236h172l154 -242l-101 -65l-147 182l-227 -182zM328 573h268q10 45 10 82q0 98 -98 99q-72 0 -115 -52.5t-65 -128.5z" />
<glyph unicode="&#xeb;" horiz-adv-x="897" d="M49 324q0 57 9.5 122.5t30 132t50 127t70.5 109.5q127 152 326 152q145 0 225 -84t80 -232q0 -61 -12.5 -129.5t-28.5 -136.5h-504q-2 -10 -2 -25.5v-25.5q0 -76 38 -108.5t109 -32.5q59 0 121 18t111 39l57 -195q-66 -31 -154 -53t-184 -22q-162 0 -252 80t-90 264z M276 1061l35 203h190l-34 -203h-191zM328 573h268q10 45 10 82q0 98 -98 99q-72 0 -115 -52.5t-65 -128.5zM637 1061l34 203h191l-35 -203h-190z" />
<glyph unicode="&#xec;" horiz-adv-x="489" d="M41 0l166 946h244l-166 -946h-244zM193 1300l190 93l113 -322l-117 -55z" />
<glyph unicode="&#xed;" horiz-adv-x="489" d="M41 0l166 946h244l-166 -946h-244zM254 1106l213 280l145 -145l-268 -225z" />
<glyph unicode="&#xee;" horiz-adv-x="489" d="M41 0l166 946h244l-166 -946h-244zM78 1083l227 236h172l154 -242l-101 -65l-147 182l-227 -182z" />
<glyph unicode="&#xef;" horiz-adv-x="489" d="M41 0l166 946h244l-166 -946h-244zM76 1061l35 203h190l-34 -203h-191zM437 1061l34 203h191l-35 -203h-190z" />
<glyph unicode="&#xf0;" horiz-adv-x="937" d="M49 279q0 35 5 86t15.5 108t28 117.5t39.5 114.5q53 123 140.5 192.5t230.5 69.5q57 0 125 -13q-10 35 -22.5 71t-32.5 71l-111 -90l-109 137l111 90q-20 16 -43 33.5t-47 33.5l123 136q72 -35 123 -76l96 78l108 -138l-79 -65q78 -106 114.5 -236.5t36.5 -267.5 q0 -86 -13.5 -185.5t-37.5 -185.5q-23 -78 -58.5 -146.5t-92 -120.5t-135.5 -82.5t-185 -30.5q-90 0 -153.5 22.5t-102.5 62t-56.5 94t-17.5 120.5zM293 313q0 -121 117 -120q92 0 142 71.5t77 216.5q10 55 17 127t9 142q-35 6 -70.5 11t-64.5 5q-57 0 -98 -28.5t-72 -119.5 q-12 -37 -22.5 -79.5t-18.5 -84.5t-12 -79t-4 -62z" />
<glyph unicode="&#xf1;" horiz-adv-x="980" d="M41 0l166 946h178l10 -59q53 35 113.5 57.5t138.5 22.5q70 0 120 -20.5t81 -55.5t45 -82t14 -98q0 -16 -2 -39t-6 -49l-108 -623h-244l110 608q4 23 5.5 36t1.5 26q0 84 -99 84q-39 0 -79 -10.5t-74 -24.5l-127 -719h-244zM334 1124q20 84 65.5 129t123.5 45 q27 0 60.5 -11t64.5 -27q29 -14 53 -23.5t41 -9.5q43 0 61 51l97 -39q-20 -84 -65.5 -129t-123.5 -45q-33 0 -69.5 13.5t-67.5 29.5q-25 12 -45.5 20.5t-36.5 8.5q-43 0 -61 -52z" />
<glyph unicode="&#xf2;" horiz-adv-x="944" d="M49 326q0 43 5 93t17.5 103t32 107.5t46.5 103.5q66 121 166 177.5t235 56.5q162 0 253 -83t91 -263q0 -43 -5 -93.5t-17.5 -103.5t-32 -107.5t-45.5 -103.5q-66 -121 -166.5 -177t-235.5 -56q-162 0 -253 83t-91 263zM293 319q0 -59 26.5 -92.5t92.5 -33.5t105.5 33.5 t66.5 92.5q14 33 26.5 75t21.5 85t14 81t5 67q0 59 -26.5 93t-92.5 34t-105.5 -34t-66.5 -93q-14 -35 -26 -76t-21.5 -84t-14.5 -82t-5 -66zM379 1300l190 93l113 -322l-117 -55z" />
<glyph unicode="&#xf3;" horiz-adv-x="944" d="M49 326q0 43 5 93t17.5 103t32 107.5t46.5 103.5q66 121 166 177.5t235 56.5q162 0 253 -83t91 -263q0 -43 -5 -93.5t-17.5 -103.5t-32 -107.5t-45.5 -103.5q-66 -121 -166.5 -177t-235.5 -56q-162 0 -253 83t-91 263zM293 319q0 -59 26.5 -92.5t92.5 -33.5t105.5 33.5 t66.5 92.5q14 33 26.5 75t21.5 85t14 81t5 67q0 59 -26.5 93t-92.5 34t-105.5 -34t-66.5 -93q-14 -35 -26 -76t-21.5 -84t-14.5 -82t-5 -66zM504 1106l213 280l145 -145l-268 -225z" />
<glyph unicode="&#xf4;" horiz-adv-x="944" d="M49 326q0 43 5 93t17.5 103t32 107.5t46.5 103.5q66 121 166 177.5t235 56.5q162 0 253 -83t91 -263q0 -43 -5 -93.5t-17.5 -103.5t-32 -107.5t-45.5 -103.5q-66 -121 -166.5 -177t-235.5 -56q-162 0 -253 83t-91 263zM293 319q0 -59 26.5 -92.5t92.5 -33.5t105.5 33.5 t66.5 92.5q14 33 26.5 75t21.5 85t14 81t5 67q0 59 -26.5 93t-92.5 34t-105.5 -34t-66.5 -93q-14 -35 -26 -76t-21.5 -84t-14.5 -82t-5 -66zM316 1083l227 236h172l154 -242l-101 -65l-147 182l-227 -182z" />
<glyph unicode="&#xf5;" horiz-adv-x="944" d="M49 326q0 43 5 93t17.5 103t32 107.5t46.5 103.5q66 121 166 177.5t235 56.5q162 0 253 -83t91 -263q0 -43 -5 -93.5t-17.5 -103.5t-32 -107.5t-45.5 -103.5q-66 -121 -166.5 -177t-235.5 -56q-162 0 -253 83t-91 263zM293 319q0 -59 26.5 -92.5t92.5 -33.5t105.5 33.5 t66.5 92.5q14 33 26.5 75t21.5 85t14 81t5 67q0 59 -26.5 93t-92.5 34t-105.5 -34t-66.5 -93q-14 -35 -26 -76t-21.5 -84t-14.5 -82t-5 -66zM311 1124q20 84 65.5 129t123.5 45q27 0 60.5 -11t64.5 -27q29 -14 53 -23.5t41 -9.5q43 0 61 51l97 -39q-20 -84 -65.5 -129 t-123.5 -45q-33 0 -69.5 13.5t-67.5 29.5q-25 12 -45.5 20.5t-36.5 8.5q-43 0 -61 -52z" />
<glyph unicode="&#xf6;" horiz-adv-x="944" d="M49 326q0 43 5 93t17.5 103t32 107.5t46.5 103.5q66 121 166 177.5t235 56.5q162 0 253 -83t91 -263q0 -43 -5 -93.5t-17.5 -103.5t-32 -107.5t-45.5 -103.5q-66 -121 -166.5 -177t-235.5 -56q-162 0 -253 83t-91 263zM293 319q0 -59 26.5 -92.5t92.5 -33.5t105.5 33.5 t66.5 92.5q14 33 26.5 75t21.5 85t14 81t5 67q0 59 -26.5 93t-92.5 34t-105.5 -34t-66.5 -93q-14 -35 -26 -76t-21.5 -84t-14.5 -82t-5 -66zM301 1061l35 203h190l-34 -203h-191zM662 1061l34 203h191l-35 -203h-190z" />
<glyph unicode="&#xf7;" horiz-adv-x="1140" d="M111 383l30 180h889l-31 -180h-888zM371 0l41 238h231l-41 -238h-231zM498 709l41 237h231l-41 -237h-231z" />
<glyph unicode="&#xf8;" horiz-adv-x="948" d="M-4 0l98 121q-45 80 -45 205q0 43 5 93t17.5 103t32 107.5t46.5 103.5q66 121 166 177.5t235 56.5q123 0 201 -45l20 24h176l-100 -121q47 -82 47 -204q0 -43 -5 -93.5t-17.5 -103.5t-32 -107.5t-45.5 -103.5q-66 -121 -166.5 -177t-235.5 -56q-121 0 -203 45l-18 -25 h-176zM295 365l305 372q-27 16 -68 17q-66 0 -105.5 -34t-66.5 -93q-25 -55 -42 -129t-23 -133zM342 207q23 -14 70 -14q66 0 105.5 33.5t66.5 92.5q23 55 41 129t24 134z" />
<glyph unicode="&#xf9;" horiz-adv-x="978" d="M74 236q0 16 2 38.5t6 49.5l108 622h244l-106 -598q-4 -16 -6.5 -37.5t-2.5 -38.5q0 -80 95 -79q41 0 81 11t74 23l127 719h244l-168 -946h-176l-10 59q-53 -35 -113.5 -57t-138.5 -22q-72 0 -121 20t-80 55t-45 81.5t-14 99.5zM401 1300l190 93l113 -322l-117 -55z" />
<glyph unicode="&#xfa;" horiz-adv-x="978" d="M74 236q0 16 2 38.5t6 49.5l108 622h244l-106 -598q-4 -16 -6.5 -37.5t-2.5 -38.5q0 -80 95 -79q41 0 81 11t74 23l127 719h244l-168 -946h-176l-10 59q-53 -35 -113.5 -57t-138.5 -22q-72 0 -121 20t-80 55t-45 81.5t-14 99.5zM512 1106l213 280l145 -145l-268 -225z " />
<glyph unicode="&#xfb;" horiz-adv-x="978" d="M74 236q0 16 2 38.5t6 49.5l108 622h244l-106 -598q-4 -16 -6.5 -37.5t-2.5 -38.5q0 -80 95 -79q41 0 81 11t74 23l127 719h244l-168 -946h-176l-10 59q-53 -35 -113.5 -57t-138.5 -22q-72 0 -121 20t-80 55t-45 81.5t-14 99.5zM316 1083l227 236h172l154 -242l-101 -65 l-147 182l-227 -182z" />
<glyph unicode="&#xfc;" horiz-adv-x="978" d="M74 236q0 16 2 38.5t6 49.5l108 622h244l-106 -598q-4 -16 -6.5 -37.5t-2.5 -38.5q0 -80 95 -79q41 0 81 11t74 23l127 719h244l-168 -946h-176l-10 59q-53 -35 -113.5 -57t-138.5 -22q-72 0 -121 20t-80 55t-45 81.5t-14 99.5zM305 1061l35 203h190l-34 -203h-191z M666 1061l34 203h191l-35 -203h-190z" />
<glyph unicode="&#xfd;" horiz-adv-x="919" d="M127 -373q66 125 112 220.5t72 152.5h-116q-12 104 -23.5 219t-20 237t-13.5 245.5t-7 244.5h248q-2 -186 1 -377.5t13 -373.5h10q33 76 71 167t78 190t79 199.5t74 194.5h245q-68 -172 -141.5 -348t-149 -345t-150.5 -329t-144 -297h-238zM506 1106l213 280l145 -145 l-268 -225z" />
<glyph unicode="&#xfe;" horiz-adv-x="966" d="M-25 -373l297 1692h244l-72 -408q39 23 86.5 39.5t106.5 16.5q135 0 205.5 -84t70.5 -226q0 -41 -6 -92t-17 -107.5t-27.5 -114.5t-39.5 -110q-53 -125 -140 -189t-224 -64q-84 0 -174 22l-66 -375h-244zM319 199q25 -8 58 -12.5t61 -4.5q27 0 52.5 5.5t47 20.5t40 41.5 t34.5 72.5q12 33 22.5 76.5t17.5 87.5t12.5 85t5.5 68q0 53 -23.5 86t-89.5 33q-41 0 -80 -12.5t-67 -28.5z" />
<glyph unicode="&#xff;" horiz-adv-x="919" d="M127 -373q66 125 112 220.5t72 152.5h-116q-12 104 -23.5 219t-20 237t-13.5 245.5t-7 244.5h248q-2 -186 1 -377.5t13 -373.5h10q33 76 71 167t78 190t79 199.5t74 194.5h245q-68 -172 -141.5 -348t-149 -345t-150.5 -329t-144 -297h-238zM289 1061l35 203h190l-34 -203 h-191zM650 1061l34 203h191l-35 -203h-190z" />
<glyph unicode="&#x152;" horiz-adv-x="1591" d="M98 446q0 51 7.5 125t27 157t51 169t80.5 160q84 127 221.5 194.5t364.5 67.5h811l-39 -225h-477l-55 -306h391l-39 -225h-391l-60 -338h477l-38 -225h-812q-274 0 -397 112.5t-123 333.5zM356 469q0 -133 60.5 -188.5t212.5 -55.5h104l154 869h-82q-129 0 -203 -37 t-123 -113q-31 -49 -54.5 -110.5t-38.5 -126t-22.5 -127t-7.5 -111.5z" />
<glyph unicode="&#x153;" horiz-adv-x="1384" d="M45 317q0 84 19.5 188.5t66.5 203.5q59 129 157.5 193.5t250.5 64.5q180 0 249 -95q53 45 118 70t143 25q139 0 220 -81t81 -235q0 -61 -12.5 -129.5t-34.5 -136.5h-486q-2 -10 -3 -23.5t-1 -27.5q0 -68 37 -104.5t108 -36.5q53 0 116 18t112 39l57 -195 q-66 -31 -155 -53t-183 -22t-156.5 24.5t-101.5 69.5q-102 -94 -280 -94q-162 0 -242 81.5t-80 255.5zM287 342q0 -63 24.5 -106t87.5 -43q37 0 63.5 14t46 37.5t33 53.5t23.5 60q12 41 26.5 112t14.5 134t-22.5 106.5t-85.5 43.5q-37 0 -63.5 -14.5t-46 -38t-34 -53.5 t-22.5 -60q-12 -41 -28.5 -111.5t-16.5 -134.5zM850 573h256q4 16 5 35t1 31q0 115 -102 115q-68 0 -107 -51.5t-53 -129.5z" />
<glyph unicode="&#x178;" horiz-adv-x="1198" d="M197 1319h264q16 -78 36.5 -161t42 -161.5t44 -151.5t45.5 -132h4q45 66 95 141.5t100.5 154t98.5 157.5t89 153h282q-125 -219 -266 -422t-301 -410l-86 -487h-258l86 487q-86 207 -155.5 410t-120.5 422zM480 1430l34 202h191l-35 -202h-190zM840 1430l35 202h190 l-34 -202h-191z" />
<glyph unicode="&#x2c6;" horiz-adv-x="921" d="M293 1083l227 236h172l154 -242l-101 -65l-147 182l-227 -182z" />
<glyph unicode="&#x2dc;" horiz-adv-x="903" d="M268 1124q20 84 65.5 129t123.5 45q27 0 60.5 -11t64.5 -27q29 -14 53 -23.5t41 -9.5q43 0 61 51l97 -39q-20 -84 -65.5 -129t-123.5 -45q-33 0 -69.5 13.5t-67.5 29.5q-25 12 -45.5 20.5t-36.5 8.5q-43 0 -61 -52z" />
<glyph unicode="&#x2000;" horiz-adv-x="883" />
<glyph unicode="&#x2001;" horiz-adv-x="1767" />
<glyph unicode="&#x2002;" horiz-adv-x="883" />
<glyph unicode="&#x2003;" horiz-adv-x="1767" />
<glyph unicode="&#x2004;" horiz-adv-x="589" />
<glyph unicode="&#x2005;" horiz-adv-x="441" />
<glyph unicode="&#x2006;" horiz-adv-x="294" />
<glyph unicode="&#x2007;" horiz-adv-x="294" />
<glyph unicode="&#x2008;" horiz-adv-x="220" />
<glyph unicode="&#x2009;" horiz-adv-x="353" />
<glyph unicode="&#x200a;" horiz-adv-x="98" />
<glyph unicode="&#x2010;" horiz-adv-x="577" d="M53 399l39 226h445l-39 -226h-445z" />
<glyph unicode="&#x2011;" horiz-adv-x="577" d="M53 399l39 226h445l-39 -226h-445z" />
<glyph unicode="&#x2012;" horiz-adv-x="577" d="M53 399l39 226h445l-39 -226h-445z" />
<glyph unicode="&#x2013;" horiz-adv-x="1230" d="M119 424l33 174h974l-32 -174h-975z" />
<glyph unicode="&#x2014;" horiz-adv-x="1388" d="M51 428l33 166h1268l-33 -166h-1268z" />
<glyph unicode="&#x2018;" horiz-adv-x="421" d="M190 895q18 238 181 430l86 -10q-63 -190 -80 -408z" />
<glyph unicode="&#x2019;" horiz-adv-x="421" d="M193 905q63 190 79 408l187 12q-18 -238 -180 -430z" />
<glyph unicode="&#x201a;" horiz-adv-x="421" d="M-6 -195q63 190 79 408l187 12q-18 -238 -180 -430z" />
<glyph unicode="&#x201c;" horiz-adv-x="692" d="M190 895q18 238 181 430l86 -10q-63 -190 -80 -408zM460 895q18 238 181 430l86 -10q-63 -190 -80 -408z" />
<glyph unicode="&#x201d;" horiz-adv-x="692" d="M193 905q63 190 79 408l187 12q-18 -238 -180 -430zM463 905q63 190 79 408l187 12q-18 -238 -180 -430z" />
<glyph unicode="&#x201e;" horiz-adv-x="692" d="M-6 -195q63 190 79 408l187 12q-18 -238 -180 -430zM263 -195q63 190 79 408l187 12q-18 -238 -180 -430z" />
<glyph unicode="&#x2022;" horiz-adv-x="716" d="M156 608q0 53 16 105.5t52 94.5t89.5 68.5t126.5 26.5q92 0 141.5 -45t49.5 -137q0 -55 -18.5 -107.5t-55.5 -93.5t-91 -65.5t-126 -24.5q-90 0 -137 43t-47 135z" />
<glyph unicode="&#x2026;" horiz-adv-x="1241" d="M56 0l41 238h237l-41 -238h-237zM420 0l41 238h237l-41 -238h-237zM785 0l41 238h237l-41 -238h-237z" />
<glyph unicode="&#x202f;" horiz-adv-x="353" />
<glyph unicode="&#x2039;" horiz-adv-x="534" d="M47 453q0 61 28.5 114.5t82.5 104.5q18 18 46.5 43.5t61.5 54.5t69 60.5t71 60.5l112 -129q-29 -27 -62.5 -57.5t-66.5 -61.5t-60.5 -57.5t-43.5 -42.5q-10 -10 -24.5 -32t-14.5 -50q0 -27 16 -53q8 -12 25.5 -39t40 -57.5t46 -62.5t44.5 -59l-146 -114q-23 27 -47 57.5 t-47.5 61t-43 57.5l-32.5 45q-29 41 -42 78t-13 78z" />
<glyph unicode="&#x203a;" horiz-adv-x="532" d="M23 205q29 27 62.5 57.5t66 61t60.5 57.5t44 43q10 10 24.5 31.5t14.5 50.5q0 27 -16 53q-8 12 -25.5 39t-40.5 57.5t-46.5 62.5t-43.5 58l145 115q23 -27 47.5 -57.5t48 -61.5t43 -57.5t31.5 -44.5q29 -41 42.5 -78t13.5 -78q0 -61 -29 -114.5t-82 -104.5 q-18 -18 -47 -44t-61.5 -54.5t-69.5 -60.5t-70 -60z" />
<glyph unicode="&#x205f;" horiz-adv-x="441" />
<glyph unicode="&#x20ac;" horiz-adv-x="1146" d="M78 424l33 188h141q4 25 8 50.5t8 52.5h-141l33 188h155q31 86 76 167t121 147q82 70 179 96t208 26q72 0 145.5 -8t143.5 -22l-37 -222q-61 10 -135 18.5t-127 8.5q-61 0 -108.5 -12t-86.5 -43q-35 -29 -62.5 -71t-41.5 -85h305l-33 -188h-330q-12 -51 -18 -103h332 l-33 -188h-309q4 -104 49 -161.5t160 -57.5q76 0 154.5 22.5t131.5 44.5l60 -204q-74 -35 -183.5 -61.5t-218.5 -26.5q-190 0 -300.5 108.5t-114.5 335.5h-164z" />
<glyph unicode="&#x2122;" horiz-adv-x="1443" d="M164 1174l24 145h574l-25 -145h-200l-105 -588h-172l105 588h-201zM694 586l144 733h178l102 -365h4l228 365h190l-113 -733h-176l58 387h-6l-142 -240h-143l-68 240h-4l-78 -387h-174z" />
<glyph unicode="&#x25fc;" horiz-adv-x="942" d="M0 0v942h942v-942h-942z" />
</font>
</defs>
</svg>
