<svg viewBox="0 0 275 232" xmlns="http://www.w3.org/2000/svg"><path d="M32.7 181.6l66.1-38.2-29.9-17.2h.4l29.9 17.3-66.1 38.1z" fill="#3e8885"/><path d="M32.7 180.3L2.8 163l66.1-38.1 29.9 17.2z" fill="#0a3847"/><path d="M2.8 163v1.3l29.9 17.3v-1.3zm96-20.9v1.3l-66.1 38.2v-1.3z" fill="#0a3847"/><path d="M69.4 101.9c-.7-.4-1.5-.4-2.3-.4-3 .2-5.6.7-8.4 1.7-2.4.9-4.9 1.8-7.3 2.7-1.8.6-3.1 1.1-3.1 1.1 0 .1.7 7 .7 7 1.8-.3 3.9-.6 5.4-1.2 1.2-.5 2.4-.8 3.6-1.4.7-.3 1.5-.8 2.2-.9-.2.9-1.4 1.8-2.1 2.4-2.6 2.4-4.5 5.3-6.3 8.3-.3.4-.5.8-.8 1.2.1.8.6 1.7 1.9 2.4l1.1-1.1c.7-.6 1.4-1.2 1.9-1.7 3.4-3.4 6.9-6.7 10.4-10 1.7-1.6 3.2-2.8 4.1-5.1.6-1.5.9-3.9-1-5z" fill="#f36d00"/><path d="M70.7 103.4c-.2-.6-.6-1.1-1.3-1.5s-1.5-.4-2.3-.4c-3 .2-5.6.7-8.4 1.7-2.4.9-4.9 1.8-7.3 2.7-1.8.6-3.1 1.1-3.1 1.1s.1.6.3 1.4c.5-.4 1.1-.6 1.8-1 1.4-.7 2.6-.7 4.1-1.1 4-1.2 6.2-2.1 10.3-3.2 1.2-.3 4-.7 5.1-.2 0 .2.8.5.8.5z" fill="#db6610"/><path d="M50.8 122.5c-.1.1-.1.2-.2.3s-.1.2-.2.3-.3.1-.5.1h-2c-.6.3-.8 3.5-1 4.2-.2 1-.4 2-.6 2.9-.2 1.2-.3 3.1 0 4.3.7-.3 1.5-.7 1.9-1.3.2-.3.4-.5.6-.8 1-1.7 1.7-3.7 2.3-5.5.3-.7.8-1.4 1.4-2-1.1-.8-1.6-1.7-1.7-2.5z" fill="#f2c7ad"/><path d="M46.5 130.3c-.2 1.2-.3 3.1 0 4.3.7-.3 1.5-.7 1.9-1.3.2-.3.4-.5.6-.8 1-1.7 1.7-3.7 2.3-5.5.3-.7.8-1.4 1.4-2-.7-.4-1.1-.8-1.4-1.2l-2 .5h-1.8c-.3 1.1-.4 2.7-.5 3.1-.2 1-.4 1.9-.5 2.9z" fill="#dcb79e"/><path d="M49.5 111.5l-.6-.2-.7-3.3-6.2 1.3c-1.8 3.8-1.8 8.9-1.6 13.1.2 2.7.5 5 .9 7.6.1.8.4 2.1.4 2.9s-.4 1.5-.5 2.3c-.2 1.7-.3 3.6-.3 5.3.1 1.9.5 3.5.8 5.4.3 1.5.8 3 .9 4.6v.2c.5.3 1.7.8 3 .1v-.3c-.1-.8.1-1.4.2-2.2.6-3.5.3-7.1.5-10.6.1-1.6.2-3.1.3-4.7.2-2.8 1-5.5 1.6-8.2.7-2.7 1-5.5 1.3-8.4.2-2.4.4-3.5 0-4.9z" fill="#f36d00"/><path d="M43.6 109l-1.6.4c-1.8 3.8-1.8 8.9-1.6 13.1.2 2.7.5 5 .9 7.6.1.8.4 2.1.4 2.9s-.4 1.5-.5 2.3c-.2 1.7-.3 3.6-.3 5.3.1 1.9.5 3.5.8 5.4.3 1.5.8 3 .9 4.6v.2c.2.2.6.3 1.1.4-.5-3-1.3-6.1-1.6-9.1-.3-2.8.4-5.6.8-8.4.3-2.9-.1-5.7-.4-8.6-.3-3.1-.4-6.1-.3-9.2 0-2.6.8-4.7 1.4-6.9z" fill="#db6610"/><path d="M58.5 76.1c-1.1.3-2.3.2-3.1-.9-.3-.3-.4-.6-.4-1.1 0-.2.1-.7.1-.9.1-.3.4-.7.6-1 .3-.4.6-.8 1-1.2.6-.6 1.2-1 1.9-1.4 2.6-1.6 5.6-2.2 8.3-3.8.2-.1.3-.2.5-.3l2.7-1.2 5.8-2.4 4.9-1.8 2.7-.5c.4-.1 1.8-.7 2.2-.9l1.5-.6c.6-.2 2.6-.7 3.6-.2.3.2 1.2.6 1.2.7 0 1.1-1.3 1.3-2 1.7s-1.8.9-1.8 1 .7 0 .9 0c.3 0 .5-.1.9 0 .2.1.3.3.3.3-.1.3-1 .4-1.5.5s-1.1.1-1.7.2c-.8.2-1.6.1-2.5.1-1-.1-1.6.2-2.5.6-1.3.6-2.5 1.3-3.7 2-2.1 1.2-4.2 2.2-6.5 2.9-1.2.3-2.2 1.5-3.2 2.3-1.6 1.3-3.6 2-5.3 3.2-1.6 1.1-3.1 2.2-4.9 2.7z" fill="#eebfa2"/><path d="M68.5 70.3c1-.8 2-1.9 3.2-2.3 2.3-.7 4.4-1.7 6.5-2.9 1.2-.7 2.4-1.4 3.7-2 .9-.4 1.5-.7 2.5-.6.8.1 1.6.1 2.5-.1.5-.1 1.1-.1 1.7-.2s1.5-.2 1.5-.5c0-.1-.1-.3-.3-.3-.3-.1-.5-.1-.9 0-.3 0-.9.1-.9 0s1.1-.6 1.8-1c.6-.3 1.7-.6 1.9-1.3l-.5-.8L70.8 66l-15.6 8.9v.1c0 .1.1.1.1.2.8 1.1 2 1.2 3.1.9 1.8-.4 3.3-1.6 4.8-2.6 1.8-1.2 3.8-1.9 5.3-3.2z" fill="#bd9c87"/><path d="M42.5 82.7c.9-.7 1.5-1.8 1.1-3.1-.1-.4-.3-.7-.6-1l-.8-.4c-.3-.2-.8 0-1.1 0-.5 0-1 0-1.5.1-.8.1-1.5.4-2.3.7-2.8 1.2-5.1 3.2-7.9 4.4-.2.1-.4.2-.6.2l-2.6 1.5-5.4 3.3-4.4 2.9-2 1.9c-.3.3-1.6 1-2 1.2-.5.3-.9.5-1.4.8S8.9 96.9 8.7 98c-.1.4-.2 1.3-.1 1.4.7.8 1.7 0 2.5-.4.7-.3 1.9-1.2 1.9-1.1.1.1-.4.5-.6.7-.2.3-.3.4-.4.8-.1.2.1.4.1.4.3.1.9-.6 1.3-1l1.2-1.2c.6-.6 1.1-1.2 1.5-2 .5-.9 1.1-1.1 2-1.6 1.2-.7 2.5-1.2 3.8-1.8 2.2-1 4.2-2.1 6.1-3.6 1-.8 2.5-.9 3.7-1.2 2-.5 3.7-1.7 5.6-2.4 2-.6 3.8-1.2 5.2-2.3z" fill="#e7bda4"/><path d="M11.2 99c.7-.3 1.9-1.2 1.9-1.1.1.1-.4.5-.6.7-.2.3-.3.4-.4.8-.1.2.1.4.1.4.3.1.9-.6 1.3-1l1.2-1.2c.6-.6 1.1-1.2 1.5-2 .5-.9 1.1-1.1 2-1.6 1.2-.7 2.5-1.2 3.8-1.8 2.2-1 4.2-2.1 6.1-3.6 1-.8 2.5-.9 3.7-1.2 2-.5 3.7-1.7 5.6-2.4 1.7-.6 3.5-1.2 4.9-2.3.8-.7 1.4-1.6 1.2-2.8l-15.6 6.3L8.7 99v.3c.8.9 1.8 0 2.5-.3z" fill="#bd9c87"/><path d="M50.1 158.2l-1.6-2.1-1.9-2.5c-.6-.8-.9-1.9-1-2.9-1.3.7-2.4.2-3-.1v.4c-.1 1.2-1 1.9-1.2 3.1-.2.9.3 1.9.9 2.6s1 1.3 1.5 2 1.2 1.4 2 1.8c.8.5 1.8.7 2.7.7.8 0 1.6-.2 2.2-.7.5-1-.2-1.6-.6-2.3z" fill="#f2c7ad"/><path d="M46 72.7l.6-.3c-.3 0-.4.1-.6.3zm8.5 1.1c.1 0 .1-.1.2-.1zm-5.3-2.2c-.3 0-.7.1-1 .1-.3.1-.7.2-1 .3.3-.2.7-.3 1-.3.4-.1.7-.1 1-.1zm4.8 0c.2 0 .3 0 .5.1-.2-.1-.4-.1-.5-.1zm-4.5-.1h.7-.7zm2.1-.1h.9c-.3.1-.6 0-.9 0zm1.4.1h.5-.5zm-12.3 5.7l-.2.2c.1-.1.2-.1.2-.2zm9.9-5.7h.7c-.2-.1-.5-.1-.7 0zm-9.9 13.1c0 .1.1.2.1.3 0-.1 0-.2-.1-.3zm.4.8c.2.4.3.8.5 1.2-.2-.4-.4-.8-.5-1.2z" fill="#d7dee6"/><g fill="#eff3f5"><path d="M61.8 72.2c0-.3-.1-.6-.2-.9v-.1.1c0 .3.1.6.2.9zm-.1 1.6c-.1.3-.2.6-.3 1 .1-.4.3-.7.3-1zm-4.8 4.9l-1.6-3.9zm-6.7-7.2h.4-.4zm-9.8 6l.1-.1-.1.1zm8.8-5.9h.3c-.1-.1-.2-.1-.3 0zm-2.7.7c.2-.1.4-.2.5-.3-.1.1-.3.2-.5.3zm-6.1 5.2c-.2.2-.4.3-.5.5l.5-.5zM55 71.7c-.2 0-.3 0-.5-.1.1.1.3.1.5.1zm-3.7-.3h.3-.3zm-6.9 2.3c-.4.3-.8.7-1.2 1.1-.8.8-1.7 1.6-2.5 2.4.8-.8 1.7-1.6 2.5-2.4.4-.5.8-.8 1.2-1.1zm1.6-1c-.2.1-.5.3-.7.4-.3.2-.6.4-.8.6.3-.2.5-.4.8-.6.2-.1.4-.3.7-.4zm7.5-1.2h.5c-.2.1-.4 0-.5 0zm-1 0h.4-.4zM42.8 106c.1-2.1.4-3.8.9-5.8.3-1.2.6-2.4.9-3.5.5-2.1 1.3-4.3.7-6.4-.3-1.1-.9-2.1-1.2-3.3-.3-1.1-2.2-2.1-3-2.5l-.4-.2c0 .1 0 .1.1.2 0 .1.1.2.1.3.1.2.1.4.2.5.2.4.3.8.5 1.2s.3.8.5 1.2c.6 1.4 1.1 2.8 1.4 4.2.1.4.2.8.2 1.2.1.6.1 1.3.1 1.9 0 .7-.2 1.4-.4 2.1v.2c-.1.2-.1.3-.2.5l-.3.9c0 .1-.1.2-.1.3-.1.3-.2.6-.2.9-.4 1.9-.8 3.2-.9 5.1v.4c-.1.8-.2 2.5-.2 3.6v.5s.5.1 1.2.3c-.3.1.1-3.5.1-3.8z"/><path d="M61.2 70.7c-.2-.2-.3-.4-.5-.5l-.3-.3c-.1 0-.2-.1-.3-.1-.3-.1-.7-.3-1.1-.3h-.2c-.2 0-.6 0-.7.1l-1.6 1-1.7 1.1c-.2 0-.3 0-.5-.1-.2 0-.3 0-.5-.1h-4.7c-.3 0-.7.1-1 .1-.3.1-.7.2-1 .3H47c-.2.1-.4.2-.5.3l-.6.3c-.2.1-.5.3-.7.4-.3.2-.6.4-.8.6-.4.3-.8.7-1.2 1.1-.8.8-1.7 1.6-2.5 2.4l-.2.2-.1.1c-.2.2-.4.3-.5.5-.6.1-1.1.3-1.7.4-.3.1-.8.3-1.1.4-.1.1-1 .5-1.1.6 0 0-.1.1-.2.1.2 0 .6-.1.8-.1h.1c.8.4 1.3 1.3 1.6 2.1.1.4.1.9.1 1.3 0 .2-.2 1.8-.3 1.8.1 0 .4-1.8.4-2 .1-.5.1-.7-.1-1.2l1-.5 4.2-2.4 3.9-2.9 3-.4 3.6-1.3s.1-.1.4-.2l.2-.1c1.7-.7 6.6-2.8 6.7-2.7 0 .2-.1.1-.2 0z"/></g><path d="M61.8 73.2c0-.3 0-.6-.1-.9 0-.3-.1-.6-.2-.9v-.1c0-.1 0-.2-.1-.2 0-.1-5 2-6.7 2.7-.1 0-.2.1-.2.1l-.2.1h-.1l-3.6 1.3-3 .4-3.9 2.9-4.2 2.4-1 .5c.1.5.1.7.1 1.2 0 .2-.3 2-.4 2s1.5 0 2.7-.2c0-.1 0-.1-.1-.2 0 0 .1.1.4.2.8.4 2.8 1.4 3 2.5.3 1.1.9 2.1 1.2 3.3.6 2.1-.2 4.3-.7 6.4-.3 1.2-.6 2.4-.9 3.5-.5 2-.8 3.7-.9 5.8 0 .3-.4 3.9-.1 4-.7-.2-1.2-.3-1.2-.3s3.7 1 6.1.9c2.5-.1 4-.9 4-.9 1.2-.7 2.2-1 2.8-2.3l.9-1.9c.1-2.2 0-5.2-.3-8.4-.3-2.4.7-6.1 1-8.5.1-.9.8-2.5 1-4.1.4-2.6.2-5.3.3-5.4.1-.8.2-1 .2-1.2l.6-.6c.4-.3.9-.6 1.4-.8.1 0 .1-.1.2-.1.1-.1.2-.2.4-.3.2-.2.5-.4.7-.6s.5-.4.7-.6c.1-.3.2-.6.3-1-.1-.3-.1-.5-.1-.7z" fill="#d7dee6"/><path d="M54.2 73.9l.3-.1c-.2.1-.3.1-.3.1z" fill="#eff3f5"/><path d="M53 72.2l-6-1.6-1.6-.6v.5c1 1.1 3.6 3.6 7.6 3.8.2-.5.1-1.5 0-2.1z" fill="#bd9c87"/><path d="M53 60.8c-1.2-1.5-2.7-3.1-4.6-3.5-1.7-.3-3.6-.1-5 .9-1.6 1-2.4 3.2-2.3 5.1.2 2 1.2 3.8 2.6 5.2s2.9 2.7 4.8 3.4c1.5.5 2.8 1 4.5.7 2.2-.5 2-3.4 1.9-5.1-.1-.9-.2-1.9-.3-2.8-.4-1.5-.7-2.7-1.6-3.9zm-7.6 9.8v3.1c0 .1.4.7.5.8.3.3.5.4.8.6.5.4.9.6 1.5.9.9.6 2.3.6 3.2 0 .6-.3 1.1-.8 1.5-1.4.1-.1.1-.2.1-.3-3.9-.1-6.6-2.6-7.6-3.7z" fill="#e7bda4"/><path d="M44.2 66.2c-.2 0 0 0 0 0z" fill="#662622"/><path d="M43.7 151c-.5-.1-.8-.3-1.1-.4v.4c-.1 1.2-1 1.9-1.2 3.1-.1.6.1 1.3.4 1.8.2-1.1.7-1.9.7-1.9z" fill="#f2c7ad"/><path d="M57.9 113c-2.6 2.4-4.5 5.3-6.3 8.3-.3.4-.5.8-.8 1.2.1.4.2.8.5 1.2.7-1.5 1.5-2.9 2.5-4.3 2.1-3.3 4.9-6.1 7.6-9.1.1-.1.2-.3.3-.4l-1.7.6c-.2 1.1-1.4 1.9-2.1 2.5z" fill="#db6610"/><path d="M50.1 158.2l-1.6-2.1-1.9-2.5c-.6-.8-.9-1.9-1-2.9-.7.4-1.4.4-1.9.3l-1.2 2.9s-.5.8-.7 1.9c.1.3.3.5.5.7l.1.1c.5.7 1 1.3 1.5 1.9.5.7 1.2 1.4 2 1.8.1 0 .2.1.2.1.7.4 1.7.5 2.4.5.8 0 1.6-.2 2.2-.7.5-.7-.2-1.3-.6-2z" fill="#dcb79e"/><path d="M52 58.5c-.5-.5-1.1-1-1.8-1.3-1.3-.6-2.8-1-4.3-.9-.8.1-1.9.3-2.6.7-.5.3-.7.4-1.2.8l-.6.6c-.3.3-.5.9-.6 1.3-.2.5-.3 1-.4 1.4-.1.8-.1 1.5 0 2.1 0 .8.2 1.5.2 1.9.2 1.2.6 2.2 1 3.3.1.3.8 2.8 1.1 2.8.1 0 4 2.7 4 2.7-.1-.1-.2-.5-.2-.7-.1-.2-.1-.5-.2-.7-.3-1.1-.7-2.2-.9-3.3-.2-1.2-.1-3.4.2-4.5 0-.2.1-.3.1-.5.4-1.2 1.4-2.3 2.5-2.9.6-.3 1.2-.5 1.8-.7.6-.1 1.2-.1 1.8-.1H53c-.3-.5-.4-1.3-1-2z" fill="#7b5b43"/><path d="M52 58.5c-.5-.5-1.1-1-1.8-1.3-.2-.1-.3-.1-.5-.2-2 2.3-3.8 5.3-4.9 9-.1.6-.1 1.2-.2 1.7 0 2 .4 4.1 1.4 5.9.4.3.6.4.6.4-.1-.1-.2-.5-.2-.7-.1-.2-.1-.5-.2-.7-.3-1.1-.7-2.2-.9-3.3-.2-1.2-.1-3.4.2-4.5 0-.2.1-.3.1-.5.4-1.2 1.4-2.3 2.5-2.9.6-.3 1.2-.5 1.8-.7.6-.1 1.2-.1 1.8-.1h1.1c-.1-.6-.2-1.4-.8-2.1z" fill="#6c513c"/><path d="M115.8 133.6l66.1-38.1L152 78.2h.4l29.9 17.3-66.1 38.1z" fill="#3e8885"/><path d="M115.8 132.3l-29.9-17.2L152 76.9l29.9 17.3z" fill="#0a3847"/><path d="M85.9 115.1v1.3l29.9 17.2v-1.3zm96-20.9v1.3l-66.1 38.1v-1.3z" fill="#0a3847"/><path d="M152.5 53.9c-.7-.4-1.5-.4-2.3-.4-3 .2-5.6.7-8.4 1.7-2.4.9-4.9 1.8-7.3 2.7-1.8.6-3.1 1.1-3.1 1.1 0 .1.7 7 .7 7 1.8-.3 3.9-.6 5.4-1.2 1.2-.5 2.4-.8 3.6-1.4.7-.3 1.5-.8 2.2-.9-.2.9-1.4 1.8-2.1 2.4-2.6 2.4-4.5 5.3-6.3 8.3-.3.4-.5.8-.8 1.2.1.8.6 1.7 1.9 2.4l1.1-1.1c.7-.6 1.4-1.2 1.9-1.7 3.4-3.4 6.9-6.7 10.4-10 1.7-1.6 3.2-2.8 4.1-5.1.6-1.5.9-3.9-1-5z" fill="#f36d00"/><path d="M153.8 55.4c-.2-.6-.6-1.1-1.3-1.5s-1.5-.4-2.3-.4c-3 .2-5.6.7-8.4 1.7-2.4.9-4.9 1.8-7.3 2.7-1.8.6-3.1 1.1-3.1 1.1s.1.6.3 1.4c.5-.4 1.1-.6 1.8-1 1.4-.7 2.6-.7 4.1-1.1 4-1.2 6.2-2.1 10.3-3.2 1.2-.3 4-.7 5.1-.2 0 .2.8.5.8.5z" fill="#db6610"/><path d="M133.9 74.5c-.1.1-.1.2-.2.3s-.1.2-.2.3-.3.1-.5.1h-2c-.6.3-.8 3.5-1 4.2-.2 1-.4 2-.6 2.9-.2 1.2-.3 3.1 0 4.3.7-.3 1.5-.7 1.9-1.3.2-.3.4-.5.6-.8 1-1.7 1.7-3.7 2.3-5.5.3-.7.8-1.4 1.4-2-1.1-.8-1.6-1.7-1.7-2.5z" fill="#f2c7ad"/><path d="M129.6 82.3c-.2 1.2-.3 3.1 0 4.3.7-.3 1.5-.7 1.9-1.3.2-.3.4-.5.6-.8 1-1.7 1.7-3.7 2.3-5.5.3-.7.8-1.4 1.4-2-.7-.4-1.1-.8-1.4-1.2l-2 .5h-1.8c-.3 1.1-.4 2.7-.5 3.1-.2 1-.4 2-.5 2.9z" fill="#dcb79e"/><path d="M132.6 63.5l-.6-.2-.7-3.3-6.2 1.3c-1.8 3.8-1.8 8.9-1.6 13.1.2 2.7.5 5 .9 7.6.1.8.4 2.1.4 2.9s-.4 1.5-.5 2.3c-.2 1.7-.3 3.6-.3 5.3.1 1.9.5 3.5.8 5.4.3 1.5.8 3 .9 4.6v.2c.5.3 1.7.8 3 .1v-.3c-.1-.8.1-1.4.2-2.2.6-3.5.3-7.1.5-10.6.1-1.6.2-3.1.3-4.7.2-2.8 1-5.5 1.6-8.2.7-2.7 1-5.5 1.3-8.4.2-2.4.4-3.5 0-4.9z" fill="#f36d00"/><path d="M126.7 61l-1.6.4c-1.8 3.8-1.8 8.9-1.6 13.1.2 2.7.5 5 .9 7.6.1.8.4 2.1.4 2.9s-.4 1.5-.5 2.3c-.2 1.7-.3 3.6-.3 5.3.1 1.9.5 3.5.8 5.4.3 1.5.8 3 .9 4.6v.2c.2.2.6.3 1.1.4-.5-3-1.3-6.1-1.6-9.1-.3-2.8.4-5.6.8-8.4.3-2.9-.1-5.7-.4-8.6-.3-3.1-.4-6.1-.3-9.2 0-2.6.8-4.7 1.4-6.9z" fill="#db6610"/><path d="M141.6 28.1c-1.1.3-2.3.2-3.1-.9-.3-.3-.4-.6-.4-1.1 0-.2.1-.7.1-.9.1-.3.4-.7.6-1 .3-.4.6-.8 1-1.2.6-.6 1.2-1 1.9-1.4 2.6-1.6 5.6-2.2 8.3-3.8.2-.1.3-.2.5-.3l2.7-1.2 5.8-2.4 4.9-1.8 2.7-.5c.4-.1 1.8-.7 2.2-.9l1.5-.6c.6-.2 2.6-.7 3.6-.2.3.2 1.2.6 1.2.7 0 1.1-1.3 1.3-2 1.7s-1.8.9-1.8 1 .7 0 .9 0c.3 0 .5-.1.9 0 .2.1.3.3.3.3-.1.3-1 .4-1.5.5s-1.1.1-1.7.2c-.8.2-1.6.1-2.5.1-1-.1-1.6.2-2.5.6-1.3.6-2.5 1.3-3.7 2-2.1 1.2-4.2 2.2-6.5 2.9-1.2.3-2.2 1.5-3.2 2.3-1.6 1.3-3.6 2-5.3 3.2-1.6 1.1-3.1 2.3-4.9 2.7z" fill="#e7bda4"/><path d="M151.6 22.3c1-.8 2-1.9 3.2-2.3 2.3-.7 4.4-1.7 6.5-2.9 1.2-.7 2.4-1.4 3.7-2 .9-.4 1.5-.7 2.5-.6.8.1 1.6.1 2.5-.1.5-.1 1.1-.1 1.7-.2s1.5-.2 1.5-.5c0-.1-.1-.3-.3-.3-.3-.1-.5-.1-.9 0-.3 0-.9.1-.9 0s1.1-.6 1.8-1c.6-.3 1.7-.6 1.9-1.3l-.5-.8-20.4 7.7-15.6 8.9v.1c0 .1.1.1.1.2.8 1.1 2 1.2 3.1.9 1.8-.4 3.3-1.6 4.8-2.6 1.8-1.2 3.8-1.9 5.3-3.2z" fill="#bd9c87"/><path d="M125.6 34.7c.9-.7 1.5-1.8 1.1-3.1-.1-.4-.3-.7-.6-1l-.8-.4c-.3-.2-.8 0-1.1 0-.5 0-1 0-1.5.1-.8.1-1.5.4-2.3.7-2.8 1.2-5.1 3.2-7.9 4.4-.2.1-.4.2-.6.2l-2.6 1.5-5.4 3.3-4.4 2.9-2 1.9c-.3.3-1.6 1-2 1.2-.5.3-.9.5-1.4.8S92 48.9 91.8 50c-.1.4-.2 1.3-.1 1.4.7.8 1.7 0 2.5-.4.7-.3 1.9-1.2 1.9-1.1.1.1-.4.5-.6.7-.2.3-.3.4-.4.8-.1.2.1.4.1.4.3.1.9-.6 1.3-1l1.2-1.2c.6-.6 1.1-1.2 1.5-2 .5-.9 1.1-1.1 2-1.6 1.2-.7 2.5-1.2 3.8-1.8 2.2-1 4.2-2.1 6.1-3.6 1-.8 2.5-.9 3.7-1.2 2-.5 3.7-1.7 5.6-2.4 2-.6 3.8-1.1 5.2-2.3z" fill="#e7bda4"/><path d="M94.3 51c.7-.3 1.9-1.2 1.9-1.1.1.1-.4.5-.6.7-.2.3-.3.4-.4.8-.1.2.1.4.1.4.3.1.9-.6 1.3-1l1.2-1.2c.6-.6 1.1-1.2 1.5-2 .5-.9 1.1-1.1 2-1.6 1.2-.7 2.5-1.2 3.8-1.8 2.2-1 4.2-2.1 6.1-3.6 1-.8 2.5-.9 3.7-1.2 2-.5 3.7-1.7 5.6-2.4 1.7-.6 3.5-1.2 4.9-2.3.8-.7 1.4-1.6 1.2-2.8L111 38.2 91.8 51v.3c.8.9 1.8.1 2.5-.3z" fill="#bd9c87"/><path d="M125.9 58c.1-2.1.4-3.8.9-5.8.3-1.2.6-2.4.9-3.5.5-2.1 1.3-4.3.7-6.4-.3-1.1-.9-2.1-1.2-3.3-.3-1.1-2.2-2.1-3-2.5l-.4-.2c0 .1 0 .1.1.2 0 .1.1.2.1.3.1.2.1.4.2.5.2.4.3.8.5 1.2s.3.8.5 1.2c.6 1.4 1.1 2.8 1.4 4.2.1.4.2.8.2 1.2.1.6.1 1.3.1 1.9 0 .7-.2 1.4-.4 2.1v.2c-.1.2-.1.3-.2.5l-.3.9c0 .1-.1.2-.1.3-.1.3-.2.6-.2.9-.4 1.9-.8 3.2-.9 5.1v.4c-.1.8-.2 2.5-.2 3.6v.5s.5.1 1.2.3c-.3.2 0-3.5.1-3.8zm18.4-35.3c-.2-.2-.3-.4-.5-.5l-.3-.3c-.1 0-.2-.1-.3-.1-.3-.1-.7-.3-1.1-.3h-.2c-.2 0-.6 0-.7.1l-1.6 1-1.7 1.1c-.2 0-.3 0-.5-.1-.2 0-.3 0-.5-.1h-4.7c-.3 0-.7.1-1 .1-.3.1-.7.2-1 .3h-.1c-.2.1-.4.2-.5.3l-.6.3c-.2.1-.5.3-.7.4-.3.2-.6.4-.8.6-.4.3-.8.7-1.2 1.1-.8.8-1.7 1.6-2.5 2.4l-.2.2-.1.1c-.2.2-.4.3-.5.5-.6.1-1.1.3-1.7.4-.3.1-.8.3-1.1.4-.1.1-1 .5-1.1.6 0 0-.1.1-.2.1.2 0 .6-.1.8-.1h.1c.8.4 1.3 1.3 1.6 2.1.1.4.1.9.1 1.3 0 .2-.2 1.8-.3 1.8.1 0 .4-1.8.4-2 .1-.5.1-.7-.1-1.2l1-.5 4.2-2.4 3.9-2.9 3-.4 3.6-1.3s.1-.1.4-.2l.2-.1c1.7-.7 6.6-2.8 6.7-2.7 0 .2-.1.1-.2 0z" fill="#eff3f5"/><path d="M144.9 25.2c0-.3 0-.6-.1-.9 0-.3-.1-.6-.2-.9v-.1c0-.1 0-.2-.1-.2 0-.1-5 2-6.7 2.7-.1 0-.2.1-.2.1l-.2.1h-.1l-3.6 1.3-3 .4-3.9 2.9-4.2 2.4-1 .5c.1.5.1.7.1 1.2 0 .2-.3 2-.4 2s1.5 0 2.7-.2c0-.1 0-.1-.1-.2 0 0 .1.1.4.2.8.4 2.8 1.4 3 2.5.3 1.1.9 2.1 1.2 3.3.6 2.1-.2 4.3-.7 6.4-.3 1.2-.6 2.4-.9 3.5-.5 2-.8 3.7-.9 5.8 0 .3-.4 3.9-.1 4-.7-.2-1.2-.3-1.2-.3s3.7 1 6.1.9c2.5-.1 4-.9 4-.9 1.2-.7 2.2-1 2.8-2.3l.9-1.9c.1-2.2 0-5.2-.3-8.4-.3-2.4.7-6.1 1-8.5.1-.9.8-2.5 1-4.1.4-2.6.2-5.3.3-5.4.1-.8.2-1 .2-1.2l.6-.6c.4-.3.9-.6 1.4-.8.1 0 .1-.1.2-.1.1-.1.2-.2.4-.3.2-.2.5-.4.7-.6s.5-.4.7-.6c.1-.3.2-.6.3-1-.1-.3-.1-.5-.1-.7z" fill="#d7dee6"/><path d="M133.2 110.2l-1.6-2.1-1.9-2.5c-.6-.8-.9-1.9-1-2.9-1.3.7-2.4.2-3-.1v.4c-.1 1.2-1 1.9-1.2 3.1-.2.9.3 1.9.9 2.6s1 1.3 1.5 2 1.2 1.4 2 1.8c.8.5 1.8.7 2.7.7.8 0 1.6-.2 2.2-.7.5-1-.2-1.6-.6-2.3z" fill="#f2c7ad"/><path d="M136.1 24.2l-6-1.6-1.6-.6v.5c1 1.1 3.6 3.6 7.6 3.8.2-.5.1-1.5 0-2.1z" fill="#bd9c87"/><path d="M138 19.5c-.1-.9-.2-1.9-.3-2.8-.3-1.5-.6-2.6-1.5-3.8-1.1-1.5-2.6-3.1-4.6-3.4-1.7-.3-3.6-.1-5 .9-1.6 1-2.4 3.2-2.3 5.1.2 2 1.2 3.8 2.6 5.2s2.9 2.7 4.8 3.4c1.5.5 2.8 1 4.5.7 2-.7 1.9-3.6 1.8-5.3z" fill="#e7bda4"/><path d="M128.5 22.6v3.1c0 .1.4.7.5.8.3.3.5.4.8.6.5.4.9.6 1.5.9.9.6 2.3.6 3.2 0 .6-.3 1.1-.8 1.5-1.4.1-.1.1-.2.1-.3-3.9-.1-6.6-2.6-7.6-3.7z" fill="#e7bda4"/><path d="M127.3 18.2c-.2 0 0 0 0 0z" fill="#662622"/><path d="M127.3 18.2c-.2 0 0 0 0 0z" fill="#f9d69c"/><path d="M126.8 103c-.5-.1-.8-.3-1.1-.4v.4c-.1 1.2-1 1.9-1.2 3.1-.1.6.1 1.3.4 1.8.2-1.1.7-1.9.7-1.9z" fill="#f2c7ad"/><path d="M141 65c-2.6 2.4-4.5 5.3-6.3 8.3-.3.4-.5.8-.8 1.2.1.4.2.8.5 1.2.7-1.5 1.5-2.9 2.5-4.3 2.1-3.3 4.9-6.1 7.6-9.1.1-.1.2-.3.3-.4l-1.7.6c-.2 1.1-1.4 1.9-2.1 2.5z" fill="#db6610"/><path d="M133.2 110.2l-1.6-2.1-1.9-2.5c-.6-.8-.9-1.9-1-2.9-.7.4-1.4.4-1.9.3l-1.2 2.9s-.5.8-.7 1.9c.1.3.3.5.5.7l.1.1c.5.7 1 1.3 1.5 1.9.5.7 1.2 1.4 2 1.8.1 0 .2.1.2.1.7.4 1.7.5 2.4.5.8 0 1.6-.2 2.2-.7.5-.7-.2-1.3-.6-2z" fill="#dcb79e"/><path d="M125.9 9.9l-.8-1.3c-.6-1-1.7-1.6-2.8-1.6-.9 0-1.7.4-2.2 1.1l-.5.7c-1.1 2.3-1.5 3.5-.3 7.4.3.8.8 2.3 1.5 3 .2-.4.2-1.8.2-2.1 0-1.5-.1-2.3 0-3.6 0-1 .3-2 1-2.8s1.8-1 2.8-.6l.4.1z" fill="#8d5c2a"/><path d="M135.2 10.6c-.5-.5-1.1-1-1.8-1.3-1.3-.6-2.8-1-4.3-.9-.8.1-1.9.3-2.6.7-.5.3-.7.4-1.2.8l-.6.6c-.3.3-.4.9-.5 1.3-.2.5-.3.9-.4 1.4-.2 1-.2 2 0 2.9.3 1.4 1 2.6 1.8 3.7.4.5.7.9 1.3 1.3.2.1 1.5.7 1.5.7l-1.1-1.5-.1-.1c-.2-.1-.3-.2-.4-.4l-.6-.9c-.1-.2-.1-.4-.1-.5.1-.4.7-.6 1-.3l.2.1s.4-.1.7-.2c.1 0 .1 0 .2-.1l.1-.1c.3-.3.4-.5.5-.9.1-.2.1-.4.2-.5.4-1.2 1.4-2.3 2.5-2.9.6-.3 1.2-.5 1.8-.7.6-.1 1.2-.1 1.8-.1h1.1c-.3-.7-.4-1.5-1-2.1z" fill="#8d5c2a"/><path d="M128.4 21.9s-.6-.9-.9-1.3c0 .2-.1.5-.1.8.3.2 1 .5 1 .5zm4.9-12.6c-.2-.1-.3-.1-.5-.2-2 2.3-3.8 5.3-4.9 9 .1 0 .1 0 .2-.1l.1-.1c.3-.3.4-.5.5-.9.1-.2.1-.4.2-.5.4-1.2 1.4-2.3 2.5-2.9.6-.3 1.2-.5 1.8-.7.6-.1 1.2-.1 1.8-.1h1.1c-.2-.8-.4-1.6-1-2.3-.5-.4-1.1-.9-1.8-1.2z" fill="#71461d"/><path d="M177.1 169l66.1-38.1-29.9-17.3h.4l29.9 17.3-66.1 38.1z" fill="#3e8885"/><path d="M177.1 167.7l-29.9-17.2 66.1-38.2 29.9 17.3z" fill="#0a3847"/><path d="M147.2 150.5v1.3l29.9 17.2v-1.3zm96-20.9v1.3L177.1 169v-1.3zm-26.6 7.7c-6.1-3.5-15.9-3.5-22 0-5.1 2.9-5.9 7.3-2.5 10.7l-1 .2s4.2 2 4.3 2.1c2.4 1.2 5.2 1.9 8.2 2.1l17.5-10.1c-.5-1.8-2-3.5-4.5-5z" fill="#0a3847"/><path d="M213.8 89.4c-.7-.4-1.5-.4-2.3-.4-3 .2-5.6.7-8.4 1.7-2.4.9-4.9 1.8-7.3 2.7-1.8.6-3.1 1.1-3.1 1.1 0 .1.7 7 .7 7 1.8-.3 3.9-.6 5.4-1.2 1.2-.5 2.4-.8 3.6-1.4.7-.3 1.5-.8 2.2-.9-.2.9-1.4 1.8-2.1 2.4-2.6 2.4-4.5 5.3-6.3 8.3-.3.4-.5.8-.8 1.2.1.8.6 1.7 1.9 2.4l1.1-1.1c.7-.6 1.4-1.2 1.9-1.7 3.4-3.4 6.9-6.7 10.4-10 1.7-1.6 3.2-2.8 4.1-5.1.6-1.6.9-4-1-5z" fill="#f36d00"/><path d="M215.1 90.8c-.2-.6-.6-1.1-1.3-1.5s-1.5-.4-2.3-.4c-3 .2-5.6.7-8.4 1.7-2.4.9-4.9 1.8-7.3 2.7-1.8.6-3.1 1.1-3.1 1.1s.1.6.3 1.4c.5-.4 1.1-.6 1.8-1 1.4-.7 2.6-.7 4.1-1.1 4-1.2 6.2-2.1 10.3-3.2 1.2-.3 4-.7 5.1-.2 0 .2.8.5.8.5z" fill="#db6610"/><path d="M195.2 109.9c-.1.1-.1.2-.2.3s-.1.2-.2.3-.3.1-.5.1h-2c-.6.3-.8 3.5-1 4.2-.2 1-.4 2-.6 2.9-.2 1.2-.3 3.1 0 4.3.7-.3 1.5-.7 1.9-1.3.2-.3.4-.5.6-.8 1-1.7 1.7-3.7 2.3-5.5.3-.7.8-1.4 1.4-2-1.1-.8-1.6-1.7-1.7-2.5z" fill="#f2c7ad"/><path d="M190.9 117.7c-.2 1.2-.3 3.1 0 4.3.7-.3 1.5-.7 1.9-1.3.2-.3.4-.5.6-.8 1-1.7 1.7-3.7 2.3-5.5.3-.7.8-1.4 1.4-2-.7-.4-1.1-.8-1.4-1.2l-2 .5h-1.8c-.3 1.1-.4 2.7-.5 3.1-.2 1-.4 2-.5 2.9z" fill="#dcb79e"/><path d="M193.9 98.9l-.6-.2-.7-3.3-6.2 1.3c-1.8 3.8-1.8 8.9-1.6 13.1.2 2.7.5 5 .9 7.6.1.8.4 2.1.4 2.9s-.4 1.5-.5 2.3c-.2 1.7-.3 3.6-.3 5.3.1 1.9.5 3.5.8 5.4.3 1.5.8 3 .9 4.6v.2c.5.3 1.7.8 3 .1v-.3c-.1-.8.1-1.4.2-2.2.6-3.5.3-7.1.5-10.6.1-1.6.2-3.1.3-4.7.2-2.8 1-5.5 1.6-8.2.7-2.7 1-5.5 1.3-8.4.2-2.4.4-3.5 0-4.9z" fill="#f36d00"/><path d="M188 96.4l-1.6.4c-1.8 3.8-1.8 8.9-1.6 13.1.2 2.7.5 5 .9 7.6.1.8.4 2.1.4 2.9s-.4 1.5-.5 2.3c-.2 1.7-.3 3.6-.3 5.3.1 1.9.5 3.5.8 5.4.3 1.5.8 3 .9 4.6v.2c.2.2.6.3 1.1.4-.5-3-1.3-6.1-1.6-9.1-.3-2.8.4-5.6.8-8.4.3-2.9-.1-5.7-.4-8.6-.3-3.1-.4-6.1-.3-9.2 0-2.6.8-4.7 1.4-6.9z" fill="#db6610"/><path d="M202.9 63.5c-1.1.3-2.3.2-3.1-.9-.3-.3-.4-.6-.4-1.1 0-.2.1-.7.1-.9.1-.3.4-.7.6-1 .3-.4.6-.8 1-1.2.6-.6 1.2-1 1.9-1.4 2.6-1.6 5.6-2.2 8.3-3.8.2-.1.3-.2.5-.3l2.7-1.2 5.8-2.4 4.9-1.8 2.7-.5c.4-.1 1.8-.7 2.2-.9l1.5-.6c.6-.2 2.6-.7 3.6-.2.3.2 1.2.6 1.2.7 0 1.1-1.3 1.3-2 1.7s-1.8.9-1.8 1 .7 0 .9 0c.3 0 .5-.1.9 0 .2.1.3.3.3.3-.1.3-1 .4-1.5.5s-1.1.1-1.7.2c-.8.2-1.6.1-2.5.1-1-.1-1.6.2-2.5.6-1.3.6-2.5 1.3-3.7 2-2.1 1.2-4.2 2.2-6.5 2.9-1.2.3-2.2 1.5-3.2 2.3-1.6 1.3-3.6 2-5.3 3.2-1.6 1.1-3.1 2.3-4.9 2.7z" fill="#e7bda4"/><path d="M212.9 57.7c1-.8 2-1.9 3.2-2.3 2.3-.7 4.4-1.7 6.5-2.9 1.2-.7 2.4-1.4 3.7-2 .9-.4 1.5-.7 2.5-.6.8.1 1.6.1 2.5-.1.5-.1 1.1-.1 1.7-.2s1.5-.2 1.5-.5c0-.1-.1-.3-.3-.3-.3-.1-.5-.1-.9 0-.3 0-.9.1-.9 0s1.1-.6 1.8-1c.6-.3 1.7-.6 1.9-1.3l-.5-.8-20.4 7.7-15.6 8.9v.1c0 .1.1.1.1.2.8 1.1 2 1.2 3.1.9 1.8-.4 3.3-1.6 4.8-2.6 1.8-1.2 3.8-1.9 5.3-3.2z" fill="#bd9c87"/><path d="M186.9 70.1c.9-.7 1.5-1.8 1.1-3.1-.1-.4-.3-.7-.6-1l-.8-.4c-.3-.2-.8 0-1.1 0-.5 0-1 0-1.5.1-.8.1-1.5.4-2.3.7-2.8 1.2-5.1 3.2-7.9 4.4-.2.1-.4.2-.6.2l-2.6 1.5-5.4 3.3-4.4 2.9-2 1.9c-.3.3-1.6 1-2 1.2-.5.3-.9.5-1.4.8s-2.1 1.7-2.3 2.8c-.1.4-.2 1.3-.1 1.4.7.8 1.7 0 2.5-.4.7-.3 1.9-1.2 1.9-1.1s-.4.5-.6.7c-.2.3-.3.4-.4.8-.1.2.1.4.1.4.3.1.9-.6 1.3-1L159 85c.6-.6 1.1-1.2 1.5-2 .5-.9 1.1-1.1 2-1.6 1.2-.7 2.5-1.2 3.8-1.8 2.2-1 4.2-2.1 6.1-3.6 1-.8 2.5-.9 3.7-1.2 2-.5 3.7-1.7 5.6-2.4 2-.6 3.8-1.1 5.2-2.3z" fill="#e7bda4"/><path d="M155.6 86.4c.7-.3 1.9-1.2 1.9-1.1.1.1-.4.5-.6.7-.2.3-.3.4-.4.8-.1.2.1.4.1.4.3.1.9-.6 1.3-1l1.2-1.2c.6-.6 1.1-1.2 1.5-2 .5-.9 1.1-1.1 2-1.6 1.2-.7 2.5-1.2 3.8-1.8 2.2-1 4.2-2.1 6.1-3.6 1-.8 2.5-.9 3.7-1.2 2-.5 3.7-1.7 5.6-2.4 1.7-.6 3.5-1.2 4.9-2.3.8-.7 1.4-1.6 1.2-2.8l-15.6 6.3-19.4 12.9v.3c1 .8 2 0 2.7-.4z" fill="#bd9c87"/><path d="M187.2 93.4c.1-2.1.4-3.8.9-5.8.3-1.2.6-2.4.9-3.5.5-2.1 1.3-4.3.7-6.4-.3-1.1-.9-2.1-1.2-3.3-.3-1.1-2.2-2.1-3-2.5l-.4-.2c0 .1 0 .1.1.2 0 .1.1.2.1.3.1.2.1.4.2.5.2.4.3.8.5 1.2s.3.8.5 1.2c.6 1.4 1.1 2.8 1.4 4.2.1.4.2.8.2 1.2.1.6.1 1.3.1 1.9 0 .7-.2 1.4-.4 2.1v.2c-.1.2-.1.3-.2.5l-.3.9c0 .1-.1.2-.1.3-.1.3-.2.6-.2.9-.4 1.9-.8 3.2-.9 5.1v.4c-.1.8-.2 2.5-.2 3.6v.5s.5.1 1.2.3c-.3.2 0-3.5.1-3.8zm18.4-35.3c-.2-.2-.3-.4-.5-.5l-.3-.3c-.1 0-.2-.1-.3-.1-.3-.1-.7-.3-1.1-.3h-.2c-.2 0-.6 0-.7.1l-1.6 1-1.7 1.1c-.2 0-.3 0-.5-.1-.2 0-.3 0-.5-.1h-4.7c-.3 0-.7.1-1 .1-.3.1-.7.2-1 .3h-.1c-.2.1-.4.2-.5.3l-.6.3c-.2.1-.5.3-.7.4-.3.2-.6.4-.8.6-.4.3-.8.7-1.2 1.1-.8.8-1.7 1.6-2.5 2.4l-.2.2-.1.1c-.2.2-.4.3-.5.5-.6.1-1.1.3-1.7.4-.3.1-.8.3-1.1.4-.1.1-1 .5-1.1.6 0 0-.1.1-.2.1.2 0 .6-.1.8-.1h.1c.8.4 1.3 1.3 1.6 2.1.1.4.1.9.1 1.3 0 .2-.2 1.8-.3 1.8.1 0 .4-1.8.4-2 .1-.5.1-.7-.1-1.2l1-.5 4.2-2.4 3.9-2.9 3-.4 3.6-1.3s.1-.1.4-.2l.2-.1c1.7-.7 6.6-2.8 6.7-2.7 0 .2-.1.1-.2 0z" fill="#eff3f5"/><path d="M206.2 60.6c0-.3 0-.6-.1-.9 0-.3-.1-.6-.2-.9v-.1c0-.1 0-.2-.1-.2 0-.1-5 2-6.7 2.7-.1 0-.2.1-.2.1l-.2.1h-.1l-3.6 1.3-3 .4-4 2.9-4.2 2.4-1 .5c.1.5.1.7.1 1.2 0 .2-.3 2-.4 2s1.5 0 2.7-.2c0-.1 0-.1-.1-.2 0 0 .1.1.4.2.8.4 2.8 1.4 3 2.5.3 1.1.9 2.1 1.2 3.3.6 2.1-.2 4.3-.7 6.4-.3 1.2-.6 2.4-.9 3.5-.5 2-.8 3.7-.9 5.8 0 .3-.4 3.9-.1 4-.7-.2-1.2-.3-1.2-.3s3.7 1 6.1.9c2.5-.1 4-.9 4-.9 1.2-.7 2.2-1 2.8-2.3l.9-1.9c.1-2.2 0-5.2-.3-8.4-.3-2.4.7-6.1 1-8.5.1-.9.8-2.5 1-4.1.4-2.6.2-5.3.3-5.4.1-.8.2-1 .2-1.2l.6-.6c.4-.3.9-.6 1.4-.8.1 0 .1-.1.2-.1.1-.1.2-.2.4-.3.2-.2.5-.4.7-.6s.5-.4.7-.6c.1-.3.2-.6.3-1v-.7z" fill="#d7dee6"/><path d="M194.5 145.6l-1.6-2.1-1.9-2.5c-.6-.8-.9-1.9-1-2.9-1.3.7-2.4.2-3-.1v.4c-.1 1.2-1 1.9-1.2 3.1-.2.9.3 1.9.9 2.6s1 1.3 1.5 2 1.2 1.4 2 1.8c.8.5 1.8.7 2.7.7.8 0 1.6-.2 2.2-.7.5-1-.2-1.6-.6-2.3z" fill="#f2c7ad"/><path d="M197.4 59.6l-6-1.6-1.6-.6v.5c1 1.1 3.6 3.6 7.6 3.8.2-.5.1-1.5 0-2.1z" fill="#bd9c87"/><path d="M197.4 48.3c0-.1 0-.1 0 0-1.2-1.5-2.7-3.1-4.6-3.5-1.7-.3-3.6-.1-5 .9-1.6 1-2.4 3.2-2.3 5.1.2 2 1.2 3.8 2.6 5.2s2.9 2.7 4.8 3.4c1.5.5 2.8 1 4.5.7 2.2-.5 2-3.4 1.9-5.1-.1-.9-.2-1.9-.3-2.8-.4-1.6-.7-2.8-1.6-3.9z" fill="#e7bda4"/><path d="M189.8 58v3.1c0 .1.4.7.5.8.3.3.5.4.8.6.5.4.9.6 1.5.9.9.6 2.3.6 3.2 0 .6-.3 1.1-.8 1.5-1.4.1-.1.1-.2.1-.3-3.9-.1-6.6-2.6-7.6-3.7z" fill="#e7bda4"/><path d="M188.6 53.6c-.2 0 0 0 0 0z" fill="#662622"/><path d="M196.4 46c-.5-.5-1.1-1-1.8-1.3-1.3-.6-2.8-1-4.3-.9-.3 0-.7.1-1.1.2 0-.4-.1-.8-.2-1-.1-.4-.3-.8-.7-1-.3-.1-.6-.2-.8-.2-.5 0-1-.1-1.4.1-1.2.6-1.8 1.8-1.7 3 .1.7.5 1 .6 1 .3.2.5.3.8.3-.2.3-.2.7-.3 1-.2.5-.3.9-.4 1.4-.2 1-.2 2 0 2.9.3 1.4 1 2.6 1.8 3.7.4.5.7.9 1.3 1.3.2.1 1.5.7 1.5.7l-1.1-1.5-.1-.1c-.2-.1-.3-.2-.4-.4l-.6-.9c-.1-.2-.1-.4-.1-.5.1-.4.7-.6 1-.3l.2.1c.2 0 .4-.1.7-.2.1 0 .1 0 .2-.1l.1-.1c.3-.3.4-.5.5-.9.1-.2.1-.4.2-.5.4-1.2 1.4-2.3 2.5-2.9.6-.3 1.2-.5 1.8-.7.6-.1 1.2-.1 1.8-.1h1.1c-.4-.7-.5-1.5-1.1-2.1zm-7.8 7.6c-.2 0 0 0 0 0z" fill="#f9d69c"/><path d="M189.6 57.3s-.6-.9-.9-1.3c0 .2-.1.5-.1.8.3.1 1 .4 1 .5zm5-12.6c-.2-.1-.3-.1-.5-.2-2 2.3-3.8 5.3-4.9 9 .1 0 .1 0 .2-.1l.1-.1c.3-.3.4-.5.5-.9.1-.2.1-.4.2-.5.4-1.2 1.4-2.3 2.5-2.9.6-.3 1.2-.5 1.8-.7.6-.1 1.2-.1 1.8-.1h1.1c-.2-.8-.4-1.6-1-2.3-.5-.5-1.2-.9-1.8-1.2z" fill="#ddbe8a"/><path d="M188.1 138.4c-.5-.1-.8-.3-1.1-.4v.4c-.1 1.2-1 1.9-1.2 3.1-.1.6.1 1.3.4 1.8.2-1.1.7-1.9.7-1.9z" fill="#f2c7ad"/><path d="M202.3 100.4c-2.6 2.4-4.5 5.3-6.3 8.3-.3.4-.5.8-.8 1.2.1.4.2.8.5 1.2.7-1.5 1.5-2.9 2.5-4.3 2.1-3.3 4.9-6.1 7.6-9.1.1-.1.2-.3.3-.4l-1.7.6c-.2 1.1-1.4 1.9-2.1 2.5z" fill="#db6610"/><path d="M194.5 145.6l-1.6-2.1-1.9-2.5c-.6-.8-.9-1.9-1-2.9-.7.4-1.4.4-1.9.3l-1.2 2.9s-.5.8-.7 1.9c.1.3.3.5.5.7l.1.1c.5.7 1 1.3 1.5 1.9.5.7 1.2 1.4 2 1.8.1 0 .2.1.2.1.7.4 1.7.5 2.4.5.8 0 1.6-.2 2.2-.7.5-.7-.2-1.3-.6-2z" fill="#dcb79e"/><path d="M191.6 229l66.1-38.2-29.9-17.2h.4l29.9 17.3L192 229z" fill="#3e8885"/><path d="M191.6 227.7l-29.9-17.3 66.1-38.1 29.9 17.2zm-29.9-17.3v1.3l29.9 17.3v-1.3zm96-20.9v1.3L191.6 229v-1.3z" fill="#0a3847"/><path d="M228.3 149.3c-.7-.4-1.5-.4-2.3-.4-3 .2-5.6.7-8.4 1.7-2.4.9-4.9 1.8-7.3 2.7-1.8.6-3.1 1.1-3.1 1.1 0 .1.7 7 .7 7 1.8-.3 3.9-.6 5.4-1.2 1.2-.5 2.4-.8 3.6-1.4.7-.3 1.5-.8 2.2-.9-.2.9-1.4 1.8-2.1 2.4-2.6 2.4-4.5 5.3-6.3 8.3-.3.4-.5.8-.8 1.2.1.8.6 1.7 1.9 2.4l1.1-1.1c.7-.6 1.4-1.2 1.9-1.7 3.4-3.4 6.9-6.7 10.4-10 1.7-1.6 3.2-2.8 4.1-5.1.6-1.5.9-3.9-1-5z" fill="#f36d00"/><path d="M229.6 150.8c-.2-.6-.6-1.1-1.3-1.5s-1.5-.4-2.3-.4c-3 .2-5.6.7-8.4 1.7-2.4.9-4.9 1.8-7.3 2.7-1.8.6-3.1 1.1-3.1 1.1s.1.6.3 1.4c.5-.4 1.1-.6 1.8-1 1.4-.7 2.6-.7 4.1-1.1 4-1.2 6.2-2.1 10.3-3.2 1.2-.3 4-.7 5.1-.2 0 .2.8.5.8.5z" fill="#db6610"/><path d="M209.7 169.9c-.1.1-.1.2-.2.3s-.1.2-.2.3-.3.1-.5.1h-2c-.6.3-.8 3.5-1 4.2-.2 1-.4 2-.6 2.9-.2 1.2-.3 3.1 0 4.3.7-.3 1.5-.7 1.9-1.3.2-.3.4-.5.6-.8 1-1.7 1.7-3.7 2.3-5.5.3-.7.8-1.4 1.4-2-1.1-.8-1.6-1.7-1.7-2.5z" fill="#f2c7ad"/><path d="M205.4 177.7c-.2 1.2-.3 3.1 0 4.3.7-.3 1.5-.7 1.9-1.3.2-.3.4-.5.6-.8 1-1.7 1.7-3.7 2.3-5.5.3-.7.8-1.4 1.4-2-.7-.4-1.1-.8-1.4-1.2l-2 .5h-1.8c-.3 1.1-.4 2.7-.5 3.1-.2 1-.3 1.9-.5 2.9z" fill="#dcb79e"/><path d="M208.4 158.9l-.6-.2-.7-3.3-6.2 1.3c-1.8 3.8-1.8 8.9-1.6 13.1.2 2.7.5 5 .9 7.6.1.8.4 2.1.4 2.9s-.4 1.5-.5 2.3c-.2 1.7-.3 3.6-.3 5.3.1 1.9.5 3.5.8 5.4.3 1.5.8 3 .9 4.6v.2c.5.3 1.7.8 3 .1v-.3c-.1-.8.1-1.4.2-2.2.6-3.5.3-7.1.5-10.6.1-1.6.2-3.1.3-4.7.2-2.8 1-5.5 1.6-8.2.7-2.7 1-5.5 1.3-8.4.3-2.4.4-3.5 0-4.9z" fill="#f36d00"/><path d="M202.6 156.4l-1.6.4c-1.8 3.8-1.8 8.9-1.6 13.1.2 2.7.5 5 .9 7.6.1.8.4 2.1.4 2.9s-.4 1.5-.5 2.3c-.2 1.7-.3 3.6-.3 5.3.1 1.9.5 3.5.8 5.4.3 1.5.8 3 .9 4.6v.2c.2.2.6.3 1.1.4-.5-3-1.3-6.1-1.6-9.1-.3-2.8.4-5.6.8-8.4.3-2.9-.1-5.7-.4-8.6-.3-3.1-.4-6.1-.3-9.2 0-2.6.7-4.7 1.4-6.9z" fill="#db6610"/><path d="M217.4 123.5c-1.1.3-2.3.2-3.1-.9-.3-.3-.4-.6-.4-1.1 0-.2.1-.7.1-.9.1-.3.4-.7.6-1 .3-.4.6-.8 1-1.2.6-.6 1.2-1 1.9-1.4 2.6-1.6 5.6-2.2 8.3-3.8.2-.1.3-.2.5-.3l2.7-1.2 5.8-2.4 4.9-1.8 2.7-.5c.4-.1 1.8-.7 2.2-.9l1.5-.6c.6-.2 2.6-.7 3.6-.2.3.2 1.2.6 1.2.7 0 1.1-1.3 1.3-2 1.7s-1.8.9-1.8 1 .7 0 .9 0c.3 0 .5-.1.9 0 .2.1.3.3.3.3-.1.3-1 .4-1.5.5s-1.1.1-1.7.2c-.8.2-1.6.1-2.5.1-1-.1-1.6.2-2.5.6-1.3.6-2.5 1.3-3.7 2-2.1 1.2-4.2 2.2-6.5 2.9-1.2.3-2.2 1.5-3.2 2.3-1.6 1.3-3.6 2-5.3 3.2-1.6 1.1-3.1 2.3-4.9 2.7z" fill="#e7bda4"/><path d="M227.5 117.7c1-.8 2-1.9 3.2-2.3 2.3-.7 4.4-1.7 6.5-2.9 1.2-.7 2.4-1.4 3.7-2 .9-.4 1.5-.7 2.5-.6.8.1 1.6.1 2.5-.1.5-.1 1.1-.1 1.7-.2s1.5-.2 1.5-.5c0-.1-.1-.3-.3-.3-.3-.1-.5-.1-.9 0-.3 0-.9.1-.9 0s1.1-.6 1.8-1c.6-.3 1.7-.6 1.9-1.3l-.5-.8-20.4 7.7-15.6 8.9v.1c0 .1.1.1.1.2.8 1.1 2 1.2 3.1.9 1.8-.4 3.3-1.6 4.8-2.6 1.7-1.2 3.7-1.9 5.3-3.2z" fill="#bd9c87"/><path d="M201.4 130.1c.9-.7 1.5-1.8 1.1-3.1-.1-.4-.3-.7-.6-1l-.8-.4c-.3-.2-.8 0-1.1 0-.5 0-1 0-1.5.1-.8.1-1.5.4-2.3.7-2.8 1.2-5.1 3.2-7.9 4.4-.2.1-.4.2-.6.2l-2.6 1.5-5.4 3.3-4.4 2.9-2 1.9c-.3.3-1.6 1-2 1.2-.5.3-.9.5-1.4.8s-2.1 1.7-2.3 2.8c-.1.4-.2 1.3-.1 1.4.7.8 1.7 0 2.5-.4.7-.3 1.9-1.2 1.9-1.1.1.1-.4.5-.6.7-.2.3-.3.4-.4.8-.1.2.1.4.1.4.3.1.9-.6 1.3-1l1.2-1.2c.6-.6 1.1-1.2 1.5-2 .5-.9 1.1-1.1 2-1.6 1.2-.7 2.5-1.2 3.8-1.8 2.2-1 4.2-2.1 6.1-3.6 1-.8 2.5-.9 3.7-1.2 2-.5 3.7-1.7 5.6-2.4 2-.6 3.8-1.2 5.2-2.3z" fill="#e7bda4"/><path d="M170.2 146.4c.7-.3 1.9-1.2 1.9-1.1.1.1-.4.5-.6.7-.2.3-.3.4-.4.8-.1.2.1.4.1.4.3.1.9-.6 1.3-1l1.2-1.2c.6-.6 1.1-1.2 1.5-2 .5-.9 1.1-1.1 2-1.6 1.2-.7 2.5-1.2 3.8-1.8 2.2-1 4.2-2.1 6.1-3.6 1-.8 2.5-.9 3.7-1.2 2-.5 3.7-1.7 5.6-2.4 1.7-.6 3.5-1.2 4.9-2.3.8-.7 1.4-1.6 1.2-2.8l-15.6 6.3-19.4 12.9v.3c.9.8 1.9-.1 2.7-.4z" fill="#bd9c87"/><path d="M209 205.6l-1.6-2.1-1.9-2.5c-.6-.8-.9-1.9-1-2.9-1.3.7-2.4.2-3-.1v.4c-.1 1.2-1 1.9-1.2 3.1-.2.9.3 1.9.9 2.6s1 1.3 1.5 2 1.2 1.4 2 1.8c.8.5 1.8.7 2.7.7.8 0 1.6-.2 2.2-.7.5-1-.2-1.6-.6-2.3z" fill="#f2c7ad"/><path d="M216.7 123.5c0 .2-.1.4-.1.7-.3 1.3-.2 1-.4 2.3 0 .1.1 2.8-.3 5.4-.2 1.6-.9 3.3-1 4.1-.3 2.4-1.3 6.1-1 8.5.4 3.1.4 6.2.3 8.4l-.9 1.9c-.6 1.2-1.6 1.6-2.8 2.3 0 0-1.5.8-4 .9s-6.1-.9-6.1-.9c-.1-1 .2-4.1.3-4.6.1-1.9.5-3.2.9-5.1.3-1.7 1.1-3.2 1.2-4.9.2-3.4-1.4-6.6-2.7-9.6-.6-1.5-1.1-3.5-2-4.9-.1-.2-.2-.4-.2-.6-.1-1.1 1.2-2.1 1.9-2.8.8-.8 1.7-1.6 2.5-2.5.7-.7 1.2-1.1 2.1-1.7.9-.5 1.9-1.3 2.9-1.4 2.9-.4 6-.2 8.8.4.2 0 .4.1.6.3.4.3.4 1.1.4 1.6-.2.8-.3 1.5-.4 2.2z" fill="#d7dee6"/><path d="M216.5 119.8c-.2-.2-.4-.2-.6-.3-2.8-.6-5.9-.8-8.8-.4-1 .2-2.1.9-2.9 1.4s-1.4 1-2.1 1.7c-.8.8-1.7 1.6-2.5 2.5-.7.7-2 1.6-1.9 2.8 0 .2.1.4.2.6.3.4.5.8.7 1.3l2.6-1.6 1.2-1.8 3.9-2.9 3-.4 3.7-1.3z" fill="#eff3f5"/><path d="M211.9 119.6l-6-1.6-1.6-.6v.5c1 1.1 3.6 3.6 7.6 3.8.2-.5.1-1.5 0-2.1z" fill="#bd9c87"/><path d="M211.9 108.2c-1.2-1.5-2.7-3.1-4.6-3.5-1.7-.3-3.6-.1-5 .9-1.6 1-2.4 3.2-2.3 5.1.2 2 1.2 3.8 2.6 5.2s2.9 2.7 4.8 3.4c1.5.5 2.8 1 4.5.7 2.2-.5 2-3.4 1.9-5.1-.1-.9-.2-1.9-.3-2.8-.3-1.5-.7-2.7-1.6-3.9z" fill="#e7bda4"/><path d="M195.6 127c.8.4 1.3 1.3 1.6 2.1.1.4.1.9.1 1.3 0 .2-.2 1.8-.3 1.8 0 0 1.7-.1 2.6-.3.9-.3 1.4-.5 1.5-.7.8-.7 1.3-1.1 1.8-2.1.2-.3.2-.8.2-1.1s0-.6-.1-.9c-.2-.4-.4-.9-.8-1.2-.7-.7-2.2-.6-3.4-.4-.7.1-1.2.3-1.8.4-.3.1-.8.3-1.1.4-.1.1-1 .5-1.1.6 0 0-.1.1-.2.1.4 0 .7-.1 1 0zm22.4-10.1c.4 0 .7.2 1.1.3.1 0 .2 0 .3.1l.3.3c.2.2.3.4.5.5.1.1.2.2.2.3.1.1.1.2.1.3.1.6.3 1.2.2 1.9 0 .6-.2 1.1-.4 1.6-.5.4-.9.8-1.4 1.2-.6.5-1.4.8-2 1.3-.5.3-.7.8-1.2 1.6l-1.6-3.9-1.1-2.6 2.4-1.6s1.6-.9 1.6-1c.2-.1.5-.1.7-.1.2-.2.3-.2.3-.2z" fill="#eff3f5"/><path d="M201.6 105.3l-.8-1.3c-.6-1-1.7-1.6-2.8-1.6-.9 0-1.7.4-2.2 1.1l-.5.7c-2.7 3.8-.8 13.7.4 17.6.3.8.8 1.7.8 2.6-.1-.3.1-1 .2-1.3.4-3 .2-11.2 0-14.2-.1-1 .3-2 1-2.8s1.8-1 2.8-.6l.4.1z" fill="#513b2b"/><path d="M204.3 118v3.1c0 .1.4.7.5.8.3.3.5.4.8.6.5.4.9.6 1.5.9.9.6 2.3.6 3.2 0 .6-.3 1.1-.8 1.5-1.4.1-.1.1-.2.1-.3-3.9-.1-6.6-2.6-7.6-3.7z" fill="#e7bda4"/><path d="M197.4 130.2c0 .2-.3 2-.4 2 0 0 2.3-.1 3.4-.3 1.2-.3 1.8-.6 2-.8 1.1-.8 1.2.6 2-.5.2-.3-.4-2.1-.4-2.5 0-.2-.9-2.1-1-2.4l-5.7 3.3c.1.5.1.7.1 1.2z" fill="#d7dee6"/><path d="M199.6 131.8c.1.4.3.7.4 1.1 1.3 3.1 2.9 6.2 2.7 9.6-.1 1.7-.9 3.2-1.2 4.9-.4 1.9-.8 3.2-.9 5.1 0 .5-.3 3.6-.3 4.6 0 0 .5.1 1.2.3-.3-.1.1-3.7.1-4 .1-2.1.4-3.8.9-5.8.3-1.2.6-2.4.9-3.5.5-2.1 1.3-4.3.7-6.4-.3-1.1-.9-2.1-1.2-3.3-.3-1.3-3.3-2.6-3.3-2.6z" fill="#eff3f5"/><path d="M220.4 118.4c-.1-.1-7.3 3-7.3 3l1.1.9 1.6 3.9c.5-.8.7-1.2 1.2-1.6.6-.5 1.4-.7 2-1.3.5-.4.9-.8 1.4-1.2.2-.5.4-1 .4-1.6s-.1-1.3-.2-1.9c-.1 0-.2-.1-.2-.2z" fill="#d7dee6"/><path d="M210.9 105.9c-.5-.5-1.1-1-1.8-1.3-1.3-.6-2.8-1-4.3-.9-.8.1-1.9.3-2.6.7-.5.3-.7.4-1.2.8l-.6.6c-.3.3-.4.9-.5 1.3-.2.5-.3.9-.4 1.4-.2 1-.2 2 0 2.9.3 1.4 1 2.6 1.8 3.7.4.5.7.9 1.3 1.3.2.1 1.5.7 1.5.7l-1.1-1.5-.1-.1c-.2-.1-.3-.2-.4-.4l-.6-.9c-.1-.2-.1-.4-.1-.5.1-.4.7-.6 1-.3l.2.1s.4-.1.7-.2c.1 0 .1 0 .2-.1l.1-.1c.3-.3.4-.5.5-.9.1-.2.1-.4.2-.5.4-1.2 1.4-2.3 2.5-2.9.6-.3 1.2-.5 1.8-.7.6-.1 1.2-.1 1.8-.1h1.1c-.2-.6-.4-1.4-1-2.1z" fill="#513b2b"/><path d="M203.1 113.6c-.2 0 0 0 0 0z" fill="#662622"/><path d="M204.1 117.3s-.6-.9-.9-1.3c0 .2-.1.5-.1.8.4.1 1 .4 1 .5zm5-12.6c-.2-.1-.3-.1-.5-.2-2 2.3-3.8 5.3-4.9 9 .1 0 .1 0 .2-.1l.1-.1c.3-.3.4-.5.5-.9.1-.2.1-.4.2-.5.4-1.2 1.4-2.3 2.5-2.9.6-.3 1.2-.5 1.8-.7.6-.1 1.2-.1 1.8-.1h1.1c-.2-.8-.4-1.6-1-2.3-.5-.5-1.2-.9-1.8-1.2z" fill="#483527"/><path d="M202.6 198.4c-.5-.1-.8-.3-1.1-.4v.4c-.1 1.2-1 1.9-1.2 3.1-.1.6.1 1.3.4 1.8.2-1.1.7-1.9.7-1.9z" fill="#f2c7ad"/><path d="M216.8 160.4c-2.6 2.4-4.5 5.3-6.3 8.3-.3.4-.5.8-.8 1.2.1.4.2.8.5 1.2.7-1.5 1.5-2.9 2.5-4.3 2.1-3.3 4.9-6.1 7.6-9.1.1-.1.2-.3.3-.4l-1.7.6c-.2 1.1-1.4 1.9-2.1 2.5z" fill="#db6610"/><path d="M209 205.6l-1.6-2.1-1.9-2.5c-.6-.8-.9-1.9-1-2.9-.7.4-1.4.4-1.9.3l-1.2 2.9s-.5.8-.7 1.9c.1.3.3.5.5.7l.1.1c.5.7 1 1.3 1.5 1.9.5.7 1.2 1.4 2 1.8.1 0 .2.1.2.1.7.4 1.7.5 2.4.5.8 0 1.6-.2 2.2-.7.5-.7-.2-1.3-.6-2z" fill="#dcb79e"/><path d="M93.9 216.9l66.1-38.2-29.9-17.2h.4l29.9 17.3-66.1 38.1z" fill="#3e8885"/><path d="M93.9 215.6L64 198.3l66.1-38.1 29.9 17.2zM64 198.3v1.3l29.9 17.3v-1.3zm96-20.9v1.3l-66.1 38.2v-1.3z" fill="#0a3847"/><path d="M133.4 185.2c-6.1-3.5-15.9-3.5-22 0-5.1 2.9-5.9 7.3-2.5 10.7l-1 .2s4.2 2 4.3 2.1c2.4 1.2 5.2 1.9 8.2 2.1l17.5-10.1c-.5-1.8-2-3.6-4.5-5z" fill="#0a3847"/><path d="M130.6 137.2c-.7-.4-1.5-.4-2.3-.4-3 .2-5.6.7-8.4 1.7-2.4.9-4.9 1.8-7.3 2.7-1.8.6-3.1 1.1-3.1 1.1 0 .1.7 7 .7 7 1.8-.3 3.9-.6 5.4-1.2 1.2-.5 2.4-.8 3.6-1.4.7-.3 1.5-.8 2.2-.9-.2.9-1.4 1.8-2.1 2.4-2.6 2.4-4.5 5.3-6.3 8.3-.3.4-.5.8-.8 1.2.1.8.6 1.7 1.9 2.4l1.1-1.1c.7-.6 1.4-1.2 1.9-1.7 3.4-3.4 6.9-6.7 10.4-10 1.7-1.6 3.2-2.8 4.1-5.1.6-1.5.9-3.9-1-5z" fill="#f36d00"/><path d="M131.8 138.7c-.2-.6-.6-1.1-1.3-1.5s-1.5-.4-2.3-.4c-3 .2-5.6.7-8.4 1.7-2.4.9-4.9 1.8-7.3 2.7-1.8.6-3.1 1.1-3.1 1.1s.1.6.3 1.4c.5-.4 1.1-.6 1.8-1 1.4-.7 2.6-.7 4.1-1.1 4-1.2 6.2-2.1 10.3-3.2 1.2-.3 4-.7 5.1-.2.1.2.8.5.8.5z" fill="#db6610"/><path d="M112 157.8c-.1.1-.1.2-.2.3s-.1.2-.2.3-.3.1-.5.1h-2c-.6.3-.8 3.5-1 4.2-.2 1-.4 2-.6 2.9-.2 1.2-.3 3.1 0 4.3.7-.3 1.5-.7 1.9-1.3.2-.3.4-.5.6-.8 1-1.7 1.7-3.7 2.3-5.5.3-.7.8-1.4 1.4-2-1.1-.8-1.6-1.7-1.7-2.5z" fill="#f2c7ad"/><path d="M107.6 165.6c-.2 1.2-.3 3.1 0 4.3.7-.3 1.5-.7 1.9-1.3.2-.3.4-.5.6-.8 1-1.7 1.7-3.7 2.3-5.5.3-.7.8-1.4 1.4-2-.7-.4-1.1-.8-1.4-1.2l-2 .5h-1.8c-.3 1.1-.4 2.7-.5 3.1-.1 1-.3 1.9-.5 2.9z" fill="#dcb79e"/><path d="M110.6 146.8l-.6-.2-.7-3.3-6.2 1.3c-1.8 3.8-1.8 8.9-1.6 13.1.2 2.7.5 5 .9 7.6.1.8.4 2.1.4 2.9s-.4 1.5-.5 2.3c-.2 1.7-.3 3.6-.3 5.3.1 1.9.5 3.5.8 5.4.3 1.5.8 3 .9 4.6v.2c.5.3 1.7.8 3 .1v-.3c-.1-.8.1-1.4.2-2.2.6-3.5.3-7.1.5-10.6.1-1.6.2-3.1.3-4.7.2-2.8 1-5.5 1.6-8.2.7-2.7 1-5.5 1.3-8.4.3-2.4.5-3.5 0-4.9z" fill="#f36d00"/><path d="M104.8 144.3l-1.6.4c-1.8 3.8-1.8 8.9-1.6 13.1.2 2.7.5 5 .9 7.6.1.8.4 2.1.4 2.9s-.4 1.5-.5 2.3c-.2 1.7-.3 3.6-.3 5.3.1 1.9.5 3.5.8 5.4.3 1.5.8 3 .9 4.6v.2c.2.2.6.3 1.1.4-.5-3-1.3-6.1-1.6-9.1-.3-2.8.4-5.6.8-8.4.3-2.9-.1-5.7-.4-8.6-.3-3.1-.4-6.1-.3-9.2 0-2.6.8-4.7 1.4-6.9z" fill="#db6610"/><path d="M119.7 111.4c-1.1.3-2.3.2-3.1-.9-.3-.3-.4-.6-.4-1.1 0-.2.1-.7.1-.9.1-.3.4-.7.6-1 .3-.4.6-.8 1-1.2.6-.6 1.2-1 1.9-1.4 2.6-1.6 5.6-2.2 8.3-3.8.2-.1.3-.2.5-.3l2.7-1.2 5.8-2.4 4.9-1.8 2.7-.5c.4-.1 1.8-.7 2.2-.9l1.5-.6c.6-.2 2.6-.7 3.6-.2.3.2 1.2.6 1.2.7 0 1.1-1.3 1.3-2 1.7s-1.8.9-1.8 1 .7 0 .9 0c.3 0 .5-.1.9 0 .2.1.3.3.3.3-.1.3-1 .4-1.5.5s-1.1.1-1.7.2c-.8.2-1.6.1-2.5.1-1-.1-1.6.2-2.5.6-1.3.6-2.5 1.3-3.7 2-2.1 1.2-4.2 2.2-6.5 2.9-1.2.3-2.2 1.5-3.2 2.3-1.6 1.3-3.6 2-5.3 3.2-1.6 1.1-3.2 2.3-4.9 2.7z" fill="#e7bda4"/><path d="M129.7 105.6c1-.8 2-1.9 3.2-2.3 2.3-.7 4.4-1.7 6.5-2.9 1.2-.7 2.4-1.4 3.7-2 .9-.4 1.5-.7 2.5-.6.8.1 1.6.1 2.5-.1.5-.1 1.1-.1 1.7-.2s1.5-.2 1.5-.5c0-.1-.1-.3-.3-.3-.3-.1-.5-.1-.9 0-.3 0-.9.1-.9 0s1.1-.6 1.8-1c.6-.3 1.7-.6 1.9-1.3l-.5-.8-20.4 7.7-15.6 8.9v.1c0 .1.1.1.1.2.8 1.1 2 1.2 3.1.9 1.8-.4 3.3-1.6 4.8-2.6 1.7-1.2 3.7-1.9 5.3-3.2z" fill="#bd9c87"/><path d="M103.7 118c.9-.7 1.5-1.8 1.1-3.1-.1-.4-.3-.7-.6-1l-.8-.4c-.3-.2-.8 0-1.1 0-.5 0-1 0-1.5.1-.8.1-1.5.4-2.3.7-2.8 1.2-5.1 3.2-7.9 4.4-.2.1-.4.2-.6.2l-2.6 1.5-5.4 3.3-4.4 2.9-2 1.9c-.3.3-1.6 1-2 1.2-.5.3-.9.5-1.4.8s-2.1 1.7-2.3 2.8c-.1.4-.2 1.3-.1 1.4.7.8 1.7 0 2.5-.4.7-.3 1.9-1.2 1.9-1.1.1.1-.4.5-.6.7-.2.3-.3.4-.4.8-.1.2.1.4.1.4.3.1.9-.6 1.3-1l1.2-1.2c.6-.6 1.1-1.2 1.5-2 .5-.9 1.1-1.1 2-1.6 1.2-.7 2.5-1.2 3.8-1.8 2.2-1 4.2-2.1 6.1-3.6 1-.8 2.5-.9 3.7-1.2 2-.5 3.7-1.7 5.6-2.4 1.9-.6 3.8-1.2 5.2-2.3z" fill="#e7bda4"/><path d="M72.4 134.3c.7-.3 1.9-1.2 1.9-1.1.1.1-.4.5-.6.7-.2.3-.3.4-.4.8-.1.2.1.4.1.4.3.1.9-.6 1.3-1l1.2-1.2c.6-.6 1.1-1.2 1.5-2 .5-.9 1.1-1.1 2-1.6 1.2-.7 2.5-1.2 3.8-1.8 2.2-1 4.2-2.1 6.1-3.6 1-.8 2.5-.9 3.7-1.2 2-.5 3.7-1.7 5.6-2.4 1.7-.6 3.5-1.2 4.9-2.3.8-.7 1.4-1.6 1.2-2.8l-15.6 6.3-19.4 12.9v.3c.9.8 2-.1 2.7-.4z" fill="#bd9c87"/><path d="M111.3 193.5l-1.6-2.1-1.9-2.5c-.6-.8-.9-1.9-1-2.9-1.3.7-2.4.2-3-.1v.4c-.1 1.2-1 1.9-1.2 3.1-.2.9.3 1.9.9 2.6s1 1.3 1.5 2 1.2 1.4 2 1.8c.8.5 1.8.7 2.7.7.8 0 1.6-.2 2.2-.7.5-1-.2-1.6-.6-2.3z" fill="#f2c7ad"/><path d="M103.9 141.3c.1-2.1.4-3.8.9-5.8.3-1.2.6-2.4.9-3.5.5-2.1 1.3-4.3.7-6.4-.3-1.1-.9-2.1-1.2-3.3-.3-1.1-2.2-2.1-3-2.5l-.4-.2c0 .1 0 .1.1.2 0 .1.1.2.1.3.1.2.1.4.2.5.2.4.3.8.5 1.2s.3.8.5 1.2c.6 1.4 1.1 2.8 1.4 4.2.1.4.2.8.2 1.2.1.6.1 1.3.1 1.9 0 .7-.2 1.4-.4 2.1v.2c-.1.2-.1.3-.2.5l-.3.9c0 .1-.1.2-.1.3-.1.3-.2.6-.2.9-.4 1.9-.8 3.2-.9 5.1v.4c-.1.8-.2 2.5-.2 3.6v.5s.5.1 1.2.3c-.3.1.1-3.5.1-3.8zm18.5-35.3c-.2-.2-.3-.4-.5-.5l-.3-.3c-.1 0-.2-.1-.3-.1-.3-.1-.7-.3-1.1-.3h-.2c-.2 0-.6 0-.7.1l-1.6 1-1.7 1.1c-.2 0-.3 0-.5-.1-.2 0-.3 0-.5-.1h-4.7c-.3 0-.7.1-1 .1-.3.1-.7.2-1 .3h-.1c-.2.1-.4.2-.5.3l-.6.3c-.2.1-.5.3-.7.4-.3.2-.6.4-.8.6-.4.3-.8.7-1.2 1.1-.8.8-1.7 1.6-2.5 2.4l-.2.2-.1.1c-.2.2-.4.3-.5.5-.6.1-1.1.3-1.7.4-.3.1-.8.3-1.1.4-.1.1-1 .5-1.1.6 0 0-.1.1-.2.1.2 0 .6-.1.8-.1h.1c.8.4 1.3 1.3 1.6 2.1.1.4.1.9.1 1.3 0 .2-.2 1.8-.3 1.8.1 0 .4-1.8.4-2 .1-.5.1-.7-.1-1.2l1-.5 4.2-2.4 3.9-2.9 3-.4 3.6-1.3s.1-.1.4-.2l.2-.1c1.7-.7 6.6-2.8 6.7-2.7 0 .2-.1.1-.2 0z" fill="#eff3f5"/><path d="M123 108.5c0-.3 0-.6-.1-.9 0-.3-.1-.6-.2-.9v-.1c0-.1 0-.2-.1-.2 0-.1-5 2-6.7 2.7-.1 0-.2.1-.2.1l-.2.1h-.1l-3.6 1.3-3 .4-3.9 2.9-4.2 2.4-1 .5c.1.5.1.7.1 1.2 0 .2-.3 2-.4 2s1.5 0 2.7-.2c0-.1 0-.1-.1-.2 0 0 .1.1.4.2.8.4 2.8 1.4 3 2.5.3 1.1.9 2.1 1.2 3.3.6 2.1-.2 4.3-.7 6.4-.3 1.2-.6 2.4-.9 3.5-.5 2-.8 3.7-.9 5.8 0 .3-.4 3.9-.1 4-.7-.2-1.2-.3-1.2-.3s3.7 1 6.1.9c2.5-.1 4-.9 4-.9 1.2-.7 2.2-1 2.8-2.3l.9-1.9c.1-2.2 0-5.2-.3-8.4-.3-2.4.7-6.1 1-8.5.1-.9.8-2.5 1-4.1.4-2.6.2-5.3.3-5.4.1-.8.2-1 .2-1.2l.6-.6c.4-.3.9-.6 1.4-.8.1 0 .1-.1.2-.1.1-.1.2-.2.4-.3.2-.2.5-.4.7-.6s.5-.4.7-.6c.1-.3.2-.6.3-1-.2-.3-.1-.5-.1-.7z" fill="#d7dee6"/><path d="M111.3 92.5c0-.4-.1-.9-.2-1.3-.1-.8-.6-1.3-1.3-1.6s-1.5-.3-2.2.1c-.4.2-.8.6-1 1-.3.6-.5 1.3-.4 1.9s.3 1.2.7 1.7c.2.3.6.4 1 .6.5.2 1.1 0 1.4-.1.9-.1.6.1 1.5.1h.1v-.1c.1-.6.3-1.2.4-1.8v-.5z" fill="#513b2b"/><path d="M114.2 107.5l-6-1.6-1.6-.6v.5c1 1.1 3.6 3.6 7.6 3.8.1-.5 0-1.5 0-2.1z" fill="#bd9c87"/><path d="M114.2 96.1c-1.2-1.5-2.7-3.1-4.6-3.5-1.7-.3-3.6-.1-5 .9-1.6 1-2.4 3.2-2.3 5.1.2 2 1.2 3.8 2.6 5.2s2.9 2.7 4.8 3.4c1.5.5 2.8 1 4.5.7 2.2-.5 2-3.4 1.9-5.1-.1-.9-.2-1.9-.3-2.8-.4-1.5-.7-2.7-1.6-3.9zm-7.6 9.8v3.1c0 .1.4.7.5.8.3.3.5.4.8.6.5.4.9.6 1.5.9.9.6 2.3.6 3.2 0 .6-.3 1.1-.8 1.5-1.4.1-.1.1-.2.1-.3-4-.1-6.6-2.6-7.6-3.7z" fill="#e7bda4"/><path d="M113.1 93.8c-.5-.5-1.1-1-1.8-1.3-1.3-.6-2.8-1-4.3-.9-.8.1-1.9.3-2.6.7-.5.3-.7.4-1.2.8l-.6.6c-.3.3-.4.9-.5 1.3-.2.5-.3.9-.4 1.4-.2 1-.2 2 0 2.9.3 1.4 1 2.6 1.8 3.7.4.5.7.9 1.3 1.3.2.1 1.5.7 1.5.7l-1.1-1.5-.1-.1c-.2-.1-.3-.2-.4-.4l-.6-.9c-.1-.2-.1-.4-.1-.5.1-.4.7-.6 1-.3l.2.1s.4-.1.7-.2c.1 0 .1 0 .2-.1l.1-.1c.3-.3.4-.5.5-.9.1-.2.1-.4.2-.5.4-1.2 1.4-2.3 2.5-2.9.6-.3 1.2-.5 1.8-.7.6-.1 1.2-.1 1.8-.1h1.1c-.2-.6-.4-1.4-1-2.1z" fill="#513b2b"/><path d="M105.3 101.5c-.1 0 0 0 0 0z" fill="#662622"/><path d="M106.3 105.2s-.6-.9-.9-1.3c0 .2-.1.5-.1.8.4.1 1 .4 1 .5zm5-12.6c-.2-.1-.3-.1-.5-.2-2 2.3-3.8 5.3-4.9 9 .1 0 .1 0 .2-.1l.1-.1c.3-.3.4-.5.5-.9.1-.2.1-.4.2-.5.4-1.2 1.4-2.3 2.5-2.9.6-.3 1.2-.5 1.8-.7.6-.1 1.2-.1 1.8-.1h1.1c-.2-.8-.4-1.6-1-2.3-.5-.5-1.1-.9-1.8-1.2z" fill="#483527"/><path d="M104.9 186.3c-.5-.1-.8-.3-1.1-.4v.4c-.1 1.2-1 1.9-1.2 3.1-.1.6.1 1.3.4 1.8.2-1.1.7-1.9.7-1.9z" fill="#f2c7ad"/><path d="M119.1 148.3c-2.6 2.4-4.5 5.3-6.3 8.3-.3.4-.5.8-.8 1.2.1.4.2.8.5 1.2.7-1.5 1.5-2.9 2.5-4.3 2.1-3.3 4.9-6.1 7.6-9.1.1-.1.2-.3.3-.4l-1.7.6c-.2 1.1-1.4 1.9-2.1 2.5z" fill="#db6610"/><path d="M111.3 193.5l-1.6-2.1-1.9-2.5c-.6-.8-.9-1.9-1-2.9-.7.4-1.4.4-1.9.3l-1.2 2.9s-.5.8-.7 1.9c.1.3.3.5.5.7l.1.1c.5.7 1 1.3 1.5 1.9.5.7 1.2 1.4 2 1.8.1 0 .2.1.2.1.7.4 1.7.5 2.4.5.8 0 1.6-.2 2.2-.7.5-.7-.2-1.3-.6-2z" fill="#dcb79e"/><path d="M103.4 95.8l-.6-1.2c-.4-.7-1-1.1-1.8-1.1-.7 0-1.5.3-2 .8-.3.4-.5.8-.6 1.3-.1.7 0 1.4.3 2 .3.5.7 1 1.2 1.4.3.2.8.2 1.1.2.5 0 1-.4 1.3-.5.8-.4.7-.1 1.5-.4h.1v-.1c-.1-.6-.1-1.2-.3-1.9 0-.2-.1-.4-.2-.5z" fill="#513b2b"/></svg>