<svg xmlns="http://www.w3.org/2000/svg" width="317.751" height="107.176"><path data-name="Path 7260" d="M84.222 33.018c0-.821 1.435-.914 1.435 0a.719.719 0 11-1.435 0zm63.609 12.478c0-2.71-4.2-2.82-4.2 0s4.2 2.716 4.2 0zm158.695 20.652c0 .968 1.324 1.1 1.324 0a.662.662 0 10-1.324 0zm-47.6-22.75a.72.72 0 100 1.436c.822 0 .915-1.437.002-1.437zm13.031 52.457c0-2.459-1.934-.319-.883.994.554.439.885-.001.885-.995zm25.411-43.592a.99.99 0 00-.134-.751c-.156-.313.186-.622.433-.19.536.94.158 1.117.222 1.423a3.771 3.771 0 001.373.376c-1.383-2.288-.843-2.2-.114-2.3a1.065 1.065 0 01.776-.052c.917-.022 1.345-.455 1.718 2.188.64-.124 2.064.617 2.541-.9.056-.176 1.171-.878 1.385-.592s-.392.626-.624.909c-.644.782-1.244 1.445-2.51 1.184a.365.365 0 00-.5.283 1.991 1.991 0 01.516 1.492c.129.15.225.354.069.477a1.7 1.7 0 00.092.314c.256.208.8.524.842.566a1.7 1.7 0 00.636-.155c1.077-.6.368.292-.855 1.208-.061.948 1.192.595 1.221 1.179s-1 .657-1.555-.013c-.22-.266-1.492.817-1.7.68-.137-.088-.085-.354-.01-.645a3.746 3.746 0 01-1.118.29.545.545 0 01-1-.235c-.3-.164-.5-.209-.547-.1a1.772 1.772 0 00.321.873c1.115-.366 1.872.677.913 1.654.137.285.257.561.354.822.119-.1.429.27.654.686-.008-.476.524-.958.7-1.4.123-.305.381.15.481.605a.959.959 0 01.277-.465 1.9 1.9 0 01.617-.229.7.7 0 01.253-.05.607.607 0 01.5.235 2.878 2.878 0 01.332 2.508 8.573 8.573 0 00-.414 2.9c.339-.045.357.178.368.484.593.194 1.135-.984 1.422-1.5.189-.344.535-.109.415.16-.4.9.19.875.791.917.817.057 1.135.255-.038.577a2.8 2.8 0 01-.581.056c.14 1.213-1.052 1.422-.637.021-1.148.071.041 1.72.873 2.2a3.665 3.665 0 01.591-.182c-.009-.181-.1-.4-.116-.574-.1-.988.6-.124.937.573a.669.669 0 01.481.719c-.014 1.442-3.871 2.076-3.787 1.208a1.211 1.211 0 01.27-.592c-.626.189-1.212.4-1.413.069-.387-.636 1.783-1.063 1.835-1.5.049-.419-.977-.667-1.4-.593a3.609 3.609 0 01-2.084-.162c-.116.384-.445-.124-.383-.343a.977.977 0 01.145-1.111 9.04 9.04 0 00.376-.618c.181-.595.357-1.192.54-1.787a.291.291 0 01.132-.191c.093-.216.275-.366.719-.339.308.018.35-1.308.043-1.823a.623.623 0 01-.383-.165c-.151.1-.266.365-.41.5-.293.265-.411.154-.425-.093-.234.27-.631.5-.856.387.125.356.156.569-.521.958-.186 1.01-.884.9-1.8.6a1.619 1.619 0 00.685.553c.67.326 1.842 1.162 1.539 1.945a.438.438 0 01-.132.167.5.5 0 01-.015.328c-.721 1.827.459 1.731 1.664 1.762 1.636.04 2.29.406-.025 1.156a7.51 7.51 0 01-1.5.187c.4.581-.939 1.417-1.416 1.934a8.3 8.3 0 001.187 1.5c.107-.391.508-.039.614.551.657.521 1.29.8 1.639.5.424-.353-.05-1.105-.132-1.65-.407-2.689 2.544 1.421 2.3 2.246-.348 1.192-2.76 1.9-3.218 1.572-1.655-1.193-5.1 1.678-5.923.445-.668-.994 1.979-1.868 3.073-2.629a2.334 2.334 0 00-.411-.052 5 5 0 01-1.187.032c-.48-.1-.321-.328-.006-.433.641-.212 1.219-.428.778-1.043a3.633 3.633 0 00-1.787-.057c.229.88.433 1.835-.03 2.014-.415.162-.912-1.351-1.4-1.1-.9.454.358 1.413.146 1.835-.021.041-1.745.131-2.4.168-.266.1-.535.18-.8.268a.425.425 0 00-.186.314c0 .306.745.274.712.578a.854.854 0 01-1.055.531c-.464-.2-.41-.681-.314-1.16-.039.01-.076.026-.115.036-.708.187-.619-1.52-.246-1.01a2.243 2.243 0 00.452.481c.089-.592.06-2.329-.627-2.438-.15.07-.283.149-.42.228a.2.2 0 01-.164.089 3.787 3.787 0 00-1.453 1.557c.895-.517 1.484-.762 1.166.451.547.23.588.86.365 1.478.109.014.224.025.341.036.814.08 1.126.286-.056.575a1.256 1.256 0 01-.168.026 1.671 1.671 0 01-.3 1.614s-.013 0 .657.557a3.243 3.243 0 00-.1-.671c-.091-1.166.87.264 1.046.943a1.375 1.375 0 001.069-.71.411.411 0 11.626.507c-.612.606-.534 1 .273 1.286.33.118.3.578-.182.437-1.449-.431-.579-1.021-1.752-.966 1.729 1.488 1.387 1.514-1.04 1.514a6.111 6.111 0 01-2.025-.2c1.514 1.52.99.743-.257 2.158.895.756 1.948.892 1.8 1.533-.116.5-1.089.273-1.946.153-.052.411-.309 1.211-.591 1.164-.347-.059-.171-.665-.178-1.036a1.251 1.251 0 01-.755-.091c-2.316.372-2.566-.3-1.892-.677a.3.3 0 01-.083-.053c-.283.151-.278-.154-.247-.463-.25-1.086.835-.573.587.4 1.44-.549 2.706-1.107.874-2.732-.268-.238-.318-.449-.25-.588-.167.028-.257.009-.3-.034-.074.284-.421.627-.553.584-.332-.109.019-1.113.442-.9a.219.219 0 01.112.133c.19-.35 1.347-.578 1.646-.57a.271.271 0 01-.012-.153 3.187 3.187 0 00-.974-.609c-.172.2-.352.4-.565.612a.562.562 0 01-.542.016.584.584 0 00-.772-.163c-.159.79-1.029 1.2-1.121.437a2.663 2.663 0 01-.375.431 2.726 2.726 0 011.054.478c.061.244-.628.78-.837.976-.1.1-.962-.478-1.385-.992a1.866 1.866 0 01-.511-.08 3.867 3.867 0 00-.524.606c-.95 1.43-2.387-.375-1.929-.9.167-.191.507.071.76.067a.729.729 0 00.7-.354 3.114 3.114 0 01-.591-.729c-.26-.034-.776.109-.937.066-.081.362-.207.733-.326 1.105a2.467 2.467 0 01-.27 1.074 2.349 2.349 0 00.127 1.286c.233.552.839 1.511.305 1.823a.645.645 0 01-.668-.062c-.052.19-.952.427-1.138.487a2.652 2.652 0 011.277.778c.487.464.4.979.1 1.105-1.655.687-3.307 1.387-5 1.955-.119.456-.48.473-.557.215-1.358.314-1.328-2.994-.544-2.021 2.481 3.078 2.623-.65 3.835-1.762-.308.092-.614.187-.927.261-.712.167-.575-1.537-.216-1.016 1.323 1.911 1.377-.987 2.366-.851-.35-.574-.275-.869-.6-1.462-.86.681-1.181.4-1.168-.133-2.634 2.189-3.283.173-1.336-2.639-.356-.194-.361-.59.557-.737a8.4 8.4 0 01.29-.332c-.39-.3-.572-.482-.977-.74-.29 1-.428 2.057-1.369 2.471a.957.957 0 01-1.23-.265c-.172.427-.275.653-.3.7.15.136.119.336-.25.561-.053.11-.107.2-.16.3.3-.04.321.725.208 1.011.5 1.787-1.254 2.049-.935.059-.9.977-1.66.6-1.97-.255-.132.047-.264.075-.425.119.252.182.485.577.363.747-.255.354-1-.357-.771-.736a.613.613 0 01-.362-.107c-.678-.763-2.67.265-2.939-.427s1.939-.738 2.066-1.161c.167-.557-1.1-.8-1.681-.849.136.264-.039.634-.681 1.064.062.416-.224.357-.635.368-.849.431-1.619.9-1.464.018-.169 0-.339-.005-.508-.01-.64.992-1.417.372-.9-.46-.006-.505.243-1.064.5-.388-.2-.33-.124-.718.528-.86.167-.278.33-.389.419-.049a1.718 1.718 0 01.9.143 1.02 1.02 0 01.41-.213.958.958 0 01-.578-.74c-.506.04-.6-.375-.433-.742a2.473 2.473 0 01-1.078-.155c-.061.983-1.007.745-.421-.159q-1.854-.093-3.416-.132a3.761 3.761 0 00.964.935c.689.271.847 2.731.132 3.2-.065.041-.125.091-.189.136 1.318-.464 1.93.332.719 1.307a.39.39 0 01.129.124 5.5 5.5 0 01.4.906c.288.8 1.12.981.941 1.352-.146.305-.887-.172-1.332-.247a5.046 5.046 0 01-1.175-.175c-.455-.185-.26-.38.069-.428.768-.112 1.458-.242.737-1.24-.026-.038-.02-.06-.034-.092a4.232 4.232 0 01-.442.26c.056.622-.848.861-.672.283-1.037.3-1.146-.357-.608-1.118a.835.835 0 01-.584-.061 1.192 1.192 0 01-1.727.571.967.967 0 000 .173c.054.295.246.83-.049.923-.363.116-.663-.581-.683-.891-.036-.608-.129-1.021-.769-.6-1.027.674-1.254-.143-.936-.672a4.66 4.66 0 011.685-1.524 1.638 1.638 0 011.855-.731c.127-.362.953-.389 1.341-.645.794-.522.424-1.072.147-.963-.856.334-.738-.295-.844-.769a43.072 43.072 0 00-3.775.012c-.114.768.727 1.111 1.058 1.117.309.006.776-.274.93 0 .2.35-.372.937-.637.988-1.082.206-.945 1.661-1.846 1.839-.8.159-.891-1.036-.078-1.745.653-.569.257-1.489-.769-2.093-4.907.518-.663 2.868-6.5-.257-1.149.628-3.267.622-.745-.379-2.219-1-4.252-1.064-4.9.075-1.726 2.588 3.337-1.917 1.656.883-1.435 2.21-4.307 1.988-6.405-.551a4.747 4.747 0 00-4.307-1.548c-1.436.332-2.872.111-3.314-.662a1.477 1.477 0 00-1.877-.552 5.721 5.721 0 01-2.517.2c-.038.652-.939.524-.943-.067-4.228-.362-4.231-.9-9.288-1.112-1.911 1.727-1.51.807-1.813-.049-.693-.009-1.4-.01-2.124 0a8.371 8.371 0 01-.235 2.657c-.03.133-.34.339-.45.3-.87-.294-.83 1.008-1.4.895s-.4-1.133.388-1.506c.312-.149-.432-1.646-.248-1.817.281-.262 1.257.718 1.554.409.281-.291-.057-.641-.4-.927-.747.016-1.5.043-2.255.078-.305.266-.824.409-.754.039a81.744 81.744 0 00-3.412.26.69.69 0 01.045.675c-.11.349 1.721.8 2 .328.133-.226-.246-.464-.37-.7-.486-.91 1.213-.05 1.317.33.5 1.8-1.246 1.813-2.8 1.056-.816-.4-2.8-1.641-3.288-.848-.317.517.7 1.328 1.131 1.731.181.168.115.328-.01.388.6 1.014-.547.394-.861-.269-.252.062-.348.427-.465.791-.254.778-.521 1.04-.551-.176-.01-.42.375-1.5.222-1.658-.436-.459-2.8.634-2.542 1.244.11.253.538.134.811.172 1.346.187-1.045 1.016-1.406.784a1.623 1.623 0 01-.295-1.766.665.665 0 00.094-.121c-.524-.218-1.213-.636-1.521-.4-.286.224.057 1.016.075 1.447.035.809-.4.877-.5-.618-.169-2.609-1.537.769-1.19-1.174a.974.974 0 01.1-.243c-1.315.109-2.585.208-3.826.3.071.182.266.337.632.468.328.116.3.578-.181.437-1-.3-.9-.67-1.124-.853-3.34.253-3.42.257-4.983.381.178.528-.82.345-1.334.52-.926.313-.7-.19-.354-.381-1.024.087-2.008.176-2.935.27a2.638 2.638 0 011.016.463c.061.246-.627.782-.834.979-.12.115-1.351-.736-1.58-1.288a30.257 30.257 0 00-6.648 1.32c.4.653-.843 1.179-.939.423-2.1 1.133-.156 1.487-10.686 3.711-.137.55-1.1.859-1.421.31-.355.08-.707.162-1.05.246a.4.4 0 01-.118.639c-.721.468-.725.866.006 1.314.3.182.173.627-.266.39-1.645-.882.229-1.289-2.74-1.392a6.978 6.978 0 00-1.872 1.036c.484.777.941.877-.109 1.367.159.292-.292.367-.635.328a1.218 1.218 0 00-.561 1.493c.047.178-.526 1.367-.858 1.236s0-.738.047-1.1a2.83 2.83 0 01.747-1.9c-1.236.869-.482-.48-1.378-1.211-.038.632-.564.321-.564-.344a5.532 5.532 0 00-1.424-.371c.336.4.747.579.61.849-.153.3-.883-.19-1.327-.275a5 5 0 01-1.17-.2c-.451-.194-.251-.385.078-.427l.184-.025a4.244 4.244 0 00-2.524.73c1.336.158.946 1.373-.593.807a4.642 4.642 0 01-1.253.306 2.15 2.15 0 01-.109 1.25 1.625 1.625 0 01-1.786-.136c-.333-.756-1.829-.667-2.416-1-.847-.04-1.427-.093-2.38-.167-.533.65-1.3.593-.924-.072-.84-.062-1.6-.112-2.305-.158a6.558 6.558 0 01.079.78c.026.75.6 1.171.539 1.465a.108.108 0 01.08.069c.534 1.306-.173 1.6-.637 1.191-.3-.262-.013-.842.269-1.116-.274-.1-.662-.52-.962-.676a5.056 5.056 0 01-1.065-.525c-.375-.315-.129-.442.2-.387.733.123 1.393.2 1.113-.825-1.2-.075-2.217-.131-3.107-.184.022.736-.337 1.025-.679-.041-.376-.025-.724-.05-1.056-.078.023.063.049.115.071.191.093.323-.074.525-.237.5-2.445-.337-3.541-.193-3.113-1.227-.83-.242-1.341-.516-1.85-.64a.458.458 0 01-.849-.3 1.763 1.763 0 01-.209-.12 1.67 1.67 0 00-.2.778c-.1.812-.316 1.12-.574-.07a11.543 11.543 0 01-.012-1.3 9.397 9.397 0 00-.743-.315c-.793.313-1.876 1.243-1.6 1.65.154.229.552.03.828.015 1.358-.068-.834 1.2-1.232 1.034a1.62 1.62 0 01-.622-1.678 1.641 1.641 0 00.092-1.429 4.6 4.6 0 01-3.108-1.392c-.234.343-.4.358-.345-.262-.746-.564-1.159-.844-1.267-.791.293.124.271.246.087.345.175.012.272.265.29.56a.43.43 0 01.036.144c.261.093.37.526.4.763.4.8.425 1.04-.01.732-.177.914-1.126.715-.864-.608a.329.329 0 01-.133-.246 6.152 6.152 0 00-.8-.639.255.255 0 01-.052.294c-.252.226-.754-.5-1.136-.737-.162-.1-.341-.18-.52-.27-.182.507-1.81.3-1.161-.274a7.341 7.341 0 00-5.276 2.4 10.74 10.74 0 01-7.178 2.208c-2.429-.111-4.417.331-4.417.994 0 .773-.663.993-1.325.552a1.181 1.181 0 00-1.767.662c-.331.994-6.515 1.546-16.675 1.546-3.394.039-6.352.131-8.789.269a.978.978 0 01-1.44 1.208c-.136.216.039.546.2.891.338.746.315 1.12-.526.24-.29-.3-.728-1.359-.95-1.376-.631-.045-1.648 2.356-1.042 2.631.251.114.487-.262.715-.419 1.122-.767-.088 1.456-.512 1.526-.613.1-1.456-.83-1.407-1.108.177-1-1.863-1.93-1.487-2.57s1.782 1.064 2.19.9c.393-.155.124-1.175-.141-1.511-1.89.207-2.93.508-2.93.865 0 .566-.534.595-1.3.182-.543.438-1.411.052-2-.334-.49.441-.689.08-.425-.313a4.569 4.569 0 01-.621-.612c-.3.137-.422-.485-.522-.8a12.535 12.535 0 00-1.031-.339c.027.352-.123.839-.418.654a6.99 6.99 0 01-.361 1.355.618.618 0 01.372-.124.669.669 0 110 1.324.612.612 0 01-.631-.577 1.83 1.83 0 01-.63.857c-1.155.458-3.2-1.01-3.218-1.574a2.209 2.209 0 00-.923-1.527c-.264.653-1.537-.037-.815-.609-.2-.133-.4-.264-.6-.392a5.139 5.139 0 01-1 .336c-.886.2-3.214.459-3.1 1.383.074.6 1.37.606 1.963.65.391.03.321.442.027.445-.982.006-.717.537-.507 1.1.287.767.239 1.138-.541.2-.27-.322-.637-1.4-.859-1.435-.626-.088-1.8 2.241-1.214 2.556.244.131.5-.23.741-.37 1.171-.692-.184 1.445-.61 1.488-.619.061-1.4-.926-1.332-1.2.244-.99-1.73-2.049-1.312-2.663s1.707 1.179 2.127 1.045c.4-.129.2-1.165-.041-1.518-.9-1.317-1.183-3.045.507-2.782a7.9 7.9 0 00.936.1.419.419 0 01-.23-.39c.07-.434 1.073.013 1.018.341a.593.593 0 00.212.006c.552-.041 1.129-.548 1.469.336.065.169.522.061.955-.159-.569-.41-1.184-.98-.751-1.532-.632-.3-1.272-.61-1.912-.94.509.458 1.165.441 1.113.8-.023.159-.23.188-.485.184a1.278 1.278 0 01.282.155c.434.321-.627.73-.764.065a.22.22 0 01.092-.238 3.435 3.435 0 00-1.177.141c-.774 1.819-2.385-.058-1.8-1.43-.255-.075-.4-.185-.216-.494a.868.868 0 01-.862.065c-.07 1.4-.659 1.884-.946 1.758.085.182.124.357-.012.453-.312.22-.809-.354-.919-.644-.125-.325-.249-.577-.423-.628a3.347 3.347 0 01-.453.242c-.67.763-1.076.568-1.148.023a6.371 6.371 0 00-.931-.252 3.258 3.258 0 01.084 1.369c.159-.085.324.141.2.411a5.443 5.443 0 01-.522.839c-.5.69-.174 1.479-.582 1.542-.334.053-.361-.827-.551-1.237a5.064 5.064 0 01-.522-1.068c-.1-.478.167-.428.392-.185.528.569 1.027 1.065 1.44-.1.018-.05.044-.061.066-.093a.439.439 0 01-.137.118c-.616.285-1.151-1.394-1.74-2.076-.27-.313-.593-.587-.9-.891-.371.3-.636 0-.419-.477-.734-.957-.659-1.577.692-.786.242-.255.265-.482-.258-.7-.941-.385-.725-.893-.273-1.078-.856-.392-.019-1.092.531-.694a2.15 2.15 0 00.356.213.721.721 0 01-.079-.05c-.586-.573.349-1.323 1.4-1.054a.982.982 0 00.318.03c-.4-.316-.755-.618-1.085-.912a1.642 1.642 0 01-1.161-.967c-.619.389-.083 1.965-.609 1.981-.88.025-1.694-2.017-.154-2.741a1.222 1.222 0 00.242-.16c-.222-.407-.25-.732-.061-.957a2.394 2.394 0 00-.411.092c.48.623.147 1.281-.9.321-.4.146-.727.234-.778.062-.058-.2.332-.206.513-.324-.282-.294-.04-.371.367-.356.4-.335.9-.374 2.038-.521a1.271 1.271 0 01.339-.338 9.539 9.539 0 00-.575-.3 11.178 11.178 0 01-2.345 1.072c-.256.278-.574.528-.741.438a2.259 2.259 0 00-.747.989c.284.012.725.279.7.539-.043.409-.685.122-.875-.2a1.683 1.683 0 01-.5.621 2.657 2.657 0 01.666.891 8.154 8.154 0 01.076 2.513c0 .286-.387.156-.361-.049.078-.608-1.5-1.824-1.669-3.628-.039-.409.2-.441.531-.286a2.8 2.8 0 01.45-1.651c-.449-.171-.941-.68-.534-.851a6.082 6.082 0 01-.99-1.37c-1.089-.6-.7-2.122 2.729-2.3a5.878 5.878 0 01.812-.948.092.092 0 010-.065c-.928.4-1.782.715-2.534.036-.8.216-2.1-3.314-.019-1.5a2.173 2.173 0 01.163-.167c-1.087-.513-1.312-1.393.212-1.563-.372-.278-.38-.909-.041-.983.579-.128.852.579.68.934.556-.038 1.072-.189 1.3-.207a35.194 35.194 0 01-.085-1.4c-.786.754-1.426.431-1.827-.353l-.344-.085c-.326 1.572-3.109 1.539-1.84-.508-.129-.04-.261-.071-.389-.115-.692-.239.335-1.607.361-.975a1.625 1.625 0 00.2.834c.668-.949 1.361-1.189 1.606-.34-.017-.339-.014-.264-.044-.685-.478.508-1.448-.319-1.492-.882-.388 0-.237-.005-.42-.088-.129.23-.38.252-.383-.352a1.654 1.654 0 01-.184-.471c-.2-.115-.52-.021-.857.061-.8.193-1.158.1-.138-.561a5.625 5.625 0 01.936-.367 1.374 1.374 0 01.318-.905 3.735 3.735 0 00-.754-.617c.2 1.138-1.468.376-.7-.34-.3-.1-.557-.116-.666.038-.159.226.168.528.278.78.546 1.245-1.413-.356-1.4-.785.013-.622 1.086-1.277 1.35-1.178a.774.774 0 00.331.037 1.2 1.2 0 01.251-.056c.842-.256 1.767-1.36 2.22-.967a.277.277 0 01.1.21.686.686 0 01.209.039c.084-1.052.588-1.392 1.037-1.38-.094-.531.4-1.125.547-.52.688.2.341 1.161 1.017 1.294-.229-.41.044-1.293.444-1.3.454-.005.6.679.406 1.125.156-.058.193-.128.646.084.151-.624.315-1.224.508-1.774-.115-.2-.213-.429-.318-.619-.972-1.765-1.884.94-2.4.507a.919.919 0 01-.219-.857c-.506.305-1.028.6-1.541.9.8 1.778-.221 2.309-.977.489-.238-.052-.321-.438-.151-.637-.021-.431.213-.724.557-.561a9.077 9.077 0 00.68-1.42c-.014-.1 0-.176.088-.212.18-.436.38-.9.613-1.389-.109-.447.1-.613.257-.535a.591.591 0 01.158-.244c1.279-2.269 3.33-4.208 3.093-.932 2 1.275 1.985-.774 2.435-2.219-4.481.68-2.339-1.18.436-.861a1.056 1.056 0 011.133-.274 11.858 11.858 0 011.2-3.428c-.225-.15-.061-.193.169-.283.155-.229.221-.295.466-.178a6.78 6.78 0 01.886-.282c.283-.063.728.714.269.988a.745.745 0 01-.3.074c.908 1.071 1.116.968-.128 2.419.913-.168.694.334.089 1.037a11.342 11.342 0 001.227.256c.286-.18.294-.07.328.034.508.032.719-.071.533-.321-.35-.349-.243-.9.111-1.484-.291-.715-.578-1.431-.8-2.167-.212-.7 1.5-.672 1-.281-1.258.993-.269 1.24.445 1.623a5.962 5.962 0 012.657-1.667c.124-.646.353-1.37.507-1.987.069-.274.388-.043.393.114.012.368-.222 1.02-.233 1.482a1.437 1.437 0 011.24.173 1.293 1.293 0 00-.065-.538l-.063.079c-.008.166-.071.26-.219.176-.418.217-.468-.389-.427-.856-.085-.194-.128-.4.081-.477l.023-.1c-1.014-1.281-1.219-.591-2.255-.275.336.044.594.163.582.356-.044.756-2.347 1.1-2.036.069.087-.288.617-.433 1.113-.441-.1-.124-.013-.427.263-.869.8-1.253 1.942-.822 3.247-.047-.057-.763.773-.359.539.327l.243.153a2.32 2.32 0 01-.243-.971c-2.095.23-1.382.215.071-1.147.178-.864.657-1.524 1.535-1.1.915-.419 1.275-.292.812.631a12.69 12.69 0 011.191 1.444 1.518 1.518 0 012.323.716c.106.3.547.836.9.712.584-.336-.539-2.458-.076-2.547.225-.044.153.463.308.612.482.459.547.815.579 1.7a1.89 1.89 0 01.464-.028c-1.051-.824-.026-.733 1.386-.848-3.219-1.779-1.377-2.4.685-.661.031-.014.053-.035.085-.047-.068-.348.387-.432 1.015-.4a1.823 1.823 0 01-.326-.466c-1.013.527-1-.86-.706-1.963-.2.211-2.013.588-2.188.116-.153-.412 1.871-1.527 2.056-1.429.2.107.172.825.172 1.169 1.012-3.447 3.594-3.075 2.427-.228a3.789 3.789 0 01.2.644 3.733 3.733 0 011.7.709c-.252-.808 1.248-2.125 1.555-.853a3.608 3.608 0 01.773.277c.324-.968 2.566.884 1.522 1.094.606.781-.025 1.349-1.959 1.076a.75.75 0 01-.008.129c.743 1.1.44 1.4.1 1.969.054.018.112.03.165.052a9.249 9.249 0 001.175-.784c-.839-1.562-.264-1.206.7-.518.114-.081.234-.168.337-.238.209-1.167 1.517-1.992 1.1-.569 1.133-.187-.963 1.183-.131 2.047 1.444-3.073 2.192-1.51 1.583.381.06 0 .128 0 .184.009.241-.172.454-.31.451.076.039.009.069.021.1.031-.036-.562.358-.866.516-.358.2-.331.394-.656.57-.966.279-.49.769.128.7.432a9.319 9.319 0 01-.794 1.673c.052.088.1.178.15.27a4.955 4.955 0 01.562-.64c-.189-.241-.057-.42.224-.175.326-.184.56-.039.715.293.59.181.868.659 1.873 1.873 0 0 .428.043.446.05q.79.093 1.505.2a4.2 4.2 0 01-.158-1.284c.009-.856 1.268.146 1.61-.084.641-.432-1.274-.959-1.479-1.9-.03-.137.26-.264.578-.4-.542.057-.526-.628-.477-1.179-3.306-.353-2.419-1.6.143-.94a13.2 13.2 0 01.679-2.264c-.1-.062-.19-.128-.278-.2-.376-.295-.217-2.535.94-1.469.482.443.727 1.029 1.2 1.479a3.414 3.414 0 01.3.322 2.043 2.043 0 01.736-1.939c1.712-1.713 3.107.071 2.444 1.509.144.442-.027.82-.562.71-.68.559-1.826.811-2.4.137 0 .124-.1.189-.269.2 1.052.125 1.332 2.144-.044 1.131a9.49 9.49 0 01-.743 1.109c.887-.07 2.953-.7 3.166.008.128.427-1.42.8-1.21 1.308a.629.629 0 00.181.261c1.528-1.111 1.977-.4 2.4.666.1-.644 1.219-.159.951.975a1.23 1.23 0 01.575.392 3.958 3.958 0 011.311.456.412.412 0 01.7-.433 1.777 1.777 0 00.345.321.857.857 0 01-.016-.484 1.665 1.665 0 01-.08-.167c-.2-.57 2.523-1.4 2.455-2.245-.04-.489-.49-.716-1.1-.826.273.4-.675.145-.967-.1-1.1-.022-2.361.114-3.09.009-2.223-.319-2.873-1.729.047-1.973.1-.008.2 0 .3-.007-.1-.848 1.478-.834.7-.018a11.119 11.119 0 012.233.2c.3-.546.7-1.122 1-1.628.145-.242.383.072.343.224-.112.416-.666 1.107-.7 1.562q.524.136 1.054.327c.944-.132 1.177.177.787.31.079.035.155.054.235.092.851.4 6.307-2.423 7.019-.805a.457.457 0 01-.074.414c1.91.336.039 2.2-.506.551-.321.273-.7.555-1.012.839.643.349 1.285.7 1.923 1.052 1.568-.97 1.266-.861 1.788 4.325a.532.532 0 01.164.892c.191.506.588 1.092 1.091 1.069.612-.028.482-1.515 1.092-1.477s1.13.811 1.206 1.5c.446.049.793.163.835.441.068.44-1.515.6-1.378 1.13a.639.639 0 00.12.247c.249.048.508.089.778.123.337-.089.672-.222.865-.138-.027-.785.233-1.55.61-1.28a3.4 3.4 0 011.341 1.523 21.152 21.152 0 002.285-.2 3.048 3.048 0 00-1.449-3.731.831.831 0 01.1-1.54c-.354-.239-.053-1.422.125-1.4s.366 1.084.14 1.372a.95.95 0 01.591.269c1.263 1.168 2.038.979 2.543-.659.207-.668 1.13-.644.89.324-.65 2.617-1.722 1.557-1.793 2.952.124.03.124.058.16.115.368-.489.826-.992 1.187-1.442.176-.22.37.125.308.269-.2.478-1.107 1.268-.9 1.7.128.268.709.213 1.151.224.477-.747 1-.759.463.063a.789.789 0 01.265.119c.579-.751-.247-1.435 1.13-1.679-.5-1.956 1.937-1.157 2.414.889a4.008 4.008 0 011.263 1.934c.237.875.312 1.473 1.032 1.9.179-.022.389 0 .344.171a12.821 12.821 0 003.509.625c.291-.137.666-.268.67.054 1.3.1 2.938.174 4.989.251.38-.334.42-.213.378.014 2.149.076 4.749.149 7.886.231.5-.685.847-.555.785.021 22.134.573 27.641 2.542 59.151 3.464.455-1.169 1.043-1.579.636.019 4.393.124 9.153.217 14.3.27a.072.072 0 01.083 0q3.892.039 8.1.045c-.207-.136-.334-.31-.244-.52.29-.68 1.774-.065 1.733.512.429 0 .874-.022 1.315-.038-.6-.312-.295-1.2-.4-1.771-.083-.45.846.2 1.012.65a1.126 1.126 0 01-.412 1.114c10.49-.416 24.007-4.2 36.34-6.127.33-1.532 2.926-2.282 2.863-.415a80.735 80.735 0 016.836-.634c-.4-.7-.308-1.418 1.063-1.678 1.288-.243 2.52.063 3.81-.167 2.371-.421 2.31.388 1.261 1.349a6.911 6.911 0 001.455-.392 1.266 1.266 0 01.407-.371c.006-.041.038-.081.016-.124-.441-.663.221-.884 1.325-.442a4.073 4.073 0 00.556.178c.291-.332.612-.2.694.1 2.417-.085 1.337-4.855 4.382-2.043 1.436 1.325 1.436 1.877-.441 2.539-.509.215-.89.383-1.152.517.265.158.3.1.235.521a4.009 4.009 0 001.709-.047l.021-.088c-.425-.1-.469-.429.181-.8.278-1.05.485-.771.972-.412a5.581 5.581 0 012-.231l.066-.054c-.867-.332-.1-1.924 1.488-1.224.485-.31.866-.394 1.063-.2.357-.177.67-.25.847-.061.2.213-.251.727-.471 1.159.335.376.774.2 1.224-.01.169-.2.345-.366.467-.14.489-.026.843.313.843.956 0 .7.5 1.038 1.254.987.048-.06.049-.146.334-.056 1.068-.212 1.408-.577 2.515-.043a3.509 3.509 0 01.711-.217 1.388 1.388 0 00-1.1-.807.412.412 0 11.238-.771c.578.25.908.193 1.032-.189a3.161 3.161 0 00-3.924-1.961.823.823 0 11-.275-1.586c.838-.053 1.356-.246 1.576-.6a5.705 5.705 0 01-.008-1.067 4.182 4.182 0 00-.287-.628c-.248-.447.039-.91.419-.8.045-.509.477-.455.44.393a4.181 4.181 0 01.6 1.346c.3-.142.653-.437.914-.553.74-.334.963.047-.389.692a3.766 3.766 0 00-.475.268 3.99 3.99 0 01-.1.721c.362.216.895.322.089.513.612 1.166 4.572 2.886 5.315 4.02 1.753-.734 4.826.438 4.038 1.912.212.151.427.309.637.456.281-.181.53-.751.765-1.018.535-.608.9-.353-.07.791a3.449 3.449 0 00-.332.458 3.022 3.022 0 00.415.207c4.23-.343 1.661 1.959 2.691 3.573zm-42.231 30.541a2.011 2.011 0 01.348 1.09c1.045.126 1.232-1.131-.345-1.091zm1.892.076c.6.079.72-.756.043-.908-.769-.173-.647.829-.041.908zM31.923 85.188a1.662 1.662 0 01.343-.2l-.154-.088a1.271 1.271 0 01-.189.288zm-2.794-2.089q-.464-.3-.909-.6c.169.709-.4.838-.717 1.237.231.145.478.385.716.538.387-.324.793-.459 1.133-.2a.2.2 0 00-.08-.133c-.549-.367-.395-.605-.143-.843zm-1.912 1.319a2.775 2.775 0 01-.341 1.138c.48.097.81-.494.341-1.139zm-8.148-25.291a.7.7 0 01.374.446c.418-.647-.1-1.625-.621-2.2a6.151 6.151 0 01.246 1.753zm1.621-7.061a1.684 1.684 0 01-.543.791c1.566.212 1.807-.44.7-.921-.064.058.051-.027-.157.129zm47.608-8.092c.335.052.646.1.925.127a.343.343 0 01.062-.11.611.611 0 01.019-.407c-.396-.004-.817.04-1.006.39zm196.686 36.983a1.49 1.49 0 01-.155-.45l-.456-.032c.05.362.257.584.611.482zm22.869-33.451a5.53 5.53 0 00-1.12 1.03.61.61 0 01.032.062c.355.007.703-.285 1.088-1.092zm-261.625.83a.733.733 0 00-.346-.066l-.264.184a.828.828 0 00-.047.078 1.608 1.608 0 00.3.323.6.6 0 00.358-.519zM280.97 80.41c.065-.018.147-.023.206-.047a.35.35 0 010-.091c-.079-.01-.155-.017-.234-.025a.856.856 0 01.028.163zM78.82 44.339c-.087.345-.345.587-.618.238a2.11 2.11 0 01-.429.522c1.276.259 1.46-.356 1.047-.76zm-2.541-1.445c-.369.216-.6.049-.471 1.766a5.811 5.811 0 001.323.306c-.048-.323.344-.8.711-1.1-.023-.066-.04-.127-.06-.193a14.59 14.59 0 01-1.192-.693 2.27 2.27 0 01-.311-.087zm-6.9-1.294a7.835 7.835 0 00-.591.824c.952-.177.672-.436.588-.825zm1.665 2.115a1.935 1.935 0 00-.679-.116 3.376 3.376 0 01.627.191.583.583 0 00.05-.076zM19.168 61.728a4.409 4.409 0 011.04-.216c.012-.142.022-.283.036-.425a1.233 1.233 0 01-.306-.332 5.668 5.668 0 00-.719.513 4.552 4.552 0 00-.054.459zm274.651 12.344a1.084 1.084 0 00.029.155 1.749 1.749 0 01.119-.146zm3.159-3.412c.286-.2.209-.649-.239-.754a6.385 6.385 0 01-.041.539.988.988 0 00.279.215zm-11.387-24.107a1.622 1.622 0 00-.027-.7c-.106.135-.157.279.027.7zm-185.508.142s-.142.181-.246.318a3.023 3.023 0 00.556-.328 2.058 2.058 0 01-.31.011zm-1.456-.081c.348.728.644.628 1.015.045a3.358 3.358 0 00-1.015-.045zm-14.83-7.681c-.592.732.145 1.947 1.786 1-.597-.329-1.192-.664-1.785-1zm-4.236 3.119c.656.805 2.039 1.147 2.272 2.171.05.221-.365.44-.25.636.725 1.244 4.421-.04 3.347-1.186-.531-.569.124-2.75-1.937-1.575-.142.08-.481-.173-.853-.5-.6 1.585-2.616.926-1.956-1.381a.728.728 0 01-.025-.124c-.692-.336-1.094-.231-1.228.107 1.148-.52 1.623.462.119 1.02a3.537 3.537 0 00.512.832zm-4.973.531c0 .2-.762.353-1.244.052a2.226 2.226 0 01-.087.579 6 6 0 001.868 1.192 1.489 1.489 0 00-.536-1.823zm-6.736-.778a3.155 3.155 0 01.537-1.052c-.18-.151-.429-.469-.615-.662-1.117-1.162-1.437-.332-.908.512.273.435.923.691.987 1.202zm-.074.41a2.233 2.233 0 01.053-.314c-.141.196-.209.13-.052.313zm-1.46 1.434l.879.146a3.3 3.3 0 01.112-.833c.23-.848-1.514-.462-1.092.182a.627.627 0 01.103.504zm-5.088-1.493a6.512 6.512 0 01.035.843c.062.01.138.017.206.026.427-.195.11-.564-.239-.87zm-12.282-3.91c.409.071.936.112.709.459 1.876.46 1.193.225-.131-.787-.169.331-1.019-.256-1.676-1.046-.048.058-.1.114-.145.167a5.345 5.345 0 011.246 1.206zm-8.383 1.594l.7.706c.046-.458-.29-.626-.698-.707zM21.019 51.082l-.062.229a10.7 10.7 0 011.687 1.043l.076-.175a1.838 1.838 0 01-.1-1.232c-.54-.176-.218-.657.806-.56.076-.208.149-.4.219-.6-.504.339-2.11 1.541-2.624 1.294zm-.315 6.763a.878.878 0 00-.241 1.409c.073-.48.151-.953.242-1.409zm-5.492 1.515c.1.515 1.276.247 1.789.016a6.139 6.139 0 01-.187-1.175.828.828 0 01-.4-.221c-.39.499-1.258 1.085-1.201 1.38zm2.555 3.978c-.07-.895-.281-2.585-1.1-2.21.687.727.749 1.328.472 1.682a1.643 1.643 0 01.629.528zm2.3 1.312c0-.252.013-.507.018-.762a1.1 1.1 0 00-.252.456c-.369 1.524-1 .577-.683-.268.14-.372.2-.662.027-.8-.063.166-.216.3-.548.387-.354.089.22 1.886.769 1.875.338 0 .31-.95.671-.887zm.19 3.8a4.656 4.656 0 01-.122.118c.017 0 .132-.021.132-.021 0-.029-.005-.059-.008-.094zM18.8 76.058a1.419 1.419 0 00.238-.676 1.363 1.363 0 01-.506-.375 2.142 2.142 0 01.054.892.977.977 0 01.212.162zm7.253 6.137c.211-.194.535 0 .6.393.786.19.612-.12 1.24-.308-.145-.1-.282-.2-.423-.292-.193.34-.971.209-1.158.023a1.055 1.055 0 00-.4-.243.894.894 0 00.143.43zm-1.5 2.15a.907.907 0 00.758-.075c-.242.043-.503.052-.759.078zm5.853.921c-.321-.283-.512-.667-.365-.9.107-.172.645-.017.918-.106-.013-.014-.026-.034-.04-.052q-.493-.295-.971-.592c-.176.544-.61 2.746-.227 3.393a11.165 11.165 0 01.684-1.74zm3.568.875a6.06 6.06 0 01-.037.33.367.367 0 00.036-.327zm10.024 4.034c.3-.316.506-.441.653-.455a10.422 10.422 0 00-1.261-.189 2.736 2.736 0 01-1.213.533c.043.656.224 1.148.6 1.23.544.118.847-.719 1.221-1.119zm12.152.812l-.4.034a1 1 0 00.575.259 2.955 2.955 0 01-.17-.292zm58.123-6.257a5.18 5.18 0 00-.63-.1c.185.345.371.472.635.101zm6.395 2.921a1.424 1.424 0 01-.189-.464c-.149-.03-.3-.06-.441-.093.148.511.371.625.635.558zm.606-.328l-.233-.036a.553.553 0 01-.026.2c.091-.049.176-.104.264-.164zm16.031.847c-.216.02-.455.032-.694.045.253.421.573.473.699-.045zm10.987-.958c-.08.1-.462.512-.653.7a1.379 1.379 0 01.207 0c.402-.189.642-.259.452-.7zm4.462-2.141c-.313.084-.608.175-.9.264a1.358 1.358 0 00.905-.264zm40.387-6.969a3.241 3.241 0 00.061-.858c-.511.047-1.009.089-1.51.134.482.21.984.48 1.455.724zm2.164-1.063c-.375.038-.746.072-1.117.109.248 1.193.774.818 1.123-.109zm39.212 2.692c1.435 1.325 1.545 1.1.772-.773-1.002-3.27-3.068-1.817-.766.773zm26.412 3.718c-.155-.061-.321-.093-.469-.15a.615.615 0 01-.036.314.6.6 0 00.511-.163zm5.427.212a1.9 1.9 0 01.683-.076c.028-.6-.049-1.342.363-.794a2.913 2.913 0 00.123-.412c-.028-.1-.016-.176.034-.212a1.65 1.65 0 00-.056-.684 3.027 3.027 0 01-1.211-.045.854.854 0 01-.824.034c-.241.398.336 1.661.893 2.19zm11.949-2.392a5.032 5.032 0 01.579-.292.869.869 0 01.028-.269c-.481-.112-.812-.3-.412-.593-.176 0-.334.017-.5.028a1.8 1.8 0 01.31 1.127zm5.988-.394a7.516 7.516 0 00-.393-.1c-.065.075-.134.145-.2.221.207-.048.51-.008.598-.121zm2.8 1.6c-.058.3-.681.266-1.129.334.556.187 1.365 1.643 1.739 2.1a2.453 2.453 0 01.491-.406c.827-.518-.827-1.214-.4-1.53a1.837 1.837 0 01-.696-.498zm5.814-7.092c.145-.124.477-.1.714-.162-.674-.491-.347-.958-.729-1.315a2.366 2.366 0 01-.2-.061c-.194.026-.4.246-.569.371-.056.643.355 1.539.789 1.172zm5.763-1.248a1.9 1.9 0 00.7.73c-.016-.333-.298-.563-.695-.73zm.01-4.343c-.3.03-1.473-1.317-1.594-1.558a1.238 1.238 0 01-.493.436 1.274 1.274 0 01.079.252c.412.177.763 1.033.848 1.828a2.022 2.022 0 001.165-.962zm-.53-5.035c-1.474-.281-.375.459-.4 1.405.058.135-.116.54-.482.674-.4.359-.331.41-.749.154a1.256 1.256 0 00-.149.026c.574.275.341.487-.067.517-.023.215-.041.425-.054.631.411-.343 1.04-.712.9-.153.428-.034 1.673.787 1.736 1.466.35-.577.646-1.213.874-1.689-.865-.016-1.837-.433-1.307-1.152.31-.413.033-1.279-.297-1.878zm2.048-10.288a1.1 1.1 0 00-.158.03c.728.57.6.981.242 1.029a1.293 1.293 0 00-.459.159.694.694 0 001.165-.516 2.6 2.6 0 01-.79-.702zM74.614 93.088c-2.454 0-.308 2.188.883.994.552-.548.111-.994-.883-.994zM31.681 15.352a2.721 2.721 0 001.686-.4c1.025-.521-1.994-1.617-2.2-.269a1.316 1.316 0 00-2.055 1.1 1.337 1.337 0 102.569-.426zm128.517 70.121a.719.719 0 101.435 0c.002-.82-1.435-.913-1.435 0zm-43.511 2.1c-.913 0-.82 1.435 0 1.435.858-.001.926-1.436.002-1.436zm124.241-4.085c.856 0 .923-1.436 0-1.436s-.82 1.436 0 1.436zm-162.89 9.6a.669.669 0 100-1.324.669.669 0 000 1.324zm-31.1-74.889c.293-.268.3-.948-.1-1.938-1.38-3.393-3.659-.768-1.782 1.1a1.235 1.235 0 00-.807 1.183 1.373 1.373 0 102.686-.34zm5.752 11c-.659-.305-.471.853.328 1.1a3.141 3.141 0 002.86.64.529.529 0 00.855-.291 2.4 2.4 0 001.332-1.976c3.248 1.873 2.4-2.808-.624-1.814-2.03-2.682-4.652.037-4.754 2.342zm1.275 3.818c0-.821-1.435-.914-1.435 0a.719.719 0 101.432.001zm247.033 7.036c-.184 1.169 1.912 2.336 2.208 1.474.305-.894-1.985-2.895-2.208-1.474zm-4.647-.247c-1.147 4.3-6.438-.116-5.483 3.6.206.8-.131 2.287.692 2.388 1.1.134-.509-3.14 1.43-2.83 2.552.407 3.694-.972 4.909-2.594.438-.586 1.628-1.3 1.165-1.871-.454-.555-2.621.951-2.715 1.307zM244.122 81.33c-.352-.912-1.509 1.245-.822 1.972a.912.912 0 00-.61.581c-.141.548 1.412.154 1.57-.3a.222.222 0 00-.059-.251c.258-.29.33-.939-.081-2.003zm24.107 17.947c.847.151 1.147-1.848.257-1.8-.47.028-1.027 1.662-.259 1.799zm32.454-1.948c.639.524 1.078-1.308.239-1.528-.719-.189-1.189.752-.242 1.527zm-49.485-60.652c-.494.812 1.67 1.078 1.983.464.334-.643-.864-2.294-1.983-.464zm34.539 1.439c-.809.962 3.387 2.172 3.743 1.5a.9.9 0 00-.07-.9c.453-.425.176-1.043-.831-.769a2.26 2.26 0 00-2.837.169zm-10.2 2.909c-2.051 1.795 3.369 3.027 2.688.667a1.171 1.171 0 00-.562-.639c-.213-.3-.365-.268-.49-.213a1.82 1.82 0 00-1.63.185zm-29.286 2.984c-.725-.588-2.892 1.2-2.016 1.871.729.555 2.614-1.392 2.022-1.871zm-7.088 3.237c.094-.924-1.985-1.528-2.1-.374-.092.955 2.003 1.387 2.107.374zm33.042-16.79c1.2 2.909 2.422 7.517 4.855 5.579 3.086-2.459-3.429.812-.238-3.332 1.827-2.374 1.083-2.85.067-1.588-.54.671-1.073 2.314-1.8 2.273a.77.77 0 01-.45-.224.455.455 0 00-.385-.469c-.484-.772-.857-1.981-1.285-2.522-.183-.245-.971-.237-.758.284zm-20.1 67.363c-.251-.026-.392.446-.368.644.071.61-.583 2.25.489 2.251.808 0 .376-1.18.335-1.548-.047-.46.023-1.299-.451-1.347zm47.693-51.931c-.1.687.425 1.111 1.405-.224.541-.734-1.243-.856-1.405.224zm-4.066 41.716c.213.337 1.113.365 1.789.19a.52.52 0 00-.164.568c.6 1.236 1.558-1 .88-.975.014-.022.041-.04.049-.063.386-1.122-3.188-.727-2.55.279zm16.566-37.689a2.152 2.152 0 002.252-2.111c-.128-.885-3.469 1.829-2.252 2.111zm-47.876-10.027a22.908 22.908 0 00-1.82 2.653c-.654 1.019 2.993-.348 3.426-1.386.411-.982-1.23-1.702-1.606-1.267zm-12.263-11.829c-1.034-.191-1.121 1.753-.247 1.992 1.217.337 1.592-1.737.246-1.988zm59.226 29.307c.953 0 .549-2.026-.238-2.071-.837-.043-.622 2.075.238 2.075zm-21.094 46.071c.325-1.195-.831-2.2-2.7-.089-.561.64 2.376 1.282 2.699.093zm10.96-74.379c.324-1.195-.83-2.2-2.7-.089-.564.642 2.378 1.279 2.7.093zm14.24 53.009a.772.772 0 00.583.922 1.446 1.446 0 001.677-1.05c.018-.3-.515-.571-.693-.529-.543.134-1.403.116-1.567.66zM284.273 25.09c.325-1.2-.837-2.2-2.7-.089-.561.641 2.378 1.281 2.7.093zm-16.568-.455c.869 0 .317-2.851-.12-2.895-.394-.037-.972 2.896.121 2.898zM98.248 28.612c-1.271 2.881-3.759 6.947-.676 7.364 3.911.531-2.956-1.915 2.243-2.475 2.979-.321 2.808-1.187 1.193-1.049-.857.074-2.414.824-2.883.273-.626-.732.714-2.727.858-3.755.044-.305-.507-.87-.735-.355zm-23.363 1.31l-1.056-.529c-1.474-.747 1.427 4.891 2.744 2.8a11.113 11.113 0 002.257.672c.065.143.2.134.319.049 1.72.238 2.693-.229.553-1.795-1.058-.773-1.687-1.876-2.754-2.638-1.596-1.142-2.104.173-2.063 1.444zm18.028 8.4c-2.712-.242.142 4.527 1.377 2.4.465-.788-.457-2.311-1.376-2.393zm-6.868-8.82a23.1 23.1 0 00-3.177.519c-1.188.231 2.321 1.924 3.371 1.518.996-.378.386-2.06-.193-2.03zm4.374 13.96c.344.874-1.522.115-2.493-.887-.5-.512.186-2.464 1.142-1.312-.493-.877.8-1.214 1.367-.711.899.796.916 3.021-.015 2.917zm-.57-.879a2.346 2.346 0 00-.521-.943c.183.317.33.643.522.948zm20.612-8.964c1.089-.593 1.011-2.126-1.8-2.012-.849.04.72 2.607 1.801 2.019zM92.523 97.107c.618-.525-1.049-1.853-1.655-1.545-1.254.642.659 2.397 1.655 1.551zm-22.918-1.7c.063.822 1.691-.125 1.27-.884-.36-.641-1.366-.335-1.27.89zm14.9-81.744c.6 1.112 2.361-.052 1.611-1.2-.577-.875-2.042.41-1.611 1.206zm-16.736 5.4c.1.908 2.807.924 2.745.164-.076-.929-2.864-1.26-2.745-.162zm-14.4-2.647c2.96-1.127-2.869-2.909-2.9-.551-.009.79 1.045.924 2.022.772-.093 1.989 2.007.751.881-.219zm14.448 6.062c-1.491.278.416 2.912 1.811 2.053 1.159-.707.688-2.515-1.807-2.051zm-5.728-7.913c-.756.59.38 2.4 1.183 1.778.737-.569-.265-2.488-1.174-1.775zm55.435 32.057c-.852.032.72 2.6 1.8 2.012s1.023-2.119-1.795-2.009zM63.477 26.178c2.37.613 4.737 1.237 7.119 1.806.415.1 1.343-.619.765-.767a345.228 345.228 0 00-7.728-1.889c-.375-.083-1.012.63-.151.853zm-18.512.031c-.544-.637-1.925.983-1.332 1.6.665.695 1.85-.997 1.337-1.597zm34.109-8.39c-2.122-1.862-1.257 3.579.238 1.143 1.814 2.14 2.105-2.774-.234-1.14zm20.259 3.515c.6.63 2.279-1.74 2.01-2.087-.24-.309-2.758 1.301-2.006 2.091zM15.311 70.519c.6-.459.415-.895.206-.737-1.06.8-2.115 1.6-3.156 2.422-.152.122-.074.593.283.327.374-.279.745-.564 1.118-.844.084 1.387 2.593-.868 1.553-1.164zM5.4 60.476c-.914.667 1.983 2.035 2.8 1.541 1.091-.657-1.502-2.485-2.796-1.537zm10.918-37.315c-.345-1-1.66-.911-.944.627.303.65 1.111-.14.944-.627zm5.014 12.691c.846-.422-.3-2.135-1.069-2.342-.93-.251-3.063.5-2.236.892 1.043.486 2.135 2.033 3.305 1.45zm8.494-5.6c-1.511.124.118 2.939 1.594 2.226 1.22-.59.936-2.431-1.593-2.223zm11.834-3.564c-.944.109.174 1.979.852 1.85.708-.132 1.276-2.092-.852-1.85zM17.975 45.143c-.305-.309-2.524 2.2-2.036 3.221.844 1.761 2.982-2.26 2.036-3.217zm4.829-6.3c-1.144-.407-2.009 1.1-.517.486a1.06 1.06 0 00-.248 1.05c.583 1.328 2.561-.359 2.171-1.336-.244-.6-.876-.534-1.406-.191zm1.394 64.145c-.019.825 1.7.047 1.354-.751-.294-.677-1.326-.47-1.354.751zM9.847 44.129c-1.091-.3-3.424-1.027-2.948 0 .017.036.041.063.06.1-.347.583.12.953.441.5 1.249.877 3.668-.258 2.445-.597zm.349 19.669c3.174 1.93 3.619.736 2.565-.537-.656-.788-3.417.027-2.563.54zm36.63 43.208c.668-.459-.852-1.951-1.489-1.705-1.315.509.41 2.448 1.487 1.708zM21.275 87.042c.34 1.448 1.663.971 1.078-.712.259-.322.044-.513-.368-.52-.712-.389-1.087 1.348-.712 1.235zm-8.281 11.5c1.14-.478 1.227-2.008-1.589-2.184-.848-.048.449 2.666 1.587 2.189zm-6.277-66.9c-.477-.689-2.016.782-1.488 1.461.582.755 1.934-.808 1.486-1.457zm5.719 12.509c3.195 1.033 3.734-.23 1.749-1.661-3.072-2.211-2.979 1.269-1.752 1.665zM2.078 48.529c.548-.913-2.372-.344-2.051.839.182.678 1.076.782 2.049-.835zm46.967-26.38c-.484-.934-2.071.193-1.723 1.029a.885.885 0 00.187.266c-.059.235.14.3.353.225a1.068 1.068 0 001.18-1.516zM2.725 78.575c.4.762 2.163-.23 1.577-.9-.31-.351-1.943.213-1.58.904zm10.522-23.743a1.482 1.482 0 00.538-.132c.957-.487-.581-.5-1.588-.537a2.952 2.952 0 00-.662.03c-6.431-2.1-.626 1.947 1.58 1.505 1.046-.21.839-.522.129-.862zM28.836 93.11c-.209.588 1.208 2.047 1.792 1.844 1.114-.383-1.393-2.966-1.795-1.84zm-3.9-71.313c-.812.509.134 2.428 1 1.888.779-.489-.023-2.497-1.005-1.883zm90.774 67.645c.888.1.232-1.817-.414-1.945-.433-.079-.309 1.87.408 1.949zm6.36 2.322c-.048.473.981.374 1.042-.016.06-.409-1.005-.408-1.048.02zm3.664.824a1.076 1.076 0 00.939 1.224c.44-.014-.744-1.811-.945-1.224zm-15.908.8c-.038-.277.014-.7-.248-.812a.387.387 0 00-.487.244c-.269.792.822 1.246.729.576zm-7.1-8.939c-.291.292.6.6.75.2.122-.343-.327-.625-.76-.192zm1.718-1.458c-.345.3.222 1.2.561.915.243-.208-.238-1.195-.571-.908zm-2.259 7.367c.476-.4.292-1.14-1.08-.812-.422.107.593 1.214 1.07.819zm6.03-41.8c-.369-.376-.963.4-.674.745.394.485 1.143-.253.664-.742zm10.421 40.29c-.553.434.556 1.108.962.6.242-.317-.7-.807-.972-.596zm-10.443 1.995c.111.4.817-.226.537-.559-.249-.278-.712-.027-.547.562zm1.894-4.783c.67-.489-1.846-1.289-1.006-.384-.224.293-.626.7-.246.922.35.207.4-.323.579-.668.246.146.537.226.663.134zm32.111 1.52c-.215.4.644 1.04.855.649.145-.288-.655-1.034-.864-.641zm-17.3.4c-.187-.066-.817 1.29-.287 1.421.405.111.487-1.336.273-1.413zm7.652 2.63c.393.175.777-.762.34-.843-.246-.035-.711.692-.354.851zm15.991 2.922c.248.33.68-.507.3-.715-.343-.168-.682.233-.315.723zm-47.414-6.722c.062-.273.261-.654.053-.848a.386.386 0 00-.543.057c-.529.642.325 1.462.475.799zm15.625 6.313c.424.14-.053-1.959-.449-1.478a1.077 1.077 0 00.434 1.486zm-3.589-3.536c-.211.427.787.7.981.352.192-.357-.806-.728-.996-.344zm10.064-.824c-.484-.341-1.471.34-1.151.663s1.722-.238 1.136-.655zm41.12 2.03c.181-.079-.288-1.5-.764-1.231-.393.226.548 1.326.749 1.239zm-8.089 2.647c.153.6.905.751 1.2-.624.071-.409-1.367.036-1.214.632zm-10.959-2.4c-.208-.555-1.408-.547-1.324-.1.073.477 1.561.784 1.31.111zm5.116-2.644c.019.729 1.819.7 2-.266.101-.606-2.023-.101-2.017.277zm7.591.071c.7.01 1.041-.662.089-.732.306-.666 1.177.446 1.829.712 1.474.6-2.479-3.387-3.221-1.546-.681 1.686.984-.738.963.89a.327.327 0 00-.043.528c-.244 1.679.39 1.514.369.159zm-10.115 7.42c.152.6.9.754 1.2-.626.071-.405-1.365.04-1.214.637zm-3.508-7.681c-.125-.323-.459-.378-.557.443-.068.462.74.077.544-.432zm25.123-3.962c.5-.172.057-1.04-.383-.928-.625.165-.278 1.162.37.939zm-31.553 5.282a1.076 1.076 0 00-.46 1.473c.258.365 1.046-1.638.447-1.462zm-21.287-.216c-.208-.107-.862.456-.566.71.314.29.95-.496.553-.699zm24.169 5.256a.385.385 0 00.019.544.77.77 0 00.767.128c1.487.974 1.769-1.411.123-.509a.209.209 0 00-.066-.05c-.28-.071-.647-.296-.856-.102zm-13.986-3.823c.235-.235-.323-1.18-.632-.868s.306 1.193.619.878zm4.228 6.053c-.261-.261-.7.025-.49.6.131.397.784-.281.477-.589zm-1.424-6.1c.337.131.521-1.011.266-1.156-.366-.191-.702 1.001-.278 1.164zm1.263 1.257c.012.312.939.728 1.173.526.436-.378-1.206-1.114-1.185-.518zm-6.357 5.451c.442-.433.2-1.16-1.14-.721-.421.138.688 1.159 1.128.729zm142.932-56.9c-.658.379.679 1.3 1.195.668.412-.513-.109-1.284-1.208-.655zm-4.015-2.781c-.26.4.578 1.069.852.641.238-.376-.552-1.117-.864-.628zm4.745.8c-.19-.427-1.561-.12-1.323.378.186.425 1.466-.013 1.311-.364zm13.945-3.786c.387.2.786-1.2.6-1.319-.178-.092-1.098 1.085-.612 1.334zm-9.562 8.816c1.6.326 4.03-.31 1.923-.946-.627-.19-1.107-.605-1.736-.787-1.525-.425-.669 1.652-.199 1.748zm7.9 2.02c-.05.252.34.39.533.56s.441.663.658.5c.653-.506-.989-2.122-1.204-1.045zm-8.418-9.2c-.4.251.5.859.778.656s.119-1.207-.791-.641zm24.038 7.926c.415-.459.128-1.169-1.183-.65-.41.17.757 1.119 1.17.663zm-36.548-3.643c.275.23.473-.3.294-.485-.383-.368-.959-.046-.307.497zm23.427 4.068c.087-.453-.6-1.019-1.047-.905-1.334.348.805 2.124 1.033.917zm-19.146-.71c-.473.084-1.279.88-.821.88.575 0 1.4.464 1.8-.048.284-.358-.601-.889-.992-.82zm6.092-1.86c-1.321.118-2.641.242-3.959.39-.194.022-.376.464.067.427 1.22-.1 2.44-.2 3.658-.328.199-.011.517-.505.221-.478zm36.94 4.64c.189-.59-.366-1.118-1.346-.106-.31.318 1.146.7 1.333.118zm-.649 10.832c-.286 0-1.153-.092-1.28.127-.1.182.941 2.242 1.358 2.1.493-.153.106-2.214-.091-2.215zm.258-5.338c-.118.581.9 1.21 1.069.787.178-.44-.921-1.487-1.069-.787zm-24.125-7.087c-.512-.119-.6.851-.168.989.605.198.839-.832.171-.988zm29.435 12.113c-1.572.239-1.433 3.262-.647 3.809 1.38 2.179 4.764 2.2 3.2-1.714a3.249 3.249 0 00-1.911-2.042 1.026 1.026 0 00.64-.9c-.031-.379-1.254.473-1.279.849zm-7.438 4.236c.411.039.635-.851.076-1.151-.674-.362-.893 1.077-.073 1.152zm-5.888-17.111c.189-.59-.368-1.117-1.346-.1-.292.302 1.162.689 1.349.102zm14.316 29.164a.386.386 0 00.27.475c.787.216 1.195-.9.527-.767-.276.053-.704.024-.797.292zm-7.48-11.515a.518.518 0 10-.288.993c.432.097.968-.821.288-.993zm-6.936 21.516c-.295.305 1.158.693 1.346.106s-.365-1.122-1.346-.105zm9.028-15.436c-.062.433 1.88.2 1.919-.517.049-.893-1.831-.133-1.919.518zm-6.069 3.408c-.429-.2-.753.811-.416.909.191.058.831-.71.416-.908zM290.219 43.84c.434.021.222-1.417.005-1.448-.195-.029-.55 1.423-.005 1.449zm10.271 16.98c-.01.3.692.856.89.654.345-.352-.868-1.265-.89-.653zm.8 3.817c-.572.319-.547.654-.259.72.667.153.734-.983.267-.719zm4.48-9.46c-.065.34.187.564.707-.081.289-.353-.6-.455-.704.081zm-.718 25.714c.306.275.568-.63.153-.758-.35-.11-.607.349-.149.755zM283.07 94.676c.205-.584-.334-1.129-1.343-.143-.3.296 1.142.725 1.346.143zm8.483-15.1c-.251.525-.275 1.236.115 1.332.315.078 1.155-.949 1.011-1.532.239-.115.423-.273.44-.481.105-1.24-3.01.529-1.563.68zm-27.362 12.35c.4.031.23-.574.224-.759-.009-.231.056-.648-.179-.689-.124-.022-.212.209-.207.308.016.302-.369 1.102.169 1.139zm24.284.083c.3.285.586-.613.175-.754-.352-.12-.617.333-.172.753zm-6.373-4.21a.681.681 0 00.688-.287c.062-.137-.138-.359-.229-.372-.262-.035-.628-.173-.815 0-1.005-.52-.392 1.218.359.658zm14.315-2.857a.387.387 0 00.257.481c.789.242 1.217-.861.548-.751-.272.043-.7.003-.802.268zm-12.919 1.454c.123-.393-.727-.451-1.129-1.2-.79-1.473-1.255-1.027-.858-.618.559.574.469.87.136 1.069a.654.654 0 00-.627-.837.712.712 0 00-.335 1.365c.019.063.087.125.271.171a5 5 0 001.188 0c.447.01 1.249.375 1.354.05zm-30.349 1c-1.4-2.093-1.841 2.437-3.066-.041-.281-.568-.663 1.1.066 1.038 2.126-.178 3.503-.237 2.996-.995zm8.277-2.921c-.388-.277-.882.667-.569.822.176.091.941-.553.565-.819zm11.762 3.833c-.279.005-.7-.1-.837.15a.387.387 0 00.185.513c.738.351 1.332-.673.652-.663zm-9.724 5.986c.256.325.67-.522.283-.721-.329-.169-.661.239-.283.722zm-15.741-13.1c-.209.389.714.5.859.206.211-.429-.702-.496-.86-.204zm12.7 5.823c-.4-.081-.353 1.156.1 1.182.36.023.185-1.121-.103-1.18zm-20.969 3.656c.422.1.472-1.354.256-1.426-.191-.059-.791 1.31-.259 1.429zm7.962 1.038c.4.167.762-.777.322-.849-.234-.035-.684.702-.325.852zm10.455-2.607c.151-.3-.67-1.025-.868-.632-.205.416.662 1.03.865.635zm.45-8.664c-.424-.321-.791-.339-.255.473a4.672 4.672 0 01.416.661c.663 1.534 1.736.302-.164-1.13zm-.588 15.7c.287-.547-.167-1.165-1.308-.336-.347.254 1.017.889 1.304.342zm-11.318-13.532c-.506-.1-1.311 1.094-.82 1.023 1.835-.259 1.627-.861.816-1.017zm16.975 6.537c.309-.506-1.48-.7-1.277-.141.102.3 1.113.411 1.273.147zm-13.6-4.558c-.242-.1-.533.805-.29.977.44.316.641-.829.29-.97zM46.264 3.102c-.039-.836-2.124-.407-2.038.449.097.953 2.072.346 2.038-.442zm8.123 8.342c.623.968.731 2.855 2.031 2.983.941.092.877-1.97.338-2.552-.658-.7-2.864-1.194-2.369-.424zm12.371 5.481c1.346.147 2.084-1.567-.169-2.733-1.347-.69-1.46 2.56.169 2.739zM57.773 1.04c-.088.711 1.015.471 1.133-.031.242-1.028-.922-1.647-1.132.037zm27.394 16.448c-.208 1.246 1.9 1.408 2.007.044.086-1.044-1.859-.934-2.007-.044zM36.925 10.67c-.26 2.044 3.495 2.652 2.5 1.563-.766-.833-2.358-2.683-2.5-1.559zm37.508 13.254c.241-1.033-.923-1.654-1.133.031-.089.715 1.015.475 1.133-.028zM66.928 4.433c-.959 0-1.175 2.129-.158 2.128.928.004 1.317-2.126.157-2.125zm3.783 8.85c.512-.782-1.486-2.755-2.065-1.815-.48.779 1.647 2.456 2.065 1.82zM19.687 40.671c.044-.337-.252-.667-.862-.583.769-.539 1.444-1.4 1.32-1.787-.472-1.449-3.94.518-3.086 1.916.232.379.64.406 1.086.243a.4.4 0 00-.178.3c-.083 1.09 2.504.728 1.72-.085zm47.642-12.783c-.389-.153-4.159 2.517-3.764 3.3.48.953 4.445-.418 4.389-.807-.078-.563-.156-2.306-.625-2.493zm-50.848-2.716c.453-.1 1.294-.114 1.294-.59 0-.252-.484-.344-.679-.3-.6.133-2.3-.35-2.19.715.082.804 1.213.254 1.575.175zm32.843 4.353c.756.067 1.546-1.859.712-1.876-.729-.015-1.68 1.791-.712 1.877zm-14.722 3.588a.77.77 0 00-.136-.306c.062-.18-1.262-1.206-1.408-.886-.61-.176-1.127-.137-.917.284 1.666 3.322 2.678 2.545 2.457.909zm60.429-.874c0-.4-2.976-.674-2.868.412.086.866 2.867.027 2.867-.411zM48.64 20.528c-.1-.425-3.31.527-3.435 1.647-.22 1.938 3.728-.334 3.434-1.647zM31.4 29.639c.8.012.613-1.134-.031-1.963 2.122.359 1.785-1.117-.008-1.381a1.554 1.554 0 001.068-2.334c-1.747-2.622-4.9-.59-2.541 1.987a1.52 1.52 0 00.742.361c-.318.079-.528.251-.493.582a1.237 1.237 0 00-.291-.044c-1.128.081.6 2.778 1.552 2.792zm7.516-2.749c2.009.76-.048-1.524-1.346-3.067-2.927-3.478-.887 2.225 1.345 3.065zm15.6-5.754c-.954.478.41 4.445.8 4.391.566-.078 2.309-.153 2.5-.622.148-.388-2.518-4.162-3.302-3.768zm-3.828 9.475c-.231-.363-1.019.362-.763.707.167.224.472.049.653-.2a.721.721 0 00.5.737c1.485.341.134-2.134-.392-1.243zm-11.68-.909c-.334-.459-1.02-1.467-1.155-.917-.245 1.003 1.585 1.515 1.152.918zm11.75 3.724c-.69-1.133-1.387-2.26-2.1-3.376a.253.253 0 00-.363-.018.594.594 0 00-.359-.392c1.152.337-.428-1.621-.781-.809-.12.278.353.665.734.8a.663.663 0 00-.877.63c0 .944 1.246 1.081 1.314.076.627 1.036 1.249 2.075 1.9 3.1.101.177.685.243.529-.011zm-24.361 7.677c-.012-.235-.826-.522-.9-.138-.081.423.917.584.901.139zM51.862 25.66c-.477-.054-.7.992-.2 1.049.461.052.773-.983.198-1.048zm-5.472 3.129c-.286-.388-1.356-.756-1.152-.347.255.516.2 1.458.842 1.6.459.095.543-.933.308-1.254zm-21.269 3.894c-.407.079-.608.581.014.811.282.1.565.2.847.309-.67.774.71 1.226.728.266.473.176 5.282 2.067 5.757 1.9.432.455.769.163.564-.452a.14.14 0 00-.052-.122c-.256-.588-1.054-.992-1-.388q-2.849-1.039-5.716-2.03c.235-.33-.917-.372-1.144-.289zm7.835 9.128c.044-.256-.9-.354-1.016-.08-.214.495.95.457 1.015.081zm.577-13.115c-.137.321.18.64 1.064.31.501-.186-.823-.873-1.066-.309zm29.285 12.4c0 .11.088.175.224.208-.816.8 2.6.416.743-.027 1.5-.319-.963-.701-.969-.182zM12.27 58.408c.436-.464-1.059-1-1.555-.366-.353.446 1.226.713 1.553.365zm-1.691-19.376c.233.271.516-.217.37-.429-.304-.438-.924-.215-.372.428zm4.126 9.935c-.189-.107-.918 1.4-.547 1.826.64.73 1.129-1.493.54-1.827zm2.158 3.292c.308-.743-.065-3.028-.7-2.166a5.422 5.422 0 00-.846 2.656c-.262-.173-1.151.18-1.17.48-.027.414.781.212 1.118-.083a1.36 1.36 0 01-.252.773c-.155.136.049.489.238.274a8.164 8.164 0 001.609-1.935zm7.424-14.589c.322-.162.332-1.182-.659-.777-.443.178.347.928.656.775zM9.235 49.97c.668.783 2.157-.4 1.418-.4-.569.002-1.788-.031-1.421.399zM6.63 53.417c.18.3.625.23.875-.68.138-.513-1.192.151-.878.679zM34.653 35.76c-.146-.133-1.25.874-.812 1.2.346.257.971-1.054.809-1.201zm-19.739 1.029c-.322.356.392 1.152.734.776.31-.345-.35-1.206-.737-.777zM11.86 67.12c.3.312 1.011-.4.639-.646-.201-.131-.91.36-.642.645zm2.97-21.739c-.423-.635-1.827.78-1.228 1.338.519.485 1.435-1.023 1.224-1.34zm1.761-3.418c-.2-.012-.449.394-.005.431 1.219.1 2.44.207 3.66.286.213.013.609-.42.313-.443a152.258 152.258 0 00-3.972-.276zm-5.147 6.942c-.092.625.544.754.624.33 3.704.03-1.957-2.475-.628-.332zm13.554-5.458c-.587-.291-.99-.781-1.581-1.067-1.417-.683-.919 1.507-.473 1.679 1.517.589 4.022.365 2.054-.612zM5.815 61.742c-.148-.134-1.25.874-.812 1.2.342.257.977-1.047.808-1.201zm10.204-15.614c.46.561 1.186-.519.866-.936-.408-.531-1.221.503-.866.936zm3.716.9c-.235-.16-.906-.719-1.133-.608-.188.092-.471 2.384-.047 2.5.513.147 1.343-1.78 1.179-1.891zm7.345 43.177c.91-.375 1.78-.851 2.657-1.307a.25.25 0 00.062-.345c-.036-.343-.34-.487-.677-.5a.614.614 0 00-.321-.035c-.25-.948-1.919.9-1.456 1.7a1.844 1.844 0 01-.641-.481c-.439-.457-.306 1.251.375.969zm-14.941-22.59c-.387-.261-1.389.721-.923 1.019.382.247 1.238-.804.922-1.018zm-6.218 6.374c.356.05.243-.5-.006-.566-.517-.127-.835.45.006.565zm6.642-4.307c-.358.668 1.266.75 1.368-.063.083-.671-.769-1.052-1.368.069zm-4.877-.243c-.008.48 1.055.6 1.063.1.006-.468-1.051-.679-1.063-.098zM13.67 80.76c1.3-1.059.918-1.629-.222-1.186-1.765.689-.279 1.595.221 1.188zm1.028-5.052c.716.116.546-1.173.03-1.275-.657-.129-.582 1.185-.03 1.275zm2.685 18.459c-.2 0-.358 1.483.186 1.438.429-.038.044-1.434-.185-1.438zm-2.092-30.271c.136-.335-.531-1.105-1.007-.146-.21.425.879.465 1.008.145zm-2.6 22.4c-.234-.478-.79.9-.206 1.089.332.109.62-.239.206-1.086zm12.834 6.992c-.231.034-.438.873-.051.908.43.038.492-.972.051-.908zm-12.57-11.445c-.424.375-1.362 1.157-.8 1.237 1.019.145 1.353-1.727.801-1.237zm7.061 5.552c.018-.637-1.453-.046-1.408.755.031.564 1.39-.28 1.408-.756zm-1.318-3.778c.4-1-.763.012-1.544.649-1.761 1.436 1.107.458 1.544-.65zM7.072 80.784c.474-.041.186-1.034-.208-1.023-.418.013-.219 1.059.209 1.027zm88.483-46.076c-.164-.5-1.037-.07-.932.37.148.61 1.147.28.932-.37zm-3.731 2.634c.361-.012.8-.934-.273-.981-.474-.023-.071.991.273.98zm8.974 3.356c.208.383 1.325-.546 1.24-.749-.078-.182-1.502.27-1.24.749zm-7.646 3.239c.531-.057.454-.949.171-1.008a11.578 11.578 0 00-1.6-.16c-.608-.043.869 1.227 1.428 1.168zm-9.469-11.321c-.441.187-.127 1.21.343 1.011.426-.181.189-1.239-.345-1.011zm-1.774 12.547c.407.345 1.966-1.058 1.866-1.226-.147-.246-.522-1.033-.774-1.028-.212.005-1.429 1.969-1.094 2.253zm3.936-9.641c-.07.451 1.236.809 1.3.434.085-.46-1.218-.981-1.302-.435zm-14.768-8.695c.229.59 1.174.12.873-.5-.234-.468-1.04.078-.875.499zm3.182 14.032a.968.968 0 00-.535-1.277c-1.333-.288-.212 2.254.533 1.276zm-6.051-12.341c-.472.044.066.992.406.935.354-.065.659-1.035-.408-.936zm-4.489 4.22c-.193-.075-.387-.146-.579-.221a.779.779 0 00-.242-.965c.447-.5.984-1.255.319-1.134-.549-.528-1.7-.383-1.112.5a2.119 2.119 0 00-.846.888c-.42-.158-.836-.325-1.258-.478-.184-.067-.543.248-.131.411.459.182.919.357 1.378.539a1.381 1.381 0 00-.243.681c-.265-.145-.731-.079-.815.215-.164.574.741.773.954.23.48.736 1.36.237 1.8-.464.116.044.232.092.348.136.198.069.706-.23.425-.339zm-3.341-5.9c.4-.238.021-1.253-.477-.955-.414.25.038 1.218.475.959zm-3.257 7.028c.976-.394 2.106-1.9 1.886-2.4-.33-.747-1.415-.428-2.2.228-.386.08-.79.244-.438.445-.714.89-.415 1.624.1 1.788-1.121.477-.905 1.6 0 1.131.869 1.381 3.7 1.214.773-.711.115-.193.137-.359-.123-.477zm5.318-5.4c-.008.456 1.336.632 1.351.252.019-.465-1.344-.802-1.353-.25zm-2.577 10.09c.306.2 1.025-.484 1.417-.986.3-.151.586-.352.252-.416.03-.138-.664-1.017-.9-.979-.206.035-1.142 2.146-.771 2.383zm-1.615-3.413c.277.671 1.285-.151 1.1-.644-.235-.625-1.315.129-1.102.646zM41.529 24.059c.658-.524-.891-.73-.9-.109 0 .208.193.283.412.275-.117.753.744.344.487-.165zm-11.52 16.415c.631-.081-.184-1.442-.968-1.271-.553.122.494 1.333.967 1.272zm16.681-7.211c-.272-.261-.548-.516-.82-.776.842-.326.043-1.193-.732-.693-.314-.3-.625-.6-.941-.891.323-.04.6-.144.652-.277.268-.715-1.7-1.024-1.8-.211-.032.269.2.414.508.473.46.446.924.888 1.385 1.333a.4.4 0 00.316.3c.305.293.605.591.914.88.15.153.726.071.517-.136zm-16.132 8.429c1.062 1.526 1.506 1.068 1.283.274-.143-.494-1.567-.678-1.284-.273zm4.917-15.404c-.079-.411-1.08-.049-.976.367.114.461 1.049.02.976-.367zm17 5.826c.352.08 1.007-.7-.015-1.019-.462-.142-.326.94.01 1.018zm-10.668.78c.423-.728-1.616-.14-1.731.365-.1.423.268.467.69.339.324.606 1.743-.31 1.032-.71zm4.8-1.224c.677-.022.921-.923-.278-1.339-.722-.252-.546 1.366.269 1.337zm-5.76-1.985a.408.408 0 00-.595-.063c-.164.017-.246.08-.169.191-.484.78 1.026 2.173 1.2 1.354.488-.002.523-1.231-.442-1.479zm4.954-4.211c-.474.069-.431 1.138.074 1.065.454-.067.495-1.151-.077-1.067zm-16.967 7.565c-.053.345.336.575 1.108.032.429-.308-1.021-.639-1.113-.034zm7.865-.279c-.923-1.577-1.562-.137-1.171.35a2.937 2.937 0 001.158 2.137c-.9.737-.062 1.44.944.213.125 1.034.879 1.263 1.121.789a4.5 4.5 0 001.722.061c.784-.186 2.416-1.828 1.347-1.833a6.427 6.427 0 00-3.049 1.089c-.112-.462-.455-1.011-.891-.831-.067-.081-.467.049-.849.274a12.7 12.7 0 00-.868-1.4c.783.466 1.035.011.535-.851zm4.2 4.4c.128.182.526.116.944-.03.171-.052 1.221-.516 1.171-.683-.079-.274-.242-1.131-.487-1.19-.212-.051-1.887 1.539-1.637 1.9zm-7.301 1.428c.358.379.605.066.595-.491-.01-.5-1.288-1.03-1.171-.608-2.542-2.262-.267.948.576 1.099zm6.671-6.538c.078-.758-1.906-.56-1.8.252.093.707 1.76.125 1.798-.253zm-.82 62.777c.608-.114.811-.853-.547-1.235-.404-.116-.061 1.347.546 1.234zm8.315-.988c-.164.265.375 1.126.681 1.089.586-.072-.368-1.597-.683-1.09zm17.015.48c.207.429 1.032-.193.88-.557-.161-.388-1.068.169-.882.556zm-9.683 8.2c.375-.154-.212-1.043-.549-.99-.696.112-.058 1.242.551.994zm13.238-9.414a1.076 1.076 0 001.439.556c.37-.245-1.575-1.16-1.44-.552zm-23.136 4.843c-.071-.363-.6-.371-.741.225-.096.405.824.206.741-.221zm12.942-2.3c.809-.381-.75-1.67-1.367-1.443-.41.16.713 1.759 1.366 1.451zm-32.473-3.954c.189.309 1.032-.482.917-.753-.16-.366-1.153.372-.918.761zm-2.221-2.746c-.452.061-.468 1.129-.028 1.072.328-.032.463-1.123.027-1.064zm3.062 5.645c.591-.032-.26-1.617-.608-1.133-.182.262.298 1.158.607 1.141zm-3.947-13.786c-.057-.253-.965.018-.968.315-.009.545 1.05.066.966-.307zm-5.023 13.087c.615-.072.866-.8-.463-1.268-.401-.138-.15 1.348.461 1.276zm14.619 7.7c-.7.062-.137 1.232.482 1.025.383-.126-.141-1.052-.483-1.022zm-9.089-4.193c-.046-.367-.571-.41-.754.175-.124.397.808.259.752-.172zm-7.72-14.513c.088.422 1.072.186.882-.217-.102-.209-.964-.163-.884.217zm13.9 7.443c.008-.476-1.049-.348-1 0 .026.2.989.462.997.003zm6.887 5.638a.331.331 0 00.235-.354c.569-.247.269-1.3-.52-.784a1.273 1.273 0 00-.984-.393c-.419.127.596 1.797 1.267 1.535zm6.712-.895c.179.442 1.043-.123.917-.5-.138-.386-1.08.106-.92.504zm5.028-.321c.387-.222-1.5-1.266-1.4-.649a1.076 1.076 0 001.397.654zM20.311 81.691c-.194.125-.262.387.035.716-1.876.034 0 1.676 1.312 3.01.115.118.37.06.494-.253.931-2.34-3.051-.136-1.7-2.55a.175.175 0 00.017-.078c1.475 1.228 3.152.363.906-.7.755-1.061-.99-.686-1.067-.141zm-7-20.152c-.072-.429-1.851.378-1.67 1.076.219.873 1.776-.427 1.666-1.071zm3.924-17.447c.189-.379-1.314-.308-1.315.309s.684.959 1.311-.304zM5.86 58.515c.246-.133.663-.237.671-.521a.384.384 0 00-.4-.368c-.822.036-.872 1.219-.275.894zm6.395 14.588a1.079 1.079 0 00-.813 1.312.089.089 0 00.1.054c-.552.2-.814 1.432-.48 1.3-.78 1.257.7 1.673 4.7 3.925.465 1.09 1.148.853.974.207a.986.986 0 00.322-.689c.3-3.022-1.912-1.894-3.448-1.692.229-.468-.016-1.513-.3-1.588-.586-.156-.769 1.054-.415 1.575-.518-.118-.794-.592-.595-1.792.222-.149.781-.334.711-.575-.035-.12-.28-.1-.367-.05a1.263 1.263 0 01-.256.084c.516-.472.062-.97-.79-.723.375-.145 1.177-1.363.653-1.343zm-.146-2.748c.411-.087.031-1.081-.384-.97-.463.128-.005 1.055.38.975zm104.297-23.067c-.414.116-.114 1.082.275.866.206-.117.102-.975-.275-.866zm14.562 1.748c-.349.019-.5.446.194 1.091.39.361.418-1.127-.193-1.095zm-7.672-5.874c-.391.187.469 1.355.683 1.277.187-.071-.191-1.517-.681-1.281zm-12.376 2.285c-.3.306 1.158.69 1.346.1s-.368-1.118-1.346-.104zm-8.392-2.361c-.295.305 1.158.69 1.346.1s-.368-1.116-1.346-.104zm107.433 41.362c.385.275 1.671-.538 1.021-.847-.534-.256-1.392.587-1.021.847zm4.123-7.883c-.345-.525-1.523 1.315-1.254 1.58.52.512 1.796-.757 1.254-1.58zm-2.082 6.33c.331-.137-.083-1.391-.239-1.487-1.9-1.164.974-3.069-.944-3.141-.414-.015-1.078-.389-1.242-.009-.222.509 1.577.2 1.152 1.089-.56 1.165-.061 1.908.543 2.723.219.294.392.966.726.825zm-3.327-4.757c-.341-.383-.893.511-1.281.838-.315.266-.336 1.174.387.286.303-.374 1.217-.767.895-1.124zm-3.34 10.852c.442.066-.383-1.921-.69-1.38a1.076 1.076 0 00.691 1.378zm-16.465-3.585c.016-.279.146-.688-.09-.844a.386.386 0 00-.525.147c-.404.719.581 1.373.616.697zm27.343-.116c.526.326 1.174-.084.428-1.281-.226-.362-.95.957-.427 1.28zm-7.857-3.091c-.314-.146-.592.045-.092.706.275.361.588-.478.093-.707zm-4.68-.618c.04.533 2.135.654 2.182.464.071-.277.368-1.1.186-1.274-.146-.145-2.402.371-2.368.809zm-8.284 1.054c.856.264.57-1.74-.039-1.987-.404-.165-.65 1.775.039 1.986zm6.837 3.66c.142-.394-.9-.593-1.027-.181-.135.455.896.551 1.027.175zm11.008-37.614c-.176.312.38.411.53.2.308-.431-.112-.94-.53-.201zm-22.974 3.261c.075-.185-1.249-.878-1.405-.356-.124.413 1.317.566 1.405.355zm15.017 1.691c.008-1.893-1.381-.843-1.184-.229.509 1.598 1.178 1.451 1.185.228zm-1.673 26.019c.516-.57-.827-1.129-1.1-.353-.134.39.674.821 1.101.352zm-4.3-29.19c.53-.041-.55-1.065-.937-.59-.224.269-.006.663.935.588zm7.191-3.2c-.136.455.893.552 1.028.18.139-.396-.907-.594-1.028-.182zm-4 3.884c-.509.895 1.111 1.892.857 1.2-.196-.536-.579-1.694-.857-1.202zm13.849 1.8c.429.176 1.015-.734.478-.954-.446-.183-.951.759-.481.953zm-15.479 26.62c-.2.4.564 1.14.893.52a.518.518 0 10-.896-.521zm-22.687 4.775c.181.437 1.7.433 1.316-.175-.318-.501-1.492-.247-1.319.174zm-.16-2.76c-.189-.291-.526-.277-.454.548.037.452.748-.091.451-.549zm11.648-27.94c.119-.555.411-1.739-.088-1.471-.911.486-.07 2.191.085 1.47zm-3.8 26.219c-.014-.628-1.99.3-1.9.67.161.71 1.917.313 1.896-.671zm-5.176-26.51c.361.525 1.2-.824.687-1.442-.365-.438-.962 1.049-.691 1.441zm14.342-2.34c-.358.313.463.942.773.7.327-.261-.453-.986-.776-.701zM171.85 85.725c.339.291.7-1.831.149-1.536a1.077 1.077 0 00-.152 1.535zm-1.969-4.636c-.358.314.463.943.773.7.327-.261-.456-.985-.776-.701zm10.857 3.023c.352.059.67-1.222.587-1.386-.989-2 2.458-2.082.873-3.162-.343-.233-.706-.9-1.047-.668-.459.313 1.227 1.012.4 1.535-1.093.689-1.067 1.584-.988 2.595.02.362-.191 1.022.171 1.084zm2.292 4.267c.271.556 1.037.553 1.042-.857-.001-.428-1.317.303-1.045.855zm3.73-39.491c-.331.111-.357.561.48 1 .471.249.1-1.192-.48-1zm-14.5 2.211c-.369.224.178 1.073.5.762.165-.162-.162-.959-.498-.758zm18.451 33.162c.273.557 1.04.549 1.043-.857.003-.416-1.312.309-1.041.862zm-12.913-38.973c-.325.284.815 1.18 1 1.049.16-.12-.591-1.411-1-1.049zm129.24 15.077c.491-.2.407-.855-.34-.453-.316.169.1.551.34.453zm-22.211 28.041c.08.2.427.3.753.3-.432.883 1.687 1.826 1.919.93.112-.431-.706-1.037-1.327-1.144.313-.666-1.592-.693-1.346-.087zm-6.183-.166a1.078 1.078 0 00-.153 1.536c.339.291.707-1.83.153-1.536zm26.454-14.646c.088.35 1.082.578.9-.477-.083-.468-.985.143-.9.477zm-15.432 18.861c.272.556 1.037.555 1.045-.856.001-.425-1.313.303-1.046.856zm4.651-14.967c-.216-.141-.49.169-.719.286-.244.123-.78.16-.7.424.132.467 1.117.353 1.453 0a.534.534 0 00-.034-.71zm-.144 2.636c.388.249 1.169-.177 1.231-.633.181-1.35-2.265-.031-1.231.633zm10.572 4c.162-.114-.587-1.408-1-1.05-.326.289.821 1.182 1 1.054zm2.3-18.952c.269.379 1.25-.078.914-.551-.276-.385-1.206.141-.912.556zm-10.574 16.693c-.353 1.942 1.023-1.434 1.186 1.175.093 1.495.53 1.43.5.619-.017-.429-.357-1.223-.071-1.445.38-.3 1.346.418 1.857.512.154.028.449-.234.2-.359-1.418-.695-3.393-2.028-3.67-.497zm-5.262 3.091c-.05.7.438 1.858 1.073 1.753.548-.09.181-1.373-.283-1.964a.935.935 0 00.521-.809c-.015-.882-3.229.98-1.309 1.025zm17.26-8.289c.453-.268-.155-1.028-.562-.831-.567.28-.025 1.185.564.836zM266.11 92.591c.366-.5.009-1.177-1.242-.527-.37.2.88 1.03 1.245.532zm5.394-6.403c.061.306 1.043.566 1.241.33.381-.454-1.358-.914-1.241-.33zm-22.189-3.086c-.178-.09-.975 1.174-.465 1.372.402.156.668-1.269.465-1.372z" fill="#fff"/></svg>