<svg height="21.536" width="19.88" xmlns="http://www.w3.org/2000/svg"><g fill="#cf2a1d"><path d="M16.926 21.537H6.261a.177.177 0 00-.111-.037 3.349 3.349 0 01-.964-.3 3.2 3.2 0 01-1.846-2.7c-.069-.851-.017-1.707-.021-2.561 0-.157-.043-.2-.2-.2-.739.008-1.479 0-2.218 0a.9.9 0 01-.658-.243 2.2 2.2 0 01-.241-.388V9.776a.962.962 0 011.07-.663c.669.022 1.34.005 2.01.005.236 0 .236 0 .236-.231 0-1.827.011-3.654 0-5.481a3.334 3.334 0 012.534-3.3 1.833 1.833 0 00.414-.1h7.156a2.692 2.692 0 01.78.3 7.43 7.43 0 011.32 1.091c.605.6 1.21 1.2 1.809 1.808.619.627 1.273 1.22 1.834 1.9a2.517 2.517 0 01.718 1.611c0 3.818.01 7.637-.007 11.455a3.23 3.23 0 01-2.072 3.123 6.458 6.458 0 01-.878.243zm1.3-8.682V7.558a.759.759 0 00-.694-.87 2.065 2.065 0 00-.478-.051c-.963 0-1.926-.006-2.889-.012a.843.843 0 01-.915-.923V3.346a7.348 7.348 0 00-.041-.961.729.729 0 00-.817-.73H6.751a1.762 1.762 0 00-1.072.3 1.705 1.705 0 00-.715 1.467v5.469c0 .171.038.223.217.223q3.939-.009 7.877 0h.223a.8.8 0 01.79.793q.013 2.52 0 5.039a.766.766 0 01-.422.683 1.02 1.02 0 01-.533.1H5.17c-.15 0-.21.029-.208.2.01.734 0 1.468 0 2.2a1.743 1.743 0 00.183.83 1.631 1.631 0 001.535.919q4.91.006 9.821 0a1.631 1.631 0 001.552-.945 1.809 1.809 0 00.172-.833q.01-2.623.004-5.245zm-14.027-1.78c-.028.058-.043.094-.063.126l-1.4 2.262a1.726 1.726 0 00-.44 1.239c.024.14.068.209.211.209h3.13c.155 0 .213-.078.21-.226v-.654c0-.233-.036-.27-.267-.27h-1.5c-.091 0-.154 0-.083-.118q.683-1.1 1.362-2.207a1.792 1.792 0 00.461-1.25c-.036-.225-.053-.274-.292-.275h-2.8c-.134 0-.243.029-.243.194v.774a.173.173 0 00.191.193h.43zm4.9 1.362v2.236c0 .2.039.234.23.236h.739c.209 0 .246-.04.246-.256v-1.238c0-.126.02-.18.167-.179a2.158 2.158 0 001.2-.3 1.578 1.578 0 00.714-1.425 1.473 1.473 0 00-1.2-1.554 5.431 5.431 0 00-1.846.009c-.227.03-.244.053-.244.286l.002 2.185zm-2.5-.017v2.2c0 .262.027.29.28.29h.688c.207 0 .258-.047.258-.25v-4.5c0-.184-.062-.241-.253-.242h-.7c-.23 0-.268.04-.268.272q.004 1.112.005 2.23z"/><path d="M10.324 11.545v-.463c0-.066.015-.108.093-.111a1.45 1.45 0 01.393.02.474.474 0 01.376.472.577.577 0 01-.324.623.751.751 0 01-.114.036c-.382.091-.424.059-.424-.318v-.259z"/></g></svg>