<svg xmlns="http://www.w3.org/2000/svg" viewBox="0 0 260 260"><path d="M123 14.7c4.6-3 10.3-3 14.9 0 11.5 7.3 22.5 15.2 33.1 23.7 0 0 2.7 2.1 3-1.5 0 0-.6-10 .6-13.1.9-2.4 3-4 5.5-4 0 0 13.1.6 21.3 1.8 3.6.6 6.4 3.6 6.7 7.3 0 0 5.2 35.3 6.4 48 0 0 .9 6.4 10.3 17.6 0 0 18.8 26.7 21.3 31.9 0 0 4.6 9.4-5.2 10.6 0 0-17.3 1.8-19.1 2.1-2.4.3-4.3 2.4-4 4.9 0 0-.9 61.4-5.5 91.2 0 0-1.2 11.9-7.6 11.5 0 0-17.9-.6-22.2-.6 0 0-1.8 0-1.5-2.4 0 0 9.1-96 3-144.7 0 0-.3-6.4-5.2-7.6 0 0-4.3-1.8-8.5 4 0 0-28.3 36.2-28.3 86.6 0 0-.6 15.5 1.8 19.1 0 0 1.5 2.7 8.8 3.3l9.4 1.2s1.8 0 1.5 2.4c0 0-2.1 28.3-2.7 33.1 0 1.2-.3 2.1-.6 3.3 0 0-.3.9-3.3.9 0 0-41.3-.3-46.2 0 0 0-1.8.3-2.4-.9-.3-1.2-2.7-36.5-2.7-41.3 0-.9.6-2.1 1.5-2.4 6.4-4 10.6-10.6 11.5-18.2 0 0 .6-3 .3-16.1 0 0 1.5-54.1 1.8-62.6 0 0 .3-3-3.6-3.3-1.8-.3-4 .6-4.3 2.7v.3s-2.7 35.6-2.1 49.8c0 0 .9 9.1-5.5 9.4 0 0-6.1.9-6.4-6.7 0 0 .3-34.6 1.8-51.7 0-1.8-1.5-3.6-3.3-3.6-2.1-.3-4 .9-4.3 3v.3s-2.7 33.1-2.1 50.8c0 0 .9 8.5-6.1 8.2 0 0-5.8.6-6.1-7 0 0 1.5-47.4 1.8-51.1.3-2.1-1.2-4-3.3-4.3h-.3c-2.1-.3-4 1.2-4.3 3v.3s-2.4 56.8-2.1 73.2c0 0-.3 17 12.5 24 0 0 1.8 1.2 1.8 2.7 0 0 1.5 30.1 2.7 39.8 0 0 .6 2.4-1.5 2.4l-31.9.9s-5.2.3-6.4-6.1c-.9-6.1-7-56.2-5.8-96 .3-2.4-1.5-4.9-4-5.2 0 0-16.4-1.5-20.4-2.4-3.6-.9-5.8-4.6-4.9-8.2 1.2-1.2 1.5-1.8 1.8-2.4.4.6 35.7-66.6 108.6-111.9" fill="#ed7203"/></svg>