<svg viewBox="0 0 283.46 283.46" xmlns="http://www.w3.org/2000/svg"><path d="M141.74 0C63.44 0 0 63.43 0 141.75c0 78.27 63.44 141.72 141.74 141.72 78.27 0 141.72-63.44 141.72-141.72V0z" fill="#47baeb"/><path d="M96.07 76.38v12.18h19.56v8.63H96.07v20.13h-9.68V67.74h32.65v8.64zm29.72-8.63h9.68v49.57h-9.68zm38.37 8.63h-9.12v13.09h9.12c4.25 0 7.03-2.72 7.03-6.54 0-3.84-2.78-6.55-7.03-6.55m7.51 40.94L162 97.55h-6.96v19.77h-9.68V67.75h19.43c10.09 0 16.08 6.89 16.08 15.18 0 6.96-4.25 11.28-9.05 13.02l11.07 21.37zm31.19.41c-7.52 0-13.23-1.6-18.1-6.54l6.27-6.27c3.14 3.13 7.38 4.17 11.98 4.17 5.71 0 8.77-2.15 8.77-6.12 0-1.74-.49-3.2-1.53-4.18-.98-.91-2.09-1.39-4.39-1.74l-5.99-.84c-4.25-.62-7.38-1.95-9.61-4.1-2.36-2.37-3.55-5.57-3.55-9.75 0-8.84 6.55-15.04 17.27-15.04 6.82 0 11.77 1.67 16.01 5.78l-6.12 6.06c-3.14-2.99-6.9-3.41-10.17-3.41-5.15 0-7.66 2.85-7.66 6.27 0 1.25.42 2.58 1.46 3.55.98.91 2.58 1.67 4.59 1.95l5.85.84c4.53.62 7.38 1.88 9.47 3.83 2.65 2.51 3.83 6.13 3.83 10.51 0 9.61-8 15.03-18.38 15.03m44.77-41.35v40.94h-9.68V76.38H225v-8.64h35.58v8.64zM49.45 179.08v-53.7h33.33v5.13h-27.6v18.93h23.53v5.13H55.18v19.39h27.6v5.12zm58.6 0h-4.67l-17.65-53.7h6.03l13.95 43.45 13.96-43.45h6.03zm24.21 0v-53.7h33.33v5.13h-27.6v18.93h23.53v5.13h-23.53v19.39h27.6v5.12zm77.68 0l-28.5-43.06v43.06h-5.74v-53.7h5.44l28.5 42.92v-42.92h5.73v53.7zm34.93-48.57v48.57h-5.73v-48.57H223.6v-5.12h36.8v5.12z" fill="#fff"/></svg>