<svg viewBox="0 0 170.73 46.83" xmlns="http://www.w3.org/2000/svg"><text font-family="HelveticaNeue, Helvetica Neue" font-size="14" transform="translate(0 15.04)">POWERED B<tspan letter-spacing="-.09em" x="82.71" y="0">Y</tspan><tspan letter-spacing="0em" x="90.5" y="0">:</tspan></text><path d="M101.8 3.79V8.9h8.2v3.62h-8.2v8.43h-4.06V.17h13.69v3.62zM114.26.18h4.06v20.77h-4.06zM133.48 21l-4-8.29h-2.92V21h-4.06V.18h8.14c4.23 0 6.74 2.88 6.74 6.35a5.6 5.6 0 01-3.84 5.47l4.64 9zm-3.15-17.21h-3.82v5.49h3.82a2.71 2.71 0 002.95-2.75 2.71 2.71 0 00-2.95-2.74m16.22 17.33c-3.15 0-5.54-.67-7.59-2.74l2.63-2.63a6.76 6.76 0 005 1.75c2.39 0 3.67-.9 3.67-2.56a2.3 2.3 0 00-.64-1.75 3 3 0 00-1.84-.73l-2.51-.35a7.12 7.12 0 01-4-1.72 5.52 5.52 0 01-1.49-4.09c0-3.7 2.74-6.3 7.24-6.3a8.9 8.9 0 016.71 2.42L151.16 5a5.76 5.76 0 00-4.26-1.43c-2.16 0-3.21 1.2-3.21 2.63a2 2 0 00.61 1.48 3.6 3.6 0 001.93.82l2.45.35a6.84 6.84 0 014 1.61 5.83 5.83 0 011.6 4.4c0 4-3.35 6.3-7.7 6.3m18.73-17.37v17.16h-4.06V3.79h-5.42V.17h14.9v3.62zM82.27 46.83v-22.5h13.96v2.15H84.67v7.93h9.86v2.15h-9.86v8.12h11.56v2.15zm24.55 0h-1.96l-7.39-22.5H100l5.84 18.2 5.85-18.2h2.53zm10.15 0v-22.5h13.96v2.15h-11.56v7.93h9.86v2.15h-9.86v8.12h11.56v2.15zm32.55 0l-11.95-18.05v18.05h-2.4v-22.5h2.27l11.95 17.98V24.33h2.4v22.5zm14.63-20.35v20.35h-2.4V26.48h-6.51v-2.15h15.42v2.15z" fill="#1d1d1b"/></svg>