<svg viewBox="0 0 122 215" xmlns="http://www.w3.org/2000/svg"><path clip-rule="evenodd" d="M15.8 13.5l-.2-.4S36.5 8 36.8 8c.3-.1 3.6.9 3.6.9l-21.6 5.6z" fill="#344758" fill-rule="evenodd"/><path clip-rule="evenodd" d="M18.6 17.4l21.8-6.1V8.9l-22.2 5.8z" fill="#131824" fill-rule="evenodd"/><path clip-rule="evenodd" d="M29.7 28.6l8.5 2.8c.1 0 2.5 1 2.5 1.1L29 99.4c0 .2-4.3.9-4.3.8l-4.9-4.1c-.1-.1-.2-.2-.2-.4l9.9-66.8c0-.2.1-.3.2-.3z" fill="#0a3847" fill-rule="evenodd"/><path clip-rule="evenodd" d="M36.3 37.4l49 21-7.6 57.2-49.1-21z" fill="#f36d00" fill-rule="evenodd"/><path clip-rule="evenodd" d="M81.9 70.2l-3 22c-2.3-3.4-3.5-8.2-2.9-12.9.7-4.7 3-8 5.9-9.1z" fill="#e84909" fill-rule="evenodd"/><path clip-rule="evenodd" d="M41.6 49.2L73.9 63c1.2.5 2 2.5 1.8 4.4L72 94.9c-.3 1.9-1.5 3-2.7 2.5L37 83.5c-1.2-.5-2-2.5-1.8-4.4l3.7-27.4c.2-1.9 1.4-3 2.7-2.5z" fill="#0a3847" fill-rule="evenodd"/><path clip-rule="evenodd" d="M75.1 64.3c.5.9.7 2 .5 3.2L72 94.9c-.3 1.9-1.5 3-2.7 2.5L37 83.5c-.7-.3-1.2-1-1.5-1.9z" fill="#0a3847" fill-rule="evenodd"/><path clip-rule="evenodd" d="M42.7 51.2l29.6 12.7c1.1.5 1.9 2.3 1.6 4l-3.4 25.2c-.2 1.7-1.3 2.7-2.5 2.3L38.4 82.7c-1.1-.5-1.9-2.3-1.6-4l3.4-25.2c.3-1.8 1.4-2.8 2.5-2.3z" fill-rule="evenodd"/><path clip-rule="evenodd" d="M43.8 53l27.1 11.6c1 .4 1.7 2.1 1.5 3.7l-3.1 23c-.2 1.6-1.2 2.5-2.3 2.1L39.9 81.8c-1-.4-1.7-2.1-1.5-3.7l3.1-23c.2-1.6 1.3-2.6 2.3-2.1z" fill="#241512" fill-rule="evenodd"/><path clip-rule="evenodd" d="M62.2 60.9l7.5 3.2-25.1 19.6-4.6-2c-1-.4-1.7-2.1-1.5-3.7l.1-.4z" fill="#332423" fill-rule="evenodd"/><path clip-rule="evenodd" d="M86.7 59l-.5 4.3-3.3-1.4.5-4.3z" fill="#0f121c" fill-rule="evenodd"/><path d="M43.4 61.2l-1.1 12.4 2.9 1.4 2-5.2.8 6.5 2.7.7 2.2-12-2.6-1.2-1.1 6.7-.4-5.5-1.8-.7-1.7 4.8.8-7zM54 65.7l-1.6 12.4 2.9 1 1.6-12.4zm11.4 4.7l-2.6-1.1-.6 4-1.5-4.9-2.5-.7-1.5 11.9 2.5 1.1 1-7 1.4 4.1-.5 3.8 2.6 1.1zm.2 10l-.4 3.3 2.6 1 .5-3.3z" fill="#f36d00"/><path clip-rule="evenodd" d="M43.5 74.1l1.7.8 1.1-2.8zm3.9-2.8l.6 4.9 2.6.7 1.7-9.2-3 2.1-.1.5v-.5zm15.5-1.9l-.2.1v-.2zm-1.5 1.2l-3.9 3.1.8-6 2.5.7zm-5.6 4.3l-3.3 2.6 1.4-10.7L55 66l1.9.7z" fill="#f36d00" fill-rule="evenodd"/><path d="M66.1 75.4l-.3 3.6v.3l.2.1 2.2.8.2.1v-.2l.7-3.4.6-4.2v-.3l-.2-.1-2.7-1-.2-.1v.3zM43.5 61.6l-1 11.8 2.5 1.2 2-5 .3-.7.1.8.8 6.3 2.3.7 2.1-11.5-2.1-1-1.1 6.4-.3 1.6-.1-1.7-.4-5.4-1.5-.6-1.6 4.6-.6 1.7.2-1.9.8-6.7zm-1.4 11.9l1-12.4v-.3l.2.1 2.7.9.2.1v.3l-.6 5.1 1.1-3.1.1-.2h.2l1.8.7.1.1v.2l.3 3.9.8-5.1v-.3l.2.1 2.5 1.2.2.1-.1.3-2.2 12v.2h-.2l-2.6-.7h-.1v-.2l-.7-5.7-1.8 4.5-.1.2-.1-.1-2.9-1.4-.2-.1zM54.2 66l-1.5 11.9 2.4.8 1.5-11.8zm-2 12.1l1.6-12.5v-.3l.2.1 2.9 1.1.2.1v.3l-1.6 12.4v.3l-.2-.1-2.8-.9-.2-.1zm13-7.5l-2.3-.9-.5 3.7-.1.9-.3-.8-1.5-4.8-2.2-.6-1.5 11.4 2.1 1 1-6.7.1-.8.3.8 1.4 4.1v.2l-.4 3.5 2.2.9zM62.8 69l2.7 1.1.2.1v.3L64 82.7v.3l-.2-.1-2.6-1-.2-.1v-.3l.4-3.7-1.1-3.3-.9 6.2v.3l-.2-.1-2.5-1.1-.2-.1v-.3L58 67.5v-.3l.2.1 2.5.7h.1v.2l1.3 4.1.4-3.1v-.3zm3 11.7l-.3 2.8 2.2.9.4-2.7zm-.7 2.9l.4-3.3V80l.2.1 2.7 1 .2.1v.3l-.5 3.3v.3l-.2-.1-2.6-1-.2-.1z" fill="#fff"/><path d="M73.4 52.1V52zm.2-1.7v-.1z" fill="#f60"/><path clip-rule="evenodd" d="M18.8 17.1l21.6-5.8 52.7 21.4-24.2 5.8z" fill="#344758" fill-rule="evenodd"/><path clip-rule="evenodd" d="M29.2 94.3L78 114.5c1.3.5 2.4 2.8 2.3 5l-3.8 86.3c-.1 2.2-2.3 4.9-3.6 4.3l-46.8-24.2c-1.3-.7-2.4-2.8-2.3-5l2.8-83.6c.1-2.2 1.3-3.5 2.6-3z" fill="#0f121a" fill-rule="evenodd"/><path clip-rule="evenodd" d="M8.9 101.8l67.9 12.6c1.3.3 2.2 2.7 2.2 4.8L76.3 199c-.1 2.1-1.2 3.4-2.4 2.9l-46.6-19.3c-1.3-.5-1.7-2.7-2.2-4.8L7.9 103.4c-.5-2.1-.3-1.9 1-1.6zm21.7-66.6l49.7 20.6.9 2-11.3-.3-40.6-16.4z" fill="#0a3847" fill-rule="evenodd"/><path clip-rule="evenodd" d="M28.1 31l2.2 1.2c.1.1.2.2.2.4L21 100.4c0 .2-.1.4-.2.3l-1.4-3.1c-.1-.1-.2-.2-.2-.4l.9-4.8 7.8-61.1c.1-.2.1-.3.2-.3z" fill="#1c2432" fill-rule="evenodd"/><path d="M26.3 133.5l17 8.4c1.2.6 2.3 1.7 3.3 3.1.9 1.4 1.7 3 2 4.5l2.3 12.8c.3 1.5.1 2.7-.5 3.3s-1.5.7-2.7.2l-17-8.4c-1.2-.6-2.3-1.7-3.3-3.1-.9-1.4-1.7-3-2-4.5L23.1 137c-.3-1.5-.1-2.7.5-3.3.6-.7 1.6-.8 2.7-.2zm17.2 9.9l-17-8.4c-.8-.4-1.5-.3-1.9.1-.4.5-.6 1.3-.4 2.4l2.3 12.8c.2 1.1.7 2.3 1.4 3.3s1.5 1.8 2.4 2.2l17 8.4c.8.4 1.5.3 1.9-.1.4-.5.6-1.3.4-2.4l-2.3-12.8c-.2-1.1-.7-2.3-1.4-3.3s-1.5-1.8-2.4-2.2z" fill="#0f121c"/><path clip-rule="evenodd" d="M27.3 141c.7.4 1.5 1.4 1.7 2.4l.7 3.9c.2 1-.3 1.5-1 1.1-.7-.4-1.5-1.4-1.7-2.4l-.7-3.9c-.2-1 .3-1.5 1-1.1z" fill="#f36d00" fill-rule="evenodd"/><path clip-rule="evenodd" d="M28.1 143.5l.5 2.8c.1.6-.6.3-.7-.4l-.5-2.8c-.1-.6.6-.3.7.4z" fill="#0f121c" fill-rule="evenodd"/><path clip-rule="evenodd" d="M18.7 18.5l49.8 20.6-.5 13.8-49.8-20.6z" fill="#205e9b" fill-rule="evenodd"/><path clip-rule="evenodd" d="M16.6 17.7l.1-1.5 52.2 21.6v1.5z" fill="#1c2432" fill-rule="evenodd"/><g fill="#1574f5"><path d="M18.6 19.9l.4-.5-.1 1.1.8.7h-.8v1.1l-.3-.8zm2.3 2.1h-.8l.5-.7-.4-1.1.8.7.5-.7-.1 1.1.8.7h-.8v1.1zm2.5 1.1h-.8l.5-.7-.4-1.1.7.6.5-.6v1.1l.8.6-.8.1-.1 1.1zm2.5 1h-.8l.5-.7-.5-1.1.8.7.5-.7v1.1l.7.7h-.8v1.1zm2.4 1.1h-.8l.6-.7-.5-1.1.8.7.5-.7v1.1l.7.7h-.8v1.1zm2.5 1H30l.5-.7-.4-1.1.8.7.5-.7-.1 1.1.8.7h-.8v1.1zm2.5 1.1h-.8l.5-.7-.4-1.1.7.7.5-.7v1.1l.8.7h-.8l-.1 1.1zm2.5 1l-.8.1.5-.7-.5-1.2.8.7.5-.7v1.1l.7.7h-.8v1.2zm2.4 1.1h-.8l.6-.7-.5-1.1.8.7.5-.7v1.1l.7.7h-.8v1.1zm2.5 1.1h-.8l.5-.7-.4-1.1.8.6.5-.7-.1 1.2.8.6h-.8v1.2zm2.5 1h-.8l.5-.7-.4-1.1.7.7.5-.7v1.1l.8.7h-.8l-.1 1.1zm2.5 1.1h-.8l.5-.7-.5-1.1.8.6.5-.7v1.2l.7.6-.8.1v1.1zm2.4 1h-.8l.6-.7-.5-1.1.8.7.5-.7v1.1l.7.7h-.8v1.1zm2.5 1.1h-.8l.5-.7-.4-1.1.8.6.5-.6-.1 1.1.8.6-.8.1v1.1zm2.5 1h-.8l.5-.7-.4-1.1.7.7.5-.7V35l.8.7h-.8l-.1 1.1zm2.5 1.1h-.8l.5-.7-.5-1.1.8.7.5-.7v1.1l.7.7H56v1.1zm2.4 1h-.8l.6-.7-.5-1.1.8.7.5-.7v1.1l.7.7h-.8v1.1zm2.5 1.1h-.8l.5-.7-.4-1.1.8.7.5-.7-.1 1.1.8.7H61V40zm2.5 1l-.8.1.5-.7-.4-1.2.7.7.5-.7v1.1l.8.7h-.8l-.1 1.2zm2.5 1.1h-.8l.5-.7-.5-1.1.8.7.5-.7v1.1l.7.7h-.8v1.1zm2.4 1.1h-.8l.6-.7-.5-1.1.8.6.4-.6-.1 2.7z"/><path d="M19.6 23.8h-.8l.5-.7-.4-1.1.7.7.5-.7v1.1l.8.7h-.8l-.1 1.1zm2.5 1.1h-.8l.5-.7-.5-1.1.8.6.5-.6v1.1l.7.6-.8.1V26zm2.4 1h-.8l.6-.7-.5-1.1.8.7.5-.7-.1 1.1.8.7H25V27zM27 27h-.8l.5-.7-.4-1.1.7.7.6-.7-.1 1.1.8.7h-.8l-.1 1.1zm2.5 1h-.8l.5-.7-.4-1.1.7.7.5-.7v1.1l.8.7H30l-.1 1.1zm2.5 1.1h-.8l.5-.7-.5-1.1.8.7.5-.7v1.1l.7.7h-.8v1.1zm2.4 1l-.8.1.6-.7-.5-1.2.8.7.5-.7-.1 1.1.8.7h-.8v1.2zm2.5 1.1h-.8l.5-.7-.4-1.1.7.7.6-.7-.1 1.1.8.7h-.8l-.1 1.1zm2.5 1.1h-.8l.5-.7-.4-1.1.7.6.5-.7v1.2l.8.6h-.8l-.1 1.2zm2.5 1h-.8l.5-.7-.5-1.1.8.7.5-.7v1.1l.7.7h-.8v1.1zm2.4 1.1h-.8l.6-.7-.5-1.1.8.6.5-.7-.1 1.2.8.6-.8.1v1.1zm2.5 1H46l.5-.7-.4-1.1.7.7.6-.7-.1 1.1.8.7h-.8l-.1 1.1zm2.5 1.1h-.8l.5-.7-.4-1.1.7.6.5-.6v1.1l.8.6-.8.1-.1 1.1zm2.5 1H51l.5-.7-.5-1.1.8.7.5-.7v1.1l.7.7h-.8v1.1zm2.4 1.1h-.8l.6-.7-.5-1.1.8.7.5-.7-.1 1.1.8.7h-.8v1.1zm2.5 1h-.8l.5-.7-.4-1.1.7.7.6-.7-.1 1.1.8.7h-.8l-.1 1.1zm2.5 1.1h-.8l.5-.7-.4-1.1.7.7.5-.7V40l.8.7h-.8l-.1 1.1zm2.5 1l-.8.1.5-.7-.5-1.2.8.7.5-.7V41l.7.7h-.8v1.2zm2.4 1.1h-.8l.6-.7-.5-1.1.8.7.5-.7-.1 1.1.8.7h-.8v1.1zm2.5 1.1h-.8l.5-.7-.4-1.1.7.6.6-.7-.1 1.2.8.6h-.8L67 45zM19.8 19.4H19l.3-.4.9.5v1zm2.4.8h-.7l.3-.4.9.4v1.1zm2.5 1.1h-.8l.4-.5 1 .5h-.1v1.1zm2.5 1h-.8l.3-.4 1.1.4h-.1l-.1 1.1zm2.5 1.1h-.8l.3-.5 1.2.5h-.2l-.1 1.1zm2.4 1h-.7l.3-.5 1.2.5h-.3v1.1zm2.5 1.1h-.8l.4-.5 1.3.5h-.4v1.1zm2.5 1l-.8.1.4-.6 1.3.5h-.4l-.1 1.1zm2.5 1.1h-.8l.4-.6 1.4.6h-.5l-.1 1.1zm2.4 1l-.7.1.4-.6 1.4.5h-.6v1.2zm2.5 1.1h-.8l.5-.6 1.4.6H45v1.1zm2.5 1.1h-.8l.5-.7 1.5.6h-.7l-.1 1.2zm2.5 1h-.8l.5-.7 1.5.7H50l-.1 1.1zm2.4 1.1h-.7l.5-.7 1.5.6-.8.1V34zm2.5 1h-.8l.5-.7 1.5.6.1.1h-.8V35zm2.5 1.1h-.8l.5-.7v-.1l1.4.6.2.2h-.8l-.1 1.1zm2.5 1h-.8l.5-.7-.1-.1 1.4.6.2.2h-.7l-.1 1.1zm2.4 1.1h-.7l.5-.7-.1-.2 1.3.6.3.3h-.8v1.1zm2.5 1l-.8.1.5-.7v-.2l1.2.5.4.3h-.8v1.1zm2.5 1.1H66l.5-.7-.1-.2 1.2.5.5.4h-.8l-.1 1.1zM19.3 28.5h-.8l.5-.7-.4-1.1.8.6.5-.7-.1 1.2.8.6-.8.1v1.1zm2.5 1H21l.5-.7-.4-1.1.7.7.6-.7-.1 1.1.8.7h-.8l-.1 1.1zm2.5 1.1h-.8l.5-.7-.4-1.1.7.6.5-.7v1.2l.7.6-.7.1-.1 1.1zm2.4 1H26l.5-.7-.5-1.1.8.7.5-.7v1.1l.7.7h-.8v1.1zm2.5 1.1h-.8l.5-.7-.4-1.1.8.7.5-.7-.1 1.1.8.7h-.8v1.1zm2.5 1h-.8l.5-.7-.4-1.1.7.7.6-.7-.1 1.1.8.7h-.8l-.1 1.1zm2.5 1.1h-.8l.5-.7-.4-1.1.7.7.5-.7v1.1l.7.7h-.7l-.1 1.1zm2.4 1l-.7.1.5-.7-.5-1.2.8.7.5-.7v1.1l.7.7h-.8V37zm2.5 1.1h-.8l.5-.7-.4-1.1.8.7.5-.7-.1 1.1.8.7h-.8V38zm2.5 1l-.8.1.5-.7-.4-1.1.7.6.6-.7-.1 1.2.8.6h-.8l-.1 1.2zm2.5 1.1h-.8l.5-.7-.4-1.1.7.7.5-.7v1.1l.7.7h-.7l-.1 1.1zm2.4 1.1h-.7l.5-.7-.5-1.1.8.6.5-.7v1.2l.7.6-.8.1v1.1zm2.5 1h-.8l.5-.7-.4-1.1.8.7.5-.7-.1 1.1.8.7h-.8v1.1zm2.5 1.1h-.8l.5-.7-.4-1.1.7.6.6-.7-.1 1.2.8.6-.8.1-.1 1.1zm2.5 1h-.8l.5-.7-.4-1.1.7.7.5-.7v1.1l.7.7h-.7l-.1 1.1zm2.4 1.1h-.7l.5-.7-.5-1.1.8.7.5-.7v1.1l.7.7h-.8v1.1zm2.5 1h-.8l.5-.7-.4-1.1.8.7.5-.7-.1 1.1.8.7h-.8v1.1zm2.5 1.1h-.8l.5-.7-.4-1.1.7.7.6-.7-.1 1.1.8.7h-.8l-.1 1.1zm2.5 1l-.8.1.5-.7-.4-1.2.7.7.5-.7v1.1l.7.7h-.7l-.1 1.2zm2.4 1.1h-.7l.5-.7-.5-1.1.8.7.5-.7v1.1l.7.7h-.8v1.1zM18.3 29l.2-.3v1.1l.8.7h-.8l-.1 1.1-.2-.4z"/><path d="M20.5 31.3h-.8l.5-.7-.5-1.1.8.7.5-.7v1.1l.7.7h-.8v1.1zm2.4 1.1h-.8l.6-.7-.5-1.1.8.6.5-.7v1.2l.7.6-.8.1v1.1zm2.5 1h-.8l.5-.7-.4-1.1.8.7.5-.7-.1 1.1.8.7h-.8v1.1zm2.5 1.1h-.8l.5-.7-.4-1.1.7.7.5-.7v1.1l.8.7h-.8l-.1 1.1zm2.5 1h-.8l.5-.7-.5-1.1.8.7.5-.7v1.1l.7.7h-.8v1.1zm2.4 1.1H32l.6-.7-.5-1.1.8.7.5-.7v1.1l.7.7h-.8v1.1zm2.5 1l-.8.1.5-.7-.4-1.2.8.7.5-.7-.1 1.1.8.7h-.8v1.2zm2.5 1.1H37l.5-.7-.4-1.1.7.7.5-.7V38l.8.7h-.8l-.1 1.1zm2.5 1.1h-.8l.5-.7-.5-1.1.8.6.5-.7v1.2l.7.6h-.8v1.2zm2.4 1h-.8l.6-.7L42 39l.8.7.5-.7v1.1l.7.7h-.8v1.1zm2.5 1.1h-.8l.5-.7-.4-1.1.8.6.5-.7-.1 1.2.8.6-.8.1V43zm2.5 1h-.8l.5-.7-.4-1.1.7.7.5-.7v1.1l.8.7h-.8l-.1 1.1zm2.5 1.1h-.8l.5-.7-.5-1.1.8.6.5-.6v1.1l.7.6-.8.1v1.1zm2.4 1h-.8l.6-.7-.5-1.1.8.7.5-.7v1.1l.7.7h-.8v1.1zm2.5 1.1h-.8l.5-.7-.4-1.1.8.7.5-.7-.1 1.1.8.7h-.8v1.1zm2.5 1h-.8l.5-.7-.4-1.1.7.7.5-.7v1.1l.8.7h-.8l-.1 1.1zm2.5 1.1h-.8l.5-.7-.5-1.1.8.7.5-.7v1.1l.7.7h-.8v1.1zm2.4 1l-.8.1.6-.7-.5-1.2.8.7.5-.7v1.1l.7.7H63v1.2zm2.5 1.1h-.8l.5-.7-.4-1.1.8.7.5-.7-.1 1.1.8.7h-.8v1.1zm2.5 1.1h-.8l.5-.7-.4-1.1.7.6.5-.7v1.2h.1l-.1.6-.1 1.2zm-49-27l.2-.4v1.2l.7.6-.7.1-.1 1.1-.2-.6zm2.2 2.3h-.8l.5-.7-.5-1.1.8.6.5-.7V26l.7.6h-.8v1.2zm2.4 1h-.8l.6-.7-.5-1.1.8.7.5-.7-.1 1.1.8.7h-.8v1.1zm2.5 1.1h-.8l.5-.7-.4-1.1.7.6.6-.7-.1 1.2.8.6-.8.1-.1 1.1zm2.5 1h-.8l.5-.7-.4-1.1.7.7.5-.7v1.1l.8.7h-.8l-.1 1.1zm2.5 1.1h-.8l.5-.7-.5-1.1.8.7.5-.7v1.1l.7.6-.8.1V32zm2.4 1h-.8l.6-.7-.5-1.1.8.7.5-.7-.1 1.1.8.7h-.8V33zm2.5 1.1h-.8l.5-.7-.4-1.1.7.7.6-.7-.1 1.1.8.7H36l-.1 1.1zm2.5 1h-.8l.5-.6-.4-1.2.7.7.5-.7v1.1l.8.7h-.8l-.1 1.1zm2.5 1.1h-.8l.5-.7-.5-1.1.8.7.5-.7v1.1l.7.7h-.8v1.1zm2.4 1l-.8.1.6-.7-.5-1.2.8.7.5-.7-.1 1.1.8.7h-.8v1.2zm2.5 1.1h-.8l.5-.7-.4-1.1.7.7.6-.7-.1 1.1.8.7h-.8l-.1 1.1zm2.5 1.1h-.8l.5-.7-.4-1.1.7.6.5-.7v1.2l.8.6h-.8l-.1 1.2zm2.5 1h-.8l.5-.7-.5-1.1.8.7.5-.7v1.1l.7.7h-.8v1.1zm2.4 1.1H52l.6-.7-.5-1.1.8.6.5-.7-.1 1.2.8.6-.8.1v1.1zm2.5 1h-.8l.5-.7-.4-1.1.7.7.6-.7-.1 1.1.8.7h-.8l-.1 1.1zm2.5 1.1H57l.5-.7-.4-1.1.7.7.5-.7v1.1l.8.6-.8.1-.1 1.1zm2.5 1h-.8l.5-.7-.5-1.1.8.7.5-.7v1.1l.7.7h-.8v1.1zm2.4 1.1h-.8l.6-.7-.5-1.1.8.7.5-.7-.1 1.1.8.7h-.8v1.1zm2.5 1l-.8.1.5-.7-.4-1.2.7.7.6-.7-.1 1.1.8.7h-.8l-.1 1.1zm2.5 1.1h-.8l.5-.7-.4-1.1.7.7.5-.7v1.8l-.1 1.1z"/></g><path clip-rule="evenodd" d="M16 31.4l.1-1.4 52.2 21.6v1.5z" fill="#1c2432" fill-rule="evenodd"/><path clip-rule="evenodd" d="M15.7 13.2l3 1.2c.1 0 .2.2.2.4l-.6 17.6-3.4-1.4.6-17.6c0-.2.1-.3.2-.2zm52.9 22.3l3 1.2c.1 0 .2.2.2.4L71.2 54l-3.4-1.4.6-16.9c0-.1.1-.2.2-.2z" fill="#243140" fill-rule="evenodd"/><path clip-rule="evenodd" d="M16.1 15l2 .9-.5 15-2-.9zm53 21.8l2 .9-.5 15-2-.9z" fill="#344758" fill-rule="evenodd"/><path clip-rule="evenodd" d="M29.2 89.9c-.3 2.6-.3 3-2.4 4.5-4.7 3.2-14 7.8-18.9 10.3L53.7 126l24.8-14z" fill="#f36d00" fill-rule="evenodd"/><path clip-rule="evenodd" d="M29.2 89.9c-.2 1.7-.3 2.5-.9 3.2l46.1 21.1 4-2.3z" fill="#f36d00" fill-rule="evenodd"/><path clip-rule="evenodd" d="M21.5 93.6l-15.2 11-2-1 15.8-11.2 1.9.7z" fill="#344758" fill-rule="evenodd"/><path clip-rule="evenodd" d="M24.2 91.3S7.1 103.8 7.1 104.1c0 .4 1.2.5 1.2.5l13.1-7 4.1-2.3s3.1-1.5 3.1-3.3.2-2.1.2-2.1-4.7.4-4.6 1.4z" fill="#0a3847" fill-rule="evenodd"/><path clip-rule="evenodd" d="M81.5 43.3l3 1.2c.1 0 .2.2.2.4l-13 82.3c0 .2-.1.2-.2.3l-3.1 1.1c-.1 0-.2-.2-.2-.4l13.1-84.6c.1-.3.1-.4.2-.3z" fill="#1c2432" fill-rule="evenodd"/><path clip-rule="evenodd" d="M114.8 187.5L72 211.3l-18.1-84.4 18.7-13.8 8.9-56.2-10.3-2.8.6-16.9 21.6-5.7 21.5 13.4zM8.3 104.7l-.7-1.1-1.3 1L5 106l21.4 81.7 2-.8z" fill="#0a3847" fill-rule="evenodd"/><path clip-rule="evenodd" d="M5.4 104.1l-1.1-.5L24 185.7c.1.6 2.3 2 2.3 2l-20-83.1z" fill="#1c2432" fill-rule="evenodd"/><path clip-rule="evenodd" d="M69.2 35.8l-.6-.2s20.8-5 21.1-5.1 3.7 1.1 3.7 1.1l-21.6 5.7-.1-.3z" fill="#3a5669" fill-rule="evenodd"/><path clip-rule="evenodd" d="M8.7 106.9l44.4 21 1-2.2-45.8-21z" fill="#f36d00" fill-rule="evenodd"/><path clip-rule="evenodd" d="M71.8 113.6l-17.9 13.3-2-1 18.8-13.6 1.9.8z" fill="#344758" fill-rule="evenodd"/><path clip-rule="evenodd" d="M53 126.4l-1.1-.5 17.4 83.6c.1.6 2.7 1.8 2.7 1.8l-18.1-84.4z" fill="#1c2432" fill-rule="evenodd"/><path clip-rule="evenodd" d="M49.8 105.1c2.7 1.1 4.2 3.2 3.4 4.8s-3.6 2-6.3.9-4.2-3.2-3.4-4.8 3.6-2 6.3-.9zm3 9c2.7 1.1 4.2 3.2 3.4 4.8s-3.6 2-6.3.9-4.2-3.2-3.4-4.8 3.7-2 6.3-.9z" fill="#f36d00" fill-rule="evenodd"/><path clip-rule="evenodd" d="M49.7 105.2c2.5 1 4 3.1 3.2 4.6s-3.5 1.9-6 .8c-2.5-1-4-3.1-3.2-4.6s3.5-1.8 6-.8zm3.1 9c2.5 1 4 3.1 3.2 4.6s-3.5 1.9-6 .8c-2.5-1-4-3.1-3.2-4.6s3.5-1.9 6-.8z" fill="#0f121a" fill-rule="evenodd"/><path clip-rule="evenodd" d="M40.8 109.2c2.7 1.1 4.2 3.2 3.4 4.8s-3.6 2-6.3.9-4.2-3.2-3.4-4.8 3.7-2 6.3-.9z" fill="#f36d00" fill-rule="evenodd"/><path clip-rule="evenodd" d="M40.8 109.3c2.5 1 4 3.1 3.2 4.6s-3.5 1.9-6 .8c-2.5-1-4-3.1-3.2-4.6.7-1.5 3.4-1.9 6-.8z" fill="#0f121a" fill-rule="evenodd"/><path clip-rule="evenodd" d="M40.7 109.2c2.3.9 3.6 2.8 2.9 4.2s-3.1 1.7-5.5.8c-2.3-.9-3.6-2.8-2.9-4.2.8-1.5 3.2-1.8 5.5-.8z" fill="#131824" fill-rule="evenodd"/><path clip-rule="evenodd" d="M49.8 105c2.3.9 3.6 2.8 2.9 4.2s-3.1 1.7-5.5.8c-2.3-.9-3.6-2.8-2.9-4.2.8-1.4 3.2-1.7 5.5-.8z" fill="#1574f5" fill-rule="evenodd"/><path clip-rule="evenodd" d="M52.8 114.1c2.3.9 3.6 2.8 2.9 4.2s-3.1 1.7-5.5.8c-2.3-.9-3.6-2.8-2.9-4.2s3.1-1.7 5.5-.8z" fill="#131824" fill-rule="evenodd"/><path clip-rule="evenodd" d="M40.8 109.1c2.3.9 3.6 2.8 2.9 4.2s-3.1 1.7-5.5.8c-2.3-.9-3.6-2.8-2.9-4.2.8-1.4 3.2-1.8 5.5-.8zm12 4.9c2.3.9 3.6 2.8 2.9 4.2s-3.1 1.7-5.5.8c-2.3-.9-3.6-2.8-2.9-4.2s3.2-1.7 5.5-.8z" fill="#1574f5" fill-rule="evenodd"/><path clip-rule="evenodd" d="M40.8 109.2c1.9.8 3 2.3 2.4 3.4s-2.6 1.4-4.5.6-3-2.3-2.4-3.4 2.6-1.4 4.5-.6zm9-4.2c1.9.8 3 2.3 2.4 3.4s-2.6 1.4-4.5.6-3-2.3-2.4-3.4 2.6-1.4 4.5-.6zm3 8.9c1.9.8 3 2.3 2.4 3.4s-2.6 1.4-4.5.6-3-2.3-2.4-3.4 2.6-1.3 4.5-.6z" fill="#1574f5" fill-rule="evenodd"/><path clip-rule="evenodd" d="M39.9 109.3c.7.3 1.1.9.9 1.3s-1 .5-1.7.2-1.1-.9-.9-1.3 1-.5 1.7-.2zm8.8-4.1c.7.3 1.1.9.9 1.3s-1 .5-1.7.2-1.1-.9-.9-1.3 1-.5 1.7-.2zm3.1 9c.7.3 1.1.9.9 1.3s-1 .5-1.7.2-1.1-.9-.9-1.3 1-.5 1.7-.2z" fill="#2f9dc3" fill-rule="evenodd"/><path clip-rule="evenodd" d="M28.5 98.2c3 .4 5.5 1.8 6.7 3.3l.9.1-.2 1.6v.5c-.3 2.5-4.1 3.9-8.4 3.3-4.4-.6-7.7-3.2-7.4-5.6 0-.2.1-.4.1-.5l.2-1.6.9.1c1.5-1.1 4.2-1.6 7.2-1.2z" fill="#0f121a" fill-rule="evenodd"/><path clip-rule="evenodd" d="M28.7 96.7c4.4.6 7.7 3.2 7.4 5.6-.3 2.5-4.1 3.9-8.4 3.3-4.4-.6-7.7-3.2-7.4-5.6.3-2.5 4-3.9 8.4-3.3z" fill="#1c2432" fill-rule="evenodd"/><path clip-rule="evenodd" d="M28.5 98.1c2.9.4 5.2 2.1 5 3.8s-2.8 2.7-5.7 2.2c-2.9-.4-5.2-2.1-5-3.8.2-1.6 2.8-2.6 5.7-2.2z" fill="#1574f5" fill-rule="evenodd"/><path clip-rule="evenodd" d="M29.4 101.2l.7-18-2-.1-.7 18-.1.1c0 .3.4.5 1 .5s1-.2 1.1-.4v-.1z" fill="#a3bdc3" fill-rule="evenodd"/><path clip-rule="evenodd" d="M27.6 101.6c.1.1.3.1.5.1l.3-7.9h-.5z" fill="#d1dbd7" fill-rule="evenodd"/><path clip-rule="evenodd" d="M29.2 101.2l.4-10.9h-.5l-.4 11.4c.3-.1.6-.2.6-.4-.1 0-.1 0-.1-.1z" fill="#525e61" fill-rule="evenodd"/><path clip-rule="evenodd" d="M29.7 94.7l.1-3.7c-.3-.1-.7-.2-1.1-.2-.3 0-.6 0-.9.1l-.1 3.8c.3.1.6.1.9.1.4 0 .8 0 1.1-.1z" fill="#525e61" fill-rule="evenodd"/><path clip-rule="evenodd" d="M29 80.1c4 .2 7 3.5 6.9 7.4-.2 4-3.5 7-7.4 6.9-4-.2-7-3.5-6.9-7.4.1-4 3.5-7.1 7.4-6.9z" fill="#1574f5" fill-rule="evenodd"/><path clip-rule="evenodd" d="M28.9 80.7c2.2.1 4 1.3 5.1 3-1-.6-2.1-.9-3.3-1-3.9-.2-7.3 2.9-7.5 6.8-.4-.9-.7-1.9-.6-2.9 0-3.4 2.9-6 6.3-5.9z" fill="#1574f5" fill-rule="evenodd"/><path clip-rule="evenodd" d="M32.5 81.9c1.7 1.2 2.7 3.2 2.7 5.4-.1 3.5-3.1 6.3-6.6 6.2-2-.1-3.7-1-4.8-2.4 1 .7 2.2 1.2 3.5 1.2 3.5.1 6.5-2.6 6.6-6.2 0-1.6-.5-3.1-1.4-4.2z" fill="#1574f5" fill-rule="evenodd"/><path clip-rule="evenodd" d="M30.3 28.3l12.6 2.1 12.6 8.4.3 3.2-13.2-2-12.4-8.3z" fill="#fff" fill-rule="evenodd"/><path clip-rule="evenodd" d="M23.5 27.2l7.4 1.2-.5 1.2-.2 2.1zm8.7 1.4l10.7 1.7 10.4 6.9-.2 4.4L42.6 40l-9.8-6.5.2.1-.1-3.1zm23.2 10.1l6.7 4.4-6.7-1.1v-.6l-1.2-.5v-.6l.8.4v-1.1l-.8-.3v-.6l1.1.4zM32 32.9l-.8-.6v-.4l.8.2zm-.8-2.1l.1-.7.3-.7.3 1v.6zm5.6 4.4l1-.2-.6-1.6.4-.1v-2.6l-.8-.5-1.7-.6-.1 4.8 1.1.4v-1.5h.2zm-.8-4.1v1.1l.6.2v-1zm4.7 4.3l.1-2.2 1 .4v-1.3l-2.1-.6-.1 4.5 2.2 1.1v-1.4zm5.7.6l-.7-2.2-1-.4-.8 1.7-.2 2.7 1 .4.1-.8.8.2v1l1 .4zm-1.7.4l.7.2V36l-.3-1-.3.7zm5.8-.5l-2-.7-.1 4.7 2 .9.7-.8.2-2.7zm-1 3.1l.7.2.1-2-.7-.3z" fill="#0a3847" fill-rule="evenodd"/></svg>