<svg xmlns="http://www.w3.org/2000/svg" width="1288.486" height="1534"><path d="M197.482 282.58c16.378-41.134 41.497-71.639 74.637-90.688 144.057-82.719 404.198 92.469 592.242 398.843l.135.233c3.318 5.747.247 13.799-6.967 18.133-7.32 4.396-16.113 3.277-19.647-2.472C662.88 321.484 409.347 141.28 284.26 213.105c-25.774 14.796-45.707 39.552-59.248 73.56-55.026 138.151 2.74 395.059 143.732 639.263 178.758 309.619 442.124 506.326 575.115 429.543 30.778-17.77 58.58-63.82 76.244-126.341 87.316-308.864-87.828-666.627-287.453-868.344-4.75-4.892-3.39-13.127 3.133-18.502 6.549-5.362 15.761-5.77 20.567-.905 333.762 337.162 340.723 717.549 292.216 889.131-20.206 71.462-53.056 123.363-92.487 146.128-152.567 88.085-422.303-103.11-614.075-435.27-144.029-249.465-202.11-514.205-144.522-658.787z" fill="#757575" opacity=".1"/></svg>