<svg xmlns="http://www.w3.org/2000/svg" width="146.771" height="103.947"><path d="M10.345 4.893a162.01 162.01 0 0023.539 31.628c7.965 8.21 17.677 15.83 29.718 23.284a177.286 177.286 0 0034.812 16.632c9.379 3.28 19.353 6.49 29.495 8.247a25.441 25.441 0 00-9.16 2.203 1.147 1.147 0 00-.637 1.29 1.328 1.328 0 001.182 1.082 47.256 47.256 0 008.354-.51c1.884-.226 3.831-.46 5.703-.523.87-.03 1.748-.07 2.627-.11 1.65-.076 3.354-.153 5.018-.158a5.27 5.27 0 002.305.026 1.815 1.815 0 001.659-1.35 2.393 2.393 0 00-.79-2.572 8.618 8.618 0 00-2.549-1.086 10.789 10.789 0 01-1.86-.69 51.076 51.076 0 01-5.236-3.222l-.585-.409c-2.548-1.773-5.725-3.984-7.03-6.786a2.015 2.015 0 00-.75-.873 1.99 1.99 0 00-1.805-.118 2.3 2.3 0 00-1.48 2.792c.767 2.459 2.727 4.516 4.748 6.177a767.563 767.563 0 00-6.243-1.52 216.628 216.628 0 01-21.8-6.06 176.03 176.03 0 01-33.93-16.052C53.11 48.43 43.86 41.307 36.525 33.78c-8.535-8.762-15.72-18.85-22.668-28.605l-1.232-1.73a1.352 1.352 0 00-2.281 1.449" fill="#8701fc"/></svg>