<svg xmlns="http://www.w3.org/2000/svg" width="1271" height="649"><path d="M635.494 0c267.632 0 507.628 76.309 597.206 189.9 25.493 32.308 38.368 66.716 38.3 102.258-.364 154.455-262.171 282.483-596.04 291.469h-.25c-6.165 0-11.218-6.216-11.354-14.039-.136-7.938 4.848-14.5 11.115-14.67 310.73-8.354 573.5-128.732 573.82-262.846.068-27.632-10.593-55.193-31.666-81.907-85.6-108.535-319.144-181.456-581.132-181.456-332.166 0-612.787 120.621-612.787 263.406 0 33.044 24.138 76.84 66.238 120.133C296.9 626.145 666.127 651.438 921.167 584.474c6.142-1.55 12.133 3.373 13.433 11.126 1.272 7.766-2.679 15.374-8.822 16.981-426.335 112.008-735.635-59.227-851.159-178.054C26.5 385.032 0 334.446 0 292.115 0 128.315 279.144 0 635.494 0" fill="#1c2636"/></svg>