<svg xmlns="http://www.w3.org/2000/svg" width="30" height="28.693"><path d="M15 0A14.856 14.856 0 000 14.711a14.738 14.738 0 0010.256 13.957c.75.138 1.025-.317 1.025-.707 0-.349-.012-1.275-.019-2.5-4.172.887-5.052-1.974-5.052-1.974a3.924 3.924 0 00-1.669-2.152c-1.359-.912.1-.893.1-.893a3.137 3.137 0 012.3 1.516 3.234 3.234 0 004.369 1.224 3.112 3.112 0 01.95-1.967c-3.329-.37-6.83-1.635-6.83-7.272A5.614 5.614 0 016.974 10a5.137 5.137 0 01.131-3.9s1.256-.394 4.125 1.508a14.41 14.41 0 017.5 0c2.85-1.9 4.106-1.508 4.106-1.508a5.279 5.279 0 01.15 3.9 5.637 5.637 0 011.538 3.947c0 5.651-3.506 6.895-6.844 7.257a3.487 3.487 0 011.012 2.722c0 1.969-.019 3.55-.019 4.028 0 .385.263.846 1.031.7A14.694 14.694 0 0030 14.711 14.858 14.858 0 0015 0z" fill="#8701fc"/></svg>