<svg xmlns="http://www.w3.org/2000/svg" width="30" height="29"><path d="M15 0A14.894 14.894 0 000 14.789a14.808 14.808 0 0010.256 14.032c.75.139 1.025-.319 1.025-.711 0-.351-.012-1.282-.019-2.515-4.172.892-5.052-1.984-5.052-1.984a3.938 3.938 0 00-1.669-2.163c-1.359-.917.1-.9.1-.9a3.139 3.139 0 012.3 1.524 3.224 3.224 0 004.369 1.23 3.135 3.135 0 01.95-1.978c-3.331-.37-6.832-1.642-6.832-7.308a5.66 5.66 0 011.546-3.966 5.19 5.19 0 01.131-3.914s1.256-.4 4.125 1.516a14.336 14.336 0 017.5 0c2.85-1.913 4.106-1.516 4.106-1.516a5.334 5.334 0 01.15 3.914 5.683 5.683 0 011.538 3.968c0 5.681-3.506 6.932-6.844 7.3a3.515 3.515 0 011.012 2.737c0 1.979-.019 3.569-.019 4.05 0 .388.263.85 1.031.7A14.763 14.763 0 0030 14.789 14.9 14.9 0 0015 0z" fill="#8701FC"/></svg>