<svg viewBox="0 0 324 82" xmlns="http://www.w3.org/2000/svg"><path d="M37.7 2.8c1.5-1 3.4-1 4.9 0 3.8 2.4 7.4 5 10.9 7.8 0 0 .9.7 1-.5 0 0-.2-3.3.2-4.3.3-.8 1-1.3 1.8-1.3 0 0 4.3.2 7 .6 1.2.2 2.1 1.2 2.2 2.4 0 0 1.7 11.6 2.1 15.8 0 0 .3 2.1 3.4 5.8 0 0 6.2 8.8 7 10.5 0 0 1.5 3.1-1.7 3.5 0 0-5.7.6-6.3.7-.8.1-1.4.8-1.3 1.6s-.3 20.2-1.8 30c0 0-.4 3.9-2.5 3.8 0 0-5.9-.2-7.3-.2 0 0-.6 0-.5-.8 0 0 3-31.6 1-47.6 0 0-.1-2.1-1.7-2.5 0 0-1.4-.6-2.8 1.3 0 0-9.3 11.9-9.3 28.5 0 0-.2 5.1.6 6.3 0 0 .5.9 2.9 1.1l3.1.4s.6 0 .5.8c0 0-.7 9.3-.9 10.9 0 .4-.1.7-.2 1.1 0 0-.1.3-1.1.3 0 0-13.6-.1-15.2 0 0 0-.6.1-.8-.3-.1-.4-.9-12-.9-13.6 0-.3.2-.7.5-.8 2.1-1.3 3.5-3.5 3.8-6 0 0 .2-1 .1-5.3 0 0 .5-17.8.6-20.6 0 0 .1-1-1.2-1.1-.6-.1-1.3.2-1.4.9v.1s-.9 11.7-.7 16.4c0 0 .3 3-1.8 3.1 0 0-2 .3-2.1-2.2 0 0 .1-11.4.6-17 0-.6-.5-1.2-1.1-1.2-.7-.1-1.3.3-1.4 1v.1S27 43.2 27.2 49c0 0 .3 2.8-2 2.7 0 0-1.9.2-2-2.3 0 0 .5-15.6.6-16.8.1-.7-.4-1.3-1.1-1.4h-.1c-.7-.1-1.3.4-1.4 1v.1s-.8 18.7-.7 24.1c0 0-.1 5.6 4.1 7.9 0 0 .6.4.6.9 0 0 .5 9.9.9 13.1 0 0 .2.8-.5.8l-10.5.3s-1.7.1-2.1-2c-.3-2-2.3-18.5-1.9-31.6.1-.8-.5-1.6-1.3-1.7 0 0-5.4-.5-6.7-.8-1.2-.3-1.9-1.5-1.6-2.7.4-.4.5-.6.6-.8 0 0 11.6-22.1 35.6-37m73.8 29.3h-10.3c-3.4 0-3.4 0-4 3.9-.7 3.9-.7 4 2.4 4h6.1l-3.5 20c-.8 4.5-2.8 7.5-8.8 9.4-1.5.4-2 1-2 1.7 0 .8.3 1.5 1 3.2 1 2.4 1.5 2.8 2.4 2.8.8 0 2.4-.4 2.9-.6 8.5-2.8 12-9.4 13.4-17.2l3.9-22.5c.7-4.7.7-4.7-3.5-4.7m35 0c-4.2 0-4.2 0-4.7 3.5l-3.1 18.2c-.8 5.3-2.2 8.4-7.4 8.4-5 0-6.8-3.1-6-7.8l2.9-17.3c.8-4.9.7-4.9-3.6-4.9-4.2 0-4.3 0-4.9 3.4l-3.1 18.2c-1.8 10.3 4.6 16.8 13.7 16.8 10.2 0 15.4-4.6 17-15.5l3.1-18c.7-5 .5-5-3.9-5m19.2 29.8c3.4-.1 5.2-1.7 5.2-3.2 0-2-2.4-2.7-5.6-3.6-6.3-2-12-4.2-12-10.9 0-8 6.6-12.3 14.8-12.3 3.5 0 7.4.1 9.9.4 2.2.3 2.8 1 2.1 4.5s-1.5 3.8-3.5 3.6c-2.4-.1-5.4-.4-9.1-.4-4.2 0-5.4 1.5-5.4 2.9 0 1.8 1.7 2.8 5.6 3.9 7.3 2.1 12 5 12 11.3 0 7.4-5.4 11.7-14.2 12-4.7.1-8.9-.1-12.6-.7-2.8-.4-2.9-.4-2.2-4.5.7-3.6.7-3.9 3.4-3.6 5 .6 8.2.7 11.6.6m45.6-29.8h-23.6c-3.4 0-3.4 0-4 4-.7 4.1-.6 4.1 2.4 4.1h7.7l-4.3 25c-.8 4.9-.7 4.9 3.6 4.9 4.1 0 4.2 0 4.7-3.5l4.5-26.4h7.4c3.4 0 3.4 0 4-4.1.7-4 .7-4-2.4-4m41.6 8c3.4 0 3.4 0 4-4 .7-4 .7-4-2.4-4h-16.9c-6 0-5.9 0-6.8 6l-4.3 25.3c-1.1 6.6-1 6.6 5 6.6H248c3.5 0 3.4 0 4-3.9.7-4 .7-4-2.4-4h-14.2l1.1-7.3h11.9c3.2 0 3.2 0 3.8-3.8.6-3.9.6-3.9-3.8-3.9H238l1.1-6.8h13.8zm32.7-3.4c-.8-4.7-.8-4.7-7.5-4.7-6.3 0-6.1 0-8.1 3.9l-14.1 29.5c-2.1 4.2-1.7 4.6 3.5 4.6 4 0 4 0 5.7-3.8l2.2-5H281l.7 5c.6 3.8.7 3.8 4.7 3.8 4.6 0 5-.3 4.2-4.9zm-14.8 16.8l5.4-12c.4-1 .4-1 1.1-1s.7 0 .8 1.1l1.7 11.9zM319 32.1h-23.7c-3.4 0-3.4 0-4 4-.7 4.1-.6 4.1 2.4 4.1h7.7l-4.3 25c-.8 4.9-.7 4.9 3.6 4.9 4 0 4.2 0 4.7-3.5l4.5-26.4h7.4c3.4 0 3.4 0 4-4.1.8-4 .8-4-2.3-4" fill="#ed7203"/></svg>