<svg xmlns="http://www.w3.org/2000/svg" width="157.002" height="53.181"><defs><clipPath id="a"><path d="M0 0h12.4v13.2H0z" fill="none"/></clipPath></defs><path d="M5.247 53.181a5.272 5.272 0 01-1.472-.211 5.242 5.242 0 01-3.562-6.5l9.732-33.311a5.242 5.242 0 015.011-3.772h.021A5.243 5.243 0 0120 13.118l2.128 7.07 4.8-16.418A5.243 5.243 0 0131.941 0h.019a5.242 5.242 0 015.021 3.734l7.189 23.921a5.245 5.245 0 01-5.022 6.753 5.277 5.277 0 01-3.1-1.016 5.2 5.2 0 01-1.92-2.719l-2.1-6.99-4.8 16.4a5.243 5.243 0 01-5.011 3.77H22.2a5.243 5.243 0 01-5.02-3.732l-2.125-7.059-4.778 16.345a5.2 5.2 0 01-1.915 2.745 5.28 5.28 0 01-3.115 1.028" fill="#00e39c"/><path d="M70.413 16.23a1.528 1.528 0 00-1.381.847l-6.124 12.589-6.296-12.613a1.519 1.519 0 00-1.37-.823 1.533 1.533 0 00-1.1.434 1.5 1.5 0 00-.455 1.121V32.93a1.509 1.509 0 00.45 1.105 1.509 1.509 0 001.1.45 1.509 1.509 0 001.1-.45 1.508 1.508 0 00.46-1.105v-9.252l4.6 9.225a1.508 1.508 0 001.427.915 1.55 1.55 0 001.335-.759l4.7-9.563v9.434a1.554 1.554 0 002.644 1.11 1.489 1.489 0 00.466-1.11V17.785a1.5 1.5 0 00-.455-1.121 1.533 1.533 0 00-1.101-.434M82.05 34.576a5.8 5.8 0 01-3.14-.877 6.2 6.2 0 01-2.18-2.359 7.007 7.007 0 01-.8-3.352 6.633 6.633 0 01.869-3.373 6.449 6.449 0 012.358-2.369 6.533 6.533 0 013.34-.87 6.414 6.414 0 015.676 3.239 6.633 6.633 0 01.869 3.373v4.988a1.548 1.548 0 01-2.626 1.1 1.472 1.472 0 01-.435-.963 6.112 6.112 0 01-.792.592 5.8 5.8 0 01-3.139.871zm.447-10.4a3.467 3.467 0 00-1.822.492 3.58 3.58 0 00-1.292 1.35 4.023 4.023 0 00-.478 1.97 3.972 3.972 0 00.478 1.948 3.569 3.569 0 001.292 1.353 3.463 3.463 0 001.822.491 3.446 3.446 0 001.833-.49 3.526 3.526 0 001.27-1.352 4.042 4.042 0 00.468-1.95 4.1 4.1 0 00-.469-1.972 3.539 3.539 0 00-1.269-1.352 3.454 3.454 0 00-1.833-.488zm18.889-2.344a4 4 0 00-2.219-.5 5.359 5.359 0 00-2.653.677 5.466 5.466 0 00-.761.514 1.317 1.317 0 00-.348-.663 1.517 1.517 0 00-1.116-.394 1.5 1.5 0 00-1.104.406 1.5 1.5 0 00-.406 1.105v10a1.488 1.488 0 00.41 1.121 1.523 1.523 0 001.1.39 1.491 1.491 0 001.121-.411 1.527 1.527 0 00.389-1.1v-6.532a1.93 1.93 0 01.548-1.425 3.115 3.115 0 011.6-.809 5.888 5.888 0 012.4.044 1.738 1.738 0 00.7.026 1.271 1.271 0 00.625-.3 1.227 1.227 0 00.378-.677 1.285 1.285 0 00-.664-1.472m7.246 9.636h-.559c-.124 0-.29-.039-.468-.343a2.311 2.311 0 01-.26-1.168V17.74a1.464 1.464 0 00-1.51-1.51 1.464 1.464 0 00-1.51 1.51v12.218a5.484 5.484 0 00.461 2.3 3.959 3.959 0 001.316 1.623 3.349 3.349 0 001.971.609h.045a2.185 2.185 0 001.328-.39 1.353 1.353 0 00.585-1.121 1.549 1.549 0 00-.379-1.067 1.329 1.329 0 00-1.019-.443m9.24 3.107a6.741 6.741 0 01-3.395-.847 6.166 6.166 0 01-2.327-2.336 6.8 6.8 0 01-.845-3.405 6.848 6.848 0 01.845-3.426 6.175 6.175 0 012.327-2.34 6.746 6.746 0 013.395-.846 6.694 6.694 0 013.372.846 6.172 6.172 0 012.328 2.34 6.844 6.844 0 01.846 3.426 6.872 6.872 0 01-.833 3.4 6.092 6.092 0 01-2.318 2.342 6.741 6.741 0 01-3.395.846zm0-10.406a3.547 3.547 0 00-1.857.482 3.44 3.44 0 00-1.267 1.341 4.143 4.143 0 00-.468 2 4.08 4.08 0 00.467 1.983 3.471 3.471 0 001.269 1.324 3.552 3.552 0 001.857.481 3.558 3.558 0 001.858-.481 3.391 3.391 0 001.253-1.324 4.16 4.16 0 00.457-1.985 4.236 4.236 0 00-.458-2 3.378 3.378 0 00-1.254-1.336 3.547 3.547 0 00-1.857-.479zm23.397-2.704a1.563 1.563 0 00-1.537 1.3l-2.04 6.4-1.681-6.548a1.5 1.5 0 00-.5-.826 1.48 1.48 0 00-.978-.326 1.464 1.464 0 00-1 .332 1.661 1.661 0 00-.5.8l-1.925 6.5-2.019-6.332a2.042 2.042 0 00-.58-.975 1.446 1.446 0 00-.957-.325 1.174 1.174 0 00-1.2.672 2.147 2.147 0 00-.022 1.41l3.315 9.943a1.462 1.462 0 00.557.714 1.563 1.563 0 001.794 0 1.345 1.345 0 00.542-.739l1.917-6.76 1.828 6.76a1.323 1.323 0 00.559.742 1.56 1.56 0 00.892.281 1.5 1.5 0 00.9-.288 1.349 1.349 0 00.521-.718l3.309-9.928a1.79 1.79 0 000-1.44 1.234 1.234 0 00-1.195-.649" fill="#273245"/><path d="M144.606 21.376h12.4v13.2h-12.4z" fill="none"/><g clip-path="url(#a)" transform="translate(144.606 21.376)"><path d="M6.769 13.2a7.152 7.152 0 01-3.489-.84 6.213 6.213 0 01-2.41-2.339A6.66 6.66 0 010 6.612 7 7 0 01.821 3.19 6.06 6.06 0 013.1.848 6.532 6.532 0 016.433 0a6.01 6.01 0 013.2.831A5.445 5.445 0 0111.7 3.118a7.461 7.461 0 01.7 3.293 1.34 1.34 0 01-.41.987 1.405 1.405 0 01-1.011.39H2.957a3.541 3.541 0 00.347.821A3.713 3.713 0 004.7 9.986a4.124 4.124 0 002.066.509 3.884 3.884 0 001.294-.235 4.062 4.062 0 001.07-.537 1.666 1.666 0 01.95-.336h.02a1.4 1.4 0 01.93.328 1.45 1.45 0 01.54 1.015 1.17 1.17 0 01-.511 1.027 6.582 6.582 0 01-2 1.045 7.176 7.176 0 01-2.29.398zM6.433 2.708a3.706 3.706 0 00-1.976.5 3.189 3.189 0 00-1.229 1.37 4.128 4.128 0 00-.242.635h6.488a3.984 3.984 0 00-.283-.813A3 3 0 008.12 3.158a3.019 3.019 0 00-1.687-.45z" fill="#273245"/></g></svg>