<svg viewBox="0 0 264 269" xmlns="http://www.w3.org/2000/svg" xmlns:xlink="http://www.w3.org/1999/xlink"><linearGradient id="a"><stop offset=".003" stop-color="#9ea5a9"/><stop offset=".222" stop-color="#dee5e9"/><stop offset=".412" stop-color="#d1d8dc"/><stop offset=".84" stop-color="#9ea5a9"/><stop offset="1" stop-color="#6f7980"/></linearGradient><linearGradient id="d" gradientTransform="rotate(180 568.887 82)" gradientUnits="userSpaceOnUse" x1="1031.563" x2="1056.226" xlink:href="#a" y1="134.884" y2="146.266"/><linearGradient id="e" gradientTransform="rotate(180 568.887 82)" gradientUnits="userSpaceOnUse" x1="1031.571" x2="1056.234" xlink:href="#a" y1="17.287" y2="28.67"/><linearGradient id="f" gradientTransform="rotate(180 568.887 82)" gradientUnits="userSpaceOnUse" x1="1046.648" x2="1051.658" xlink:href="#a" y1="81" y2="81"/><linearGradient id="b"><stop offset=".003" stop-color="#b8bfc3"/><stop offset=".222" stop-color="#f8ffff"/><stop offset=".412" stop-color="#ebf2f6"/><stop offset=".84" stop-color="#b8bfc3"/><stop offset="1" stop-color="#89939a"/></linearGradient><linearGradient id="g" gradientTransform="rotate(180 568.887 82)" gradientUnits="userSpaceOnUse" x1="1044.252" x2="1055.501" xlink:href="#b" y1="150.111" y2="155.303"/><linearGradient id="h" gradientTransform="rotate(180 568.887 82)" gradientUnits="userSpaceOnUse" x1="887.149" x2="892.159" xlink:href="#a" y1="-11.1" y2="-11.1"/><linearGradient id="i" gradientTransform="rotate(180 568.887 82)" gradientUnits="userSpaceOnUse" x1="884.756" x2="896.005" xlink:href="#b" y1="58.013" y2="63.205"/><linearGradient id="c"><stop offset="0" stop-color="#fff"/><stop offset="1"/></linearGradient><linearGradient id="j" gradientTransform="rotate(180 568.887 82)" gradientUnits="userSpaceOnUse" x1="1059.247" x2="1063.927" xlink:href="#c" y1="131.943" y2="104.713"/><linearGradient id="k" gradientTransform="rotate(180 568.887 82)" gradientUnits="userSpaceOnUse" x1="899.86" x2="904.541" xlink:href="#c" y1="46.962" y2="19.733"/><linearGradient id="l" gradientTransform="matrix(1 0 0 -1 0 164)" gradientUnits="userSpaceOnUse" x1="112.8" x2="136.932" xlink:href="#a" y1="-63.1" y2="-63.1"/><linearGradient id="m" gradientTransform="matrix(1 0 0 -1 0 164)" gradientUnits="userSpaceOnUse" x1="113.019" x2="142.633" y1="-67.298" y2="-55.413"><stop offset=".003" stop-color="#abb2b6"/><stop offset=".222" stop-color="#ebf2f6"/><stop offset=".412" stop-color="#dee5e9"/><stop offset=".84" stop-color="#abb2b6"/><stop offset="1" stop-color="#7c868d"/></linearGradient><linearGradient id="n" gradientTransform="matrix(1 0 0 -1 0 164)" gradientUnits="userSpaceOnUse" x1="122.703" x2="126.986" xlink:href="#a" y1="-55.4" y2="-55.4"/><linearGradient id="o" gradientTransform="matrix(1 0 0 -1 0 164)" gradientUnits="userSpaceOnUse" x1="136.095" x2="98.344" xlink:href="#c" y1="2.78" y2="-37.112"/><linearGradient id="p" gradientTransform="matrix(1 0 0 -1 0 164)" gradientUnits="userSpaceOnUse" x1="224.483" x2="199.895" xlink:href="#c" y1="-61.534" y2="-103.569"/><linearGradient id="q" gradientTransform="matrix(1 0 0 -1 0 164)" gradientUnits="userSpaceOnUse" x1="224.638" x2="199.594" xlink:href="#c" y1="-2.27" y2="-45.083"/><linearGradient id="r" gradientTransform="matrix(1 0 0 -1 0 164)" gradientUnits="userSpaceOnUse" x1="224.498" x2="199.455" xlink:href="#c" y1="-31.952" y2="-74.765"/><path d="M100.9 8.7c.1-.7 1.7-.9 1.7-.9C140.4 5 182.3 13 214 31.3c27.3 15.7 41.3 35.9 41.6 55.2v145.4h-.1c-.1 2.2-.4 4.4-.9 6.6 0 0-.3 1.1-1.9 1l-4.7-.4c-1.1-.1-1.2-.9-1.2-.9 0-.2.1-.3.1-.5l-.1.1v-16.3c-3.4-15.6-16.3-31.4-38.3-44.1-29.9-17.3-69.6-24.8-105.2-22.1 0 0-1.5-.1-1.6-.7l-.7-2.7v-.2z" fill="#1574f5"/><path d="M248.1 96.2l4.7.4c1.6.1 1.9-1 1.9-1 .7-3 1-6.1.9-9.1v145.4h-.1c-.1 2.2-.4 4.4-.9 6.6 0 0-.3 1.1-1.9 1l-4.7-.4c-1.1-.1-1.2-.9-1.2-.9 0-.2.1-.3.1-.5l-.1.1V95.2c.1 0 .2.9 1.3 1z" fill="#d4dbdf"/><path d="M100.9 8.7v.2l.7 2.7c.2.6 1.6.7 1.6.7 35.6-2.7 75.3 4.9 105.2 22.1 29.9 17.3 43 40.2 38.3 60.8v126.1c-3.4-15.6-16.3-31.4-38.3-44.1-29.9-17.3-69.6-24.8-105.2-22.1 0 0-1.5-.1-1.6-.7l-.7-2.7v-.2z" fill="#eef5f9"/><path d="M100.9 8.7v.2l.7 2.7c.2.6 1.6.7 1.6.7 35.6-2.7 75.3 4.9 105.2 22.1 29.9 17.3 43 40.2 38.3 60.8v126.1c-3.4-15.6-16.3-31.4-38.3-44.1-29.9-17.3-69.6-24.8-105.2-22.1 0 0-1.5-.1-1.6-.7l-.7-2.7v-.2z" fill="#d4dbdf"/><path d="M100.9 151.6v.2l.7 2.7c.2.6 1.6.7 1.6.7 35.6-2.7 75.3 4.9 105.2 22.1 22 12.7 34.9 28.5 38.3 44.1v-32.9c-3.4-15.6-16.3-31.4-38.3-44.1-29.9-17.3-69.6-24.8-105.2-22.1 0 0-1.5-.1-1.6-.7l-.7-2.7v-.2zm0-79.9v.2l.7 2.7c.2.6 1.6.7 1.6.7 35.6-2.7 75.3 4.9 105.2 22.1 22 12.7 34.9 28.5 38.3 44.1v-21.4c4.7-20.5-8.4-43.5-38.3-60.8s-69.6-24.8-105.2-22.1c0 0-1.5-.1-1.6-.7l-.7-2.7v-.2z" fill="#0a3847"/><path d="M100.9 59.3v.2l.7 2.7c.2.6 1.6.7 1.6.7 35.6-2.7 75.3 4.9 105.2 22.1 22 12.7 34.9 28.5 38.3 44.1v-21.4c4.7-20.5-8.4-43.5-38.3-60.8s-69.6-24.8-105.2-22.1c0 0-1.5-.1-1.6-.7l-.7-2.7v-.2z" fill="#0a3847"/><path d="M100.9 46.8v.2l.7 2.7c.2.6 1.6.7 1.6.7 35.6-2.7 75.3 4.9 105.2 22.1 22 12.7 34.9 28.5 38.3 44.1V95.2c4.7-20.5-8.4-43.5-38.3-60.8S138.8 9.6 103.2 12.3c0 0-1.5-.1-1.6-.7l-.7-2.7v-.2z" fill="#0a3847"/><path d="M255.6 107.6c0 3.1-.3 6.1-.9 9.1 0 0-.3 1.1-1.9 1l-4.7-.4c-1.1-.1-1.2-.9-1.2-.9v23.5l.1-.1c0 .2-.1.3-.1.5 0 0 .1.8 1.2.9l4.7.4c1.6.1 1.9-1 1.9-1 .5-2.2.8-4.4.9-6.6h.1z" fill="#146200"/><path d="M255.6 97.3c0 3.1-.3 6.1-.9 9.1 0 0-.3 1.1-1.9 1l-4.7-.4c-1.1-.1-1.2-.9-1.2-.9v23.5l.1-.1c0 .2-.1.3-.1.5 0 0 .1.8 1.2.9l4.7.4c1.6.1 1.9-1 1.9-1 .5-2.2.8-4.4.9-6.6h.1z" fill="#2d7b04"/><path d="M255.6 86.5c0 3.1-.3 6.1-.9 9.1 0 0-.3 1.1-1.9 1l-4.7-.4c-1.1-.1-1.2-.9-1.2-.9v23.5l.1-.1c0 .2-.1.3-.1.5 0 0 .1.8 1.2.9l4.7.4c1.6.1 1.9-1 1.9-1 .5-2.2.8-4.4.9-6.6h.1zm0 100.9c0 3.1-.3 6.1-.9 9.1 0 0-.3 1.1-1.9 1l-4.7-.4c-1.1-.1-1.2-.9-1.2-.9v41.5l.1-.1c0 .2-.1.3-.1.5 0 0 .1.8 1.2.9l4.7.4c1.6.1 1.9-1 1.9-1 .5-2.2.8-4.4.9-6.6h.1z" fill="#0a3847"/><path d="M248.1 96.2l4.7.4c1.6.1 1.9-1 1.9-1 .7-3 1-6.1.9-9.1v145.4h-.1c-.1 2.2-.4 4.4-.9 6.6 0 0-.3 1.1-1.9 1l-4.7-.4c-1.1-.1-1.2-.9-1.2-.9 0-.2.1-.3.1-.5l-.1.1V95.2c.1 0 .2.9 1.3 1z" fill="#1574f5"/><path d="M90 26.5l10.9-1.8v-2.9L90 23.7z" fill="url(#d)"/><path d="M90 144.1l10.9-1.8v-2.9L90 141.2z" fill="url(#e)"/><path d="M86.8 10.6c1-.6 2.6-.6 3.5 0 .5.3.7.7.7 1v142.8c0 .4-.2.7-.7 1-1 .6-2.6.6-3.5 0-.5-.3-.7-.7-.7-1V11.6c0-.3.3-.7.7-1z" fill="url(#f)"/><path d="M86.8 10.6c-1 .6-1 1.5 0 2 1 .6 2.6.6 3.5 0 1-.6 1-1.5 0-2-.9-.6-2.5-.6-3.5 0z" fill="url(#g)"/><path d="M246.3 102.7c1-.6 2.6-.6 3.5 0 .5.3.7.7.7 1v142.8c0 .4-.2.7-.7 1-1 .6-2.6.6-3.5 0-.5-.3-.7-.7-.7-1V103.7c0-.4.3-.7.7-1z" fill="url(#h)"/><path d="M246.3 102.7c-1 .6-1 1.5 0 2 1 .6 2.6.6 3.5 0 1-.6 1-1.5 0-2-.9-.6-2.5-.6-3.5 0z" fill="url(#i)"/><path d="M68.8 26.8l26.4 15.3 2.8-1.6-26.4-15.3z" fill="#eef5f9"/><path d="M95.2 42.1v28.8l2.8-1.6V40.5z" fill="#a2a9ad"/><path d="M68.8 55.6l26.4 15.3V42.1L68.8 26.8z" fill="#bbc2c6"/><path d="M93.4 43.1L70.6 29.9v24.7l22.8 13.2z" fill="#212b2e"/><path d="M74.9 57.1l-4.3-2.5V29.9l15.1 8.7c-3.1 4.3-8.1 11.6-10.8 18.5z" fill="url(#j)" opacity=".2"/><path d="M228.2 111.8l26.4 15.3 2.8-1.6-26.4-15.3z" fill="#eef5f9"/><path d="M254.6 127.1v28.8l2.8-1.6v-28.8z" fill="#a2a9ad"/><path d="M228.2 140.6l26.4 15.3v-28.8l-26.4-15.3z" fill="#bbc2c6"/><path d="M252.8 128.1L230 114.9v24.7l22.8 13.2z" fill="#212b2e"/><path d="M234.3 142l-4.3-2.5v-24.7l15.1 8.7c-3.1 4.4-8.1 11.7-10.8 18.5z" fill="url(#k)" opacity=".2"/><path d="M74.6 176.9l-1.1.6 2.5 12.3 1.1-.6z" fill="#626b6e"/><path d="M73.5 177.5l-.5-.5 2.4 12.4.6.4z" fill="#3b4447"/><path d="M88.5 168.4l-1.1.6 2.5 12.4 1-.6z" fill="#626b6e"/><path d="M87.4 169l-.6-.4 2.5 12.3.6.5zm6 32l3.7-20.7c.1-.6.7-.9 1.3-.5l7.1 4.1c.6.3 1.2 1.3 1.3 2l3.6 24.9.8.4-3.6-25c-.2-1.2-1.1-2.6-2.1-3.2l-7.1-4.1c-1-.6-1.9-.2-2.1.8l-3.7 20.8z" fill="#3b4447"/><path d="M98.4 178.9l7.1 4.1c1 .6 1.9 2 2.1 3.2l3.6 25 1-.6-3.6-25c-.2-1.2-1.1-2.6-2.1-3.2l-7.1-4.1c-.9-.5-2.5 0-2.9.8.4-.5 1.2-.6 1.9-.2z" fill="#626b6e"/><path d="M97.1 180.3L93.4 201l1-.6 3.7-20.7c-.5-.2-.9.1-1 .6z" fill="#151e21"/><path d="M108.4 187.2L96 180.1c-1.6-.9-4.2-.9-5.8 0l-14.4 8.3c-1.1.6-1.4 1.5-1 2.3-.4.8 0 1.7 1 2.3l12.4 7.1c1.6.9 4.2.9 5.8 0l14.4-8.3c1.1-.6 1.4-1.5 1-2.3.4-.8.1-1.7-1-2.3z" fill="#1574f5"/><path d="M108.4 190.5L94 198.7c-1.6.9-4.2.9-5.8 0l-12.4-7.1c-.5-.3-.9-.7-1-1-.4.8 0 1.7 1 2.3l12.4 7.1c1.6.9 4.2.9 5.8 0l14.4-8.3c1.1-.6 1.4-1.5 1-2.3-.1.4-.5.8-1 1.1z" fill="#1574f5"/><path d="M76 193.1l-3.7 20.7 1-.6 3.7-20.7c-.5-.2-.9 0-1 .6z" fill="#151e21"/><path d="M72.3 213.7L76 193c.1-.6.7-.9 1.3-.5l7.1 4.1c.6.3 1.2 1.3 1.3 2l3.6 24.9.7.5-3.6-25c-.2-1.2-1.1-2.6-2.1-3.2l-7.1-4.1c-1-.6-1.9-.2-2.1.8l-3.7 20.8z" fill="#3b4447"/><path d="M77.3 191.7l7.1 4.1c1 .6 1.9 2 2.1 3.2l3.6 25 1-.6-3.6-25c-.2-1.2-1.1-2.6-2.1-3.2l-7.1-4.1c-.9-.5-2.5 0-2.9.8.4-.5 1.2-.6 1.9-.2z" fill="#626b6e"/><path d="M90.5 164.6l-1.3-7.5c-.2-1-.7-1.6-1.4-1.9-.7-.6-1.7-.7-2.7-.1 0 0-4.3 2-5.6 2.8-1.5.8-4.4 2.5-5.8 3.5-1 .7-4 3-4 3-1.6.9-2.6 3.2-2.3 5l1.3 7.8c.2 1 .8 1.8 1.6 2.1.7.6 1.7.8 2.7.4l5.8-2.3c1.7-.7 4.2-2.2 5.5-3.4l4.2-3.8c1.5-1.3 2.3-3.8 2-5.6z" fill="#1574f5"/><path d="M68.8 177.1c.2 1 .8 1.8 1.6 2.1-.4-.4-.8-1-.9-1.7l-1.3-7.8c-.2-1 .1-2.2.6-3.2l-.7-.3c-.5 1-.8 2.1-.6 3.1z" fill="#1574f5"/><path d="M85.2 155.1s-4.3 2-5.6 2.8c-1.5.8-4.4 2.5-5.8 3.5-1 .7-4 3-4 3-.7.4-1.3 1.1-1.7 1.9l.7.3c.4-.7 1-1.4 1.6-1.8 0 0 3-2.3 4-3 1.4-.9 4.3-2.7 5.8-3.5l5.6-2.8c.7-.4 1.4-.5 2-.3-.6-.6-1.6-.7-2.6-.1z" fill="#1574f5"/><path d="M193.2 200.1l1.1.6-2.5 12.3-1-.6z" fill="#626b6e"/><path d="M194.3 200.7l.6-.5-2.5 12.3-.6.5z" fill="#3b4447"/><path d="M179.4 191.7l1.1.6-2.5 12.3-1-.6z" fill="#626b6e"/><path d="M180.5 192.3l.5-.5-2.4 12.3-.6.5zm-6 31.8l-3.7-20.6c-.1-.6-.7-.9-1.3-.5l-7.1 4.1c-.6.3-1.2 1.3-1.3 2l-3.5 24.7-.8.4 3.6-24.9c.2-1.2 1.1-2.6 2.1-3.2l7.1-4.1c1-.6 1.9-.2 2.1.8l3.7 20.7z" fill="#3b4447"/><path d="M169.5 202.1l-7.1 4.1c-1 .6-1.9 2-2.1 3.2l-3.6 24.9-1-.6 3.6-24.9c.2-1.2 1.1-2.6 2.1-3.2l7.1-4.1c.9-.5 2.5 0 2.9.8-.4-.5-1.1-.6-1.9-.2z" fill="#626b6e"/><path d="M170.9 203.5l3.7 20.6-1-.6-3.6-20.6c.3-.2.8.1.9.6z" fill="#151e21"/><path d="M159.6 210.3l12.3-7c1.6-.9 4.2-.9 5.7 0l14.4 8.2c1.1.6 1.4 1.5 1 2.3.4.8 0 1.7-1 2.3l-12.3 7c-1.6.9-4.2.9-5.7 0l-14.4-8.2c-1.1-.6-1.4-1.5-1-2.3-.4-.8-.1-1.7 1-2.3z" fill="#1574f5"/><path d="M159.6 213.6l14.4 8.2c1.6.9 4.2.9 5.7 0l12.3-7c.5-.3.9-.7 1-1 .4.8 0 1.7-1 2.3l-12.3 7c-1.6.9-4.2.9-5.7 0l-14.4-8.2c-1.1-.6-1.4-1.5-1-2.3.1.4.5.7 1 1z" fill="#1574f5"/><path d="M191.9 216.2l3.7 20.6-1-.6-3.6-20.6c.3-.2.8.1.9.6z" fill="#151e21"/><path d="M195.5 236.8l-3.7-20.6c-.1-.6-.7-.9-1.3-.5l-7.1 4.1c-.6.3-1.2 1.3-1.3 2l-3.5 24.7-.8.4 3.6-24.9c.2-1.2 1.1-2.6 2.1-3.2l7.1-4.1c1-.6 1.9-.2 2.1.8l3.7 20.7z" fill="#3b4447"/><path d="M190.5 214.8l-7.1 4.1c-1 .6-1.9 2-2.1 3.2l-3.6 24.9-1-.6 3.6-24.9c.2-1.2 1.1-2.6 2-3.2l7.1-4.1c.9-.5 2.5 0 2.9.8-.3-.5-1-.6-1.8-.2z" fill="#626b6e"/><path d="M177.4 187.9l1.3-7.5c.2-1 .7-1.6 1.4-1.9.7-.6 1.7-.7 2.7-.1 0 0 4.2 2 5.6 2.8 1.5.8 4.4 2.5 5.8 3.4 1 .7 4 3 4 3 1.6.9 2.6 3.2 2.3 4.9l-1.3 7.7c-.2 1-.8 1.7-1.6 2.1-.7.6-1.7.8-2.7.4l-5.8-2.3c-1.7-.7-4.2-2.2-5.5-3.4l-4.2-3.7c-1.5-1.2-2.3-3.6-2-5.4z" fill="#1574f5"/><path d="M199 200.3c-.2 1-.8 1.7-1.6 2.1.4-.4.8-1 .9-1.6l1.3-7.7c.2-1-.1-2.2-.6-3.2l.7-.3c.5 1 .7 2.1.6 3.1zm-16.3-21.9s4.2 2 5.6 2.8c1.5.8 4.4 2.5 5.8 3.4 1 .7 4 3 4 3 .7.4 1.3 1.1 1.7 1.9l-.7.3c-.4-.7-1-1.4-1.6-1.8 0 0-2.9-2.3-4-3-1.4-.9-4.3-2.6-5.8-3.4l-5.6-2.8c-.7-.4-1.4-.5-2-.3.6-.6 1.6-.7 2.6-.1z" fill="#1574f5"/><path d="M175.4 205.8c-1.2-2.1-2.1-3-2.5-3s-4.8 2.5-9.2 6.1-5.6 5.2-6.4 6.7-.7 4.1-.6 5.6c.1 1.6 0 5.1.3 8.2s.5 5.5.5 5.5-3.2 3.4-4.9 4.5c0 0-.4.9.4 1.1s2.7-.2 3.8-.6c1.2-.4 2.1-.9 2.9-1.4 2.3-1.4 2.1-2.5 2.1-2.5-.1-.4-.3-1-.4-1.5-.2-1.1.2-3.6.4-4.7.3-1 1.1-4.3 1.3-5.7s0-4 0-4l3.1-.6 9.4-4.6 2.5-3.6c.2-.1-1.6-3.4-2.7-5.5z" fill="#b17454"/><path d="M174.4 243.3c.2 1.4.3 1.8 0 2.5-.3.6-2.3 2.4-3.7 4.5-1.5 2.1-4.3 2.8-6.4 2.1-2-.7 1.9-4.4 1.9-4.4s-1 1 .8 1.4c2.6.6 4.4-1.2 5.2-2.2 1.2-1.4 2.2-3.9 2.2-3.9zm-21.8-4s-.4.9.4 1.1 2.7-.2 3.8-.6c1.2-.4 2.1-.9 2.9-1.4 2.3-1.4 2.1-2.5 2.1-2.5s1.1 2.5-.3 3.2-2.3.6-3.4 1.1c-.8.4-2.4 1.8-3.9 2.6-2 1-4.6 1.2-4.7.2 0-.6.8-2.6 3.1-3.7z" fill="#1d1d1b"/><path d="M161.5 239.1c-1.4.7-2.3.6-3.4 1.1-.8.4-2.4 1.8-3.9 2.6-1.9.9-4.5 1.2-4.7.3v.2c.1 1 2.7.8 4.7-.2 1.5-.7 3.1-2.2 3.9-2.6.2-.1.4-.2.6-.2l.1.4s2.2-.6 2.6-.8.9-.5.7-1.5c0 .2-.2.5-.6.7z" fill="#2e383b"/><path d="M186.4 207.3c-1.8 0-8.4 1.7-10.7 3s-7.3 4.6-9.1 5.8-3.8 3.6-4 6.4 3.2 6.6 4.2 9 3.2 10.8 3.2 11.4-.3 1.1-1.1 2.1-2.6 2.9-2.6 2.9l-.3.4c-.1.3 0 .7 1 1 2.6.6 4.4-1.2 5.2-2.2 1.1-1.3 2.2-3.8 2.2-3.8-.3-.7-.7-1.3-1.1-2.6-.4-1.4 0-6.6-.5-10.9s-3.9-6.5-3.9-6.5 4.4-.7 9.9-3.9c4.3-2.5 7.7-4.5 9.7-7.7 1.9-3.1-.3-4.4-2.1-4.4z" fill="#cb8d6e"/><path d="M174.4 245.8c-.3.6-2.3 2.4-3.7 4.5-1.5 2.1-4.3 2.8-6.4 2.1-.3-.1-.5-.3-.6-.6-.1.4.1.8.6.9 2 .7 4.9 0 6.4-2.1.7-1 1.5-1.9 2.3-2.7v.4c.7-.8 1.3-1.4 1.5-1.7.2-.4.2-.8.1-1.3-.1.2-.1.3-.2.5z" fill="#2e383b"/><path d="M189.9 203.5l-9.7.5-7.1-1.4s-7 1.8-13.8 10.5c0 0 3.1.8 6.4 2.5 2 1.1 6.7 2.1 6.5 6.9 0 0 9-3.8 12.4-6.1 4.6-3.3 7.1-9.5 5.3-12.9z" fill="#0a3847"/><path d="M176.5 178s-2.5-1.1-4.1-1-2 1.1-2.5 3.9c-.6 2.8-1.5 5.6-1.9 7.1s-1.6 4.8-1.9 6.1-.6 4.1-.6 4.1 1.6-.1 2.8.3c1.3.4 1.6.7 1.6.7s.9-2.3 1-3.4c.2-1.1.4-3.2.7-3.9.2-.6 4.9-13.9 4.9-13.9z" fill="#f6f6f6"/><path d="M171.3 192.7s1.1 3.3 1.6 4.1.7 1.3.3 2.7c-.3 1.3-.5 3.1-.5 3.1s-.5 3.7 4.1 4.8c4.7 1.1 8.7 1 10.5-.7s2.8-2.8 2.3-3.7-2.3-3-2.4-5.7-1.1-10.5-1.1-10.5z" fill="#f6f6f6"/><path d="M173.5 178s-1.4 3.4-1.9 4.6c-.4 1.2-3.6 5.8-2.2 8.5 1.3 2.6 3.6 4.2 6 5.3 1.7.8 4.8 1.3 6.4-.5 1.5-1.6 1.5-5.9 3.6-7.3 2.2-1.4 3.2-4.1 2.8-5s-1.4-1.3-1.8-1.7c-.2-.5-9.3-6-12.9-3.9z" fill="#fff"/><path d="M175 179.5s-3.2 6.1.1 7 5.2-5.3 7.4-6.1c2.2-.7-4.4-5.9-7.5-.9z" fill="#d88f69"/><path d="M170.4 171.2s0 1.2-.1 1.4c-.2.2-.8 1-1.1 1.2-.2.3-.2.5.1.7s.6.3.6.5 0 .5-.1.6c0 .2.2.3.2.6 0 .2 0 .4.2.6.3.3.3.3.2.6s-.3 1 .8 1.2c1.1.3 3.6-.1 3.6-.1l1-4.8-1.9-2.4z" fill="#f2a983"/><path d="M175.9 173.7l-1.9-2.4-3.5-.2s0 1.2-.1 1.4c.2.2.4.6.4.8 0 .4 0 .9.5.9s2.3.6 2.4 1c.1.3.2 2.3.7 3.3.4 0 .6-.1.6-.1z" fill="#d88f69"/><path d="M172.7 166.5s-2.2.4-2.5 3.6c-.4 3.2 3.2 4.7 3.2 4.7s-.6-.5-.8-.8c0 0 1.2.4 1.4 1s0 3.8.9 4.7 5.6 3.2 3.6 5.9c0 0 1.6-1.2 1.3-2.8 0 0 .6 2.2-.5 3.7 0 0 1.8-1.2 1.8-2.7s-.4-2.1-.4-2.1 1.8.5 2.8.5c0 0-1.7-.5-1.9-.8 0 0 1 .3 1.9.2 1-.1 2.2-.3 3 .1 0 0-3.1-2.7-3.4-4.1-.2-1.4 1.2-5.8.4-8.6s-3.9-4.1-5.8-4.2c-2 .1-4.3.8-5 1.7z" fill="#994e18"/><path d="M183.8 191.9s-1.1-4.1-.7-5.6c.3-1.5 1.5-2.9 3-3.1s3.4.1 3.4 3.6-.7 8.9-.7 10.3v5c0 .5-.5 2.2-1.6 3.6s-2.2 2.2-2.2 2.2-1.4-2.8-4.2-2.7c0 0 2.6-2.9 2.8-3.4.2-.4.3-8.4.2-9.9z" fill="#fff"/><path d="M181.2 205.2c-.5.6-.9 1.1-1.1 1.4-.7 1-4.9 5.5-4.9 5.5s-2.1.1-2.7.2-1.2 0-1.6.4c-.5.4-.9 1.5-.9 1.5s-.8.7-1.3 1.2c-.5.6-1.4 1.7-1.2 1.9s.4.2.4.2-.8.6-.3.9.9 0 .9 0 0 .3.4.4c.5.1 1.1-.3 1.1-.3s.3.3.8.2 2.9-1.1 3.4-1.4 2-1.9 2.2-2.1c.2-.3 2.2-2.4 2.8-2.7.5-.3 3.9-2.9 5.9-4.7-.5-.5-1.7-2.5-3.9-2.6z" fill="#f2a983"/><path d="M181.7 205.3c1.8.7 2.5 2.4 2.5 2.4s-6.9 5.1-7.5 5.8c-.7.7-1.9 2.5-2.1 2.7s-1.3.5-1.9.4c-.6-.2-1.1-.5-1.6-.7s-.8.1-1.3.5c-.4.4-1.8 1.2-1.8 1.2s-.8.6-.3.9.9 0 .9 0 0 .3.4.4c.5.1 1.1-.3 1.1-.3s.3.3.8.2 2.9-1.1 3.4-1.4 2-1.9 2.2-2.1c.2-.3 2.2-2.4 2.8-2.7.5-.3 3.9-2.9 5.9-4.7-.5-.6-1.7-2.3-3.5-2.6z" fill="#d88f69" opacity=".5"/><path d="M169.7 199.1c-.2-.1-.6-.4-1.4-.6-1-.3-2.2-.3-2.6-.3-.1 1-.2 2.1-.3 3.1-.1 2.3-.4 6-.4 6s-1.6 1-2 1.2-1.2 1.1-1.6 1.9-1.1 2-.8 2.1c0 0-.3.9.2 1.1 0 0-.2.6.1.7s.8-.4.8-.4.3.5.7.1 1-1.8 1.5-2.2c.4-.4 1.9-1.7 1.9-1.7s.3 0 .3.1c0 .2-.1.6-.4 1s-.5 1.2-.1 1.4.8-.2 1.1-.8c.4-.5.9-1.2 1-1.5v-3c0-.8.7-4.2 1-5.3.1-.6.6-1.8 1-2.9z" fill="#f2a983"/><path d="M162.3 210.7c-.2-.2-.5-.2-.6-.8v-.2l-.3.6c-.4.8-1.1 2-.8 2.1 0 0-.3.9.2 1.1 0 0-.2.6.1.7s.8-.4.8-.4c.1-.6.9-2.1.9-2.4s-.1-.5-.3-.7z" fill="#d88f69" opacity=".5"/><path d="M169.7 199.1c-.2-.1-.6-.4-1.4-.6-.7-.2-1.4-.3-2-.3.8.3 1.8.7 2 1 .4.7-.9 5.5-1 6.7-.1.8.1 1.9.5 2.7v-1.3c0-.8.7-4.2 1-5.3 0-.6.5-1.8.9-2.9z" fill="#d88f69"/><g clip-rule="evenodd" fill-rule="evenodd"><path d="M105.1 212.5s.3-2.5.6-3.4c0 0 1.5.8 3.1.9s2.7-.3 2.7-.3 1.3 2.1 2.7 2.9 3 1.2 4.1 2.2c1.2 1 2.5 2.8 2.1 3.7s-3.4 1.6-5.9.1c-1.6-.9-3-2.7-4.6-3.1 0 0-4.8-1.4-4.8-3z" fill="#1d1d1b"/><path d="M105.1 212.7c.4 1.5 4.8 2.7 4.8 2.7 1.6.5 3 2.2 4.6 3.1 2.5 1.4 5.5.8 5.9-.1v-.2.6c-.4.9-3.4 1.6-5.9.1-1.6-.9-3-2.7-4.6-3.1 0 0-.7-.2-1.6-.5l-.1.6s-1.8-.6-3-1.6l-.2-1.2v-.1c.1 0 .1-.1.1-.3z" fill="#1d1d1b"/><path d="M87.5 186.6l1.3-5.8-.6-3.2c4.4-1.4 6.6-3.6 6.6-3.6.5 1.2 1.2 1.6 1.2 1.6s11 4.8 14.6 7.6c5 3.9 4.2 6.3 3.2 12.1s-.1 15.9.4 17.2c0 0-5.7 2.1-9.1-.8 0 0-1.2-13.3.2-19.3 0 0-15-4.5-17.8-5.8z" fill="#051f41"/><path d="M104.4 217s.8 3.1 2.1 4.1 4.1 5.2 2.2 6.2-6.5-.5-7-2.2c-.6-1.7-1-3.3-1.5-4s-1.9-2.7-.7-5c0 0 1.2 2 2.9 1.7 1.8-.4 2-.8 2-.8z" fill="#1d1d1b"/><path d="M99.1 217.9c0 1.5.8 2.7 1.2 3.2.5.7.9 2.3 1.5 4 .5 1.7 5.1 3.2 7 2.2.4-.2.6-.5.6-.9.1.6-.1 1.2-.6 1.4-1.9 1-6.5-.5-7-2.2-.6-1.7-1-3.3-1.5-4s-1.6-1.8-1.2-3.7z" fill="#1d1d1b"/><path d="M78 178s5.3.8 10.2-.4l1.4 3.9c2.7 2.4 11.8 7.2 13.1 8.6 1.5 1.6 2.4 7.3 2.4 13.7.1 6.4.6 14.3.6 14.3s.1 2.3-2.1 2.4c-2.2.2-5.5-3.1-5.5-3.1s-2.4-7.6-2.5-11.2c-.1-2.8 0-8 0-8s-12.9-6.1-15.8-9c-2.8-2.8-2.7-8.3-1.8-11.2z" fill="#122c4e"/></g><path d="M78.9 162.2c1.8-5.3 5.9-8.9 9.4-10.7 1.1-.6 2.6-1.2 4.2-1.6-.2.6-.6 1.8-.4 3.2.3 2 3.9 4.9 4.9 4.9 1-.1 2.5-1.2 2.2-3.7-.1-1.2-.4-3.1-.7-4.8 1.5.3 2.7 1.1 3.3 2.5 0 0 0 4-.9 6.9s-2.9 7.3-3.8 8.2-2 4-1.6 4.4c1.4 1.6 0 4.4-1.2 5-.7.4-3.7 4.7-9.9 4.2-2-.2-7.8-.8-8.3-2.4-.5-1.7 1-10.8 2.8-16.1z" fill="#d5dce0"/><path d="M97.7 161.4l1.1-2.8s-.6-1-1.8-.8c-1.1.2-1.5 1.5-1.5 1.5l1.3 2.1c-.1.4-.3 2-.6 3-.4 1.2-3.5 6.6-4.1 8.1-.5 1.5-.4 5.9-.4 5.9l2.3.6.8-2.4s-.1-2.8-.1-4.2 1.4-4.6 2-6.5c.6-1.7.9-4 1-4.5z" fill="#0a3847"/><path d="M98.6 149.4c.1.9.3 1.9.4 2.8.6.9 1 2 1.1 3.4.2 3.6-4.1 10.8-4.1 10.8s-4.4-8.3-5.3-11.2c-1-2.9-.4-4 .6-4.6.4-.3.8-.4 1.2-.5 0-.1.1-.2.1-.2-1.6.4-3.1 1-4.2 1.6-3.5 1.8-7.6 5.4-9.4 10.7s-3.2 14.5-2.8 16c1.3 4.6 5.8 4.1 7.9 4.2 6.2.5 9.9-3.2 10.6-3.6 1.2-.6 2.3-5.9 1-7.5-.4-.4.7-3.5 1.6-4.4s2.9-5.3 3.8-8.2.9-6.9.9-6.9c-.7-1.3-1.9-2.1-3.4-2.4z" fill="#f36d00"/><path d="M93.9 173.9c0 1.3 1.2 2.5.4 4.5-.1.3-.2.6-.4.8.3-.2.6-.3.7-.3 1.2-.6 2.3-5.9 1-7.5-.4-.4.7-3.5 1.6-4.4s2.9-5.3 3.8-8.2.9-6.9.9-6.9c-.6-1.4-1.8-2.1-3.3-2.5.1.9.3 1.9.4 2.8.6.9 1 2 1.1 3.4.2 3.6-4.1 10.8-4.1 10.8s-.9 3.1-1.5 3.9c-.6.9-.6 2.3-.6 3.6z" fill="#c95e0d"/><path d="M96.1 168.6l-.2-.5c-.2-.5-5.4-12.6-5.2-15.5.2-3.1 1.8-3 1.9-3v.4-.2.2c-.1 0-1.2 0-1.4 2.6-.2 2.5 4 12.5 5 14.8.8-1.8 3.5-8.3 4-12.7h.4c-.5 5.2-4.2 13.3-4.2 13.3z" fill="#414e52"/><path d="M97.2 174.1l-4 1.9.7-6.9 3.3-2z" fill="#424a96"/><path d="M97.7 173.9l-3.3 1.9v-7l3.3-1.9z" fill="#eef5f9"/><path d="M97 171.4l-1.7.9v-2.9l1.7-1zm0 .7l-1.7 1v-.3l1.7-.9zm0 .6l-1.7 1v-.3l1.7-.9z" fill="#979797"/><path d="M133.4 221.6c-4.7-2.7-12.4-2.7-17.1 0-2.4 1.4-3.5 3.1-3.5 4.9v1.2c0 1.8 1.2 3.6 3.5 4.9 4.7 2.7 12.4 2.7 17.1 0 2.4-1.4 3.5-3.1 3.5-4.9v-1.2c0-1.7-1.2-3.5-3.5-4.9z" fill="url(#l)"/><path d="M133.4 221.6c4.7 2.7 4.7 7.1 0 9.9-4.7 2.7-12.4 2.7-17.1 0s-4.7-7.1 0-9.9c4.7-2.7 12.4-2.7 17.1 0z" fill="url(#m)"/><path d="M126.4 211.4c-.8-.5-2.2-.5-3 0-.4.2-.6.6-.6.9v14.2c0 .3.2.6.6.9.8.5 2.2.5 3 0 .4-.2.6-.6.6-.9v-14.2c0-.3-.2-.6-.6-.9z" fill="url(#n)"/><path d="M152.6 176.3c-15.4-8.9-40.3-8.9-55.7 0-7.6 4.4-11.4 10.1-11.5 15.8v2.4c.2 5.7 4 11.3 11.5 15.6 15.4 8.9 40.3 8.9 55.7 0 7.7-4.5 11.6-10.3 11.5-16.1v-1.7c0-5.8-3.8-11.6-11.5-16z" fill="#2e383b"/><path d="M152.6 176.3c15.4 8.9 15.4 23.3 0 32.2s-40.3 8.9-55.7 0-15.4-23.3 0-32.2 40.3-8.9 55.7 0z" fill="#414e52"/><path d="M96.9 176.3c-15.4 8.9-15.4 23.3 0 32.2 2.3 1.3 4.9 2.5 7.6 3.4 4.3-10.7 15.6-27.6 45.4-37-15.5-7.4-38.5-7-53 1.4z" fill="url(#o)" opacity=".2"/><path d="M147.2 185.9l-8.8 5.1-15.7-9.1 8.8-5z" fill="#eef5f9"/><path d="M135.6 179.2l-4.1-2.3-8.8 5 4.1 2.4zm-2.4 8.8l5.2 3 8.8-5.1-5.2-3z" fill="#0a3847"/><path d="M134.2 188.6l4.2 2.4 8.8-5.1-4.2-2.4z" fill="#0a3847"/><path d="M139.9 194.4l-8.8 5.1-15.6-9.1 8.8-5.1z" fill="#eef5f9"/><path d="M128.4 187.7l-4.1-2.4-8.8 5.1 4.1 2.4zm-2.4 8.8l5.1 3 8.8-5.1-5.1-3z" fill="#0a3847"/><path d="M126.9 197l4.2 2.5 8.8-5.1-4.2-2.4z" fill="#0a3847"/><path d="M123.4 197.9l-8.8 5.1-15.7-9.1 8.8-5.1z" fill="#eef5f9"/><path d="M111.8 191.2l-4.1-2.4-8.8 5.1 4.1 2.4zm-2.4 8.8l5.2 3 8.8-5.1-5.2-3z" fill="#0a3847"/><path d="M110.4 200.5l4.2 2.5 8.8-5.1-4.2-2.4z" fill="#0a3847"/><path d="M99 184c2.5.7 6.6-.2 6.6-.2s.1.6.6.6 1.4-1.9 1.4-1.9.7 1.4 1.2 1.4.2-1.5.2-1.5c.3-.3.4-1 .4-1.7s0-1.9-.4-2.2-1.8-1.3-2.8-1.2-3 .5-3 .5 0-1.1.2-1.6 0-1.2-.6-1.2-1.4 2.8-1.8 3.1l-2.4 2.4-5-.5.2 4.4z" fill="#f2a983"/><path d="M107.5 180.9c-.1-.4-.1-.5.2-1s-.3-1.2-.7-1.5c-.2-.2-.3-.6-.3-1 .9.2 1.8.9 2.1 1.1.4.3.4 1.5.4 2.2s-.1 1.4-.4 1.7c0 0 .2 1.5-.2 1.5-.5 0-1.2-1.4-1.2-1.4s-.9 1.8-1.4 1.9c-.5 0-.6-.6-.6-.6h-.1c1.1-.5 2-1.4 2-1.4s.3-1.1.2-1.5z" fill="#d88f69"/><path d="M84.9 156.9c-1.7.2-3.1.4-4.5 4.9s-2.2 12.1-2.2 14.7c-.1 2.6.3 6.5 4.1 7.3s10.9 2 12.9.7l3.7-.3v-3.9l-2.7-.1c-1.2-.9-6.8-2.4-10.2-2.2 0 0 1.5-7.9 1.9-10.7.3-2.9 3.4-11.2-3-10.4z" fill="#fff"/><path d="M113.2 173.2l-1.9-1.4c0-2-6.5-6.7-6.5-6.7s0-8-.2-10.7-1.9-2.5-1.9-2.5c-.3 0-.6 0-.8.1 0 .6-.1 4.2-.9 6.8-.5 1.7-1.4 3.8-2.3 5.6.2 2.1.6 4.2 1 4.9.7 1 4.8 4.7 6.9 5.4.8.2 1.6.7 2.4.7l1.9.8c-.2-1 2.3-3 2.3-3z" fill="#f6f6f6"/><path d="M111 174c-.3.3-.7.9-1 1.5s-.6 1.5-.2 1.7 1.3-.6 1.7-.6c.4-.1 1.2.4 2.1.8 1 .3 1.2.4 1.2.7s.5 1.2.5 1.2 0 1.4.7 2 1.8-.6 1.6-2.7c-.1-2.1-.3-3.2-1.8-4s-2.8-1.4-2.8-1.4-1.6.5-2 .8z" fill="#f2a983"/><path d="M111.1 176.6c0-.1 1.3-.7 1.3-.7v-.9s.7-.3 1-.2c.2.1 1.2.8 1.3 1.3 0 .3.1 1 .2 1.7-.2-.1-.5-.3-1.1-.5-1-.3-1.8-.8-2.1-.8-.1 0-.4.1-.6.3-.1-.1 0-.2 0-.2zm5 4.7c-.5-.4-.6-1.1-.7-1.6.1-.1.2-.3.4-.3.3-.1.5-.7.4-1.1-.1-.5.2-1 .3-.8s.2 1 .3 1.2c.2.2.4.1.9.4.1 1.8-.9 2.7-1.6 2.2zm-24.8-29s1.4-1.3 1.5-2.5 4.6 2.1 4.6 2.1l1.5 3.4s.4 1.2-.6 2.2c-.9.9-5.4 1.8-7-5.2z" fill="#d88f69"/><path d="M90.9 152.4c.1-1.8 1.9-2.7 1.9-2.7l-.3.9c-.6 5.5 4.8 7 4.8 7 1.6-.7 1.2-2.4 1.2-2.4l1.6-.3c.5 3.6-1.6 4.8-1.6 4.8l-1.3-1.7-1.3 2.5c-3.4-1.3-5.1-6.2-5-8.1z" fill="#fff"/><path d="M92.5 150.7s-1.8-4.4-.9-7.1c.9-2.8 4-5.1 8-3.7s4.6 4.5 4.9 5.9c.3 1.3 0 2.4-.4 3.1-.4.6-.3 1.8-.3 2.2s.6 1.8 0 2c-.5.2-.6.2-.6.2s-.3 2.6-1.3 3.1-4.9-.6-6.9-2.5c-1.9-2-2.5-3.2-2.5-3.2z" fill="#f2a983"/><path d="M98.3 138.7c4.9.1 7 4.1 7.1 5.1s-1 1.7-1 1.7c-.2.4-.5.7-1 .7-1.1.1-4.6-.9-5.3.2-.7 1-.8 1.1-1.1 1.4s-.9.6-.9 1-.6 1-.6 1-1-1.7-2.4-1.2c-.6.2-.8.6-1 1-.3-.9-.6-2.2-.7-3.5-1.1-3.5 2-7.5 6.9-7.4z" fill="#563317"/><path d="M93.1 148.6c-.6.2-.8.6-1 1-.3-.9-.6-2.2-.7-3.5 2.3 1.5 5.2 1.2 6.4 1-.4.5-.5.6-.7.8-.3.3-.9.6-.9 1s-.6 1-.6 1-1.1-1.8-2.5-1.3z" fill="#563317" opacity=".3"/><path d="M104.1 152.2c-.3-.9-.8-2.2-.7-2.5 0-.3.6-.8.9-1.1-.1.1-.1.3-.2.4-.4.6-.3 1.8-.3 2.2.1.1.2.5.3 1z" fill="#d88f69"/><path d="M94.2 148.9c-.2-.4-1.3-1.1-1.8-.4s.4 2.4.9 2.9c.5.6 1.3.6 1.1-.5-.2-1.2 0-1.6-.2-2z" fill="#f2a983"/><path d="M5.9 204.7c4.6-2.7 17.6.5 29 7.1 9.3 5.4 14.7 11.3 13.9 14.8v2.8c-.2.8-.7 1.5-1.5 2-4.6 2.7-17.6-.5-29-7.1-8.8-5.1-14.1-10.7-14-14.3v-2.8c.1-1 .6-1.9 1.6-2.5z" fill="#2e383b"/><path d="M5.9 204.7c-1 .6-1.6 1.5-1.6 2.5-.2 3.5 5.1 9.2 14 14.3 11.4 6.6 24.4 9.8 29 7.1.9-.5 1.4-1.2 1.5-2 .8-3.5-4.6-9.4-13.9-14.8-11.4-6.5-24.4-9.7-29-7.1z" fill="#414e52"/><path d="M11.1 195c3.5-2 13.2.4 21.8 5.4 7 4 11 8.5 10.5 11.1v11.4c-.1.6-.5 1.1-1.2 1.5-3.5 2-13.2-.4-21.8-5.4-6.6-3.8-10.6-8.1-10.5-10.7v-11.4c0-.8.4-1.4 1.2-1.9z" fill="#2e383b"/><path d="M7.4 52.6c4.3-2.5 16.4.5 27 6.7 8.6 5 13.7 10.5 13 13.8v143.6c-.2.7-.6 1.4-1.4 1.8-4.3 2.5-16.4-.5-27-6.7-8.2-4.7-13.2-10-13-13.3V54.9c-.1-.9.4-1.7 1.4-2.3z" fill="#1574f5"/><path d="M18.9 68.2c10.6 6.1 22.7 9.1 27 6.7.8-.5 1.3-1.1 1.4-1.8v143.6c-.2.7-.6 1.4-1.4 1.8-4.3 2.5-16.4-.5-27-6.7-8.2-4.7-13.2-10-13-13.3V54.9c-.2 3.3 4.8 8.6 13 13.3z" fill="#d4dbdf"/><path d="M18.9 192.3c10.6 6.1 22.7 9.1 27 6.7.8-.5 1.3-1.1 1.4-1.8v19.4c-.2.7-.6 1.4-1.4 1.8-4.3 2.5-16.4-.5-27-6.7-8.2-4.7-13.2-10-13-13.3V179c-.2 3.3 4.8 8.6 13 13.3zm0-100.9c10.6 6.1 22.7 9.1 27 6.7.8-.5 1.3-1.1 1.4-1.8V130c-.2.7-.6 1.4-1.4 1.8-4.3 2.5-16.4-.5-27-6.7-8.2-4.7-13.2-10-13-13.3V78c-.2 3.4 4.8 8.7 13 13.4z" fill="#0a3847"/><path d="M18.9 79.8c10.6 6.1 22.7 9.1 27 6.7.8-.5 1.3-1.1 1.4-1.8v33.8c-.2.7-.6 1.4-1.4 1.8-4.3 2.5-16.4-.5-27-6.7-8.2-4.7-13.2-10-13-13.3V66.5c-.2 3.3 4.8 8.6 13 13.3z" fill="#0a3847"/><path d="M18.9 68.2c10.6 6.1 22.7 9.1 27 6.7.8-.5 1.3-1.1 1.4-1.8v33.8c-.2.7-.6 1.4-1.4 1.8-4.3 2.5-16.4-.5-27-6.7-8.2-4.7-13.2-10-13-13.3V54.9c-.2 3.3 4.8 8.6 13 13.3z" fill="#1574f5"/><path d="M220 251.6l-2.5 4.2V268l15.5-8.9z" fill="#414e52"/><path d="M217.5 268v-12.2l12.9-22.3-12.8-7.4 12.8-22.1-12.8-7.4 12.7-21.9v-12.6l-15.2-8.8-.6.3V166l-12.9 22.3 12.7 7.4-12.7 22.3 12.8 7.4-12.5 21.7v13.1L217 269l16-9.2v-.7z" fill="#eef5f9"/><path d="M233 259.8l-16 9.2v-13.1l12.6-21.9-12.8-7.4 12.8-22.1-12.8-7.4 12.9-22.3v-12.3l.6-.3v12.5l-12.6 21.9 12.7 7.4-12.7 22.1 12.7 7.4-12.9 22.3V268l15.5-8.9z" opacity=".3"/><path d="M229.7 174.8l-15.1-8.8v-12.3l15.1 8.8zM217 269l-15.2-8.8v-13.1l15.2 8.8z" opacity=".1"/><path d="M217 255.9l-15.2-8.8 12.6-21.9 15.2 8.8z" fill="url(#p)" opacity=".15"/><path d="M203.9 246.8l11.5-19.9 12.7 7.4-11.5 19.9z" opacity=".2"/><path d="M203.6 246.8l11.5-19.9 12.7 7.4-11.5 19.9z" fill="#fbffff"/><path d="M203.6 246.8l11.5-19.9 12.7 7.4-11.5 19.9z" fill="#fbffff"/><path d="M223.7 241.5l4.1-7.2-12.7-7.4-4.2 7.2z" fill="#0a3847"/><path d="M225 239.2l2.8-4.9-12.7-7.4-2.8 4.9z" fill="#0a3847"/><path d="M202.3 246.2l15.2 8.8.6-1.1-15.2-8.8z" fill="#414e52"/><path d="M202.1 246.6l15.2 8.8.2-.4-15.2-8.8z" opacity=".2"/><path d="M216.8 197.1l-15.1-8.8 12.9-22.3 15.1 8.8z" fill="url(#q)" opacity=".15"/><path d="M204 187.6l11.5-19.8 12.7 7.3-11.5 19.9z" opacity=".2"/><path d="M203.7 187.6l11.5-19.9 12.7 7.4-11.4 19.9z" fill="#fbffff"/><path d="M202.2 187.4l15.2 8.8.2-.4-15.2-8.8z" opacity=".2"/><path d="M216.7 226.8l-15.1-8.8 12.8-22.3 15.2 8.8z" fill="url(#r)" opacity=".15"/><path d="M203.9 217.3l11.5-19.9 12.7 7.4-11.5 19.9z" opacity=".2"/><path d="M203.6 217.3l11.5-19.9 12.7 7.4-11.5 19.9z" fill="#fbffff"/><path d="M203.6 217.3l11.5-19.9 12.7 7.4-11.5 19.9z" fill="#fbffff"/><path d="M223.7 212l4.1-7.2-12.7-7.4-4.2 7.2z" fill="#0a3847"/><path d="M225 209.7l2.8-4.9-12.7-7.4-2.8 4.9z" fill="#0a3847"/><path d="M202.3 216.7l15.2 8.8.6-1.1-15.2-8.8z" fill="#414e52"/><path d="M202.024 217.057l.2-.346 15.133 8.789-.2.346z" opacity=".2"/><path d="M226.1 210.6l3.5-6.1-15.2-8.8-3.5 6.1zm-9.3 16l-.1.2-2.4-1.4-3.4 5.9 15.2 8.8 3.5-6.1z" opacity=".15"/><path d="M203.7 187.6l11.5-19.9 12.7 7.4-11.4 19.9z" fill="#fbffff"/><path d="M223.8 182.3l4.1-7.2-12.7-7.4-4.1 7.2z" fill="#0a3847"/><path d="M225.1 180l2.8-4.9-12.7-7.4-2.8 4.9z" fill="#0a3847"/><path d="M202.4 187l15.2 8.8.6-1.1-15.1-8.8z" fill="#414e52"/></svg>