<svg viewBox="0 0 149 207" xmlns="http://www.w3.org/2000/svg"><path d="M48.8 148.5L34 157.1c-.4.2-1 .2-1.6-.2l14.8-8.6c.7.4 1.2.4 1.6.2zm-43.9-42l14.8-8.6c-.4.2-.7.7-.7 1.5L4.2 108c0-.8.3-1.3.7-1.5z" fill="#c35c0e"/><path d="M48.8 148.5L34 157.1c.4-.2.7-.7.7-1.5l14.8-8.6c0 .7-.2 1.2-.7 1.5z" fill="#3967a8"/><path d="M8.8 83.2l14.8-8.6-.1 24.8L8.8 108z" fill="#c35c0e"/><path d="M4.9 106.5l14.8-8.6c.4-.2 1-.2 1.6.2l-14.8 8.6c-.6-.4-1.2-.4-1.6-.2zM34.8 153l14.7-8.6v2.6l-14.7 8.6z" fill="#3967a8"/><path d="M6.5 106.6l14.7-8.5 2.3 1.3L8.8 108z" fill="#3967a8"/><path d="M30.3 125.6l-.1 24.8-21.5-12.5v-24.7z" fill="#637cc5"/><path d="M8.7 113.2l14.8-8.6L45 117l-14.7 8.6z" fill="#3967a8"/><path d="M30.3 125.6L45 117v24.8l-14.8 8.6z" fill="#3967a8"/><path d="M30.3 125.6L45 117v24.8l-14.8 8.6z" fill="#637cc5"/><path d="M8.7 113.2l14.8-8.6L45 117l-14.7 8.6z" fill="#637cc5"/><path d="M32.6 121.7c1.2.7 2.3 2.5 2.3 3.9v2.6l-.1 24.8v2.6c0 1.4-1 2-2.3 1.3L6.4 141.8c-1.2-.7-2.3-2.5-2.3-3.9l.1-30c0-1.4 1-2 2.3-1.3l2.3 1.3 21.5 12.4z" fill="#3967a8"/><path d="M30.2 150.4L8.7 137.9v-24.7l21.6 12.4z" fill="#3967a8"/><path d="M56.3 168l14.8-8.6c0 1.4 1 3.2 2.3 3.9L58.6 172c-1.3-.8-2.3-2.5-2.3-4zm-52-90l14.8-8.6c0 1.4 1 3.2 2.3 3.9L6.6 81.9c-1.3-.7-2.3-2.5-2.3-3.9zm30.5 75l14.7-8.6 21.6 12.5-14.8 8.5z" fill="#c35c0e"/><path d="M34.8 128.2l14.8-8.5-.1 24.7-14.7 8.6zM8.8 108l14.7-8.6 21.6 12.4-14.8 8.6z" fill="#3967a8"/><path d="M34.8 125.6l14.8-8.5v2.6l-14.8 8.5zm-4.5-5.2l14.8-8.6 2.2 1.3-14.7 8.6z" fill="#3967a8"/><path d="M30.4 95.6l14.7-8.5v24.7l-14.8 8.6z" fill="#60b9cb"/><path d="M30.4 95.6l14.7-8.5v24.7l-14.8 8.6z" fill="#c35c0e"/><path d="M34.9 98.3l14.8-8.6-.1 24.7-14.8 8.6z" fill="#3967a8"/><path d="M32.6 121.7l14.8-8.6c1.2.7 2.3 2.5 2.3 3.9l-14.8 8.6c-.1-1.4-1.1-3.2-2.3-3.9z" fill="#3967a8"/><path d="M56.4 140.7l-.1 24.7L34.8 153v-24.8z" fill="#60b9cb"/><path d="M34.8 128.2l14.8-8.5 21.5 12.4-14.7 8.6z" fill="#c35c0e"/><path d="M34.8 128.2l14.8-8.5 21.5 12.4-14.7 8.6zm21.6 12.5l14.7-8.6v24.8l-14.8 8.5z" fill="#60b9cb"/><path d="M56.4 140.7l14.7-8.6v27.4L56.3 168z" fill="#c35c0e"/><path d="M56.4 140.7l-.1 27.3c0 1.4 1 3.2 2.3 3.9l-26.1-15.1c1.2.7 2.3.1 2.3-1.3v-2.6l21.5 12.4.1-24.6-21.5-12.4z" fill="#c35c0e"/><path d="M8.8 83.2l14.8-8.6 21.5 12.5-14.7 8.5z" fill="#60b9cb"/><path d="M6.6 81.9l14.7-8.6 23.8 13.8-14.7 8.5z" fill="#c35c0e"/><path d="M30.4 93l14.7-8.5v2.6l-14.7 8.5z" fill="#3967a8"/><path d="M4.3 78c0 1.4 1 3.2 2.3 3.9l23.8 13.8-.1 24.8.1-24.8L8.8 83.2V108l-2.3-1.3c-1.2-.7-2.3-.1-2.3 1.3z" fill="#c35c0e"/><path d="M30.4 95.6l-.1 24.8L8.8 108V83.2z" fill="#60b9cb"/><path d="M56.4 138.1l14.7-8.6v2.6l-14.7 8.6z" fill="#3967a8"/><path d="M101 178.6l-14.8 8.6c-.4.2-1 .2-1.6-.2l14.8-8.6c.6.4 1.2.4 1.6.2z" fill="#c35c0e"/><path d="M57 136.6l14.8-8.6c-.4.2-.7.7-.7 1.5l-14.8 8.6c.1-.7.3-1.2.7-1.5z" fill="#3967a8"/><path d="M56.5 110.7l14.7-8.6-.1 24.8-14.7 8.6z" fill="#637cc5"/><path d="M34.8 123l14.8-8.6 21.5 12.5-14.7 8.6zM31 91.6L45.8 83c-.4.2-.7.7-.7 1.5L30.4 93c0-.7.2-1.2.6-1.4z" fill="#3967a8"/><path d="M30.5 65.7l14.7-8.6-.1 24.8-14.7 8.5z" fill="#637cc5"/><path d="M8.8 78l14.8-8.6 21.5 12.5-14.7 8.5z" fill="#3967a8"/><path d="M8.9 53.2l14.8-8.6-.1 24.8L8.8 78z" fill="#3967a8"/><path d="M19.8 38c-.4.2-.7.7-.7 1.5L4.4 48c0-.7.3-1.2.7-1.5 4.4-2.5 10.3-6 14.7-8.5z" fill="#c35c0e"/><g fill="#3967a8"><path d="M101 178.6l-14.8 8.6c.4-.2.7-.7.7-1.5l14.8-8.6c0 .8-.3 1.3-.7 1.5zm-42.3-41.8l14.7-8.6 2.3 1.3-14.8 8.6z"/><path d="M61 113.3l14.8-8.6-.1 24.8-14.8 8.6z"/><path d="M57 136.6l14.8-8.6c.4-.2 1-.2 1.6.2l-14.8 8.6c-.6-.4-1.1-.4-1.6-.2zM32.7 91.7l14.7-8.5 2.3 1.3L34.9 93z"/><path d="M35 68.3l14.8-8.6-.1 24.8L34.9 93z"/><path d="M31 91.6L45.8 83c.4-.2 1-.2 1.6.2l-14.8 8.6c-.6-.4-1.1-.5-1.6-.2z"/></g><path d="M9 23.2l14.8-8.5-.1 24.7L8.9 48z" fill="#c35c0e"/><path d="M5.1 46.5l14.8-8.6c.4-.2 1-.2 1.6.2L6.7 46.7c-.7-.4-1.2-.4-1.6-.2zm81.8 136.6l14.8-8.6v2.7l-14.8 8.5z" fill="#3967a8"/><path d="M6.7 46.7l14.7-8.6 2.3 1.3L8.9 48zm54.2 96.6l14.8-8.6 21.5 12.5-14.7 8.5z" fill="#3967a8"/><path d="M82.4 180.5l-21.6-12.4.1-24.8 21.6 12.4z" fill="#3967a8"/><path d="M82.5 155.7l14.7-8.5v24.7l-14.8 8.6z" fill="#3967a8"/><path d="M60.9 143.3l14.8-8.6 21.5 12.5-14.7 8.5z" fill="#637cc5"/><path d="M82.5 155.7l-.1 24.8-21.6-12.4.1-24.8z" fill="#637cc5"/><path d="M82.5 155.7l14.7-8.5v24.7l-14.8 8.6zM34.9 98.3l14.8-8.6 21.5 12.4-14.7 8.6z" fill="#637cc5"/><path d="M56.4 135.5l.1-24.8L35 98.3l-.2 24.7zm2.4-28.7c1.3.7 2.3 2.5 2.3 3.9v2.6l-.1 24.8-2.3-1.3c-1.3-.7-2.3-.1-2.3 1.3v2.6l-21.5-12.4v-2.6c0-1.4-1-3.2-2.3-3.9l-2.3-1.3.1-24.8v-2.6c0-1.4 1-2 2.3-1.3l2.3 1.3 21.5 12.4z" fill="#3967a8"/><path d="M56.5 110.7l-.1 24.8L34.8 123l.1-24.7zM8.9 53.2l14.8-8.6 21.5 12.5-14.7 8.6z" fill="#637cc5"/><path d="M30.5 65.7l-.1 24.7L8.8 78l.1-24.8z" fill="#637cc5"/><path d="M86.9 183.1l14.8-8.6 21.5 12.5-14.7 8.6z" fill="#c35c0e"/><path d="M87 158.4l14.8-8.6-.1 24.7-14.8 8.6z" fill="#3967a8"/><path d="M82.6 125.8l14.7-8.6-.1 24.8-14.7 8.5z" fill="#60b9cb"/><path d="M60.9 138.1l14.8-8.6L97.2 142l-14.7 8.5z" fill="#3967a8"/><path d="M56.5 80.7l14.8-8.6-.1 24.8-14.7 8.6z" fill="#60b9cb"/><path d="M34.9 93l14.8-8.5 21.5 12.4-14.7 8.6z" fill="#3967a8"/><path d="M31.2 31.6L46 23c-.4.2-.7.7-.7 1.5l-14.8 8.6c.1-.7.3-1.2.7-1.5z" fill="#c35c0e"/><path d="M31.2 31.6L46 23c.4-.2 1-.2 1.6.2l-14.8 8.6c-.6-.4-1.2-.4-1.6-.2z" fill="#3967a8"/><path d="M32.8 31.8c-1.3-.7-2.3-.1-2.3 1.3l-.1 27.4.1-24.8L9 23.2 8.9 48l-2.3-1.3c-1.2-.7-2.3-.1-2.3 1.3l.1-30c0-1.4 1-2 2.3-1.3z" fill="#c35c0e"/><path d="M32.8 31.8l-2.3 1.3c0-.7.3-1.2.7-1.5l10.9-6.3-18.4-10.6L9 23.2l21.5 12.4L45.3 27l-2.2-1.3z" fill="#60b9cb"/><path d="M32.8 31.8l-2.3 1.3-.1 27.4 14.8-8.6.1-27.3z" fill="#c35c0e"/><path d="M30.5 35.7l14.8-8.6-.1 24.8-14.7 8.5z" fill="#60b9cb"/><path d="M23.7 39.4L8.9 48l21.5 12.4V43.3zm6.8 4v17.1l14.8-8.6z" fill="#3967a8"/><path d="M127.1 193.7l-14.8 8.6c.4-.2.7-.7.7-1.5l14.8-8.6c0 .7-.3 1.2-.7 1.5z" fill="#c35c0e"/><path d="M87 155.8l14.8-8.6v2.6L87 158.4zm-4.5-5.3l14.7-8.5 2.3 1.3-14.7 8.5zM61 110.7l14.8-8.6v2.6L61 113.3zm-4.5-5.2l14.7-8.6 2.3 1.3-14.7 8.6zM35 65.7l14.8-8.6v2.6L35 68.3zm-4.5-5.3l14.7-8.5 2.3 1.3-14.7 8.6z" fill="#3967a8"/><path d="M5.1 16.6L19.9 8c.4-.2 1-.2 1.6.2L6.7 16.8c-.6-.4-1.2-.5-1.6-.2z" fill="#c35c0e"/><path d="M84.8 151.8c1.3.7 2.3 2.5 2.3 3.9v2.6l-.1 24.8v2.6c0 1.4-1 2-2.3 1.3l-26.1-15c-1.3-.7-2.3-2.5-2.3-3.9l.1-27.4v-2.6c0-1.4 1-2 2.3-1.3l2.3 1.3 21.6 12.4z" fill="#3a6aad"/><path d="M87.1 128.4l14.7-8.6v24.8L87 153.1z" fill="#3967a8"/><path d="M84.8 151.8l14.8-8.6c1.3.7 2.3 2.5 2.3 3.9L87 155.8c0-1.5-1-3.2-2.2-4zm-26-45l14.8-8.6c1.3.7 2.3 2.5 2.3 3.9L61 110.7c0-1.4-1-3.2-2.2-3.9zM35.1 38.3l14.7-8.6v24.8L35 63.1z" fill="#3967a8"/><path d="M32.8 61.8l14.8-8.6c1.2.7 2.3 2.5 2.3 3.9L35 65.7c0-1.5-1-3.2-2.2-3.9z" fill="#3967a8"/><path d="M30.4 90.4l.1-24.8L8.9 53.2 8.8 78zm2.4-28.6c1.2.7 2.3 2.5 2.3 3.9v2.6L34.9 93l-2.3-1.3c-1.3-.7-2.3-.1-2.3 1.3v2.6L6.6 81.9c-1.2-.7-2.3-2.5-2.3-3.9l.1-30c0-1.4 1-2 2.3-1.3L9 48l21.5 12.4z" fill="#3967a8"/><path d="M108.6 170.8l14.7-8.6-.1 24.8-14.7 8.6z" fill="#60b9cb"/><path d="M108.6 170.8l-.1 24.8-21.6-12.5.1-24.7zM87 158.4l14.8-8.6 21.5 12.4-14.7 8.6zm-26-45.1l14.8-8.6 21.5 12.5-14.7 8.6z" fill="#60b9cb"/><path d="M82.6 123.2l14.7-8.6v2.6l-14.7 8.6z" fill="#3967a8"/><path d="M82.6 125.8l-.1 24.7-21.6-12.4.1-24.8zM35 68.3l14.8-8.6 21.5 12.4-14.8 8.6zm21.5 12.4v24.8L34.9 93l.1-24.7zm-26-45v24.7L8.9 48 9 23.2z" fill="#60b9cb"/><path d="M87 158.4l14.8-8.6 23.8 13.7-14.8 8.6z" fill="#c35c0e"/><path d="M56.6 78.1l14.7-8.6v2.6l-14.8 8.6zm30.4 75l14.8-8.5 21.5 12.4-14.7 8.6z" fill="#3967a8"/><path d="M108.6 140.8l14.8-8.5-.1 24.7-14.7 8.6z" fill="#637cc5"/><path d="M113.2 140.8l14.7-8.5v29.9l-14.8 8.6z" fill="#3967a8"/><path d="M127.2 163.7l-14.8 8.6c-.4.2-1 .2-1.6-.2l14.8-8.6c.6.4 1.2.4 1.6.2z" fill="#c35c0e"/><path d="M83.2 121.7l14.8-8.6c-.4.2-.7.7-.7 1.5l-14.8 8.6c.1-.8.3-1.3.7-1.5zm-26-45L72 68.1c-.4.2-.7.7-.7 1.5l-14.8 8.6c.1-.8.3-1.3.7-1.5z" fill="#3967a8"/><path d="M56.6 50.7l14.8-8.5-.1 24.7-14.7 8.6z" fill="#637cc5"/><path d="M35 63.1l14.8-8.6 21.5 12.4-14.7 8.6z" fill="#3967a8"/><path d="M113.1 170.8l14.8-8.6-.1 30-14.8 8.6z" fill="#c35c0e"/><path d="M127.2 163.7l-14.8 8.6c.4-.2.7-.7.7-1.5l14.8-8.6c-.1.8-.3 1.3-.7 1.5z" fill="#3967a8"/><path d="M87.1 128.4l14.7-8.6 21.6 12.5-14.8 8.5zm21.5 12.4v24.8L87 153.1l.1-24.7z" fill="#637cc5"/><path d="M108.6 165.6l.1-24.8-21.5-12.4-.2 24.7zm2.3-28.7c1.2.7 2.3 2.5 2.3 3.9l-.1 30c0 1.4-1 2-2.3 1.3L87 158.4v-2.6c0-1.4-1-3.2-2.3-3.9l-2.3-1.3.1-24.8v-2.6c0-1.4 1-2 2.3-1.3l2.3 1.3 21.5 12.4z" fill="#3967a8"/><path d="M113.1 170.8l-.1 30c0 1.4-1 2-2.3 1.3l-26-15.1c1.3.7 2.3.1 2.3-1.3v-2.6l21.5 12.4.1-24.8L87 158.4l23.8 13.8c1.3.6 2.3.1 2.3-1.4z" fill="#c35c0e"/><path d="M84.8 121.9l14.8-8.6 2.3 1.3-14.8 8.6zm-2.2-26.1l14.8-8.6-.1 24.8-14.7 8.6z" fill="#3967a8"/><path d="M82.6 95.8l14.8-8.6-.1 24.8-14.7 8.6z" fill="#637cc5"/><path d="M87.2 98.4l14.7-8.6v24.8l-14.8 8.6z" fill="#3967a8"/><path d="M83.2 121.7l14.8-8.6c.4-.2 1-.2 1.6.2l-14.8 8.6c-.6-.4-1.2-.4-1.6-.2zM58.8 76.8l14.8-8.6 2.3 1.4-14.8 8.5z" fill="#3967a8"/><path d="M61.2 53.4l14.7-8.6v24.8l-14.8 8.5z" fill="#3967a8"/><path d="M57.2 76.7L72 68.1c.4-.2 1-.2 1.6.2l-14.8 8.6c-.6-.4-1.2-.5-1.6-.2z" fill="#3967a8"/><path d="M6.7 16.7l14.8-8.6 26.1 15.1-14.8 8.6z" fill="#c35c0e"/><path d="M61.1 83.3l14.7-8.5 21.6 12.4-14.8 8.6zm21.5 37.3L61 108.1l.1-24.8 21.5 12.5z" fill="#3967a8"/><path d="M61.1 83.3l14.7-8.5 21.6 12.4-14.8 8.6zm21.5 12.5v24.8L61 108.1l.1-24.8zM35.1 38.3l14.7-8.6 21.6 12.5-14.8 8.5zm21.5 12.4v24.8L35 63.1l.1-24.8z" fill="#637cc5"/><path d="M108.7 110.8l14.8-8.5-.1 24.7-14.7 8.6z" fill="#60b9cb"/><path d="M87.1 123.2l14.8-8.6 21.5 12.4-14.7 8.6zM61.2 50.8l14.7-8.6v2.6l-14.7 8.6z" fill="#3967a8"/><path d="M83.4 61.7l14.8-8.6c-.4.2-.7.7-.7 1.5l-14.8 8.6c0-.7.3-1.2.7-1.5z" fill="#c35c0e"/><path d="M83.4 61.7l14.8-8.6c.4-.2 1-.2 1.6.2L85 61.9c-.6-.4-1.2-.4-1.6-.2z" fill="#3967a8"/><path d="M58.9 46.8l14.8-8.5 26.1 15L85 61.9z" fill="#c35c0e"/><path d="M58.9 46.8l14.8-8.6c1.3.7 2.3 2.5 2.3 3.9l-14.8 8.6c0-1.4-1-3.1-2.3-3.9z" fill="#3967a8"/><path d="M85 61.9c-1.2-.7-2.3-.1-2.3 1.3l-.1 27.4.1-24.8-21.6-12.4v-2.6c0-1.4-1-3.2-2.3-3.9z" fill="#c35c0e"/><path d="M85 61.9l-2.3 1.3c0-.7.3-1.2.7-1.5l.7-.4-18.4-10.6-4.5 2.6 21.6 12.4 14.8-8.6-2.2-1.3z" fill="#60b9cb"/><path d="M85 61.9l-2.3 1.3-.1 27.4L97.4 82l.1-27.3z" fill="#c35c0e"/><path d="M82.7 65.8l14.8-8.6-.1 24.8-14.7 8.6z" fill="#60b9cb"/><path d="M75.9 69.6l-14.8 8.6 21.6 12.4V73.5zm6.8 3.9v17.1L97.5 82zm26 62.1l14.7-8.6 2.3 1.4-14.8 8.5zM87.2 95.8l14.7-8.6v2.6l-14.7 8.6z" fill="#3967a8"/><path d="M82.7 90.6L97.4 82l2.3 1.3-14.8 8.6zM32.8 31.8l14.8-8.6 26.1 15.1-14.8 8.5z" fill="#3967a8"/><path d="M87.2 98.4l14.7-8.6 23.8 13.8-14.7 8.6z" fill="#c35c0e"/><path d="M87.2 98.4l14.7-8.6 21.6 12.5-14.8 8.5z" fill="#60b9cb"/><path d="M87.3 68.4l14.7-8.5-.1 24.7-14.7 8.6z" fill="#3967a8"/><path d="M84.9 91.9l14.8-8.6c1.3.7 2.3 2.5 2.3 3.9l-14.8 8.6c0-1.4-1-3.2-2.3-3.9z" fill="#3967a8"/><path d="M108.8 80.9l14.8-8.6-.1 24.8-14.8 8.5z" fill="#637cc5"/><path d="M87.2 93.2l14.7-8.6 21.6 12.5-14.8 8.5z" fill="#3967a8"/><path d="M113.4 80.9l14.7-8.6-.1 30-14.7 8.6z" fill="#3967a8"/><path d="M127.4 103.7l-14.8 8.6c-.4.2-1 .2-1.6-.2l14.8-8.6c.6.4 1.1.5 1.6.2z" fill="#c35c0e"/><path d="M113.3 110.9l14.7-8.6-.1 30-14.7 8.5z" fill="#c35c0e"/><path d="M110.9 136.9l14.8-8.6c1.2.7 2.3 2.5 2.3 3.9l-14.8 8.6c0-1.4-1-3.2-2.3-3.9zm-26-45c1.3.7 2.3 2.5 2.3 3.9v2.6l-.1 24.8-2.3-1.3c-1.2-.7-2.3-.1-2.3 1.3v2.6L61 113.3v-2.6c0-1.4-1-3.2-2.3-3.9l-2.3-1.3.1-24.8v-2.6c0-1.4 1-2 2.3-1.3l2.3 1.3 21.6 12.4z" fill="#3967a8"/><path d="M56.6 75.5l.1-24.8-21.5-12.4-.2 24.8zm2.3-28.7c1.3.7 2.3 2.5 2.3 3.9v2.6l-.1 24.8-2.3-1.3c-1.3-.7-2.3-.1-2.3 1.3v2.6L35 68.3v-2.6c0-1.4-1-3.2-2.3-3.9l-2.3-1.3.1-27.4c0-1.4 1-2 2.3-1.3z" fill="#3a6aad"/><path d="M108.7 110.8v24.8l-21.6-12.4.1-24.8z" fill="#60b9cb"/><path d="M87.3 68.4l14.7-8.5 21.6 12.4-14.8 8.6z" fill="#637cc5"/><path d="M108.7 105.6l.1-24.8-21.5-12.4-.1 24.8zm2.4-28.6c1.2.7 2.3 2.5 2.3 3.9l-.1 30c0 1.4-1 2-2.3 1.3L87.2 98.4v-2.6c0-1.4-1-3.2-2.3-3.9l-2.3-1.3.1-27.4c0-1.4 1-2 2.3-1.3z" fill="#3967a8"/><path d="M82.7 65.8v24.8L61.1 78.1l.1-24.7z" fill="#60b9cb"/><path d="M127.4 103.7l-14.8 8.6c.4-.2.7-.7.7-1.5l14.8-8.6c-.1.8-.3 1.3-.7 1.5z" fill="#3967a8"/><path d="M113.3 110.9l-.1 30c0-1.4-1-3.2-2.3-3.9l-2.3-1.3.1-24.8-21.5-12.4 23.8 13.8c1.2.6 2.3 0 2.3-1.4z" fill="#c35c0e"/><path d="M108.8 80.9l-.1 24.7-21.5-12.4.1-24.8z" fill="#637cc5"/><path d="M85 61.9l14.8-8.6 26 15.1-14.7 8.6zM111.1 77l14.8-8.6c1.2.7 2.3 2.5 2.3 3.9l-14.8 8.6c0-1.5-1.1-3.2-2.3-3.9z" fill="#3967a8"/><path d="M56.6 75.4L35.1 63V38.2l21.6 12.5z" fill="#3a6aad"/><path d="M56.7 50.7l-.1 24.7L35.1 63V38.2z" fill="#1574f5"/><path d="M108.6 170.7l-.1 24.8L87 183l.1-24.7z" fill="#f36d00"/><path d="M113.1 170.7l-.1 30c0 1.4-1 2-2.3 1.3l-26.1-15.1c1.3.7 2.3.1 2.3-1.3V183l21.5 12.4.1-24.8L87 158.2l23.8 13.8c1.3.7 2.3.2 2.3-1.3z" fill="#db6610"/><path d="M32.6 121.6c1.2.7 2.3 2.5 2.3 3.9v2.6l-.1 24.8v2.6c0 1.4-1 2-2.3 1.3L6.4 141.7c-1.2-.7-2.3-2.5-2.3-3.9l.1-30c0-1.4 1-2 2.3-1.3l2.3 1.3 21.5 12.4z" fill="#3a6aad"/><path d="M30.3 125.5v24.8L8.7 137.8l.1-24.7z" fill="#1574f5"/><path d="M58.8 106.7c1.3.7 2.3 2.5 2.3 3.9v2.6L61 138l-2.3-1.3c-1.3-.7-2.3-.1-2.3 1.3v2.6l-21.6-12.4v-2.6c0-1.4-1-3.2-2.3-3.9l-2.3-1.3.1-24.8V93c0-1.4 1-2 2.3-1.3l2.3 1.3 21.6 12.4z" fill="#3a6aad"/><path d="M56.4 140.6l-.1 27.4c0 1.4 1 3.2 2.3 3.9l-26.1-15.1c1.2.7 2.3.1 2.3-1.3v-2.6l21.6 12.4v-24.7l-21.6-12.4z" fill="#db6610"/><path d="M56.4 140.6v24.7l-21.6-12.4.1-24.8z" fill="#f36d00"/><path d="M30.4 90.3l.1-24.8L9 53.1l-.1 24.8zm2.4-28.6c1.2.7 2.3 2.5 2.3 3.9v2.6L35 92.9l-2.3-1.3c-1.3-.7-2.3-.1-2.3 1.3v2.6L6.6 81.8c-1.2-.7-2.3-2.5-2.3-3.9l.1-30c0-1.4 1-2 2.3-1.3L9 47.9l21.5 12.4z" fill="#3a6aad"/><path d="M4.4 77.9c0 1.4 1 3.2 2.3 3.9l23.8 13.8-.1 24.8.1-24.8L8.9 83.1l-.1 24.8-2.3-1.3c-1.2-.7-2.3-.1-2.3 1.3z" fill="#db6610"/><path d="M30.4 95.5v24.8L8.8 107.9l.1-24.8z" fill="#f36d00"/><path d="M56.4 135.4l-21.5-12.5.1-24.7 21.5 12.4z" fill="#3a6aad"/><path d="M56.5 110.6l-.1 24.8-21.5-12.5.1-24.7zm-26-45l-.1 24.7L8.9 77.9 9 53.1z" fill="#1574f5"/><path d="M56.6 80.6l-.1 24.8L35 92.9V68.2zm-26-45l-.1 24.7L9 47.9V23.1z" fill="#f36d00"/><path d="M32.9 31.7c-1.3-.7-2.3-.1-2.3 1.3l-.1 27.4.1-24.8L9 23.1v24.8l-2.3-1.3c-1.2-.7-2.3-.1-2.3 1.3l.1-30c0-1.4 1-2 2.3-1.3z" fill="#db6610"/><path d="M108.7 140.7l-.1 24.8L87.1 153v-24.7zm-26-45l-.1 24.8L61.1 108V83.2z" fill="#1574f5"/><path d="M108.6 165.5l.1-24.8-21.5-12.4-.1 24.7zm2.4-28.7c1.2.7 2.3 2.5 2.3 3.9l-.1 30c0 1.4-1 2-2.3 1.3l-23.8-13.8v-2.6c0-1.4-1-3.2-2.3-3.9l-2.3-1.3.1-24.8V123c0-1.4 1-2 2.3-1.3l2.3 1.3 21.5 12.4z" fill="#3a6aad"/><path d="M82.6 120.5l.1-24.8-21.5-12.4-.1 24.7zM85 91.8c1.3.7 2.3 2.5 2.3 3.9v2.6l-.1 24.8-2.3-1.3c-1.2-.7-2.3-.1-2.3 1.3v2.6l-21.5-12.4v-2.6c0-1.4-1-3.2-2.3-3.9l-2.3-1.3.1-24.8v-2.6c0-1.4 1-2 2.3-1.3l2.3 1.3 21.5 12.4z" fill="#3a6aad"/><path d="M108.8 110.7l-.1 24.8-21.5-12.4V98.3zm-26-45l-.1 24.8L61.2 78V53.3z" fill="#f36d00"/><path d="M113.3 110.8l-.1 30c0-1.4-1-3.2-2.3-3.9l-2.3-1.3.1-24.8-21.5-12.4 23.8 13.8c1.3.6 2.3 0 2.3-1.4z" fill="#db6610"/><path d="M108.8 105.5l.1-24.8-21.5-12.4-.1 24.8zm2.3-28.6c1.2.7 2.3 2.5 2.3 3.9l-.1 30c0 1.4-1 2-2.3 1.3L87.2 98.3v-2.6c0-1.4-1-3.2-2.3-3.9l-2.3-1.3.1-27.4c0-1.4 1-2 2.3-1.3z" fill="#3a6aad"/><path d="M85.1 61.8c-1.2-.7-2.3-.1-2.3 1.3l-.1 27.4.1-24.8-21.5-12.4v-2.6c0-1.4-1-3.2-2.3-3.9z" fill="#db6610"/><path d="M82.6 125.7l-.1 24.7L61 138l.1-24.8z" fill="#f36d00"/><path d="M108.9 80.8l-.1 24.7-21.6-12.4.1-24.8zm-78.6 69.5L8.7 137.8l.1-24.7 21.5 12.4zm52.1 30.1L60.9 168l.1-24.8 21.5 12.4z" fill="#1574f5"/><path d="M82.5 155.6l-.1 24.8L60.9 168l.1-24.8z" fill="#1574f5"/></svg>