<svg viewBox="0 0 316 311.7" xmlns="http://www.w3.org/2000/svg"><path d="M306.7 176.4c-10.6.4-18.3-1.3-22.9-5.1s-6.2-9.7-4.8-17.7c5.5-29.5 2.1-42.1-1.7-47.4-2.2-3.1-4.5-3.5-4.6-3.5-.3 0-.5.1-.5.4s.1.5.4.5c0 0 2 .4 4 3.2 2.2 3.1 3.5 7.8 4.1 14 .7 8.4-.2 19.4-2.6 32.6-1.5 8.3.2 14.6 5.1 18.6 4.4 3.6 11.3 5.4 20.7 5.4.9 0 1.9 0 2.8-.1 2.6-.1 5.3-.3 8.2-.6v-.9c-2.9.3-5.6.5-8.2.6z" fill="#0a3847"/><path d="M37.7 95l.3 126.4 150.8-87.6-.4-126.4z" fill="#d4dbdf"/><path d="M185.8.1v6.5l5.6 3.2V3.3z" fill="#b8d4f5"/><path d="M35 87.7v6.5l5.7 3.2-.1-6.5z" fill="#679ae2"/><path d="M35 87.7l5.6 3.2L191.4 3.3 185.8 0z" fill="#cce3f5"/><path d="M40.6 90.9l.1 6.5L191.4 9.7V3.3z" fill="#eff8ff"/><path d="M38 221.4l109.9 63 150.3-87.3L188.3 134z" fill="#c5cccf"/><path d="M178.7 147.8l.5-8.4c.1-1.3-.9-2.4-2.2-2.4-1.3-.1-2.4.9-2.4 2.2v.3l.7 8.8v.3c0 .3.2.6.4.8l4.8 4.6c.4.4 1.1.4 1.5 0s.4-1 .1-1.4z" fill="#bf8766"/><path d="M177 133.1c-1.5-.1-2.8 1-2.8 2.3l-.1 7.1c.9 1.3 4.1 1.3 5.5 0l.3-6.6c0-1.4-1.3-2.7-2.9-2.8z" fill="#f36d00"/><circle cx="170.7" cy="130.5" fill="#1d1d1b" r="6.8"/><circle cx="170.2" cy="126.2" fill="#1d1d1b" r="6.5"/><circle cx="166.5" cy="135.1" fill="#1d1d1b" r="7.5"/><circle cx="166.3" cy="142.6" fill="#1d1d1b" r="6.8"/><ellipse cx="168.8" cy="161.6" fill="#f89ab5" rx="4.5" ry="5.1"/><path d="M161.9 187.8c-.2.2-.4.5-.3.9.1 1 .4 3.2 1.2 4.1s1.4.5 1.7.3.3-.9.3-.9l-1.6-5.4z" fill="#1d1d1b"/><path d="M163.1 186.8s-.7 5.3 1.1 6.1c1.5.7.9-5.2.9-5.2z" fill="#1d1d1b"/><path d="M175.3 152.4c-2.6-.1-4.8 1.9-4.9 4.5v.5c.1 1.9.2 3.8.4 5.8.1 1.9.3 3.8.5 5.8l1 10.3-4 3.3-5.4 4.5c-.5.4-.6 1.2-.2 1.7.4.4 1 .6 1.5.3l6.3-3.1 6.3-3.1c.7-.4 1.2-1.1 1.2-1.8l.1-.6 1-11.5c.2-1.9.3-3.8.4-5.8.1-1.9.2-3.8.3-5.8.1-2.7-1.9-4.9-4.5-5z" fill="#bf8766"/><path d="M172.8 201.4v1.6s2.6 4 4.4 2.8l-3.7-4.7z" fill="#1d1d1b"/><path d="M172.8 201.4s2.5 5.3 4.3 4.4c2-1-1.9-5-1.9-5z" fill="#1d1d1b"/><path d="M176.6 171.2c-.3-1.3-.5-2.6-.8-3.9l-.9-3.9-.4-2-.5-2c-.6-2.5-3.1-4.1-5.7-3.5-2.5.6-4.1 3.1-3.5 5.7 0 .2.1.3.1.5l.7 1.9.7 1.9 1.4 3.8c.5 1.3.9 2.5 1.4 3.8l1.4 3.6 1.1 11.8 1.2 12.6c.1.7.7 1.2 1.3 1.1s1.1-.5 1.1-1.1l1.2-12.6 1.2-12.6v-.2l-.2-.8z" fill="#cd916e"/><path d="M163.9 159.3c-.1 2.6-1.4 3.2-2.3 4.7-1.2 2.1-1.6 3.2-1.6 3.2 7.6 6.4 18.6 6.3 19.8 1.4s-.1-14.5-.1-14.5c-1 4.1-6 5.3-15.8 5.2z" fill="#0a3847"/><path d="M179.3 143.6c1.3-2.7-.6-4.2-.6-4.2l-1.8-6.2c-6.3.1-11.9 4.5-11.9 4.5l1.6 16-2.7 5.6s2.9 2.5 8.7.9c5.8-1.7 7.1-3.3 7.2-3.7.2-.6-.7-4.6-.7-4.6-1.4-2.5.2-8.3.2-8.3z" fill="#f36d00"/><ellipse cx="172.3" cy="135.8" fill="#cd916e" rx="2.6" ry="1.5"/><path d="M174.7 144s-.9 4.1-5.8 2.8c0 0 4.4 2.3 6.2-1.7 0 0 3.2.6 4.4-1.9 0 0-1.9 1.6-4.8.8z" fill="#c95e0d"/><path d="M170.9 130.7l-1 4.3s.5 1.6 2.4 1 1.6-1.8 1.6-1.8v-2.6z" fill="#cd916e"/><path d="M170.3 133.1c3.2.2 3.7-1.4 3.7-1.4l-3.1-1.1z" fill="#bf8766"/><path d="M172.5 121.5c-2 0-3.7 2.3-3.7 5.2 0 4 3.8 5.4 5.3 5.4.9 0 2.1-2.2 2.1-5.8.1-2.9-.2-4.8-3.7-4.8z" fill="#cd916e"/><path d="M173.6 120.5c-1.8-.1-6.2-.4-5.4 6.8 0 0 0 .1.2.9 0 0 1.4-1.6 1.6-2.3s.9-1.2 1.9-1.4c.8-.2 1.3-.2 2 .2.4.2.9.1 1.3-.2l1.2-1c.3-.3.4-.8.2-1.1-.5-.7-1.4-1.8-3-1.9z" fill="#1d1d1b"/><circle cx="169.4" cy="127.5" fill="#cd916e" r="1.3"/><path d="M164.4 146.8s1.1 1.2 4.1 0v-1l-4.2.5z" fill="#e6e6e6"/><path d="M175.7 121.5l.3.9c.7-.5.3-1.2.3-1.2-.3.5-.6.3-.6.3z" fill="#1d1d1b"/><path d="M176.1 122.3l-.1.7c.9-.2.8-.9.8-.9-.4.3-.7.2-.7.2z" fill="#1d1d1b"/><path d="M168.3 151.1l.5-8.3c.1-1.3-.9-2.4-2.2-2.4s-2.4.9-2.4 2.2v.3l.7 8.8v.2c0 .3.2.6.4.9l4 8c.4.4 1.1.4 1.5 0s.4-1 .1-1.4z" fill="#cd916e"/><path d="M166.6 136.5c-1.5-.1-2.8 1-2.8 2.3l-.1 7.1c.9 1.3 4.1 1.3 5.5 0l.3-6.6c0-1.5-1.3-2.8-2.9-2.8z" fill="#f36d00"/><path d="M169.8 159.4l-.9.5.4 4.2.7-.5.7-.5.9-.8-.6-2.7z" fill="#cd916e"/><path d="M170.9 161.4c-.2.1-.3.3-.2.5.2.4.6 1.6.4 2.2 0 .2 0 .3.1.4l.1.1c.2.1.4 0 .5-.3.3-1-.4-2.6-.4-2.7 0-.2-.3-.2-.5-.2z" fill="#cd916e"/><path d="M170.5 161.8c-.2.1-.3.3-.3.5.2.6.4 1.7.1 2.2-.1.2 0 .4.1.5 0 0 .1 0 .1.1.2.1.4 0 .5-.2.5-1 0-2.6-.1-2.8.1-.2-.2-.3-.4-.3z" fill="#cd916e"/><path d="M169.8 161.6c-.2.1-.3.3-.3.5.2.6.4 1.7.1 2.2-.1.2 0 .4.1.5 0 0 .1 0 .1.1.2.1.4 0 .5-.2.5-1 0-2.6-.1-2.8.1-.3-.2-.4-.4-.3z" fill="#cd916e"/><path d="M169.5 161.4c-.2 0-.3.3-.3.5.1.4.2 1.4-.1 1.9-.1.2-.1.4.1.5.2.1.4.1.6-.1.6-.9.3-2.4.3-2.5-.2-.2-.4-.3-.6-.3z" fill="#cd916e"/><path d="M180.6 152.7l-.5.9 2.2 3.4.4-.7.4-.8.4-1.2-1.8-2z" fill="#bf8766"/><path d="M183.1 153.9c-.2-.1-.4-.1-.6.1-.1.2-.1.4.1.6.3.3 1.3 1.1 1.4 1.7 0 .2.2.3.4.3h.1c.2 0 .4-.3.3-.5-.2-1.1-1.6-2.1-1.7-2.2z" fill="#bf8766"/><path d="M182.9 154.5c-.2-.2-.4-.1-.6 0-.2.2-.1.4 0 .6.4.4 1.1 1.3 1.2 1.9 0 .2.2.4.4.4s.4-.2.4-.4c0-1.2-1.2-2.4-1.4-2.5z" fill="#bf8766"/><path d="M182.2 154.6c-.2-.2-.4-.1-.6 0-.2.2-.1.4 0 .6.4.4 1.1 1.3 1.2 1.9 0 .2.2.4.4.4s.4-.2.4-.4c-.1-1.2-1.3-2.4-1.4-2.5z" fill="#bf8766"/><path d="M181.2 154.7c-.2.1-.2.4 0 .6.2.3.9 1.1.8 1.7 0 .2.1.4.4.4.2 0 .4-.1.4-.4.1-1.1-.9-2.2-1-2.3-.1-.2-.4-.2-.6 0z" fill="#bf8766"/><path d="M254.9 98.7l9.1 5.3 9-5.3-9-5.2z" fill="#0a3847"/><path d="M264 114.4l9-5.2V98.7l-9 5.3z" fill="#0a3847"/><path d="M246.6 134.9c-.7-.2-1.4.3-1.6 1l-5.2 23.5c-.2.7.3 1.4 1 1.6h.3c.6 0 1.1-.4 1.3-1l5.2-23.5c.2-.7-.3-1.4-1-1.6z" fill="#666"/><path d="M246 143.4c-.2-.7-.9-1.2-1.6-1s-1.2.9-1 1.6l1.6 7.7c.1.6.7 1 1.3 1h.3c.7-.2 1.2-.9 1-1.6z" fill="#4d4d4d"/><path d="M251.5 144.9l-6.1 5.4c-.5.5-.6 1.3-.1 1.9.3.3.6.4 1 .4.3 0 .6-.1.9-.3l6.1-5.4c.5-.5.6-1.3.1-1.9-.5-.5-1.4-.6-1.9-.1z" fill="#ccc"/><path d="M247.2 150.4l-6.1-5.4c-.5-.5-1.4-.4-1.9.1s-.4 1.4.1 1.9l6.1 5.4c.3.2.6.3.9.3.4 0 .7-.1 1-.4.5-.6.4-1.5-.1-1.9z" fill="#ccc"/><path d="M246.3 113.3c-.7 0-1.3.6-1.3 1.3v39.6c0 .7.6 1.3 1.3 1.3s1.3-.6 1.3-1.3v-39.5c0-.8-.6-1.4-1.3-1.4z" fill="#ccc"/><path d="M246.9 133.4c-.6-.3-1.4-.1-1.8.6l-20.4 39c-.3.6-.1 1.4.6 1.8.2.1.4.2.6.2.5 0 .9-.3 1.2-.7l20.4-39c.3-.8.1-1.6-.6-1.9z" fill="#999"/><path d="M247.5 133.9c-.3-.6-1.1-.9-1.8-.5-.6.3-.9 1.1-.5 1.8l20.6 38.5c.2.4.7.7 1.2.7.2 0 .4-.1.6-.2.6-.3.9-1.1.5-1.8z" fill="#999"/><path d="M259.2 154c-.6-1.1-1.9-1.5-3-.9s-1.5 1.9-.9 3l2.1 3.9c.4.8 1.2 1.2 2 1.2.4 0 .7-.1 1-.3 1.1-.6 1.5-1.9.9-3zm-22.8-.9c-1.1-.6-2.4-.2-3 .9l-2.1 3.9c-.6 1.1-.2 2.4.9 3 .3.2.7.3 1 .3.8 0 1.6-.4 2-1.2l2.1-3.9c.6-1.1.2-2.4-.9-3zm31.9 18.4c-.5-.9-1.7-1.3-2.6-.8s-1.3 1.7-.8 2.6l.8 1.4c.4.6 1 1 1.7 1 .3 0 .6-.1.9-.2.9-.5 1.3-1.7.8-2.6zm-41.1-.7c-.9-.5-2.1-.2-2.6.8l-.8 1.4c-.5.9-.2 2.1.8 2.6.3.2.6.2.9.2.7 0 1.3-.4 1.7-1l.8-1.4c.5-.9.2-2-.8-2.6zm14.6-13.9c-1-.3-2.1.4-2.3 1.4l-.4 1.5c-.2 1 .4 2.1 1.4 2.3.2 0 .3.1.5.1.9 0 1.7-.6 1.9-1.5l.4-1.5c.2-1-.4-2.1-1.5-2.3zm4.5-31.1c-1.2 0-2.2 1-2.2 2.2v12.4c0 1.2 1 2.2 2.2 2.2s2.2-1 2.2-2.2V128c0-1.2-1-2.2-2.2-2.2z" fill="#4d4d4d"/><path d="M227.2 113.9l30 17.3V96.6l-30-17.3z" fill="#ffd32f"/><path d="M240 106.5l18.3 10.6V96L240 85.4z" fill="#e9a71a"/><path d="M227.2 79.3l30 17.3 9.3-8.8-24-13.8z" fill="#0a3847"/><path d="M257.2 131.2l12.3-9.4v-30l-12.3 4.8z" fill="#0a3847"/><path d="M257.2 96.6l12.3-4.8-3-4z" fill="#0a3847"/><path d="M73.5 232.4c-.8-.2-1.7.3-1.8 1.2l-6.1 27.7c-.2.8.3 1.7 1.2 1.8h.3c.7 0 1.3-.5 1.5-1.2l6.1-27.7c.2-.8-.3-1.6-1.2-1.8z" fill="#666"/><path d="M72.8 242.3c-.2-.8-1-1.4-1.8-1.2s-1.4 1-1.2 1.8l1.9 9.1c.2.7.8 1.2 1.5 1.2h.3c.8-.2 1.4-1 1.2-1.8z" fill="#4d4d4d"/><path d="M79.3 244.1l-7.1 6.4c-.6.6-.7 1.5-.1 2.2.3.3.7.5 1.2.5.4 0 .7-.1 1-.4l7.1-6.4c.6-.6.7-1.5.1-2.2-.6-.6-1.6-.6-2.2-.1z" fill="#ccc"/><path d="M74.2 250.5l-7.1-6.4c-.6-.6-1.6-.5-2.2.1s-.5 1.6.1 2.2l7.1 6.4c.3.3.7.4 1 .4.4 0 .8-.2 1.2-.5.6-.6.6-1.6-.1-2.2z" fill="#ccc"/><path d="M73.2 207c-.9 0-1.5.7-1.5 1.5v46.7c0 .9.7 1.5 1.5 1.5s1.5-.7 1.5-1.5v-46.7c0-.8-.7-1.5-1.5-1.5z" fill="gray"/><path d="M73.9 230.6c-.8-.4-1.7-.1-2.1.7l-24 45.9c-.4.8-.1 1.7.7 2.1.2.1.5.2.7.2.6 0 1.1-.3 1.4-.8l24-45.9c.3-.9.1-1.8-.7-2.2z" fill="#999"/><path d="M74.5 231.2c-.4-.8-1.3-1-2.1-.6s-1 1.3-.6 2.1L96 277.9c.3.5.8.8 1.4.8.2 0 .5-.1.7-.2.8-.4 1-1.3.6-2.1z" fill="#999"/><path d="M88.3 254.8c-.7-1.3-2.3-1.8-3.6-1.1s-1.8 2.3-1.1 3.6l2.5 4.6c.5.9 1.4 1.4 2.3 1.4.4 0 .8-.1 1.2-.3 1.3-.7 1.8-2.3 1.1-3.6zm-26.7-1.1c-1.3-.7-2.9-.2-3.6 1.1l-2.5 4.6c-.7 1.3-.2 2.9 1.1 3.6.4.2.8.3 1.2.3.9 0 1.8-.5 2.3-1.4l2.5-4.6c.7-1.3.3-2.9-1-3.6zm37.5 21.7c-.6-1.1-2-1.5-3.1-.9s-1.5 2-.9 3.1l.9 1.7c.4.8 1.2 1.2 2 1.2.4 0 .8-.1 1.1-.3 1.1-.6 1.5-2 .9-3.1zm-48.3-.8c-1.1-.6-2.5-.2-3.1.9l-.9 1.7c-.6 1.1-.2 2.5.9 3.1.4.2.7.3 1.1.3.8 0 1.6-.4 2-1.2l.9-1.7c.6-1.1.2-2.5-.9-3.1zm17.1-16.4c-1.2-.3-2.5.5-2.8 1.7l-.4 1.7c-.3 1.2.5 2.5 1.7 2.8.2 0 .4.1.5.1 1 0 2-.7 2.2-1.8l.4-1.7c.4-1.3-.4-2.5-1.6-2.8zm5.3-36.5c-1.4 0-2.6 1.2-2.6 2.6v14.6c0 1.4 1.2 2.6 2.6 2.6s2.6-1.2 2.6-2.6v-14.6c0-1.5-1.2-2.6-2.6-2.6z" fill="#4d4d4d"/><path d="M85.3 224.9l14.5-8.3v-40.7l-14.5 8.4z" fill="#f36d00"/><path d="M50.1 204.7L85.3 225v-40.6L50.1 164zm0-40.7l35.2 20.3 14.5-8.3-35.2-20.4z" fill="#0a3847"/><ellipse cx="67.7" cy="194.5" fill="#f36d00" rx="6.4" ry="11.1" transform="rotate(-30 67.669 194.502)"/><path d="M54.3 189.5L65 208.9l8.8-5-11.5-19.1z" fill="#f36d00"/><ellipse cx="59.2" cy="199.5" fill="#0a3847" rx="6.4" ry="11.1" transform="rotate(-30 59.208 199.483)"/><path d="M166.9 245.1l7.8-1.1 15.6-9-7.7 1.3z" fill="#0a3847"/><path d="M180.5 256.2c-.1-.7-.8-1.1-1.5-.9-.7.1-1.1.8-.9 1.5l4.9 22.3c.1.6.6 1 1.2 1h.3c.7-.1 1.1-.8.9-1.5z" fill="#666"/><path d="M181.1 262.3c-.7-.1-1.3.3-1.5 1l-1.6 7.3c-.1.7.3 1.3 1 1.5h.3c.6 0 1.1-.4 1.2-1l1.6-7.3c.1-.7-.3-1.4-1-1.5z" fill="#4d4d4d"/><path d="M180.1 269.8l-5.7-5.1c-.5-.5-1.3-.4-1.8.1s-.4 1.3.1 1.8l5.7 5.1c.2.2.5.3.8.3s.7-.1.9-.4c.6-.5.6-1.3 0-1.8z" fill="#ccc"/><path d="M184.2 264.7l-5.7 5.1c-.5.5-.6 1.2-.1 1.8.2.3.6.4.9.4s.6-.1.8-.3l5.7-5.1c.5-.5.6-1.2.1-1.8-.4-.5-1.2-.6-1.7-.1z" fill="#ccc"/><path d="M179.3 234.8c-.7 0-1.2.6-1.2 1.2v37.5c0 .7.6 1.2 1.2 1.2.7 0 1.2-.6 1.2-1.2V236c.1-.6-.5-1.2-1.2-1.2z" fill="gray"/><path d="M180.4 254.3c-.3-.6-1.1-.8-1.7-.5s-.8 1.1-.5 1.7l19.3 36.8c.2.4.7.7 1.1.7.2 0 .4 0 .6-.1.6-.3.8-1.1.5-1.7z" fill="#999"/><path d="M179.9 253.8c-.6-.3-1.4-.1-1.7.5l-19.4 36.4c-.3.6-.1 1.4.5 1.7.2.1.4.1.6.1.4 0 .9-.2 1.1-.7l19.4-36.4c.3-.5.1-1.3-.5-1.6z" fill="#999"/><path d="M170 272.4c-1-.5-2.3-.2-2.9.9l-2 3.7c-.5 1-.2 2.3.9 2.9.3.2.7.2 1 .2.8 0 1.5-.4 1.9-1.1l2-3.7c.5-1.1.1-2.3-.9-2.9zm21.5.9c-.5-1-1.8-1.4-2.9-.9-1 .5-1.4 1.8-.9 2.9l2 3.7c.4.7 1.1 1.1 1.9 1.1.3 0 .7-.1 1-.2 1-.5 1.4-1.8.9-2.9zM161 289.1c-.9-.5-2-.2-2.5.7l-.8 1.4c-.5.9-.2 2 .7 2.5.3.2.6.2.9.2.6 0 1.3-.3 1.6-.9l.8-1.4c.5-.9.2-2-.7-2.5zm38.8.8c-.5-.9-1.6-1.2-2.5-.7s-1.2 1.6-.7 2.5l.8 1.4c.3.6 1 .9 1.6.9.3 0 .6-.1.9-.2.9-.5 1.2-1.6.7-2.5zm-14-12.6c-.2-1-1.2-1.6-2.2-1.4s-1.6 1.2-1.4 2.2l.3 1.4c.2.8 1 1.4 1.8 1.4.1 0 .3 0 .4-.1 1-.2 1.6-1.2 1.4-2.2zm-6.5-30.7c-1.2 0-2.1.9-2.1 2.1v11.7c0 1.2.9 2.1 2.1 2.1s2.1-.9 2.1-2.1v-11.7c0-1.1-.9-2.1-2.1-2.1z" fill="#4d4d4d"/><path d="M165 242.1l9.7 1.8V226l-9.7-1.8zm22.1-13.8l3.2 6.7v-17.9l-3.2-6.7z" fill="#f36d00"/><path d="M174.7 244l15.6-9v-17.9l-15.6 8.9z" fill="#0a3847"/><path d="M167.8 218.3l6.9 7.7 15.6-8.9-6.9-7.6z" fill="#0a3847"/><ellipse cx="182.5" cy="230.5" fill="#f36d00" rx="4.9" ry="2.8" transform="rotate(-60 182.472 230.518)"/><path d="M179.8 234.7l3.9 2.1 4.7-8.5-3.5-2.1z" fill="#f36d00"/><ellipse cx="186.2" cy="232.7" fill="#0a3847" rx="4.9" ry="2.8" transform="rotate(-60 186.227 232.743)"/><path d="M242.3 233.9c-.1-.7-.8-1.1-1.5-.9-.7.1-1.1.8-.9 1.5l4.8 21.8c.1.6.6 1 1.2 1h.3c.7-.1 1.1-.8.9-1.5z" fill="#666"/><path d="M242.9 239.9c-.7-.1-1.3.3-1.4.9l-1.5 7.1c-.1.7.3 1.3.9 1.4h.3c.6 0 1.1-.4 1.2-1l1.5-7.1c.1-.5-.3-1.2-1-1.3z" fill="#4d4d4d"/><path d="M241.9 247.3l-5.6-5c-.5-.4-1.3-.4-1.7.1s-.4 1.3.1 1.7l5.6 5c.2.2.5.3.8.3s.7-.1.9-.4c.5-.5.4-1.3-.1-1.7z" fill="#ccc"/><path d="M245.9 242.2l-5.6 5c-.5.4-.5 1.2-.1 1.7.2.3.6.4.9.4s.6-.1.8-.3l5.6-5c.5-.4.5-1.2.1-1.7s-1.2-.5-1.7-.1z" fill="#ccc"/><path d="M241.1 204.8c-.7 0-1.2.5-1.2 1.2v44.9c0 .7.5 1.2 1.2 1.2s1.2-.5 1.2-1.2V206c0-.7-.5-1.2-1.2-1.2z" fill="gray"/><path d="M242.2 232.1c-.3-.6-1-.8-1.6-.5s-.8 1-.5 1.6l18.9 36c.2.4.6.7 1.1.7.2 0 .4 0 .6-.1.6-.3.8-1 .5-1.6z" fill="#999"/><path d="M241.7 231.6c-.6-.3-1.3-.1-1.6.5L221 267.7c-.3.6-.1 1.3.5 1.6.2.1.4.1.6.1.4 0 .9-.2 1.1-.6l19-35.6c.3-.6.1-1.3-.5-1.6z" fill="#999"/><g fill="#4d4d4d"><path d="M232 249.8c-1-.5-2.3-.2-2.8.8l-1.9 3.6c-.5 1-.2 2.3.8 2.8.3.2.6.2 1 .2.7 0 1.4-.4 1.8-1.1l1.9-3.6c.6-.9.2-2.2-.8-2.7zm21 .8c-.5-1-1.8-1.4-2.8-.8-1 .5-1.4 1.8-.8 2.8l1.9 3.6c.4.7 1.1 1.1 1.8 1.1.3 0 .7-.1 1-.2 1-.5 1.4-1.8.8-2.8zm-29.8 15.5c-.9-.5-2-.2-2.4.7l-.7 1.3c-.5.9-.2 2 .7 2.4.3.2.6.2.9.2.6 0 1.2-.3 1.6-.9l.7-1.3c.4-.8.1-1.9-.8-2.4zm38 .8c-.5-.9-1.6-1.2-2.4-.7-.9.5-1.2 1.6-.7 2.4l.7 1.3c.3.6.9.9 1.6.9.3 0 .6-.1.9-.2.9-.5 1.2-1.6.7-2.4zm-13.8-12.3c-.2-1-1.2-1.6-2.2-1.3-1 .2-1.6 1.2-1.3 2.2l.3 1.4c.2.8.9 1.4 1.7 1.4h.4c1-.2 1.6-1.2 1.3-2.2zm-6.3-30c-1.1 0-2.1.9-2.1 2.1v11.5c0 1.1.9 2.1 2.1 2.1 1.1 0 2.1-.9 2.1-2.1v-11.5c0-1.2-.9-2.1-2.1-2.1zm-9.1-24.9l2.9 1.6 4-7.2-2.6-1.6z"/><ellipse cx="234.2" cy="196.1" rx="4.2" ry="2.4" transform="rotate(-60 234.179 196.079)"/></g><ellipse cx="236.9" cy="197.7" fill="#1a1a1a" rx="4.2" ry="2.4" transform="rotate(-60 236.915 197.729)"/><path d="M235.5 199.9l5.8 3.4 3-5.3-5.6-3.3z" fill="#333"/><path d="M237.1 194.8c-1.2.7-2.1 2.4-2.1 3.7 0 1.4 1 1.9 2.1 1.2s2.1-2.4 2.1-3.7c.1-1.3-.9-1.8-2.1-1.2z" fill="#333"/><ellipse cx="242.9" cy="200.7" fill="#0a3847" rx="3" ry="1.8" transform="rotate(-60 242.913 200.742)"/><path d="M234.2 206.8l4 2.3v-7.5l-4-2.3z" fill="#666"/><path d="M238.2 209.1l9.6-5.6v-7.4l-9.6 5.5z" fill="#333"/><path d="M241.6 205.3l5.1-2.9v-3.9l-5.1 2.9z" fill="#0a3847"/><path d="M234.2 199.4l4 2.2 9.6-5.5-4-2.3z" fill="#4d4d4d"/><path d="M245.5 195.4c-.6-.3-1.5-.3-2 0-.6.3-.6.9 0 1.2s1.5.3 2 0c.6-.3.6-.9 0-1.2z" fill="#333"/><path d="M243 195.4h2.9v.5H243z" fill="#333"/><path d="M245.5 194.9c-.6-.3-1.5-.3-2 0-.6.3-.6.9 0 1.2s1.5.3 2 0 .6-.9 0-1.2zm-6.5.9v2.5l2 1.1-.7-2.8z" fill="#666"/><path d="M240.3 196.6l.7 2.8 3.2-1.9-.7-2.8z" fill="#333"/><path d="M239 195.8l1.3.8 3.2-1.9-1.3-.7z" fill="#4d4d4d"/><path d="M238.8 198.9c-.6-.3-1.5-.3-2 0-.6.3-.6.9 0 1.2s1.5.3 2 0c.5-.4.5-.9 0-1.2z" fill="#333"/><path d="M236.3 198.9h2.9v.5h-2.9z" fill="#333"/><path d="M238.8 198.3c-.6-.3-1.5-.3-2 0-.6.3-.6.9 0 1.2s1.5.3 2 0 .5-.9 0-1.2z" fill="#666"/><ellipse cx="237.7" cy="198.5" fill="#ccc" rx=".9" ry=".5"/><path d="M240.7 201.7c-.2.1-.3.4-.3.6s.1.3.3.2.3-.4.3-.6c.1-.2-.1-.3-.3-.2zm0 1.5c-.2.1-.3.4-.3.6s.1.3.3.2.3-.4.3-.6c.1-.2-.1-.3-.3-.2zm0 1.5c-.2.1-.3.4-.3.6s.1.3.3.2.3-.4.3-.6c.1-.3-.1-.3-.3-.2z" fill="#1a1a1a"/><path d="M263 214.1l-3.9-2.2.2 4.2z" fill="#f89ab5"/><path d="M261.5 196.1c-1.8.1-3.2 1.7-3.1 3.5l.7 12.3 3.9 2.1-3.7 2-.2-4.2-7.3-3.9c-.7-.4-1.5-.2-2 .4-.5.7-.4 1.6.3 2.1l10.3 7.6c.4.3.8.4 1.3.5 1.3.1 2.4-.9 2.4-2.2v-.3l.9-16.5v-.4c-.1-1.7-1.6-3.1-3.5-3z" fill="#c38b68"/><path d="M258.9 208.9c3.9 1.7 5.6 0 5.6 0v-.7l-5.7-.5z" fill="#e6e6e6"/><path d="M261.8 195.4c-2.1.1-3.8 1.6-3.8 3.5l.2 8.7c1.7 1.8 6 1.8 7.2.1l.1-9.3c-.1-1.7-1.7-3.1-3.7-3z" fill="#fafafa"/><path d="M249.5 206.7l-1.6.9-1 .9-.9.8 4.7 1.6 1.8-.6-.9-2.4z" fill="#f89ab5"/><path d="M246.8 205.5c-.3 0-.5.3-.5.6s.3.5.6.5c.9 0 2.2 1 2.7 1.4.1.1.2.1.4.1s.3-.1.4-.2c.2-.2.2-.6 0-.8-.3-.1-2.1-1.6-3.6-1.6z" fill="#f89ab5"/><path d="M249.9 205.7c-.2-.3-.5-.3-.8-.2-.3.2-.3.5-.2.8.9 1.3 1.8 2.3 1.8 2.3.1.1.3.2.4.2s.3 0 .4-.2c.2-.2.2-.6 0-.8.1.1-.8-.8-1.6-2.1zm-.4 2c-.2-.2-2.2-1.5-3.7-1.2-.3.1-.5.3-.5.6.1.3.3.5.6.5.9-.1 2.4.7 2.9 1.1.1.1.2.1.3.1.2 0 .3-.1.5-.2.2-.4.1-.8-.1-.9z" fill="#f89ab5"/><path d="M249.5 208.7c-.2-.2-2.2-1.5-3.7-1.2-.3.1-.5.3-.5.6.1.3.3.5.6.5.9-.1 2.4.7 2.9 1.1.1.1.2.1.3.1.2 0 .3-.1.5-.2.3-.4.2-.7-.1-.9z" fill="#f89ab5"/><path d="M249.5 209.3c-.2-.1-2.1-1.1-3.5-.6-.3.1-.4.4-.3.7s.4.4.7.3c.8-.3 2.2.3 2.6.5.1 0 .2.1.3.1.2 0 .4-.1.5-.3 0-.2-.1-.6-.3-.7z" fill="#f89ab5"/><path d="M259.7 270.6l2.6-.6v-2.1l-6.4-3.4c-.1-.1.8 3 3.8 6.1z" fill="#2f2f7f"/><path d="M256.7 263.1c-.4-.1-.6.1-.8.4s-.2.7-.1 1c2.5 5.3 4.2 5.3 5.7 4.8s.3-3.9.3-3.9-4.2-2.2-5.1-2.3z" fill="#1d1d1b"/><path d="M247.1 273.3s-.7.7.2 1.4 6.4 1.7 6.4 1.7l1.5-1-.1-4.1z" fill="#2f2f7f"/><path d="M251.4 271c-1.8 1.6-4.2 1.2-4.4 2.6-.1.9 4 1.7 6.3 1.7h.1c.9 0 1.6-.7 1.7-1.6l.1-2c-1-.9-2.8-1.6-3.8-.7z" fill="#1d1d1b"/><path d="M258.8 214.1c-2.7.1-4.9 2.4-4.8 5.2.1 4 .4 8 .7 12l.9 12 .1 1.5c0 .2.1.5.1.7l.1.7.4 3 .7 6 .7 6 .7 6c.1.9.9 1.7 1.9 1.7 1.1 0 1.9-.8 1.9-1.9l.1-11.9v-10.4l.1-1.5.8-11.9c.3-4 .5-7.9.6-11.9v-.3c.1-3-2.2-5.1-5-5z" fill="#f36d00"/><path d="M254.8 235.5c0-.2 8.5-4.2 8.5-4.2l.8-8.2-9.4 5.5z" fill="#f36d00"/><path d="M252.9 244.9l.1-.3-.1-.8z" fill="#5954ff"/><path d="M254 218.3c-2.7-.4-5.2 1.5-5.6 4.2-.2 1.7-.4 3.5-.6 5.3s-.4 3.5-.5 5.3l-1 10.6v1l2.6 13.4 2.6 13.4c.2.9 1.1 1.6 2 1.5 1.1-.1 1.8-1 1.7-2.1l-1.1-13.6-1.1-12.8-.1.3v-1.1l.1.7 2.7-9.9c.5-1.7.9-3.4 1.4-5.1.4-1.7.9-3.4 1.2-5.2 0-.1.1-.3.1-.4.3-2.6-1.6-5.1-4.4-5.5z" fill="#f36d00"/><path d="M263.5 195.8c-1.9-2-13.9 6.9-13.9 6.9-1.9 1.1-.9 0-1.9 3.9s-.3 22.1-.3 22.1 1.5 3.3 8.7.3c8.5-3.5 8.7-6.2 8.7-6.2-.3-.7-.8-3.7-1.1-8.6 1.4-6.1 2.1-16-.2-18.4z" fill="#fff"/><path d="M251.4 202.3l-4 9.3v14.1l1.8.8c.6.2 1.2.2 1.8-.1.5-.3.9-.8 1-1.4l1.9-9.7.9-.9-.5-7.9z" fill="#e6e6e6"/><path d="M254.2 196.2v3.1s-.4 1.4 1.9 2.1 2.9-1.2 2.9-1.2l-.7-4.8z" fill="#d69772"/><path d="M254.2 198.4c3.9-.7 4.2-2.6 4.2-2.6l-4.2.7z" fill="#c38b68"/><path d="M256.3 184.1c-4.1-.2-5.2 1.7-5.4 5.2-.2 4.4.6 7.3 3 7.4s6.3-1.3 6.5-6.1c.2-3.5-1.7-6.4-4.1-6.5z" fill="#d69772"/><path d="M258.3 199.3c-1.1-.6-2.8-.6-3.9 0s-1.1 1.6 0 2.3c1.1.6 2.8.6 3.9 0 1-.7 1-1.7 0-2.3z" fill="#d0936f"/><path d="M253.7 182.6l-2.4 1.8c-.3.2-.4.5-.4.9 0 .3.2.6.5.8.5.3 1.2.5 1.8.8.6.2 1.1.7 1.4 1.3l.7 2 .2 2.7.2 1.1c.1.7.5 1.2 1.1 1.5s1.3.3 1.9.1c3.1-1.4 3-8.2 1.9-10.7-1.8-3.9-6.9-2.3-6.9-2.3z" fill="#1d1d1b"/><path d="M255.5 189.2c-.8 0-1.6.6-1.6 1.5 0 .8.6 1.6 1.5 1.6s1.6-.6 1.6-1.5-.6-1.5-1.5-1.6zm-6.5 14c-1.8.1-3.2 1.7-3.1 3.5l.4 7.5 5 7.8-4.5 1.2-.5-9-5.8-9c-.4-.7-1.3-.9-2-.5-.8.4-1 1.3-.6 2.1l9.2 17.6c.4.7 1.1 1.2 2 1.3 1.3.1 2.4-.9 2.5-2.3v-.2l.9-16.5v-.4c-.1-1.8-1.7-3.2-3.5-3.1z" fill="#d69772"/><path d="M251.3 222l-5-7.8.5 9z" fill="#d0936f"/><path d="M246.4 216c3.9 1.7 5.6 0 5.6 0v-.7l-5.7-.5z" fill="#e6e6e6"/><path d="M249.3 202.5c-2.1.1-3.8 1.6-3.8 3.5l.2 8.7c1.7 1.8 6 1.8 7.2.1l.1-9.3c-.1-1.7-1.8-3.1-3.7-3z" fill="#fff"/><path d="M238.5 202.6l-1.2-.3-1.2-.1 1.7 4.6 1.7 1 1.2-2.3-.4-2.4z" fill="#d69772"/><path d="M238.6 200.3c-.2.2-.2.6 0 .8.6.7.7 2.4.7 3 0 .3.2.6.5.6s.5-.2.6-.5c0-.3 0-2.7-1-3.8-.2-.3-.6-.3-.8-.1z" fill="#d69772"/><path d="M240.9 202.2c-.3-.1-.6.1-.7.4-.5 1.5-.6 2.8-.6 2.9 0 .3.2.6.5.6h.1c.3 0 .5-.2.5-.5 0 0 .1-1.3.6-2.7.1-.4-.1-.7-.4-.7zm-2.8-2.1c-.2-.2-.6-.2-.8.1-.2.2-.2.6.1.8.7.6 1 2.3 1.1 2.9 0 .3.3.5.5.5h.1c.3 0 .5-.3.5-.6-.1-.3-.4-2.7-1.5-3.7z" fill="#d69772"/><path d="M237.3 200.9c-.2-.2-.6-.2-.8.1-.2.2-.2.6.1.8.7.6 1 2.3 1.1 2.9 0 .3.3.5.5.5h.1c.3 0 .5-.3.5-.6-.1-.4-.3-2.7-1.5-3.7z" fill="#d69772"/><path d="M236.5 201.7c-.3-.2-.6-.1-.8.2s-.1.6.2.8c.8.4 1.2 1.8 1.3 2.3.1.3.3.5.5.5h.1c.3-.1.5-.3.4-.6 0-.3-.4-2.4-1.7-3.2z" fill="#d69772"/><path d="M46.8 280.2c5.9-8.5 7.8-18 5.6-28.2-4.7-22.6-2.6-35.6.1-42.5 2.8-7.4 6.8-9.6 6.9-9.7.2-.1.3-.4.2-.6s-.4-.3-.6-.2-4.3 2.3-7.3 10.1c-1.7 4.5-2.7 10-3 16.2-.3 7.8.7 16.8 2.8 26.9 3.8 18-5.1 33.3-26.5 45.4-8.2 4.6-16.7 7.9-23.1 10h3c6.1-2.1 13.5-5.1 20.6-9.1 9.4-5.4 16.6-11.5 21.3-18.3zM209 299c-6.2-7.7-13.4-19.3-12.1-30.8.8-7.2.8-13.6-.1-18.9-.7-4.3-2-8-3.7-10.9-3-5.1-6.5-6.2-6.6-6.2-.2-.1-.5.1-.6.3s.1.5.3.6c0 0 3.3 1 6.1 5.8 2.7 4.5 5.5 13.2 3.7 29.2-1.3 11.8 6 23.6 12.3 31.5 2.3 2.8 4.8 5.5 7.3 8h1.3c-2.7-2.6-5.4-5.5-7.9-8.6z" fill="#0a3847"/></svg>