<svg height="42.049" width="154.549" xmlns="http://www.w3.org/2000/svg"><path d="M41.832 31.391a1.03 1.03 0 01-1.029-1.03v-18.06a1.029 1.029 0 112.058 0v18.06a1.03 1.03 0 01-1.029 1.03z" fill="#e03021"/><path d="M43.898 33.85a1.03 1.03 0 01-1.029-1.03V12.302a1.03 1.03 0 112.059 0v20.519a1.03 1.03 0 01-1.03 1.029z" fill="#ec6c2d"/><path d="M45.963 36.199a1.03 1.03 0 01-1.029-1.03V12.302a1.029 1.029 0 112.058 0v22.867a1.03 1.03 0 01-1.029 1.03z" fill="#edfb53"/><path d="M48.028 38.357a1.029 1.029 0 01-1.029-1.03V17.588a1.03 1.03 0 112.059 0v19.735a1.029 1.029 0 01-1.03 1.034z" fill="#71f17b"/><path d="M50.094 40.515a1.03 1.03 0 01-1.029-1.03V19.53a1.03 1.03 0 012.059 0v19.955a1.03 1.03 0 01-1.03 1.03z" fill="#1c5ff3"/><path d="M52.159 42.049a1.03 1.03 0 01-1.029-1.03v-20.7a1.029 1.029 0 112.058 0v20.7a1.03 1.03 0 01-1.029 1.03z" fill="#8838ef"/><path d="M54.225 40.515a1.03 1.03 0 01-1.029-1.03V19.53a1.03 1.03 0 012.059 0v19.955a1.03 1.03 0 01-1.03 1.03z" fill="#67e0f0"/><path d="M56.29 38.357a1.029 1.029 0 01-1.029-1.03V17.588a1.03 1.03 0 112.059 0v19.735a1.03 1.03 0 01-1.03 1.034z" fill="#f6d0e4"/><path d="M58.355 36.199a1.03 1.03 0 01-1.029-1.03V12.302a1.029 1.029 0 112.058 0v22.867a1.03 1.03 0 01-1.029 1.03z" fill="#e1e1e1"/><path d="M60.42 33.85a1.03 1.03 0 01-1.029-1.03V12.302a1.029 1.029 0 112.058 0v20.519a1.03 1.03 0 01-1.029 1.029z" fill="#4a4a49"/><path d="M62.486 31.391a1.03 1.03 0 01-1.029-1.03v-18.06a1.03 1.03 0 012.059 0v18.06a1.03 1.03 0 01-1.03 1.03z" fill="#af7f4a"/><path d="M6.795 20.168v10.966h-6.8V.645h11.482c6.192 0 10.45 4.085 10.45 9.761 0 5.763-4.258 9.762-10.45 9.762zm4-5.849c2.581 0 4.343-1.505 4.343-3.87 0-2.452-1.763-3.914-4.343-3.914H6.839v7.784zm27.393 1.893a8.884 8.884 0 00-2.064-.215c-2.623 0-4.989 1.548-4.989 5.806v9.332h-6.536V9.762h6.321v2.881c1.118-2.408 3.828-3.1 5.548-3.1a6.444 6.444 0 011.72.215zm25.327-4.344a11.353 11.353 0 01-22.706 0 11.353 11.353 0 0122.706 0zm-6.536 0c0-3.612-2.323-5.289-4.816-5.289-2.452 0-4.817 1.677-4.817 5.289 0 3.57 2.365 5.333 4.817 5.333 2.493 0 4.815-1.72 4.815-5.333zM80.5 28.984c-1.118 1.849-3.569 2.624-5.719 2.624-5.2 0-8.128-3.784-8.128-8.343V9.762h6.536v12.126c0 2.064 1.118 3.7 3.44 3.7a3.409 3.409 0 003.57-3.655V9.762h6.536v17.545a33.633 33.633 0 00.215 3.827h-6.28a15.628 15.628 0 01-.17-2.15zm32.166-1.677c0 1.935.13 3.354.172 3.827h-6.279a14.766 14.766 0 01-.171-2.064 6.894 6.894 0 01-5.72 2.537c-6.02 0-10.579-4.644-10.579-11.225 0-6.364 4.3-11.137 10.364-11.137 3.655 0 5.247 1.376 5.762 2.193V0h6.451zm-11.181-1.544c2.537 0 4.816-1.806 4.816-5.333 0-3.569-2.279-5.289-4.816-5.289s-4.816 1.72-4.816 5.289c.004 3.523 2.279 5.333 4.816 5.333zm35.688-.778c-1.032 3.7-4.429 6.795-9.848 6.795-5.892 0-11.138-4.215-11.138-11.4 0-6.881 5.117-11.267 10.665-11.267 6.622 0 10.708 4.086 10.708 10.966a13.661 13.661 0 01-.129 2.021h-14.879a4.625 4.625 0 004.859 4.128 4.127 4.127 0 004.3-2.795zm-5.935-7.1c-.086-1.634-1.2-3.612-4.3-3.612a4.072 4.072 0 00-4.258 3.612zm23.311-1.673a8.877 8.877 0 00-2.064-.215c-2.624 0-4.988 1.548-4.988 5.806v9.332h-6.536V9.762h6.322v2.881c1.118-2.408 3.827-3.1 5.547-3.1a6.441 6.441 0 011.72.215z" fill="#f7f7f7"/></svg>